<svg width="37" height="45" viewBox="0 0 37 45" fill="none" xmlns="http://www.w3.org/2000/svg">
<path d="M18.5 3.6001C14.2018 3.6001 10.73 6.97809 10.73 11.1601V15.8401H9.62002C8.60152 15.8401 7.77002 16.6491 7.77002 17.6401V30.6001C7.77002 31.5911 8.60152 32.4001 9.62002 32.4001H27.38C28.3985 32.4001 29.23 31.5911 29.23 30.6001V17.6401C29.23 16.6491 28.3985 15.8401 27.38 15.8401H26.27V11.1601C26.27 6.97809 22.7982 3.6001 18.5 3.6001ZM18.5 4.3201C22.401 4.3201 25.53 7.36451 25.53 11.1601V15.8401H11.47V11.1601C11.47 7.36451 14.599 4.3201 18.5 4.3201ZM9.62002 16.5601H27.38C28.0014 16.5601 28.49 17.0355 28.49 17.6401V30.6001C28.49 31.2046 28.0014 31.6801 27.38 31.6801H9.62002C8.99868 31.6801 8.51002 31.2046 8.51002 30.6001V17.6401C8.51002 17.0355 8.99868 16.5601 9.62002 16.5601Z" fill="black"/>
</svg>
