<svg width="21" height="21" viewBox="0 0 21 21" fill="none" xmlns="http://www.w3.org/2000/svg">
<path d="M0.34138 0C0.15117 0 0 0.152744 0 0.345027V6.43852C0 6.63075 0.153723 6.78352 0.34138 6.78352H6.36574C6.5534 6.78352 6.70713 6.63078 6.70713 6.43852V0.345027C6.70713 0.152795 6.5534 0 6.36574 0H0.34138ZM14.6292 0C14.4416 0 14.2878 0.152744 14.2878 0.345027V6.43852C14.2878 6.63075 14.4416 6.78352 14.6292 6.78352H20.6536C20.8412 6.78352 21 6.63078 21 6.43852V0.345027C21 0.152795 20.8412 0 20.6536 0H14.6292ZM7.80158 0.345027V2.39987H9.81973V4.43442H7.80158V6.48925V8.53903H5.77839V9.8937H4.38775H4.23716H2.3696V7.85916H0.34138V9.90892H2.35454V11.639V11.9485V13.6888H4.38777V11.9485H6.27039V10.5939H7.8066V8.53903H9.83482V9.56899H13.8711V14.668H11.863V12.6487H9.84486V10.604H7.81162V12.6538H9.83482V14.6782H7.82668V20.655H9.8549V18.6915H11.863V16.7178H13.8962V14.6883H15.8994V11.634H17.9225V13.6787H20.6536V11.6238H17.9326V9.57911H15.9044V9.56874H13.8962V7.51391H9.83482V6.48903V4.43418H11.2907H11.8479H13.3239V2.37935H11.8479H11.2907H9.83482V0.344783H7.80158V0.345027ZM0.682769 0.695096H6.02439V6.09352H0.682769V0.695096ZM14.9706 0.695096H20.3122V6.09352H14.9706V0.695096ZM1.45086 1.47138V5.31217H5.25627V1.47138H1.45086ZM15.7437 1.47138V5.31217H19.5441V1.47138H15.7437ZM17.9275 7.51413V9.56899H19.9558V7.51413H17.9275ZM0.34138 14.2215C0.15117 14.2215 0 14.3743 0 14.5666V20.655C0 20.8446 0.153723 21 0.34138 21H6.36574C6.5534 21 6.70713 20.8447 6.70713 20.655V14.5666C6.70713 14.3769 6.5534 14.2215 6.36574 14.2215H0.34138ZM9.85991 14.6985H11.868V16.6417H9.85991V14.6985ZM0.682769 14.9115H6.02439V20.3099H0.682769V14.9115ZM14.7246 15.6117V17.6665H16.6273V20.7462H18.6254H18.6605H20.6536V18.6914H18.6605V15.6218H16.7578V15.6114H14.7246V15.6117ZM1.45086 15.6878V19.5336H5.25627V15.6878H1.45086ZM11.868 18.6914V20.7463H13.8962V18.6914H11.868Z" fill="white"/>
</svg>
