<svg width="58" height="58" viewBox="0 0 58 58" fill="none" xmlns="http://www.w3.org/2000/svg">
<g clip-path="url(#clip0)">
<path fill-rule="evenodd" clip-rule="evenodd" d="M45.1494 41.0404H41.9449V30.7389C41.9449 13.838 16.3082 13.838 16.3082 30.7389V41.0404H13.157C11.341 41.0404 9.95239 42.4891 9.95239 44.2597V46.1912C9.95239 46.8887 10.4865 47.4789 11.2342 47.4789H47.0722C47.7665 47.4789 48.354 46.8887 48.354 46.1912V44.2597C48.354 42.4891 46.912 41.0404 45.1494 41.0404ZM17.59 30.7389C17.59 15.5013 40.663 15.5013 40.663 30.7389V41.0404H17.59V30.7389ZM47.0722 46.1912H11.2342V44.2597C11.2342 43.1866 12.0888 42.3281 13.157 42.3281H45.1494C46.2176 42.3281 47.0722 43.1866 47.0722 44.2597V46.1912Z" fill="#3BB30B"/>
<path fill-rule="evenodd" clip-rule="evenodd" d="M24.3196 22.4226C22.023 23.764 20.3139 26.0174 19.7798 28.7001L21.0082 28.9684C21.4889 26.6613 22.931 24.6761 24.9605 23.4957L24.3196 22.4226Z" fill="#626262"/>
<path fill-rule="evenodd" clip-rule="evenodd" d="M27.097 21.3496C26.6163 21.4033 26.1356 21.5642 25.7083 21.7252L26.189 22.9592C26.5629 22.7983 26.9367 22.691 27.364 22.5836L27.097 21.3496Z" fill="#626262"/>
<path fill-rule="evenodd" clip-rule="evenodd" d="M18.2309 11.4773C13.6377 11.4773 9.95239 15.1794 9.95239 19.7936C9.95239 20.6521 11.2342 20.6521 11.2342 19.7936C11.2342 15.9306 14.3854 12.765 18.2309 12.765C19.0855 12.765 19.0855 11.4773 18.2309 11.4773Z" fill="#626262"/>
<path fill-rule="evenodd" clip-rule="evenodd" d="M18.2309 14.6965C15.4002 14.6965 13.157 16.95 13.157 19.7936C13.157 20.6521 14.4388 20.6521 14.4388 19.7936C14.4388 17.7011 16.1479 15.9842 18.2309 15.9306C19.0855 15.9306 19.0855 14.6965 18.2309 14.6965Z" fill="#626262"/>
<path fill-rule="evenodd" clip-rule="evenodd" d="M40.0221 11.4773C39.1675 11.4773 39.1675 12.765 40.0221 12.765C43.921 12.765 47.0722 15.9306 47.0722 19.7936C47.0722 20.6521 48.354 20.6521 48.354 19.7936C48.354 15.1794 44.6153 11.4773 40.0221 11.4773Z" fill="#626262"/>
<path fill-rule="evenodd" clip-rule="evenodd" d="M40.0221 14.6965C39.1675 14.6965 39.1675 15.9306 40.0221 15.9306C42.1585 15.9842 43.8676 17.7011 43.8676 19.7936C43.8676 20.6521 45.1494 20.6521 45.1494 19.7936C45.1494 16.95 42.8528 14.6965 40.0221 14.6965Z" fill="#626262"/>
</g>
<defs>
<clipPath id="clip0">
<rect width="40" height="36.7568" fill="white" transform="translate(9 11)"/>
</clipPath>
</defs>
</svg>
