<svg width="29" height="11" viewBox="0 0 29 11" fill="none" xmlns="http://www.w3.org/2000/svg">
<g clip-path="url(#clip0)">
<path d="M10.6891 1.54098L10.4396 1.48673C9.77112 1.34034 8.88503 1.14667 7.67557 1.0271L2.90845 7.56936C3.23182 8.09869 3.71865 8.50688 4.30592 8.72584C5.45981 9.15603 8.01495 9.40431 9.61597 8.72755C10.8257 8.11051 11.6733 5.48478 11.9445 3.30837C12.0465 2.49044 11.4951 1.71418 10.6891 1.54098Z" fill="white"/>
<path d="M18.539 1.4863L18.2893 1.54056C17.4834 1.71375 16.9319 2.49002 17.0339 3.30794C17.1214 4.00956 17.2695 4.7573 17.4699 5.47014L20.5809 1.11206C19.7321 1.22677 19.0658 1.37091 18.539 1.4863Z" fill="white"/>
<path d="M2.47028 2.00582C1.77928 2.62769 1.88325 4.05192 2.17584 5.3592L5.36403 0.991211C4.38152 1.07994 3.21484 1.33571 2.47028 2.00582Z" fill="white"/>
<path d="M28.386 0.642342C27.5175 0.447352 24.9847 -0.0652036 22.7165 0.0246249C19.9263 0.135116 17.4261 0.660023 16.2243 0.991536C15.5751 1.22637 14.5575 1.18493 14.5575 1.18493H14.4424C14.4424 1.18493 13.4248 1.22637 12.7756 0.991536C11.5738 0.660023 9.07362 0.135116 6.28337 0.0246249C4.01521 -0.0652036 1.48239 0.447352 0.613923 0.642342C0.430765 0.683438 0.302246 0.845337 0.302246 1.033V2.32267C0.302246 2.48647 0.401906 2.63377 0.554051 2.6946L0.594992 2.71101C0.711582 2.75763 0.792926 2.86247 0.807086 2.98719C0.91221 3.91747 1.41759 7.82104 2.59519 8.8651C3.9351 10.053 5.82578 10.0378 6.93259 10.053C8.039 10.0683 11.1028 10.6465 13.3479 4.22634C13.3888 4.10946 13.4214 3.98774 13.4535 3.86816C13.5189 3.62469 13.7183 3.13261 14.2674 3.09116H14.7325C15.2815 3.13261 15.481 3.62469 15.5464 3.86816C15.5785 3.98774 15.6111 4.10946 15.652 4.22634C17.8972 10.6465 20.9609 10.0683 22.0673 10.053C23.1741 10.0378 25.0648 10.053 26.4047 8.8651C27.5823 7.82104 28.0877 3.91747 28.1928 2.98719C28.207 2.86247 28.2883 2.75763 28.4048 2.71101L28.4459 2.6946C28.5979 2.63377 28.6977 2.48647 28.6977 2.32267V1.033C28.6977 0.845337 28.5692 0.683438 28.386 0.642342ZM12.2604 3.34774C12.0436 5.08838 11.2707 8.241 9.75023 9.01584C8.9942 9.33564 8.041 9.46033 7.11128 9.46033C5.96708 9.46033 4.85789 9.27128 4.19452 9.02392C3.3149 8.69605 2.63629 7.98898 2.33292 7.08383C1.70064 5.19737 1.17425 2.74391 2.25743 1.76911C3.83928 0.345172 7.0157 0.64771 7.18123 0.664506C8.68367 0.776287 9.73776 1.007 10.5075 1.17554L10.756 1.22964C11.7219 1.43702 12.3828 2.36751 12.2604 3.34774ZM26.6454 7.0834C26.3422 7.98839 25.6637 8.69562 24.7839 9.0235C24.1192 9.27148 23.0066 9.46068 21.8615 9.46083C20.9354 9.46083 19.9882 9.33708 19.2385 9.02023C17.7078 8.24056 16.9349 5.08796 16.718 3.34732C16.5957 2.36709 17.2566 1.4366 18.2225 1.2292L18.471 1.1751C19.2407 1.00658 20.2948 0.775863 21.7971 0.664083C21.9625 0.646979 25.139 0.345056 26.7211 1.76869C27.8044 2.74362 27.2778 5.19693 26.6454 7.0834Z" fill="white"/>
<path d="M23.0317 0.954834L18.2971 7.55085C18.6108 8.10254 18.9711 8.52723 19.3728 8.73199C20.964 9.40408 23.5188 9.15533 24.6726 8.72545C25.4619 8.43115 26.0709 7.7959 26.3434 6.98248C26.8364 5.51206 27.5133 2.91013 26.508 2.00546C25.6088 1.19613 24.0942 0.990658 23.0317 0.954834Z" fill="white"/>
</g>
<defs>
<clipPath id="clip0">
<rect width="29" height="10.087" fill="white"/>
</clipPath>
</defs>
</svg>
