<svg width="19" height="19" viewBox="0 0 19 19" fill="none" xmlns="http://www.w3.org/2000/svg">
<path d="M12.7321 16.7322H2.26787V6.26791H7.85806L10.126 4H1.13392C0.517225 4 0 4.49735 0 5.13392V17.8661C0 18.4828 0.497348 19 1.13392 19H13.866C14.4827 19 14.9999 18.5027 14.9999 17.8661L15 8.89389L12.7321 11.1618L12.7321 16.7322Z" fill="white"/>
<path d="M17.8652 3.31661e-05H12.0715C11.4344 3.31661e-05 10.9367 0.497324 10.9367 1.13382C10.9367 1.77032 11.4344 2.26761 12.0715 2.26761H15.1375L8.32848 9.07055C7.89051 9.50813 7.89051 10.2243 8.32848 10.6619C8.54747 10.8807 8.84611 11 9.12486 11C9.40362 11 9.70226 10.8807 9.92125 10.6619L16.7303 3.85894V6.92225C16.7303 7.53887 17.2281 8.05604 17.8651 8.05604C18.4823 8.05604 18.9999 7.55875 18.9999 6.92225L19 1.13379C19 0.497291 18.5023 0 17.8652 0L17.8652 3.31661e-05Z" fill="white"/>
</svg>
