<svg width="77" height="67" viewBox="0 0 77 67" fill="none" xmlns="http://www.w3.org/2000/svg">
<path d="M56.6278 43.9722C54.6274 41.5101 53.5502 38.5094 53.5502 35.3548V29.3535C53.5502 22.1211 48.4721 16.1197 41.7014 14.6579V11.8111C41.7014 10.0415 40.2395 8.57959 38.4699 8.57959C36.7003 8.57959 35.2384 10.0415 35.2384 11.8111V14.6579C28.4676 16.1197 23.3896 22.1211 23.3896 29.3535V35.3548C23.3896 38.5094 22.3124 41.5101 20.312 43.9722L17.7729 47.2037C15.9264 49.5119 17.5421 52.8972 20.4658 52.8972H56.6278C59.5515 52.8972 61.1673 49.5119 59.3207 47.2037L56.6278 43.9722Z" stroke="#3BB30B" stroke-width="3"/>
<path d="M52.7804 10.8874C51.7801 11.9646 51.7801 13.6573 52.8573 14.6575C56.4735 18.1198 58.6278 22.8132 58.9356 27.7373C59.0125 29.1223 60.2436 30.1994 61.6285 30.1994C61.7055 30.1994 61.7824 30.1994 61.7824 30.1994C63.2443 30.1225 64.3984 28.8145 64.2445 27.3526C63.7828 21.1205 61.0899 15.1961 56.5504 10.8105C55.4733 9.81024 53.7806 9.88718 52.7804 10.8874Z" stroke="#3BB30B" stroke-width="3"/>
<path d="M18.2341 27.8147C18.6188 22.8905 20.7732 18.1971 24.3124 14.7348C25.3896 13.7346 25.3896 11.965 24.3894 10.9647C23.3892 9.88757 21.6195 9.88757 20.6193 10.8878C16.0798 15.2734 13.3869 21.1978 12.9253 27.43C12.8483 28.8918 13.9255 30.1998 15.3874 30.2768C15.4643 30.2768 15.5412 30.2768 15.5412 30.2768C16.9262 30.3537 18.0803 29.1996 18.2341 27.8147Z" stroke="#3BB30B" stroke-width="3"/>
<path d="M17.2342 6.65579C18.3114 5.65556 18.3883 3.96287 17.3881 2.88571C16.3878 1.80854 14.6952 1.7316 13.618 2.73183C6.23172 9.57952 2 19.274 2 29.3532V30.0457C2 31.5075 3.23105 32.7386 4.69291 32.7386C6.15478 32.7386 7.38583 31.5075 7.38583 30.0457V29.3532C7.38583 20.6589 10.8481 12.5802 17.2342 6.65579Z" stroke="#3BB30B" stroke-width="3"/>
<path d="M63.5523 2.73196C62.4752 1.73174 60.7825 1.73174 59.7823 2.88585C58.782 3.96301 58.782 5.6557 59.9361 6.65592C66.3222 12.5803 69.7845 20.6591 69.7845 29.3533V30.0458C69.7845 31.5077 71.0155 32.7387 72.4774 32.7387C73.9393 32.7387 75.1703 31.5077 75.1703 30.0458V29.3533C75.0934 19.2741 70.8617 9.57966 63.5523 2.73196Z" stroke="#3BB30B" stroke-width="3"/>
<path d="M38.5466 64.9001C42.7783 64.9001 46.2406 61.4378 46.2406 57.2061H30.8525C30.8525 61.4378 34.3149 64.9001 38.5466 64.9001Z" stroke="#3BB30B" stroke-width="3"/>
</svg>
