<svg width="15" height="14" viewBox="0 0 15 14" fill="none" xmlns="http://www.w3.org/2000/svg">
<path d="M9.80075 5.71847L9.79771 5.70898L9.772 5.68327C9.62194 5.53321 9.38744 5.53373 9.23754 5.66223L9.23741 5.66208L9.23175 5.66747L6.58582 8.18619L5.64409 7.24446C5.49292 7.09328 5.25237 7.09328 5.1012 7.24446C4.95003 7.39563 4.95002 7.63618 5.1012 7.78735C5.1012 7.78735 5.1012 7.78735 5.1012 7.78735L6.30517 8.99132C6.37333 9.05948 6.47777 9.1014 6.56998 9.1014C6.66146 9.1014 6.76504 9.06016 6.83323 8.99286L9.74071 6.23076C9.89976 6.0895 9.90857 5.86953 9.80075 5.71847Z" fill="#3BB30B" stroke="#3BB30B" stroke-width="0.3"/>
<path d="M2.2638 6.46035L2.30671 6.48323L3.2492 10.004V9.90405L3.25013 10.004L3.24977 10.004C3.44439 10.0037 3.57409 9.84551 3.57409 9.66586V6.6361C3.57409 4.4685 5.32878 2.70081 7.49614 2.68759C9.66351 2.7008 11.4182 4.4685 11.4182 6.6361V9.70555C11.4182 9.89842 11.5725 10.0253 11.732 10.0431L11.7319 10.0437H11.7431H11.9734C11.8173 11.058 10.9994 11.8511 9.96857 11.9548C9.8424 11.688 9.56153 11.4975 9.24253 11.4975H8.581C8.14208 11.4975 7.77977 11.8598 7.77977 12.2988C7.77977 12.7377 8.14208 13.1 8.581 13.1H9.24253C9.56694 13.1 9.85147 12.9031 9.9745 12.6192C11.3662 12.5094 12.4793 11.4177 12.6405 10.0438H13.1719C13.677 10.0438 14.0922 9.62853 14.0922 9.12352L14.0922 7.42991C14.0922 6.91266 13.678 6.49637 13.172 6.49637H13.0906L13.0906 6.49646H12.7238L12.7669 6.47422C12.7671 6.47411 12.7673 6.47401 12.7675 6.47391C12.885 6.41482 12.9412 6.29786 12.9412 6.18633C12.9412 3.27121 10.5128 0.9 7.5358 0.9H7.52258H7.50936C4.51945 0.9 2.09073 3.27088 2.09073 6.1731C2.09073 6.28443 2.14676 6.40116 2.2638 6.46035ZM1.82026 7.17279H2.89776V9.36872L1.82026 9.38069C1.8201 9.38069 1.81994 9.38069 1.81979 9.38069C1.67678 9.38044 1.56306 9.26656 1.56306 9.12349V7.42999C1.56306 7.28676 1.67703 7.17279 1.82026 7.17279ZM7.46664 2.02393L7.46623 2.02461C5.12463 2.0522 3.21073 3.81406 2.94 6.09389L2.75608 5.99536C2.86608 3.52678 4.94972 1.56305 7.49613 1.56305H7.50935H7.52257C10.0687 1.56305 12.1519 3.52621 12.2626 5.98107L12.0408 6.09554C11.7946 3.82573 9.86595 2.05104 7.52371 2.02457L7.46664 2.02393ZM12.0813 9.36856V7.15951H13.1588C13.302 7.15951 13.4159 7.27348 13.4159 7.41671V9.12344V9.20595C13.382 9.30794 13.2866 9.38047 13.1725 9.38067C13.1723 9.38067 13.1721 9.38067 13.172 9.38067L12.0813 9.36856ZM9.25576 12.4369H8.59424C8.51716 12.4369 8.45607 12.3758 8.45607 12.2988C8.45607 12.2217 8.51716 12.1606 8.59424 12.1606H9.25576C9.33284 12.1606 9.39393 12.2217 9.39393 12.2988C9.39393 12.3758 9.33284 12.4369 9.25576 12.4369Z" fill="#6F6A6A" stroke="#6F6A6A" stroke-width="0.2"/>
</svg>
