<svg width="50" height="51" viewBox="0 0 50 51" fill="none" xmlns="http://www.w3.org/2000/svg">
<path fill-rule="evenodd" clip-rule="evenodd" d="M12.1392 34.5151L0.444115 45.1738C-0.148038 45.766 -0.148038 46.6542 0.444115 47.2464L2.81273 49.615C3.40489 50.2072 4.29312 50.2072 4.88527 49.615L15.396 37.7719C15.9882 37.3278 15.9882 36.4396 15.396 35.8474L14.0637 34.6631C13.6195 34.0709 12.7313 34.0709 12.1392 34.5151Z" fill="#363636"/>
<path d="M44.1156 5.94361C36.2696 -1.90243 23.3902 -1.90243 15.5442 5.94361C7.69816 13.7897 7.69816 26.521 15.5442 34.515C23.3902 42.3611 36.2696 42.3611 44.1156 34.515C51.9617 26.521 51.9617 13.7897 44.1156 5.94361ZM41.747 8.16419C48.4087 14.8259 48.4087 25.4847 41.747 32.1464C35.2333 38.8082 24.4265 38.8082 17.9128 32.1464C11.2511 25.4847 11.2511 14.8259 17.9128 8.16419C24.4265 1.6505 35.2333 1.6505 41.747 8.16419Z" fill="#3BB30B"/>
</svg>
