<svg width="71" height="62" viewBox="0 0 71 62" fill="none" xmlns="http://www.w3.org/2000/svg">
<path fill-rule="evenodd" clip-rule="evenodd" d="M17.4683 59.7001C18.2968 59.4523 19.0527 59.0071 19.6711 58.4027C20.2894 57.7982 20.7518 57.0527 21.0183 56.2301C22.0212 56.7491 23.1633 56.9356 24.2791 56.7625C25.395 56.5894 26.4269 56.0657 27.2254 55.2672C28.0239 54.4687 28.5476 53.4368 28.7207 52.3209C28.8938 51.205 28.7074 50.063 28.1883 49.0601C29.2645 48.718 30.204 48.0423 30.8706 47.1308C31.5373 46.2193 31.8967 45.1193 31.8967 43.9901C31.8967 42.8608 31.5373 41.7608 30.8706 40.8493C30.204 39.9379 29.2645 39.2622 28.1883 38.9201C28.7074 37.9172 28.8938 36.7751 28.7207 35.6592C28.5476 34.5434 28.0239 33.5115 27.2254 32.713C26.4269 31.9145 25.395 31.3908 24.2791 31.2177C23.1633 31.0446 22.0212 31.231 21.0183 31.7501C20.6762 30.6739 20.0005 29.7344 19.089 29.0678C18.1776 28.4011 17.0776 28.0417 15.9483 28.0417C14.8191 28.0417 13.7191 28.4011 12.8076 29.0678C11.8961 29.7344 11.2204 30.6739 10.8783 31.7501C9.87544 31.231 8.7334 31.0446 7.6175 31.2177C6.50161 31.3908 5.46974 31.9145 4.67124 32.713C3.87275 33.5115 3.34905 34.5434 3.17593 35.6592C3.00282 36.7751 3.18928 37.9172 3.70832 38.9201C2.63212 39.2622 1.6927 39.9379 1.02602 40.8493C0.359343 41.7608 0 42.8608 0 43.9901C0 45.1193 0.359343 46.2193 1.02602 47.1308C1.6927 48.0423 2.63212 48.718 3.70832 49.0601C3.18176 50.0628 2.98957 51.2076 3.15984 52.3272C3.33011 53.4469 3.85392 54.4828 4.65475 55.2836C5.45559 56.0845 6.49149 56.6083 7.61117 56.7786C8.73084 56.9488 9.87563 56.7566 10.8783 56.2301C11.1473 57.059 11.6151 57.8096 12.2409 58.4162C12.8666 59.0228 13.6314 59.467 14.4683 59.7101L15.5 60H16.3687L17.4683 59.7001ZM11.5869 41.0827C11.0121 41.9469 10.7064 42.9622 10.7083 44.0001C10.7136 45.3934 11.2715 46.7277 12.2595 47.7101C13.2476 48.6925 14.585 49.2427 15.9783 49.2401C17.0162 49.2361 18.0297 48.9246 18.8906 48.3449C19.7516 47.7652 20.4214 46.9433 20.8154 45.983C21.2094 45.0228 21.3099 43.9673 21.1042 42.95C20.8986 41.9326 20.396 40.999 19.66 40.2672C18.924 39.5354 17.9876 39.0382 16.9691 38.8383C15.9506 38.6385 14.8957 38.7451 13.9377 39.1445C12.9797 39.544 12.1617 40.2185 11.5869 41.0827ZM23.4533 53.8277C24.0736 53.8277 24.6699 53.5886 25.1183 53.1601C25.446 52.831 25.6689 52.4123 25.7589 51.9567C25.8488 51.5011 25.8017 51.0291 25.6235 50.6002C25.4454 50.1714 25.1442 49.8049 24.7579 49.5471C24.3717 49.2893 23.9177 49.1517 23.4533 49.1517C22.9889 49.1517 22.535 49.2893 22.1487 49.5471C21.7625 49.8049 21.4612 50.1714 21.2831 50.6002C21.105 51.0291 21.0579 51.5011 21.1478 51.9567C21.2377 52.4123 21.4606 52.831 21.7883 53.1601C22.2367 53.5886 22.8331 53.8277 23.4533 53.8277ZM28.5223 45.3057C28.7805 44.9192 28.9183 44.4649 28.9183 44.0001C28.9157 43.3776 28.6673 42.7814 28.2271 42.3413C27.787 41.9011 27.1908 41.6527 26.5683 41.6501C26.1035 41.6501 25.6492 41.7879 25.2627 42.0461C24.8763 42.3043 24.5751 42.6714 24.3972 43.1008C24.2193 43.5302 24.1728 44.0027 24.2635 44.4585C24.3542 44.9144 24.578 45.3331 24.9066 45.6618C25.2353 45.9904 25.654 46.2142 26.1099 46.3049C26.5657 46.3956 27.0382 46.3491 27.4676 46.1712C27.897 45.9933 28.2641 45.6921 28.5223 45.3057ZM25.8158 36.5051C25.8158 35.881 25.5686 35.2823 25.1283 34.8401L25.1183 34.8301C24.6754 34.3898 24.0757 34.1435 23.4513 34.1454C22.8268 34.1473 22.2286 34.3972 21.7883 34.8401C21.3481 35.283 21.1018 35.8826 21.1037 36.5071C21.1055 37.1316 21.3554 37.7298 21.7983 38.1701C22.2467 38.5986 22.8431 38.8377 23.4633 38.8377C24.0836 38.8377 24.6799 38.5986 25.1283 38.1701C25.5686 37.7278 25.8158 37.1291 25.8158 36.5051ZM17.2839 31.3961C16.8975 31.1379 16.4431 31.0001 15.9783 31.0001C15.3559 31.0027 14.7597 31.2511 14.3195 31.6913C13.8794 32.1314 13.631 32.7276 13.6283 33.3501C13.6283 33.8149 13.7661 34.2692 14.0244 34.6557C14.2826 35.0421 14.6496 35.3433 15.079 35.5212C15.5084 35.6991 15.9809 35.7456 16.4368 35.6549C16.8926 35.5642 17.3114 35.3404 17.64 35.0118C17.9687 34.6831 18.1925 34.2644 18.2832 33.8085C18.3738 33.3527 18.3273 32.8802 18.1494 32.4508C17.9716 32.0214 17.6704 31.6543 17.2839 31.3961ZM8.48333 34.1004C7.85883 34.1004 7.25991 34.3485 6.81833 34.7901L6.79832 34.8301C6.37277 35.2732 6.13678 35.8648 6.14052 36.4791C6.14425 37.0935 6.38741 37.6822 6.81833 38.1201C7.26674 38.5486 7.86309 38.7877 8.48333 38.7877C9.10356 38.7877 9.69991 38.5486 10.1483 38.1201C10.5899 37.6785 10.838 37.0796 10.838 36.4551C10.838 35.8306 10.5899 35.2317 10.1483 34.7901C9.70674 34.3485 9.10782 34.1004 8.48333 34.1004ZM3.37437 42.6945C3.11615 43.0809 2.97832 43.5353 2.97832 44.0001C2.98096 44.6225 3.22939 45.2187 3.66953 45.6589C4.10967 46.099 4.70588 46.3474 5.32832 46.3501C5.79311 46.3501 6.24746 46.2122 6.63391 45.954C7.02037 45.6958 7.32158 45.3288 7.49944 44.8994C7.67731 44.47 7.72385 43.9975 7.63317 43.5416C7.5425 43.0858 7.31868 42.667 6.99002 42.3384C6.66137 42.0097 6.24264 41.7859 5.78679 41.6952C5.33093 41.6046 4.85843 41.6511 4.42902 41.829C3.99961 42.0068 3.63259 42.308 3.37437 42.6945ZM6.07866 51.4951C6.07866 52.1196 6.32674 52.7185 6.76833 53.1601H6.79832C7.24519 53.5798 7.83524 53.8135 8.44833 53.8135C9.06142 53.8135 9.65146 53.5798 10.0983 53.1601C10.3175 52.9417 10.4915 52.6823 10.6102 52.3965C10.7288 52.1108 10.7899 51.8045 10.7899 51.4951C10.7899 51.1857 10.7288 50.8793 10.6102 50.5936C10.4915 50.3079 10.3175 50.0484 10.0983 49.8301C9.65674 49.3885 9.05782 49.1404 8.43333 49.1404C7.80883 49.1404 7.20991 49.3885 6.76833 49.8301C6.32674 50.2717 6.07866 50.8706 6.07866 51.4951ZM13.9712 53.2998C13.7151 53.6851 13.5784 54.1374 13.5783 54.6001H13.6083C13.6096 54.91 13.672 55.2166 13.7918 55.5024C13.9116 55.7883 14.0865 56.0477 14.3066 56.2659C14.5267 56.4841 14.7876 56.6569 15.0744 56.7743C15.3613 56.8916 15.6684 56.9514 15.9783 56.9501C16.4409 56.9402 16.8902 56.7941 17.27 56.5299C17.6498 56.2658 17.9432 55.8955 18.1135 55.4653C18.2837 55.0351 18.3232 54.5642 18.2269 54.1117C18.1307 53.6592 17.903 53.2452 17.5724 52.9215C17.2419 52.5978 16.8231 52.3789 16.3687 52.2922C15.9143 52.2055 15.4443 52.2549 15.0178 52.4341C14.5913 52.6134 14.2272 52.9145 13.9712 53.2998Z" fill="#3BB30B"/>
<path d="M15.5 60L14.4683 59.7101V62H17.4683V59.7001L16.3687 60H15.5Z" fill="#3BB30B"/>
<path d="M47.9999 21.7894C49.337 21.7894 50.421 20.7054 50.421 19.3683C50.421 18.0312 49.337 16.9473 47.9999 16.9473C46.6628 16.9473 45.5789 18.0312 45.5789 19.3683C45.5789 20.7054 46.6628 21.7894 47.9999 21.7894Z" fill="black"/>
<path d="M38.3158 21.7894C39.6529 21.7894 40.7369 20.7054 40.7369 19.3683C40.7369 18.0312 39.6529 16.9473 38.3158 16.9473C36.9787 16.9473 35.8948 18.0312 35.8948 19.3683C35.8948 20.7054 36.9787 21.7894 38.3158 21.7894Z" fill="black"/>
<path d="M57.6842 21.7894C59.0213 21.7894 60.1053 20.7054 60.1053 19.3683C60.1053 18.0312 59.0213 16.9473 57.6842 16.9473C56.3471 16.9473 55.2632 18.0312 55.2632 19.3683C55.2632 20.7054 56.3471 21.7894 57.6842 21.7894Z" fill="black"/>
<path d="M71 19.3684C71 8.69158 60.6863 0 48 0C35.3137 0 25 8.69158 25 19.3684C25.0169 23.3469 26.4114 27.1968 28.9463 30.2632L26.2105 39.6205C26.1468 39.8494 26.1519 40.092 26.2251 40.318C26.2983 40.544 26.4363 40.7435 26.6221 40.8916C26.848 41.0731 27.1314 41.1676 27.4211 41.1579C27.629 41.1573 27.8333 41.1031 28.0142 41.0005L36.6574 36.1584C40.199 37.852 44.0743 38.7329 48 38.7368C60.6863 38.7368 71 30.0453 71 19.3684ZM48 36.3158C44.2418 36.3286 40.5338 35.4534 37.1779 33.7616C37.0028 33.6683 36.8074 33.6195 36.6089 33.6195C36.4105 33.6195 36.2151 33.6683 36.04 33.7616L29.3821 37.5263L31.4521 30.2632C31.5084 30.0702 31.5158 29.8662 31.4735 29.6696C31.4312 29.4731 31.3407 29.2902 31.21 29.1374C28.8032 26.4489 27.4565 22.9767 27.4211 19.3684C27.4211 10.0232 36.6574 2.42105 48 2.42105C59.3426 2.42105 68.5789 10.0232 68.5789 19.3684C68.5789 28.7137 59.3426 36.3158 48 36.3158Z" fill="black"/>
</svg>
