<svg width="29" height="29" viewBox="0 0 29 29" fill="none" xmlns="http://www.w3.org/2000/svg">
<path d="M14.5 29C22.5081 29 29 22.5081 29 14.5C29 6.49187 22.5081 0 14.5 0C6.49187 0 0 6.49187 0 14.5C0 22.5081 6.49187 29 14.5 29Z" fill="white"/>
<mask id="mask0" mask-type="alpha" maskUnits="userSpaceOnUse" x="0" y="0" width="29" height="29">
<path d="M14.5 29C22.5081 29 29 22.5081 29 14.5C29 6.49187 22.5081 0 14.5 0C6.49187 0 0 6.49187 0 14.5C0 22.5081 6.49187 29 14.5 29Z" fill="white"/>
</mask>
<g mask="url(#mask0)">
<path d="M14.4455 5.00516L5.51409 6.80416C5.44526 6.81844 5.38393 6.85717 5.34146 6.91319L2.06147 11.2199C2.03291 11.2565 2.01354 11.2994 2.00498 11.3451C1.99642 11.3907 1.99892 11.4378 2.01226 11.4822C2.02561 11.5267 2.04941 11.5674 2.08168 11.6007C2.11396 11.6341 2.15376 11.6593 2.19776 11.6742L5.19609 12.6373V19.8333C5.19684 19.8939 5.21652 19.9527 5.25236 20.0016C5.2882 20.0505 5.33841 20.0869 5.39598 20.1058L14.4091 23.0133C14.4682 23.0327 14.5318 23.0327 14.5909 23.0133L23.604 20.1058C23.6616 20.0869 23.7118 20.0505 23.7476 20.0016C23.7835 19.9527 23.8032 19.8939 23.8039 19.8333V12.6373L26.8022 11.6742C26.8462 11.6593 26.886 11.6341 26.9183 11.6007C26.9506 11.5674 26.9744 11.5267 26.9877 11.4822C27.0011 11.4378 27.0036 11.3907 26.995 11.3451C26.9865 11.2994 26.9671 11.2565 26.9385 11.2199L23.6585 6.91319C23.6161 6.85717 23.5547 6.81844 23.4859 6.80416L14.5545 5.00516C14.5185 4.99828 14.4815 4.99828 14.4455 5.00516V5.00516ZM14.5 5.58665L22.4683 7.19485L14.5 9.05745L6.53171 7.19485L14.5 5.58665ZM5.56861 7.56737L14.1911 9.59351L11.1837 13.9638L2.77016 11.2471L5.56861 7.56737ZM23.4314 7.56737L26.2298 11.2471L17.8163 13.9638L14.8089 9.59351L23.4314 7.56737ZM14.2093 10.593V22.341L5.77758 19.6152V12.8281L11.2109 14.5816C11.2699 14.6007 11.3335 14.6005 11.3924 14.5808C11.4512 14.5612 11.5023 14.5233 11.538 14.4726L14.2093 10.593ZM14.7907 10.593L17.462 14.4726C17.4977 14.5233 17.5488 14.5612 17.6076 14.5808C17.6665 14.6005 17.7301 14.6007 17.7891 14.5816L23.2224 12.8281V19.6152L14.7907 22.341V10.593Z" fill="#5F5DC1"/>
</g>
</svg>
