<svg width="62" height="46" viewBox="0 0 62 46" fill="none" xmlns="http://www.w3.org/2000/svg">
<path d="M3.586 0L0 3.586V46H62V0H3.586ZM2 14H4V32H2V14ZM2 44V34H6V12H2V4.414L4.414 2H60V12.382L56 14.382V31.618L60 33.618V44H2ZM60 14.618V31.382L58 30.382V15.618L60 14.618Z" fill="black"/>
<path d="M6 4H4V6H6V4Z" fill="black"/>
<path d="M58 4H56V6H58V4Z" fill="black"/>
<path d="M6 40H4V42H6V40Z" fill="black"/>
<path d="M58 40H56V42H58V40Z" fill="black"/>
<path d="M10 4H8V42H10V4Z" fill="#3BB30B"/>
<path d="M14 4H12V42H14V4Z" fill="#3BB30B"/>
<path d="M28 4H18V6H16V8H18V10H16V12H18V14H16V16H18V18H16V20H18V22H28V20H30V18H28V16H30V14H28V12H30V10H28V8H30V6H28V4ZM26 20H20V6H26V20Z" fill="black"/>
<path d="M24 8H22V18H24V8Z" fill="black"/>
<path d="M28 24H18V26H16V28H18V30H16V32H18V34H16V36H18V38H16V40H18V42H28V40H30V38H28V36H30V34H28V32H30V30H28V28H30V26H28V24ZM26 40H20V26H26V40Z" fill="black"/>
<path d="M24 28H22V38H24V28Z" fill="black"/>
<path d="M52 4H50V6H48V4H46V6H44V4H42V6H40V4H38V6H36V4H34V6H32V14H34V16H36V14H38V16H40V14H42V16H44V14H46V16H48V14H50V16H52V14H54V6H52V4ZM52 12H34V8H52V12Z" fill="#3BB30B"/>
<path d="M52 18H50V20H48V18H46V20H44V18H42V20H40V18H38V20H36V18H34V20H32V28H34V30H36V28H38V30H40V28H42V30H44V28H46V30H48V28H50V30H52V28H54V20H52V18ZM52 26H34V22H52V26Z" fill="#3BB30B"/>
<path d="M37 32C34.243 32 32 34.243 32 37C32 39.757 34.243 42 37 42C39.757 42 42 39.757 42 37C42 34.243 39.757 32 37 32ZM37 40C35.346 40 34 38.654 34 37C34 35.346 35.346 34 37 34C38.654 34 40 35.346 40 37C40 38.654 38.654 40 37 40Z" fill="black"/>
<path d="M38 36H36V38H38V36Z" fill="black"/>
<path d="M49 32C46.243 32 44 34.243 44 37C44 39.757 46.243 42 49 42C51.757 42 54 39.757 54 37C54 34.243 51.757 32 49 32ZM49 40C47.346 40 46 38.654 46 37C46 35.346 47.346 34 49 34C50.654 34 52 35.346 52 37C52 38.654 50.654 40 49 40Z" fill="black"/>
<path d="M50 36H48V38H50V36Z" fill="black"/>
</svg>
