<svg width="37" height="38" viewBox="0 0 37 38" fill="none" xmlns="http://www.w3.org/2000/svg">
<g filter="url(#filter0_d_1942_387)">
<path d="M18.5 33.3258C26.5081 33.3258 33 26.761 33 18.6629C33 10.5648 26.5081 4 18.5 4C10.4919 4 4 10.5648 4 18.6629C4 26.761 10.4919 33.3258 18.5 33.3258Z" fill="white"/>
</g>
<mask id="mask0_1942_387" style="mask-type:alpha" maskUnits="userSpaceOnUse" x="4" y="4" width="29" height="30">
<path d="M18.5 33.3258C26.5081 33.3258 33 26.761 33 18.6629C33 10.5648 26.5081 4 18.5 4C10.4919 4 4 10.5648 4 18.6629C4 26.761 10.4919 33.3258 18.5 33.3258Z" fill="white"/>
</mask>
<g mask="url(#mask0_1942_387)">
<path d="M26.7784 18.6536L21.2246 18.1939C21.0468 17.7342 20.7899 17.3145 20.4341 16.9748L22.6081 11.9983C23.122 10.7991 23.0429 9.42004 22.3709 8.30081C21.699 7.18159 20.5724 6.48208 19.2878 6.38215H19.2285C18.517 6.32219 17.8055 6.34218 17.1137 6.40214C15.8291 6.50207 14.7025 7.20158 14.0305 8.3208C13.3586 9.42004 13.2597 10.7391 13.7538 11.9383L15.8291 17.0147C15.4733 17.3745 15.2164 17.8142 15.0385 18.2939L10.0579 18.5937C8.77332 18.6736 7.64676 19.3331 6.95502 20.4324C6.26328 21.5316 6.12494 22.8507 6.59927 24.0698C6.8562 24.7294 7.17243 25.3889 7.50842 26.0085L7.54794 26.0685C8.20015 27.1876 9.30695 27.9072 10.6114 28.0071C10.7299 28.0071 10.8485 28.0271 10.9474 28.0271C12.1134 28.0271 13.24 27.5075 13.991 26.5881L17.3706 22.5509C17.6276 22.6109 17.8845 22.6508 18.1612 22.6508C18.596 22.6508 19.0111 22.5709 19.3866 22.411L22.6674 26.5481C23.4185 27.5075 24.5648 28.0471 25.7704 28.0471C25.8494 28.0471 25.9285 28.0471 26.0273 28.0471C27.312 27.9671 28.4583 27.2876 29.1303 26.1684L29.1698 26.1084C29.5255 25.5089 29.8615 24.8693 30.1185 24.2097C30.6126 23.0106 30.5137 21.6715 29.8417 20.5523C29.1895 19.4531 28.063 18.7535 26.7784 18.6536ZM14.7223 8.72053C15.2559 7.82115 16.1651 7.26154 17.1928 7.18159C17.8647 7.12163 18.5367 7.12163 19.1889 7.1616H19.2482C20.276 7.24155 21.1654 7.80116 21.699 8.70054C22.2326 9.6199 22.3117 10.6991 21.8768 11.6585L19.7819 16.4552C19.3076 16.1753 18.7541 16.0154 18.1612 16.0154C17.5485 16.0154 16.9754 16.1953 16.5011 16.4752L14.4851 11.6185C14.1096 10.6592 14.1886 9.59991 14.7223 8.72053ZM13.3981 26.0885C12.7261 26.9079 11.7379 27.3076 10.6904 27.2276C9.66269 27.1477 8.77332 26.5681 8.23969 25.6687L8.20015 25.6087C7.86417 25.0291 7.56771 24.4096 7.33054 23.79C6.95502 22.8107 7.05384 21.7515 7.60724 20.8721C8.16063 19.9927 9.06977 19.473 10.0777 19.3931L14.8804 19.0933C14.8804 19.1732 14.8606 19.2532 14.8606 19.3531C14.8606 20.6123 15.5524 21.6915 16.5603 22.2511L13.3981 26.0885ZM15.671 19.3531C15.671 17.9741 16.7778 16.8349 18.1612 16.8349C19.5447 16.8349 20.6515 17.9541 20.6515 19.3531C20.6515 20.7522 19.5447 21.8713 18.1612 21.8713C16.7778 21.8713 15.671 20.7322 15.671 19.3531ZM29.3872 23.89C29.1303 24.5096 28.8338 25.1091 28.4781 25.6887L28.4385 25.7487C27.9049 26.6281 26.9957 27.1876 25.968 27.2476C24.9205 27.3076 23.9323 26.8679 23.2801 26.0485L20.0783 22.0313C20.8886 21.4317 21.4223 20.4524 21.4223 19.3531C21.4223 19.2332 21.4223 19.1133 21.4025 19.0134L26.6993 19.4531C27.727 19.533 28.6164 20.0926 29.15 20.972C29.7034 21.8713 29.8022 22.9307 29.3872 23.89Z" fill="#525252"/>
</g>
<defs>
<filter id="filter0_d_1942_387" x="0" y="0" width="37" height="37.3259" filterUnits="userSpaceOnUse" color-interpolation-filters="sRGB">
<feFlood flood-opacity="0" result="BackgroundImageFix"/>
<feColorMatrix in="SourceAlpha" type="matrix" values="0 0 0 0 0 0 0 0 0 0 0 0 0 0 0 0 0 0 127 0" result="hardAlpha"/>
<feOffset/>
<feGaussianBlur stdDeviation="2"/>
<feComposite in2="hardAlpha" operator="out"/>
<feColorMatrix type="matrix" values="0 0 0 0 0 0 0 0 0 0 0 0 0 0 0 0 0 0 0.5 0"/>
<feBlend mode="normal" in2="BackgroundImageFix" result="effect1_dropShadow_1942_387"/>
<feBlend mode="normal" in="SourceGraphic" in2="effect1_dropShadow_1942_387" result="shape"/>
</filter>
</defs>
</svg>
