<svg width="10" height="14" viewBox="0 0 10 14" fill="none" xmlns="http://www.w3.org/2000/svg">
<path fill-rule="evenodd" clip-rule="evenodd" d="M3.15541 3.42432L4.60644 6.01311C5.32044 7.26044 6.31082 8.53131 6.31082 9.96691C6.31082 11.732 4.88283 13.1911 3.15541 13.1911C1.40496 13.1911 0 11.732 0 9.96691C0 8.53131 0.990385 7.26044 1.68135 6.01311L3.15541 3.42432ZM4.74463 10.3905C4.7907 10.2258 4.95192 10.1317 5.11315 10.1787C5.27437 10.2258 5.3665 10.3905 5.34347 10.5553C5.11315 11.4261 4.37612 12.1086 3.50089 12.2498C3.33967 12.2733 3.17844 12.1556 3.15541 11.9909C3.13238 11.8261 3.24754 11.6614 3.40877 11.6379C4.05367 11.5437 4.58341 11.0495 4.74463 10.3905Z" fill="#3978C2"/>
<path fill-rule="evenodd" clip-rule="evenodd" d="M6.49721 0.0449219L7.94824 2.63372C8.66224 3.88105 9.65262 5.15191 9.65262 6.58752C9.65262 8.35261 8.22462 9.81175 6.49721 9.81175C4.74676 9.81175 3.3418 8.35261 3.3418 6.58752C3.3418 5.15191 4.33218 3.88105 5.02315 2.63372L6.49721 0.0449219ZM8.08643 7.01114C8.13249 6.8464 8.29372 6.75226 8.45495 6.79933C8.61617 6.8464 8.7083 7.01114 8.68527 7.17588C8.45495 8.04666 7.71792 8.72916 6.84269 8.87037C6.68147 8.8939 6.52024 8.77623 6.49721 8.61149C6.47418 8.44674 6.58934 8.282 6.75056 8.25847C7.39546 8.16433 7.9252 7.6701 8.08643 7.01114Z" fill="#3978C2" fill-opacity="0.6"/>
</svg>
