<svg width="37" height="38" viewBox="0 0 37 38" fill="none" xmlns="http://www.w3.org/2000/svg">
<g filter="url(#filter0_d_1942_445)">
<path d="M18.5 33.3258C26.5081 33.3258 33 26.761 33 18.6629C33 10.5648 26.5081 4 18.5 4C10.4919 4 4 10.5648 4 18.6629C4 26.761 10.4919 33.3258 18.5 33.3258Z" fill="white"/>
</g>
<mask id="mask0_1942_445" style="mask-type:alpha" maskUnits="userSpaceOnUse" x="4" y="4" width="29" height="30">
<path d="M18.5 33.3258C26.5081 33.3258 33 26.761 33 18.6629C33 10.5648 26.5081 4 18.5 4C10.4919 4 4 10.5648 4 18.6629C4 26.761 10.4919 33.3258 18.5 33.3258Z" fill="white"/>
</mask>
<g mask="url(#mask0_1942_445)">
<path d="M27.1689 29.8067C25.1204 29.8067 23.1947 28.9954 21.7462 27.5223C20.2977 26.0493 19.5 24.0907 19.5 22.0074C19.5 19.1787 21.0116 16.5658 23.4449 15.1885C23.5796 15.1123 23.7477 15.1351 23.858 15.2447C23.9683 15.3542 23.9948 15.5245 23.923 15.6633C23.4011 16.6724 23.1253 17.8119 23.1253 18.9587C23.1253 22.8682 26.2528 26.0489 30.097 26.0489C31.2818 26.0489 32.4522 25.7409 33.4819 25.158C33.6166 25.0818 33.7846 25.1047 33.895 25.2142C34.0053 25.3238 34.0317 25.4941 33.9599 25.6329C32.6284 28.2074 30.0262 29.8067 27.1689 29.8067ZM22.8335 16.4549C21.1849 17.7883 20.1972 19.8274 20.1972 22.0074C20.1972 25.917 23.3246 29.0977 27.1688 29.0977C29.3811 29.0977 31.4252 28.043 32.7307 26.2843C31.8908 26.596 30.9976 26.7579 30.0969 26.7579C28.0485 26.7579 26.1227 25.9467 24.6742 24.4736C23.2258 23.0004 22.4281 21.0419 22.4281 18.9587C22.4281 18.1066 22.5666 17.2581 22.8335 16.4549Z" fill="#3F44B9"/>
<path d="M13.7001 8.26196C10.9076 8.26196 8.63477 10.5595 8.63477 13.3842C8.63477 16.2089 10.9068 18.5065 13.7001 18.5065C16.4934 18.5065 18.7655 16.2089 18.7655 13.3842C18.7655 10.5595 16.4926 8.26196 13.7001 8.26196ZM13.7001 17.7244C11.3337 17.7244 9.4081 15.778 9.4081 13.3842C9.4081 10.9904 11.3337 9.04398 13.7001 9.04398C16.0665 9.04398 17.9921 10.9904 17.9921 13.3842C17.9921 15.778 16.0665 17.7244 13.7001 17.7244Z" fill="#D4CF5D"/>
<path d="M14.0868 4H13.3135V6.34607H14.0868V4Z" fill="#D4CF5D"/>
<path d="M14.0868 20.4226H13.3135V22.7687H14.0868V20.4226Z" fill="#D4CF5D"/>
<path d="M22.9802 12.9934H20.6602V13.7754H22.9802V12.9934Z" fill="#D4CF5D"/>
<path d="M6.73992 12.9934H4.41992V13.7754H6.73992V12.9934Z" fill="#D4CF5D"/>
<path d="M18.3477 8.13081L18.8945 8.68377L20.535 7.02489L19.9882 6.47192L18.3477 8.13081Z" fill="#D4CF5D"/>
<path d="M6.86523 19.7439L7.41205 20.2969L9.05248 18.6379L8.50567 18.085L6.86523 19.7439Z" fill="#D4CF5D"/>
<path d="M18.3472 18.6377L19.9879 20.2964L20.5346 19.7434L18.8939 18.0847L18.3472 18.6377Z" fill="#D4CF5D"/>
<path d="M9.05219 8.13036L7.41149 6.47168L6.86475 7.02473L8.50544 8.6834L9.05219 8.13036Z" fill="#D4CF5D"/>
</g>
<defs>
<filter id="filter0_d_1942_445" x="0" y="0" width="37" height="37.3259" filterUnits="userSpaceOnUse" color-interpolation-filters="sRGB">
<feFlood flood-opacity="0" result="BackgroundImageFix"/>
<feColorMatrix in="SourceAlpha" type="matrix" values="0 0 0 0 0 0 0 0 0 0 0 0 0 0 0 0 0 0 127 0" result="hardAlpha"/>
<feOffset/>
<feGaussianBlur stdDeviation="2"/>
<feComposite in2="hardAlpha" operator="out"/>
<feColorMatrix type="matrix" values="0 0 0 0 0 0 0 0 0 0 0 0 0 0 0 0 0 0 0.5 0"/>
<feBlend mode="normal" in2="BackgroundImageFix" result="effect1_dropShadow_1942_445"/>
<feBlend mode="normal" in="SourceGraphic" in2="effect1_dropShadow_1942_445" result="shape"/>
</filter>
</defs>
</svg>
