<svg width="29" height="23" viewBox="0 0 29 23" fill="none" xmlns="http://www.w3.org/2000/svg">
<path d="M25.5615 6.55433C25.2636 4.05177 23.1781 2.14505 20.616 2.14505C19.8414 2.14505 19.1264 2.32381 18.5305 2.62173C17.5772 1.01294 15.9088 0 13.8829 0C12.0358 0 10.427 0.953357 9.47363 2.32381C11.4399 2.44298 13.2871 3.5155 14.4192 5.12429C15.1342 4.88596 15.8492 4.76679 16.5642 4.76679C19.6031 4.76679 22.1652 6.97142 22.7015 9.95067C24.7869 10.9636 26.1574 13.1087 26.1574 15.4921C27.647 14.6579 28.6004 13.0491 28.6004 11.2019C28.6004 9.11648 27.3491 7.32893 25.5615 6.55433Z" fill="#8A8A8A"/>
<path d="M14.896 10.7253C14.3002 10.7253 13.7639 10.9637 13.3468 11.3808C12.9297 11.7979 12.6914 12.3341 12.6914 12.9896C12.6914 13.5854 12.9297 14.1217 13.3468 14.5984C13.7639 15.0155 14.3002 15.2538 14.896 15.2538C15.4919 15.2538 16.0282 15.0155 16.4452 14.5984C16.8623 14.1813 17.1007 13.645 17.1007 12.9896C17.1007 12.3937 16.8623 11.8575 16.4452 11.3808C16.0282 10.9041 15.5515 10.7253 14.896 10.7253Z" fill="#8A8A8A"/>
<path d="M22.1656 10.3085C21.8676 7.50797 19.4842 5.30333 16.6242 5.30333C15.79 5.30333 14.9558 5.48208 14.2408 5.83959C13.1682 4.05205 11.2615 2.86035 9.05689 2.86035C5.72014 2.86035 2.97924 5.60125 2.97924 8.87842C2.97924 9.05717 2.97924 9.23593 2.97924 9.41468C1.1917 10.6064 0 12.6323 0 14.9561C0 18.5312 2.91966 21.4508 6.49475 21.4508C7.26935 21.4508 8.04395 21.3316 8.75897 21.0337C9.77191 22.2254 11.3211 23 13.0491 23C14.9558 23 16.6838 22.0467 17.6967 20.557C18.4117 20.855 19.1863 21.0337 19.9609 21.0337C23.0593 21.0337 25.5619 18.5312 25.5619 15.4327C25.5619 13.1685 24.1319 11.1426 22.1656 10.3085ZM6.97142 14.4794C7.38852 14.8965 7.8652 15.1348 8.46105 15.1348C8.81855 15.1348 9.11648 15.0752 9.4144 14.9561C9.65274 14.8369 9.95067 14.6581 10.2486 14.3602L10.904 15.0752C10.2486 15.7903 9.47399 16.1478 8.52063 16.1478C7.56727 16.1478 6.79267 15.8498 6.19682 15.254C5.60097 14.6581 5.24346 13.8835 5.24346 12.9898C5.24346 12.096 5.54139 11.3214 6.19682 10.666C6.85225 10.0701 7.62686 9.77219 8.58021 9.77219C9.53357 9.77219 10.3678 10.1297 10.9636 10.8447L10.3082 11.5597C10.0103 11.2618 9.71233 11.0831 9.47399 10.9639C9.23565 10.8447 8.87814 10.7851 8.52063 10.7851C7.92478 10.7851 7.38852 10.9639 6.97142 11.381C6.55433 11.7981 6.31599 12.2748 6.31599 12.9302C6.37558 13.5856 6.55433 14.0623 6.97142 14.4794ZM17.22 15.254C16.6242 15.8498 15.8496 16.1478 14.8962 16.1478C14.0024 16.1478 13.2278 15.8498 12.5724 15.254C11.917 14.6581 11.619 13.8835 11.619 12.9898C11.619 12.096 11.917 11.3214 12.5724 10.7255C13.1682 10.1297 13.9428 9.83178 14.8962 9.83178C15.79 9.83178 16.5646 10.1297 17.22 10.7255C17.8754 11.3214 18.1734 12.096 18.1734 12.9898C18.1734 13.8835 17.8754 14.5986 17.22 15.254ZM20.4972 19.0078H17.935V18.4716L19.0671 17.3395C19.3055 17.1011 19.4842 16.8628 19.6034 16.7436C19.7226 16.6244 19.7822 16.4457 19.7822 16.3265C19.7822 16.2073 19.7226 16.0286 19.6034 15.969C19.4842 15.8498 19.3651 15.7903 19.1863 15.7903C18.8884 15.7903 18.6501 15.969 18.4117 16.2669L17.935 15.969C18.1138 15.7307 18.2925 15.5519 18.4713 15.4327C18.6501 15.3136 18.948 15.254 19.2459 15.254C19.5438 15.254 19.8417 15.3732 20.0801 15.5519C20.3184 15.7307 20.4376 16.0286 20.4376 16.3265C20.4376 16.5053 20.378 16.684 20.3184 16.8628C20.1993 17.0415 20.0205 17.2799 19.7822 17.5182L18.8884 18.412H20.5568V19.0078H20.4972Z" fill="#8A8A8A"/>
</svg>
