<svg width="9" height="16" viewBox="0 0 9 16" fill="none" xmlns="http://www.w3.org/2000/svg">
<path d="M2.63478 15.1491C4.72837 15.5599 6.54074 13.9484 6.54074 11.8944C6.54074 10.8201 6.00953 9.84053 5.19709 9.24015V2.00404C5.19709 0.929686 4.3534 0.0449219 3.25974 0.0449219C2.19732 0.0449219 1.32238 0.929686 1.32238 2.00404V9.24015C0.353705 9.96693 -0.208752 11.1993 0.0724764 12.5896C0.322458 13.8536 1.35363 14.8963 2.63478 15.1491ZM1.7286 9.84053L2.00983 9.61934V2.03564C2.00983 1.34047 2.57229 0.803292 3.22849 0.803292C3.91594 0.803292 4.47839 1.37207 4.47839 2.03564V9.61934L4.75962 9.84053C5.41582 10.3145 5.7908 11.1045 5.7908 11.926C5.7908 12.6212 5.50957 13.2848 5.04085 13.7588C4.54089 14.2328 3.91594 14.5171 3.22849 14.5171C1.94733 14.5171 0.947411 13.6008 0.728677 12.4632C0.572439 11.4205 0.94741 10.4093 1.7286 9.84053Z" fill="#676767"/>
<path d="M3.2597 13.759C3.75966 13.759 4.22838 13.5694 4.5721 13.2218C4.91583 12.8742 5.10331 12.4002 5.10331 11.8947C5.10331 10.6307 4.04089 10.2199 3.75966 9.96714V4.62695H2.72849V9.96714C2.50976 10.2199 1.13486 10.7255 1.44734 12.2738C1.60358 13.0954 2.32227 13.759 3.2597 13.759Z" fill="#C72F2F"/>
<path d="M7.79088 2.1936H6.00977V2.92037H7.79088C7.97837 2.92037 8.1346 2.76238 8.1346 2.57279C8.16585 2.3516 8.00961 2.1936 7.79088 2.1936Z" fill="#B5B5B5"/>
<path d="M7.44716 4.46868C7.44716 4.27909 7.29092 4.12109 7.10344 4.12109H6.04102V4.84787H7.10344C7.29092 4.81627 7.44716 4.65827 7.44716 4.46868Z" fill="#B5B5B5"/>
<path d="M8.16585 6.36492C8.16585 6.17533 8.00962 6.01733 7.82213 6.01733H6.04102V6.74411H7.82213C8.00962 6.74411 8.16585 6.55451 8.16585 6.36492Z" fill="#B5B5B5"/>
</svg>
