<svg width="20" height="20" viewBox="0 0 20 20" fill="none" xmlns="http://www.w3.org/2000/svg">
<path d="M11.25 0C11.5555 0 11.8162 0.220858 11.8665 0.522205L12.2547 2.85375L12.673 2.9991C12.9382 3.1002 13.1969 3.21613 13.4572 3.35125L15.3819 1.9788C15.5994 1.82357 15.8871 1.82572 16.1004 1.97329L16.1868 2.0454L17.9555 3.8129C18.1717 4.02893 18.2 4.36962 18.0223 4.6183L16.6484 6.54125C16.849 6.92872 17.0121 7.32228 17.1414 7.72958L17.1447 7.74375L19.4778 8.13351C19.7415 8.17748 19.9435 8.3826 19.9899 8.63786L20 8.75V11.25C20 11.5555 19.7791 11.8162 19.4778 11.8665L17.1447 12.255L17.0009 12.673C16.8998 12.9382 16.7839 13.1969 16.6472 13.4575L18.0213 15.3833C18.1765 15.6008 18.1742 15.8886 18.0266 16.1018L17.9544 16.1882L16.1869 17.9557C15.9709 18.1717 15.6303 18.1999 15.3817 18.0223L13.4572 16.6475C13.0713 16.849 12.6777 17.0121 12.2704 17.1414L12.2547 17.145L11.8665 19.4778C11.8225 19.7415 11.6174 19.9435 11.3621 19.9899L11.25 20H8.75C8.44449 20 8.18376 19.7791 8.13351 19.4778L7.74468 17.1462L7.32697 17.0009C7.06178 16.8998 6.80314 16.7839 6.54093 16.6475L4.61811 18.0212C4.40058 18.1765 4.11272 18.1743 3.89947 18.0266L3.81306 17.9544L2.04556 16.1869C1.82957 15.971 1.80134 15.6305 1.9788 15.3819L3.35093 13.4575C3.15098 13.0713 2.98786 12.6777 2.85863 12.2704L2.85468 12.255L0.522205 11.8665C0.258527 11.8225 0.0564722 11.6174 0.0100786 11.3621L0 11.25V8.75C0 8.44449 0.220858 8.18376 0.522205 8.13351L2.85468 7.74375L2.9991 7.32697C3.1002 7.06178 3.21613 6.80313 3.35093 6.54125L1.9788 4.61811C1.82352 4.40058 1.82573 4.11272 1.9734 3.89946L2.04556 3.81306L3.81306 2.04556C4.02904 1.82957 4.3695 1.80134 4.61811 1.9788L6.54093 3.35125C6.92872 3.15098 7.32229 2.98786 7.72958 2.85863L7.74468 2.8525L8.13351 0.522205C8.17748 0.258527 8.3826 0.0564722 8.63786 0.0100786L8.75 0H11.25ZM10.7209 1.25H9.27843L8.91274 3.44905C8.87784 3.65835 8.73986 3.83309 8.55012 3.91739L8.45117 3.95175C7.87306 4.09966 7.32536 4.32685 6.81906 4.62743C6.60607 4.75388 6.33849 4.74261 6.13689 4.5987L4.32218 3.3025L3.30343 4.32125L4.5987 6.13689C4.71862 6.30489 4.74643 6.51871 4.6792 6.70857L4.62743 6.81906C4.32685 7.32536 4.09966 7.87306 3.95175 8.45117C3.89038 8.69101 3.69324 8.87202 3.44905 8.91274L1.24968 9.27875V10.72L3.44905 11.0873C3.65835 11.1222 3.83309 11.2601 3.91739 11.4499L3.95175 11.5488C4.09966 12.1269 4.32685 12.6746 4.62743 13.1809C4.75388 13.3939 4.74261 13.6615 4.5987 13.8631L3.30343 15.6775L4.32218 16.6963L6.13689 15.4013C6.30489 15.2814 6.51871 15.2536 6.70857 15.3208L6.81906 15.3726C7.32536 15.6732 7.87306 15.9003 8.45117 16.0483C8.69101 16.1096 8.87202 16.3068 8.91274 16.551L9.27843 18.75H10.7209L11.0873 16.551C11.1222 16.3416 11.2601 16.1669 11.4499 16.0826L11.5488 16.0483C12.1269 15.9003 12.6746 15.6732 13.1809 15.3726C13.394 15.2461 13.6617 15.2574 13.8633 15.4014L15.6759 16.6975L16.6959 15.6775L15.4012 13.863C15.2814 13.695 15.2536 13.4812 15.3208 13.2914L15.3726 13.1809C15.6732 12.6746 15.9003 12.1269 16.0483 11.5488C16.1096 11.309 16.3068 11.128 16.551 11.0873L18.7497 10.72V9.27875L16.551 8.91274C16.3416 8.87784 16.1669 8.73986 16.0826 8.55012L16.0483 8.45117C15.9003 7.87306 15.6732 7.32536 15.3726 6.81906C15.2461 6.60599 15.2574 6.33832 15.4014 6.1367L16.6972 4.3225L15.6759 3.3025L13.8631 4.5987C13.6951 4.71862 13.4813 4.74643 13.2914 4.6792L13.1809 4.62743C12.6746 4.32685 12.1269 4.09966 11.5488 3.95175C11.309 3.89038 11.128 3.69324 11.0873 3.44905L10.7209 1.25ZM10 6.25C12.0711 6.25 13.75 7.92893 13.75 10C13.75 12.0711 12.0711 13.75 10 13.75C7.92893 13.75 6.25 12.0711 6.25 10C6.25 7.92893 7.92893 6.25 10 6.25ZM10 7.5C8.61929 7.5 7.5 8.61929 7.5 10C7.5 11.3807 8.61929 12.5 10 12.5C11.3807 12.5 12.5 11.3807 12.5 10C12.5 8.61929 11.3807 7.5 10 7.5Z" fill="#575757"/>
</svg>
