<svg width="23" height="21" viewBox="0 0 23 21" fill="none" xmlns="http://www.w3.org/2000/svg">
<path d="M16.7051 9.3434L16.5719 9.05032H16.2499H12.9501V8.84979C14.6114 8.2549 15.7999 6.66755 15.7999 4.80089C15.7999 2.42658 13.8752 0.501465 11.5001 0.501465C9.12504 0.501465 7.2003 2.42658 7.2003 4.80089C7.2003 6.66756 8.389 8.25489 10.0501 8.84978V9.05032H6.7503H6.42836L6.29512 9.3434L1.54531 19.7917L1.22395 20.4986H2.00049H20.9997H21.7763L21.4549 19.7917L16.7051 9.3434ZM9.1503 4.80089C9.1503 3.50576 10.2047 2.45127 11.5001 2.45127C12.7955 2.45127 13.8499 3.50576 13.8499 4.80089C13.8499 5.54915 13.4976 6.21789 12.9492 6.64871C12.9219 5.87203 12.2837 5.25051 11.5001 5.25051C10.7167 5.25051 10.0783 5.87197 10.051 6.64871C9.50259 6.21789 9.1503 5.54915 9.1503 4.80089ZM4.2522 18.549L7.68403 11.0001H15.3162L18.748 18.549H4.2522Z" fill="#6E50C5" stroke="#6E50C5"/>
</svg>
