<svg width="29" height="33" viewBox="0 0 29 33" fill="none" xmlns="http://www.w3.org/2000/svg">
<path d="M16.6488 10.2029L16.0005 9L15.3522 10.2029C14.7024 11.41 9 22.1013 9 25.7664C9 29.7555 12.1403 33 16 33C19.8597 33 23 29.7549 23 25.7664C23.0005 22.1013 17.2986 11.41 16.6488 10.2029ZM16.0005 31.4669C12.9587 31.4669 10.4841 28.9097 10.4841 25.7664C10.4841 23.3017 14.0179 15.9914 16.0005 12.1755C17.9835 15.9914 21.5169 23.3017 21.5169 25.7664C21.5169 28.9102 19.0423 31.4669 16.0005 31.4669Z" fill="#0B81B3"/>
<path d="M24.4635 0.852078L24.0004 0L23.5373 0.852078C23.0731 1.70708 19 9.28006 19 11.8762C19 14.7018 21.243 17 24 17C26.757 17 29 14.7014 29 11.8762C29.0004 9.28006 24.9276 1.70708 24.4635 0.852078ZM24.0004 15.9141C21.8276 15.9141 20.06 14.1027 20.06 11.8762C20.06 10.1303 22.5842 4.95224 24.0004 2.24934C25.4168 4.95224 27.9406 10.1303 27.9406 11.8762C27.9406 14.1031 26.1731 15.9141 24.0004 15.9141Z" fill="#0B81B3"/>
<path d="M6.5 5.5H12.5V23.5H6.5V5.5Z" fill="white"/>
<path d="M0.5 11.5H18.5V17.5H0.5V11.5Z" fill="white"/>
<path d="M7.60693 7H11.3477V21.9544H7.60693V7Z" fill="#3BB30B"/>
<path d="M2 12.6069H16.9544V16.3477H2V12.6069Z" fill="#3BB30B"/>
</svg>
