<svg width="879" height="496" viewBox="0 0 879 496" fill="none" xmlns="http://www.w3.org/2000/svg">
<rect width="879" height="496" fill="white"/>
<g filter="url(#filter0_d_3839_2)">
<rect x="22" y="36" width="834" height="424" rx="40" stroke="#0C0C0C" stroke-width="15" shape-rendering="crispEdges"/>
</g>
<path d="M750 117H624C607.431 117 594 130.431 594 147V349C594 365.569 607.431 379 624 379H750" stroke="#3BB30B" stroke-width="10" stroke-linecap="round"/>
<rect x="104.5" y="147.5" width="380" height="195" rx="6.5" fill="#202E3D" stroke="#3BB30B" stroke-width="7"/>
<path d="M116.342 317.538H128.969L143.538 240.568H230.467L244.551 317.538H282.431L301.371 240.568H381.016L398.013 317.538H427.637L445.12 240.568H479.115" stroke="#EAC647" stroke-width="4"/>
<path d="M116.828 321.203V310.757V300.311M116.828 321.203H111M116.828 321.203H131.397M116.828 321.203V330M111 157H116.828V180.458M116.828 180.458H111M116.828 180.458V200.983M116.828 200.983H111M116.828 200.983V222.242M116.828 222.242H111M116.828 222.242V242.034M116.828 242.034H111M116.828 242.034V261.093M116.828 261.093H111M116.828 261.093V279.419M116.828 279.419H111M116.828 279.419V300.311M116.828 300.311H111M478.629 330V321.203H461.146M461.146 321.203V330M461.146 321.203H443.178M443.178 321.203V330M443.178 321.203H425.209M425.209 321.203V330M425.209 321.203H405.298M405.298 321.203V330M405.298 321.203H385.386M385.386 321.203V330M385.386 321.203H367.418M367.418 321.203V330M367.418 321.203H350.42M350.42 321.203V330M350.42 321.203H335.851H329.538M329.538 321.203V330M329.538 321.203H308.17M308.17 321.203V330M308.17 321.203H290.201M290.201 321.203V330M290.201 321.203H274.661M274.661 321.203V330M274.661 321.203H260.091M260.091 321.203V330M260.091 321.203H244.065M244.065 321.203V330M244.065 321.203H227.554M227.554 321.203V330M227.554 321.203H211.042M211.042 321.203V330M211.042 321.203H196.958M196.958 321.203V330M196.958 321.203H178.99M178.99 321.203V330M178.99 321.203H162.478M162.478 321.203V330M162.478 321.203H145.966M145.966 321.203V330M145.966 321.203H131.397M131.397 321.203V330" stroke="white" stroke-width="2.5"/>
<defs>
<filter id="filter0_d_3839_2" x="4.5" y="22.5" width="869" height="459" filterUnits="userSpaceOnUse" color-interpolation-filters="sRGB">
<feFlood flood-opacity="0" result="BackgroundImageFix"/>
<feColorMatrix in="SourceAlpha" type="matrix" values="0 0 0 0 0 0 0 0 0 0 0 0 0 0 0 0 0 0 127 0" result="hardAlpha"/>
<feOffset dy="4"/>
<feGaussianBlur stdDeviation="5"/>
<feComposite in2="hardAlpha" operator="out"/>
<feColorMatrix type="matrix" values="0 0 0 0 0 0 0 0 0 0 0 0 0 0 0 0 0 0 0.5 0"/>
<feBlend mode="normal" in2="BackgroundImageFix" result="effect1_dropShadow_3839_2"/>
<feBlend mode="normal" in="SourceGraphic" in2="effect1_dropShadow_3839_2" result="shape"/>
</filter>
</defs>
</svg>
