<svg width="37" height="38" viewBox="0 0 37 38" fill="none" xmlns="http://www.w3.org/2000/svg">
<g filter="url(#filter0_d_1942_403)">
<path d="M18.5 33.3258C26.5081 33.3258 33 26.761 33 18.6629C33 10.5648 26.5081 4 18.5 4C10.4919 4 4 10.5648 4 18.6629C4 26.761 10.4919 33.3258 18.5 33.3258Z" fill="white"/>
</g>
<mask id="mask0_1942_403" style="mask-type:alpha" maskUnits="userSpaceOnUse" x="4" y="4" width="29" height="30">
<path d="M18.5 33.3258C26.5081 33.3258 33 26.761 33 18.6629C33 10.5648 26.5081 4 18.5 4C10.4919 4 4 10.5648 4 18.6629C4 26.761 10.4919 33.3258 18.5 33.3258Z" fill="white"/>
</mask>
<g mask="url(#mask0_1942_403)">
<path d="M15.3375 11C10.767 11 7 14.3335 7 18.5074C7 22.6814 10.767 26.0149 15.3375 26.0149C16.0049 26.0149 16.6063 25.7336 17.0812 25.2854C17.556 24.8371 17.9227 24.2302 18.2122 23.5276C18.7909 22.1226 19.064 20.3159 19.064 18.5074C19.064 16.6991 18.7909 14.8941 18.2122 13.4891C17.9227 12.7864 17.556 12.1797 17.0812 11.7314C16.6063 11.2831 16.0049 11 15.3375 11ZM15.3375 11.9385C15.7574 11.9385 16.108 12.097 16.4485 12.4187C16.7891 12.7404 17.1024 13.2329 17.3567 13.8501C17.8651 15.0844 18.136 16.7968 18.136 18.5074C18.136 20.2182 17.8651 21.9324 17.3567 23.1666C17.1024 23.7838 16.7891 24.2765 16.4485 24.5981C16.108 24.9194 15.7574 25.0764 15.3375 25.0764C11.2103 25.0764 7.928 22.1076 7.928 18.5074C7.928 14.9072 11.2103 11.9385 15.3375 11.9385Z" fill="#BD9224"/>
<path fill-rule="evenodd" clip-rule="evenodd" d="M20.8866 16.6326C20.7742 16.6406 20.6686 16.6899 20.5895 16.7711C20.5105 16.8523 20.4632 16.9599 20.4568 17.0737C20.4504 17.1876 20.4852 17.2999 20.5546 17.3897C20.624 17.4795 20.7234 17.5407 20.8342 17.5617L29.6294 19.4345C29.6897 19.4489 29.7521 19.4509 29.8131 19.4405C29.8741 19.4301 29.9324 19.4074 29.9846 19.3738C30.0368 19.3403 30.0819 19.2964 30.1171 19.2449C30.1523 19.1935 30.177 19.1354 30.1897 19.0741C30.2023 19.0128 30.2028 18.9496 30.191 18.8882C30.1791 18.8267 30.1553 18.7682 30.1208 18.7163C30.0863 18.6643 30.0419 18.6198 29.9902 18.5855C29.9384 18.5512 29.8804 18.5276 29.8196 18.5163L21.0243 16.6435C20.9792 16.633 20.9328 16.6294 20.8866 16.6328V16.6326Z" fill="#BD9224"/>
<path fill-rule="evenodd" clip-rule="evenodd" d="M20.8867 12.8791C20.7742 12.8873 20.6686 12.9365 20.5895 13.0176C20.5105 13.0989 20.4632 13.2064 20.4568 13.3203C20.4504 13.4341 20.4852 13.5464 20.5546 13.6362C20.624 13.726 20.7234 13.7872 20.8342 13.8083L29.6294 15.6811C29.6897 15.6956 29.7522 15.6977 29.8133 15.6873C29.8743 15.6769 29.9327 15.6543 29.985 15.6207C30.0373 15.5872 30.0824 15.5433 30.1176 15.4918C30.1529 15.4403 30.1776 15.3821 30.1903 15.3208C30.203 15.2595 30.2034 15.1962 30.1916 15.1347C30.1797 15.0732 30.1558 15.0147 30.1212 14.9628C30.0867 14.9107 30.0422 14.8663 29.9904 14.832C29.9385 14.7977 29.8805 14.7743 29.8196 14.763L21.0243 12.8901C20.9792 12.8796 20.9328 12.876 20.8867 12.8795V12.8791Z" fill="#BD9224"/>
<path fill-rule="evenodd" clip-rule="evenodd" d="M20.8867 24.1389C20.7742 24.147 20.6686 24.1962 20.5895 24.2774C20.5105 24.3586 20.4632 24.4662 20.4568 24.58C20.4504 24.6939 20.4852 24.8062 20.5546 24.896C20.624 24.9858 20.7234 25.047 20.8342 25.068L29.6294 26.9408C29.6897 26.9553 29.7522 26.9574 29.8133 26.9471C29.8743 26.9367 29.9327 26.9141 29.985 26.8805C30.0373 26.8469 30.0824 26.8031 30.1176 26.7516C30.1529 26.7001 30.1776 26.6419 30.1903 26.5805C30.203 26.5192 30.2034 26.456 30.1916 26.3945C30.1797 26.333 30.1558 26.2745 30.1212 26.2225C30.0867 26.1705 30.0422 26.126 29.9904 26.0917C29.9385 26.0574 29.8805 26.0339 29.8196 26.0227L21.0243 24.1498C20.9792 24.1393 20.9328 24.1358 20.8867 24.1392V24.1389Z" fill="#BD9224"/>
<path fill-rule="evenodd" clip-rule="evenodd" d="M20.8867 20.3855C20.7742 20.3936 20.6686 20.4428 20.5895 20.524C20.5105 20.6052 20.4632 20.7128 20.4568 20.8267C20.4504 20.9405 20.4852 21.0528 20.5546 21.1426C20.624 21.2324 20.7234 21.2936 20.8342 21.3146L29.6294 23.1875C29.6897 23.202 29.7522 23.204 29.8133 23.1937C29.8743 23.1833 29.9327 23.1606 29.985 23.1271C30.0373 23.0935 30.0824 23.0497 30.1176 22.9982C30.1529 22.9467 30.1776 22.8885 30.1903 22.8271C30.203 22.7658 30.2034 22.7026 30.1916 22.6411C30.1797 22.5796 30.1558 22.5211 30.1212 22.4691C30.0867 22.4171 30.0422 22.3727 29.9904 22.3383C29.9385 22.304 29.8805 22.2806 29.8196 22.2694L21.0243 20.3964C20.9792 20.3859 20.9328 20.3824 20.8867 20.3858V20.3855Z" fill="#BD9224"/>
</g>
<defs>
<filter id="filter0_d_1942_403" x="0" y="0" width="37" height="37.3259" filterUnits="userSpaceOnUse" color-interpolation-filters="sRGB">
<feFlood flood-opacity="0" result="BackgroundImageFix"/>
<feColorMatrix in="SourceAlpha" type="matrix" values="0 0 0 0 0 0 0 0 0 0 0 0 0 0 0 0 0 0 127 0" result="hardAlpha"/>
<feOffset/>
<feGaussianBlur stdDeviation="2"/>
<feComposite in2="hardAlpha" operator="out"/>
<feColorMatrix type="matrix" values="0 0 0 0 0 0 0 0 0 0 0 0 0 0 0 0 0 0 0.5 0"/>
<feBlend mode="normal" in2="BackgroundImageFix" result="effect1_dropShadow_1942_403"/>
<feBlend mode="normal" in="SourceGraphic" in2="effect1_dropShadow_1942_403" result="shape"/>
</filter>
</defs>
</svg>
