<svg width="34" height="29" viewBox="0 0 34 29" fill="none" xmlns="http://www.w3.org/2000/svg">
<path d="M14.4465 14.3938L20.027 18.5814L22.8216 17.1884L28.4022 20.535V22.7689H11.6519V17.1884L14.4465 14.3938Z" fill="#617682"/>
<path d="M28.4107 13.6929C28.4107 14.8493 27.4733 15.7867 26.3169 15.7867C25.1605 15.7867 24.2231 14.8493 24.2231 13.6929C24.2231 12.5365 25.1605 11.5991 26.3169 11.5991C27.4733 11.5991 28.4107 12.5365 28.4107 13.6929Z" fill="#617682"/>
<path d="M5.60693 0H9.34772V14.9544H5.60693V0Z" fill="#3BB30B"/>
<path d="M0 5.60693H14.9544V9.34772H0V5.60693Z" fill="#3BB30B"/>
<path d="M31.2055 6.01855H18.1609V8.81319H31.2055V25.5635H8.86593V18.1958H6.07129V25.5635C6.07129 27.0966 7.32406 28.3581 8.86593 28.3581H31.2055C32.7386 28.3581 34.0001 27.1054 34.0001 25.5635V8.80443C33.9914 7.27132 32.7386 6.01855 31.2055 6.01855Z" fill="#617682"/>
</svg>
