<svg width="23" height="30" viewBox="0 0 23 30" fill="none" xmlns="http://www.w3.org/2000/svg">
<path d="M4.68018 12.3813L7.82227 3.33594H9.35303L5.40527 14H4.31396L4.68018 12.3813ZM1.74316 3.33594L4.85596 12.3813L5.24414 14H4.15283L0.212402 3.33594H1.74316Z" fill="#46BDFF"/>
<path d="M12.1709 14.8179H9.32178V13.668H12.1709C12.7227 13.668 13.1694 13.5801 13.5112 13.4043C13.853 13.2285 14.1021 12.9844 14.2583 12.6719C14.4194 12.3594 14.5 12.0029 14.5 11.6025C14.5 11.2363 14.4194 10.8921 14.2583 10.5698C14.1021 10.2476 13.853 9.98877 13.5112 9.79346C13.1694 9.59326 12.7227 9.49316 12.1709 9.49316H9.65137V19H8.23779V8.33594H12.1709C12.9766 8.33594 13.6577 8.4751 14.2144 8.75342C14.771 9.03174 15.1934 9.41748 15.4814 9.91064C15.7695 10.3989 15.9136 10.958 15.9136 11.5879C15.9136 12.2715 15.7695 12.855 15.4814 13.3384C15.1934 13.8218 14.771 14.1904 14.2144 14.4443C13.6577 14.6934 12.9766 14.8179 12.1709 14.8179Z" fill="#1B8BC9"/>
<path d="M17.1235 26H14.897L14.9116 24.8501H17.1235C17.8853 24.8501 18.52 24.6914 19.0278 24.374C19.5356 24.0518 19.9165 23.6025 20.1704 23.0264C20.4292 22.4453 20.5586 21.7666 20.5586 20.9902V20.3384C20.5586 19.728 20.4854 19.186 20.3389 18.7124C20.1924 18.2339 19.9775 17.8311 19.6943 17.5039C19.4111 17.1719 19.0645 16.9204 18.6543 16.7495C18.249 16.5786 17.7827 16.4932 17.2554 16.4932H14.853V15.3359H17.2554C17.9536 15.3359 18.5908 15.4531 19.167 15.6875C19.7432 15.917 20.2388 16.2515 20.6538 16.6909C21.0737 17.1255 21.396 17.6528 21.6206 18.2729C21.8452 18.8882 21.9575 19.5815 21.9575 20.353V20.9902C21.9575 21.7617 21.8452 22.4575 21.6206 23.0776C21.396 23.6929 21.0713 24.2178 20.6465 24.6523C20.2266 25.0869 19.7188 25.4214 19.123 25.6558C18.5322 25.8853 17.8657 26 17.1235 26ZM15.6514 15.3359V26H14.2378V15.3359H15.6514Z" fill="#115D87"/>
</svg>
