<svg width="29" height="29" viewBox="0 0 29 29" fill="none" xmlns="http://www.w3.org/2000/svg">
<path d="M14.5 29C22.5081 29 29 22.5081 29 14.5C29 6.49187 22.5081 0 14.5 0C6.49187 0 0 6.49187 0 14.5C0 22.5081 6.49187 29 14.5 29Z" fill="white"/>
<mask id="mask0" mask-type="alpha" maskUnits="userSpaceOnUse" x="0" y="0" width="29" height="29">
<path d="M14.5 29C22.5081 29 29 22.5081 29 14.5C29 6.49187 22.5081 0 14.5 0C6.49187 0 0 6.49187 0 14.5C0 22.5081 6.49187 29 14.5 29Z" fill="white"/>
</mask>
<g mask="url(#mask0)">
<path d="M21.6429 13.2858V10.7142C21.6429 7.57156 19.0711 5 15.9287 5H13.0713C9.92867 5 7.35689 7.57156 7.35689 10.7142V13.2858L4.5 20.7144C4.5 22.1429 8.97711 25 14.5 25C20.0229 25 24.5 22.1429 24.5 20.7144L21.6429 13.2858ZM10.2142 22.6787C9.91822 22.6787 9.67844 22.4387 9.67844 22.1429C9.67844 21.8467 9.91822 21.6073 10.2142 21.6073C10.5104 21.6073 10.75 21.8467 10.75 22.1429C10.75 22.4387 10.5104 22.6787 10.2142 22.6787ZM9.5 15C9.5 14.6071 9.69867 14.0327 9.94067 13.7238C9.94067 13.7238 10.6196 12.8571 12 12.8571C12.7004 12.8571 13.1891 13.1791 13.1891 13.1791C13.5173 13.3949 13.7858 13.8929 13.7858 14.2856V15.3571C13.7858 15.5533 13.4644 15.7142 13.0716 15.7142H10.2142C9.82133 15.7144 9.5 15.3927 9.5 15ZM12.3569 22.1429H11.6427V20.7144L12.3569 20V22.1429ZM14.1427 22.1429H13.0713V19.2858H14.1427V22.1429ZM13.4284 18.5713V17.5C13.4284 16.908 13.9087 16.4287 14.5 16.4287C15.0916 16.4287 15.5713 16.908 15.5713 17.5V18.5713H13.4284ZM15.9287 22.1429H14.8573V19.2858H15.9287V22.1429ZM17.3571 22.1429H16.6429V20L17.3571 20.7144V22.1429ZM18.7858 22.6787C18.4896 22.6787 18.25 22.4387 18.25 22.1429C18.25 21.8467 18.4896 21.6073 18.7858 21.6073C19.0816 21.6073 19.3213 21.8467 19.3213 22.1429C19.3213 22.4387 19.0816 22.6787 18.7858 22.6787ZM18.7858 15.7144H15.9287C15.5356 15.7144 15.2144 15.5533 15.2144 15.3573V14.2858C15.2144 13.8929 15.4827 13.3949 15.8111 13.1793C15.8111 13.1793 16.2998 12.8573 17.0002 12.8573C18.3813 12.8573 19.0596 13.724 19.0596 13.724C19.3018 14.0327 19.5 14.6071 19.5 15C19.5 15.3927 19.1782 15.7144 18.7858 15.7144ZM23.2007 21.0473C23.1584 21.064 23.1144 21.0713 23.0713 21.0713C22.928 21.0713 22.7933 20.9849 22.7389 20.844L20.1413 14.1718C19.4544 12.4556 18.6053 11.7856 17.1136 11.7856C16.124 11.7856 15.2936 12.3993 15.286 12.406C14.8451 12.7364 14.1553 12.7349 13.7142 12.406C13.7069 12.3993 12.8684 11.7856 11.8862 11.7856C10.3949 11.7856 9.54578 12.4556 8.85778 14.1747L6.26133 20.844C6.19 21.0278 5.982 21.1189 5.79889 21.0473C5.61556 20.9762 5.52422 20.7691 5.596 20.5847L8.19333 13.9129C8.99 11.9204 10.0942 11.0713 11.8862 11.0713C13.1118 11.0713 14.1013 11.8033 14.1427 11.8338C14.3298 11.9747 14.6704 11.9747 14.8571 11.8338C14.8987 11.8033 15.8887 11.0713 17.1133 11.0713C18.9056 11.0713 20.0096 11.9204 20.8056 13.91L23.4044 20.5847C23.4756 20.7691 23.3849 20.9762 23.2007 21.0473Z" fill="#485A8A"/>
<line x1="4.35586" y1="21.2351" x2="23.3559" y2="5.23509" stroke="#FF0000" stroke-width="2"/>
</g>
</svg>
