<svg width="29" height="29" viewBox="0 0 29 29" fill="none" xmlns="http://www.w3.org/2000/svg">
<path d="M14.5 29C22.5081 29 29 22.5081 29 14.5C29 6.49187 22.5081 0 14.5 0C6.49187 0 0 6.49187 0 14.5C0 22.5081 6.49187 29 14.5 29Z" fill="white"/>
<mask id="mask0" mask-type="alpha" maskUnits="userSpaceOnUse" x="0" y="0" width="29" height="29">
<path d="M14.5 29C22.5081 29 29 22.5081 29 14.5C29 6.49187 22.5081 0 14.5 0C6.49187 0 0 6.49187 0 14.5C0 22.5081 6.49187 29 14.5 29Z" fill="white"/>
</mask>
<g mask="url(#mask0)">
<path d="M7.51923 15.7212C7.20192 15.7212 7 15.9231 7 16.2404V19.1827C7 19.5 7.20192 19.7596 7.51923 19.7596H8.06731L9.50961 25.1827C9.74038 26.0769 10.5481 26.6827 11.4712 26.6827H17.5288C18.4519 26.6827 19.2596 26.0769 19.4904 25.1827L20.9327 19.7596H21.4808C21.7981 19.7596 22 19.5 22 19.1827V16.2115C22 15.8942 21.7981 15.6923 21.4808 15.6923H15.0769V8.85578C15.6538 9.31731 16.3462 9.57693 17.0962 9.57693C17.125 9.57693 17.1538 9.57693 17.2115 9.57693H17.5C19.2019 9.51924 20.5865 8.13461 20.6442 6.43269L20.7308 3.60577C20.7308 3.43269 20.6731 3.28846 20.5577 3.17308C20.4423 3.05769 20.2981 3 20.125 3L17.0096 3.08654C15.3077 3.14424 13.9231 4.52885 13.8654 6.23077C13.8654 6.46154 13.8654 6.69231 13.9231 6.92308V8.39423C13.3462 7.84616 12.5673 7.5 11.7019 7.47115C10.75 7.44231 9.88462 7.78846 9.19231 8.45192C8.52885 9.11538 8.18269 10.0096 8.21154 10.9615L8.29808 13.6154C8.29808 13.9327 8.55769 14.1635 8.84615 14.1635L11.5 14.25C11.5288 14.25 11.5577 14.25 11.6154 14.25C12.4808 14.25 13.2885 13.9327 13.9231 13.3269V15.6923H7.51923V15.7212ZM13.1731 12.4615C12.7404 12.8942 12.1635 13.125 11.5288 13.125L9.42308 13.0673L9.36538 10.9615C9.33654 10.3269 9.56731 9.75 10.0288 9.31731C10.4615 8.88461 11.0673 8.65385 11.6731 8.65385C12.8558 8.68269 13.8077 9.63462 13.8365 10.8173C13.8654 11.4519 13.6058 12.0289 13.1731 12.4615ZM17.0385 4.26923L19.5481 4.18269L19.4904 6.40385C19.4615 7.50001 18.5673 8.39424 17.4712 8.42308H17.1827C16.6058 8.42308 16.0577 8.22116 15.6538 7.81731C15.25 7.41347 15.0192 6.86538 15.0481 6.28846C15.0481 5.19231 15.9423 4.29808 17.0385 4.26923ZM18.3654 24.8942C18.2788 25.2692 17.9327 25.5289 17.5288 25.5289H11.4712C11.0673 25.5289 10.7212 25.2692 10.6346 24.8942L9.27884 19.7596H19.7212L18.3654 24.8942ZM20.8462 18.6058H8.15385V16.875H20.8462V18.6058Z" fill="#3BB30B"/>
</g>
</svg>
