<svg width="26" height="26" viewBox="0 0 26 26" fill="none" xmlns="http://www.w3.org/2000/svg">
<path d="M10 13.9375C12.1746 13.9375 13.9375 12.1746 13.9375 10C13.9375 7.82538 12.1746 6.0625 10 6.0625C7.82538 6.0625 6.0625 7.82538 6.0625 10C6.0625 12.1746 7.82538 13.9375 10 13.9375Z" stroke="#C4B429" stroke-width="0.8"/>
<path d="M10 3.8125V1" stroke="#C4B429" stroke-width="0.8" stroke-linecap="round"/>
<path d="M10 19V16.1875" stroke="#C4B429" stroke-width="0.8" stroke-linecap="round"/>
<path d="M16.1875 10H19" stroke="#C4B429" stroke-width="0.8" stroke-linecap="round"/>
<path d="M1 10H3.8125" stroke="#C4B429" stroke-width="0.8" stroke-linecap="round"/>
<path d="M14.3752 5.62472L16.364 3.63599" stroke="#C4B429" stroke-width="0.8" stroke-linecap="round"/>
<path d="M3.63602 16.364L5.62476 14.3752" stroke="#C4B429" stroke-width="0.8" stroke-linecap="round"/>
<path d="M14.3752 14.3753L16.364 16.364" stroke="#C4B429" stroke-width="0.8" stroke-linecap="round"/>
<path d="M3.63602 3.63602L5.62476 5.62476" stroke="#C4B429" stroke-width="0.8" stroke-linecap="round"/>
<path fill-rule="evenodd" clip-rule="evenodd" d="M15.6118 11.884L17.7325 15.6256C18.776 17.4284 20.2235 19.2652 20.2235 21.34C20.2235 23.8911 18.1364 26 15.6118 26C13.0534 26 11 23.8911 11 21.34C11 19.2652 12.4475 17.4284 13.4574 15.6256L15.6118 11.884ZM17.9345 21.9523C18.0018 21.7142 18.2374 21.5781 18.4731 21.6462C18.7087 21.7142 18.8434 21.9523 18.8097 22.1904C18.4731 23.4489 17.3959 24.4354 16.1167 24.6394C15.8811 24.6735 15.6454 24.5034 15.6118 24.2653C15.5781 24.0272 15.7464 23.7891 15.982 23.7551C16.9246 23.619 17.6988 22.9047 17.9345 21.9523Z" fill="#3978C2"/>
<path fill-rule="evenodd" clip-rule="evenodd" d="M20.4958 7L22.6165 10.7416C23.6601 12.5443 25.1075 14.3811 25.1075 16.456C25.1075 19.0071 23.0205 21.116 20.4958 21.116C17.9374 21.116 15.884 19.0071 15.884 16.456C15.884 14.3811 17.3315 12.5443 18.3414 10.7416L20.4958 7ZM22.8185 17.0683C22.8858 16.8302 23.1215 16.6941 23.3571 16.7621C23.5927 16.8302 23.7274 17.0683 23.6937 17.3064C23.3571 18.5649 22.2799 19.5513 21.0007 19.7554C20.7651 19.7894 20.5295 19.6193 20.4958 19.3812C20.4621 19.1431 20.6304 18.905 20.8661 18.871C21.8086 18.735 22.5829 18.0207 22.8185 17.0683Z" fill="#3978C2" fill-opacity="0.6"/>
</svg>
