<svg width="27" height="26" viewBox="0 0 27 26" fill="none" xmlns="http://www.w3.org/2000/svg">
<path d="M8.5 11.7812C10.3122 11.7812 11.7812 10.3122 11.7812 8.5C11.7812 6.68782 10.3122 5.21875 8.5 5.21875C6.68782 5.21875 5.21875 6.68782 5.21875 8.5C5.21875 10.3122 6.68782 11.7812 8.5 11.7812Z" stroke="#C4B429" stroke-width="0.8"/>
<path d="M8.5 3.34375V1" stroke="#C4B429" stroke-width="0.8" stroke-linecap="round"/>
<path d="M8.5 16V13.6562" stroke="#C4B429" stroke-width="0.8" stroke-linecap="round"/>
<path d="M13.6562 8.5H16" stroke="#C4B429" stroke-width="0.8" stroke-linecap="round"/>
<path d="M1 8.5H3.34375" stroke="#C4B429" stroke-width="0.8" stroke-linecap="round"/>
<path d="M12.146 4.85381L13.8033 3.19653" stroke="#C4B429" stroke-width="0.8" stroke-linecap="round"/>
<path d="M3.19672 13.8033L4.854 12.146" stroke="#C4B429" stroke-width="0.8" stroke-linecap="round"/>
<path d="M12.146 12.1462L13.8033 13.8035" stroke="#C4B429" stroke-width="0.8" stroke-linecap="round"/>
<path d="M3.19672 3.19672L4.854 4.854" stroke="#C4B429" stroke-width="0.8" stroke-linecap="round"/>
<path d="M12.6348 25.9364C14.7284 26.3426 16.5407 24.749 16.5407 22.7179C16.5407 21.6554 16.0095 20.6868 15.1971 20.0931V12.9374C15.1971 11.8749 14.3534 11 13.2597 11C12.1973 11 11.3224 11.8749 11.3224 12.9374V20.0931C10.3537 20.8118 9.79125 22.0304 10.0725 23.4053C10.3225 24.6552 11.3536 25.6864 12.6348 25.9364ZM11.7286 20.6868L12.0098 20.468V12.9686C12.0098 12.2812 12.5723 11.7499 13.2285 11.7499C13.9159 11.7499 14.4784 12.3124 14.4784 12.9686V20.468L14.7596 20.6868C15.4158 21.1555 15.7908 21.9367 15.7908 22.7491C15.7908 23.4366 15.5096 24.0928 15.0409 24.5615C14.5409 25.0302 13.9159 25.3114 13.2285 25.3114C11.9473 25.3114 10.9474 24.4052 10.7287 23.2803C10.5724 22.2492 10.9474 21.2492 11.7286 20.6868Z" fill="#676767"/>
<path d="M13.2597 24.5616C13.7597 24.5616 14.2284 24.3741 14.5721 24.0304C14.9158 23.6866 15.1033 23.2179 15.1033 22.718C15.1033 21.4681 14.0409 21.0618 13.7597 20.8119V15.531H12.7285V20.8119C12.5098 21.0618 11.1349 21.5618 11.4473 23.0929C11.6036 23.9054 12.3223 24.5616 13.2597 24.5616Z" fill="#C72F2F"/>
<path d="M17.7906 13.1248H16.0095V13.8435H17.7906C17.9781 13.8435 18.1344 13.6872 18.1344 13.4997C18.1656 13.281 18.0094 13.1248 17.7906 13.1248Z" fill="#B5B5B5"/>
<path d="M17.4469 15.3745C17.4469 15.187 17.2907 15.0308 17.1032 15.0308H16.0408V15.7495H17.1032C17.2907 15.7182 17.4469 15.562 17.4469 15.3745Z" fill="#B5B5B5"/>
<path d="M18.1656 17.2495C18.1656 17.062 18.0094 16.9058 17.8219 16.9058H16.0408V17.6245H17.8219C18.0094 17.6245 18.1656 17.437 18.1656 17.2495Z" fill="#B5B5B5"/>
<path fill-rule="evenodd" clip-rule="evenodd" d="M20.1554 7.3418L21.6064 9.90183C22.3204 11.1353 23.3108 12.392 23.3108 13.8117C23.3108 15.5572 21.8828 17.0001 20.1554 17.0001C18.405 17.0001 17 15.5572 17 13.8117C17 12.392 17.9904 11.1353 18.6814 9.90183L20.1554 7.3418ZM21.7446 14.2306C21.7907 14.0677 21.9519 13.9746 22.1131 14.0212C22.2744 14.0677 22.3665 14.2306 22.3435 14.3935C22.1131 15.2546 21.3761 15.9295 20.5009 16.0692C20.3397 16.0925 20.1784 15.9761 20.1554 15.8132C20.1324 15.6503 20.2475 15.4874 20.4088 15.4641C21.0537 15.371 21.5834 14.8823 21.7446 14.2306Z" fill="#3978C2"/>
<path fill-rule="evenodd" clip-rule="evenodd" d="M23.4971 4L24.9482 6.56003C25.6622 7.7935 26.6526 9.05025 26.6526 10.4699C26.6526 12.2154 25.2246 13.6583 23.4971 13.6583C21.7467 13.6583 20.3417 12.2154 20.3417 10.4699C20.3417 9.05025 21.3321 7.7935 22.0231 6.56003L23.4971 4ZM25.0864 10.8888C25.1324 10.7259 25.2937 10.6328 25.4549 10.6794C25.6161 10.7259 25.7082 10.8888 25.6852 11.0517C25.4549 11.9128 24.7179 12.5877 23.8426 12.7274C23.6814 12.7507 23.5202 12.6343 23.4971 12.4714C23.4741 12.3085 23.5893 12.1456 23.7505 12.1223C24.3954 12.0292 24.9251 11.5405 25.0864 10.8888Z" fill="#3978C2" fill-opacity="0.6"/>
</svg>
