<svg width="40" height="40" viewBox="0 0 40 40" fill="none" xmlns="http://www.w3.org/2000/svg">
<path d="M30.4839 11.871H28.8911V10.7097C28.8911 8.39973 27.8843 6.18439 26.0921 4.55101C24.2999 2.91762 21.8692 2 19.3347 2C16.8001 2 14.3694 2.91762 12.5772 4.55101C10.7851 6.18439 9.77823 8.39973 9.77823 10.7097V11.871H8.18548C7.34064 11.871 6.5304 12.1768 5.93301 12.7213C5.33561 13.2658 5 14.0042 5 14.7742V35.0968C5 35.8668 5.33561 36.6052 5.93301 37.1497C6.5304 37.6941 7.34064 38 8.18548 38H30.4839C31.3287 38 32.139 37.6941 32.7363 37.1497C33.3337 36.6052 33.6694 35.8668 33.6694 35.0968V14.7742C33.6694 14.0042 33.3337 13.2658 32.7363 12.7213C32.139 12.1768 31.3287 11.871 30.4839 11.871V11.871ZM11.0524 10.7097C11.0524 8.70772 11.925 6.78776 13.4782 5.37216C15.0315 3.95656 17.1381 3.16129 19.3347 3.16129C21.5313 3.16129 23.6379 3.95656 25.1911 5.37216C26.7443 6.78776 27.6169 8.70772 27.6169 10.7097V11.871H11.0524V10.7097ZM32.3952 35.0968C32.3952 35.5588 32.1938 36.0018 31.8354 36.3285C31.4769 36.6552 30.9908 36.8387 30.4839 36.8387H8.18548C7.67858 36.8387 7.19243 36.6552 6.834 36.3285C6.47556 36.0018 6.27419 35.5588 6.27419 35.0968V14.7742C6.27419 14.3122 6.47556 13.8691 6.834 13.5425C7.19243 13.2158 7.67858 13.0323 8.18548 13.0323H30.4839C30.9908 13.0323 31.4769 13.2158 31.8354 13.5425C32.1938 13.8691 32.3952 14.3122 32.3952 14.7742V35.0968Z" fill="#4B4B4B"/>
<path d="M24.7499 21.4518C24.752 20.6043 24.5145 19.7706 24.0604 19.031C23.6063 18.2914 22.9508 17.6708 22.1572 17.2291C21.3636 16.7873 20.4586 16.5393 19.5293 16.5088C18.5999 16.4783 17.6777 16.6665 16.8513 17.0552C16.0249 17.4438 15.3223 18.0199 14.8111 18.7278C14.2998 19.4358 13.9973 20.2518 13.9325 21.0972C13.8677 21.9427 14.0429 22.7891 14.4412 23.555C14.8394 24.3208 15.4474 24.9803 16.2065 25.4699L14.8749 32.6757C14.8615 32.76 14.8676 32.8459 14.8929 32.9279C14.9181 33.0099 14.9619 33.0862 15.0215 33.1518C15.082 33.2163 15.1573 33.2679 15.242 33.303C15.3268 33.3381 15.4189 33.3559 15.512 33.355H23.1572C23.2492 33.355 23.3402 33.3369 23.4237 33.3018C23.5073 33.2667 23.5816 33.2155 23.6414 33.1518C23.701 33.0862 23.7448 33.0099 23.77 32.9279C23.7952 32.8459 23.8014 32.76 23.7879 32.6757L22.4628 25.4699C23.1684 25.0153 23.7444 24.4133 24.1423 23.7142C24.5402 23.0152 24.7486 22.2394 24.7499 21.4518ZM21.1376 25.2899L22.4118 32.1937H16.2638L17.538 25.2899C17.5556 25.1764 17.536 25.0607 17.4815 24.9574C17.4271 24.854 17.3404 24.7677 17.2322 24.7092C16.4509 24.2879 15.8432 23.6443 15.5025 22.8773C15.1618 22.1104 15.1071 21.2628 15.3468 20.4647C15.5864 19.6667 16.1071 18.9625 16.8288 18.4606C17.5505 17.9587 18.4332 17.6868 19.341 17.6868C20.2488 17.6868 21.1315 17.9587 21.8532 18.4606C22.5749 18.9625 23.0956 19.6667 23.3352 20.4647C23.5749 21.2628 23.5202 22.1104 23.1795 22.8773C22.8388 23.6443 22.2311 24.2879 21.4498 24.7092C21.3404 24.7669 21.2524 24.8529 21.1968 24.9563C21.1412 25.0597 21.1206 25.1758 21.1376 25.2899Z" fill="#3BB30B"/>
</svg>
