<svg width="29" height="43" viewBox="0 0 29 43" fill="none" xmlns="http://www.w3.org/2000/svg">
<path d="M14.393 34.5398C12.9821 34.5398 11.8345 35.6875 11.8345 37.0983C11.8345 38.5092 12.9821 39.6569 14.393 39.6569C15.8039 39.6569 16.9515 38.5092 16.9515 37.0983C16.9515 35.6875 15.8039 34.5398 14.393 34.5398ZM14.393 37.9512C13.9224 37.9512 13.5402 37.5685 13.5402 37.0983C13.5402 36.6282 13.9224 36.2455 14.393 36.2455C14.8636 36.2455 15.2458 36.6282 15.2458 37.0983C15.2458 37.5685 14.8636 37.9512 14.393 37.9512Z" fill="#AEAEAE"/>
<path d="M0 32.408C0 32.4139 0.00322737 32.4187 0.00333142 32.4245V38.8897C0.00333142 40.959 1.68653 42.6422 3.75617 42.6422H25.248C27.3168 42.6422 29 40.959 29 38.8897V3.75243C29 1.6832 27.3168 0 25.248 0H3.75617C1.68653 0 0.00333142 1.6832 0.00333142 3.75243V6.37982C0.00322729 6.38565 0 6.39049 0 6.39632C0 6.40215 0.00322737 6.40699 0.00333142 6.41282V32.3915C0.00322737 32.3974 0 32.4022 0 32.408ZM27.2943 31.5552H1.70902V7.24917H27.2943V31.5552ZM25.248 40.9365H3.75617C2.62766 40.9365 1.70902 40.0182 1.70902 38.8897V33.2609H27.2943V38.8897C27.2943 40.0182 26.3765 40.9365 25.248 40.9365ZM3.75617 1.70569H25.248C26.3765 1.70569 27.2943 2.62391 27.2943 3.75243V5.54348H1.70902V3.75243C1.70902 2.62391 2.62766 1.70569 3.75617 1.70569Z" fill="#565656"/>
<path d="M4.97495 17.2333C5.3081 17.5665 5.84779 17.5665 6.18093 17.2333L8.34968 15.0646V25.7984C8.34968 26.2694 8.73113 26.6513 9.20253 26.6513C9.67392 26.6513 10.0554 26.2694 10.0554 25.7984V15.0646L12.2241 17.2333C12.3907 17.3999 12.6089 17.4832 12.8271 17.4832C13.0453 17.4832 13.2635 17.3999 13.4301 17.2333C13.7632 16.9002 13.7632 16.3605 13.4301 16.0274L9.80624 12.4035C9.72748 12.3246 9.63306 12.262 9.52838 12.2187C9.31996 12.1325 9.08509 12.1325 8.87667 12.2187C8.77199 12.262 8.67757 12.3246 8.59881 12.4035L4.97495 16.0274C4.64181 16.3605 4.64181 16.9002 4.97495 17.2333Z" fill="#89D969"/>
<path d="M19.1974 26.4006C19.2762 26.4795 19.3706 26.5421 19.4753 26.5854C19.5795 26.6285 19.6901 26.6512 19.8012 26.6512C19.9122 26.6512 20.0228 26.6285 20.127 26.5854C20.2317 26.5421 20.3261 26.4795 20.4049 26.4006L24.0287 22.7767C24.3619 22.4436 24.3619 21.9039 24.0287 21.5708C23.6956 21.2376 23.1559 21.2376 22.8228 21.5708L20.654 23.7395V13.0057C20.654 12.5347 20.2726 12.1528 19.8012 12.1528C19.3298 12.1528 18.9483 12.5347 18.9483 13.0057V23.7395L16.7796 21.5708C16.4464 21.2376 15.9067 21.2376 15.5736 21.5708C15.2404 21.9039 15.2404 22.4436 15.5736 22.7767L19.1974 26.4006Z" fill="#EF6363"/>
</svg>
