<svg width="29" height="29" viewBox="0 0 29 29" fill="none" xmlns="http://www.w3.org/2000/svg">
<path d="M14.5 29C22.5081 29 29 22.5081 29 14.5C29 6.49187 22.5081 0 14.5 0C6.49187 0 0 6.49187 0 14.5C0 22.5081 6.49187 29 14.5 29Z" fill="white"/>
<mask id="mask0" mask-type="alpha" maskUnits="userSpaceOnUse" x="0" y="0" width="29" height="29">
<path d="M14.5 29C22.5081 29 29 22.5081 29 14.5C29 6.49187 22.5081 0 14.5 0C6.49187 0 0 6.49187 0 14.5C0 22.5081 6.49187 29 14.5 29Z" fill="white"/>
</mask>
<g mask="url(#mask0)">
<path d="M4.97285 13.2656C4.97285 9.24435 8.89827 5.97285 13.7241 5.97285C18.5494 5.97285 22.4753 9.24435 22.4753 13.2656C22.4753 13.4275 22.4583 13.5855 22.4457 13.7449C22.7646 13.9584 23.0622 14.1942 23.3354 14.4504C23.4015 14.0624 23.4472 13.6691 23.4472 13.2651C23.4472 8.70761 19.0847 5 13.7236 5C8.36201 5 4 8.70761 4 13.2651C4 15.362 4.93055 17.2722 6.44889 18.7307V22.7456C6.44889 22.942 6.56752 23.1199 6.74886 23.1948C6.80915 23.2201 6.87235 23.2318 6.93507 23.2318C7.06148 23.2318 7.18594 23.1822 7.2788 23.0893L9.62024 20.7479C10.263 21.0036 10.9431 21.201 11.651 21.3347C11.4643 20.988 11.3146 20.6244 11.2023 20.2466C7.60308 19.3428 4.97285 16.5565 4.97285 13.2656Z" fill="#3823B9"/>
<path d="M18.113 13.428C14.7102 13.428 11.9419 15.7811 11.9419 18.6734C11.9419 21.5662 14.7102 23.9197 18.113 23.9197C19.044 23.9197 19.925 23.7384 20.7165 23.4234L22.2032 24.9096C22.2625 24.9684 22.3413 25 22.421 25C22.4609 25 22.5012 24.9923 22.5397 24.9762C22.6544 24.9286 22.7297 24.8163 22.7297 24.6913V22.1437C23.6934 21.2176 24.2841 20.005 24.2841 18.6739C24.2841 15.7806 21.5162 13.428 18.113 13.428ZM14.613 16.5755H21.613V17.2955H14.613V16.5755ZM21.613 20.7712H14.613V20.0512H21.613V20.7712ZM22.1774 19.0336H14.0485V18.3136H22.1779V19.0336H22.1774Z" fill="#3BB30B"/>
</g>
</svg>
