<svg width="29" height="29" viewBox="0 0 29 29" fill="none" xmlns="http://www.w3.org/2000/svg">
<path d="M14.5 29C22.5081 29 29 22.5081 29 14.5C29 6.49187 22.5081 0 14.5 0C6.49187 0 0 6.49187 0 14.5C0 22.5081 6.49187 29 14.5 29Z" fill="white"/>
<mask id="mask0" mask-type="alpha" maskUnits="userSpaceOnUse" x="0" y="0" width="29" height="29">
<path d="M14.5 29C22.5081 29 29 22.5081 29 14.5C29 6.49187 22.5081 0 14.5 0C6.49187 0 0 6.49187 0 14.5C0 22.5081 6.49187 29 14.5 29Z" fill="white"/>
</mask>
<g mask="url(#mask0)">
<path d="M6.15677 7L5 8.15677V21.8387H25V7H6.15677ZM5.64516 11.5161H6.29032V17.3226H5.64516V11.5161ZM5.64516 21.1935V17.9677H6.93548V10.871H5.64516V8.42387L6.42387 7.64516H24.3548V10.9942L23.0645 11.6394V17.1994L24.3548 17.8445V21.1935H5.64516ZM24.3548 11.7155V17.1232L23.7097 16.8006V12.0381L24.3548 11.7155Z" fill="#5F5F5F"/>
<path d="M6.93544 8.29028H6.29028V8.93544H6.93544V8.29028Z" fill="#5F5F5F"/>
<path d="M23.7096 8.29028H23.0645V8.93544H23.7096V8.29028Z" fill="#5F5F5F"/>
<path d="M6.93544 19.9033H6.29028V20.5485H6.93544V19.9033Z" fill="#5F5F5F"/>
<path d="M23.7096 19.9033H23.0645V20.5485H23.7096V19.9033Z" fill="#5F5F5F"/>
<path d="M8.22573 8.29028H7.58057V20.5483H8.22573V8.29028Z" fill="#3BB30B"/>
<path d="M9.51601 8.29028H8.87085V20.5483H9.51601V8.29028Z" fill="#3BB30B"/>
<path d="M14.0323 8.29028H10.8065V8.93544H10.1614V9.58061H10.8065V10.2258H10.1614V10.8709H10.8065V11.5161H10.1614V12.1613H10.8065V12.8064H10.1614V13.4516H10.8065V14.0967H14.0323V13.4516H14.6775V12.8064H14.0323V12.1613H14.6775V11.5161H14.0323V10.8709H14.6775V10.2258H14.0323V9.58061H14.6775V8.93544H14.0323V8.29028ZM13.3872 13.4516H11.4517V8.93544H13.3872V13.4516Z" fill="#5F5F5F"/>
<path d="M12.7418 9.58057H12.0967V12.8064H12.7418V9.58057Z" fill="#5F5F5F"/>
<path d="M14.0323 14.7419H10.8065V15.3871H10.1614V16.0323H10.8065V16.6774H10.1614V17.3226H10.8065V17.9678H10.1614V18.6129H10.8065V19.2581H10.1614V19.9032H10.8065V20.5484H14.0323V19.9032H14.6775V19.2581H14.0323V18.6129H14.6775V17.9678H14.0323V17.3226H14.6775V16.6774H14.0323V16.0323H14.6775V15.3871H14.0323V14.7419ZM13.3872 19.9032H11.4517V15.3871H13.3872V19.9032Z" fill="#5F5F5F"/>
<path d="M12.7418 16.0322H12.0967V19.258H12.7418V16.0322Z" fill="#5F5F5F"/>
<path d="M21.7741 8.29028H21.129V8.93544H20.4838V8.29028H19.8386V8.93544H19.1935V8.29028H18.5483V8.93544H17.9032V8.29028H17.258V8.93544H16.6128V8.29028H15.9677V8.93544H15.3225V11.5161H15.9677V12.1613H16.6128V11.5161H17.258V12.1613H17.9032V11.5161H18.5483V12.1613H19.1935V11.5161H19.8386V12.1613H20.4838V11.5161H21.129V12.1613H21.7741V11.5161H22.4193V8.93544H21.7741V8.29028ZM21.7741 10.8709H15.9677V9.58061H21.7741V10.8709Z" fill="#3BB30B"/>
<path d="M21.7741 12.8064H21.129V13.4516H20.4838V12.8064H19.8386V13.4516H19.1935V12.8064H18.5483V13.4516H17.9032V12.8064H17.258V13.4516H16.6128V12.8064H15.9677V13.4516H15.3225V16.0322H15.9677V16.6774H16.6128V16.0322H17.258V16.6774H17.9032V16.0322H18.5483V16.6774H19.1935V16.0322H19.8386V16.6774H20.4838V16.0322H21.129V16.6774H21.7741V16.0322H22.4193V13.4516H21.7741V12.8064ZM21.7741 15.387H15.9677V14.0967H21.7741V15.387Z" fill="#3BB30B"/>
<path d="M16.9354 17.3225C16.0461 17.3225 15.3225 18.0461 15.3225 18.9354C15.3225 19.8248 16.0461 20.5483 16.9354 20.5483C17.8248 20.5483 18.5483 19.8248 18.5483 18.9354C18.5483 18.0461 17.8248 17.3225 16.9354 17.3225ZM16.9354 19.9032C16.4019 19.9032 15.9677 19.469 15.9677 18.9354C15.9677 18.4019 16.4019 17.9677 16.9354 17.9677C17.469 17.9677 17.9032 18.4019 17.9032 18.9354C17.9032 19.469 17.469 19.9032 16.9354 19.9032Z" fill="#5F5F5F"/>
<path d="M17.258 18.6128H16.6128V19.258H17.258V18.6128Z" fill="#5F5F5F"/>
<path d="M20.8065 17.3225C19.9172 17.3225 19.1936 18.0461 19.1936 18.9354C19.1936 19.8248 19.9172 20.5483 20.8065 20.5483C21.6959 20.5483 22.4194 19.8248 22.4194 18.9354C22.4194 18.0461 21.6959 17.3225 20.8065 17.3225ZM20.8065 19.9032C20.273 19.9032 19.8388 19.469 19.8388 18.9354C19.8388 18.4019 20.273 17.9677 20.8065 17.9677C21.3401 17.9677 21.7742 18.4019 21.7742 18.9354C21.7742 19.469 21.3401 19.9032 20.8065 19.9032Z" fill="#5F5F5F"/>
<path d="M21.129 18.6128H20.4839V19.258H21.129V18.6128Z" fill="#5F5F5F"/>
<line x1="6.29289" y1="21.8654" x2="21.8653" y2="6.29299" stroke="#FF0000" stroke-width="2"/>
</g>
</svg>
