<svg width="32" height="19" viewBox="0 0 32 19" fill="none" xmlns="http://www.w3.org/2000/svg">
<path d="M31.4667 7.82353H30.4V6.14706C30.4 5.99886 30.3438 5.85671 30.2438 5.75192C30.1438 5.64714 30.0081 5.58823 29.8667 5.58823H28.8V3.35294H30.9333V2.23529H28.8V1.67647C28.7988 1.23221 28.6298 0.806554 28.33 0.49245C28.0302 0.178347 27.624 0.00128157 27.2 0H10.6667C10.2427 0.00128064 9.83644 0.178359 9.53666 0.49245C9.23689 0.806554 9.0679 1.23218 9.06668 1.67647V5.58823H7.46668C7.32523 5.58823 7.18957 5.64714 7.08956 5.75192C6.98956 5.8567 6.93334 5.99885 6.93334 6.14706V7.82353H4.80001V6.70588C4.80001 6.55768 4.74378 6.41553 4.64379 6.31074C4.54379 6.20597 4.40812 6.14706 4.26667 6.14706H0.533339C0.391893 6.14706 0.256227 6.20597 0.156223 6.31074C0.0562233 6.41552 0 6.55768 0 6.70588V12.2941C0 12.4423 0.0562233 12.5845 0.156223 12.6893C0.256222 12.794 0.39189 12.8529 0.533339 12.8529H4.26667C4.40811 12.8529 4.54378 12.794 4.64379 12.6893C4.74378 12.5845 4.80001 12.4423 4.80001 12.2941V11.1765H6.93334V12.8529C6.93334 13.0011 6.98956 13.1433 7.08956 13.2481C7.18956 13.3529 7.32523 13.4118 7.46668 13.4118H9.06668V17.3235C9.0679 17.7678 9.2369 18.1934 9.53666 18.5076C9.83644 18.8217 10.2427 18.9987 10.6667 19H27.2C27.624 18.9987 28.0302 18.8216 28.33 18.5076C28.6298 18.1934 28.7988 17.7678 28.8 17.3235V16.7647H30.9333V15.6471H28.8V13.4118H29.8667C30.0081 13.4118 30.1438 13.3529 30.2438 13.2481C30.3438 13.1433 30.4 13.0011 30.4 12.8529V11.1765H31.4667C31.6081 11.1765 31.7438 11.1176 31.8438 11.0128C31.9438 10.908 32 10.7659 32 10.6176V8.38235C32 8.23414 31.9438 8.09199 31.8438 7.98721C31.7438 7.88243 31.6081 7.82353 31.4667 7.82353ZM3.73335 11.7353H1.06669V11.1765H3.73335V11.7353ZM3.73335 10.0588H1.06669V8.94118H3.73335V10.0588ZM3.73335 7.82353H1.06669V7.26471H3.73335V7.82353ZM6.93335 10.0588H4.80002V8.94118H6.93335V10.0588ZM9.06668 12.2941H8.00002V6.70588H9.06668V12.2941ZM23.4667 13.4118H12.2667V5.58824H23.4667V13.4118ZM23.4667 4.47059H11.7333C11.5919 4.47059 11.4562 4.5295 11.3562 4.63428C11.2562 4.73906 11.2 4.88121 11.2 5.02942V13.9706C11.2 14.1188 11.2562 14.2609 11.3562 14.3657C11.4562 14.4705 11.5919 14.5294 11.7333 14.5294H23.4667V17.8824H10.6667C10.5252 17.8824 10.3896 17.8235 10.2896 17.7187C10.1896 17.6139 10.1333 17.4717 10.1333 17.3235V1.67648C10.1333 1.52828 10.1896 1.38613 10.2896 1.28134C10.3896 1.17656 10.5252 1.11765 10.6667 1.11765H23.4667V4.47059ZM27.7333 17.3235C27.7333 17.4717 27.6771 17.6139 27.5771 17.7187C27.4771 17.8234 27.3414 17.8824 27.2 17.8824H24.5333V1.11766H27.2C27.3414 1.11766 27.4771 1.17657 27.5771 1.28135C27.6771 1.38613 27.7333 1.52828 27.7333 1.67649V17.3235ZM29.3333 12.2941H28.8V6.70588H29.3333V12.2941ZM30.9333 10.0588H30.4V8.94118H30.9333V10.0588Z" fill="#3BB30B"/>
</svg>
