<svg width="35" height="35" viewBox="0 0 35 35" fill="none" xmlns="http://www.w3.org/2000/svg">
<circle cx="17.5" cy="17.5" r="17.5" fill="white"/>
<path d="M8.45068 8.23848L6.08226 11.9227C6.02795 12.0081 5.99901 12.1094 6.00003 12.2105V15.8947C6.00005 16.1703 6.25077 16.421 6.52634 16.421H7.05266V26.9474C7.05267 27.5172 7.5186 28 8.10529 28H26C26.5867 28 27.0527 27.5172 27.0527 26.9474V16.421H27.579C27.8546 16.421 28.1053 16.1703 28.1053 15.8947V12.2105C28.1063 12.1094 28.0774 12.0081 28.0231 11.9227L25.6546 8.23848C25.5588 8.0918 25.3858 7.99888 25.2106 8.00001H8.89476C8.69229 8.00264 8.53932 8.11819 8.45068 8.23848V8.23848ZM9.18259 9.05264H24.9227L26.6168 11.6842H7.48851L9.18259 9.05264ZM7.05266 12.7369H27.0527V15.3684H7.05266V12.7369ZM8.10529 16.421H26V26.9474H8.10529V16.421ZM15.2106 17.4737C14.4907 17.4737 13.8948 18.0696 13.8948 18.7895C13.8948 19.5093 14.4907 20.1053 15.2106 20.1053H18.8948C19.6146 20.1053 20.2106 19.5093 20.2106 18.7895C20.2106 18.0696 19.6146 17.4737 18.8948 17.4737H15.2106ZM15.2106 18.5263H18.8948C19.0497 18.5263 19.1579 18.6346 19.1579 18.7895C19.1579 18.9444 19.0497 19.0526 18.8948 19.0526H15.2106C15.0557 19.0526 14.9474 18.9444 14.9474 18.7895C14.9474 18.6346 15.0557 18.5263 15.2106 18.5263Z" fill="#54C59C"/>
</svg>
