<svg width="29" height="29" viewBox="0 0 29 29" fill="none" xmlns="http://www.w3.org/2000/svg">
<path d="M14.5 29C22.5081 29 29 22.5081 29 14.5C29 6.49187 22.5081 0 14.5 0C6.49187 0 0 6.49187 0 14.5C0 22.5081 6.49187 29 14.5 29Z" fill="white"/>
<mask id="mask0" mask-type="alpha" maskUnits="userSpaceOnUse" x="0" y="0" width="29" height="29">
<path d="M14.5 29C22.5081 29 29 22.5081 29 14.5C29 6.49187 22.5081 0 14.5 0C6.49187 0 0 6.49187 0 14.5C0 22.5081 6.49187 29 14.5 29Z" fill="white"/>
</mask>
<g mask="url(#mask0)">
<path d="M24.9759 18.6846C24.9724 18.6453 24.9683 18.6059 24.9642 18.5666C24.9273 18.2311 24.86 17.9028 24.7645 17.5846C24.7597 17.5687 24.7548 17.5532 24.75 17.5373C24.3445 16.2291 23.4617 15.1011 22.2411 14.396V10.2067H22.5859V9.51702H21.8962H19.8273V8.02978C20.0642 8.08599 20.3683 8.13737 20.6993 8.13737C21.1224 8.13737 21.5849 8.05392 21.9921 7.79047C23.0693 7.09358 23.2652 5.44496 23.2735 5.37496C23.2907 5.22083 23.2028 5.07427 23.059 5.01634C22.9966 4.99152 21.51 4.40876 20.4211 5.11289C20.0835 5.33117 19.8328 5.64289 19.6469 5.97013C19.4749 5.42738 19.1483 4.73772 18.5442 4.34704C17.4552 3.64221 15.9683 4.22497 15.9063 4.25014C15.7625 4.30773 15.6745 4.45462 15.6918 4.60876C15.6997 4.67876 15.8959 6.32737 16.9732 7.02392C17.3804 7.28737 17.8428 7.37082 18.2659 7.37082C18.5969 7.37082 18.9011 7.31944 19.138 7.26323V9.51702H17.069H16.3794V10.2067H16.7242V14.396C15.4835 15.1129 14.5914 16.2666 14.1952 17.6032C14.1942 17.6063 14.1918 17.6087 14.1907 17.6122C14.1873 17.6239 14.1849 17.6359 14.1814 17.648C14.1552 17.7391 14.1321 17.8311 14.1107 17.9239C14.1032 17.957 14.0945 17.9901 14.0873 18.0235C14.0676 18.1156 14.0518 18.2087 14.0366 18.3025C14.0311 18.3366 14.0245 18.3704 14.0197 18.4046C14.0063 18.5004 13.997 18.5973 13.9883 18.6942C13.9856 18.7256 13.9811 18.7566 13.979 18.7884C13.9704 18.9149 13.9656 19.0432 13.9656 19.1721C13.9656 22.2142 16.4407 24.6894 19.4828 24.6894C22.5249 24.6894 25 22.2142 25 19.1721C25 19.008 24.99 18.8459 24.9759 18.6846ZM21.618 7.21116C21.2293 7.46289 20.7404 7.47426 20.3411 7.4222L22.39 6.09703C22.2466 6.50185 22.009 6.95875 21.618 7.21116ZM20.7959 5.69255C21.1849 5.44117 21.6735 5.42945 22.0724 5.48151L20.0235 6.80668C20.1673 6.40186 20.4049 5.94531 20.7959 5.69255ZM18.1697 4.92634C18.5604 5.1791 18.7983 5.63565 18.9418 6.04048L16.8932 4.71497C17.2918 4.66324 17.7804 4.67462 18.1697 4.92634ZM17.3476 6.44496C16.9569 6.1922 16.719 5.73565 16.5756 5.33082L18.6242 6.65599C18.2249 6.70772 17.7363 6.69634 17.3476 6.44496ZM21.5518 10.2067V10.8963H20.8621V11.586H21.5518V12.2756H20.8621V12.9653H21.5518V13.6549H20.8621V14.3446H21.5518V14.5991C21.5518 14.727 21.6224 14.8442 21.7352 14.9039C22.5766 15.3491 23.2469 16.0187 23.6935 16.8153C22.3866 16.796 21.0918 16.9249 19.8276 17.0642V10.2067H21.5518ZM17.2304 14.9039C17.3431 14.8442 17.4138 14.727 17.4138 14.5991V10.2067H19.138V17.1401C17.78 17.2897 16.388 17.4284 15.0004 17.3842C15.418 16.338 16.1952 15.4515 17.2304 14.9039ZM19.4828 23.9997C16.8207 23.9997 14.6552 21.8342 14.6552 19.1721C14.6552 19.0032 14.6666 18.8349 14.6842 18.6673C14.687 18.6394 14.6894 18.6118 14.6928 18.5839C14.7128 18.4197 14.7414 18.2566 14.7783 18.0956C14.7804 18.0866 14.7828 18.0777 14.7849 18.0687C16.3883 18.1397 17.9804 17.9628 19.5221 17.7918C20.9921 17.6284 22.5104 17.4601 24.0145 17.5128C24.0631 17.6453 24.1059 17.7791 24.1424 17.9142C24.1438 17.9187 24.1445 17.9235 24.1459 17.9284C24.1773 18.0456 24.2031 18.1642 24.2255 18.2832C24.2321 18.318 24.2379 18.3532 24.2438 18.3884C24.2593 18.4828 24.2717 18.5777 24.2817 18.6732C24.2855 18.7108 24.2904 18.748 24.2935 18.7856C24.3038 18.9135 24.3104 19.0425 24.3104 19.1721C24.3104 21.8342 22.1449 23.9997 19.4828 23.9997Z" fill="#3BB30B"/>
<path d="M18.1034 19.5169C18.1034 18.9466 17.6392 18.4824 17.0689 18.4824C16.4986 18.4824 16.0344 18.9466 16.0344 19.5169C16.0344 20.0872 16.4986 20.5514 17.0689 20.5514C17.6392 20.5514 18.1034 20.0872 18.1034 19.5169ZM17.0689 19.8617C16.8786 19.8617 16.7241 19.7069 16.7241 19.5169C16.7241 19.3269 16.8786 19.1721 17.0689 19.1721C17.2592 19.1721 17.4137 19.3269 17.4137 19.5169C17.4137 19.7069 17.2592 19.8617 17.0689 19.8617Z" fill="#AAAAAA"/>
<path d="M20.862 19.8618C20.1013 19.8618 19.4827 20.4804 19.4827 21.2411C19.4827 22.0018 20.1013 22.6204 20.862 22.6204C21.6227 22.6204 22.2413 22.0018 22.2413 21.2411C22.2413 20.4804 21.6227 19.8618 20.862 19.8618ZM20.862 21.9308C20.4816 21.9308 20.1723 21.6215 20.1723 21.2411C20.1723 20.8608 20.4816 20.5515 20.862 20.5515C21.2423 20.5515 21.5516 20.8608 21.5516 21.2411C21.5516 21.6215 21.2423 21.9308 20.862 21.9308Z" fill="#AAAAAA"/>
<path d="M22.9311 18.1377H22.2415V18.8273H22.9311V18.1377Z" fill="#AAAAAA"/>
<path d="M18.4482 21.5859H17.7585V22.2756H18.4482V21.5859Z" fill="#AAAAAA"/>
<path d="M20.862 18.4824H20.1724V19.1721H20.862V18.4824Z" fill="#AAAAAA"/>
<path d="M10.0101 8.13737C10.4332 8.13737 10.8956 8.05392 11.3028 7.79047C12.38 7.09358 12.5759 5.44496 12.5842 5.37496C12.6014 5.22083 12.5135 5.07427 12.3697 5.01634C12.3073 4.99152 10.8211 4.40876 9.73178 5.11289C9.3942 5.33117 9.14351 5.64289 8.95765 5.97013C8.78524 5.42738 8.45869 4.73772 7.85455 4.34704C6.76559 3.64221 5.2787 4.22497 5.21663 4.25014C5.07284 4.30773 4.98491 4.45462 5.00215 4.60876C5.01008 4.67876 5.20628 6.32737 6.28352 7.02392C6.69076 7.28737 7.15317 7.37082 7.57628 7.37082C7.90731 7.37082 8.21145 7.31944 8.44834 7.26323V9.51702H6.37938H5.68973V10.2067H6.03456V21.9308C6.03456 23.4518 7.27214 24.6894 8.79317 24.6894C10.3142 24.6894 11.5518 23.4518 11.5518 21.9308V10.2067H11.8966V9.51702H11.207H9.13799V8.02978C9.37489 8.08599 9.67903 8.13737 10.0101 8.13737ZM8.44834 10.2067V12.6732C7.91179 12.7598 7.37559 12.8136 6.72421 12.6877V10.2067H8.44834ZM8.79317 23.9997C7.65214 23.9997 6.72421 23.0718 6.72421 21.9308V13.388C6.99628 13.4332 7.25145 13.4539 7.49248 13.4539C7.9842 13.4539 8.42179 13.3787 8.85144 13.3053C9.48868 13.196 10.0949 13.0949 10.8621 13.2429V13.9998H10.1725V14.6894H10.8621V15.3791H10.1725V16.0687H10.8621V16.7584H10.1725V17.448H10.8621V18.1377H10.1725V18.8273H10.8621V19.517H10.1725V20.2066H10.8621V20.8963H10.1725V21.5859H10.8621V21.9308C10.8621 22.0483 10.8501 22.1632 10.8311 22.2756H10.1725V22.9652H10.5821C10.2239 23.5825 9.55696 23.9997 8.79317 23.9997ZM10.8621 10.2067V11.2411H10.1725V11.9308H10.8621V12.5418C10.2066 12.4332 9.65661 12.4805 9.13799 12.5598V10.2067H10.8621ZM10.9283 7.21116C10.5397 7.46289 10.0507 7.47426 9.65144 7.4222L11.7004 6.09703C11.5569 6.50185 11.3194 6.95875 10.9283 7.21116ZM10.1063 5.69255C10.4952 5.44117 10.9838 5.42945 11.3828 5.48151L9.33385 6.80668C9.47765 6.40186 9.71523 5.94531 10.1063 5.69255ZM7.48007 4.92634C7.87076 5.1791 8.10869 5.63565 8.25214 6.04048L6.20352 4.71497C6.60214 4.66324 7.09076 4.67462 7.48007 4.92634ZM6.658 6.44496C6.26697 6.1922 6.02939 5.73565 5.88559 5.33082L7.93421 6.65599C7.53524 6.70772 7.04662 6.69634 6.658 6.44496Z" fill="#3BB30B"/>
<path d="M8.4483 15.3792C7.87795 15.3792 7.41382 15.8433 7.41382 16.4136C7.41382 16.984 7.87795 17.4481 8.4483 17.4481C9.01864 17.4481 9.48278 16.984 9.48278 16.4136C9.48278 15.8433 9.01864 15.3792 8.4483 15.3792ZM8.4483 16.7585C8.25795 16.7585 8.10347 16.6036 8.10347 16.4136C8.10347 16.2236 8.25795 16.0688 8.4483 16.0688C8.63864 16.0688 8.79312 16.2236 8.79312 16.4136C8.79312 16.6036 8.63864 16.7585 8.4483 16.7585Z" fill="#AAAAAA"/>
<path d="M8.4483 20.5515C7.87795 20.5515 7.41382 21.0156 7.41382 21.586C7.41382 22.1563 7.87795 22.6205 8.4483 22.6205C9.01864 22.6205 9.48278 22.1563 9.48278 21.586C9.48278 21.0156 9.01864 20.5515 8.4483 20.5515ZM8.4483 21.9308C8.25795 21.9308 8.10347 21.776 8.10347 21.586C8.10347 21.396 8.25795 21.2412 8.4483 21.2412C8.63864 21.2412 8.79312 21.396 8.79312 21.586C8.79312 21.776 8.63864 21.9308 8.4483 21.9308Z" fill="#AAAAAA"/>
<path d="M8.44844 13.9998H7.75879V14.6894H8.44844V13.9998Z" fill="#AAAAAA"/>
<path d="M9.13789 18.8274H8.44824V19.517H9.13789V18.8274Z" fill="#AAAAAA"/>
</g>
</svg>
