<svg width="40" height="40" viewBox="0 0 40 40" fill="none" xmlns="http://www.w3.org/2000/svg">
<path d="M39.3153 32.9761L27.0969 20.7582C26.848 20.5093 26.4449 20.5093 26.196 20.7582L23.9346 23.0195L23.0219 22.1042L27.2953 17.8202C28.0161 17.0972 28.4124 16.1369 28.4107 15.1162C28.409 14.0951 28.0101 13.136 27.2868 12.4156C25.7942 10.929 23.3706 10.9337 21.8848 12.4241L17.5987 16.7209L16.4658 15.5847L18.7442 13.3063C18.8636 13.187 18.9307 13.0247 18.9307 12.8557C18.9307 12.6866 18.8636 12.5248 18.7442 12.405L6.52586 0.186678C6.27695 -0.0622258 5.87386 -0.0622258 5.62496 0.186678L2.91676 2.89488L2.91633 2.89531C2.91633 2.89531 2.91633 2.89573 2.91591 2.89573L0.18689 5.62475C0.0671105 5.74453 0 5.90678 0 6.07583C0 6.24488 0.0671104 6.40671 0.186465 6.52649L6.29522 12.6352C6.29522 12.6352 6.29522 12.6352 6.29522 12.6357C6.29522 12.6361 6.29522 12.6357 6.29564 12.6357L12.4044 18.7444C12.5288 18.8689 12.6919 18.9309 12.8551 18.9309C13.0182 18.9309 13.1813 18.8689 13.3057 18.7444L15.5645 16.4856L16.6986 17.6231L12.7089 21.6225C12.5896 21.7423 12.5225 21.9046 12.5229 22.0736C12.5233 22.2427 12.5904 22.4045 12.7102 22.5238L14.5073 24.3146L13.4501 25.3722C11.2023 23.5742 7.90629 23.7148 5.82502 25.7961C5.57611 26.0446 5.57611 26.4485 5.82502 26.697L7.79713 28.6691C7.59792 29.0221 7.48282 29.4175 7.48367 29.8342C7.48451 30.4692 7.73299 31.0651 8.18238 31.5128C8.64451 31.9737 9.25147 32.2039 9.85802 32.2039C10.2603 32.2039 10.6587 32.093 11.0189 31.8908L13.0262 33.8982C13.1507 34.0227 13.3138 34.0847 13.4769 34.0847C13.64 34.0847 13.8031 34.0227 13.9275 33.8982C16.0088 31.8169 16.1486 28.5205 14.3514 26.2731L15.4103 25.2138L17.2211 27.0177C17.3455 27.1417 17.5082 27.2037 17.6709 27.2037C17.8344 27.2037 17.9975 27.1413 18.1219 27.0164L22.1227 23.0055L23.0342 23.92L20.7584 26.1958C20.639 26.3152 20.5719 26.4774 20.5719 26.6465C20.5719 26.8155 20.639 26.9773 20.7584 27.0971L32.9767 39.3155C33.1012 39.4399 33.2643 39.5019 33.4274 39.5019C33.5905 39.5019 33.7536 39.4399 33.878 39.3155L39.3165 33.877C39.4359 33.7576 39.503 33.5954 39.503 33.4263C39.503 33.2573 39.4346 33.0954 39.3153 32.9761ZM15.5662 14.6821L10.366 9.46618L12.1848 7.64741L17.3931 12.8557L15.5662 14.6821ZM6.07562 1.53823L11.2835 6.74609L9.4664 8.56359L4.26619 3.34766L6.07562 1.53823ZM3.36487 4.24898L8.56508 9.46491L6.7463 11.2837L1.53802 6.07583L3.36487 4.24898ZM12.8555 17.3929L7.64719 12.1846L9.4647 10.3671L14.6649 15.583L12.8555 17.3929ZM9.08157 30.6102C8.87345 30.403 8.75834 30.1264 8.75749 29.8321C8.75749 29.7688 8.76301 29.7064 8.77278 29.6452L10.0428 30.9152C9.70001 30.9721 9.34195 30.8706 9.08157 30.6102ZM13.4446 32.5148L7.20885 26.2791C8.95203 24.9742 11.4423 25.1135 13.0262 26.6974C14.6097 28.2813 14.7494 30.7712 13.4446 32.5148ZM17.6692 25.6661L14.0613 22.0711L18.048 18.0746C18.048 18.0746 18.048 18.0746 18.0485 18.0746C18.0489 18.0746 18.0485 18.0742 18.0485 18.0742L22.7874 13.3238C23.7779 12.3307 25.3932 12.3269 26.388 13.3178C26.8701 13.7982 27.136 14.4375 27.1373 15.1175C27.1381 15.7979 26.8743 16.438 26.3939 16.9197L21.6729 21.6523C21.6729 21.6523 21.6729 21.6523 21.6729 21.6527L17.6692 25.6661ZM26.6463 22.1093L31.8545 27.3176L30.0341 29.1376L24.8343 23.9217L26.6463 22.1093ZM23.9329 24.8226L29.1332 30.0389L27.3169 31.8547L22.1091 26.6465L23.9329 24.8226ZM33.4261 37.9639L28.2182 32.7556L30.0328 30.9411L35.233 36.157L33.4261 37.9639ZM36.1339 35.2561L30.9337 30.0402L32.7554 28.2185L37.9633 33.4263L36.1339 35.2561Z" fill="#2C2C2C"/>
<path d="M9.86011 34.3977C9.86478 34.3977 9.86946 34.3977 9.87455 34.3977C10.2262 34.3968 10.5108 34.1105 10.5096 33.7588C10.5083 33.4076 10.2233 33.1234 9.87243 33.1234C9.86733 33.1234 9.86393 33.1234 9.86011 33.1234C8.98258 33.1234 8.15559 32.7828 7.53291 32.1648C6.9115 31.5438 6.56788 30.7198 6.5649 29.8452C6.56363 29.4939 6.27862 29.2102 5.92778 29.2102C5.92693 29.2102 5.9265 29.2102 5.92565 29.2102C5.57396 29.2115 5.28938 29.4978 5.29065 29.8495C5.2949 31.063 5.77105 32.2051 6.63371 33.0678C7.4985 33.9258 8.64405 34.3977 9.86011 34.3977Z" fill="#3BB30B"/>
<path d="M3.73698 29.2102C3.73656 29.2102 3.73613 29.2102 3.73571 29.2102C3.38359 29.2111 3.09901 29.4969 3.09986 29.8486C3.10368 31.6504 3.80791 33.3451 5.08471 34.6219C6.36236 35.8932 8.05371 36.5919 9.85083 36.5919C9.85975 36.5919 9.86909 36.5919 9.87801 36.5919C10.2297 36.5907 10.5139 36.304 10.5126 35.9523C10.5113 35.6001 10.2204 35.3143 9.87291 35.3177C8.41815 35.3258 7.02539 34.7553 5.98433 33.7198C4.94879 32.6842 4.37708 31.3085 4.3741 29.8461C4.37326 29.4944 4.08825 29.2102 3.73698 29.2102Z" fill="#3BB30B"/>
</svg>
