<svg width="24" height="22" viewBox="0 0 24 22" fill="none" xmlns="http://www.w3.org/2000/svg">
<path d="M13.7908 12.7903C13.7809 12.7605 13.7633 12.7339 13.7399 12.713C13.7164 12.6921 13.688 12.6777 13.6573 12.6712C9.03491 11.7218 7.74079 8.98915 7.45381 8.17333C6.5297 5.54899 7.81479 2.39762 9.50238 0.45193C9.52281 0.428054 9.53666 0.399259 9.54254 0.368392C9.54843 0.337524 9.54616 0.305655 9.53595 0.275937C9.52574 0.246218 9.50794 0.21968 9.48433 0.198948C9.46072 0.178216 9.4321 0.164008 9.40131 0.15773C8.05009 -0.11754 6.65015 -0.031401 5.34287 0.407448C4.03559 0.846298 2.86725 1.62232 1.95582 2.65715C1.04439 3.69198 0.422156 4.94898 0.151938 6.30122C-0.118281 7.65347 -0.0269115 9.05307 0.41682 10.3587C0.860551 11.6643 1.64093 12.8298 2.67916 13.7373C3.71739 14.6449 4.97671 15.2624 6.32995 15.5276C7.68319 15.7927 9.08245 15.6961 10.3864 15.2475C11.6904 14.7989 12.8529 14.0142 13.7566 12.9726C13.7782 12.9481 13.7929 12.9183 13.7989 12.8862C13.8049 12.8541 13.8022 12.8209 13.7908 12.7903ZM10.311 14.8894C9.23644 15.2659 8.09009 15.3921 6.95938 15.2583C5.82866 15.1245 4.74344 14.7342 3.78646 14.1173C2.82948 13.5003 2.02603 12.673 1.43736 11.6984C0.848702 10.7237 0.49038 9.62755 0.389725 8.4934C0.289069 7.35926 0.448738 6.2171 0.856555 5.15404C1.26437 4.09097 1.90957 3.13507 2.74294 2.35924C3.57631 1.58341 4.57584 1.00813 5.66532 0.677273C6.75479 0.346419 7.90544 0.268728 9.0295 0.450125C7.3762 2.4987 6.17955 5.63924 7.11269 8.29426C8.22451 11.4492 11.8054 12.6062 13.2783 12.9563C12.4582 13.829 11.4406 14.4919 10.311 14.8894V14.8894Z" fill="#1E3A9B"/>
<path d="M16.3374 21.9194C18.9893 22.4339 21.2849 20.4154 21.2849 17.8426C21.2849 16.4969 20.6121 15.2699 19.583 14.5179V5.45398C19.583 4.10825 18.5143 3 17.129 3C15.7833 3 14.675 4.10825 14.675 5.45398V14.5179C13.448 15.4282 12.7356 16.9719 13.0918 18.7134C13.4084 20.2966 14.7146 21.6028 16.3374 21.9194ZM15.1896 15.2699L15.5458 14.9928V5.49356C15.5458 4.62279 16.2582 3.94993 17.0894 3.94993C17.9602 3.94993 18.6726 4.66237 18.6726 5.49356V14.9928L19.0289 15.2699C19.86 15.8636 20.335 16.8531 20.335 17.8822C20.335 18.753 19.9788 19.5842 19.3851 20.1779C18.7518 20.7716 17.9602 21.1278 17.0894 21.1278C15.4666 21.1278 14.2001 19.98 13.923 18.5551C13.7251 17.2489 14.2001 15.9824 15.1896 15.2699Z" fill="#676767"/>
<path d="M17.129 20.178C17.7623 20.178 18.356 19.9405 18.7914 19.5051C19.2267 19.0697 19.4642 18.476 19.4642 17.8427C19.4642 16.2595 18.1185 15.745 17.7623 15.4283V8.73926H16.4561V15.4283C16.179 15.745 14.4375 16.3783 14.8333 18.3177C15.0312 19.3468 15.9416 20.178 17.129 20.178Z" fill="#C72F2F"/>
<path d="M22.8681 5.69141H20.6121V6.60175H22.8681C23.1056 6.60175 23.3035 6.40385 23.3035 6.16637C23.3431 5.88931 23.1452 5.69141 22.8681 5.69141Z" fill="#B5B5B5"/>
<path d="M22.4328 8.5411C22.4328 8.30361 22.2349 8.10571 21.9974 8.10571H20.6517V9.01606H21.9974C22.2349 8.97648 22.4328 8.77858 22.4328 8.5411Z" fill="#B5B5B5"/>
<path d="M23.3431 10.9161C23.3431 10.6786 23.1452 10.4807 22.9078 10.4807H20.6517V11.3911H22.9078C23.1452 11.3911 23.3431 11.1536 23.3431 10.9161Z" fill="#B5B5B5"/>
</svg>
