<svg width="28" height="28" viewBox="0 0 28 28" fill="none" xmlns="http://www.w3.org/2000/svg">
<path d="M11.3144 18.6962C11.3263 18.6672 11.3304 18.6356 11.3264 18.6044C11.3224 18.5733 11.3103 18.5438 11.2914 18.5187C8.41768 14.7758 9.22757 11.8627 9.5445 11.058C10.5633 8.46899 13.5974 6.92726 16.1467 6.56056C16.1778 6.55588 16.2071 6.54316 16.2317 6.52368C16.2564 6.50419 16.2755 6.47861 16.2873 6.44945C16.299 6.4203 16.3029 6.38859 16.2986 6.35746C16.2943 6.32633 16.282 6.29686 16.2628 6.27196C15.4213 5.17952 14.3064 4.32846 13.0308 3.80473C11.7552 3.28099 10.3639 3.10312 8.99752 3.28907C7.63114 3.47503 6.33801 4.01823 5.24872 4.86382C4.15943 5.70941 3.31255 6.82745 2.79358 8.10504C2.27461 9.38264 2.10194 10.7745 2.293 12.1402C2.48406 13.5059 3.03209 14.797 3.88174 15.8831C4.7314 16.9692 5.8526 17.8119 7.13212 18.3261C8.41165 18.8403 9.80419 19.0078 11.1691 18.8116C11.2015 18.8073 11.2321 18.7943 11.2577 18.774C11.2833 18.7537 11.3029 18.7268 11.3144 18.6962ZM7.30947 18.006C6.25059 17.5874 5.30127 16.9326 4.5339 16.0914C3.76654 15.2502 3.2014 14.2449 2.88158 13.1522C2.56176 12.0594 2.49572 10.908 2.68847 9.78586C2.88123 8.66369 3.3277 7.60036 3.99384 6.67695C4.65998 5.75354 5.52819 4.99445 6.53227 4.45756C7.53634 3.92067 8.64977 3.62016 9.78763 3.57895C10.9255 3.53774 12.0577 3.75692 13.098 4.21976C14.1383 4.68261 15.0592 5.37691 15.7903 6.24971C13.1996 6.71664 10.2395 8.30806 9.20743 10.9262C7.9833 14.0394 9.9337 17.2577 10.8181 18.4863C9.62699 18.6094 8.42369 18.4447 7.30947 18.006V18.006Z" fill="#1E3A9B"/>
<path d="M13.6347 27.9364C15.7283 28.3426 17.5407 26.749 17.5407 24.7179C17.5407 23.6554 17.0095 22.6868 16.197 22.0931V14.9374C16.197 13.8749 15.3533 13 14.2597 13C13.1973 13 12.3223 13.8749 12.3223 14.9374V22.0931C11.3536 22.8118 10.7912 24.0304 11.0724 25.4053C11.3224 26.6552 12.3536 27.6864 13.6347 27.9364ZM12.7285 22.6868L13.0098 22.468V14.9686C13.0098 14.2812 13.5722 13.7499 14.2284 13.7499C14.9159 13.7499 15.4783 14.3124 15.4783 14.9686V22.468L15.7596 22.6868C16.4158 23.1555 16.7907 23.9367 16.7907 24.7491C16.7907 25.4366 16.5095 26.0928 16.0408 26.5615C15.5408 27.0302 14.9159 27.3114 14.2284 27.3114C12.9473 27.3114 11.9473 26.4052 11.7286 25.2803C11.5724 24.2492 11.9473 23.2492 12.7285 22.6868Z" fill="#676767"/>
<path d="M14.2596 26.5616C14.7596 26.5616 15.2283 26.3741 15.572 26.0304C15.9158 25.6866 16.1033 25.2179 16.1033 24.718C16.1033 23.4681 15.0408 23.0618 14.7596 22.8119V17.531H13.7284V22.8119C13.5097 23.0618 12.1348 23.5618 12.4473 25.0929C12.6035 25.9054 13.3222 26.5616 14.2596 26.5616Z" fill="#C72F2F"/>
<path d="M18.7906 15.1248H17.0095V15.8435H18.7906C18.9781 15.8435 19.1343 15.6872 19.1343 15.4997C19.1655 15.281 19.0093 15.1248 18.7906 15.1248Z" fill="#B5B5B5"/>
<path d="M18.4469 17.3745C18.4469 17.187 18.2906 17.0308 18.1031 17.0308H17.0407V17.7495H18.1031C18.2906 17.7182 18.4469 17.562 18.4469 17.3745Z" fill="#B5B5B5"/>
<path d="M19.1655 19.2495C19.1655 19.062 19.0093 18.9058 18.8218 18.9058H17.0407V19.6245H18.8218C19.0093 19.6245 19.1655 19.437 19.1655 19.2495Z" fill="#B5B5B5"/>
<path fill-rule="evenodd" clip-rule="evenodd" d="M21.1554 9.3418L22.6064 11.9018C23.3204 13.1353 24.3108 14.392 24.3108 15.8117C24.3108 17.5572 22.8828 19.0001 21.1554 19.0001C19.405 19.0001 18 17.5572 18 15.8117C18 14.392 18.9904 13.1353 19.6814 11.9018L21.1554 9.3418ZM22.7446 16.2306C22.7907 16.0677 22.9519 15.9746 23.1131 16.0212C23.2744 16.0677 23.3665 16.2306 23.3435 16.3935C23.1131 17.2546 22.3761 17.9295 21.5009 18.0692C21.3397 18.0925 21.1784 17.9761 21.1554 17.8132C21.1324 17.6503 21.2475 17.4874 21.4088 17.4641C22.0537 17.371 22.5834 16.8823 22.7446 16.2306Z" fill="#3978C2"/>
<path fill-rule="evenodd" clip-rule="evenodd" d="M24.4971 6L25.9482 8.56003C26.6622 9.7935 27.6526 11.0502 27.6526 12.4699C27.6526 14.2154 26.2246 15.6583 24.4971 15.6583C22.7467 15.6583 21.3417 14.2154 21.3417 12.4699C21.3417 11.0502 22.3321 9.7935 23.0231 8.56003L24.4971 6ZM26.0864 12.8888C26.1324 12.7259 26.2937 12.6328 26.4549 12.6794C26.6161 12.7259 26.7082 12.8888 26.6852 13.0517C26.4549 13.9128 25.7179 14.5877 24.8426 14.7274C24.6814 14.7507 24.5202 14.6343 24.4971 14.4714C24.4741 14.3085 24.5893 14.1456 24.7505 14.1223C25.3954 14.0292 25.9251 13.5405 26.0864 12.8888Z" fill="#3978C2" fill-opacity="0.6"/>
</svg>
