<svg width="40" height="37" viewBox="0 0 40 37" fill="none" xmlns="http://www.w3.org/2000/svg">
<g clip-path="url(#clip0)">
<path fill-rule="evenodd" clip-rule="evenodd" d="M36.1494 30.0404H32.9449V19.7389C32.9449 2.838 7.30816 2.838 7.30816 19.7389V30.0404H4.15698C2.34105 30.0404 0.952393 31.4891 0.952393 33.2597V35.1912C0.952393 35.8887 1.48649 36.4789 2.23423 36.4789H38.0722C38.7665 36.4789 39.354 35.8887 39.354 35.1912V33.2597C39.354 31.4891 37.912 30.0404 36.1494 30.0404ZM8.58999 19.7389C8.58999 4.50127 31.663 4.50127 31.663 19.7389V30.0404H8.58999V19.7389ZM38.0722 35.1912H2.23423V33.2597C2.23423 32.1866 3.08878 31.3281 4.15698 31.3281H36.1494C37.2176 31.3281 38.0722 32.1866 38.0722 33.2597V35.1912Z" fill="#3BB30B"/>
<path fill-rule="evenodd" clip-rule="evenodd" d="M15.3196 11.4226C13.023 12.764 11.3139 15.0174 10.7798 17.7001L12.0082 17.9684C12.4889 15.6613 13.931 13.6761 15.9605 12.4957L15.3196 11.4226Z" fill="#626262"/>
<path fill-rule="evenodd" clip-rule="evenodd" d="M18.097 10.3496C17.6163 10.4033 17.1356 10.5642 16.7083 10.7252L17.189 11.9592C17.5629 11.7983 17.9367 11.691 18.364 11.5836L18.097 10.3496Z" fill="#626262"/>
<path fill-rule="evenodd" clip-rule="evenodd" d="M9.23091 0.477295C4.63767 0.477295 0.952393 4.1794 0.952393 8.79362C0.952393 9.65208 2.23423 9.65208 2.23423 8.79362C2.23423 4.93056 5.38541 1.76498 9.23091 1.76498C10.0855 1.76498 10.0855 0.477295 9.23091 0.477295Z" fill="#626262"/>
<path fill-rule="evenodd" clip-rule="evenodd" d="M9.23091 3.69653C6.40019 3.69653 4.15698 5.94999 4.15698 8.79364C4.15698 9.6521 5.43882 9.6521 5.43882 8.79364C5.43882 6.70114 7.14793 4.98422 9.23091 4.93057C10.0855 4.93057 10.0855 3.69653 9.23091 3.69653Z" fill="#626262"/>
<path fill-rule="evenodd" clip-rule="evenodd" d="M31.0221 0.477295C30.1675 0.477295 30.1675 1.76498 31.0221 1.76498C34.921 1.76498 38.0722 4.93056 38.0722 8.79362C38.0722 9.65208 39.354 9.65208 39.354 8.79362C39.354 4.1794 35.6153 0.477295 31.0221 0.477295Z" fill="#626262"/>
<path fill-rule="evenodd" clip-rule="evenodd" d="M31.0221 3.69653C30.1675 3.69653 30.1675 4.93057 31.0221 4.93057C33.1585 4.98422 34.8676 6.70114 34.8676 8.79364C34.8676 9.6521 36.1494 9.6521 36.1494 8.79364C36.1494 5.94999 33.8528 3.69653 31.0221 3.69653Z" fill="#626262"/>
</g>
<defs>
<clipPath id="clip0">
<rect width="40" height="36.7568" fill="white"/>
</clipPath>
</defs>
</svg>
