<svg width="20" height="14" viewBox="0 0 20 14" fill="none" xmlns="http://www.w3.org/2000/svg">
<path d="M15.46 5.43988C15.18 3.77988 13.76 2.53988 12.02 2.53988C11.74 2.53988 11.46 2.57988 11.18 2.63988C10.32 1.53988 8.98 0.879883 7.58 0.879883C5.04 0.879883 3 2.93988 3 5.45988C3 5.51988 3 5.57988 3 5.65988C1.5 6.23988 0.5 7.65988 0.5 9.27988C0.5 11.3999 2.22 13.0999 4.32 13.0999H15.66C17.78 13.0999 19.48 11.3799 19.48 9.27988C19.5 7.07988 17.66 5.31988 15.46 5.43988ZM15.68 12.1999H4.32C2.72 12.1999 1.4 10.8799 1.4 9.27988C1.4 7.95988 2.3 6.79988 3.58 6.45988C3.8 6.39988 3.94 6.19988 3.92 5.95988C3.9 5.77988 3.88 5.63988 3.88 5.49988C3.88 3.45988 5.54 1.81988 7.56 1.81988C8.78 1.81988 9.92 2.41988 10.62 3.43988C10.74 3.61988 10.96 3.67988 11.14 3.61988C11.42 3.51988 11.72 3.45988 12 3.45988C13.4 3.45988 14.54 4.55988 14.58 5.97988C14.58 6.11988 14.64 6.23988 14.74 6.31988C14.84 6.39988 14.98 6.43988 15.1 6.41988C16.98 6.05988 18.6 7.47988 18.6 9.27988C18.6 10.8799 17.28 12.1999 15.68 12.1999Z" fill="#3BB30B"/>
<path d="M11.56 6.27994L9.37996 8.63994L8.43996 7.63994C8.27996 7.45994 7.97996 7.43994 7.79996 7.61994C7.61996 7.77994 7.59996 8.07994 7.77996 8.25994L9.03996 9.61994C9.11996 9.71994 9.23996 9.75994 9.37996 9.75994C9.51996 9.75994 9.61996 9.69994 9.71996 9.61994L12.24 6.89994C12.4 6.71994 12.4 6.43994 12.22 6.25994C12.02 6.07994 11.72 6.09994 11.56 6.27994Z" fill="#3BB30B"/>
</svg>
