<svg width="40" height="40" viewBox="0 0 40 40" fill="none" xmlns="http://www.w3.org/2000/svg">
<g clip-path="url(#clip0)">
<g opacity="0.5">
<path d="M2.28463 5L0 7.28463V34.3065H39.5V5H2.28463ZM1.27419 13.9194H2.54839V25.3871H1.27419V13.9194ZM1.27419 33.0323V26.6613H3.82258V12.6452H1.27419V7.81214L2.81215 6.27419H38.2258V12.8885L35.6774 14.1627V25.1437L38.2258 26.4179V33.0323H1.27419ZM38.2258 14.3131V24.9934L36.9516 24.3563V14.9502L38.2258 14.3131Z" fill="#5F5F5F"/>
<path d="M3.82253 7.54834H2.54834V8.82253H3.82253V7.54834Z" fill="#5F5F5F"/>
<path d="M36.9517 7.54834H35.6775V8.82253H36.9517V7.54834Z" fill="#5F5F5F"/>
<path d="M3.82253 30.4841H2.54834V31.7583H3.82253V30.4841Z" fill="#5F5F5F"/>
<path d="M36.9517 30.4841H35.6775V31.7583H36.9517V30.4841Z" fill="#5F5F5F"/>
<path d="M6.371 7.54834H5.0968V31.758H6.371V7.54834Z" fill="#3BB30B"/>
<path d="M8.91934 7.54834H7.64514V31.758H8.91934V7.54834Z" fill="#3BB30B"/>
<path d="M17.8386 7.54834H11.4677V8.82253H10.1935V10.0967H11.4677V11.3709H10.1935V12.6451H11.4677V13.9193H10.1935V15.1935H11.4677V16.4677H10.1935V17.7419H11.4677V19.0161H17.8386V17.7419H19.1128V16.4677H17.8386V15.1935H19.1128V13.9193H17.8386V12.6451H19.1128V11.3709H17.8386V10.0967H19.1128V8.82253H17.8386V7.54834ZM16.5644 17.7419H12.7419V8.82253H16.5644V17.7419Z" fill="#5F5F5F"/>
<path d="M15.2904 10.0967H14.0162V16.4676H15.2904V10.0967Z" fill="#5F5F5F"/>
<path d="M17.8386 20.2903H11.4677V21.5645H10.1935V22.8387H11.4677V24.1129H10.1935V25.3871H11.4677V26.6613H10.1935V27.9354H11.4677V29.2096H10.1935V30.4838H11.4677V31.758H17.8386V30.4838H19.1128V29.2096H17.8386V27.9354H19.1128V26.6613H17.8386V25.3871H19.1128V24.1129H17.8386V22.8387H19.1128V21.5645H17.8386V20.2903ZM16.5644 30.4838H12.7419V21.5645H16.5644V30.4838Z" fill="#5F5F5F"/>
<path d="M15.2904 22.8386H14.0162V29.2096H15.2904V22.8386Z" fill="#5F5F5F"/>
<path d="M33.1291 7.54834H31.8549V8.82253H30.5808V7.54834H29.3066V8.82253H28.0324V7.54834H26.7582V8.82253H25.484V7.54834H24.2098V8.82253H22.9356V7.54834H21.6614V8.82253H20.3872V13.9193H21.6614V15.1935H22.9356V13.9193H24.2098V15.1935H25.484V13.9193H26.7582V15.1935H28.0324V13.9193H29.3066V15.1935H30.5808V13.9193H31.8549V15.1935H33.1291V13.9193H34.4033V8.82253H33.1291V7.54834ZM33.1291 12.6451H21.6614V10.0967H33.1291V12.6451Z" fill="#3BB30B"/>
<path d="M33.1291 16.4675H31.8549V17.7417H30.5808V16.4675H29.3066V17.7417H28.0324V16.4675H26.7582V17.7417H25.484V16.4675H24.2098V17.7417H22.9356V16.4675H21.6614V17.7417H20.3872V22.8385H21.6614V24.1127H22.9356V22.8385H24.2098V24.1127H25.484V22.8385H26.7582V24.1127H28.0324V22.8385H29.3066V24.1127H30.5808V22.8385H31.8549V24.1127H33.1291V22.8385H34.4033V17.7417H33.1291V16.4675ZM33.1291 21.5643H21.6614V19.0159H33.1291V21.5643Z" fill="#3BB30B"/>
<path d="M23.5727 25.387C21.8162 25.387 20.3872 26.816 20.3872 28.5724C20.3872 30.3289 21.8162 31.7579 23.5727 31.7579C25.3292 31.7579 26.7582 30.3289 26.7582 28.5724C26.7582 26.816 25.3292 25.387 23.5727 25.387ZM23.5727 30.4837C22.5189 30.4837 21.6614 29.6262 21.6614 28.5724C21.6614 27.5187 22.5189 26.6612 23.5727 26.6612C24.6264 26.6612 25.484 27.5187 25.484 28.5724C25.484 29.6262 24.6264 30.4837 23.5727 30.4837Z" fill="#5F5F5F"/>
<path d="M24.2097 27.9353H22.9355V29.2095H24.2097V27.9353Z" fill="#5F5F5F"/>
<path d="M31.2178 25.387C29.4614 25.387 28.0323 26.816 28.0323 28.5724C28.0323 30.3289 29.4614 31.7579 31.2178 31.7579C32.9743 31.7579 34.4033 30.3289 34.4033 28.5724C34.4033 26.816 32.9743 25.387 31.2178 25.387ZM31.2178 30.4837C30.1641 30.4837 29.3065 29.6262 29.3065 28.5724C29.3065 27.5187 30.1641 26.6612 31.2178 26.6612C32.2716 26.6612 33.1291 27.5187 33.1291 28.5724C33.1291 29.6262 32.2716 30.4837 31.2178 30.4837Z" fill="#5F5F5F"/>
<path d="M31.8549 27.9353H30.5807V29.2095H31.8549V27.9353Z" fill="#5F5F5F"/>
</g>
<g filter="url(#filter0_d)">
<path fill-rule="evenodd" clip-rule="evenodd" d="M2.5 20C2.5 10.592 10.092 3 19.5 3C28.908 3 36.5 10.592 36.5 20C36.5 24.3123 34.735 28.4447 32.0064 31.5581H34.3118C35.4615 31.5581 36.3935 32.49 36.3935 33.6397C36.3935 34.7893 35.4615 35.7213 34.3118 35.7213H26.3731C25.2235 35.7213 24.2915 34.7893 24.2915 33.6397V25.701C24.2915 24.5513 25.2235 23.6193 26.3731 23.6193C27.5228 23.6193 28.4547 24.5513 28.4547 25.701V29.2748C30.7986 26.8281 32.3367 23.4405 32.3367 20C32.3367 12.8913 26.6087 7.16327 19.5 7.16327C12.3913 7.16327 6.66327 12.8913 6.66327 20C6.66327 26.4244 11.3418 31.7404 17.478 32.702L17.5031 32.7059L17.5281 32.7105C17.9933 32.7951 18.4548 32.8367 18.9139 32.8367C20.0636 32.8367 20.9956 33.7687 20.9956 34.9184C20.9956 36.068 20.0636 37 18.9139 37C18.2094 37 17.5072 36.9367 16.8086 36.8112C8.67798 35.5247 2.5 28.4854 2.5 20Z" fill="#3BB30B"/>
<path fill-rule="evenodd" clip-rule="evenodd" d="M2.5 20C2.5 10.592 10.092 3 19.5 3C28.908 3 36.5 10.592 36.5 20C36.5 24.3123 34.735 28.4447 32.0064 31.5581H34.3118C35.4615 31.5581 36.3935 32.49 36.3935 33.6397C36.3935 34.7893 35.4615 35.7213 34.3118 35.7213H26.3731C25.2235 35.7213 24.2915 34.7893 24.2915 33.6397V25.701C24.2915 24.5513 25.2235 23.6193 26.3731 23.6193C27.5228 23.6193 28.4547 24.5513 28.4547 25.701V29.2748C30.7986 26.8281 32.3367 23.4405 32.3367 20C32.3367 12.8913 26.6087 7.16327 19.5 7.16327C12.3913 7.16327 6.66327 12.8913 6.66327 20C6.66327 26.4244 11.3418 31.7404 17.478 32.702L17.5031 32.7059L17.5281 32.7105C17.9933 32.7951 18.4548 32.8367 18.9139 32.8367C20.0636 32.8367 20.9956 33.7687 20.9956 34.9184C20.9956 36.068 20.0636 37 18.9139 37C18.2094 37 17.5072 36.9367 16.8086 36.8112C8.67798 35.5247 2.5 28.4854 2.5 20Z" stroke="white" stroke-width="0.5" stroke-miterlimit="10" stroke-linecap="round"/>
</g>
</g>
<defs>
<filter id="filter0_d" x="-1.75" y="-1.25" width="42.5" height="42.5" filterUnits="userSpaceOnUse" color-interpolation-filters="sRGB">
<feFlood flood-opacity="0" result="BackgroundImageFix"/>
<feColorMatrix in="SourceAlpha" type="matrix" values="0 0 0 0 0 0 0 0 0 0 0 0 0 0 0 0 0 0 127 0"/>
<feOffset/>
<feGaussianBlur stdDeviation="2"/>
<feColorMatrix type="matrix" values="0 0 0 0 0 0 0 0 0 0 0 0 0 0 0 0 0 0 0.25 0"/>
<feBlend mode="normal" in2="BackgroundImageFix" result="effect1_dropShadow"/>
<feBlend mode="normal" in="SourceGraphic" in2="effect1_dropShadow" result="shape"/>
</filter>
<clipPath id="clip0">
<rect width="39.5" height="39.5" fill="white"/>
</clipPath>
</defs>
</svg>
