<svg width="40" height="40" viewBox="0 0 40 40" fill="none" xmlns="http://www.w3.org/2000/svg">
<g clip-path="url(#clip0)">
<path d="M19.7543 4C12.7446 4.00767 5.95579 6.53335 0.541772 11.1463C0.211032 11.4096 0 11.8199 0 12.2801C0 13.0687 0.617053 13.7065 1.37726 13.7065C1.72898 13.7065 2.04861 13.5697 2.29173 13.3473L2.2905 13.3486C7.21088 9.15618 13.3826 6.86185 19.7543 6.8529C26.1272 6.86057 32.3002 9.15362 37.2231 13.3461C37.4625 13.5608 37.7784 13.6924 38.1227 13.6924C38.8842 13.6924 39.5 13.0546 39.5 12.266C39.5 11.811 39.2939 11.4058 38.9743 11.145L38.9718 11.1425C33.5578 6.53208 26.7665 4.00767 19.7568 4C19.7556 4 19.7556 4 19.7556 4H19.7543V4ZM19.7556 12.5587C14.7513 12.5587 9.89629 14.3277 5.99035 17.5666C5.67195 17.8299 5.46955 18.2325 5.46955 18.6837C5.46955 19.4724 6.08661 20.1102 6.84681 20.1102C7.17632 20.1102 7.47868 19.99 7.71562 19.7919L7.71316 19.7945C11.1304 16.9607 15.3769 15.4129 19.7543 15.4116C24.1317 15.4193 28.3758 16.9671 31.7905 19.8034C32.0275 20.0079 32.3348 20.1332 32.6705 20.1332C33.4319 20.1332 34.0477 19.4954 34.0477 18.7067C34.0477 18.2492 33.8404 17.8427 33.5171 17.5819L33.5146 17.5794C29.6123 14.3379 24.7611 12.5676 19.7593 12.5587C19.758 12.5587 19.758 12.5587 19.758 12.5587H19.7568H19.7556ZM19.7518 21.1174C16.7665 21.1251 13.8615 22.1335 11.4759 23.9984C11.144 24.2617 10.9329 24.672 10.9329 25.1334C10.9329 25.9221 11.55 26.5599 12.3102 26.5599C12.6212 26.5599 12.9087 26.4525 13.1395 26.2723L13.1358 26.2748C15.0413 24.7845 17.3651 23.9767 19.7556 23.9703C22.1448 23.978 24.4674 24.7858 26.3741 26.2774C26.6073 26.4704 26.906 26.5867 27.2305 26.5867C27.992 26.5867 28.6078 25.9489 28.6078 25.1603C28.6078 24.6848 28.3832 24.2643 28.0376 24.0048L28.0339 24.0022C25.6509 22.1374 22.7458 21.1251 19.758 21.1187C19.7568 21.1187 19.7556 21.1187 19.7543 21.1187C19.7531 21.1187 19.7519 21.1187 19.7506 21.1187L19.7518 21.1174ZM19.7556 29.6761C18.2512 29.6761 17.001 30.9709 17.001 32.529C17.001 34.0871 18.2512 35.3819 19.7556 35.3819C21.2599 35.3819 22.5101 34.0871 22.5101 32.529C22.5101 30.9709 21.2599 29.6761 19.7556 29.6761Z" fill="#383ED5"/>
</g>
<defs>
<clipPath id="clip0">
<rect width="39.5" height="39.5" fill="white"/>
</clipPath>
</defs>
</svg>
