<svg width="26" height="26" viewBox="0 0 26 26" fill="none" xmlns="http://www.w3.org/2000/svg">
<path d="M10 13.9375C12.1746 13.9375 13.9375 12.1746 13.9375 10C13.9375 7.82538 12.1746 6.0625 10 6.0625C7.82538 6.0625 6.0625 7.82538 6.0625 10C6.0625 12.1746 7.82538 13.9375 10 13.9375Z" stroke="#C4B429" stroke-width="0.8"/>
<path d="M10 3.8125V1" stroke="#C4B429" stroke-width="0.8" stroke-linecap="round"/>
<path d="M10 19V16.1875" stroke="#C4B429" stroke-width="0.8" stroke-linecap="round"/>
<path d="M16.1875 10H19" stroke="#C4B429" stroke-width="0.8" stroke-linecap="round"/>
<path d="M1 10H3.8125" stroke="#C4B429" stroke-width="0.8" stroke-linecap="round"/>
<path d="M14.3752 5.62472L16.364 3.63599" stroke="#C4B429" stroke-width="0.8" stroke-linecap="round"/>
<path d="M3.63602 16.364L5.62476 14.3752" stroke="#C4B429" stroke-width="0.8" stroke-linecap="round"/>
<path d="M14.3752 14.3753L16.364 16.364" stroke="#C4B429" stroke-width="0.8" stroke-linecap="round"/>
<path d="M3.63602 3.63602L5.62476 5.62476" stroke="#C4B429" stroke-width="0.8" stroke-linecap="round"/>
<path d="M18.3374 25.9194C20.9893 26.4339 23.2849 24.4154 23.2849 21.8426C23.2849 20.4969 22.6121 19.2699 21.583 18.5179V9.45398C21.583 8.10825 20.5143 7 19.129 7C17.7833 7 16.675 8.10825 16.675 9.45398V18.5179C15.448 19.4282 14.7356 20.9719 15.0918 22.7134C15.4084 24.2966 16.7146 25.6028 18.3374 25.9194ZM17.1896 19.2699L17.5458 18.9928V9.49356C17.5458 8.62279 18.2582 7.94993 19.0894 7.94993C19.9602 7.94993 20.6726 8.66237 20.6726 9.49356V18.9928L21.0289 19.2699C21.86 19.8636 22.335 20.8531 22.335 21.8822C22.335 22.753 21.9788 23.5842 21.3851 24.1779C20.7518 24.7716 19.9602 25.1278 19.0894 25.1278C17.4666 25.1278 16.2001 23.98 15.923 22.5551C15.7251 21.2489 16.2001 19.9824 17.1896 19.2699Z" fill="#676767"/>
<path d="M19.129 24.178C19.7623 24.178 20.356 23.9405 20.7914 23.5051C21.2267 23.0697 21.4642 22.476 21.4642 21.8427C21.4642 20.2595 20.1185 19.745 19.7623 19.4283V12.7393H18.4561V19.4283C18.179 19.745 16.4375 20.3783 16.8333 22.3177C17.0312 23.3468 17.9416 24.178 19.129 24.178Z" fill="#C72F2F"/>
<path d="M24.8681 9.69141H22.6121V10.6018H24.8681C25.1056 10.6018 25.3035 10.4039 25.3035 10.1664C25.3431 9.88931 25.1452 9.69141 24.8681 9.69141Z" fill="#B5B5B5"/>
<path d="M24.4328 12.5411C24.4328 12.3036 24.2349 12.1057 23.9974 12.1057H22.6517V13.0161H23.9974C24.2349 12.9765 24.4328 12.7786 24.4328 12.5411Z" fill="#B5B5B5"/>
<path d="M25.3431 14.9161C25.3431 14.6786 25.1452 14.4807 24.9078 14.4807H22.6517V15.3911H24.9078C25.1452 15.3911 25.3431 15.1536 25.3431 14.9161Z" fill="#B5B5B5"/>
</svg>
