<svg width="40" height="40" viewBox="0 0 40 40" fill="none" xmlns="http://www.w3.org/2000/svg">
<g clip-path="url(#clip0)">
<path d="M19.6639 4.0091L5.55226 7.18593C5.44351 7.21114 5.34661 7.27954 5.27951 7.37846L0.0971185 14.9836C0.0520009 15.0482 0.0213989 15.1241 0.00787322 15.2047C-0.00565244 15.2853 -0.00170826 15.3683 0.0193757 15.4469C0.0404597 15.5254 0.0780701 15.5972 0.12906 15.6561C0.180049 15.7151 0.242935 15.7596 0.312453 15.7858L5.04982 17.4865V30.1938C5.05101 30.3008 5.0821 30.4047 5.13872 30.491C5.19535 30.5773 5.27468 30.6417 5.36564 30.6751L19.6064 35.8094C19.6997 35.8437 19.8003 35.8437 19.8936 35.8094L34.1344 30.6751C34.2253 30.6417 34.3046 30.5773 34.3613 30.491C34.4179 30.4047 34.449 30.3008 34.4502 30.1938V17.4865L39.1875 15.7858C39.2571 15.7596 39.3199 15.7151 39.3709 15.6561C39.4219 15.5972 39.4595 15.5254 39.4806 15.4469C39.5017 15.3683 39.5056 15.2853 39.4921 15.2047C39.4786 15.1241 39.448 15.0482 39.4029 14.9836L34.2205 7.37846C34.1534 7.27954 34.0565 7.21114 33.9477 7.18593L19.8361 4.0091C19.7792 3.99697 19.7208 3.99697 19.6639 4.0091V4.0091ZM19.75 5.03596L32.3399 7.87584L19.75 11.165L7.1601 7.87584L19.75 5.03596ZM5.6384 8.53367L19.2619 12.1116L14.5102 19.829L1.21686 15.0317L5.6384 8.53367ZM33.8616 8.53367L38.2831 15.0317L24.9898 19.829L20.2381 12.1116L33.8616 8.53367ZM19.2906 13.8765V34.6221L5.96858 29.8087V17.8235L14.5533 20.9201C14.6465 20.9538 14.747 20.9533 14.8399 20.9186C14.9329 20.884 15.0136 20.817 15.0701 20.7275L19.2906 13.8765ZM20.2094 13.8765L24.4299 20.7275C24.4864 20.817 24.5671 20.884 24.6601 20.9186C24.753 20.9533 24.8535 20.9538 24.9467 20.9201L33.5314 17.8235V29.8087L20.2094 34.6221V13.8765Z" fill="#5F5DC1"/>
</g>
<defs>
<clipPath id="clip0">
<rect width="39.5" height="39.5" fill="white"/>
</clipPath>
</defs>
</svg>
