<svg width="37" height="31" viewBox="0 0 37 31" fill="none" xmlns="http://www.w3.org/2000/svg">
<path d="M18.4999 0.312012C17.6676 0.312012 16.8589 0.693658 16.3793 1.42676C16.3687 1.44299 0.480665 27.2763 0.389297 27.4703C0.244086 27.7785 0.169922 28.1172 0.169922 28.4748C0.169922 29.8131 1.29754 30.888 2.6318 30.888H34.368C35.7023 30.888 36.8299 29.8131 36.8299 28.4748C36.8299 28.1172 36.7558 27.7785 36.6105 27.4703C36.5192 27.2763 20.6312 1.44299 20.6206 1.42676C20.141 0.693658 19.3322 0.312012 18.4999 0.312012ZM18.4999 1.88001C18.8448 1.88001 19.2031 2.08287 19.3409 2.30876C19.3409 2.30876 35.2551 28.2677 35.1968 28.144C35.2445 28.2453 35.2699 28.3532 35.2699 28.4748C35.2699 28.9307 34.8926 29.32 34.368 29.32H2.6318C2.1072 29.32 1.72992 28.9307 1.72992 28.4748C1.72992 28.3532 1.75534 28.2453 1.80305 28.144C1.74477 28.2677 17.659 2.30876 17.659 2.30876C17.7968 2.08287 18.1551 1.88001 18.4999 1.88001Z" fill="#626262"/>
<path d="M18 9.784C18 9.34966 18.3479 9 18.78 9C19.2121 9 19.56 9.34966 19.56 9.784V20.76C19.56 21.1943 19.2121 21.544 18.78 21.544C18.3479 21.544 18 21.1943 18 20.76V9.784Z" fill="#FF0000"/>
<path d="M18 24.68C18 24.2457 18.3479 23.896 18.78 23.896C19.2121 23.896 19.56 24.2457 19.56 24.68V25.464C19.56 25.8983 19.2121 26.248 18.78 26.248C18.3479 26.248 18 25.8983 18 25.464V24.68Z" fill="#FF0000"/>
</svg>
