<svg width="29" height="29" viewBox="0 0 29 29" fill="none" xmlns="http://www.w3.org/2000/svg">
<path d="M14.5 29C22.5081 29 29 22.5081 29 14.5C29 6.49187 22.5081 0 14.5 0C6.49187 0 0 6.49187 0 14.5C0 22.5081 6.49187 29 14.5 29Z" fill="white"/>
<mask id="mask0" mask-type="alpha" maskUnits="userSpaceOnUse" x="0" y="0" width="29" height="29">
<path d="M14.5 29C22.5081 29 29 22.5081 29 14.5C29 6.49187 22.5081 0 14.5 0C6.49187 0 0 6.49187 0 14.5C0 22.5081 6.49187 29 14.5 29Z" fill="white"/>
</mask>
<g mask="url(#mask0)">
<path d="M21.0006 8.50003C21.0006 4.48303 17.3576 1.31803 13.1946 2.12703C10.6136 2.62903 8.5556 4.73903 8.1026 7.32903C7.6176 10.103 8.8966 12.622 10.9976 13.97V23.508C10.9976 23.641 11.0506 23.768 11.1436 23.861L14.1436 26.861C14.3386 27.056 14.6556 27.056 14.8506 26.861L17.6436 24.068C17.8386 23.873 17.8386 23.556 17.6436 23.361L15.1876 20.904C14.9926 20.709 14.9926 20.392 15.1876 20.197L17.6446 17.74C17.8396 17.545 17.8396 17.228 17.6446 17.033L16.1576 15.545C15.8906 15.278 16.0076 14.827 16.3696 14.719C19.0476 13.917 21.0006 11.439 21.0006 8.50003ZM14.5006 8.00003C13.3956 8.00003 12.5006 7.10503 12.5006 6.00003C12.5006 4.89503 13.3956 4.00003 14.5006 4.00003C15.6056 4.00003 16.5006 4.89503 16.5006 6.00003C16.5006 7.10503 15.6056 8.00003 14.5006 8.00003Z" fill="#AAAAAA"/>
</g>
</svg>
