<svg width="29" height="29" viewBox="0 0 29 29" fill="none" xmlns="http://www.w3.org/2000/svg">
<path d="M14.5 29C22.5081 29 29 22.5081 29 14.5C29 6.49187 22.5081 0 14.5 0C6.49187 0 0 6.49187 0 14.5C0 22.5081 6.49187 29 14.5 29Z" fill="white"/>
<mask id="mask0" mask-type="alpha" maskUnits="userSpaceOnUse" x="0" y="0" width="29" height="29">
<path d="M14.5 29C22.5081 29 29 22.5081 29 14.5C29 6.49187 22.5081 0 14.5 0C6.49187 0 0 6.49187 0 14.5C0 22.5081 6.49187 29 14.5 29Z" fill="white"/>
</mask>
<g mask="url(#mask0)">
<path d="M7 14.4954V15.7505V24.4999H21.9976V14.4954H7ZM9.50113 16.9965H19.4964V21.9988H9.50113V16.9965Z" fill="#66A875"/>
<path d="M14.4018 4.5C11.4845 4.5 9.68463 6.14486 8.9104 7.69333C8.13617 9.24179 8.1536 10.7482 8.1536 10.7482V15.7505H10.6547V10.7482C10.6547 10.7482 10.6679 9.76212 11.1439 8.81007C11.6199 7.85801 12.318 7.00113 14.4018 7.00113C16.4856 7.00113 17.1837 7.85801 17.6597 8.81007C18.1358 9.76212 18.1581 10.7482 18.1581 10.7482V15.7505H20.6593V10.7482C20.6593 10.7482 20.6767 9.24179 19.9025 7.69333C19.1282 6.14486 17.3191 4.5 14.4018 4.5Z" fill="#66A875"/>
</g>
</svg>
