<svg width="25" height="22" viewBox="0 0 25 22" fill="none" xmlns="http://www.w3.org/2000/svg">
<path d="M13.7908 12.7903C13.7809 12.7605 13.7633 12.7339 13.7399 12.713C13.7164 12.6921 13.688 12.6777 13.6573 12.6712C9.03491 11.7218 7.74079 8.98915 7.45381 8.17333C6.5297 5.54899 7.81479 2.39762 9.50238 0.45193C9.52281 0.428054 9.53666 0.399259 9.54254 0.368392C9.54843 0.337524 9.54616 0.305655 9.53595 0.275937C9.52574 0.246218 9.50794 0.21968 9.48433 0.198948C9.46072 0.178216 9.4321 0.164008 9.40131 0.15773C8.05009 -0.11754 6.65015 -0.031401 5.34287 0.407448C4.03559 0.846298 2.86725 1.62232 1.95582 2.65715C1.04439 3.69198 0.422156 4.94898 0.151938 6.30122C-0.118281 7.65347 -0.0269115 9.05307 0.41682 10.3587C0.860551 11.6643 1.64093 12.8298 2.67916 13.7373C3.71739 14.6449 4.97671 15.2624 6.32995 15.5276C7.68319 15.7927 9.08245 15.6961 10.3864 15.2475C11.6904 14.7989 12.8529 14.0142 13.7566 12.9726C13.7782 12.9481 13.7929 12.9183 13.7989 12.8862C13.8049 12.8541 13.8022 12.8209 13.7908 12.7903ZM10.311 14.8894C9.23644 15.2659 8.09009 15.3921 6.95938 15.2583C5.82866 15.1245 4.74344 14.7342 3.78646 14.1173C2.82948 13.5003 2.02603 12.673 1.43736 11.6984C0.848702 10.7237 0.49038 9.62755 0.389725 8.4934C0.289069 7.35926 0.448738 6.2171 0.856555 5.15404C1.26437 4.09097 1.90957 3.13507 2.74294 2.35924C3.57631 1.58341 4.57584 1.00813 5.66532 0.677273C6.75479 0.346419 7.90544 0.268728 9.0295 0.450125C7.3762 2.4987 6.17955 5.63924 7.11269 8.29426C8.22451 11.4492 11.8054 12.6062 13.2783 12.9563C12.4582 13.829 11.4406 14.4919 10.311 14.8894V14.8894Z" fill="#1E3A9B"/>
<path fill-rule="evenodd" clip-rule="evenodd" d="M14.6118 7.88403L16.7325 11.6256C17.776 13.4284 19.2235 15.2652 19.2235 17.34C19.2235 19.8911 17.1364 22 14.6118 22C12.0534 22 10 19.8911 10 17.34C10 15.2652 11.4475 13.4284 12.4574 11.6256L14.6118 7.88403ZM16.9345 17.9523C17.0018 17.7142 17.2374 17.5781 17.4731 17.6462C17.7087 17.7142 17.8434 17.9523 17.8097 18.1904C17.4731 19.4489 16.3959 20.4354 15.1167 20.6394C14.8811 20.6735 14.6454 20.5034 14.6118 20.2653C14.5781 20.0272 14.7464 19.7891 14.982 19.7551C15.9246 19.619 16.6988 18.9047 16.9345 17.9523Z" fill="#3978C2"/>
<path fill-rule="evenodd" clip-rule="evenodd" d="M19.4958 3L21.6165 6.74159C22.6601 8.54435 24.1075 10.3811 24.1075 12.456C24.1075 15.0071 22.0205 17.116 19.4958 17.116C16.9374 17.116 14.884 15.0071 14.884 12.456C14.884 10.3811 16.3315 8.54435 17.3414 6.74159L19.4958 3ZM21.8185 13.0683C21.8858 12.8302 22.1215 12.6941 22.3571 12.7621C22.5927 12.8302 22.7274 13.0683 22.6937 13.3064C22.3571 14.5649 21.2799 15.5513 20.0007 15.7554C19.7651 15.7894 19.5295 15.6193 19.4958 15.3812C19.4621 15.1431 19.6304 14.905 19.8661 14.871C20.8086 14.735 21.5829 14.0207 21.8185 13.0683Z" fill="#3978C2" fill-opacity="0.6"/>
</svg>
