<svg width="18" height="18" viewBox="0 0 18 18" fill="none" xmlns="http://www.w3.org/2000/svg">
<path d="M1.4583 17.0974L1.45787 17.0973C1.30315 17.082 1.16065 17.0063 1.05789 16.8868C0.955281 16.7675 0.899403 16.613 0.900005 16.4538M1.4583 17.0974L16.1935 16.9043C16.2712 16.96 16.3617 16.9922 16.4555 16.9977C16.5492 17.0031 16.6426 16.9815 16.7255 16.9352C16.8085 16.8889 16.8779 16.8196 16.9262 16.7348C16.9746 16.65 17.0001 16.5529 17 16.454H17.1V16.4539V1.54378C17.1 1.37467 17.0363 1.21153 16.9213 1.09045C16.8063 0.969198 16.649 0.900017 16.4839 0.9H1.51613H1.51612C1.35099 0.900017 1.19375 0.969198 1.07866 1.09045C0.963739 1.21153 0.900021 1.37467 0.900005 1.54377V1.54378V16.4538M1.4583 17.0974C1.60274 17.1111 1.74667 17.0711 1.86511 16.9853L1.86523 16.9853L9 11.8026L1.4583 17.0974ZM0.900005 16.4538C0.900005 16.4538 0.900005 16.4537 0.900006 16.4536L1 16.454H0.900005V16.4538ZM8.6509 10.4936L2.13226 15.2297V2.18755H15.8677V15.2297L9.34911 10.4936L9.34858 10.4932C9.24629 10.4199 9.12483 10.3803 9 10.3803C8.87517 10.3803 8.75371 10.4199 8.65143 10.4932L8.6509 10.4936Z" fill="white" stroke="white" stroke-width="0.2"/>
</svg>
