<svg width="35" height="33" viewBox="0 0 35 33" fill="none" xmlns="http://www.w3.org/2000/svg">
<path fill-rule="evenodd" clip-rule="evenodd" d="M35 0H0V33H35V0ZM17.0802 31.8291C17.2148 31.9426 17.3753 32 17.5357 32C17.6962 32 17.8567 31.9426 17.9912 31.8291C18.0607 31.7704 25.0279 25.8386 31.3295 18.8134C32.7538 17.2257 33.6223 15.2492 33.9348 13.1875L34.0666 12.9649L34.0039 12.647C34.3221 9.58692 33.4307 6.39877 31.3295 4.05639C29.5621 2.0854 27.2118 1 24.7111 1C22.2112 1 19.8601 2.08582 18.0912 4.05639C17.8973 4.27171 17.7124 4.49751 17.5357 4.73252C17.3587 4.49793 17.1734 4.27213 16.9799 4.05639C15.5219 2.43084 13.6672 1.40765 11.6592 1.09894L11.5291 1L11.2837 1.04974C10.9789 1.01671 10.6709 1 10.3607 1C8.89456 1 7.47983 1.37323 6.20398 2.07941L6.16298 2.08772L6.13074 2.1204C5.259 2.61369 4.45344 3.26336 3.7423 4.05639C1.97411 6.02738 1 8.6481 1 11.4351C1 14.2222 1.97411 16.8425 3.7423 18.8134C10.0439 25.8382 17.0107 31.77 17.0802 31.8291ZM19.6675 4.71645L19.1987 5.1916C19.3501 5.02552 19.5065 4.86707 19.6675 4.71645Z" fill="white"/>
</svg>
