<svg width="19" height="19" viewBox="0 0 19 19" fill="none" xmlns="http://www.w3.org/2000/svg">
<path fill-rule="evenodd" clip-rule="evenodd" d="M12.2805 13.1969C10.9811 14.2893 9.30429 14.9473 7.47382 14.9473C3.34614 14.9473 0 11.6013 0 7.47367C0 3.34608 3.34614 0 7.47382 0C11.6015 0 14.9476 3.34608 14.9476 7.47367C14.9476 9.30408 14.2896 10.9808 13.1972 12.2802C13.2249 12.2975 13.2511 12.3182 13.2752 12.3423L18.8717 17.9387C19.0431 18.1101 19.0425 18.3888 18.8716 18.5597L18.56 18.8712C18.3885 19.0427 18.1109 19.0432 17.939 18.8713L12.3425 13.2749C12.3185 13.2508 12.2978 13.2246 12.2805 13.1969ZM7.47382 13.6285C10.8731 13.6285 13.6287 10.8729 13.6287 7.47367C13.6287 4.07448 10.8731 1.31888 7.47382 1.31888C4.07456 1.31888 1.31891 4.07448 1.31891 7.47367C1.31891 10.8729 4.07456 13.6285 7.47382 13.6285Z" fill="#9C9C9C"/>
</svg>
