<svg width="21" height="22" viewBox="0 0 21 22" fill="none" xmlns="http://www.w3.org/2000/svg">
<circle cx="10.445" cy="11.3351" r="9.84247" fill="white" stroke="#D8D8D8"/>
<path d="M10.6258 14.491V11.9502C11.7057 11.8591 12.7121 11.3661 13.4461 10.5688C14.18 9.77147 14.5882 8.72778 14.5898 7.64406V7.28369H14.2294C13.3507 7.28518 12.4933 7.55411 11.7712 8.05472C11.0491 8.55533 10.4964 9.2639 10.1868 10.0862C9.92859 9.67042 9.56871 9.32727 9.14111 9.08913C8.71351 8.85099 8.23229 8.72573 7.74285 8.72515H7.38248V9.08551C7.38361 9.78713 7.64034 10.4643 8.10464 10.9903C8.56894 11.5163 9.20899 11.8552 9.90503 11.9434V14.491H3.05811V15.2117H9.75569L7.66825 17.2993L8.17781 17.8089L9.90503 16.0815V17.9454L9.10971 18.7407L9.61927 19.2503L10.2654 18.6042L10.9115 19.2503L11.4211 18.7408L10.6258 17.9454V15.9505L12.4842 17.8089L12.9938 17.2993L10.9061 15.2117H17.8331V14.491H10.6258ZM13.849 8.02431C13.7608 8.84366 13.3951 9.60821 12.8124 10.191C12.2297 10.7737 11.4652 11.1396 10.6458 11.2278C10.734 10.4085 11.0998 9.64392 11.6824 9.06117C12.2651 8.47842 13.0296 8.11254 13.849 8.02431ZM8.13981 9.48231C8.56842 9.56319 8.96267 9.77146 9.27106 10.0799C9.57945 10.3884 9.78764 10.7827 9.86844 11.2113C9.43983 11.1304 9.04558 10.9221 8.73719 10.6137C8.4288 10.3052 8.22061 9.91093 8.13981 9.48231Z" fill="#3BB30B"/>
<path d="M10.4398 9.76009V7.71105C11.3106 7.63758 12.1223 7.24004 12.7142 6.59704C13.3061 5.95403 13.6353 5.11234 13.6366 4.23837V3.94775H13.3459C12.6373 3.94895 11.9459 4.16583 11.3635 4.56955C10.7811 4.97327 10.3355 5.5447 10.0858 6.20786C9.87753 5.87254 9.58731 5.5958 9.24247 5.40375C8.89763 5.21171 8.50955 5.11069 8.11484 5.11022H7.82422V5.40084C7.82513 5.96666 8.03217 6.51276 8.4066 6.93697C8.78104 7.36118 9.29721 7.63442 9.85854 7.70558V9.76009L9.8585 10.3413L9.85854 11.0428V12.5459H10.4398V10.9372V10.3413V9.76009ZM13.0391 4.54502C12.9681 5.2058 12.6731 5.82237 12.2032 6.29233C11.7333 6.76228 11.1167 7.05735 10.4559 7.1285C10.527 6.46773 10.822 5.85116 11.2919 5.3812C11.7618 4.91124 12.3784 4.61618 13.0391 4.54502ZM8.43497 5.72083C8.78062 5.78606 9.09857 5.95402 9.34727 6.20277C9.59597 6.45152 9.76387 6.7695 9.82902 7.11516C9.48337 7.04994 9.16543 6.88198 8.91672 6.63322C8.66802 6.38447 8.50013 6.0665 8.43497 5.72083Z" fill="#3BB30B"/>
<path d="M15.531 15.689H13.2061V16.2702H15.531V15.689Z" fill="#3BB30B"/>
<path d="M16.1132 16.8511H14.6602V17.4323H16.1132V16.8511Z" fill="#3BB30B"/>
<path d="M7.39391 15.689H6.23145V16.2702H7.39391V15.689Z" fill="#3BB30B"/>
<path d="M7.68471 16.8511H5.65039V17.4323H7.68471V16.8511Z" fill="#3BB30B"/>
</svg>
