<svg width="21" height="21" viewBox="0 0 21 21" fill="none" xmlns="http://www.w3.org/2000/svg">
<path d="M20.2875 10.445C20.2875 15.8808 15.8808 20.2875 10.445 20.2875C5.00916 20.2875 0.602539 15.8808 0.602539 10.445C0.602539 5.00916 5.00916 0.602539 10.445 0.602539C15.8808 0.602539 20.2875 5.00916 20.2875 10.445Z" fill="white" stroke="#D8D8D8"/>
<mask id="mask0" mask-type="alpha" maskUnits="userSpaceOnUse" x="0" y="0" width="21" height="21">
<path d="M10.445 20.7875C16.157 20.7875 20.7875 16.157 20.7875 10.445C20.7875 4.73302 16.157 0.102539 10.445 0.102539C4.73302 0.102539 0.102539 4.73302 0.102539 10.445C0.102539 16.157 4.73302 20.7875 10.445 20.7875Z" fill="white"/>
</mask>
<g mask="url(#mask0)">
<path d="M7.03386 5.01727L7.03384 5.01728C6.22138 5.58653 5.67397 6.4147 5.41166 7.49531L7.03386 5.01727ZM7.03386 5.01727C7.69875 4.55131 8.46805 4.31348 9.3268 4.31348C10.2318 4.31348 11.0301 4.57217 11.5061 4.76931C11.5173 5.08854 11.5089 5.55524 11.4192 6.06922L11.4192 6.06937M7.03386 5.01727L11.4192 6.06937M11.4192 6.06937C11.2001 7.33069 10.6257 8.27939 9.72165 8.91242L9.72149 8.91253M11.4192 6.06937L9.72149 8.91253M9.72149 8.91253C9.0567 9.37884 8.28745 9.61626 7.42907 9.61626H7.42863C6.52419 9.61626 5.72583 9.3578 5.25036 9.16076M9.72149 8.91253L5.25036 9.16076M5.25036 9.16076C5.23566 8.76483 5.25207 8.15411 5.41164 7.49541L5.25036 9.16076Z" stroke="#BA9650" stroke-width="0.5"/>
<path d="M9.93528 15.1888L9.93529 15.1888C10.2448 14.7692 10.4608 14.3559 10.5936 14.0655C10.0294 13.4155 8.76983 12.2446 7.05795 12.2446C6.86856 12.2446 6.67492 12.2591 6.48265 12.2877L9.93528 15.1888ZM9.93528 15.1888C9.17547 16.2192 8.23761 16.8109 7.14609 16.9736C6.95333 17.0022 6.75968 17.0166 6.57032 17.0166C4.85209 17.0166 3.59601 15.8463 3.03461 15.1982M9.93528 15.1888L3.03461 15.1982M3.03461 15.1982C3.19828 14.8376 3.48586 14.2983 3.92349 13.78L3.03461 15.1982ZM3.92354 13.7799C4.64114 12.9305 5.5015 12.434 6.48254 12.2877L3.92354 13.7799Z" stroke="#BA9650" stroke-width="0.5"/>
<path d="M13.3523 14.0351L13.3523 14.0351C12.7382 13.2642 12.452 12.32 12.5116 11.2143L12.5116 11.2141C12.5475 10.5433 12.7059 9.95877 12.8332 9.58583C13.0022 9.5694 13.2129 9.55615 13.4498 9.55615C14.5597 9.55615 16.0576 9.83504 17.0761 11.1145L17.0762 11.1145C17.6931 11.8889 17.9803 12.8328 17.9216 13.9342C17.8854 14.6051 17.7258 15.1891 17.5978 15.5612C17.4284 15.5778 17.2163 15.5913 16.9759 15.5913C15.866 15.5913 14.3699 15.3128 13.3523 14.0351Z" stroke="#BA9650" stroke-width="0.5"/>
</g>
</svg>
