<svg width="49" height="33" viewBox="0 0 49 33" fill="none" xmlns="http://www.w3.org/2000/svg">
<path d="M6.18042 6.25459C6.67124 6.44565 7.13299 6.60762 7.56565 6.7405C8.00656 6.87338 8.47667 6.93985 8.97585 6.93985C9.34188 6.93985 9.58735 6.89419 9.71215 6.8028C9.84524 6.70312 9.91182 6.5827 9.91182 6.44148C9.91182 6.29197 9.84942 6.17153 9.72463 6.08016C9.60813 5.98048 9.36684 5.8725 9.00081 5.75621C8.55984 5.61501 8.15631 5.46965 7.79029 5.32014C7.4325 5.17062 7.12469 4.98789 6.86679 4.77193C6.6172 4.54766 6.42165 4.28186 6.28025 3.97453C6.14713 3.65889 6.08057 3.2685 6.08057 2.80335C6.08057 2.35481 6.16794 1.95612 6.34265 1.60725C6.51737 1.25839 6.76278 0.967673 7.07895 0.735101C7.40342 0.49422 7.7944 0.311483 8.25203 0.18689C8.7096 0.0622968 9.22126 0 9.78703 0C10.5441 0 11.2013 0.0664495 11.7588 0.199349C12.3245 0.323942 12.7863 0.448536 13.144 0.57313L12.4701 2.71614C12.3536 2.6663 12.2122 2.61231 12.0458 2.55416C11.8794 2.49602 11.7005 2.44203 11.5092 2.39219C11.3178 2.34236 11.114 2.30082 10.8977 2.2676C10.6897 2.23438 10.4817 2.21776 10.2737 2.21776C9.98252 2.21776 9.75789 2.26344 9.59983 2.35481C9.44172 2.44619 9.36272 2.56662 9.36272 2.71614C9.36272 2.7992 9.3752 2.87395 9.40016 2.9404C9.43342 2.99855 9.50411 3.06084 9.61231 3.12729C9.72045 3.18544 9.88268 3.25604 10.099 3.3391C10.3236 3.41386 10.6315 3.51353 11.0225 3.63813C11.7463 3.8707 12.2954 4.19049 12.6698 4.5975C13.0525 4.99619 13.2439 5.55271 13.2439 6.26705C13.2439 7.27208 12.9277 8.02381 12.2954 8.52219C11.6631 9.02056 10.7396 9.26975 9.52495 9.26975C8.90927 9.26975 8.31443 9.21991 7.74037 9.12023C7.1746 9.02056 6.65464 8.88768 6.18042 8.72154V6.25459ZM14.4011 4.01814H13.774V2.42957H16.6193V6.19541C16.6193 6.4259 16.6349 6.61279 16.6661 6.75608C16.6973 6.89936 16.7441 7.01149 16.8065 7.09248C16.8689 7.17346 16.95 7.22953 17.0499 7.26068C17.1497 7.2856 17.2714 7.29806 17.4149 7.29806C17.5522 7.29806 17.6707 7.2856 17.7706 7.26068C17.8766 7.22953 17.9609 7.17346 18.0233 7.09248C18.0857 7.01149 18.1325 6.89936 18.1637 6.75608C18.1949 6.61279 18.2105 6.4259 18.2105 6.19541V2.42957H20.9903V4.01814H20.3632V6.17672C20.3632 6.68132 20.3102 7.12363 20.2041 7.50364C20.1042 7.88365 19.9389 8.20136 19.708 8.45677C19.4771 8.70596 19.1745 8.89597 18.8001 9.02679C18.4257 9.15138 17.964 9.21368 17.4149 9.21368C16.8595 9.21368 16.3884 9.15138 16.0016 9.02679C15.6209 8.89597 15.3121 8.70596 15.075 8.45677C14.8378 8.20136 14.6662 7.88365 14.5602 7.50364C14.4541 7.12363 14.4011 6.68132 14.4011 6.17672V4.01814ZM21.4792 7.45691H22.1063V4.01814H21.4792V2.42957H24.8768C25.3011 2.42957 25.6755 2.48252 26 2.58843C26.3307 2.6881 26.6052 2.8345 26.8236 3.02762C27.0483 3.21451 27.2168 3.44189 27.3291 3.70977C27.4414 3.97764 27.4975 4.27355 27.4975 4.5975C27.4975 4.94636 27.4507 5.25784 27.3571 5.53195C27.2635 5.79982 27.1138 6.02409 26.9079 6.20475C26.702 6.38541 26.4368 6.52246 26.1123 6.61591C25.7941 6.70935 25.4103 6.75608 24.9611 6.75608H24.1936V7.45691H24.8768V9.04548H21.4792V7.45691ZM24.8019 5.19554C25.1951 5.19554 25.3916 5.018 25.3916 4.66291C25.3916 4.30782 25.1951 4.13027 24.8019 4.13027H24.2029V5.19554H24.8019ZM27.9781 7.45691H28.6052V4.01814H27.9781V2.42957H33.2663V4.13962H30.786V4.80307H32.9387V6.51312H30.786V7.33543H33.4441V9.04548H27.9781V7.45691ZM34.0095 6.92739H34.8457V2.34236H34.0095V0.224268H38.8267C39.3924 0.224268 39.8874 0.294871 40.3117 0.436076C40.7444 0.568976 41.1021 0.76002 41.385 1.00921C41.6679 1.25839 41.8801 1.55742 42.0215 1.90628C42.1629 2.24684 42.2336 2.62476 42.2336 3.04008C42.2336 3.30588 42.2086 3.54261 42.1587 3.75026C42.1088 3.94961 42.0298 4.13235 41.9216 4.29847C41.8218 4.45629 41.6929 4.60165 41.5347 4.73455C41.385 4.85914 41.2062 4.97958 40.9981 5.09587C41.1895 5.24538 41.3351 5.42397 41.4349 5.63162C41.5431 5.83927 41.6388 6.04278 41.7219 6.24213C41.8135 6.43319 41.9133 6.59516 42.0215 6.72804C42.1296 6.86092 42.2919 6.92739 42.5082 6.92739H42.92V9.04548H40.7735C40.4657 9.04548 40.2078 8.97901 39.9998 8.84613C39.7918 8.71325 39.6171 8.54293 39.4756 8.3353C39.3342 8.11931 39.2135 7.88259 39.1137 7.62511C39.0139 7.36764 38.9182 7.11846 38.8267 6.87755C38.7352 6.63665 38.6312 6.41656 38.5147 6.21721C38.4065 6.01786 38.2734 5.86835 38.1153 5.76867H37.6037V6.92739H38.3649V9.04548H34.0095V6.92739ZM38.4398 3.83748C38.6978 3.83748 38.8932 3.78348 39.0263 3.6755C39.1595 3.56753 39.226 3.3931 39.226 3.15221C39.226 2.69537 38.9639 2.46695 38.4398 2.46695H37.6161V3.83748H38.4398ZM12.4505 30.787H13.2866V26.202H12.4505V24.0839H17.2302V26.202H16.2693V30.6001H19.5764V32.9051H12.4505V30.787ZM20.1448 31.3165H20.7532L22.3911 26.2892H25.3114L26.94 31.3165H27.5483V32.9051H25.1616L24.8059 31.6529H22.7281L22.3724 32.9051H20.1448V31.3165ZM24.3099 29.9336L23.767 28.0647L23.2241 29.9336H24.3099ZM28.114 30.787H28.9502V26.202H28.114V24.0839H32.7939C33.4511 24.0839 33.9919 24.1504 34.4162 24.2832C34.8406 24.4078 35.1691 24.5781 35.4021 24.7941C35.6434 25.0017 35.8098 25.2426 35.9013 25.5167C35.9928 25.7908 36.0386 26.0691 36.0386 26.3515C36.0386 26.8416 35.9179 27.2361 35.6767 27.5351C35.4354 27.8342 35.1567 28.0501 34.8406 28.183C35.3813 28.3492 35.789 28.6274 36.0636 29.0178C36.3464 29.4082 36.4879 29.8359 36.4879 30.3011C36.4879 31.1317 36.2133 31.7755 35.6642 32.2323C35.1151 32.6808 34.3247 32.9051 33.2931 32.9051H28.114V30.787ZM32.4445 27.4728C32.7356 27.4728 32.9312 27.4105 33.031 27.2859C33.1391 27.1614 33.1932 27.0036 33.1932 26.8125C33.1932 26.6381 33.1391 26.4927 33.031 26.3764C32.9312 26.2518 32.7356 26.1895 32.4445 26.1895H31.7331V27.4728H32.4445ZM32.5568 30.7496C32.823 30.7496 33.031 30.6832 33.1808 30.5503C33.3388 30.4174 33.4179 30.2346 33.4179 30.0021C33.4179 29.7612 33.3388 29.5785 33.1808 29.4539C33.031 29.321 32.823 29.2545 32.5568 29.2545H31.7331V30.7496H32.5568Z" fill="white"/>
<path d="M7.06316 17.9792H5.95859V15.8563H10.2992V21.4404C9.5939 21.8609 8.86785 22.1481 8.12108 22.3019C7.38471 22.4557 6.59643 22.5327 5.75634 22.5327C4.80213 22.5327 3.96202 22.3942 3.236 22.1173C2.52035 21.8404 1.91878 21.4507 1.43131 20.9482C0.954204 20.4456 0.596378 19.8457 0.357827 19.1483C0.119275 18.4407 0 17.6612 0 16.81C0 15.9383 0.134833 15.1537 0.4045 14.4564C0.68454 13.7487 1.08385 13.1488 1.60244 12.6565C2.12103 12.154 2.75371 11.7694 3.50048 11.5028C4.24725 11.2259 5.09773 11.0874 6.05194 11.0874C6.52904 11.0874 6.97504 11.1233 7.38987 11.1951C7.80477 11.2669 8.18332 11.354 8.52558 11.4566C8.86785 11.5592 9.17384 11.672 9.44349 11.795C9.71319 11.9181 9.94133 12.0309 10.128 12.1335L8.93008 14.764C8.59821 14.5487 8.24038 14.3743 7.8566 14.241C7.48322 14.0974 7.04761 14.0256 6.54976 14.0256C6.12454 14.0256 5.75115 14.0974 5.42963 14.241C5.1081 14.3743 4.84362 14.5692 4.63619 14.8256C4.42875 15.0717 4.27317 15.3691 4.16946 15.7178C4.06574 16.0562 4.01388 16.4254 4.01388 16.8254C4.01388 17.1946 4.05537 17.5433 4.13834 17.8715C4.22132 18.1996 4.35096 18.4868 4.52729 18.733C4.71398 18.9791 4.94215 19.174 5.21182 19.3175C5.48149 19.4611 5.80302 19.5329 6.1764 19.5329C6.35274 19.5329 6.52387 19.5226 6.68978 19.5021C6.86614 19.4816 6.9906 19.4611 7.06316 19.4406V17.9792ZM11.5544 20.1636H12.3883V15.6347H11.5544V13.5426H16.3586C16.9229 13.5426 17.4165 13.6123 17.8397 13.7518C18.2712 13.8831 18.628 14.0718 18.9101 14.3179C19.1922 14.5641 19.4038 14.8594 19.5448 15.204C19.6859 15.5404 19.7564 15.9137 19.7564 16.3239C19.7564 16.5865 19.7315 16.8203 19.6817 17.0254C19.632 17.2223 19.5531 17.4028 19.4453 17.5669C19.3457 17.7228 19.2171 17.8664 19.0594 17.9976C18.9101 18.1207 18.7317 18.2396 18.5243 18.3545C18.7151 18.5022 18.8603 18.6786 18.9599 18.8837C19.0677 19.0888 19.1632 19.2898 19.2461 19.4867C19.3374 19.6755 19.437 19.8355 19.5448 19.9667C19.6527 20.098 19.8145 20.1636 20.0302 20.1636H20.441V22.2558H18.3002C17.9932 22.2558 17.736 22.1901 17.5286 22.0588C17.3211 21.9276 17.1469 21.7594 17.0058 21.5543C16.8647 21.3409 16.7445 21.1071 16.6449 20.8528C16.5453 20.5985 16.4499 20.3523 16.3586 20.1144C16.2673 19.8764 16.1637 19.659 16.0475 19.4621C15.9396 19.2652 15.8068 19.1175 15.6492 19.0191H15.1389V20.1636H15.8981V22.2558H11.5544V20.1636ZM15.9728 17.1115C16.23 17.1115 16.425 17.0582 16.5578 16.9516C16.6905 16.8449 16.7569 16.6726 16.7569 16.4347C16.7569 15.9834 16.4955 15.7578 15.9728 15.7578H15.1513V17.1115H15.9728ZM21.0835 20.1636H21.9174V15.6347H21.0835V13.5426H28.1156V15.7947H24.8173V16.6685H27.6799V18.9206H24.8173V20.0036H28.352V22.2558H21.0835V20.1636ZM28.9961 20.1636H29.83V15.6347H28.9961V13.5426H36.0281V15.7947H32.7299V16.6685H35.5925V18.9206H32.7299V20.0036H36.2646V22.2558H28.9961V20.1636ZM36.9895 19.6406H38.0318V13.9795H36.9895V11.3643H41.7346L44.6127 16.81V11.3643H49V13.9795H47.9576V22.2558H44.3949L41.3456 16.8254V22.2558H36.9895V19.6406Z" fill="#3BB30B"/>
</svg>
