<svg width="200" height="200" viewBox="0 0 200 200" fill="none" xmlns="http://www.w3.org/2000/svg">
<rect width="200" height="200" fill="#404040"/>
<g opacity="0.5">
<path d="M143.701 15.7933C144.312 16.0313 144.887 16.2331 145.427 16.3987C145.976 16.5643 146.562 16.6471 147.184 16.6471C147.64 16.6471 147.946 16.5902 148.101 16.4763C148.267 16.3521 148.35 16.2021 148.35 16.0261C148.35 15.8398 148.272 15.6898 148.117 15.5759C147.972 15.4517 147.671 15.3172 147.215 15.1723C146.665 14.9963 146.163 14.8152 145.706 14.6289C145.261 14.4426 144.877 14.2149 144.556 13.9459C144.245 13.6664 144.001 13.3352 143.825 12.9523C143.659 12.559 143.576 12.0726 143.576 11.493C143.576 10.9341 143.685 10.4373 143.903 10.0027C144.12 9.56797 144.426 9.20573 144.82 8.91594C145.224 8.6158 145.712 8.38811 146.282 8.23287C146.852 8.07762 147.49 8 148.194 8C149.138 8 149.957 8.0828 150.651 8.24839C151.356 8.40363 151.932 8.55888 152.377 8.71412L151.538 11.3843C151.392 11.3222 151.216 11.255 151.009 11.1825C150.802 11.1101 150.579 11.0428 150.34 10.9807C150.102 10.9186 149.848 10.8668 149.578 10.8254C149.319 10.784 149.06 10.7633 148.801 10.7633C148.438 10.7633 148.158 10.8203 147.961 10.9341C147.764 11.048 147.666 11.198 147.666 11.3843C147.666 11.4878 147.681 11.581 147.712 11.6638C147.754 11.7362 147.842 11.8138 147.977 11.8966C148.111 11.9691 148.314 12.0571 148.583 12.1605C148.863 12.2537 149.247 12.3779 149.734 12.5331C150.636 12.8229 151.32 13.2214 151.786 13.7285C152.263 14.2253 152.502 14.9187 152.502 15.8088C152.502 17.0611 152.108 17.9977 151.32 18.6187C150.532 19.2397 149.381 19.5502 147.868 19.5502C147.101 19.5502 146.36 19.4881 145.644 19.3639C144.939 19.2397 144.291 19.0741 143.701 18.8671V15.7933ZM153.944 13.0066H153.162V11.0273H156.708V15.7195C156.708 16.0067 156.727 16.2396 156.766 16.4181C156.805 16.5966 156.863 16.7364 156.941 16.8373C157.019 16.9382 157.12 17.008 157.244 17.0469C157.368 17.0779 157.52 17.0934 157.699 17.0934C157.87 17.0934 158.018 17.0779 158.142 17.0469C158.274 17.008 158.379 16.9382 158.457 16.8373C158.535 16.7364 158.593 16.5966 158.632 16.4181C158.671 16.2396 158.69 16.0067 158.69 15.7195V11.0273H162.154V13.0066H161.372V15.6962C161.372 16.325 161.306 16.8761 161.174 17.3496C161.05 17.8231 160.844 18.219 160.556 18.5372C160.268 18.8477 159.891 19.0844 159.425 19.2474C158.958 19.4027 158.383 19.4803 157.699 19.4803C157.007 19.4803 156.42 19.4027 155.938 19.2474C155.464 19.0844 155.079 18.8477 154.783 18.5372C154.488 18.219 154.274 17.8231 154.142 17.3496C154.01 16.8761 153.944 16.325 153.944 15.6962V13.0066ZM162.763 17.2914H163.544V13.0066H162.763V11.0273H166.996C167.525 11.0273 167.992 11.0932 168.396 11.2252C168.808 11.3494 169.15 11.5318 169.422 11.7724C169.702 12.0053 169.912 12.2886 170.052 12.6224C170.192 12.9562 170.262 13.3249 170.262 13.7285C170.262 14.1632 170.204 14.5513 170.087 14.8928C169.97 15.2266 169.784 15.5061 169.527 15.7312C169.271 15.9563 168.94 16.127 168.536 16.2435C168.139 16.3599 167.661 16.4181 167.101 16.4181H166.145V17.2914H166.996V19.2707H162.763V17.2914ZM166.903 14.4737C167.393 14.4737 167.638 14.2525 167.638 13.81C167.638 13.3676 167.393 13.1463 166.903 13.1463H166.157V14.4737H166.903ZM170.861 17.2914H171.642V13.0066H170.861V11.0273H177.45V13.158H174.359V13.9847H177.042V16.1154H174.359V17.14H177.671V19.2707H170.861V17.2914ZM178.376 16.6316H179.418V10.9186H178.376V8.27944H184.378C185.083 8.27944 185.7 8.36741 186.228 8.54335C186.768 8.70895 187.213 8.94699 187.566 9.25748C187.918 9.56797 188.183 9.94055 188.359 10.3752C188.535 10.7996 188.623 11.2705 188.623 11.788C188.623 12.1191 188.592 12.4141 188.53 12.6729C188.468 12.9212 188.369 13.1489 188.234 13.3559C188.11 13.5526 187.949 13.7337 187.752 13.8993C187.566 14.0545 187.343 14.2046 187.084 14.3495C187.322 14.5358 187.504 14.7583 187.628 15.017C187.763 15.2758 187.882 15.5293 187.986 15.7777C188.1 16.0158 188.224 16.2176 188.359 16.3832C188.494 16.5488 188.696 16.6316 188.965 16.6316H189.478V19.2707H186.804C186.42 19.2707 186.099 19.1879 185.84 19.0223C185.581 18.8568 185.363 18.6446 185.187 18.3858C185.01 18.1167 184.86 17.8218 184.736 17.5009C184.611 17.1801 184.492 16.8696 184.378 16.5695C184.264 16.2693 184.134 15.9951 183.989 15.7467C183.855 15.4983 183.689 15.312 183.492 15.1878H182.854V16.6316H183.803V19.2707H178.376V16.6316ZM183.896 12.7815C184.217 12.7815 184.461 12.7142 184.627 12.5797C184.793 12.4452 184.876 12.2278 184.876 11.9277C184.876 11.3585 184.549 11.0738 183.896 11.0738H182.87V12.7815H183.896ZM151.513 46.3608H152.555V40.6479H151.513V38.0087H157.469V40.6479H156.271V46.128H160.392V49H151.513V46.3608ZM161.1 47.0206H161.858L163.899 40.7565H167.538L169.567 47.0206H170.325V49H167.351L166.908 47.4398H164.319L163.876 49H161.1V47.0206ZM166.29 45.2974L165.614 42.9688L164.937 45.2974H166.29ZM171.03 46.3608H172.072V40.6479H171.03V38.0087H176.861C177.68 38.0087 178.354 38.0915 178.883 38.2571C179.411 38.4123 179.821 38.6245 180.111 38.8936C180.412 39.1523 180.619 39.4525 180.733 39.794C180.847 40.1356 180.904 40.4823 180.904 40.8342C180.904 41.4448 180.754 41.9364 180.453 42.309C180.152 42.6816 179.805 42.9507 179.411 43.1162C180.085 43.3233 180.593 43.6699 180.935 44.1564C181.288 44.6428 181.464 45.1758 181.464 45.7554C181.464 46.7903 181.122 47.5925 180.438 48.1617C179.753 48.7206 178.769 49 177.483 49H171.03V46.3608ZM176.426 42.2313C176.789 42.2313 177.032 42.1537 177.157 41.9985C177.291 41.8432 177.359 41.6466 177.359 41.4086C177.359 41.1912 177.291 41.0101 177.157 40.8652C177.032 40.71 176.789 40.6323 176.426 40.6323H175.539V42.2313H176.426ZM176.566 46.3143C176.897 46.3143 177.157 46.2315 177.343 46.0659C177.54 45.9003 177.639 45.6726 177.639 45.3828C177.639 45.0826 177.54 44.855 177.343 44.6997C177.157 44.5342 176.897 44.4513 176.566 44.4513H175.539V46.3143H176.566Z" fill="white"/>
<path d="M144.801 30.4024H143.424V27.7572H148.833V34.7151C147.954 35.239 147.049 35.5969 146.119 35.7885C145.201 35.9802 144.219 36.0761 143.172 36.0761C141.983 36.0761 140.937 35.9035 140.032 35.5585C139.14 35.2135 138.391 34.7279 137.783 34.1018C137.189 33.4756 136.743 32.728 136.446 31.8591C136.149 30.9774 136 30.0062 136 28.9456C136 27.8594 136.168 26.8819 136.504 26.0129C136.853 25.1312 137.35 24.3837 137.997 23.7703C138.643 23.1441 139.431 22.6649 140.362 22.3327C141.292 21.9877 142.352 21.8152 143.541 21.8152C144.135 21.8152 144.691 21.8599 145.208 21.9494C145.725 22.0388 146.196 22.1474 146.623 22.2752C147.049 22.403 147.431 22.5436 147.767 22.6969C148.103 22.8502 148.387 22.9908 148.62 23.1186L147.127 26.3963C146.713 26.1279 146.268 25.9107 145.789 25.7446C145.324 25.5657 144.781 25.4762 144.161 25.4762C143.631 25.4762 143.166 25.5657 142.765 25.7446C142.365 25.9107 142.035 26.1535 141.777 26.473C141.518 26.7797 141.324 27.1502 141.195 27.5847C141.066 28.0064 141.001 28.4664 141.001 28.9648C141.001 29.4248 141.053 29.8593 141.156 30.2682C141.26 30.6771 141.421 31.0349 141.641 31.3416C141.874 31.6483 142.158 31.8911 142.494 32.07C142.83 32.2489 143.231 32.3383 143.696 32.3383C143.916 32.3383 144.129 32.3255 144.336 32.3C144.555 32.2745 144.71 32.2489 144.801 32.2233V30.4024ZM150.397 33.1242H151.436V27.4812H150.397V24.8744H156.383C157.086 24.8744 157.701 24.9612 158.228 25.1351C158.766 25.2986 159.211 25.5337 159.562 25.8404C159.914 26.1471 160.177 26.5151 160.353 26.9445C160.529 27.3637 160.617 27.8287 160.617 28.3399C160.617 28.6671 160.586 28.9584 160.524 29.214C160.462 29.4593 160.363 29.6842 160.229 29.8887C160.105 30.0829 159.945 30.2618 159.748 30.4254C159.562 30.5787 159.34 30.7269 159.081 30.8701C159.319 31.0541 159.5 31.2739 159.624 31.5294C159.759 31.785 159.877 32.0355 159.981 32.2808C160.095 32.516 160.219 32.7153 160.353 32.8789C160.487 33.0424 160.689 33.1242 160.958 33.1242H161.47V35.731H158.802C158.42 35.731 158.099 35.6492 157.841 35.4857C157.582 35.3221 157.365 35.1125 157.189 34.857C157.014 34.5912 156.864 34.2998 156.74 33.9829C156.616 33.666 156.497 33.3594 156.383 33.0629C156.269 32.7664 156.14 32.4955 155.995 32.2502C155.861 32.0048 155.695 31.8208 155.499 31.6981H154.863V33.1242H155.809V35.731H150.397V33.1242ZM155.902 29.3213C156.223 29.3213 156.466 29.2548 156.631 29.122C156.796 28.9891 156.879 28.7744 156.879 28.4779C156.879 27.9157 156.554 27.6345 155.902 27.6345H154.879V29.3213H155.902ZM162.27 33.1242H163.309V27.4812H162.27V24.8744H171.032V27.6805H166.923V28.7693H170.489V31.5754H166.923V32.9249H171.327V35.731H162.27V33.1242ZM172.129 33.1242H173.168V27.4812H172.129V24.8744H180.891V27.6805H176.782V28.7693H180.349V31.5754H176.782V32.9249H181.186V35.731H172.129V33.1242ZM182.089 32.4725H183.388V25.4187H182.089V22.1602H188.002L191.588 28.9456V22.1602H197.054V25.4187H195.756V35.731H191.316L187.517 28.9648V35.731H182.089V32.4725Z" fill="#3BB30B"/>
</g>
<path opacity="0.5" d="M51.248 174H46.8535L38.2988 159.967V174H33.9043V152.672H38.2988L46.8682 166.734V152.672H51.248V174ZM54.1484 165.929C54.1484 164.356 54.4512 162.955 55.0566 161.725C55.6621 160.494 56.5312 159.542 57.6641 158.868C58.8066 158.194 60.1299 157.857 61.6338 157.857C63.7725 157.857 65.5156 158.512 66.8633 159.82C68.2207 161.129 68.9775 162.906 69.1338 165.152L69.1631 166.236C69.1631 168.668 68.4844 170.621 67.127 172.096C65.7695 173.561 63.9482 174.293 61.6631 174.293C59.3779 174.293 57.5518 173.561 56.1846 172.096C54.8271 170.631 54.1484 168.639 54.1484 166.119V165.929ZM58.3818 166.236C58.3818 167.74 58.665 168.893 59.2314 169.693C59.7979 170.484 60.6084 170.88 61.6631 170.88C62.6885 170.88 63.4893 170.489 64.0654 169.708C64.6416 168.917 64.9297 167.657 64.9297 165.929C64.9297 164.454 64.6416 163.312 64.0654 162.501C63.4893 161.69 62.6787 161.285 61.6338 161.285C60.5986 161.285 59.7979 161.69 59.2314 162.501C58.665 163.302 58.3818 164.547 58.3818 166.236ZM93.5088 166.222C93.5088 168.663 92.9521 170.621 91.8389 172.096C90.7354 173.561 89.2412 174.293 87.3564 174.293C85.7549 174.293 84.4609 173.736 83.4746 172.623V180.094H79.2412V158.15H83.167L83.3135 159.703C84.3389 158.473 85.6768 157.857 87.3271 157.857C89.2803 157.857 90.7988 158.58 91.8828 160.025C92.9668 161.471 93.5088 163.463 93.5088 166.002V166.222ZM89.2754 165.914C89.2754 164.439 89.0117 163.302 88.4844 162.501C87.9668 161.7 87.21 161.3 86.2139 161.3C84.8857 161.3 83.9727 161.808 83.4746 162.823V169.312C83.9922 170.357 84.915 170.88 86.2432 170.88C88.2646 170.88 89.2754 169.225 89.2754 165.914ZM100.613 174H96.3652V158.15H100.613V174ZM96.1162 154.049C96.1162 153.414 96.3262 152.892 96.7461 152.481C97.1758 152.071 97.7568 151.866 98.4893 151.866C99.2119 151.866 99.7881 152.071 100.218 152.481C100.647 152.892 100.862 153.414 100.862 154.049C100.862 154.693 100.643 155.221 100.203 155.631C99.7734 156.041 99.2021 156.246 98.4893 156.246C97.7764 156.246 97.2002 156.041 96.7607 155.631C96.3311 155.221 96.1162 154.693 96.1162 154.049ZM110.706 170.88C111.487 170.88 112.122 170.665 112.61 170.235C113.099 169.806 113.353 169.234 113.372 168.521H117.342C117.332 169.596 117.039 170.582 116.463 171.48C115.887 172.369 115.096 173.062 114.09 173.561C113.094 174.049 111.99 174.293 110.779 174.293C108.514 174.293 106.727 173.575 105.418 172.14C104.109 170.694 103.455 168.702 103.455 166.163V165.885C103.455 163.443 104.104 161.495 105.403 160.04C106.702 158.585 108.484 157.857 110.75 157.857C112.732 157.857 114.319 158.424 115.511 159.557C116.712 160.68 117.322 162.179 117.342 164.054H113.372C113.353 163.233 113.099 162.569 112.61 162.062C112.122 161.544 111.478 161.285 110.677 161.285C109.69 161.285 108.943 161.646 108.436 162.369C107.938 163.082 107.688 164.244 107.688 165.855V166.295C107.688 167.926 107.938 169.098 108.436 169.811C108.934 170.523 109.69 170.88 110.706 170.88ZM133.147 168.009L136.077 158.15H140.618L134.246 176.461L133.895 177.296C132.947 179.366 131.385 180.401 129.207 180.401C128.592 180.401 127.967 180.309 127.332 180.123V176.915L127.977 176.93C128.777 176.93 129.373 176.808 129.764 176.563C130.164 176.319 130.477 175.914 130.701 175.348L131.199 174.044L125.647 158.15H130.203L133.147 168.009ZM149.378 174.293C147.054 174.293 145.159 173.58 143.694 172.154C142.239 170.729 141.512 168.829 141.512 166.456V166.046C141.512 164.454 141.819 163.033 142.435 161.783C143.05 160.523 143.919 159.557 145.042 158.883C146.175 158.199 147.464 157.857 148.909 157.857C151.077 157.857 152.781 158.541 154.021 159.908C155.271 161.275 155.896 163.214 155.896 165.724V167.452H145.804C145.94 168.487 146.351 169.317 147.034 169.942C147.728 170.567 148.602 170.88 149.656 170.88C151.287 170.88 152.562 170.289 153.479 169.107L155.56 171.437C154.925 172.335 154.065 173.038 152.981 173.546C151.897 174.044 150.696 174.293 149.378 174.293ZM148.895 161.285C148.055 161.285 147.371 161.568 146.844 162.135C146.326 162.701 145.994 163.512 145.848 164.566H151.736V164.229C151.717 163.292 151.463 162.569 150.975 162.062C150.486 161.544 149.793 161.285 148.895 161.285ZM163.382 154.254V158.15H166.092V161.256H163.382V169.166C163.382 169.752 163.494 170.172 163.719 170.426C163.943 170.68 164.373 170.807 165.008 170.807C165.477 170.807 165.892 170.772 166.253 170.704V173.912C165.423 174.166 164.568 174.293 163.689 174.293C160.721 174.293 159.207 172.794 159.148 169.796V161.256H156.834V158.15H159.148V154.254H163.382Z" fill="white"/>
</svg>
