<svg width="29" height="29" viewBox="0 0 29 29" fill="none" xmlns="http://www.w3.org/2000/svg">
<path d="M14.5 29C22.5081 29 29 22.5081 29 14.5C29 6.49187 22.5081 0 14.5 0C6.49187 0 0 6.49187 0 14.5C0 22.5081 6.49187 29 14.5 29Z" fill="white"/>
<mask id="mask0" mask-type="alpha" maskUnits="userSpaceOnUse" x="0" y="0" width="29" height="29">
<path d="M14.5 29C22.5081 29 29 22.5081 29 14.5C29 6.49187 22.5081 0 14.5 0C6.49187 0 0 6.49187 0 14.5C0 22.5081 6.49187 29 14.5 29Z" fill="white"/>
</mask>
<g mask="url(#mask0)">
<path d="M17.925 9.90754H13.8806V7L6 11.7332L13.8806 16.4664V13.5586H17.925C19.3394 13.5586 20.4902 14.7554 20.4902 16.2266C20.4902 17.6978 19.3394 18.8946 17.925 18.8946H10.6575V22.5455H17.925C21.2749 22.5455 24 19.7107 24 16.2266C24 12.7423 21.2749 9.90754 17.925 9.90754Z" fill="#6EBFB5"/>
</g>
</svg>
