<svg width="29" height="29" viewBox="0 0 29 29" fill="none" xmlns="http://www.w3.org/2000/svg">
<path d="M14.5 29C22.5081 29 29 22.5081 29 14.5C29 6.49187 22.5081 0 14.5 0C6.49187 0 0 6.49187 0 14.5C0 22.5081 6.49187 29 14.5 29Z" fill="white"/>
<mask id="mask0" mask-type="alpha" maskUnits="userSpaceOnUse" x="0" y="0" width="29" height="29">
<path d="M14.5 29C22.5081 29 29 22.5081 29 14.5C29 6.49187 22.5081 0 14.5 0C6.49187 0 0 6.49187 0 14.5C0 22.5081 6.49187 29 14.5 29Z" fill="white"/>
</mask>
<g mask="url(#mask0)">
<path d="M13.1319 8.55365V9.05365H13.6319H18.575C22.3748 9.05365 25.5 12.2757 25.5 16.277C25.5 20.2779 22.3748 23.5 18.575 23.5H10.1925V20.0378H18.575C20.5982 20.0378 22.2103 18.3325 22.2103 16.277C22.2103 14.2214 20.5982 12.5161 18.575 12.5161H13.6319H13.1319V13.0161V15.6865L4.9711 10.785L13.1319 5.88356V8.55365Z" stroke="black"/>
</g>
</svg>
