<svg width="29" height="29" viewBox="0 0 29 29" fill="none" xmlns="http://www.w3.org/2000/svg">
<path d="M14.5 29C22.5081 29 29 22.5081 29 14.5C29 6.49187 22.5081 0 14.5 0C6.49187 0 0 6.49187 0 14.5C0 22.5081 6.49187 29 14.5 29Z" fill="white"/>
<mask id="mask0" mask-type="alpha" maskUnits="userSpaceOnUse" x="0" y="0" width="29" height="29">
<path d="M14.5 29C22.5081 29 29 22.5081 29 14.5C29 6.49187 22.5081 0 14.5 0C6.49187 0 0 6.49187 0 14.5C0 22.5081 6.49187 29 14.5 29Z" fill="white"/>
</mask>
<g mask="url(#mask0)">
<path d="M22.1689 25.52C20.1204 25.52 18.1947 24.7178 16.7462 23.261C15.2977 21.8043 14.5 19.8675 14.5 17.8074C14.5 15.0101 16.0116 12.4262 18.4449 11.0643C18.5796 10.9889 18.7477 11.0114 18.858 11.1198C18.9683 11.2281 18.9948 11.3965 18.923 11.5338C18.4011 12.5316 18.1253 13.6584 18.1253 14.7925C18.1253 18.6586 21.2528 21.8039 25.097 21.8039C26.2818 21.8039 27.4522 21.4993 28.4819 20.923C28.6166 20.8476 28.7846 20.8702 28.895 20.9785C29.0053 21.0869 29.0317 21.2553 28.9599 21.3926C27.6284 23.9385 25.0262 25.52 22.1689 25.52ZM17.8335 12.3166C16.1849 13.6351 15.1972 15.6515 15.1972 17.8074C15.1972 21.6735 18.3246 24.8188 22.1688 24.8188C24.3811 24.8188 26.4252 23.7759 27.7307 22.0367C26.8908 22.345 25.9976 22.5051 25.0969 22.5051C23.0485 22.5051 21.1227 21.7029 19.6742 20.2461C18.2258 18.7893 17.4281 16.8526 17.4281 14.7925C17.4281 13.9499 17.5666 13.1109 17.8335 12.3166Z" fill="#3F44B9"/>
<path d="M8.6999 4.2146C5.90743 4.2146 3.63458 6.48663 3.63458 9.27991C3.63458 12.0732 5.90662 14.3453 8.6999 14.3453C11.4932 14.3453 13.7653 12.0732 13.7653 9.27991C13.7653 6.48663 11.4924 4.2146 8.6999 4.2146ZM8.6999 13.5719C6.3335 13.5719 4.40791 11.6471 4.40791 9.27991C4.40791 6.91276 6.3335 4.98793 8.6999 4.98793C11.0663 4.98793 12.9919 6.91276 12.9919 9.27991C12.9919 11.6471 11.0663 13.5719 8.6999 13.5719Z" fill="#D4CF5D"/>
<path d="M9.08667 0H8.31335V2.32H9.08667V0Z" fill="#D4CF5D"/>
<path d="M9.08667 16.24H8.31335V18.56H9.08667V16.24Z" fill="#D4CF5D"/>
<path d="M17.98 8.89343H15.66V9.66675H17.98V8.89343Z" fill="#D4CF5D"/>
<path d="M1.73998 8.89343H-0.580017V9.66675H1.73998V8.89343Z" fill="#D4CF5D"/>
<path d="M13.3477 4.08491L13.8945 4.63173L15.535 2.99128L14.9882 2.44446L13.3477 4.08491Z" fill="#D4CF5D"/>
<path d="M1.86499 15.569L2.4118 16.1158L4.05223 14.4753L3.50542 13.9285L1.86499 15.569Z" fill="#D4CF5D"/>
<path d="M13.3472 14.475L14.9879 16.1152L15.5346 15.5683L13.8939 13.9281L13.3472 14.475Z" fill="#D4CF5D"/>
<path d="M4.05219 4.08434L2.41149 2.44409L1.86475 2.991L3.50544 4.63124L4.05219 4.08434Z" fill="#D4CF5D"/>
</g>
</svg>
