<svg width="29" height="29" viewBox="0 0 29 29" fill="none" xmlns="http://www.w3.org/2000/svg">
<g clip-path="url(#clip0)">
<path d="M14.5 29C22.5081 29 29 22.5081 29 14.5C29 6.49187 22.5081 0 14.5 0C6.49187 0 0 6.49187 0 14.5C0 22.5081 6.49187 29 14.5 29Z" fill="white"/>
<mask id="mask0" mask-type="alpha" maskUnits="userSpaceOnUse" x="0" y="0" width="29" height="29">
<path d="M14.5 29C22.5081 29 29 22.5081 29 14.5C29 6.49187 22.5081 0 14.5 0C6.49187 0 0 6.49187 0 14.5C0 22.5081 6.49187 29 14.5 29Z" fill="white"/>
</mask>
<g mask="url(#mask0)">
</g>
<g clip-path="url(#clip1)">
<path d="M18.3463 23.8388C18.5103 22.4452 18.3463 21.1335 17.9364 19.9038C18.1004 18.4282 18.4283 17.0346 19.0022 16.2148C18.4283 16.7886 18.0184 17.9363 17.7725 19.248C17.2806 17.9363 16.7067 16.6247 15.887 15.477C15.9689 14.0014 16.3788 12.6077 16.9527 11.7879C16.2969 12.4438 15.887 13.6735 15.641 15.0671C14.8212 13.8374 13.9195 12.6897 12.9357 11.624C12.9357 10.5583 13.1817 9.57451 13.6735 9.00066C13.0997 9.41055 12.7718 10.3123 12.6898 11.2961C11.706 10.3123 9.24667 8.42681 7.1972 7.36108C8.34491 8.34483 9.57459 9.41055 10.8043 10.5583C9.41063 10.3123 8.09897 10.3943 7.27918 10.8042C8.34491 10.5583 9.9025 10.6402 11.3781 11.2141C12.6078 12.4438 13.7555 13.7554 14.7393 15.1491C12.3619 14.3293 10.1484 14.1653 8.83678 14.6572C10.3944 14.4113 12.7718 14.8212 15.1491 15.8049C15.9689 16.9526 16.5428 18.1823 17.0347 19.4939C15.2311 18.9201 13.5096 18.9201 12.5258 19.4939C13.7555 19.166 15.4771 19.33 17.1986 20.0678C17.5265 21.2975 17.6905 22.5272 17.5265 23.7568L18.3463 23.8388Z" fill="#3BB30B"/>
<path d="M5.63959 4.98375C2.19648 14.1654 10.2304 23.183 19.1661 24.5767C22.2813 14.4113 15.641 6.62332 5.63959 4.98375ZM19.8219 25.2325C20.4777 25.9703 21.3795 26.7901 22.4452 26.6261L22.5272 27.2C21.2156 27.364 20.0679 26.4622 19.33 25.4784C9.24665 23.8389 0.966794 14.3293 5.06573 4C16.2149 5.72155 23.429 13.8375 19.8219 25.2325Z" fill="#3BB30B"/>
</g>
</g>
<defs>
<clipPath id="clip0">
<rect width="29" height="29" fill="white"/>
</clipPath>
<clipPath id="clip1">
<rect x="4" y="4" width="18.5272" height="29" fill="white"/>
</clipPath>
</defs>
</svg>
