<svg width="50" height="50" viewBox="0 0 50 50" fill="none" xmlns="http://www.w3.org/2000/svg">
<circle cx="20" cy="20" r="20" fill="black" fill-opacity="0.24"/>
<path d="M17.4828 5C14.0246 5 11.2132 7.7889 11.2132 11.2195C11.2132 13.7368 12.7277 15.9014 14.9012 16.8788V22.3095L14.129 20.5831C14.1258 20.5715 14.1219 20.56 14.1175 20.5488C13.4867 19.3877 12.8187 18.7953 12.1237 18.6052C11.4286 18.4151 10.7916 18.6606 10.2912 18.9482C10.2834 18.9517 10.2757 18.9555 10.2681 18.9596C9.70322 19.3333 9.25501 19.7607 9.08103 20.3773C8.90705 20.9939 9.01435 21.722 9.39221 22.6867C9.39596 22.6906 9.39981 22.6944 9.40373 22.6982L10.5101 25.2591C10.5101 25.263 10.5101 25.2668 10.5101 25.2706C12.5991 29.6342 14.5918 32.6416 16.4571 34.8628C16.4917 34.9056 16.5355 34.9402 16.5854 34.964C16.6353 34.9877 16.6899 35 16.7452 35H26.7029C26.7827 34.9975 26.8596 34.9695 26.9219 34.92C28.8452 33.5066 30.3846 29.9577 30.9327 26.6197C31.2067 24.9506 31.2169 23.3409 30.8289 22.0579C30.4409 20.7749 29.5713 19.7919 28.2127 19.6341C28.2012 19.6336 28.1897 19.6336 28.1782 19.6341C27.9365 19.6341 27.6215 19.6528 27.3138 19.7142C27.1826 19.7405 27.0728 19.8284 26.945 19.8742C26.8177 19.315 26.5591 18.8495 26.1958 18.5938C25.7245 18.2618 25.2139 18.1647 24.8474 18.1707C24.3378 18.1792 23.9269 18.4485 23.5681 18.8224C23.4188 18.4188 23.1997 18.0814 22.9112 17.8735C22.4475 17.5393 21.9309 17.439 21.5397 17.439C21.0252 17.439 20.497 17.6266 20.0645 17.9421C20.0636 17.6282 20.065 17.2366 20.0645 16.8788C22.238 15.9014 23.7525 13.7368 23.7525 11.2195C23.7525 7.7889 20.9411 5 17.4828 5ZM17.4828 5.73171C20.5425 5.73171 23.0149 8.18435 23.0149 11.2195C23.0149 13.3238 21.813 15.1458 20.0645 16.0671C20.0633 14.3423 20.0624 12.4326 20.0645 11.2195C20.067 9.78617 18.9189 8.65854 17.4828 8.65854C16.0468 8.65854 14.9012 9.78693 14.9012 11.2195V16.0671C13.1527 15.1458 11.9508 13.3238 11.9508 11.2195C11.9508 8.18435 14.4232 5.73171 17.4828 5.73171ZM17.4828 9.39024C18.5414 9.39024 19.3287 10.1627 19.3269 11.2195C19.3235 13.1393 19.3168 17.1049 19.3269 18.9024C19.3283 18.9852 19.3579 19.065 19.4109 19.1289C19.4639 19.1928 19.5372 19.237 19.6188 19.2542C19.7004 19.2715 19.7854 19.2608 19.8601 19.2239C19.9348 19.187 19.9946 19.1261 20.0299 19.0511C20.2717 18.5525 20.9875 18.1707 21.5397 18.1707C21.7894 18.1707 22.187 18.242 22.4848 18.4566C22.7825 18.6712 23.0149 19.0018 23.0149 19.6341C23.0185 19.7138 23.0483 19.7901 23.0997 19.8515C23.1511 19.9128 23.2213 19.9558 23.2996 19.9739C23.3779 19.9921 23.46 19.9843 23.5334 19.9519C23.6069 19.9194 23.6676 19.8641 23.7064 19.7942C24.0408 19.1307 24.3549 18.9108 24.8589 18.9024C25.0492 18.8991 25.4582 18.9691 25.7694 19.1883C26.0806 19.4074 26.3341 19.7405 26.3341 20.3659C26.3366 20.4349 26.3588 20.5019 26.398 20.559C26.4373 20.6161 26.492 20.661 26.5559 20.6885C26.6198 20.716 26.6903 20.725 26.7591 20.7145C26.828 20.7039 26.8924 20.6742 26.945 20.6288C27.0163 20.5631 27.2242 20.4708 27.4636 20.423C27.703 20.3753 27.9759 20.3659 28.1782 20.3659C29.2084 20.5044 29.7951 21.1699 30.1259 22.2637C30.4621 23.3754 30.4689 24.9077 30.2066 26.5053C29.6888 29.6593 28.0988 33.0654 26.5416 34.2683H16.9296C15.1345 32.1111 13.2107 29.2164 11.1786 24.9733V24.9619L10.0837 22.4238C10.0821 22.4194 10.0854 22.4164 10.0837 22.4123C9.73855 21.527 9.68639 20.9586 9.79559 20.5716C9.90351 20.1891 10.1728 19.9026 10.66 19.577C10.6679 19.5726 10.6751 19.5699 10.683 19.5655C11.0968 19.3314 11.5045 19.1983 11.9277 19.314C12.3551 19.4309 12.8886 19.8378 13.4606 20.8803C13.4657 20.8898 13.467 20.8937 13.4721 20.9032L14.9358 24.173C14.9711 24.248 15.0309 24.3089 15.1056 24.3458C15.1803 24.3827 15.2653 24.3934 15.3469 24.3762C15.4285 24.3589 15.5018 24.3147 15.5548 24.2508C15.6078 24.187 15.6374 24.1071 15.6388 24.0244V11.2195C15.6388 10.1619 16.4243 9.39024 17.4828 9.39024Z" fill="white" fill-opacity="0.75"/>
<path d="M14.3446 20.443L14.3502 20.4575C14.3552 20.47 14.3597 20.4827 14.3637 20.4955L14.6512 21.1382V17.0383C12.4718 15.9923 10.9632 13.7828 10.9632 11.2195C10.9632 7.64894 13.8884 4.75 17.4828 4.75C21.0773 4.75 24.0025 7.64894 24.0025 11.2195C24.0025 13.7827 22.494 15.9922 20.3146 17.0382C20.3146 17.1531 20.3145 17.269 20.3144 17.3832C20.3143 17.421 20.3143 17.4586 20.3143 17.4959C20.6958 17.3009 21.1193 17.189 21.5397 17.189C21.97 17.189 22.5414 17.2988 23.0573 17.6707C23.3075 17.851 23.5047 18.106 23.6551 18.3986C23.984 18.125 24.373 17.9286 24.8433 17.9208L24.8433 17.9208C25.2533 17.9141 25.8181 18.022 26.3398 18.3893C26.6975 18.6413 26.9526 19.0494 27.1064 19.52C27.1529 19.4998 27.2062 19.4808 27.2646 19.4691L27.2649 19.469C27.591 19.4039 27.9209 19.3844 28.173 19.3841C28.1901 19.3835 28.2073 19.3836 28.2244 19.3844L28.233 19.3848L28.2416 19.3858C29.728 19.5584 30.6609 20.6385 31.0682 21.9856C31.4717 23.3198 31.4565 24.9722 31.1794 26.6602C30.9019 28.3504 30.3735 30.0944 29.6694 31.5976C28.9685 33.0941 28.0819 34.3764 27.0733 35.119C26.9694 35.2 26.8423 35.2458 26.7107 35.2499L26.7029 35.2501V35.25H16.7454H16.7452V35C16.6899 35 16.6353 34.9877 16.5854 34.964C16.5355 34.9402 16.4917 34.9056 16.4571 34.8628L14.3446 20.443ZM14.3446 20.443L14.3372 20.4294C13.6912 19.2407 12.9788 18.5799 12.1896 18.364C11.4027 18.1488 10.6955 18.4289 10.1758 18.7261C10.1669 18.7304 10.158 18.7349 10.1493 18.7396L10.1395 18.7449L10.1302 18.7511C9.54687 19.137 9.03863 19.607 8.84042 20.3094L9.08103 20.3773L8.84042 20.3094C8.64436 21.0043 8.7744 21.7949 9.15942 22.7779L9.17762 22.8244L9.19265 22.84L10.2608 25.3123L10.261 25.3292L10.2847 25.3785C12.3807 29.7569 14.3837 32.7823 16.2643 35.022L14.3446 20.443ZM19.0769 18.9066L19.0769 18.9038C19.0668 17.1052 19.0735 13.1384 19.0769 11.2191C19.0785 10.3035 18.4062 9.64024 17.4828 9.64024C16.5598 9.64024 15.8888 10.3025 15.8888 11.2195V24.0244V24.0286H15.8888C15.8864 24.1684 15.8364 24.303 15.7472 24.4105C15.658 24.518 15.5351 24.5919 15.3986 24.6207C15.2622 24.6496 15.1199 24.6317 14.9948 24.5699C14.8698 24.5081 14.769 24.4059 14.7096 24.2794L14.7076 24.2752L14.7076 24.2752L13.247 21.0123C13.2442 21.0068 13.2422 21.0025 13.2409 20.9998L13.2408 20.9996L13.2403 20.9986C12.6832 19.9838 12.1944 19.6461 11.8618 19.5552C11.534 19.4655 11.1994 19.5606 10.8061 19.7831L10.8046 19.784C10.7972 19.7881 10.7902 19.7916 10.785 19.7941C10.325 20.1036 10.1191 20.3458 10.0362 20.6395C9.94934 20.9473 9.97788 21.4524 10.3164 22.321L19.0769 18.9066ZM19.0769 18.9066C19.0792 19.0464 19.1293 19.1811 19.2185 19.2885C19.3077 19.396 19.4306 19.47 19.5671 19.4988C19.7035 19.5276 19.8458 19.5098 19.9708 19.448C20.0954 19.3864 20.1958 19.2848 20.2554 19.159M19.0769 18.9066L20.2554 19.159M20.2554 19.159C20.3474 18.9701 20.5417 18.7832 20.7917 18.6414C21.041 18.5 21.3158 18.4207 21.5397 18.4207C21.7568 18.4207 22.097 18.4853 22.3386 18.6594C22.4618 18.7482 22.5646 18.8555 22.6384 19.0015C22.7127 19.1484 22.7649 19.349 22.7649 19.6341H22.7646L22.7652 19.6455C22.7713 19.7801 22.8216 19.9088 22.9081 20.012C22.9945 20.1152 23.1122 20.1872 23.2432 20.2175C23.3741 20.2478 23.5115 20.2349 23.6344 20.1805C23.7574 20.1262 23.8596 20.0333 23.925 19.9156L23.9251 19.9157L23.9297 19.9067C24.0897 19.5892 24.2309 19.4074 24.3701 19.3019C24.5014 19.2024 24.6505 19.1559 24.8631 19.1524L24.8633 19.1524C25.0133 19.1498 25.367 19.2107 25.6255 19.3927C25.7578 19.4859 25.869 19.5968 25.9487 19.7438C26.0282 19.8906 26.0841 20.0881 26.0841 20.3659H26.084L26.0843 20.3748C26.0885 20.4915 26.1259 20.6044 26.192 20.7006C26.2581 20.7967 26.35 20.8721 26.4571 20.9182C26.5641 20.9642 26.6819 20.9792 26.7971 20.9616C26.9122 20.9439 27.0202 20.8942 27.1084 20.818L27.1085 20.8181L27.1144 20.8127C27.1138 20.8132 27.1138 20.8132 27.1145 20.8127C27.1165 20.8112 27.1255 20.8045 27.1446 20.7938C27.1674 20.781 27.1982 20.7661 27.2362 20.7505C27.3122 20.7193 27.4087 20.6889 27.5125 20.6682C27.7212 20.6266 27.9659 20.6164 28.1612 20.6159C28.618 20.6803 28.9649 20.8576 29.2366 21.1323C29.5153 21.4143 29.7284 21.8129 29.8866 22.3361C30.2073 23.3965 30.2191 24.886 29.9599 26.4648C29.7049 28.0177 29.1852 29.6356 28.5377 31.012C27.9062 32.3542 27.1663 33.4386 26.4545 34.0183H17.0471C15.2954 31.8972 13.4157 29.0567 11.4286 24.9165V24.9103L11.4082 24.8629L20.2554 19.159ZM17.4828 5.98171C20.4063 5.98171 22.7649 8.32431 22.7649 11.2195C22.7649 13.0755 21.7844 14.7034 20.3142 15.6339C20.3132 14.0298 20.3125 12.332 20.3145 11.2199C20.3173 9.64534 19.0541 8.40854 17.4828 8.40854C15.9111 8.40854 14.6512 9.64646 14.6512 11.2195V15.6338C13.1812 14.7032 12.2008 13.0753 12.2008 11.2195C12.2008 8.32431 14.5594 5.98171 17.4828 5.98171Z" stroke="white" stroke-opacity="0.75" stroke-width="0.5"/>
</svg>
