<svg width="29" height="29" viewBox="0 0 29 29" fill="none" xmlns="http://www.w3.org/2000/svg">
<path d="M14.5 29C22.5081 29 29 22.5081 29 14.5C29 6.49187 22.5081 0 14.5 0C6.49187 0 0 6.49187 0 14.5C0 22.5081 6.49187 29 14.5 29Z" fill="white"/>
<mask id="mask0" mask-type="alpha" maskUnits="userSpaceOnUse" x="0" y="0" width="29" height="29">
<path d="M14.5 29C22.5081 29 29 22.5081 29 14.5C29 6.49187 22.5081 0 14.5 0C6.49187 0 0 6.49187 0 14.5C0 22.5081 6.49187 29 14.5 29Z" fill="white"/>
</mask>
<g mask="url(#mask0)">
<path d="M9.5224 6C7.5754 6 6 7.57769 6 9.52469V19.477C6 21.424 7.5754 23 9.5224 23H19.4753C21.4223 23 23 21.424 23 19.477V9.52469C23 7.57769 21.4223 6 19.4753 6H9.5224ZM9.5224 6.5862H19.4753C21.1077 6.5862 22.4132 7.89232 22.4132 9.52469V19.477C22.4132 21.1094 21.1077 22.4132 19.4753 22.4132H9.5224C7.89002 22.4132 6.58621 21.1094 6.58621 19.477V9.52469C6.58621 7.89232 7.89002 6.5862 9.5224 6.5862ZM8.55722 7.56627C8.30354 7.56627 8.04915 7.66553 7.85652 7.85824C7.47156 8.24318 7.47156 8.87581 7.85652 9.26076L8.99458 10.3965L7.85652 11.5346C7.47141 11.9197 7.47141 12.5538 7.85652 12.9389C8.2416 13.324 8.87339 13.324 9.2585 12.9389L10.3966 11.8008L11.5346 12.9389C11.9197 13.324 12.5515 13.324 12.9366 12.9389C13.3217 12.5538 13.3217 11.9197 12.9366 11.5346L11.7985 10.3988L12.9366 9.26076C13.3216 8.87581 13.3216 8.24318 12.9366 7.85824C12.5515 7.47315 11.9197 7.47315 11.5346 7.85824L10.3966 8.99457L9.2585 7.85824C9.06616 7.66591 8.81093 7.56627 8.55722 7.56627V7.56627ZM16.7641 7.56627C16.5104 7.56627 16.2561 7.66553 16.0634 7.85824C15.6785 8.24318 15.6785 8.87581 16.0634 9.26076L17.1992 10.3965L16.0634 11.5346C15.6783 11.9197 15.6783 12.5538 16.0634 12.9389C16.4485 13.324 17.0803 13.324 17.4654 12.9389L18.6035 11.8008L19.7415 12.9389C20.1266 13.324 20.7584 13.324 21.1435 12.9389C21.5286 12.5538 21.5286 11.9197 21.1435 11.5346L20.0077 10.3965L21.1435 9.26076C21.5284 8.87581 21.5284 8.24318 21.1435 7.85824C20.7584 7.47315 20.1266 7.47315 19.7415 7.85824L18.6035 8.99457L17.4654 7.85824C17.2731 7.66592 17.0178 7.56627 16.7641 7.56627ZM12.2348 8.14961C12.3375 8.14961 12.4397 8.19024 12.521 8.27155C12.6837 8.43429 12.6837 8.68243 12.521 8.84516L11.1774 10.191C11.1228 10.246 11.0922 10.3202 11.0922 10.3977C11.0922 10.4751 11.1228 10.5494 11.1774 10.6043L12.521 11.9502C12.6836 12.1128 12.6836 12.3607 12.521 12.5233C12.3584 12.6859 12.1105 12.6859 11.948 12.5233L10.6044 11.1797C10.5771 11.1523 10.5447 11.1306 10.5091 11.1157C10.4734 11.1009 10.4352 11.0933 10.3966 11.0933C10.3579 11.0933 10.3197 11.1009 10.284 11.1157C10.2484 11.1306 10.216 11.1523 10.1887 11.1797L8.84516 12.5233C8.68257 12.6859 8.43241 12.6859 8.26983 12.5233C8.10727 12.3607 8.10727 12.1128 8.26983 11.9502L9.6157 10.6043C9.67029 10.5494 9.70094 10.4751 9.70094 10.3977C9.70094 10.3202 9.67029 10.246 9.6157 10.191L8.26983 8.84516C8.10712 8.68243 8.10712 8.43428 8.26983 8.27155C8.35105 8.19032 8.45352 8.15304 8.55722 8.15304V8.15247C8.66092 8.15247 8.76368 8.19009 8.84516 8.27153L10.1887 9.61511C10.2158 9.64264 10.2481 9.66455 10.2837 9.67957C10.3193 9.6946 10.3575 9.70243 10.3961 9.70265C10.4347 9.70286 10.473 9.69545 10.5087 9.68082C10.5445 9.66619 10.577 9.64464 10.6044 9.61741L11.948 8.27155C12.0292 8.1902 12.1321 8.1496 12.2348 8.1496V8.14961ZM20.4411 8.14961C20.5438 8.14961 20.6466 8.19024 20.7279 8.27155C20.8906 8.43428 20.8906 8.68243 20.7279 8.84516L19.3843 10.191C19.3297 10.246 19.2991 10.3202 19.2991 10.3977C19.2991 10.4751 19.3297 10.5494 19.3843 10.6043L20.7279 11.9502C20.8905 12.1128 20.8905 12.3607 20.7279 12.5233C20.5653 12.6859 20.3174 12.6859 20.1549 12.5233L18.8113 11.1797C18.784 11.1523 18.7517 11.1306 18.716 11.1157C18.6803 11.1009 18.6421 11.0933 18.6035 11.0933C18.5648 11.0933 18.5266 11.1009 18.4909 11.1157C18.4553 11.1306 18.4229 11.1523 18.3956 11.1797L17.0521 12.5233C16.8895 12.6858 16.6388 12.6858 16.4762 12.5233C16.3136 12.3607 16.3136 12.1128 16.4762 11.9502L17.822 10.6043C17.8766 10.5494 17.9073 10.4751 17.9073 10.3977C17.9073 10.3202 17.8766 10.246 17.822 10.191L16.4762 8.84516C16.3134 8.68243 16.3134 8.43428 16.4762 8.27155C16.5574 8.19032 16.6604 8.15304 16.7641 8.15304V8.15247C16.8678 8.15247 16.9705 8.19009 17.0521 8.27153L18.3956 9.61511C18.4227 9.64264 18.455 9.66455 18.4906 9.67957C18.5262 9.6946 18.5644 9.70243 18.603 9.70265C18.6416 9.70286 18.6799 9.69545 18.7156 9.68082C18.7514 9.66619 18.7839 9.64464 18.8113 9.61741L20.1549 8.27155C20.2361 8.1902 20.3384 8.1496 20.4411 8.1496V8.14961ZM14.4765 16.3033C13.7844 16.3067 13.0932 16.4455 12.4695 16.7189C11.222 17.2656 10.415 18.2997 10.4332 19.449C10.433 19.5218 10.4599 19.5921 10.5087 19.6462C10.5575 19.7003 10.6246 19.7343 10.6971 19.7415C10.7387 19.7457 10.7806 19.741 10.8202 19.7276C10.8598 19.7142 10.896 19.6926 10.9265 19.664C10.9571 19.6355 10.9811 19.6008 10.9971 19.5623C11.0132 19.5237 11.0208 19.4821 11.0194 19.4404C11.0056 18.5718 11.6191 17.7313 12.7053 17.2553C13.7915 16.7792 15.1638 16.7731 16.258 17.2399C17.3523 17.7066 17.98 18.5415 17.98 19.4101C17.9792 19.4492 17.9861 19.4879 18.0005 19.5242C18.0148 19.5605 18.0363 19.5936 18.0636 19.6215C18.0909 19.6494 18.1235 19.6716 18.1595 19.6867C18.1955 19.7018 18.2341 19.7096 18.2731 19.7096C18.3122 19.7096 18.3508 19.7018 18.3868 19.6867C18.4228 19.6716 18.4554 19.6494 18.4827 19.6215C18.51 19.5936 18.5314 19.5605 18.5458 19.5242C18.5601 19.4879 18.5671 19.4492 18.5662 19.4101C18.5662 18.2607 17.7448 17.2349 16.4893 16.6995C15.8616 16.4318 15.1687 16.2999 14.4765 16.3033V16.3033Z" fill="#3BB30B"/>
</g>
</svg>
