<svg width="29" height="29" viewBox="0 0 29 29" fill="none" xmlns="http://www.w3.org/2000/svg">
<path d="M14.5 29C22.5081 29 29 22.5081 29 14.5C29 6.49187 22.5081 0 14.5 0C6.49187 0 0 6.49187 0 14.5C0 22.5081 6.49187 29 14.5 29Z" fill="white"/>
<mask id="mask0" mask-type="alpha" maskUnits="userSpaceOnUse" x="0" y="0" width="29" height="29">
<path d="M14.5 29C22.5081 29 29 22.5081 29 14.5C29 6.49187 22.5081 0 14.5 0C6.49187 0 0 6.49187 0 14.5C0 22.5081 6.49187 29 14.5 29Z" fill="white"/>
</mask>
<g mask="url(#mask0)">
<path d="M22.7781 14.4908L17.2243 14.0363C17.0465 13.5817 16.7896 13.1666 16.4338 12.8307L18.6078 7.90947C19.1217 6.7236 19.0426 5.35988 18.3706 4.25309C17.6987 3.14631 16.5721 2.45456 15.2875 2.35574H15.2282C14.5167 2.29646 13.8052 2.31622 13.1134 2.37551C11.8288 2.47433 10.7022 3.16607 10.0302 4.27286C9.35825 5.35988 9.25942 6.66432 9.75352 7.85013L11.8288 12.8702C11.473 13.226 11.2161 13.6607 11.0382 14.1351L6.05764 14.4316C4.77301 14.5106 3.64646 15.1628 2.95472 16.2499C2.26298 17.3369 2.12463 18.6413 2.59897 19.8469C2.8559 20.4991 3.17212 21.1513 3.50811 21.764L3.54764 21.8233C4.19985 22.9301 5.30664 23.6416 6.61108 23.7404C6.72963 23.7404 6.84824 23.7602 6.94707 23.7602C8.1131 23.7602 9.2397 23.2463 9.99074 22.3372L13.3703 18.3448C13.6273 18.4042 13.8842 18.4437 14.1609 18.4437C14.5957 18.4437 15.0108 18.3646 15.3863 18.2065L18.6671 22.2976C19.4182 23.2463 20.5645 23.7799 21.7701 23.7799C21.8491 23.7799 21.9282 23.7799 22.027 23.7799C23.3117 23.7009 24.458 23.0289 25.13 21.9222L25.1695 21.8628C25.5252 21.2699 25.8612 20.6375 26.1182 19.9852C26.6123 18.7994 26.5134 17.4752 25.8414 16.3684C25.1892 15.2814 24.0627 14.5897 22.7781 14.4908ZM10.722 4.66814C11.2556 3.77876 12.1648 3.22536 13.1925 3.14631C13.8644 3.08701 14.5364 3.08701 15.1886 3.12654H15.2479C16.2757 3.2056 17.165 3.75899 17.6987 4.64837C18.2323 5.55752 18.3114 6.62477 17.8765 7.57347L15.7816 12.3168C15.3073 12.0401 14.7538 11.882 14.1609 11.882C13.5482 11.882 12.9751 12.0599 12.5007 12.3366L10.4848 7.53392C10.1093 6.58527 10.1883 5.53776 10.722 4.66814ZM9.3978 21.8431C8.72582 22.6534 7.73761 23.0487 6.69013 22.9696C5.66239 22.8906 4.77301 22.3174 4.23938 21.428L4.19985 21.3687C3.86386 20.7956 3.56741 20.1829 3.33024 19.5702C2.95472 18.6018 3.05354 17.5543 3.60693 16.6847C4.16032 15.815 5.06947 15.3012 6.07742 15.2221L10.8801 14.9257C10.8801 15.0047 10.8603 15.0838 10.8603 15.1826C10.8603 16.4278 11.5521 17.495 12.56 18.0484L9.3978 21.8431ZM11.6706 15.1826C11.6706 13.8189 12.7775 12.6923 14.1609 12.6923C15.5444 12.6923 16.6512 13.7991 16.6512 15.1826C16.6512 16.5661 15.5444 17.6728 14.1609 17.6728C12.7775 17.6728 11.6706 16.5463 11.6706 15.1826ZM25.3869 19.669C25.13 20.2817 24.8335 20.8746 24.4777 21.4478L24.4382 21.5071C23.9046 22.3767 22.9954 22.9301 21.9677 22.9894C20.9202 23.0487 19.932 22.6139 19.2798 21.8035L16.078 17.831C16.8883 17.2381 17.422 16.2696 17.422 15.1826C17.422 15.064 17.422 14.9454 17.4022 14.8466L22.699 15.2814C23.7267 15.3605 24.6161 15.9139 25.1497 16.7835C25.7031 17.6728 25.8019 18.7204 25.3869 19.669Z" fill="#525252"/>
</g>
</svg>
