<svg width="29" height="29" viewBox="0 0 29 29" fill="none" xmlns="http://www.w3.org/2000/svg">
<path d="M14.5 29C22.5081 29 29 22.5081 29 14.5C29 6.49187 22.5081 0 14.5 0C6.49187 0 0 6.49187 0 14.5C0 22.5081 6.49187 29 14.5 29Z" fill="white"/>
<mask id="mask0" mask-type="alpha" maskUnits="userSpaceOnUse" x="0" y="0" width="29" height="29">
<path d="M14.5 29C22.5081 29 29 22.5081 29 14.5C29 6.49187 22.5081 0 14.5 0C6.49187 0 0 6.49187 0 14.5C0 22.5081 6.49187 29 14.5 29Z" fill="white"/>
</mask>
<g mask="url(#mask0)">
<path d="M21.4039 6.90644C20.0232 6.90644 18.9044 8.02526 18.9044 9.40592C18.9044 10.4771 19.5947 11.4293 20.5945 11.7626L20.5707 12.0244C20.4755 12.8814 20.3803 13.5717 19.928 14.2144C19.5709 14.7382 18.952 15 17.857 15.0714C17.2619 15.119 16.6191 15.1428 16.024 15.1666C15.4289 15.1904 14.7624 15.2142 14.1196 15.2619C13.0008 15.3333 11.6202 15.5713 10.7632 16.6425C10.4775 16.9996 10.2633 17.4043 10.0967 17.8327V9.92962C11.4297 9.59636 12.2629 8.2395 11.9296 6.90644C11.5964 5.57338 10.2395 4.74022 8.90644 5.07349C7.57338 5.40675 6.74022 6.76361 7.07349 8.09667C7.28773 9.00124 8.00187 9.71538 8.90644 9.92962V20.0704C7.57338 20.4036 6.74022 21.7367 7.07349 23.0936C7.40675 24.4266 8.73981 25.2598 10.0967 24.9265C11.4535 24.5933 12.2629 23.2602 11.9296 21.9033C11.7868 21.2606 11.3821 20.7131 10.8108 20.356C10.9298 19.1658 11.0727 18.1184 11.6916 17.3567C12.2629 16.6663 13.2865 16.4997 14.2149 16.4283C14.8338 16.3807 15.4765 16.3569 16.0954 16.3331C16.7143 16.3093 17.3333 16.2854 17.9522 16.2378C18.9282 16.1902 20.166 15.9522 20.9278 14.9048C21.5705 14.0002 21.6657 13.0718 21.7847 12.1673C21.7847 12.072 21.8085 11.9768 21.8323 11.8578C23.1892 11.6436 24.1176 10.3581 23.9033 9.00124C23.6891 7.78721 22.6417 6.90644 21.4039 6.90644ZM8.1923 7.50155C8.1923 6.78742 8.78742 6.1923 9.50155 6.1923C10.2157 6.1923 10.8108 6.78742 10.8108 7.50155C10.8108 8.21569 10.2395 8.81081 9.50155 8.81081C8.78742 8.81081 8.1923 8.21569 8.1923 7.50155ZM21.4039 10.7152C20.6897 10.7152 20.0946 10.1201 20.0946 9.40592C20.0946 8.69178 20.6897 8.09667 21.4039 8.09667C22.118 8.09667 22.7131 8.69178 22.7131 9.40592C22.7131 10.1201 22.118 10.7152 21.4039 10.7152Z" fill="#A9954D"/>
</g>
</svg>
