<svg width="29" height="29" viewBox="0 0 29 29" fill="none" xmlns="http://www.w3.org/2000/svg">
<path d="M14.5 29C22.5081 29 29 22.5081 29 14.5C29 6.49187 22.5081 0 14.5 0C6.49187 0 0 6.49187 0 14.5C0 22.5081 6.49187 29 14.5 29Z" fill="white"/>
<mask id="mask0" mask-type="alpha" maskUnits="userSpaceOnUse" x="0" y="0" width="29" height="29">
<path d="M14.5 29C22.5081 29 29 22.5081 29 14.5C29 6.49187 22.5081 0 14.5 0C6.49187 0 0 6.49187 0 14.5C0 22.5081 6.49187 29 14.5 29Z" fill="white"/>
</mask>
<g mask="url(#mask0)">
</g>
<path d="M5.26104 18.797L5.26104 18.797C5.58718 17.5768 6.83658 16.8603 8.05246 17.1859L5.26104 18.797ZM5.26104 18.797C4.93625 20.0121 5.65441 21.263 6.87302 21.5887L5.26104 18.797ZM6.86225 16.6521L6.84287 16.6565C5.83235 16.8869 5.03087 17.6399 4.75643 18.6626C4.35664 20.1611 5.23551 21.6899 6.73763 22.0927L6.86225 16.6521ZM6.86225 16.6521L6.88121 16.6461M6.86225 16.6521L6.88121 16.6461M6.88121 16.6461C7.70693 16.3874 8.60001 16.003 9.52242 15.5417C9.7981 15.6912 10.0774 15.8474 10.3595 16.0092M6.88121 16.6461L10.3595 16.0092M10.3595 16.0092L9.45499 16.5315L8.86806 16.8704L9.36511 17.3312C10.1173 18.0285 10.4375 19.1037 10.1677 20.1119L10.3595 16.0092ZM6.87315 21.5888C8.08681 21.9133 9.33734 21.2006 9.66441 19.9775L6.87315 21.5888ZM9.66443 19.9774C9.98949 18.7623 9.27272 17.5123 8.05261 17.1859L9.66443 19.9774ZM10.1677 20.112C9.7686 21.6018 8.23029 22.4915 6.73776 22.0927L10.1677 20.112Z" fill="#AAAAAA" stroke="#AAAAAA"/>
<path d="M13.6961 13.1365C15.0345 12.2901 16.3546 11.404 17.5572 10.5966C17.8607 10.3928 18.1568 10.1941 18.4438 10.0023C20.0923 8.90042 21.3999 8.05681 22.1542 7.74497L22.1543 7.74495C22.48 7.61026 22.8411 7.62398 23.2805 7.7742C23.5197 7.85597 23.7683 7.97347 24.0298 8.11685L14.5157 13.6097L13.6961 13.1365Z" fill="#AAAAAA" stroke="#AAAAAA"/>
<path d="M9.66346 9.22245L9.66352 9.22268C9.9884 10.4388 9.27303 11.6881 8.0517 12.014C6.83692 12.3382 5.58644 11.6234 5.26058 10.4028L9.66346 9.22245ZM9.66346 9.22245C9.33768 8.00525 8.08876 7.28513 6.87174 7.61159M9.66346 9.22245L6.87174 7.61159M6.87174 7.61159C5.65348 7.93836 4.93496 9.18451 5.26052 10.4026L6.87174 7.61159ZM6.80722 12.5364L6.79359 12.5321L6.77973 12.5286C5.79722 12.2803 5.02364 11.5365 4.75697 10.5377L4.75681 10.5371C4.35756 9.0491 5.24912 7.50629 6.73777 7.1071C8.22767 6.70934 9.76815 7.59869 10.1679 9.08803C10.4401 10.1071 10.1116 11.1967 9.33626 11.8951L8.82505 12.3556L9.42091 12.6996L24.0529 21.1474C23.7914 21.2907 23.5428 21.4083 23.3036 21.4901C22.8642 21.6404 22.503 21.6542 22.1772 21.5195L22.1771 21.5195C21.5916 21.2776 20.659 20.7091 19.474 19.933C18.8544 19.5272 18.1884 19.0799 17.4833 18.6064C16.8411 18.1751 16.1665 17.7221 15.4653 17.259C12.5705 15.347 9.31696 13.3257 6.80722 12.5364Z" fill="#AAAAAA" stroke="#AAAAAA"/>
</svg>
