<svg width="29" height="29" viewBox="0 0 29 29" fill="none" xmlns="http://www.w3.org/2000/svg">
<path d="M14.5 29C22.5081 29 29 22.5081 29 14.5C29 6.49187 22.5081 0 14.5 0C6.49187 0 0 6.49187 0 14.5C0 22.5081 6.49187 29 14.5 29Z" fill="white"/>
<mask id="mask0" mask-type="alpha" maskUnits="userSpaceOnUse" x="0" y="0" width="29" height="29">
<path d="M14.5 29C22.5081 29 29 22.5081 29 14.5C29 6.49187 22.5081 0 14.5 0C6.49187 0 0 6.49187 0 14.5C0 22.5081 6.49187 29 14.5 29Z" fill="white"/>
</mask>
<g mask="url(#mask0)">
<path d="M10.4554 6L6 10.4554L19.5446 24L24 19.5446L10.4554 6ZM6.64604 10.4554L10.4554 6.62376L12.1931 8.36139L10.745 9.80941L11.0569 10.1213L12.505 8.67327L14.5545 10.7228L13.1064 12.1708L13.4183 12.4827L14.8663 11.0347L16.9158 13.0842L15.4455 14.5545L15.7574 14.8663L17.2277 13.396L19.2772 15.4455L17.8292 16.8936L18.1411 17.2277L19.5891 15.7797L23.3762 19.5668L19.5446 23.3762L6.64604 10.4554Z" fill="black"/>
<path d="M20.3103 18.7331L18.7351 20.3083L19.0502 20.6234L20.6254 19.0482L20.3103 18.7331Z" fill="black"/>
</g>
</svg>
