<svg width="29" height="29" viewBox="0 0 29 29" fill="none" xmlns="http://www.w3.org/2000/svg">
<path d="M14.5 29C22.5081 29 29 22.5081 29 14.5C29 6.49187 22.5081 0 14.5 0C6.49187 0 0 6.49187 0 14.5C0 22.5081 6.49187 29 14.5 29Z" fill="white"/>
<mask id="mask0" mask-type="alpha" maskUnits="userSpaceOnUse" x="0" y="0" width="29" height="29">
<path d="M14.5 29C22.5081 29 29 22.5081 29 14.5C29 6.49187 22.5081 0 14.5 0C6.49187 0 0 6.49187 0 14.5C0 22.5081 6.49187 29 14.5 29Z" fill="white"/>
</mask>
<g mask="url(#mask0)">
<path d="M20.4039 6.90644C19.0232 6.90644 17.9044 8.02526 17.9044 9.40592C17.9044 10.4771 18.5947 11.4293 19.5945 11.7626L19.5707 12.0244C19.4755 12.8814 19.3803 13.5717 18.928 14.2144C18.5709 14.7382 17.952 15 16.857 15.0714C16.2619 15.119 15.6191 15.1428 15.024 15.1666C14.4289 15.1904 13.7624 15.2142 13.1196 15.2619C12.0008 15.3333 10.6202 15.5713 9.7632 16.6425C9.47754 16.9996 9.2633 17.4043 9.09667 17.8327V9.92962C10.4297 9.59636 11.2629 8.2395 10.9296 6.90644C10.5964 5.57338 9.2395 4.74022 7.90644 5.07349C6.57338 5.40675 5.74022 6.76361 6.07349 8.09667C6.28773 9.00124 7.00187 9.71538 7.90644 9.92962V20.0704C6.57338 20.4036 5.74022 21.7367 6.07349 23.0936C6.40675 24.4266 7.73981 25.2598 9.09667 24.9265C10.4535 24.5932 11.2629 23.2602 10.9296 21.9033C10.7868 21.2606 10.3821 20.7131 9.81081 20.356C9.92983 19.1658 10.0727 18.1184 10.6916 17.3567C11.2629 16.6663 12.2865 16.4997 13.2149 16.4283C13.8338 16.3807 14.4765 16.3569 15.0954 16.3331C15.7143 16.3093 16.3333 16.2854 16.9522 16.2378C17.9282 16.1902 19.166 15.9522 19.9278 14.9048C20.5705 14.0002 20.6657 13.0718 20.7847 12.1673C20.7847 12.072 20.8085 11.9768 20.8323 11.8578C22.1892 11.6436 23.1176 10.3581 22.9033 9.00124C22.6891 7.78721 21.6417 6.90644 20.4039 6.90644ZM7.1923 7.50155C7.1923 6.78742 7.78742 6.1923 8.50155 6.1923C9.21569 6.1923 9.81081 6.78742 9.81081 7.50155C9.81081 8.21569 9.2395 8.81081 8.50155 8.81081C7.78742 8.81081 7.1923 8.21569 7.1923 7.50155ZM20.4039 10.7152C19.6897 10.7152 19.0946 10.1201 19.0946 9.40592C19.0946 8.69178 19.6897 8.09667 20.4039 8.09667C21.118 8.09667 21.7131 8.69178 21.7131 9.40592C21.7131 10.1201 21.118 10.7152 20.4039 10.7152Z" fill="black"/>
</g>
</svg>
