<svg width="29" height="29" viewBox="0 0 29 29" fill="none" xmlns="http://www.w3.org/2000/svg">
<path d="M14.5 29C22.5081 29 29 22.5081 29 14.5C29 6.49187 22.5081 0 14.5 0C6.49187 0 0 6.49187 0 14.5C0 22.5081 6.49187 29 14.5 29Z" fill="white"/>
<mask id="mask0" mask-type="alpha" maskUnits="userSpaceOnUse" x="0" y="0" width="29" height="29">
<path d="M14.5 29C22.5081 29 29 22.5081 29 14.5C29 6.49187 22.5081 0 14.5 0C6.49187 0 0 6.49187 0 14.5C0 22.5081 6.49187 29 14.5 29Z" fill="white"/>
</mask>
<g mask="url(#mask0)">
<path d="M12.2231 9.22314H4.26878C4.12037 9.22314 4 9.34347 4 9.49193V10.8735C4 11.0219 4.12037 11.1423 4.26878 11.1423H5.05233V19.5588C5.05233 21.3198 6.48499 22.7524 8.24597 22.7524C10.0069 22.7524 11.4396 21.3198 11.4396 19.5588V11.1423H12.2231C12.3716 11.1423 12.4919 11.0219 12.4919 10.8735V9.49193C12.4919 9.34347 12.3716 9.22314 12.2231 9.22314ZM8.24597 22.2148C6.78141 22.2148 5.5899 21.0233 5.5899 19.5588V15.7137H10.902V19.5588C10.902 21.0233 9.71052 22.2148 8.24597 22.2148ZM10.902 15.1761H5.5899V11.1423H10.902V15.1761ZM11.9543 10.6047H11.2087C11.1963 10.603 11.1837 10.6018 11.1708 10.6018H5.32111C5.30821 10.6018 5.29562 10.603 5.28322 10.6047H4.53757V9.76071H11.9543V10.6047V10.6047Z" fill="black"/>
<path d="M6.64656 16.8203C6.22135 16.8203 5.87533 17.1675 5.87524 17.5943C5.87524 18.0194 6.22126 18.3653 6.64656 18.3653C7.07169 18.3653 7.41757 18.0194 7.41757 17.5943C7.41757 17.1675 7.07169 16.8203 6.64656 16.8203ZM6.64656 17.8278C6.51768 17.8278 6.41281 17.723 6.41281 17.5944C6.41281 17.4618 6.51549 17.3579 6.64656 17.3579C6.77531 17.3579 6.88 17.464 6.88 17.5943C6.88 17.7208 6.77311 17.8278 6.64656 17.8278Z" fill="#E451A9"/>
<path d="M8.24669 16.262C7.89069 16.262 7.60107 16.5516 7.60107 16.9075C7.60107 17.2635 7.89069 17.5531 8.24669 17.5531C8.60265 17.5531 8.89226 17.2635 8.89226 16.9075C8.89226 16.5516 8.60265 16.262 8.24669 16.262ZM8.24669 17.0156C8.18711 17.0156 8.13864 16.9671 8.13864 16.9075C8.13864 16.848 8.18711 16.7996 8.24669 16.7996C8.30726 16.7996 8.3547 16.847 8.3547 16.9075C8.3547 16.9681 8.30726 17.0156 8.24669 17.0156Z" fill="#E451A9"/>
<path d="M9.83448 18.072C9.40936 18.072 9.06348 18.4179 9.06348 18.843C9.06348 19.2683 9.40936 19.6143 9.83448 19.6143C10.2598 19.6143 10.6058 19.2683 10.6058 18.843C10.6058 18.4179 10.2598 18.072 9.83448 18.072ZM9.83448 19.0768C9.70573 19.0768 9.60104 18.9719 9.60104 18.843C9.60104 18.7143 9.70573 18.6096 9.83448 18.6096C9.96556 18.6096 10.0682 18.7121 10.0682 18.843C10.0682 18.9719 9.96336 19.0768 9.83448 19.0768Z" fill="#E451A9"/>
<path d="M8.00546 19.9182C7.64963 19.9182 7.36011 20.2078 7.36011 20.5637C7.36011 20.9197 7.64959 21.2094 8.00546 21.2094C8.36141 21.2094 8.65103 20.9197 8.65103 20.5637C8.65103 20.2078 8.36141 19.9182 8.00546 19.9182ZM8.00546 20.6718C7.94601 20.6718 7.89767 20.6233 7.89767 20.5637C7.89767 20.5052 7.94704 20.4558 8.00546 20.4558C8.06504 20.4558 8.11346 20.5042 8.11346 20.5637C8.11346 20.6243 8.06602 20.6718 8.00546 20.6718Z" fill="#E451A9"/>
<path d="M7.89122 19.3915C8.24723 19.3915 8.53684 19.1019 8.53684 18.746C8.53684 18.39 8.24723 18.1003 7.89122 18.1003C7.53522 18.1003 7.24561 18.39 7.24561 18.746C7.24561 19.1019 7.53522 19.3915 7.89122 19.3915ZM7.89122 18.6379C7.95183 18.6379 7.99927 18.6854 7.99927 18.746C7.99927 18.8065 7.95179 18.8539 7.89122 18.8539C7.83164 18.8539 7.78317 18.8055 7.78317 18.746C7.78317 18.6864 7.83164 18.6379 7.89122 18.6379Z" fill="#E451A9"/>
<path d="M25.5741 15.378L21.3661 8.08933L22.043 7.69879C22.1048 7.66317 22.1499 7.6044 22.1683 7.5355C22.1868 7.4666 22.1771 7.39318 22.1413 7.3314L21.4491 6.13424C21.3747 6.00586 21.2104 5.96186 21.082 6.03605L14.194 10.0129C14.1322 10.0486 14.0871 10.1074 14.0687 10.1763C14.0503 10.2452 14.06 10.3187 14.0958 10.3804L14.7878 11.575C14.8377 11.6611 14.9279 11.7091 15.0207 11.7091C15.0663 11.7091 15.1125 11.6975 15.1547 11.6731L15.8319 11.2824L20.0403 18.5744C20.6078 19.5577 21.6706 20.1686 22.8141 20.1686C23.3719 20.1686 23.9218 20.0209 24.4039 19.7417C25.1397 19.3171 25.6671 18.6279 25.8888 17.8011C26.1105 16.9743 25.9987 16.1138 25.5741 15.378ZM15.1184 11.0734L14.6958 10.3438L21.1181 6.63584L21.5412 7.3676L20.8653 7.7576C20.865 7.75774 20.8647 7.75787 20.8644 7.75801L20.3275 8.06787L15.1184 11.0734ZM20.8013 8.41518L20.9005 8.35798L22.9179 11.8524L18.3147 14.509L16.2977 11.0141L20.8013 8.41518ZM25.3696 17.6619C25.185 18.3499 24.7467 18.9233 24.1348 19.2763C23.7342 19.5084 23.2774 19.6311 22.8141 19.6311C21.8621 19.6311 20.9777 19.1232 20.5059 18.3058L18.5834 14.9746L23.1867 12.318L25.1086 15.6468C25.4614 16.2581 25.5541 16.9737 25.3696 17.6619Z" fill="black"/>
<path d="M20.4352 15.3008C20.3004 15.3008 20.1673 15.3367 20.0501 15.4048C19.6815 15.619 19.5552 16.0918 19.7685 16.4587C19.9068 16.6966 20.1631 16.8443 20.4374 16.8443C20.5723 16.8443 20.7055 16.8083 20.8225 16.7403C21.1909 16.5262 21.3173 16.0534 21.1041 15.6863C20.9658 15.4485 20.7095 15.3008 20.4352 15.3008ZM20.5523 16.2756C20.5166 16.2963 20.478 16.3068 20.4374 16.3068C20.3539 16.3068 20.2757 16.2615 20.2333 16.1885C20.1689 16.0779 20.208 15.9348 20.3201 15.8696C20.3558 15.8488 20.3945 15.8383 20.4352 15.8383C20.5187 15.8383 20.597 15.8837 20.6393 15.9563C20.7036 16.0671 20.6646 16.2103 20.5523 16.2756Z" fill="#4BDBCA"/>
<path d="M21.48 15.3254C21.5926 15.3254 21.7036 15.2956 21.8021 15.2386C22.1097 15.0586 22.216 14.6626 22.0397 14.3569C21.9254 14.1569 21.7113 14.0327 21.4807 14.0327C21.3664 14.0327 21.2536 14.0634 21.1553 14.1207C21.0053 14.2074 20.8983 14.3472 20.8541 14.5143C20.8102 14.6805 20.834 14.854 20.9193 14.9998C21.0334 15.2006 21.2482 15.3254 21.48 15.3254ZM21.3739 14.6518C21.3781 14.6357 21.3903 14.6058 21.4254 14.5855C21.4428 14.5754 21.4614 14.5703 21.4807 14.5703C21.5194 14.5703 21.5539 14.5901 21.5734 14.6245C21.6032 14.676 21.584 14.7434 21.5318 14.7739C21.5159 14.7832 21.4984 14.7878 21.4799 14.7878C21.4496 14.7878 21.4092 14.7738 21.385 14.7312C21.3667 14.6999 21.3688 14.6708 21.3739 14.6518Z" fill="#4BDBCA"/>
<path d="M23.8217 14.7874C23.6868 14.7874 23.5537 14.8233 23.4364 14.8913C23.0679 15.1056 22.9417 15.5785 23.1551 15.9455C23.2936 16.1833 23.5499 16.3309 23.824 16.3309C23.959 16.3309 24.0922 16.2949 24.2094 16.2268C24.5777 16.0124 24.7038 15.5396 24.4907 15.173C24.3526 14.9351 24.0962 14.7874 23.8217 14.7874ZM23.939 15.7622C23.9034 15.7829 23.8647 15.7934 23.8241 15.7934C23.7405 15.7934 23.6622 15.7479 23.6197 15.6751C23.5554 15.5644 23.5945 15.4213 23.7065 15.3561C23.7422 15.3354 23.7809 15.3249 23.8217 15.3249C23.9053 15.3249 23.9835 15.3701 24.0258 15.443C24.0902 15.5537 24.0512 15.6969 23.939 15.7622Z" fill="#4BDBCA"/>
<path d="M23.1 17.3213C22.9879 17.3213 22.8769 17.3508 22.7764 17.4081C22.6268 17.4954 22.5201 17.6349 22.4759 17.8009C22.4316 17.9676 22.4554 18.1419 22.5415 18.2894C22.6556 18.4895 22.869 18.6138 23.0985 18.6138C23.2124 18.6138 23.3251 18.5831 23.4216 18.5267C23.5717 18.4413 23.6792 18.3023 23.7245 18.1353C23.7698 17.9683 23.7472 17.7943 23.6602 17.6437C23.5437 17.4448 23.329 17.3213 23.1 17.3213ZM23.2056 17.9946C23.2012 18.0107 23.189 18.0405 23.1529 18.061C23.1016 18.0909 23.0378 18.0744 23.0072 18.0208C22.9881 17.9882 22.9903 17.9583 22.9954 17.939C23.0028 17.9112 23.0212 17.8876 23.0449 17.8737C23.0622 17.8638 23.0807 17.8589 23.0999 17.8589C23.1396 17.8589 23.1755 17.88 23.1955 17.914C23.2144 17.9467 23.21 17.9786 23.2056 17.9946Z" fill="#4BDBCA"/>
<path d="M22.7177 16.6179C22.7629 16.4509 22.7402 16.2769 22.6534 16.1269C22.537 15.9277 22.3223 15.804 22.0929 15.804C21.9808 15.804 21.8698 15.8335 21.7704 15.8902C21.6202 15.9771 21.5132 16.1178 21.4692 16.2863C21.4258 16.4524 21.4495 16.6246 21.5359 16.7715C21.6506 16.9711 21.8642 17.0949 22.0941 17.0949C22.206 17.0949 22.317 17.0654 22.4149 17.0095C22.565 16.924 22.6726 16.7849 22.7177 16.6179ZM22.1988 16.4776C22.1945 16.4937 22.1822 16.5234 22.1489 16.5424C22.0966 16.5722 22.0306 16.5538 22.0019 16.5033C22.0011 16.502 22.0004 16.5006 21.9996 16.4993C21.9821 16.47 21.9844 16.4411 21.9893 16.4222C21.9937 16.4056 22.0059 16.375 22.0383 16.3563C22.0555 16.3464 22.0738 16.3415 22.0929 16.3415C22.1326 16.3415 22.1685 16.3626 22.1887 16.3971C22.2076 16.4298 22.2031 16.4616 22.1988 16.4776Z" fill="#4BDBCA"/>
</g>
</svg>
