<svg width="29" height="29" viewBox="0 0 29 29" fill="none" xmlns="http://www.w3.org/2000/svg">
<path d="M14.5 29C22.5081 29 29 22.5081 29 14.5C29 6.49187 22.5081 0 14.5 0C6.49187 0 0 6.49187 0 14.5C0 22.5081 6.49187 29 14.5 29Z" fill="white"/>
<mask id="mask0" mask-type="alpha" maskUnits="userSpaceOnUse" x="0" y="0" width="29" height="29">
<path d="M14.5 29C22.5081 29 29 22.5081 29 14.5C29 6.49187 22.5081 0 14.5 0C6.49187 0 0 6.49187 0 14.5C0 22.5081 6.49187 29 14.5 29Z" fill="white"/>
</mask>
<g mask="url(#mask0)">
<path d="M14.4219 2.0086C14.3539 2.02392 14.2918 2.05883 14.2434 2.10902L12.101 4.25141C12.068 4.28511 12.042 4.32498 12.0244 4.36874C12.0068 4.41249 11.998 4.45929 11.9985 4.50644C11.9991 4.55359 12.0088 4.60018 12.0274 4.64355C12.0459 4.68692 12.0728 4.72621 12.1065 4.75919C12.1402 4.79216 12.1801 4.81817 12.2238 4.83574C12.2676 4.8533 12.3144 4.86207 12.3615 4.86154C12.4087 4.86102 12.4553 4.85121 12.4986 4.83268C12.542 4.81415 12.5813 4.78725 12.6143 4.75353L14.1429 3.22485V8.79283C14.1423 8.84014 14.151 8.88712 14.1687 8.93103C14.1863 8.97493 14.2125 9.0149 14.2457 9.04859C14.2789 9.08229 14.3185 9.10904 14.3622 9.12731C14.4058 9.14557 14.4527 9.15497 14.5 9.15497C14.5473 9.15497 14.5942 9.14557 14.6378 9.12731C14.6815 9.10904 14.7211 9.08229 14.7543 9.04859C14.7875 9.0149 14.8137 8.97493 14.8313 8.93103C14.849 8.88712 14.8577 8.84014 14.8571 8.79283V3.22485L16.3857 4.75353C16.4187 4.78725 16.458 4.81415 16.5014 4.83268C16.5447 4.85121 16.5913 4.86102 16.6385 4.86154C16.6856 4.86207 16.7324 4.8533 16.7762 4.83574C16.8199 4.81817 16.8598 4.79216 16.8935 4.75919C16.9272 4.72621 16.9541 4.68692 16.9726 4.64355C16.9912 4.60018 17.0009 4.55359 17.0015 4.50644C17.002 4.45929 16.9932 4.41249 16.9756 4.36874C16.958 4.32498 16.932 4.28511 16.899 4.25141L14.7566 2.10902C14.7141 2.065 14.661 2.03265 14.6024 2.01506C14.5438 1.99747 14.4816 1.99525 14.4219 2.0086ZM5.87465 5.55693C5.78789 5.56787 5.70815 5.61026 5.65056 5.67607C5.59298 5.74189 5.56154 5.82655 5.56222 5.91399V8.94905C5.56155 8.99636 5.57029 9.04334 5.58794 9.08724C5.60558 9.13115 5.63178 9.17111 5.665 9.20481C5.69822 9.2385 5.73781 9.26526 5.78146 9.28352C5.82512 9.30179 5.87196 9.31119 5.91928 9.31119C5.9666 9.31119 6.01345 9.30179 6.05711 9.28352C6.10076 9.26526 6.14035 9.2385 6.17357 9.20481C6.20679 9.17111 6.23299 9.13115 6.25063 9.08724C6.26828 9.04334 6.27702 8.99636 6.27635 8.94905V6.78434L10.2041 10.7121C10.237 10.7458 10.2763 10.7727 10.3197 10.7912C10.363 10.8097 10.4096 10.8195 10.4568 10.8201C10.5039 10.8206 10.5507 10.8118 10.5945 10.7943C10.6383 10.7767 10.6781 10.7507 10.7118 10.7177C10.7455 10.6847 10.7724 10.6454 10.7909 10.6021C10.8095 10.5587 10.8193 10.5121 10.8198 10.465C10.8203 10.4178 10.8115 10.371 10.7939 10.3273C10.7764 10.2835 10.7503 10.2436 10.7173 10.2099L6.77847 6.27106H8.94318C8.99049 6.27173 9.03747 6.26299 9.08138 6.24534C9.12528 6.2277 9.16525 6.2015 9.19894 6.16828C9.23264 6.13506 9.25939 6.09547 9.27765 6.05182C9.29592 6.00816 9.30532 5.96131 9.30532 5.91399C9.30532 5.86667 9.29592 5.81983 9.27765 5.77617C9.25939 5.73252 9.23264 5.69293 9.19894 5.65971C9.16525 5.62649 9.12528 5.60029 9.08138 5.58265C9.03747 5.565 8.99049 5.55626 8.94318 5.55693H5.91928C5.90442 5.556 5.88951 5.556 5.87465 5.55693ZM20.0233 5.55693C19.9765 5.55913 19.9305 5.57054 19.888 5.59051C19.8455 5.61049 19.8074 5.63864 19.7758 5.67335C19.7119 5.74345 19.6786 5.83603 19.683 5.93073C19.6875 6.02543 19.7293 6.11449 19.7994 6.17831C19.8695 6.24214 19.9621 6.2755 20.0568 6.27106H22.2215L18.2827 10.2099C18.2497 10.2436 18.2236 10.2835 18.2061 10.3273C18.1885 10.371 18.1797 10.4178 18.1802 10.465C18.1807 10.5121 18.1905 10.5587 18.2091 10.6021C18.2276 10.6454 18.2545 10.6847 18.2882 10.7177C18.3219 10.7507 18.3617 10.7767 18.4055 10.7943C18.4493 10.8118 18.4961 10.8206 18.5432 10.8201C18.5904 10.8195 18.637 10.8097 18.6803 10.7912C18.7237 10.7727 18.763 10.7458 18.7959 10.7121L22.7236 6.78434V8.94905C22.723 8.99636 22.7317 9.04334 22.7494 9.08724C22.767 9.13115 22.7932 9.17111 22.8264 9.20481C22.8597 9.2385 22.8992 9.26526 22.9429 9.28352C22.9865 9.30179 23.0334 9.31119 23.0807 9.31119C23.128 9.31119 23.1749 9.30179 23.2185 9.28352C23.2622 9.26526 23.3018 9.2385 23.335 9.20481C23.3682 9.17111 23.3944 9.13115 23.4121 9.08724C23.4297 9.04334 23.4384 8.99636 23.4378 8.94905V5.91399C23.4378 5.8193 23.4001 5.72848 23.3332 5.66152C23.2662 5.59456 23.1754 5.55694 23.0807 5.55693H20.0568C20.0457 5.55641 20.0345 5.55641 20.0233 5.55693ZM14.5 11.2923C12.7294 11.2923 11.2864 12.7353 11.2864 14.5059C11.2864 16.2764 12.7294 17.7195 14.5 17.7195C16.2706 17.7195 17.7136 16.2764 17.7136 14.5059C17.7136 12.7353 16.2706 11.2923 14.5 11.2923ZM4.49102 11.9953C4.39776 11.9989 4.30964 12.039 4.24554 12.1068L2.10315 14.2492C2.03706 14.3161 2 14.4063 2 14.5003C2 14.5943 2.03706 14.6845 2.10315 14.7513L4.24554 16.8937C4.31227 16.9612 4.40297 16.9994 4.49782 17.0002C4.59267 17.0009 4.68397 16.9641 4.75177 16.8978C4.81957 16.8315 4.85838 16.741 4.8597 16.6462C4.86102 16.5513 4.82475 16.4598 4.75882 16.3916L3.23014 14.8629H8.78696C8.83428 14.8636 8.88125 14.8549 8.92516 14.8372C8.96907 14.8196 9.00903 14.7934 9.04272 14.7602C9.07642 14.7269 9.10318 14.6873 9.12144 14.6437C9.1397 14.6 9.14911 14.5532 9.14911 14.5059C9.14911 14.4585 9.1397 14.4117 9.12144 14.368C9.10318 14.3244 9.07642 14.2848 9.04272 14.2516C9.00903 14.2184 8.96907 14.1922 8.92516 14.1745C8.88125 14.1569 8.83428 14.1481 8.78696 14.1488H3.23014L4.75882 12.609C4.81133 12.5584 4.84709 12.4929 4.86131 12.4214C4.87552 12.3499 4.86752 12.2758 4.83836 12.209C4.8092 12.1422 4.76029 12.0859 4.6982 12.0477C4.63611 12.0094 4.56381 11.9912 4.49102 11.9953ZM24.4532 11.9953C24.3851 12.0019 24.3204 12.0279 24.2667 12.0702C24.213 12.1126 24.1726 12.1694 24.1502 12.2341C24.1279 12.2987 24.1246 12.3684 24.1407 12.4349C24.1569 12.5013 24.1917 12.5617 24.2412 12.609L25.7699 14.1488H20.213C20.1908 14.1467 20.1684 14.1467 20.1461 14.1488C20.0514 14.1577 19.9641 14.2038 19.9034 14.2771C19.8427 14.3503 19.8136 14.4446 19.8225 14.5393C19.8314 14.634 19.8775 14.7213 19.9508 14.782C20.024 14.8427 20.1183 14.8718 20.213 14.8629H25.7699L24.2412 16.3916C24.1752 16.4598 24.139 16.5513 24.1403 16.6462C24.1416 16.741 24.1804 16.8315 24.2482 16.8978C24.316 16.9641 24.4073 17.0009 24.5022 17.0002C24.597 16.9994 24.6877 16.9612 24.7545 16.8937L26.8968 14.7513C26.9629 14.6845 27 14.5943 27 14.5003C27 14.4063 26.9629 14.3161 26.8968 14.2492L24.7545 12.1068C24.7164 12.066 24.6694 12.0346 24.6171 12.0153C24.5648 11.9959 24.5086 11.989 24.4532 11.9953ZM14.5 12.0064C15.8846 12.0064 16.9995 13.1212 16.9995 14.5059C16.9995 15.8905 15.8846 17.0053 14.5 17.0053C13.1154 17.0053 12.0005 15.8905 12.0005 14.5059C12.0005 13.1212 13.1154 12.0064 14.5 12.0064ZM10.4495 18.1769C10.3563 18.1806 10.2682 18.2207 10.2041 18.2885L6.27635 22.2274V20.0515C6.27674 20.0006 6.26625 19.9502 6.24558 19.9037C6.22492 19.8572 6.19454 19.8157 6.1565 19.7819C6.11847 19.7481 6.07364 19.7228 6.02503 19.7077C5.97642 19.6926 5.92515 19.6881 5.87465 19.6945C5.78789 19.7054 5.70815 19.7478 5.65056 19.8136C5.59298 19.8794 5.56154 19.9641 5.56222 20.0515V23.0866C5.56223 23.1813 5.59985 23.2721 5.66681 23.3391C5.73377 23.406 5.82459 23.4436 5.91928 23.4436H8.94318C8.99049 23.4443 9.03747 23.4356 9.08138 23.4179C9.12528 23.4003 9.16525 23.3741 9.19894 23.3409C9.23264 23.3076 9.25939 23.2681 9.27765 23.2244C9.29592 23.1807 9.30532 23.1339 9.30532 23.0866C9.30532 23.0393 9.29592 22.9924 9.27765 22.9488C9.25939 22.9051 9.23264 22.8655 9.19894 22.8323C9.16525 22.7991 9.12528 22.7729 9.08138 22.7552C9.03747 22.7376 8.99049 22.7288 8.94318 22.7295H6.77847L10.7173 18.7906C10.7698 18.7401 10.8056 18.6746 10.8198 18.6031C10.834 18.5316 10.826 18.4575 10.7969 18.3907C10.7677 18.3238 10.7188 18.2675 10.6567 18.2293C10.5946 18.1911 10.5223 18.1728 10.4495 18.1769ZM18.5058 18.1769C18.4368 18.1817 18.3707 18.2063 18.3154 18.2479C18.2602 18.2895 18.2182 18.3462 18.1945 18.4112C18.1709 18.4762 18.1667 18.5466 18.1823 18.614C18.1979 18.6813 18.2328 18.7427 18.2827 18.7906L22.2215 22.7295H20.0568C20.0095 22.7288 19.9625 22.7376 19.9186 22.7552C19.8747 22.7729 19.8348 22.7991 19.8011 22.8323C19.7674 22.8655 19.7406 22.9051 19.7223 22.9488C19.7041 22.9924 19.6947 23.0393 19.6947 23.0866C19.6947 23.1339 19.7041 23.1807 19.7223 23.2244C19.7406 23.2681 19.7674 23.3076 19.8011 23.3409C19.8348 23.3741 19.8747 23.4003 19.9186 23.4179C19.9625 23.4356 20.0095 23.4443 20.0568 23.4436H23.0807C23.1754 23.4436 23.2662 23.406 23.3332 23.3391C23.4001 23.2721 23.4378 23.1813 23.4378 23.0866V20.0515C23.438 20.0017 23.4278 19.9524 23.4078 19.9067C23.3878 19.861 23.3584 19.8201 23.3216 19.7864C23.2849 19.7528 23.2414 19.7273 23.1942 19.7114C23.1469 19.6956 23.0969 19.6898 23.0472 19.6945C22.9585 19.7028 22.876 19.7441 22.8161 19.8102C22.7563 19.8763 22.7233 19.9624 22.7236 20.0515V22.2274L18.7959 18.2885C18.7591 18.2493 18.7139 18.2188 18.6637 18.1995C18.6134 18.1802 18.5595 18.1725 18.5058 18.1769ZM14.4554 19.8507C14.3666 19.8618 14.2853 19.9058 14.2275 19.974C14.1696 20.0422 14.1395 20.1296 14.1429 20.2189V25.7757L12.6143 24.247C12.5762 24.2062 12.5292 24.1748 12.4769 24.1555C12.4246 24.1361 12.3684 24.1292 12.313 24.1355C12.2449 24.1421 12.1802 24.1681 12.1265 24.2104C12.0728 24.2528 12.0324 24.3096 12.01 24.3743C11.9877 24.4389 11.9844 24.5086 12.0005 24.5751C12.0166 24.6415 12.0515 24.7019 12.101 24.7492L14.2434 26.8916C14.2767 26.926 14.3165 26.9533 14.3606 26.972C14.4047 26.9907 14.4521 27.0003 14.5 27.0003C14.5479 27.0003 14.5953 26.9907 14.6394 26.972C14.6835 26.9533 14.7233 26.926 14.7566 26.8916L16.899 24.7492C16.965 24.681 17.0012 24.5895 16.9999 24.4946C16.9986 24.3998 16.9598 24.3093 16.892 24.243C16.8242 24.1766 16.7329 24.1398 16.638 24.1406C16.5432 24.1414 16.4525 24.1796 16.3857 24.247L14.8571 25.7757V20.2189C14.8591 20.1671 14.8498 20.1154 14.8299 20.0676C14.8099 20.0197 14.7798 19.9768 14.7415 19.9417C14.7033 19.9067 14.6579 19.8804 14.6085 19.8647C14.5591 19.8489 14.5068 19.8442 14.4554 19.8507Z" fill="#6D70B9"/>
</g>
</svg>
