<svg width="63" height="63" viewBox="0 0 63 63" fill="none" xmlns="http://www.w3.org/2000/svg">
<path d="M31.5 63C48.897 63 63 48.897 63 31.5C63 14.103 48.897 0 31.5 0C14.103 0 0 14.103 0 31.5C0 48.897 14.103 63 31.5 63Z" fill="white"/>
<path d="M38.4186 34.373C38.3944 34.365 38.3711 34.3576 38.3485 34.3504C38.6588 33.5356 38.8067 32.6623 38.7612 31.6464C38.7566 28.6291 36.9523 26.0011 34.2997 24.8358C35.2598 23.5752 36.4869 22.551 37.9148 21.7983L37.9243 21.7933L37.9337 21.7878C38.7954 21.2848 39.7081 20.8821 40.6723 20.5796C41.5281 20.3302 42.4371 20.1798 43.3482 20.1296L43.3516 20.1294C44.1407 20.0805 44.9377 20.1778 45.7889 20.2834L45.7907 20.2837C47.459 20.4844 49.0791 21.0362 50.5497 21.8909C51.9544 22.7378 53.1056 23.8807 53.9577 25.3232L53.9613 25.3293L53.9651 25.3354C54.7124 26.5216 55.1679 27.8669 55.4233 29.2821C55.6764 30.9447 55.6256 32.555 55.2695 34.2203L55.2695 34.2203L55.2683 34.2261C55.0131 35.493 54.6036 36.7138 54.0885 37.8894L54.0884 37.8893L54.0849 37.8976C53.4635 39.3881 52.7055 40.7781 51.5672 41.8586L51.556 41.8693L51.5454 41.8806C50.9773 42.4912 50.2916 42.8903 49.485 42.9793L49.4773 42.9801L49.4696 42.9812C48.5417 43.1127 47.6756 42.7691 46.9023 42.1457L46.8927 42.1379L46.8827 42.1307C46.2481 41.6689 45.8017 41.0597 45.2876 40.358C45.2267 40.2749 45.1649 40.1906 45.1017 40.105C44.3889 39.0203 43.4651 38.1036 42.5844 37.2299L42.5707 37.2162C41.4115 36.0125 39.9867 35.092 38.471 34.3937L38.4454 34.3819L38.4186 34.373ZM43.3207 19.6304C42.3721 19.6826 41.4235 19.8395 40.5275 20.101L54.3882 25.0689C53.4923 23.5523 52.2801 22.3496 50.8045 21.4607C49.2761 20.5717 47.5898 19.9965 45.8504 19.7872C45.0072 19.6826 44.164 19.5782 43.3207 19.6304ZM54.1435 42.5891L54.1462 42.5856C55.4066 41.009 56.2722 39.122 56.914 37.2657C57.5832 35.4751 57.908 33.5964 57.9863 31.5484L58.0614 31.5228L57.9909 31.104C57.9743 31.0053 57.9641 30.8738 57.9505 30.6989C57.9463 30.6452 57.9419 30.5875 57.9368 30.5254C57.9174 30.288 57.89 30.0058 57.8325 29.7404C57.617 28.1474 57.237 26.5767 56.4671 25.1021C55.6976 23.5763 54.6004 22.2162 53.2851 21.1284C50.9259 19.1687 48.188 18.25 45.2076 18.034C43.5149 17.8722 41.8216 18.0346 40.1833 18.5211C37.6761 19.1715 35.493 20.4184 33.6409 22.2561L33.6338 22.2632L33.627 22.2705C33.1927 22.7374 32.7836 23.2271 32.3873 23.7189C32.3914 23.1483 32.4032 22.5826 32.4365 22.0181C32.5884 20.1183 33.1936 18.4072 34.0679 16.723C34.8701 15.184 35.5057 13.6135 35.3341 11.7408L35.3342 11.7408L35.3331 11.7308C35.2194 10.7143 34.8738 9.72323 34.1613 8.89795C33.1738 7.74558 31.8511 7.13058 30.4156 6.80187L30.4156 6.8018L30.407 6.79999C28.6002 6.4196 26.7501 6.42199 24.8125 6.68898C22.5611 6.95534 20.3925 7.49046 18.3232 8.57059C15.6614 9.91878 13.5226 11.8718 12.151 14.5928C10.8857 17.0503 10.5583 19.6723 11.0503 22.3859C11.5964 25.4731 13.0179 28.0726 15.1907 30.2826C16.9297 32.0619 18.9494 33.3634 21.3526 34.1222L21.3536 34.1225C21.8857 34.2893 22.4391 34.3984 22.9664 34.4965C23.0356 34.5094 23.1043 34.522 23.1724 34.5346C23.5249 34.5997 23.8633 34.6621 24.1897 34.7367L24.1645 34.7546C21.8322 36.4147 19.1864 37.1782 16.303 37.3825L16.303 37.3824L16.2934 37.3833C15.1172 37.4893 13.8254 37.7049 12.6818 38.3266C11.4316 38.949 10.4958 39.8709 9.97139 41.1997C9.38361 42.6592 9.57334 44.1504 10.0126 45.5126L10.0126 45.5126L10.0145 45.5183C10.6198 47.3203 11.6063 48.836 12.73 50.2695L12.7306 50.2703C14.0724 51.9749 15.5873 53.4815 17.4373 54.6694C19.7724 56.1779 22.3421 57.05 25.1393 57.05C26.3953 57.05 27.605 56.8874 28.8177 56.5049C31.3452 55.741 33.3689 54.2701 35.0497 52.3875C36.0899 51.2462 36.9096 49.9438 37.5099 48.536L37.5105 48.5345C38.2155 46.8659 38.652 45.1371 38.7611 43.2969L38.7612 43.2969L38.7615 43.2891C38.8646 40.934 38.4776 38.6668 37.5039 36.4959C39.0839 37.1955 40.4439 38.1979 41.5846 39.4242L41.5846 39.4242L41.5896 39.4294C42.0734 39.9347 42.5095 40.4687 42.9492 41.0222C43.0317 41.1261 43.1145 41.2309 43.1979 41.3364C43.5532 41.7859 43.9177 42.2472 44.3073 42.6986C44.7384 43.2326 45.2438 43.7928 45.8742 44.2477L45.88 44.2519L45.8859 44.2559C46.9515 44.9794 48.1705 45.4508 49.5809 45.3341L49.5821 45.334C51.6229 45.1604 52.9998 43.9941 54.1435 42.5891ZM25.5928 36.5916C27.9245 39.3533 32.1994 40.147 35.5465 37.8927C35.5579 37.9219 35.5692 37.9508 35.5805 37.9796L35.5827 37.9852C35.6757 38.2226 35.7633 38.4463 35.8378 38.6679L35.8378 38.6679C36.4449 40.4746 36.5969 42.2794 36.3434 44.141L36.3427 44.146C36.0384 46.562 35.1284 48.6675 33.5582 50.5272L33.5582 50.5271L33.5545 50.5317C31.7207 52.7559 29.4585 54.2411 26.5567 54.5891C23.4801 54.9389 20.7036 54.0926 18.2099 52.3256C15.9595 50.7013 14.2157 48.6175 12.877 46.1654L12.8755 46.1626C12.315 45.1512 11.9422 44.1492 11.989 43.0799L11.9892 43.076C12.0127 42.4207 12.1759 41.8974 12.4553 41.4678C12.736 41.0365 13.1532 40.6703 13.7289 40.3609L13.7335 40.3583C14.5938 39.884 15.5662 39.6853 16.5735 39.6354L16.5735 39.6355L16.5833 39.6348C18.9006 39.4744 21.178 38.9391 23.248 37.9131C23.7173 37.6936 24.1677 37.4357 24.61 37.1737C24.7197 37.1087 24.8286 37.0437 24.9372 36.9788C25.1549 36.8488 25.3716 36.7193 25.5928 36.5916ZM23.8889 32.3567C23.5536 32.2923 23.2266 32.2291 22.9357 32.165C20.5521 31.5598 18.4778 30.3535 16.8068 28.5951C15.3323 27.031 14.3177 25.269 13.7078 23.252C13.3031 21.8962 13.1526 20.5455 13.2533 19.1971L13.2534 19.1958C13.3532 17.8078 13.7523 16.5181 14.4044 15.3229C15.6637 13.0751 17.5274 11.4696 19.8689 10.3576C21.6562 9.54734 23.4945 9.09104 25.4399 8.93847C25.6439 8.92397 25.8398 8.90663 26.0304 8.88979C26.5723 8.84186 27.0702 8.79783 27.5808 8.83398L27.5892 8.83458L27.5977 8.83489C29.0238 8.88738 30.3801 8.99393 31.5763 9.70617L31.5834 9.71043L31.5907 9.71444C32.7763 10.368 33.1692 11.5939 33.0728 12.9484C32.9767 13.9841 32.5 14.9458 31.9701 15.9448L31.966 15.9525L31.9622 15.9603C31.2114 17.5034 30.6117 19.1191 30.3377 20.8021C30.1329 21.9716 29.9673 23.2409 30.1084 24.4813C28.4588 24.7657 27.0058 25.4883 25.8812 26.7138C24.7008 27.9426 24.0173 29.4086 23.9027 31.1483C23.8672 31.5414 23.8776 31.9582 23.8889 32.3567Z" fill="#7C7C7C" stroke="#7C7C7C"/>
<circle cx="31.3225" cy="31.7211" r="7.00164" fill="#3BB30B"/>
</svg>
