<svg width="21" height="14" viewBox="0 0 21 14" fill="none" xmlns="http://www.w3.org/2000/svg">
<path d="M20.844 2.10079C20.844 2.23442 20.7357 2.34275 20.6023 2.34275H0.385773C0.252143 2.34275 0.144043 2.23442 0.144043 2.10079V1.23024C0.144043 1.09661 0.252373 0.988281 0.385773 0.988281H20.6021C20.7357 0.988281 20.8438 1.09661 20.8438 1.23024V2.10079H20.844ZM18.4256 5.09953C18.4256 4.9659 18.3173 4.8578 18.1839 4.8578H2.80399C2.67036 4.8578 2.56226 4.96613 2.56226 5.09953V5.97008C2.56226 6.10371 2.67059 6.21181 2.80399 6.21181H18.1839C18.3175 6.21181 18.4256 6.10348 18.4256 5.97008V5.09953ZM16.0076 8.96859C16.0076 8.83496 15.8993 8.72686 15.7656 8.72686H5.22221C5.08858 8.72686 4.98025 8.83519 4.98025 8.96859V9.83914C4.98025 9.97277 5.08858 10.0809 5.22221 10.0809H15.7656C15.8993 10.0809 16.0076 9.97254 16.0076 9.83914V8.96859ZM13.5894 12.8379C13.5894 12.7043 13.4811 12.5959 13.3477 12.5959H7.64043C7.5068 12.5959 7.3987 12.7043 7.3987 12.8379V13.7084C7.3987 13.8421 7.50703 13.9504 7.64043 13.9504H13.3474C13.4811 13.9504 13.5892 13.8421 13.5892 13.7084V12.8379H13.5894Z" fill="#616161"/>
</svg>
