<svg width="30" height="30" viewBox="0 0 30 30" fill="none" xmlns="http://www.w3.org/2000/svg">
<path d="M15 30C23.2842 30 30 23.2842 30 15C30 6.71573 23.2842 0 15 0C6.71573 0 0 6.71573 0 15C0 23.2842 6.71573 30 15 30Z" fill="white"/>
<mask id="mask0_1943_1899" style="mask-type:alpha" maskUnits="userSpaceOnUse" x="3" y="3" width="25" height="25">
<path d="M15.5 28C22.4035 28 28 22.4035 28 15.5C28 8.59644 22.4035 3 15.5 3C8.59644 3 3 8.59644 3 15.5C3 22.4035 8.59644 28 15.5 28Z" fill="white"/>
</mask>
<g mask="url(#mask0_1943_1899)">
<path d="M19.675 8H10.375C9.34105 8 8.5 8.84105 8.5 9.875V20.525C8.5 21.559 9.34105 22.4 10.375 22.4H19.675C20.7089 22.4 21.55 21.559 21.55 20.525V9.875C21.55 8.84105 20.7089 8 19.675 8ZM18.4 15.575H20.8V17.075H18.4V15.575ZM18.4 14.825V13.325H20.8V14.825H18.4ZM18.4 12.575V11.075H20.8V12.575H18.4ZM17.65 14.825H12.4V8.75H17.65V14.825ZM11.65 17.075H9.25V15.575H11.65V17.075ZM9.25 14.825V13.325H11.65V14.825H9.25ZM11.65 12.575H9.25V11.075H11.65V12.575ZM9.25 17.825H11.65V19.325H9.25V17.825ZM12.4 15.575H17.65V21.65H12.4V15.575ZM18.4 17.825H20.8V19.325H18.4V17.825ZM20.8 9.875V10.325H18.4V8.75H19.675C20.2954 8.75 20.8 9.2546 20.8 9.875ZM10.375 8.75H11.65V10.325H9.25V9.875C9.25 9.2546 9.7546 8.75 10.375 8.75ZM9.25 20.525V20.075H11.65V21.65H10.375C9.7546 21.65 9.25 21.1454 9.25 20.525ZM19.675 21.65H18.4V20.075H20.8V20.525C20.8 21.1454 20.2954 21.65 19.675 21.65Z" fill="#26BC74"/>
</g>
</svg>
