<svg width="62" height="62" viewBox="0 0 62 62" fill="none" xmlns="http://www.w3.org/2000/svg">
<path d="M31 62C48.1208 62 62 48.1208 62 31C62 13.8792 48.1208 0 31 0C13.8792 0 0 13.8792 0 31C0 48.1208 13.8792 62 31 62Z" fill="white"/>
<g opacity="0.7">
<path d="M10.5 9.5H31.1426C31.8281 9.5 32.1713 10.3287 31.6867 10.8133C31.5657 10.9343 31.4078 11.0115 31.2381 11.0327L27.6985 11.4752C27.5674 11.4916 27.441 11.5337 27.3264 11.5992L24 13.5L17.7274 16.8775C17.5783 16.9579 17.4519 17.0748 17.3603 17.2173L13.1102 23.8285C13.0375 23.9417 12.9883 24.0684 12.9657 24.201L11.4857 32.8693C11.2796 34.0769 9.5 33.9261 9.5 32.701V10.5C9.5 9.94772 9.94772 9.5 10.5 9.5Z" fill="#8A8A8A" stroke="#4D4D4D"/>
<path d="M34.0002 44.4268C27.7011 44.4268 22.5733 39.3001 22.5733 32.9999C22.5736 26.7001 27.7011 21.573 34.0002 21.573C40.3001 21.573 45.4278 26.6998 45.4278 32.9999C45.4278 39.2997 40.2995 44.4268 34.0002 44.4268ZM34.0002 23.6586C28.8492 23.6586 24.6595 27.8491 24.6595 33.0005C24.6595 38.1516 28.8493 42.3425 34.0002 42.3425C39.1522 42.3425 43.3428 38.152 43.3428 33.0005C43.3428 27.8491 39.1523 23.6586 34.0002 23.6586Z" fill="#707070"/>
<path d="M34.0003 38.0453C31.2197 38.0453 28.9548 35.781 28.9548 32.9999C28.9548 30.2163 31.2191 27.9504 34.0003 27.9504C36.7817 27.9504 39.0504 30.2163 39.0504 32.9999C39.0504 35.781 36.7817 38.0453 34.0003 38.0453ZM34.0003 30.0353C32.3677 30.0353 31.0405 31.3648 31.0405 32.9996C31.0405 34.6329 32.3678 35.9602 34.0003 35.9602C35.6336 35.9602 36.9646 34.6329 36.9646 32.9996C36.9646 31.3651 35.6336 30.0353 34.0003 30.0353Z" fill="#707070"/>
<circle cx="34" cy="33" r="4" fill="#3BB30B"/>
<path d="M10.5009 33C10.5009 45.959 21.0399 56.5 34.0003 56.5C46.9574 56.5 57.5003 45.9585 57.5003 33C57.5003 20.0403 46.9574 9.5 34.0003 9.5C21.0399 9.5 10.5009 20.0403 10.5009 33ZM13.5852 32.9994C13.5852 21.7423 22.7438 12.5843 34.0003 12.5843C45.2574 12.5843 54.4162 21.7423 54.416 32.9994C54.416 44.2564 45.2574 53.4144 34.0003 53.4144C22.7445 53.4144 13.5852 44.2564 13.5852 32.9994Z" fill="#8E8E8E" stroke="#707070"/>
<path d="M29.0433 24.9699C28.9172 24.9699 28.7875 24.9479 28.6698 24.9007C28.3806 24.789 28.1564 24.5584 28.0586 24.2675C26.3721 19.4034 27.2234 14.5142 28.2333 11.2707C28.3473 10.9145 28.6404 10.6436 29.0032 10.5623C32.0694 9.8804 35.055 9.81288 38.2187 10.4051C38.5521 10.4681 38.8376 10.6921 38.9765 11.0043C39.1194 11.3157 39.0935 11.6778 38.9197 11.9695C37.5917 14.1587 36.0602 17.7947 36.2765 22.6915C36.2925 22.9967 36.1709 23.2936 35.947 23.5017C35.7223 23.7099 35.4131 23.8176 35.1155 23.7729L34.7897 23.7319C33.0669 23.504 31.23 23.9172 29.5445 24.8419C29.39 24.9267 29.2148 24.9699 29.043 24.9699L29.0433 24.9699ZM30.0503 12.4743C29.2972 15.1297 28.7383 18.7781 29.6874 22.4592C31.1408 21.8479 32.7049 21.5533 34.1703 21.5775C34.203 17.6252 35.2584 14.4773 36.3897 12.2311C34.2279 11.973 32.1801 12.061 30.0501 12.474L30.0503 12.4743Z" fill="#8E8E8E"/>
<path d="M24.0844 31.1299C23.9257 31.1299 23.7707 31.0957 23.6281 31.0258C18.9979 28.7783 16.1433 24.722 14.5589 21.7154C14.3851 21.3852 14.4002 20.9865 14.6043 20.6706C16.2901 18.0215 18.4441 15.7883 21.0015 14.0305C21.287 13.837 21.6416 13.7927 21.9635 13.9166C22.2808 14.0372 22.5208 14.3098 22.6022 14.6418C23.2142 17.1256 24.7001 20.7807 28.3244 24.0926C28.5484 24.3007 28.6707 24.5961 28.6616 24.9013C28.6502 25.2066 28.5029 25.4935 28.2629 25.6811C26.7314 26.8861 25.6328 28.5117 25.0828 30.3806C24.997 30.676 24.7852 30.916 24.5034 31.0406C24.369 31.0999 24.2263 31.13 24.0842 31.13L24.0844 31.1299ZM16.697 21.281C18.0408 23.6964 20.2315 26.6691 23.5061 28.5969C24.1005 27.1755 24.9723 25.8991 26.0756 24.8254C23.2858 21.9993 21.7954 19.0144 21.0057 16.6179C19.3442 17.9375 17.9022 19.4997 16.6972 21.2808L16.697 21.281Z" fill="#8E8E8E"/>
<path d="M19.3646 39.8899C16.4937 39.8899 13.9205 39.2772 12.2657 38.7638C11.9073 38.6528 11.6387 38.3599 11.5574 37.9946C11.1869 36.3332 11 34.6514 11 32.9998C11 31.6377 11.1345 30.2184 11.4031 28.7767C11.4639 28.441 11.6916 28.1555 12.0008 28.0174C12.3152 27.877 12.678 27.8997 12.9704 28.0767C15.1079 29.3751 18.7404 30.9355 23.6925 30.7214C24.0135 30.6668 24.2953 30.8277 24.5019 31.0541C24.7101 31.278 24.8116 31.5811 24.7753 31.8848L24.7335 32.2106C24.6972 32.4719 24.6599 32.7321 24.6599 33.0011C24.6599 34.5197 25.0556 36.0185 25.8369 37.4536C25.9879 37.7222 26.0085 38.0421 25.8992 38.329C25.7845 38.6145 25.5569 38.8362 25.2674 38.9381C23.4401 39.5703 21.4531 39.8899 19.3643 39.8899L19.3646 39.8899ZM13.4684 36.9462C14.9709 37.372 17.0682 37.8058 19.3651 37.8058C20.7986 37.8058 22.1707 37.638 23.4577 37.307C22.8754 35.91 22.5785 34.4665 22.5785 33.0004C22.5785 32.9411 22.5785 32.8842 22.5822 32.8266C18.6087 32.7962 15.4517 31.7258 13.2326 30.6033C13.1355 31.418 13.0861 32.2092 13.0861 32.9996C13.0848 34.3037 13.2109 35.6288 13.4682 36.9462L13.4684 36.9462Z" fill="#8E8E8E"/>
<path d="M22.2316 52.5581C22.0363 52.5581 21.8406 52.5034 21.6698 52.3957C19.0236 50.7115 16.7867 48.5574 15.0284 45.9935C14.8331 45.711 14.7916 45.3526 14.9145 45.0329C15.0328 44.7126 15.3055 44.4726 15.6397 44.3906C18.1271 43.7801 21.7885 42.2911 25.0993 38.676C25.3075 38.4521 25.6172 38.3359 25.9056 38.3374C26.2153 38.3503 26.5 38.4946 26.6884 38.7368C27.8933 40.2683 29.5137 41.3677 31.3831 41.9152C31.677 42.0002 31.917 42.2128 32.0431 42.4938C32.1654 42.7748 32.1607 43.0944 32.027 43.3707C29.7788 47.9948 25.7232 50.8537 22.7179 52.4375C22.5664 52.5171 22.3993 52.5581 22.2322 52.5581L22.2316 52.5581ZM17.6135 45.9888C18.9361 47.6533 20.5005 49.0989 22.2803 50.3024C24.6949 48.9546 27.6684 46.7656 29.595 43.4915C28.1775 42.8992 26.9025 42.0275 25.8318 40.9211C23.0049 43.711 20.0161 45.1977 17.6136 45.9889L17.6135 45.9888Z" fill="#8E8E8E"/>
<path d="M34.0002 55.9997C32.6319 55.9997 31.2104 55.8631 29.7771 55.5944C29.4392 55.5314 29.1545 55.3074 29.0156 54.996C28.8774 54.6846 28.8979 54.3217 29.0771 54.0308C30.4005 51.8416 31.9359 48.2055 31.7196 43.3024C31.7068 42.9972 31.8296 42.7011 32.0538 42.4937C32.2777 42.2848 32.5823 42.1763 32.8846 42.2233L33.2345 42.268C34.965 42.5026 36.769 42.0767 38.4555 41.1541C38.7242 41.0082 39.0455 40.9848 39.3303 41.0955C39.615 41.2072 39.8397 41.4371 39.9415 41.7288C41.6232 46.5943 40.7722 51.4871 39.7623 54.7331C39.6523 55.0893 39.3592 55.3602 38.9924 55.4423C37.3314 55.8118 35.6497 55.9994 34.0003 55.9994L34.0002 55.9997ZM31.601 53.768C33.7763 54.0285 35.8409 53.9403 37.9456 53.5295C38.7027 50.8705 39.2608 47.2197 38.3077 43.5377C36.859 44.1541 35.3357 44.4769 33.8248 44.4216C33.7921 48.3746 32.7343 51.5211 31.6007 53.768L31.601 53.768Z" fill="#8E8E8E"/>
<path d="M46.4078 52.1511C46.2818 52.1511 46.1557 52.1291 46.0373 52.0811C45.7153 51.962 45.4755 51.6879 45.3942 51.3567C44.7829 48.8706 43.2962 45.214 39.6803 41.9008C39.4525 41.6934 39.3304 41.398 39.3432 41.0905C39.3553 40.7853 39.5019 40.5005 39.7419 40.3115C41.2689 39.1125 42.3683 37.4868 42.918 35.6138C43.0038 35.3184 43.2156 35.0784 43.4974 34.9538C43.7777 34.8278 44.0958 34.8315 44.3766 34.9699C48.9984 37.2174 51.857 41.2759 53.4376 44.2834C53.6124 44.6129 53.5963 45.0123 53.3966 45.3282C51.7064 47.9789 49.5521 50.2143 46.9994 51.9677C46.819 52.0901 46.6163 52.1509 46.4082 52.1509L46.4078 52.1511ZM41.9249 41.1715C44.7147 43.9969 46.2004 46.9817 46.9948 49.3809C48.6523 48.0635 50.0981 46.4994 51.3033 44.7173C49.9554 42.3027 47.7688 39.3277 44.4942 37.4001C43.9032 38.823 43.0317 40.0994 41.9246 41.1716L41.9249 41.1715Z" fill="#8E8E8E"/>
<path d="M55.5716 38.0729C55.384 38.0729 55.1964 38.0227 55.0295 37.9233C52.8883 36.6264 49.2344 35.0722 44.3075 35.2808C43.9696 35.287 43.7047 35.1698 43.498 34.9467C43.2899 34.7227 43.192 34.4197 43.2294 34.1159L43.2704 33.7901C43.303 33.5289 43.344 33.2701 43.344 32.9997C43.344 31.4742 42.9454 29.9761 42.1589 28.545C42.0123 28.2763 41.9918 27.9543 42.102 27.6695C42.212 27.3825 42.4436 27.1586 42.7331 27.0583C44.5569 26.4272 46.541 26.1077 48.6253 26.1077C51.5046 26.1077 54.0823 26.7204 55.7356 27.2352C56.0948 27.347 56.3627 27.6406 56.4447 28.0074C56.8153 29.6891 57.0021 31.3689 57.0021 32.9997C57.0021 34.3666 56.8632 35.787 56.5958 37.2228C56.5335 37.5585 56.3095 37.8432 55.9966 37.9821C55.8612 38.0424 55.7131 38.0728 55.572 38.0728L55.5716 38.0729ZM45.4235 33.1745C49.3901 33.2071 52.5458 34.2779 54.7693 35.3963C54.8671 34.5816 54.9166 33.7798 54.9166 33C54.9166 31.7115 54.7861 30.3857 54.5292 29.0539C52.0942 28.3638 47.8954 27.8262 44.5444 28.6893C45.1307 30.0841 45.4283 31.5298 45.4283 33C45.4278 33.0583 45.4238 33.1161 45.4238 33.1745L45.4235 33.1745Z" fill="#8E8E8E"/>
<path d="M42.1324 27.6566H42.0921C41.7869 27.6445 41.5021 27.4979 41.3108 27.2579C40.1125 25.7265 38.4884 24.6293 36.6145 24.0796C36.3214 23.9938 36.0777 23.782 35.9546 23.501C35.8285 23.2224 35.8369 22.9004 35.9674 22.6241C38.215 18 42.2712 15.143 45.2809 13.5611C45.6067 13.3903 46.0054 13.4039 46.3228 13.6036C48.9741 15.29 51.2103 17.4419 52.9692 20.0014C53.1605 20.2847 53.206 20.6431 53.0832 20.9626C52.9616 21.2837 52.6875 21.5222 52.3587 21.6035C49.8749 22.2148 46.2136 23.7008 42.9028 27.3188C42.7029 27.5349 42.4219 27.6565 42.1324 27.6565L42.1324 27.6566ZM38.3989 22.5032C39.8196 23.0961 41.099 23.9656 42.1697 25.0727C44.9959 22.2814 47.9807 20.7947 50.3791 20.005C49.0602 18.346 47.4968 16.9003 45.7123 15.6965C43.2972 17.0422 40.3245 19.2298 38.3989 22.5031V22.5032Z" fill="#8E8E8E"/>
</g>
</svg>
