<svg width="29" height="29" viewBox="0 0 29 29" fill="none" xmlns="http://www.w3.org/2000/svg">
<path d="M14.5 29C22.5081 29 29 22.5081 29 14.5C29 6.49187 22.5081 0 14.5 0C6.49187 0 0 6.49187 0 14.5C0 22.5081 6.49187 29 14.5 29Z" fill="white"/>
<mask id="mask0" mask-type="alpha" maskUnits="userSpaceOnUse" x="0" y="0" width="29" height="29">
<path d="M14.5 29C22.5081 29 29 22.5081 29 14.5C29 6.49187 22.5081 0 14.5 0C6.49187 0 0 6.49187 0 14.5C0 22.5081 6.49187 29 14.5 29Z" fill="white"/>
</mask>
<g mask="url(#mask0)">
<path fill-rule="evenodd" clip-rule="evenodd" d="M14.5763 17.6117C16.0803 17.6117 17.2996 16.3925 17.2996 14.8885C17.2996 13.3845 16.0803 12.1652 14.5763 12.1652C13.0723 12.1652 11.8531 13.3845 11.8531 14.8885C11.8531 16.3925 13.0723 17.6117 14.5763 17.6117ZM18.3586 8.56677V9.71205C18.3586 9.89713 18.5087 10.0472 18.6937 10.0472H19.839C20.0241 10.0472 20.1741 9.89705 20.1741 9.71205V8.56677C20.1741 8.3817 20.024 8.23167 19.839 8.23167H18.6937C18.5086 8.23167 18.3586 8.38178 18.3586 8.56677ZM23.0959 6H6V9.62953V23.0959H23.0959V6ZM21.8856 21.8856H7.21033V13.3756H10.9442C10.75 13.8413 10.6428 14.3524 10.6428 14.8885C10.6428 17.0609 12.4039 18.822 14.5763 18.822C16.7488 18.822 18.5099 17.0609 18.5099 14.8885C18.5099 14.3524 18.4027 13.8413 18.2084 13.3756H21.8856V21.8856ZM21.8856 7.21033H7.21033V12.1652H11.7379C12.4537 11.4193 13.4608 10.9549 14.5763 10.9549C15.6919 10.9549 16.6989 11.4193 17.4148 12.1652H21.8856V7.21033Z" fill="#A5A5A5"/>
<rect x="18.5369" y="17.9673" width="7.46302" height="7.36217" rx="3.68108" fill="#FF0000"/>
<path d="M22.2718 19.4595C22.5261 19.4595 22.7403 19.667 22.7403 19.928V21.2332H24.0388C24.2999 21.2332 24.5074 21.4407 24.5074 21.7017C24.5074 21.9561 24.2999 22.1703 24.0388 22.1703H22.7403V23.4688C22.7403 23.7298 22.5261 23.9373 22.2718 23.9373C22.0108 23.9373 21.8033 23.7298 21.8033 23.4688V22.1703H20.4981C20.237 22.1703 20.0295 21.9561 20.0295 21.7017C20.0295 21.4407 20.2437 21.2332 20.4981 21.2332H21.8033V19.928C21.8033 19.6737 22.0108 19.4595 22.2718 19.4595ZM22.2718 19.513C22.0375 19.513 21.8501 19.7004 21.8501 19.928V21.28H20.4981C20.2705 21.28 20.0831 21.4675 20.0831 21.7017C20.0831 21.9293 20.2705 22.1167 20.4981 22.1167H21.8501V23.4688C21.8501 23.6963 22.0375 23.8837 22.2718 23.8837C22.4994 23.8837 22.6868 23.6963 22.6868 23.4688V22.1167H24.0388C24.2664 22.1167 24.4538 21.9293 24.4538 21.7017C24.4538 21.4675 24.2664 21.28 24.0388 21.28H22.6868V19.928C22.6868 19.7004 22.4994 19.513 22.2718 19.513Z" stroke="white"/>
<line x1="20.0295" y1="21.4475" x2="24.5074" y2="21.4475" stroke="white"/>
<line x1="22.5198" y1="19.4595" x2="22.5198" y2="23.9373" stroke="white"/>
</g>
</svg>
