<svg width="29" height="29" viewBox="0 0 29 29" fill="none" xmlns="http://www.w3.org/2000/svg">
<path d="M14.5 29C22.5081 29 29 22.5081 29 14.5C29 6.49187 22.5081 0 14.5 0C6.49187 0 0 6.49187 0 14.5C0 22.5081 6.49187 29 14.5 29Z" fill="white"/>
<mask id="mask0" mask-type="alpha" maskUnits="userSpaceOnUse" x="0" y="0" width="29" height="29">
<path d="M14.5 29C22.5081 29 29 22.5081 29 14.5C29 6.49187 22.5081 0 14.5 0C6.49187 0 0 6.49187 0 14.5C0 22.5081 6.49187 29 14.5 29Z" fill="white"/>
</mask>
<g mask="url(#mask0)">
</g>
<g clip-path="url(#clip0)">
<path d="M7.88844 4.59999L7.55882 4L7.22921 4.59999C6.89885 5.20203 4 10.5345 4 12.3625C4 14.3521 5.5965 15.9706 7.55882 15.9706C9.52113 15.9706 11.1176 14.3521 11.1176 12.3625C11.1176 10.5345 8.21879 5.20203 7.88844 4.59999ZM7.55882 15.2057C6.01235 15.2057 4.75425 13.9302 4.75425 12.3622C4.75425 11.1329 6.55089 7.48681 7.55882 5.58359C8.56701 7.48655 10.3634 11.1327 10.3634 12.3622C10.3634 13.9302 9.10529 15.2057 7.55882 15.2057Z" fill="#0B81B3"/>
<path d="M22.7711 7.81901L22.4415 7.23523L22.1119 7.81901C21.7815 8.40479 18.8824 13.5932 18.8824 15.3719C18.8824 17.3077 20.4789 18.8823 22.4412 18.8823C24.4035 18.8823 26 17.3075 26 15.3719C26.0003 13.5932 23.1014 8.40479 22.7711 7.81901ZM22.4415 18.1383C20.895 18.1383 19.6369 16.8973 19.6369 15.3719C19.6369 14.1757 21.4335 10.6281 22.4415 8.7763C23.4496 10.6281 25.246 14.1757 25.246 15.3719C25.246 16.8975 23.9879 18.1383 22.4415 18.1383Z" fill="#0B81B3"/>
<path d="M13.8679 14.353L13.5533 14.9368C13.2377 15.5226 10.4706 20.7107 10.4706 22.4897C10.4706 24.4255 11.9945 26.0001 13.8676 26.0001C15.741 26.0001 17.2647 24.4253 17.2647 22.4897C17.2647 20.7107 14.4976 15.5226 14.182 14.9368L13.8679 14.353ZM13.8679 25.2561C12.3917 25.2561 11.1908 24.0151 11.1908 22.4897C11.1908 21.2933 12.9058 17.7457 13.8679 15.8941C14.8302 17.7457 16.545 21.2933 16.545 22.4897C16.545 24.0153 15.3441 25.2561 13.8679 25.2561Z" fill="#0B81B3"/>
</g>
<defs>
<clipPath id="clip0">
<rect x="4" y="4" width="22" height="22" fill="white"/>
</clipPath>
</defs>
</svg>
