<svg width="29" height="29" viewBox="0 0 29 29" fill="none" xmlns="http://www.w3.org/2000/svg">
<path d="M14.5 29C22.5081 29 29 22.5081 29 14.5C29 6.49187 22.5081 0 14.5 0C6.49187 0 0 6.49187 0 14.5C0 22.5081 6.49187 29 14.5 29Z" fill="white"/>
<mask id="mask0" mask-type="alpha" maskUnits="userSpaceOnUse" x="0" y="0" width="29" height="29">
<path d="M14.5 29C22.5081 29 29 22.5081 29 14.5C29 6.49187 22.5081 0 14.5 0C6.49187 0 0 6.49187 0 14.5C0 22.5081 6.49187 29 14.5 29Z" fill="white"/>
</mask>
<g mask="url(#mask0)">
<path fill-rule="evenodd" clip-rule="evenodd" d="M11.9704 11.4308C12.1106 12.6021 12.9979 13.2172 14.2953 12.6928C14.2128 11.4861 13.0557 10.8616 11.9704 11.4308ZM-1.6436 17.1177C-2.78547 17.1177 -2.78547 15.3807 -1.6436 15.3807H6.63577C7.11538 15.3807 7.50425 15.7696 7.50425 16.2492C7.50425 16.2798 7.50307 16.3105 7.49954 16.3399C7.30746 26.7534 21.3822 26.3975 21.3822 16.2492C21.3822 15.7696 21.771 15.3807 22.2506 15.3807H31.6436C32.7855 15.3807 32.7855 17.1177 31.6436 17.1177H23.0885C22.3025 28.4691 6.2799 28.7189 5.77908 17.1177H-1.6436V17.1177ZM11.2975 15.845H18.1333C18.2759 15.845 18.3926 15.9617 18.3926 16.1043V17.2803C18.3926 17.4229 18.2759 17.5395 18.1333 17.5395H11.2975C11.1549 17.5395 11.0382 17.4229 11.0382 17.2803V16.1043C11.0382 15.9617 11.1549 15.845 11.2975 15.845V15.845ZM15.1367 8.374C15.6846 9.22127 15.436 10.111 14.2965 10.4739C13.692 9.6337 14.1115 8.59201 15.1367 8.374ZM13.7156 10.7767C12.8247 11.3801 11.8714 11.1362 11.4578 9.92948C12.338 9.26605 13.4587 9.68909 13.7156 10.7767ZM11.3317 18.3267H18.012L17.5453 21.5626C17.4935 21.9208 17.2484 22.2201 16.8878 22.2201H12.4747C12.1129 22.2201 11.8702 21.9196 11.8172 21.5626L11.3328 18.3267H11.3317ZM17.5123 11.4791C17.3721 12.6504 16.4848 13.2655 15.1874 12.7411C15.2699 11.5333 16.427 10.9087 17.5123 11.4791ZM15.0695 12.5985V15.4078H14.5157V12.8224L13.3231 9.67613C12.0788 9.13642 11.8454 8.04405 12.5207 7C13.7533 7.2616 14.3283 8.42114 13.8334 9.46637L14.7502 11.8844L15.5963 9.65256C15.1013 8.60733 15.6752 7.44897 16.909 7.18619C17.5842 8.23142 17.3497 9.32261 16.1065 9.86349L15.0695 12.5985V12.5985ZM17.8105 10.1062C17.5972 11.0926 16.7912 11.5439 15.7294 10.9924C15.8979 9.9719 16.9326 9.53354 17.8105 10.1062V10.1062Z" fill="#3BB30B"/>
</g>
</svg>
