<svg width="29" height="29" viewBox="0 0 29 29" fill="none" xmlns="http://www.w3.org/2000/svg">
<path d="M14.5 29C22.5081 29 29 22.5081 29 14.5C29 6.49187 22.5081 0 14.5 0C6.49187 0 0 6.49187 0 14.5C0 22.5081 6.49187 29 14.5 29Z" fill="white"/>
<mask id="mask0" mask-type="alpha" maskUnits="userSpaceOnUse" x="0" y="0" width="29" height="29">
<path d="M14.5 29C22.5081 29 29 22.5081 29 14.5C29 6.49187 22.5081 0 14.5 0C6.49187 0 0 6.49187 0 14.5C0 22.5081 6.49187 29 14.5 29Z" fill="white"/>
</mask>
<g mask="url(#mask0)">
<path d="M8.03363 5.00197C7.77857 5.02951 7.56906 5.27744 7.56906 5.53454V8.12397H7.314V6.57215C7.32311 6.27831 7.03162 6.01202 6.74013 6.03957C6.49418 6.06712 6.28467 6.31504 6.28467 6.57215V8.12397H6.02961V7.08636C6.03872 6.79252 5.74723 6.52624 5.45573 6.56297C5.20979 6.59051 4.99117 6.82925 5.00027 7.08636V10.19C5.00027 10.4655 5.24622 10.7226 5.51039 10.7226C5.78366 10.7226 6.02961 10.4655 6.02961 10.19V9.16157H6.28467V10.7134C6.28467 10.9889 6.53062 11.2368 6.80389 11.2368C7.06806 11.2368 7.314 10.9889 7.314 10.7134V9.16157H7.56906V11.751C7.56906 11.953 7.69659 12.155 7.88788 12.2377C7.73303 12.6417 7.59639 13.0549 7.46886 13.4681C7.05895 14.8179 6.85855 16.2687 7.3049 17.9399L7.07717 18.8673C7.03162 19.0418 7.08628 19.2346 7.2138 19.3632C7.76035 19.9233 8.51642 20.0427 9.16317 20.2447C11.404 21.4935 13.408 21.7598 16.9242 20.9058C17.1428 22.072 17.9353 23.6513 19.3654 24.6063C19.4474 24.6706 19.5476 24.6981 19.6569 24.6981H22.4808C22.7541 24.6981 23 24.4502 23 24.1839V14.3404C23 14.0007 22.5901 13.7252 22.2804 13.8629L20.6863 14.5516C18.7369 13.4405 16.9242 14.1109 15.4758 15.2954C14.3372 14.6985 13.3261 14.7628 12.3149 15.3229C12.2056 14.7904 12.0143 14.267 11.7046 13.7527L12.3878 10.8144C12.7249 10.6767 13.071 10.493 13.3625 10.1992C13.6267 9.93289 13.8362 9.57478 13.9364 9.16157H14.2552V11.751C14.2552 12.0173 14.5011 12.2744 14.7653 12.2744C15.0386 12.2744 15.2845 12.0173 15.2845 11.751V9.16157H15.5396V10.7134C15.5396 10.9889 15.7855 11.2368 16.0588 11.2368C16.323 11.2368 16.5689 10.9889 16.5689 10.7134V9.16157H16.824V10.19C16.824 10.4655 17.0699 10.7226 17.3432 10.7226C17.6165 10.7226 17.8624 10.4655 17.8533 10.19V7.08636C17.8624 6.79252 17.5709 6.52624 17.2885 6.56297C17.0335 6.59051 16.824 6.82925 16.824 7.08636V8.12397H16.5689V6.57215C16.578 6.27831 16.2865 6.01202 15.995 6.03957C15.7491 6.06712 15.5396 6.31504 15.5396 6.57215V8.12397H15.2845V5.53454C15.2936 5.24071 15.0021 4.97442 14.7107 5.00197C14.4647 5.02951 14.2461 5.27744 14.2552 5.53454V8.12397H13.991C13.9728 7.57302 13.9182 7.15982 13.818 6.83844C13.6904 6.35177 13.49 6.03957 12.9708 6.04875C12.7431 6.06712 12.6155 6.14976 12.4516 6.22322C12.3058 6.12221 12.1419 6.04875 11.9415 6.04875C11.7411 6.04875 11.5771 6.12221 11.4314 6.22322C11.2765 6.12221 11.1216 6.04875 10.9121 6.04875C10.7117 6.04875 10.5478 6.12221 10.402 6.22322C10.2472 6.12221 10.0923 6.04875 9.88279 6.04875C9.14495 6.06712 8.86256 6.73743 8.85345 7.34347V8.12397H8.5984V5.53454C8.60751 5.24071 8.31601 4.97442 8.03363 5.00197ZM9.93745 7.08636C10.9121 7.08636 11.9415 7.08636 12.8159 7.08636C12.9344 7.61894 12.9708 8.19742 12.9708 8.63818C12.9708 9.02384 12.8524 9.2534 12.6429 9.46459C12.4334 9.67578 12.1145 9.85025 11.7775 9.96044C11.6135 10.0155 11.486 10.1624 11.4405 10.3277L10.6753 13.6977C10.6389 13.8354 10.6662 13.9823 10.7482 14.1017C11.2127 14.8179 11.4314 15.4882 11.4314 16.1493C11.4314 16.3422 11.5407 16.5258 11.7046 16.6085C11.8686 16.7003 12.0781 16.6819 12.233 16.5809C13.3534 15.681 14.3281 15.8647 15.3119 16.3514C15.4849 16.4432 15.7218 16.4156 15.8766 16.2779C17.3432 14.873 18.9373 14.7169 20.4221 15.5617C20.5587 15.6351 20.7409 15.6443 20.8867 15.58L21.9707 15.1117V23.6605H19.8482C18.5092 22.7147 17.8533 21.0527 17.8533 20.2906C17.8533 19.9784 17.5163 19.7121 17.2157 19.7947C13.4171 20.814 11.8595 20.5752 9.61863 19.3264C9.5913 19.3081 9.56397 19.2897 9.52753 19.2805C9.04475 19.1336 8.55285 19.0418 8.16116 18.7663L8.32512 18.0868C8.34334 17.995 8.34334 17.9032 8.31601 17.8205C7.87877 16.2963 8.05185 15.0658 8.44354 13.7803C8.83524 12.4856 9.46377 11.1541 9.86457 9.53805C9.88279 9.50132 9.88279 9.45541 9.88279 9.41868C9.96478 8.65654 9.74616 7.83013 9.93745 7.08636L9.93745 7.08636ZM8.5984 9.16157H8.85345V9.33604C8.78058 9.63905 8.68949 9.93289 8.5984 10.2267V9.16157Z" fill="#3BB30B"/>
</g>
</svg>
