<svg width="29" height="29" viewBox="0 0 29 29" fill="none" xmlns="http://www.w3.org/2000/svg">
<path d="M14.5 29C22.5081 29 29 22.5081 29 14.5C29 6.49187 22.5081 0 14.5 0C6.49187 0 0 6.49187 0 14.5C0 22.5081 6.49187 29 14.5 29Z" fill="white"/>
<mask id="mask0" mask-type="alpha" maskUnits="userSpaceOnUse" x="0" y="0" width="29" height="29">
<path d="M14.5 29C22.5081 29 29 22.5081 29 14.5C29 6.49187 22.5081 0 14.5 0C6.49187 0 0 6.49187 0 14.5C0 22.5081 6.49187 29 14.5 29Z" fill="white"/>
</mask>
<g mask="url(#mask0)">
<path d="M6.21337 2.00273C5.85913 2.04099 5.56814 2.38533 5.56814 2.74242V6.33884H5.2139V4.18354C5.22655 3.77543 4.8217 3.40559 4.41684 3.44385C4.07525 3.48211 3.78426 3.82645 3.78426 4.18354V6.33884H3.43002V4.89772C3.44267 4.48962 3.03782 4.11977 2.63296 4.17079C2.29137 4.20904 1.98773 4.54063 2.00038 4.89772V9.20833C2.00038 9.59092 2.34198 9.94802 2.70887 9.94802C3.08842 9.94802 3.43002 9.59092 3.43002 9.20833V7.77996H3.78426V9.93526C3.78426 10.3179 4.12586 10.6622 4.5054 10.6622C4.8723 10.6622 5.2139 10.3179 5.2139 9.93526V7.77996H5.56814V11.3764C5.56814 11.657 5.74526 11.9375 6.01095 12.0523C5.79587 12.6134 5.6061 13.1873 5.42897 13.7612C4.85965 15.636 4.58131 17.651 5.20124 19.9721L4.88495 21.2602C4.8217 21.5025 4.8976 21.7703 5.07473 21.9488C5.83383 22.7268 6.88391 22.8926 7.78218 23.1732C10.8945 24.9076 13.6778 25.2774 18.5614 24.0914C18.865 25.7111 19.9657 27.9046 21.952 29.231C22.0659 29.3202 22.205 29.3585 22.3569 29.3585H26.2789C26.6584 29.3585 27 29.0142 27 28.6443V14.9728C27 14.5009 26.4307 14.1183 26.0005 14.3096L23.7865 15.2661C21.079 13.723 18.5614 14.654 16.5498 16.2991C14.9683 15.4702 13.564 15.5595 12.1596 16.3374C12.0078 15.5977 11.7421 14.8708 11.312 14.1566L12.2609 10.0755C12.729 9.88425 13.2097 9.62918 13.6146 9.22108C13.9815 8.85123 14.2725 8.35386 14.4116 7.77996H14.8544V11.3764C14.8544 11.7462 15.196 12.1033 15.5629 12.1033C15.9425 12.1033 16.2841 11.7462 16.2841 11.3764V7.77996H16.6383V9.93526C16.6383 10.3179 16.9799 10.6622 17.3595 10.6622C17.7264 10.6622 18.068 10.3179 18.068 9.93526V7.77996H18.4222V9.20833C18.4222 9.59092 18.7638 9.94802 19.1433 9.94802C19.5229 9.94802 19.8645 9.59092 19.8518 9.20833V4.89772C19.8645 4.48962 19.4596 4.11977 19.0674 4.17079C18.7132 4.20904 18.4222 4.54063 18.4222 4.89772V6.33884H18.068V4.18354C18.0806 3.77543 17.6757 3.40559 17.2709 3.44385C16.9293 3.48211 16.6383 3.82645 16.6383 4.18354V6.33884H16.2841V2.74242C16.2967 2.33431 15.8919 1.96447 15.487 2.00273C15.1454 2.04099 14.8418 2.38533 14.8544 2.74242V6.33884H14.4875C14.4622 5.57364 14.3863 4.99975 14.2472 4.55338C14.07 3.87746 13.7917 3.44385 13.0706 3.4566C12.7543 3.48211 12.5771 3.59689 12.3494 3.69891C12.147 3.55863 11.9193 3.4566 11.6409 3.4566C11.3626 3.4566 11.1349 3.55863 10.9324 3.69891C10.7174 3.55863 10.5023 3.4566 10.2113 3.4566C9.93295 3.4566 9.70522 3.55863 9.5028 3.69891C9.28772 3.55863 9.07264 3.4566 8.78166 3.4566C7.75687 3.48211 7.36467 4.4131 7.35202 5.25481V6.33884H6.99778V2.74242C7.01043 2.33431 6.60558 1.96447 6.21337 2.00273ZM8.85756 4.89772C10.2113 4.89772 11.6409 4.89772 12.8555 4.89772C13.02 5.63741 13.0706 6.44087 13.0706 7.05302C13.0706 7.58866 12.9061 7.90749 12.6151 8.20082C12.3241 8.49414 11.8813 8.73645 11.4132 8.88949C11.1855 8.96601 11.0083 9.17007 10.9451 9.39963L9.88235 14.0801C9.83174 14.2714 9.8697 14.4754 9.98356 14.6412C10.6288 15.636 10.9324 16.567 10.9324 17.4852C10.9324 17.753 11.0843 18.0081 11.312 18.1229C11.5397 18.2504 11.8307 18.2249 12.0458 18.0846C13.6019 16.8348 14.9557 17.0898 16.322 17.7658C16.5624 17.8933 16.8913 17.855 17.1064 17.6637C19.1433 15.7125 21.3574 15.4957 23.4196 16.669C23.6094 16.771 23.8624 16.7838 24.0648 16.6945L25.5704 16.0441V27.9174H22.6225C20.7627 26.6038 19.8518 24.2954 19.8518 23.2369C19.8518 22.8033 19.3837 22.4335 18.9662 22.5482C13.6905 23.9639 11.5271 23.6323 8.41476 21.8978C8.3768 21.8723 8.33885 21.8468 8.28824 21.8341C7.61771 21.63 6.93452 21.5025 6.3905 21.1199L6.61823 20.1761C6.64353 20.0486 6.64353 19.9211 6.60558 19.8063C5.9983 17.6893 6.23868 15.9803 6.7827 14.1949C7.32672 12.3966 8.19968 10.5474 8.75635 8.30285C8.78166 8.25183 8.78166 8.18807 8.78166 8.13705C8.89552 7.07853 8.59188 5.93074 8.85757 4.89772L8.85756 4.89772ZM6.99778 7.77996H7.35202V8.02227C7.25081 8.44313 7.12429 8.85123 6.99778 9.25934V7.77996Z" fill="#3BB30B"/>
</g>
</svg>
