<svg width="29" height="29" viewBox="0 0 29 29" fill="none" xmlns="http://www.w3.org/2000/svg">
<path d="M14.5 29C22.5081 29 29 22.5081 29 14.5C29 6.49187 22.5081 0 14.5 0C6.49187 0 0 6.49187 0 14.5C0 22.5081 6.49187 29 14.5 29Z" fill="white"/>
<mask id="mask0" mask-type="alpha" maskUnits="userSpaceOnUse" x="0" y="0" width="29" height="29">
<path d="M14.5 29C22.5081 29 29 22.5081 29 14.5C29 6.49187 22.5081 0 14.5 0C6.49187 0 0 6.49187 0 14.5C0 22.5081 6.49187 29 14.5 29Z" fill="white"/>
</mask>
<g mask="url(#mask0)">
<path fill-rule="evenodd" clip-rule="evenodd" d="M15.0365 18.9426C16.972 18.9426 18.541 17.3737 18.541 15.4382C18.541 13.5028 16.972 11.9338 15.0365 11.9338C13.1011 11.9338 11.5321 13.5028 11.5321 15.4382C11.5321 17.3737 13.1011 18.9426 15.0365 18.9426ZM19.9038 7.30308V8.77689C19.9038 9.01506 20.097 9.20813 20.335 9.20813H21.8089C22.047 9.20813 22.2401 9.01495 22.2401 8.77689V7.30308C22.2401 7.06491 22.0469 6.87184 21.8089 6.87184H20.335C20.0969 6.87184 19.9038 7.06502 19.9038 7.30308ZM26 4H4V8.6707V26H26V4ZM24.4425 24.4425H5.55752V13.4913H10.3625C10.1126 14.0906 9.9746 14.7483 9.9746 15.4382C9.9746 18.2339 12.2409 20.5002 15.0365 20.5002C17.8322 20.5002 20.0985 18.2339 20.0985 15.4382C20.0985 14.7483 19.9605 14.0906 19.7105 13.4913H24.4425V24.4425ZM24.4425 5.55752H5.55752V11.9338H11.3838C12.305 10.9738 13.601 10.3763 15.0365 10.3763C16.4721 10.3763 17.768 10.9738 18.6893 11.9338H24.4425V5.55752Z" fill="#5956C4"/>
</g>
</svg>
