<svg width="29" height="29" viewBox="0 0 29 29" fill="none" xmlns="http://www.w3.org/2000/svg">
<path d="M14.5 29C22.5081 29 29 22.5081 29 14.5C29 6.49187 22.5081 0 14.5 0C6.49187 0 0 6.49187 0 14.5C0 22.5081 6.49187 29 14.5 29Z" fill="white"/>
<mask id="mask0" mask-type="alpha" maskUnits="userSpaceOnUse" x="0" y="0" width="29" height="29">
<path d="M14.5 29C22.5081 29 29 22.5081 29 14.5C29 6.49187 22.5081 0 14.5 0C6.49187 0 0 6.49187 0 14.5C0 22.5081 6.49187 29 14.5 29Z" fill="white"/>
</mask>
<g mask="url(#mask0)">
<path d="M18.1182 10.3688L15.7035 13.7985C15.6127 13.928 15.4685 13.9975 15.3215 13.9975C15.2281 13.9975 15.1346 13.9694 15.0531 13.912C14.8421 13.7638 14.7913 13.4713 14.9396 13.2603L15.0758 13.0666C14.9917 12.9918 14.9075 12.917 14.822 12.8449C14.6805 12.7207 14.5376 12.6018 14.396 12.487L14.4441 12.4269C14.591 12.1718 14.7085 11.898 14.798 11.6122C14.8594 11.6603 14.9222 11.711 14.985 11.7618C15.1105 11.8633 15.2374 11.9688 15.3629 12.077C15.4484 12.1491 15.5326 12.2225 15.6167 12.2973L17.3529 9.83055C17.5025 9.61953 17.7937 9.56878 18.0047 9.71703C18.2157 9.86661 18.2665 10.1578 18.1182 10.3688Z" fill="#546DC5"/>
<path d="M22.2665 17.569C22.1863 17.6225 22.0969 17.6478 22.0074 17.6478C21.8565 17.6478 21.7082 17.5744 21.6187 17.4395C21.198 16.8091 20.589 16.4512 19.809 16.3737C19.5326 16.3457 19.2655 16.3577 19.0237 16.3897C18.6925 16.4351 18.4067 16.522 18.1997 16.6061C18.0261 16.6782 17.9072 16.7477 17.8631 16.7917C17.6815 16.9734 17.385 16.9734 17.2034 16.7917C17.0204 16.6088 17.0204 16.3123 17.2034 16.1306C17.3089 16.0251 17.4625 15.921 17.6508 15.8261C17.5519 15.6966 17.4478 15.5644 17.3396 15.4308H17.3383C16.9389 14.938 16.4915 14.4412 16.0054 13.951L16.3166 13.5089L16.5516 13.175L16.601 13.2245C17.1353 13.7587 17.6267 14.3023 18.0648 14.8405C18.2518 15.0715 18.4254 15.2973 18.5843 15.5163C18.9944 15.4321 19.4498 15.3974 19.9012 15.4428C20.959 15.5483 21.8217 16.0585 22.396 16.9213C22.5389 17.1363 22.4815 17.4261 22.2665 17.569Z" fill="#546DC5"/>
<path d="M22.1813 9.23288L18.1948 12.6776C17.9994 12.8464 17.9779 13.1417 18.1467 13.3369C18.2392 13.444 18.3695 13.4988 18.5007 13.4988C18.609 13.4988 18.7177 13.4614 18.806 13.385L22.7925 9.94032C22.9879 9.77151 23.0094 9.47635 22.8406 9.28096C22.6718 9.0857 22.3765 9.06406 22.1813 9.23288Z" fill="#546DC5"/>
<path d="M24.9835 12.8324C24.9443 12.7115 24.8397 12.6235 24.7139 12.6052L23.6751 12.4541L23.2104 11.5128C23.1541 11.3988 23.038 11.3267 22.911 11.3267C22.7839 11.3267 22.6679 11.3989 22.6116 11.5128L22.1471 12.4541L21.1083 12.6052C20.9826 12.6235 20.8779 12.7115 20.8386 12.8324C20.7994 12.9532 20.8321 13.0859 20.9232 13.1747L21.6748 13.9074L21.4974 14.942C21.4759 15.0673 21.5275 15.1939 21.6302 15.2686C21.7329 15.3432 21.8695 15.3532 21.9819 15.2939L22.911 14.8054L23.8403 15.2939C23.889 15.3196 23.9425 15.3323 23.9956 15.3323C24.0648 15.3323 24.1337 15.3108 24.1919 15.2684C24.2948 15.1936 24.3462 15.0672 24.3247 14.9419L24.1473 13.9072L24.899 13.1745C24.9901 13.0859 25.0228 12.9532 24.9835 12.8324ZM23.5554 13.5517C23.4767 13.6284 23.4408 13.7388 23.4594 13.8473L23.5521 14.3882L23.0662 14.1328C23.0176 14.1073 22.9642 14.0945 22.9109 14.0945C22.8576 14.0945 22.8042 14.1073 22.7555 14.1328L22.2698 14.3882L22.3625 13.8473C22.3812 13.7388 22.3451 13.6284 22.2665 13.5517L21.8735 13.1687L22.4166 13.0897C22.5253 13.074 22.6195 13.0056 22.6681 12.9072L22.9107 12.415L23.1535 12.9072C23.2022 13.0057 23.2962 13.074 23.405 13.0897L23.9481 13.1687L23.5554 13.5517Z" fill="#2DE899"/>
<path d="M8.10377 7.5807L7.92627 8.6155C7.90477 8.74077 7.95632 8.86738 8.05916 8.94204C8.16187 9.0167 8.29809 9.02658 8.41081 8.96742L9.33996 8.47887L10.2691 8.96742C10.318 8.99306 10.3713 9.00575 10.4244 9.00575C10.4938 9.00575 10.5627 8.98425 10.6208 8.94191C10.7236 8.86725 10.7752 8.74064 10.7537 8.61536L10.5762 7.5807L11.3279 6.84802C11.4189 6.75933 11.4517 6.62658 11.4124 6.50571C11.3731 6.38484 11.2686 6.2967 11.1428 6.2784L10.104 6.12748L9.63939 5.18618C9.58317 5.07212 9.46711 5 9.33996 5C9.21282 5 9.09676 5.07212 9.04053 5.18618L8.57589 6.12748L7.53709 6.2784C7.41128 6.2967 7.30684 6.38471 7.26757 6.50571C7.22831 6.62658 7.26103 6.7592 7.35198 6.84802L8.10377 7.5807ZM8.84567 6.76321C8.95439 6.74731 9.04854 6.67907 9.09702 6.5805L9.33983 6.08835L9.58263 6.5805C9.63125 6.67907 9.72527 6.74731 9.83399 6.76321L10.377 6.84214L9.9841 7.22518C9.90544 7.30184 9.86951 7.41242 9.88808 7.52074L9.98076 8.06151L9.49515 7.80615C9.39779 7.755 9.2816 7.755 9.18437 7.80615L8.69863 8.06151L8.79131 7.5206C8.80988 7.41229 8.77409 7.30184 8.69529 7.22518L8.30237 6.84214L8.84567 6.76321Z" fill="#2DE899"/>
<path d="M19.3388 16.6968C18.9474 16.7169 18.6069 16.809 18.3798 16.8958C18.6469 17.3526 18.7578 17.6477 18.8032 17.8187C18.8278 17.9119 18.8359 17.9746 18.8377 18.0161L18.8291 18.0198C18.7874 18.018 18.7252 18.0108 18.6363 17.987C18.4533 17.9376 18.1314 17.816 17.6279 17.5115C17.2032 17.2538 16.7384 16.9212 16.2469 16.5219C15.7327 16.1052 15.2132 15.6351 14.703 15.1235C14.1915 14.612 13.7214 14.0925 13.3047 13.5796C12.9054 13.0881 12.5715 12.6234 12.315 12.1987C12.0105 11.6952 11.889 11.3733 11.8396 11.1903C11.8157 11.101 11.8086 11.0386 11.8067 10.9969L11.8102 10.9889C11.8505 10.9906 11.9144 10.9987 12.0065 11.0234C12.1895 11.0714 12.5127 11.193 13.0162 11.4988C13.0429 11.5149 13.071 11.5322 13.099 11.5509C13.191 11.6069 13.2844 11.6668 13.379 11.7323C13.3146 11.8529 13.2426 11.9685 13.1614 12.0766C13.0062 12.2829 13.0477 12.576 13.2541 12.7311C13.3382 12.7945 13.4369 12.8249 13.5347 12.8249C13.6766 12.8249 13.8168 12.7605 13.9086 12.6385C14.088 12.3999 14.2364 12.1372 14.3535 11.8577C14.3587 11.8451 14.3631 11.8323 14.3683 11.8198C14.3924 11.7607 14.4155 11.7013 14.4366 11.6409C14.4455 11.6156 14.4531 11.5896 14.4616 11.5641C14.4772 11.5165 14.4927 11.4688 14.5066 11.4204C14.5091 11.4117 14.5122 11.4035 14.5146 11.3948C14.5142 11.3945 14.5139 11.3943 14.5135 11.394C14.7117 10.6852 14.7251 9.90056 14.5341 9.13542C14.2656 8.05976 13.6401 7.20006 12.8605 6.83585C12.6268 6.72647 12.3483 6.82757 12.2392 7.06143C12.1299 7.29529 12.2309 7.57348 12.4648 7.68273C12.9838 7.92527 13.4292 8.56847 13.627 9.36153C13.7494 9.85235 13.7676 10.3506 13.6885 10.8154C13.6883 10.8153 13.688 10.815 13.6877 10.8149C13.6236 10.7748 13.5609 10.7361 13.4994 10.6987C13.02 10.4075 12.5979 10.2125 12.2467 10.1191C11.7552 9.98951 11.3772 10.0523 11.1235 10.306C11.0007 10.4288 10.9238 10.5805 10.8901 10.7591L5.03905 24.1718C4.96212 24.348 5.00098 24.5533 5.13694 24.6892C5.22642 24.7788 5.34609 24.8261 5.46763 24.8261C5.53067 24.8261 5.59424 24.8133 5.65434 24.7871L19.0619 18.938C19.2431 18.9049 19.3966 18.8264 19.5203 18.7027C19.774 18.449 19.8368 18.071 19.7072 17.5795C19.6393 17.3219 19.5151 17.0267 19.3388 16.6968ZM11.515 12.6835C11.7942 13.1442 12.1521 13.6437 12.5782 14.1686C13.0162 14.7068 13.5077 15.2504 14.0419 15.7846C14.5748 16.3189 15.1197 16.8104 15.658 17.2484C16.1828 17.6745 16.6823 18.0324 17.1431 18.3102C17.298 18.4042 17.4461 18.4871 17.5886 18.561L16.2145 19.1605C13.9398 19.2321 11.7302 18.5111 10.4935 17.2734C10.0359 16.8154 9.75838 16.323 9.68733 15.8549L11.2653 12.2378C11.3389 12.38 11.4214 12.5283 11.515 12.6835ZM10.8027 21.5213C9.60413 21.487 8.68539 21.1951 8.19124 20.6857C8.01347 20.5025 7.89821 20.295 7.84653 20.0743L9.29214 16.7607C9.46349 17.0996 9.7083 17.4321 10.0212 17.7451C10.9279 18.6525 12.584 19.5545 14.7929 19.7805L10.8027 21.5213ZM7.49327 20.8843C7.55805 20.9765 7.62963 21.0661 7.71204 21.1511C8.03805 21.4871 8.60513 21.863 9.57127 22.0587L6.3722 23.4544L7.49327 20.8843Z" fill="#4AA653"/>
<path d="M21.2101 8.1577C21.9473 8.1577 22.5471 7.5579 22.5471 6.82067C22.5471 6.08344 21.9473 5.48364 21.2101 5.48364C20.4728 5.48364 19.873 6.08344 19.873 6.82067C19.873 7.5579 20.4728 8.1577 21.2101 8.1577ZM21.2101 6.15142C21.5791 6.15142 21.8793 6.45166 21.8793 6.82067C21.8793 7.18969 21.5791 7.48992 21.2101 7.48992C20.8411 7.48992 20.5408 7.18969 20.5408 6.82067C20.5408 6.45166 20.8411 6.15142 21.2101 6.15142Z" fill="#BCDF2E"/>
<path d="M16.52 8.8673C17.1762 8.8673 17.7101 8.33347 17.7101 7.67718C17.7101 7.02088 17.1762 6.48706 16.52 6.48706C15.8637 6.48706 15.3298 7.02088 15.3298 7.67718C15.3298 8.33347 15.8638 8.8673 16.52 8.8673ZM16.52 7.15497C16.8079 7.15497 17.0423 7.38923 17.0423 7.67731C17.0423 7.96539 16.808 8.19965 16.52 8.19965C16.2319 8.19965 15.9976 7.96539 15.9976 7.67731C15.9976 7.38923 16.232 7.15497 16.52 7.15497Z" fill="#BCDF2E"/>
<path d="M22.2138 19.167C21.5575 19.167 21.0237 19.7008 21.0237 20.357C21.0237 21.0133 21.5575 21.5471 22.2138 21.5471C22.87 21.5471 23.4038 21.0133 23.4038 20.357C23.4038 19.7008 22.87 19.167 22.2138 19.167ZM22.2138 20.8793C21.9259 20.8793 21.6915 20.6449 21.6915 20.357C21.6915 20.069 21.9259 19.8348 22.2138 19.8348C22.5017 19.8348 22.736 20.069 22.736 20.357C22.736 20.6449 22.5017 20.8793 22.2138 20.8793Z" fill="#BCDF2E"/>
</g>
</svg>
