<svg width="29" height="29" viewBox="0 0 29 29" fill="none" xmlns="http://www.w3.org/2000/svg">
<g clip-path="url(#clip0_3503_21)">
<path d="M14.5 29C22.5081 29 29 22.5081 29 14.5C29 6.49187 22.5081 0 14.5 0C6.49187 0 0 6.49187 0 14.5C0 22.5081 6.49187 29 14.5 29Z" fill="white"/>
<mask id="mask0_3503_21" style="mask-type:alpha" maskUnits="userSpaceOnUse" x="0" y="0" width="29" height="29">
<path d="M14.5 29C22.5081 29 29 22.5081 29 14.5C29 6.49187 22.5081 0 14.5 0C6.49187 0 0 6.49187 0 14.5C0 22.5081 6.49187 29 14.5 29Z" fill="white"/>
</mask>
<g mask="url(#mask0_3503_21)">
<mask id="mask1_3503_21" style="mask-type:alpha" maskUnits="userSpaceOnUse" x="4" y="1" width="20" height="23">
<path d="M14.9697 14V23.5422H14.0195V14L10.1583 14L6.90835 14.5417C6.18612 13.6389 4.74168 11.725 4.74168 11.2917C4.74168 10.8583 4.38057 8.22222 4.20001 6.95833L8.53335 3.16667L15.0333 1L23.1583 3.70833L23.7 14H14.9697Z" fill="#D9D9D9"/>
</mask>
<g mask="url(#mask1_3503_21)">
<path d="M14 10L14.5 12L14 12.5H11L9 12L7.5 10L7 8H8H12L14 10Z" fill="#54CE23"/>
<path d="M14.5333 6.77778L14 8.55556L14.5333 9H17.7333L19.8667 8.55556L21.4667 6.77778L22 5H20.9333H16.6667L14.5333 6.77778Z" fill="#54CE23"/>
<path d="M14.9696 9.66672H17.3593C18.7536 9.66672 20.0908 9.12865 21.0768 8.17086C22.0627 7.21307 22.6166 5.91403 22.6166 4.55958C22.6166 4.43645 22.5663 4.31834 22.4766 4.23129C22.387 4.14423 22.2655 4.09529 22.1387 4.09529H18.7931C18.0511 4.09529 17.3194 4.26311 16.6557 4.5854C15.9921 4.9078 15.4147 5.37585 14.9696 5.95243V3.631C14.9696 3.46512 14.8785 3.3119 14.7306 3.22892C14.5827 3.14602 14.4005 3.14602 14.2527 3.22892C14.1048 3.31191 14.0137 3.46513 14.0137 3.631V9.20243C13.5685 8.62585 12.9912 8.15778 12.3276 7.8354C11.6639 7.5131 10.9322 7.34529 10.1902 7.34529H6.84458C6.71783 7.34529 6.59625 7.39423 6.50664 7.48129C6.41702 7.56834 6.36664 7.68644 6.36664 7.80958C6.36664 9.16403 6.92054 10.4631 7.9065 11.4209C8.89246 12.3786 10.2297 12.9167 11.624 12.9167H14.0137V14.7739H10.6681C10.5414 14.7739 10.4198 14.8228 10.3302 14.9099C10.2405 14.9969 10.1902 15.115 10.1902 15.2382V17.0953C10.1902 17.2184 10.2405 17.3365 10.3302 17.4236C10.4198 17.5106 10.5413 17.5596 10.6681 17.5596H11.624V26.381C11.624 27.3762 12.1705 28.2959 13.0578 28.7936C13.9451 29.2911 15.0382 29.2911 15.9255 28.7936C16.8127 28.2959 17.3593 27.3763 17.3593 26.381V17.5596H18.3152C18.4419 17.5596 18.5635 17.5106 18.6531 17.4236C18.7427 17.3365 18.7931 17.2184 18.7931 17.0953V15.2382C18.7931 15.115 18.7427 14.9969 18.6531 14.9099C18.5635 14.8228 18.4419 14.7739 18.3152 14.7739H14.9696L14.9696 9.66672ZM14.0137 19.9229C13.4799 20.0113 12.9829 20.2447 12.5799 20.5961V17.5598H14.0137V19.9229ZM16.4034 26.381C16.4034 27.0445 16.0391 27.6576 15.4475 27.9894C14.856 28.3211 14.1273 28.3211 13.5358 27.9894C12.9442 27.6576 12.5799 27.0445 12.5799 26.381V22.6667C12.5799 22.0033 12.9442 21.3901 13.5358 21.0584C14.1273 20.7267 14.856 20.7267 15.4475 21.0584C16.0391 21.3901 16.4034 22.0033 16.4034 22.6667V26.381ZM16.4034 20.5961C16.0004 20.2447 15.5034 20.0113 14.9696 19.9229V17.5597H16.4034V20.5961ZM17.8372 16.6313H11.1461V15.7027H17.8372V16.6313ZM18.7931 5.02411H21.6322C21.5147 6.04524 21.014 6.98853 20.2258 7.67364C19.4376 8.35875 18.4172 8.73783 17.3594 8.7383H14.9697C14.9697 7.75325 15.3726 6.80841 16.0896 6.1118C16.8066 5.4152 17.7792 5.02392 18.7933 5.02392L18.7931 5.02411ZM11.624 11.9884C10.5663 11.9879 9.54586 11.6088 8.75763 10.9237C7.96942 10.2385 7.46869 9.29525 7.35118 8.27421H10.1903C11.2043 8.27421 12.1769 8.66557 12.894 9.3621C13.6111 10.0586 14.0139 11.0034 14.0139 11.9886L11.624 11.9884Z" fill="#3A9815"/>
<rect x="14" y="15" width="1" height="8" fill="#3A9815"/>
</g>
<mask id="mask2_3503_21" style="mask-type:alpha" maskUnits="userSpaceOnUse" x="7" y="13" width="15" height="15">
<rect width="15" height="14" transform="matrix(1 0 0 -1 7 27.7)" fill="#D9D9D9"/>
</mask>
<g mask="url(#mask2_3503_21)">
<path d="M12.444 17.4642C12.342 19.0563 12.0475 24.2605 12.475 25.3774C12.8704 26.4104 13.6158 26.7 14.5 26.7C15.3841 26.7 16.2472 26.103 16.525 25.3773C16.9525 24.2604 16.658 19.0562 16.556 17.4642C16.5392 17.2025 16.3218 17.0002 16.0596 17.0001L14.5 17L12.9404 17.0001C12.6781 17.0001 12.4607 17.2024 12.444 17.4642Z" fill="#44AEDB" fill-opacity="0.75"/>
<path d="M14.9412 8.99998H17.1471C18.4341 8.99998 19.6685 8.50329 20.5786 7.61918C21.4887 6.73506 22 5.53595 22 4.28569C22 4.17203 21.9535 4.06301 21.8708 3.98265C21.7881 3.90229 21.6758 3.85711 21.5588 3.85711H18.4706C17.7857 3.85711 17.1102 4.01202 16.4976 4.30953C15.885 4.60713 15.3521 5.03917 14.9412 5.5714V3.42854C14.9412 3.27542 14.8571 3.13398 14.7206 3.05739C14.5841 2.98087 14.4159 2.98087 14.2794 3.05739C14.1429 3.134 14.0588 3.27543 14.0588 3.42854V8.5714C13.6479 8.03917 13.115 7.6071 12.5024 7.30953C11.8898 7.01202 11.2144 6.85712 10.5294 6.85712H7.44118C7.32418 6.85712 7.21195 6.90229 7.12923 6.98265C7.04651 7.06301 7 7.17203 7 7.28569C7 8.53595 7.51129 9.73506 8.42141 10.6192C9.33153 11.5033 10.5659 12 11.8529 12H14.0588V13.7143H10.9706C10.8536 13.7143 10.7414 13.7594 10.6586 13.8398C10.5759 13.9202 10.5294 14.0292 10.5294 14.1428V15.8571C10.5294 15.9708 10.5759 16.0798 10.6586 16.1602C10.7414 16.2405 10.8536 16.2857 10.9706 16.2857H11.8529V24.4286C11.8529 25.3472 12.3574 26.1961 13.1765 26.6555C13.9955 27.1148 15.0045 27.1148 15.8235 26.6555C16.6426 26.1961 17.1471 25.3472 17.1471 24.4286V16.2857H18.0294C18.1464 16.2857 18.2586 16.2405 18.3414 16.1602C18.4241 16.0798 18.4706 15.9708 18.4706 15.8571V14.1428C18.4706 14.0292 18.4241 13.9202 18.3414 13.8398C18.2586 13.7594 18.1464 13.7143 18.0294 13.7143H14.9412L14.9412 8.99998ZM14.0588 18.4672C13.5661 18.5488 13.1073 18.7642 12.7353 19.0886V16.2859H14.0588V18.4672ZM16.2647 24.4285C16.2647 25.041 15.9284 25.6069 15.3824 25.9132C14.8363 26.2194 14.1637 26.2194 13.6177 25.9132C13.0716 25.6069 12.7353 25.041 12.7353 24.4285V21C12.7353 20.3876 13.0716 19.8216 13.6177 19.5153C14.1637 19.2092 14.8363 19.2092 15.3824 19.5153C15.9284 19.8216 16.2647 20.3876 16.2647 21V24.4285ZM16.2647 19.0887C15.8927 18.7643 15.4339 18.5488 14.9412 18.4672V16.2858H16.2647V19.0887ZM17.5882 15.4288H11.4118V14.5716H17.5882V15.4288ZM18.4706 4.71449H21.0913C20.9828 5.65707 20.5206 6.52779 19.793 7.16021C19.0655 7.79262 18.1236 8.14254 17.1472 8.14297H14.9413C14.9413 7.23369 15.3132 6.36153 15.975 5.71851C16.6369 5.0755 17.5347 4.71431 18.4708 4.71431L18.4706 4.71449ZM11.8529 11.1431C10.8766 11.1426 9.93467 10.7927 9.20707 10.1603C8.47949 9.52779 8.01728 8.65707 7.90881 7.71458H10.5295C11.4655 7.71458 12.3633 8.07584 13.0253 8.71879C13.6872 9.36174 14.059 10.2339 14.059 11.1432L11.8529 11.1431Z" fill="url(#paint0_linear_3503_21)" fill-opacity="0.8"/>
</g>
</g>
</g>
<defs>
<linearGradient id="paint0_linear_3503_21" x1="23" y1="21" x2="10.5" y2="21" gradientUnits="userSpaceOnUse">
<stop offset="0.67587" stop-color="#DFDFDF"/>
<stop offset="1" stop-color="#969696"/>
</linearGradient>
<clipPath id="clip0_3503_21">
<rect width="29" height="29" fill="white"/>
</clipPath>
</defs>
</svg>
