<svg width="29" height="29" viewBox="0 0 29 29" fill="none" xmlns="http://www.w3.org/2000/svg">
<path d="M14.5 29C22.5081 29 29 22.5081 29 14.5C29 6.49187 22.5081 0 14.5 0C6.49187 0 0 6.49187 0 14.5C0 22.5081 6.49187 29 14.5 29Z" fill="white"/>
<mask id="mask0" mask-type="alpha" maskUnits="userSpaceOnUse" x="0" y="0" width="29" height="29">
<path d="M14.5 29C22.5081 29 29 22.5081 29 14.5C29 6.49187 22.5081 0 14.5 0C6.49187 0 0 6.49187 0 14.5C0 22.5081 6.49187 29 14.5 29Z" fill="white"/>
</mask>
<g mask="url(#mask0)">
<path d="M11.1178 5.71423C6.54732 5.71423 2.78033 9.01069 2.78033 13.1383C2.78033 17.2658 6.54732 20.5623 11.1178 20.5623C11.7852 20.5623 12.3866 20.2842 12.8615 19.8409C13.3363 19.3976 13.7031 18.7974 13.9925 18.1027C14.5713 16.7132 14.8443 14.9266 14.8443 13.1383C14.8443 11.35 14.5713 9.56506 13.9925 8.17567C13.7031 7.48083 13.3363 6.88082 12.8615 6.43746C12.3866 5.99417 11.7852 5.71423 11.1178 5.71423ZM11.1178 6.64226C11.5377 6.64226 11.8884 6.79904 12.2289 7.11717C12.5695 7.4353 12.8828 7.92232 13.137 8.53266C13.6454 9.75321 13.9163 11.4466 13.9163 13.1383C13.9163 14.83 13.6454 16.5251 13.137 17.7457C12.8828 18.3559 12.5695 18.8432 12.2289 19.1613C11.8884 19.479 11.5377 19.6343 11.1178 19.6343C6.99061 19.6343 3.70833 16.6984 3.70833 13.1383C3.70833 9.57805 6.99061 6.64226 11.1178 6.64226Z" fill="#BD9224"/>
<path fill-rule="evenodd" clip-rule="evenodd" d="M16.6669 11.2842C16.5545 11.2922 16.4488 11.3408 16.3697 11.4211C16.2907 11.5014 16.2435 11.6079 16.237 11.7204C16.2306 11.833 16.2654 11.9441 16.3348 12.0329C16.4042 12.1217 16.5036 12.1822 16.6144 12.2029L25.4096 14.055C25.4699 14.0693 25.5323 14.0712 25.5933 14.0609C25.6543 14.0506 25.7126 14.0282 25.7648 13.995C25.8171 13.9618 25.8621 13.9184 25.8973 13.8675C25.9325 13.8166 25.9572 13.7592 25.9699 13.6986C25.9825 13.638 25.983 13.5754 25.9712 13.5147C25.9593 13.4539 25.9355 13.3961 25.901 13.3447C25.8665 13.2933 25.8221 13.2494 25.7704 13.2154C25.7186 13.1815 25.6606 13.1582 25.5998 13.147L16.8045 11.2949C16.7594 11.2846 16.713 11.2811 16.6669 11.2844V11.2842Z" fill="#BD9224"/>
<path fill-rule="evenodd" clip-rule="evenodd" d="M16.6669 7.57245C16.5545 7.58051 16.4488 7.62917 16.3697 7.70944C16.2907 7.78977 16.2435 7.89615 16.237 8.00872C16.2306 8.1213 16.2654 8.23237 16.3348 8.32117C16.4042 8.40997 16.5036 8.47046 16.6144 8.49128L25.4096 10.3433C25.4699 10.3577 25.5324 10.3597 25.5935 10.3494C25.6545 10.3392 25.7129 10.3168 25.7652 10.2836C25.8175 10.2504 25.8626 10.207 25.8979 10.1561C25.9331 10.1052 25.9578 10.0477 25.9705 9.98699C25.9832 9.92638 25.9836 9.86385 25.9718 9.80301C25.9599 9.74217 25.936 9.68434 25.9015 9.63295C25.8669 9.58151 25.8224 9.53755 25.7706 9.50362C25.7188 9.46969 25.6607 9.44654 25.5998 9.43546L16.8045 7.58329C16.7594 7.57291 16.713 7.56937 16.6669 7.5728V7.57245Z" fill="#BD9224"/>
<path fill-rule="evenodd" clip-rule="evenodd" d="M16.6669 18.707C16.5545 18.715 16.4488 18.7637 16.3697 18.844C16.2907 18.9243 16.2435 19.0307 16.237 19.1432C16.2306 19.2558 16.2654 19.3669 16.3348 19.4557C16.4042 19.5445 16.5036 19.605 16.6144 19.6258L25.4096 21.4777C25.4699 21.4921 25.5324 21.4942 25.5935 21.484C25.6545 21.4737 25.7129 21.4514 25.7652 21.4181C25.8175 21.3849 25.8626 21.3416 25.8979 21.2906C25.9331 21.2397 25.9578 21.1822 25.9705 21.1215C25.9832 21.0609 25.9836 20.9983 25.9718 20.9375C25.9599 20.8767 25.936 20.8189 25.9015 20.7674C25.8669 20.716 25.8224 20.6721 25.7706 20.6381C25.7188 20.6042 25.6607 20.581 25.5998 20.5699L16.8045 18.7178C16.7594 18.7074 16.713 18.7039 16.6669 18.7073V18.707Z" fill="#BD9224"/>
<path fill-rule="evenodd" clip-rule="evenodd" d="M16.6669 14.9953C16.5545 15.0034 16.4488 15.052 16.3697 15.1323C16.2907 15.2127 16.2435 15.319 16.237 15.4316C16.2306 15.5442 16.2654 15.6552 16.3348 15.744C16.4042 15.8328 16.5036 15.8933 16.6144 15.9141L25.4096 17.7662C25.4699 17.7805 25.5324 17.7826 25.5935 17.7723C25.6545 17.762 25.7129 17.7397 25.7652 17.7065C25.8175 17.6732 25.8626 17.6299 25.8979 17.579C25.9331 17.5281 25.9578 17.4705 25.9705 17.4099C25.9832 17.3492 25.9836 17.2867 25.9718 17.2259C25.9599 17.165 25.936 17.1072 25.9015 17.0558C25.8669 17.0044 25.8224 16.9604 25.7706 16.9265C25.7188 16.8926 25.6607 16.8694 25.5998 16.8583L16.8045 15.0061C16.7594 14.9958 16.713 14.9923 16.6669 14.9956V14.9953Z" fill="#BD9224"/>
</g>
</svg>
