<svg width="171" height="115" viewBox="0 0 171 115" fill="none" xmlns="http://www.w3.org/2000/svg">
<path d="M21.5674 21.8272C23.2803 22.494 24.8917 23.0593 26.4016 23.523C27.9403 23.9867 29.5809 24.2187 31.3229 24.2187C32.6003 24.2187 33.457 24.0593 33.8925 23.7404C34.3569 23.3925 34.5893 22.9723 34.5893 22.4794C34.5893 21.9577 34.3715 21.5374 33.936 21.2185C33.5295 20.8707 32.6874 20.4938 31.41 20.088C29.8712 19.5952 28.4629 19.088 27.1856 18.5662C25.937 18.0444 24.8628 17.4067 23.9628 16.653C23.0917 15.8704 22.4093 14.9428 21.9159 13.8703C21.4513 12.7688 21.219 11.4064 21.219 9.78312C21.219 8.21782 21.5239 6.82645 22.1336 5.60899C22.7433 4.39154 23.5998 3.37698 24.7031 2.56535C25.8355 1.72473 27.1999 1.08701 28.797 0.652206C30.3938 0.217403 32.1794 0 34.1538 0C36.7958 0 39.0895 0.231895 41.0349 0.695687C43.0091 1.13049 44.6205 1.5653 45.8691 2.00011L43.5173 9.47876C43.1108 9.30484 42.6171 9.11641 42.0366 8.91351C41.4558 8.71061 40.8315 8.52219 40.1639 8.34826C39.496 8.17434 38.7846 8.0294 38.0299 7.91346C37.3039 7.79752 36.5781 7.73954 35.8523 7.73954C34.836 7.73954 34.0521 7.89896 33.5005 8.21782C32.9487 8.53669 32.673 8.95699 32.673 9.47876C32.673 9.76862 32.7166 10.0295 32.8037 10.2614C32.9198 10.4643 33.1665 10.6817 33.5441 10.9136C33.9214 11.1165 34.4876 11.3629 35.2426 11.6528C36.0265 11.9137 37.1007 12.2615 38.4654 12.6963C40.9913 13.5079 42.9076 14.624 44.2141 16.0443C45.5496 17.4357 46.2175 19.3778 46.2175 21.8707C46.2175 25.3781 45.1141 28.0015 42.9076 29.7407C40.7009 31.4799 37.4781 32.3495 33.2392 32.3495C31.0906 32.3495 29.0147 32.1756 27.0114 31.8278C25.037 31.4799 23.2224 31.0162 21.5674 30.4364V21.8272ZM50.2558 14.0225H48.0673V8.47871H57.997V21.6207C57.997 22.4251 58.0515 23.0773 58.1604 23.5773C58.2692 24.0774 58.4326 24.4687 58.6503 24.7513C58.8681 25.0339 59.1512 25.2296 59.4996 25.3383C59.848 25.4252 60.2726 25.4687 60.7734 25.4687C61.2525 25.4687 61.6662 25.4252 62.0147 25.3383C62.3848 25.2296 62.6788 25.0339 62.8966 24.7513C63.1143 24.4687 63.2776 24.0774 63.3865 23.5773C63.4954 23.0773 63.5498 22.4251 63.5498 21.6207V8.47871H73.2509V14.0225H71.0624V21.5555C71.0624 23.3164 70.8773 24.86 70.5072 26.1862C70.1588 27.5123 69.5817 28.6211 68.776 29.5124C67.9703 30.382 66.9142 31.0451 65.6076 31.5017C64.3011 31.9365 62.6897 32.1539 60.7734 32.1539C58.8354 32.1539 57.1913 31.9365 55.8413 31.5017C54.5129 31.0451 53.435 30.382 52.6076 29.5124C51.7801 28.6211 51.1813 27.5123 50.8111 26.1862C50.4409 24.86 50.2558 23.3164 50.2558 21.5555V14.0225ZM74.9572 26.0231H77.1457V14.0225H74.9572V8.47871H86.8141C88.2948 8.47871 89.6014 8.6635 90.7337 9.03308C91.8878 9.38093 92.8459 9.89182 93.6081 10.5658C94.392 11.218 94.98 12.0115 95.3719 12.9463C95.7639 13.8812 95.9599 14.9138 95.9599 16.0443C95.9599 17.2618 95.7966 18.3488 95.4699 19.3054C95.1433 20.2402 94.6207 21.0228 93.9021 21.6533C93.1835 22.2838 92.258 22.7621 91.1257 23.0882C90.0151 23.4143 88.6759 23.5773 87.1081 23.5773H84.4297V26.0231H86.8141V31.5669H74.9572V26.0231ZM86.5528 18.1314C87.9246 18.1314 88.6106 17.5118 88.6106 16.2726C88.6106 15.0334 87.9246 14.4138 86.5528 14.4138H84.4623V18.1314H86.5528ZM97.6368 26.0231H99.8253V14.0225H97.6368V8.47871H116.092V14.4464H107.436V16.7618H114.948V22.7295H107.436V25.5992H116.712V31.5669H97.6368V26.0231ZM118.685 24.1752H121.603V8.17434H118.685V0.78265H135.496C137.471 0.78265 139.198 1.02904 140.679 1.52182C142.189 1.98561 143.437 2.65231 144.424 3.52192C145.412 4.39154 146.152 5.43507 146.645 6.65252C147.139 7.841 147.386 9.15989 147.386 10.6093C147.386 11.5368 147.299 12.363 147.124 13.0876C146.95 13.7833 146.675 14.421 146.297 15.0008C145.949 15.5515 145.499 16.0588 144.947 16.5226C144.424 16.9574 143.8 17.3777 143.074 17.7835C143.742 18.3053 144.25 18.9285 144.598 19.6532C144.976 20.3779 145.31 21.0881 145.6 21.7838C145.92 22.4505 146.268 23.0158 146.645 23.4795C147.023 23.9432 147.589 24.1752 148.344 24.1752H149.781V31.5669H142.29C141.216 31.5669 140.316 31.3349 139.59 30.8712C138.864 30.4075 138.255 29.8131 137.761 29.0885C137.267 28.3347 136.846 27.5086 136.498 26.6101C136.149 25.7116 135.816 24.842 135.496 24.0013C135.177 23.1606 134.814 22.3925 134.407 21.6968C134.03 21.0011 133.566 20.4793 133.014 20.1315H131.228V24.1752H133.885V31.5669H118.685V24.1752ZM134.146 13.392C135.046 13.392 135.729 13.2036 136.193 12.8268C136.658 12.4499 136.89 11.8412 136.89 11.0006C136.89 9.4063 135.975 8.60915 134.146 8.60915H131.272V13.392H134.146ZM43.4487 107.44H46.3667V91.4396H43.4487V84.0479H60.1289V91.4396H56.7754V106.788H68.3165V114.832H43.4487V107.44ZM70.3003 109.288H72.4234L78.1395 91.7439H88.3305L94.014 109.288H96.1371V114.832H87.8079L86.5667 110.462H79.3154L78.0742 114.832H70.3003V109.288ZM84.8356 104.462L82.9411 97.9399L81.0466 104.462H84.8356ZM98.1113 107.44H101.029V91.4396H98.1113V84.0479H114.443C116.737 84.0479 118.624 84.2799 120.105 84.7436C121.585 85.1784 122.732 85.7725 123.545 86.5263C124.387 87.2509 124.968 88.0916 125.287 89.0482C125.607 90.0047 125.766 90.9759 125.766 91.9613C125.766 93.6717 125.345 95.0485 124.503 96.092C123.661 97.1355 122.689 97.8893 121.585 98.353C123.473 98.9328 124.895 99.9037 125.853 101.266C126.841 102.629 127.334 104.121 127.334 105.745C127.334 108.643 126.376 110.89 124.46 112.484C122.544 114.049 119.785 114.832 116.185 114.832H98.1113V107.44ZM113.224 95.8746C114.24 95.8746 114.922 95.6572 115.271 95.2224C115.648 94.7876 115.837 94.2369 115.837 93.5701C115.837 92.9614 115.648 92.4542 115.271 92.0483C114.922 91.6135 114.24 91.3961 113.224 91.3961H110.741V95.8746H113.224ZM113.616 107.31C114.545 107.31 115.271 107.078 115.793 106.614C116.345 106.151 116.621 105.513 116.621 104.701C116.621 103.86 116.345 103.223 115.793 102.788C115.271 102.324 114.545 102.092 113.616 102.092H110.741V107.31H113.616Z" fill="white"/>
<path d="M24.649 62.7442H20.7943V55.3357H35.942V74.8233C33.4807 76.2907 30.947 77.2928 28.3409 77.8297C25.7711 78.3665 23.0202 78.635 20.0885 78.635C16.7585 78.635 13.8266 78.1518 11.293 77.1855C8.79549 76.2191 6.69615 74.8592 4.99497 73.1054C3.32998 71.3516 2.08124 69.2579 1.24874 66.8243C0.416246 64.3548 0 61.6347 0 58.6642C0 55.6219 0.470539 52.884 1.41162 50.4504C2.3889 47.9809 3.78241 45.8871 5.5922 44.1692C7.40196 42.4154 9.60989 41.0733 12.216 40.1429C14.822 39.1765 17.79 38.6934 21.12 38.6934C22.785 38.6934 24.3415 38.8186 25.7891 39.0692C27.237 39.3198 28.5581 39.6238 29.7525 39.9818C30.947 40.3398 32.0148 40.7334 32.9558 41.1629C33.8971 41.5923 34.6932 41.986 35.3447 42.3439L31.1642 51.5241C30.006 50.7725 28.7572 50.1641 27.4179 49.6988C26.1149 49.1978 24.5947 48.9472 22.8573 48.9472C21.3734 48.9472 20.0703 49.1978 18.9483 49.6988C17.8262 50.1641 16.9033 50.844 16.1794 51.7388C15.4554 52.5978 14.9125 53.6356 14.5506 54.8525C14.1886 56.0336 14.0076 57.322 14.0076 58.7178C14.0076 60.0063 14.1524 61.2232 14.442 62.3684C14.7315 63.5136 15.184 64.5158 15.7993 65.3748C16.4508 66.2337 17.2471 66.9138 18.1882 67.4148C19.1293 67.9158 20.2513 68.1664 21.5544 68.1664C22.1698 68.1664 22.767 68.1305 23.346 68.059C23.9614 67.9875 24.3958 67.9158 24.649 67.8443V62.7442ZM40.3225 70.3675H43.2327V54.5626H40.3225V47.2615H57.0883C59.0574 47.2615 60.7802 47.5048 62.257 47.9916C63.7626 48.4496 65.0079 49.1082 65.9923 49.9672C66.9768 50.8262 67.7152 51.8569 68.2075 53.0595C68.6998 54.2334 68.9459 55.536 68.9459 56.9677C68.9459 57.884 68.859 58.7 68.6853 59.4158C68.5115 60.1029 68.2364 60.7327 67.86 61.3055C67.5125 61.8494 67.0636 62.3506 66.5135 62.8086C65.9923 63.2381 65.3697 63.6532 64.6459 64.0541C65.3119 64.5695 65.8186 65.1852 66.1661 65.9009C66.5424 66.6166 66.8756 67.3182 67.1651 68.0053C67.4837 68.664 67.8311 69.2223 68.2075 69.6803C68.5838 70.1384 69.1485 70.3675 69.9014 70.3675H71.3348V77.6686H63.864C62.7927 77.6686 61.8949 77.4395 61.1711 76.9815C60.4473 76.5234 59.8392 75.9363 59.3469 75.2206C58.8545 74.4761 58.4347 73.6601 58.0873 72.7726C57.7398 71.8851 57.4069 71.0261 57.0883 70.1957C56.7697 69.3653 56.4079 68.6066 56.0024 67.9194C55.626 67.2323 55.1626 66.7169 54.6125 66.3733H52.8317V70.3675H55.4812V77.6686H40.3225V70.3675ZM55.7418 59.7164C56.6394 59.7164 57.32 59.5302 57.7832 59.1581C58.2464 58.7859 58.4782 58.1846 58.4782 57.3542C58.4782 55.7796 57.566 54.9921 55.7418 54.9921H52.8751V59.7164H55.7418ZM73.5771 70.3675H76.4872V54.5626H73.5771V47.2615H98.1176V55.121H86.6074V58.1703H96.5974V66.0297H86.6074V69.8092H98.9428V77.6686H73.5771V70.3675ZM101.19 70.3675H104.1V54.5626H101.19V47.2615H125.731V55.121H114.221V58.1703H124.211V66.0297H114.221V69.8092H126.556V77.6686H101.19V70.3675ZM129.086 68.5422H132.723V48.7861H129.086V39.6597H145.645L155.689 58.6642V39.6597H171V48.7861H167.362V77.6686H154.929L144.288 58.7178V77.6686H129.086V68.5422Z" fill="#3BB30B"/>
</svg>
