<svg width="44" height="52" viewBox="0 0 44 52" fill="none" xmlns="http://www.w3.org/2000/svg">
<g clip-path="url(#clip0)">
<path d="M12.5591 9.01139C13.079 9.70458 13.6566 10.0512 14.2921 10.0512C15.3318 10.0512 15.9672 9.01139 16.025 8.95363C16.1405 8.72257 18.9133 3.92804 17.4691 1.44413C16.8915 0.462123 15.8517 0 14.3498 0C12.9634 0 11.9237 0.462123 11.4038 1.38637C9.9019 3.87028 12.4436 8.72257 12.5591 8.95363V9.01139ZM12.2125 1.84849C12.5591 1.21307 13.31 0.924245 14.3498 0.924245C15.5051 0.924245 16.2561 1.21307 16.6604 1.90626C17.6424 3.58145 15.9672 7.22067 15.2163 8.43374C15.2163 8.43374 14.8119 9.06916 14.2921 9.06916C13.9455 9.06916 13.5989 8.72257 13.3678 8.43374C12.6746 7.1629 11.2305 3.52369 12.2125 1.84849Z" fill="#EB3AEF"/>
<path d="M10.2484 11.7841H10.3061C10.3639 11.7841 10.4217 11.7841 10.4794 11.7841C11.2881 11.7841 11.8658 11.553 12.2702 11.0331C12.8478 10.2822 12.559 9.24241 12.5012 9.06912C12.3857 8.83806 10.3061 3.06152 7.24458 3.06152C6.32033 3.06152 5.39608 3.58141 4.58737 4.56342C3.66312 5.66096 3.3743 6.70074 3.72089 7.68275C4.64513 10.5133 10.0173 11.7263 10.2484 11.7841ZM5.28055 5.25661C5.91597 4.50566 6.55139 4.1013 7.18681 4.1013C9.2086 4.1013 10.9993 7.97158 11.577 9.41571C11.577 9.41571 11.7503 10.1089 11.4614 10.4555C11.2881 10.6865 10.8838 10.8021 10.3639 10.8021C8.91977 10.4555 5.22279 9.30018 4.58737 7.45169C4.35631 6.7585 4.58737 6.06532 5.28055 5.25661Z" fill="#EB3AEF"/>
<path d="M4.81856 18.0227C7.418 18.0227 10.7684 15.481 10.8839 15.3655L10.9417 15.3077C11.5193 14.6723 11.8081 13.9791 11.6349 13.3437C11.4038 12.3617 10.4218 11.9574 10.3062 11.8996C10.1907 11.8418 7.70683 10.9753 5.51175 10.9753C4.06761 10.9753 2.97007 11.3797 2.33465 12.1306C1.757 12.8238 1.52594 13.8636 1.757 15.1344C2.21912 17.5028 3.66325 18.0227 4.81856 18.0227ZM3.0856 12.7083C3.54772 12.1884 4.35644 11.8996 5.51175 11.8996C7.5913 11.8996 9.95968 12.7661 9.95968 12.7661C9.95968 12.7661 10.5951 13.0549 10.7106 13.517C10.7684 13.8058 10.6528 14.1524 10.2485 14.5568C9.90191 14.7879 6.95588 16.9829 4.81856 16.9829C3.60549 16.9829 2.97007 16.3475 2.73901 14.9034C2.56571 13.9791 2.68124 13.2282 3.0856 12.7083Z" fill="#EB3AEF"/>
<path d="M12.3857 15.1924C11.8081 15.1924 11.2882 15.4234 11.2304 15.4812C10.9994 15.5967 6.20483 18.3695 6.20483 21.2577C6.20483 22.3553 6.89802 23.3373 8.16886 24.0882C8.86204 24.4926 9.55522 24.7236 10.1329 24.7236C13.8299 24.7236 14.1765 17.5607 14.1765 17.2719V17.2141C14.0032 15.4234 12.9056 15.1924 12.3857 15.1924ZM10.1906 23.7416C9.72852 23.7416 9.2664 23.5683 8.68874 23.2795C7.64897 22.7019 7.18684 22.0664 7.18684 21.3155C7.18684 19.4092 10.4795 17.0986 11.6925 16.3477C11.6925 16.3477 12.0391 16.1744 12.3857 16.1744C12.559 16.1744 13.1367 16.1744 13.2522 17.2719C13.1944 19.1204 12.5013 23.7416 10.1906 23.7416Z" fill="#EB3AEF"/>
<path d="M18.8554 12.0151H18.7977C17.9312 12.3039 17.4113 12.7083 17.238 13.3437C16.9492 14.268 17.5846 15.1922 17.7001 15.3077C17.7001 15.3077 17.8156 15.481 18.0467 15.6543C17.9889 15.5966 17.9312 15.5388 17.8734 15.5388L17.8156 15.481C17.238 15.1922 16.7759 15.0189 16.3715 15.0189C15.2162 15.0189 14.6385 16.1742 14.523 16.8096C14.4653 17.0407 13.7721 21.893 15.5628 23.9725C16.0827 24.608 16.7759 24.8968 17.6423 24.8968C18.1622 24.8968 18.7399 24.7813 19.3753 24.4924C20.7039 23.9725 21.4549 23.1638 21.6282 22.124C21.917 20.3333 20.4151 18.3115 19.202 16.9252C20.4151 18.0227 22.0903 19.2358 23.6499 19.2358C24.5742 19.2358 25.845 18.8314 26.596 16.7519C27.0581 15.481 27.0003 14.4413 26.4227 13.6325C25.3829 12.1306 22.899 11.8418 20.9927 11.8418C19.8374 11.8996 18.9132 12.0151 18.8554 12.0151ZM20.7039 21.9508C20.5884 22.6439 20.0685 23.2216 19.0865 23.5682C18.5666 23.7992 18.1045 23.857 17.7001 23.857C17.1225 23.857 16.7181 23.6837 16.3715 23.2216C15.1584 21.7775 15.3317 18.1382 15.5628 16.8674C15.5628 16.8096 15.7361 15.8854 16.4293 15.8854C16.6603 15.8854 16.9492 16.0009 17.238 16.1742C18.3355 17.214 21.0505 20.0445 20.7039 21.9508ZM25.6717 14.2102C26.0761 14.7879 26.0761 15.481 25.7295 16.4053C25.2674 17.6761 24.632 18.2538 23.7077 18.2538C21.8014 18.2538 19.202 15.6543 18.3933 14.6146C18.3933 14.6146 17.9889 14.0369 18.1045 13.5748C18.22 13.286 18.5088 13.0549 19.0287 12.8816C19.202 12.8816 20.0107 12.7661 21.0505 12.7661C23.4189 12.8238 25.0363 13.3437 25.6717 14.2102Z" fill="#EB3AEF"/>
<path d="M16.4292 8.8958C16.0826 9.70451 16.1403 10.3977 16.4869 10.9753C17.0646 11.7841 18.1621 11.8418 18.2777 11.8418C18.5087 11.8418 24.0542 11.6685 25.4406 9.12686C25.9604 8.14485 25.8449 6.98954 25.0362 5.7187C24.2853 4.50563 23.4188 3.92798 22.3212 3.92798C19.433 3.92798 16.6025 8.66474 16.4292 8.83803C16.4292 8.83803 16.4292 8.83803 16.4292 8.8958ZM17.2956 9.24239C18.0466 7.97155 20.3572 4.79446 22.3212 4.79446C23.0144 4.79446 23.6498 5.25658 24.2275 6.12306C24.8629 7.10507 24.9784 7.91379 24.6318 8.60697C23.7076 10.2822 19.7796 10.7443 18.3354 10.8021C18.1044 10.8021 17.5845 10.6865 17.3534 10.3399C17.1224 10.1666 17.1224 9.76228 17.2956 9.24239Z" fill="#EB3AEF"/>
<path d="M16.6602 12.8239C16.6602 11.6108 15.6782 10.571 14.4074 10.571C13.1943 10.571 12.1545 11.5531 12.1545 12.8239C12.1545 14.037 13.1365 15.0767 14.4074 15.0767C15.6782 15.0767 16.6602 14.0947 16.6602 12.8239ZM13.1365 12.8239C13.1365 12.1307 13.7142 11.5531 14.4074 11.5531C15.1005 11.5531 15.6782 12.1307 15.6782 12.8239C15.6782 13.5171 15.1005 14.0947 14.4074 14.0947C13.7142 14.0947 13.1365 13.5171 13.1365 12.8239Z" fill="#EB3AEF"/>
<path d="M25.3253 21.1999C24.6898 22.1819 24.6321 23.1061 25.0364 23.8571C25.6719 25.0124 27.2893 25.4745 28.6179 25.7056C28.5601 25.7056 28.4446 25.7056 28.3868 25.7056C26.3073 25.7056 24.9209 26.1677 24.2855 27.0919C23.8234 27.7274 23.7656 28.5361 24.1122 29.4603C24.6898 31.02 25.6719 31.3666 26.365 31.3666C27.1738 31.3666 27.9825 30.9622 28.7334 30.4423C28.098 31.3088 27.5781 32.4064 27.7514 33.3884C27.8669 34.1971 28.4446 34.8325 29.4844 35.2369C29.9465 35.4102 30.4086 35.5257 30.813 35.5257C31.4484 35.5257 32.026 35.2946 32.4304 34.7747C33.1813 33.9082 33.3546 32.4641 33.3546 31.251C33.6435 32.9262 34.3367 35.4102 36.3007 35.4102C36.7628 35.4102 37.2827 35.2369 37.8026 34.948C38.8424 34.3704 39.3045 33.6194 39.3045 32.7529C39.3045 31.4821 38.0914 30.269 37.0516 29.4026C37.9759 29.9224 39.1312 30.4423 40.171 30.4423C41.4418 30.4423 42.3083 29.6336 42.5393 28.2472C42.7126 27.2652 42.5393 26.4565 42.0772 25.9366C41.6151 25.359 40.7486 25.0702 39.6511 25.0702C39.2467 25.0702 38.8424 25.1279 38.438 25.1857C39.5355 24.7236 40.6908 23.9726 41.0952 22.9328C41.384 22.1241 41.153 21.3154 40.4598 20.5067C39.8244 19.7557 39.1312 19.3514 38.3802 19.3514C37.1672 19.3514 36.1851 20.4489 35.492 21.6042C35.8386 20.4489 36.0119 19.0626 35.4342 18.1383C35.0298 17.4451 34.2211 17.0408 33.1814 17.0408C32.026 17.0408 31.2173 17.4451 30.7552 18.1961C29.9465 19.6402 30.8707 21.8931 31.4484 23.1061C30.7552 22.0664 29.08 19.929 27.347 19.929C26.5961 19.8713 25.9029 20.3334 25.3253 21.1999ZM26.4228 30.4423C26.1917 30.4423 25.4986 30.4423 25.0364 29.1715C24.8054 28.5361 24.8054 28.0162 25.0942 27.6696C25.4986 27.0342 26.7116 26.6876 28.3868 26.6876C29.08 26.6876 29.6577 26.7453 29.831 26.7453C30.062 26.8031 30.3508 26.9764 30.4086 27.1497C30.4664 27.3808 30.2931 27.7274 30.2353 27.7851C29.5999 28.5361 27.7514 30.4423 26.4228 30.4423ZM31.7372 34.1971C31.5062 34.4859 31.2173 34.6014 30.813 34.6014C30.5241 34.6014 30.1776 34.5437 29.831 34.3704C29.1378 34.0815 28.7912 33.735 28.7334 33.2728C28.5024 31.9442 30.4664 29.9224 31.2751 29.2293C31.5062 29.1137 31.6795 29.056 31.795 29.056C32.1993 29.056 32.3149 29.6336 32.3149 29.6336C32.4304 30.5579 32.6037 33.1573 31.7372 34.1971ZM38.438 32.7529C38.438 33.2728 38.0914 33.6772 37.3982 34.0815C36.9939 34.3126 36.6473 34.4281 36.3584 34.4281C34.7988 34.4281 34.2789 31.02 34.2211 29.8069C34.3367 29.1137 34.6255 29.1137 34.741 29.1137C34.9143 29.1137 35.1454 29.1715 35.2031 29.2293C36.0696 29.7491 38.438 31.4243 38.438 32.7529ZM35.6075 28.4205C35.5497 28.4205 35.1454 28.1895 34.6832 28.1895C34.3367 28.1895 33.4702 28.305 33.2391 29.5181C33.2391 29.4603 33.2391 29.4603 33.2391 29.4603C33.1236 28.9982 32.7192 28.074 31.795 28.074C31.5639 28.074 31.3329 28.1317 31.1018 28.1895C31.2751 27.9007 31.4484 27.4385 31.2751 26.9186C31.1596 26.4565 30.7552 26.1677 30.2353 25.9366C30.2931 25.9366 30.3508 25.9366 30.3508 25.9366C30.4664 25.9366 31.3329 25.8789 31.7372 25.2435C31.9683 24.8969 32.026 24.377 31.8527 23.8571C31.9683 24.0304 32.4304 24.6658 33.1814 24.6658C33.5857 24.6658 33.9901 24.4925 34.3367 24.0881C34.2789 24.377 34.2789 24.8969 34.5677 25.3012C34.741 25.5323 35.0876 25.8211 35.7808 25.8789C35.492 26.0522 35.0876 26.3988 34.9721 26.9186C35.0298 27.4385 35.2031 27.9007 35.6075 28.4205ZM41.4418 26.5721C41.7306 26.9186 41.7884 27.4385 41.6729 28.1317C41.4418 29.4026 40.8064 29.5759 40.2287 29.5759C38.7268 29.5759 36.5895 28.074 36.3007 27.8429C36.1274 27.6696 35.9541 27.3808 36.0119 27.2075C36.0696 26.9764 36.4162 26.8031 36.474 26.7453C36.474 26.7453 38.2069 26.1099 39.7088 26.1099C40.5753 26.0522 41.153 26.2255 41.4418 26.5721ZM38.4958 20.2756C38.9001 20.2756 39.3622 20.5645 39.8244 21.0843C40.2865 21.662 40.4598 22.1241 40.2865 22.5862C39.8244 23.8571 37.1672 24.7236 36.1274 24.9546H36.0696C35.8386 24.9546 35.5497 24.8969 35.4342 24.7813C35.2609 24.608 35.3764 24.2037 35.3764 24.1459C35.7808 23.1061 37.1094 20.2756 38.4958 20.2756ZM31.6795 18.6004C31.9105 18.1383 32.4304 17.965 33.2391 17.965C33.9901 17.965 34.4522 18.1383 34.6832 18.6004C35.3764 19.7557 34.3367 22.3552 33.8168 23.2794C33.6435 23.4527 33.4702 23.6838 33.2391 23.6838C33.0081 23.6838 32.7192 23.395 32.6615 23.2794C32.2571 22.4129 30.9863 19.8135 31.6795 18.6004ZM27.4048 20.7955C28.7334 20.7955 30.4086 23.0484 30.9863 23.9726C31.044 24.2037 31.1596 24.4925 31.044 24.6658C30.9285 24.8391 30.5241 24.8969 30.4086 24.9546C29.3688 24.9546 26.5383 24.608 25.9029 23.395C25.6719 22.9328 25.7296 22.4129 26.1917 21.7198C26.5383 21.0843 26.9427 20.7955 27.4048 20.7955Z" fill="#EB3AEF"/>
<path d="M33.2391 24.8391C32.3149 24.8391 31.5061 25.5901 31.5061 26.5721C31.5061 27.5541 32.2571 28.305 33.2391 28.305C34.1633 28.305 34.9721 27.5541 34.9721 26.5721C34.9721 25.5901 34.1633 24.8391 33.2391 24.8391ZM33.2391 27.323C32.8347 27.323 32.4882 26.9764 32.4882 26.5721C32.4882 26.1677 32.8347 25.8211 33.2391 25.8211C33.6435 25.8211 33.9901 26.1677 33.9901 26.5721C33.9901 26.9764 33.6435 27.323 33.2391 27.323Z" fill="#EB3AEF"/>
<path d="M43.9256 38.8762C43.8678 38.7029 43.7523 38.5874 43.579 38.5874C42.4814 38.2408 41.3261 38.0675 40.2864 38.0675C36.5316 38.0675 34.3365 40.2626 33.5278 41.3601C34.5098 37.3743 34.1055 34.6593 34.1055 34.486C34.0477 34.1972 33.8166 34.0239 33.5856 34.0817C33.2968 34.1395 33.1235 34.3705 33.1812 34.6016C33.1812 34.6593 33.5278 36.9122 32.7769 40.3203C31.9682 38.3563 30.0041 35.5258 25.2096 34.8904C25.0363 34.8904 24.9208 34.9482 24.8053 35.0637C24.6897 35.1792 24.632 35.3525 24.6897 35.5258C24.7475 35.8147 26.596 42.8043 31.9682 42.8043C32.0259 42.8043 32.0837 42.8043 32.1415 42.8043C31.3327 45.2882 30.0041 48.1187 27.7513 51.0069C27.7513 51.0069 27.7513 51.0069 27.6935 51.0647L27.6358 51.1225L27.578 51.1802C27.578 51.1802 27.578 51.1802 27.5202 51.1802H27.4625C27.3469 51.1802 27.2314 51.1225 27.1736 51.0647C12.8478 38.7029 14.4653 23.4529 14.4653 23.2796C14.523 22.9907 14.292 22.7597 14.0609 22.7597C13.7721 22.7019 13.541 22.933 13.541 23.164C13.541 23.2218 13.1944 26.5722 14.1764 31.309C13.6565 30.4425 10.7105 26.3989 4.76068 26.3989C3.37432 26.3989 1.87242 26.63 0.370519 27.0921C0.197223 27.1499 0.0816925 27.2654 0.0239271 27.3809C-0.0338382 27.5542 0.0239274 27.6697 0.0816927 27.843C0.254989 28.0741 4.52962 33.3885 9.84403 33.3885C11.3459 33.3885 12.7901 32.9841 14.1187 32.1177C14.2342 32.0599 14.292 32.0021 14.292 31.8866C15.5628 37.5476 18.7977 45.0571 26.596 51.6424C26.8848 51.8734 27.2314 52.0467 27.578 51.9889C27.578 51.9889 27.578 51.9889 27.6358 51.9889C27.9246 51.9889 28.2134 51.8734 28.4445 51.6424C28.5022 51.5846 28.56 51.5268 28.56 51.4691C31.1017 48.2342 32.488 45.0571 33.2968 42.3999C33.2968 42.3999 33.3545 42.4577 33.4123 42.4577C34.3943 43.0931 35.4918 43.4397 36.5894 43.4397C40.5174 43.4397 43.6945 39.4539 43.8678 39.3383C43.9256 39.165 43.9833 38.9917 43.9256 38.8762ZM32.0259 41.7067C28.3289 41.7067 26.4804 37.6054 25.9028 35.8724C30.8128 36.7967 32.0259 40.3781 32.3725 41.7067C32.1992 41.7067 32.1415 41.7067 32.0259 41.7067ZM9.84403 32.4643C5.97376 32.4643 2.5656 29.1716 1.35253 27.843C2.50784 27.5542 3.66314 27.3809 4.76068 27.3809C9.67074 27.3809 12.3857 30.5002 13.1944 31.5978C12.0969 32.1754 10.9993 32.4643 9.84403 32.4643ZM36.5894 42.4577C35.8384 42.4577 35.0875 42.2844 34.3365 41.88C35.0297 41.0135 36.936 38.934 40.3441 38.934C41.0373 38.934 41.846 39.0495 42.597 39.2228C41.615 40.3203 39.2466 42.4577 36.5894 42.4577Z" fill="#EB3AEF"/>
</g>
<defs>
<clipPath id="clip0">
<rect width="44" height="52" fill="white"/>
</clipPath>
</defs>
</svg>
