<svg width="40" height="52" viewBox="0 0 40 52" fill="none" xmlns="http://www.w3.org/2000/svg">
<path d="M10.5773 29.7V27.1333C11.1995 27.5 11.8216 27.7 12.4438 27.7C13.6554 27.7 15.391 27.4 16.7009 25.8C17.2576 25.1 17.4213 24.3 17.0939 23.5667C16.6682 22.6333 15.6202 22 14.3759 22C13.5245 22 11.3959 22.3 9.79131 25.2333C8.154 22.3 6.05815 22 5.20675 22C3.99512 22 2.91447 22.6333 2.48877 23.5667C2.16129 24.3 2.29228 25.1 2.88172 25.8C4.1916 27.4 5.92719 27.7333 7.13885 27.7C7.69552 27.7 8.38321 27.6333 9.0709 27.2V29.7C3.89688 29.8667 0 31.7 0 34.0333C0 34.1333 1.24654e-07 34.2333 0.032747 34.3L0.360216 38.5C0.42571 39.5 0.949661 40.4333 1.73559 41L2.25954 47.7667C2.25954 47.8 2.25954 47.8 2.25954 47.8333C2.29228 48.0333 3.6349 52 9.79131 52C15.9477 52 17.2903 48.0333 17.3231 47.8667C17.3231 47.8333 17.3231 47.8333 17.3231 47.8L17.8798 41C18.6657 40.4 19.1569 39.5 19.2552 38.5L19.5826 34.3333C19.5826 34.2333 19.6154 34.1333 19.6154 34.0333C19.5826 31.7333 15.7185 29.8667 10.5773 29.7ZM7.13885 27.1C6.05815 27.1 4.51907 26.8333 3.34018 25.4C2.91447 24.8667 2.81623 24.3 3.04546 23.8C3.37293 23.1 4.25709 22.6 5.2395 22.6C6.02544 22.6 8.05575 22.9 9.5621 26.0333C9.59487 26.1333 9.72583 26.2 9.82408 26.2C9.92233 26.2 10.0205 26.1333 10.0861 26.0333C11.5596 22.9 13.5899 22.5667 14.3759 22.6C15.3583 22.6 16.2425 23.1 16.5699 23.8C16.7991 24.3333 16.7009 24.9 16.2752 25.4C15.0963 26.8333 13.5572 27.1 12.4765 27.1C11.8216 27.1 11.1339 26.8333 10.479 26.3333C10.3808 26.2667 10.2825 26.2667 10.1843 26.3C10.0861 26.3667 10.0205 26.4667 10.0205 26.5667V30V31.0667V32.7667C9.88956 32.7333 9.7586 32.7 9.66035 32.7V31.0667V30V26.6667C9.66035 26.5667 9.59487 26.4333 9.49662 26.4C9.46385 26.3667 9.39837 26.3667 9.3656 26.3667C9.30012 26.3667 9.23463 26.4 9.16915 26.4333C8.44869 27 7.761 27.1 7.13885 27.1ZM4.32259 33.8333C4.94478 33.5667 5.66521 33.6667 6.51663 34.0667C6.6476 34.1333 6.77862 34.1 6.87687 33.9667C6.87687 33.9667 7.40077 33.3333 8.80892 33.2667C8.97265 33.2667 9.16915 33.2667 9.33288 33.2667C9.33288 33.2667 9.33288 33.2667 9.3656 33.2667C9.3656 33.2667 9.3656 33.2667 9.39837 33.2667C9.39837 33.2667 9.82408 33.2333 10.1843 33.4333C10.1843 33.4333 10.1843 33.4333 10.217 33.4333C10.61 33.6 10.8065 33.8333 10.8065 33.8333C10.8719 33.9 10.9375 33.9333 11.0357 33.9333C11.1339 33.9333 11.1995 33.9 11.2649 33.8C11.2977 33.7667 11.8544 33.0333 13.2298 33.2C14.3431 33.3333 14.8016 34.4 14.8016 34.4333C14.8344 34.5333 14.9326 34.6 14.9981 34.6C15.0963 34.6333 15.1945 34.6 15.26 34.5333C15.26 34.5333 15.5875 34.2 16.0132 34.2333C16.2425 34.2333 16.4717 34.3333 16.7009 34.5333C15.5548 35.3 13.0333 35.9667 9.72583 35.9667C6.8441 35.9667 4.55182 35.4667 3.24194 34.8333C3.40567 34.5333 3.76589 34.0667 4.32259 33.8333ZM2.75074 34.5333C2.35778 34.2667 2.12855 33.9667 2.12855 33.6667C2.12855 32.6333 4.91203 31.5 9.0709 31.3667V32.6667C8.97265 32.6667 8.8744 32.6667 8.80892 32.6667C7.56456 32.7333 6.90958 33.2 6.61488 33.4333C5.69796 33.0333 4.84654 32.9667 4.12611 33.2667C3.37293 33.6 2.94722 34.1667 2.75074 34.5333ZM16.0132 33.6667C15.6202 33.6667 15.3256 33.8 15.1291 33.9333C14.8671 33.5 14.2776 32.8 13.2625 32.6667C12.0508 32.5 11.2977 32.9667 10.9702 33.2667C10.8719 33.2 10.741 33.1 10.5773 33V31.3667C14.6379 31.5333 17.3231 32.6667 17.3231 33.6667C17.3231 33.8333 17.2576 34 17.1266 34.1667C16.7991 33.8333 16.4062 33.6667 16.0132 33.6667ZM9.79131 51.4C4.28984 51.4 2.94722 48.0667 2.81623 47.7L2.32503 41.3667C3.7004 42.0667 6.09092 42.8333 9.79131 42.8333C13.4917 42.8333 15.8822 42.0333 17.2576 41.3667L16.7664 47.7C16.6354 48.1 15.2928 51.4 9.79131 51.4ZM18.9932 34.2667L18.6657 38.4667C18.6002 39.4667 18.0108 40.3667 17.1594 40.8C15.8495 41.4667 13.5245 42.2667 9.82408 42.2667C6.09092 42.2667 3.76589 41.4667 2.48877 40.8C1.63734 40.3667 1.0479 39.4667 0.982408 38.4667L0.65494 34.2667C0.65494 34.2 0.622188 34.1333 0.622188 34.0667C0.622188 32.1333 4.38808 30.4667 9.10362 30.3333V30.8333C5.33774 30.9333 1.6046 31.9333 1.6046 33.7333C1.6046 35.6333 5.82894 36.6333 9.79131 36.6333C13.7537 36.6333 17.978 35.6333 17.978 33.7333C17.978 32 14.3431 30.9667 10.6427 30.8333V30.3333C15.3256 30.5 19.0587 32.1667 19.0587 34.0667C18.9932 34.1 18.9932 34.1667 18.9932 34.2667Z" fill="#3BB30B"/>
<g clip-path="url(#clip0)">
<path d="M21.2455 5.19888C21.5455 5.5988 21.8787 5.79877 22.2453 5.79877C22.8452 5.79877 23.2117 5.19888 23.2451 5.16556C23.3117 5.03225 24.9114 2.26618 24.0782 0.833152C23.745 0.266609 23.1451 0 22.2786 0C21.4788 0 20.879 0.266609 20.579 0.799829C19.7125 2.23285 21.1789 5.03225 21.2455 5.16556V5.19888ZM21.0456 1.06644C21.2455 0.699848 21.6787 0.533218 22.2786 0.533218C22.9452 0.533218 23.3784 0.699848 23.6117 1.09977C24.1782 2.06622 23.2117 4.16577 22.7785 4.86562C22.7785 4.86562 22.5452 5.23221 22.2453 5.23221C22.0454 5.23221 21.8454 5.03225 21.7121 4.86562C21.3122 4.13244 20.479 2.0329 21.0456 1.06644Z" fill="#EB3AEF"/>
<path d="M19.9126 6.79862H19.9459C19.9792 6.79862 20.0126 6.79862 20.0459 6.79862C20.5124 6.79862 20.8457 6.66529 21.079 6.36535C21.4123 5.93213 21.2457 5.33226 21.2123 5.23228C21.1457 5.09898 19.9459 1.76636 18.1796 1.76636C17.6464 1.76636 17.1132 2.06629 16.6466 2.63284C16.1134 3.26603 15.9468 3.86591 16.1467 4.43245C16.68 6.06546 19.7793 6.76527 19.9126 6.79862ZM17.0465 3.03276C17.4131 2.59952 17.7797 2.36623 18.1463 2.36623C19.3127 2.36623 20.3458 4.59908 20.6791 5.43224C20.6791 5.43224 20.7791 5.83215 20.6124 6.03211C20.5124 6.16538 20.2792 6.23208 19.9792 6.23208C19.1461 6.03212 17.0132 5.36558 16.6466 4.29915C16.5133 3.89923 16.6466 3.49932 17.0465 3.03276Z" fill="#EB3AEF"/>
<path d="M16.7798 10.3976C18.2794 10.3976 20.2124 8.93123 20.279 8.8646L20.3124 8.83125C20.6456 8.46467 20.8122 8.06475 20.7123 7.69817C20.579 7.13163 20.0124 6.89838 19.9457 6.86504C19.8791 6.83169 18.4461 6.33179 17.1797 6.33179C16.3465 6.33179 15.7133 6.56509 15.3467 6.99831C15.0135 7.39823 14.8802 7.99811 15.0135 8.73127C15.2801 10.0977 16.1132 10.3976 16.7798 10.3976ZM15.78 7.33159C16.0466 7.03165 16.5132 6.86504 17.1797 6.86504C18.3794 6.86504 19.7458 7.36494 19.7458 7.36494C19.7458 7.36494 20.1124 7.53156 20.179 7.79815C20.2124 7.96477 20.1457 8.16473 19.9124 8.39804C19.7125 8.53136 18.0128 9.79771 16.7798 9.79771C16.0799 9.79771 15.7133 9.43113 15.58 8.598C15.48 8.06475 15.5467 7.63154 15.78 7.33159Z" fill="#EB3AEF"/>
<path d="M21.1455 8.76465C20.8122 8.76465 20.5123 8.89792 20.479 8.93126C20.3457 8.9979 17.5796 10.5976 17.5796 12.2639C17.5796 12.8971 17.9795 13.4636 18.7127 13.8968C19.1126 14.1301 19.5125 14.2634 19.8458 14.2634C21.9787 14.2634 22.1786 10.131 22.1786 9.96436V9.93101C22.0786 8.89792 21.4454 8.76465 21.1455 8.76465ZM19.8791 13.6969C19.6125 13.6969 19.3459 13.5969 19.0126 13.4303C18.4127 13.0971 18.1461 12.7304 18.1461 12.2972C18.1461 11.1974 20.0457 9.86438 20.7456 9.43117C20.7456 9.43117 20.9455 9.33119 21.1455 9.33119C21.2455 9.33119 21.5787 9.33119 21.6454 9.96436C21.612 11.0308 21.2122 13.6969 19.8791 13.6969Z" fill="#EB3AEF"/>
<path d="M24.878 6.93177H24.8448C24.3449 7.09838 24.0449 7.33169 23.9449 7.69827C23.7783 8.23152 24.1449 8.76471 24.2115 8.83135C24.2115 8.83135 24.2782 8.93133 24.4115 9.03131C24.3781 8.99802 24.3449 8.96467 24.3115 8.96467L24.2782 8.93133C23.9449 8.76471 23.6783 8.66473 23.445 8.66473C22.7785 8.66473 22.4452 9.33125 22.3786 9.69783C22.3453 9.83115 21.9454 12.6306 22.9785 13.8303C23.2784 14.1969 23.6783 14.3635 24.1782 14.3635C24.4781 14.3635 24.8114 14.2969 25.178 14.1302C25.9445 13.8303 26.3778 13.3637 26.4777 12.7638C26.6444 11.7307 25.7779 10.5643 25.078 9.76452C25.7779 10.3977 26.7443 11.0976 27.6441 11.0976C28.1774 11.0976 28.9105 10.8642 29.3438 9.66454C29.6104 8.93133 29.577 8.3315 29.2438 7.86488C28.6439 6.9984 27.2109 6.83179 26.1111 6.83179C25.4446 6.86513 24.9114 6.93177 24.878 6.93177ZM25.9445 12.6639C25.8778 13.0638 25.5779 13.3971 25.0114 13.597C24.7114 13.7303 24.4448 13.7636 24.2115 13.7636C23.8783 13.7636 23.645 13.6637 23.445 13.3971C22.7452 12.5639 22.8451 10.4643 22.9785 9.73117C22.9785 9.69783 23.0784 9.16463 23.4784 9.16463C23.6116 9.16463 23.7783 9.23127 23.9449 9.33125C24.5781 9.93113 26.1444 11.5641 25.9445 12.6639ZM28.8105 8.19817C29.0438 8.53146 29.0438 8.93133 28.8439 9.46458C28.5773 10.1977 28.2107 10.531 27.6774 10.531C26.5777 10.531 25.078 9.03131 24.6114 8.43148C24.6114 8.43148 24.3781 8.09819 24.4448 7.83159C24.5115 7.66498 24.6781 7.53165 24.978 7.43167C25.078 7.43167 25.5446 7.36504 26.1444 7.36504C27.5108 7.39833 28.4439 7.69827 28.8105 8.19817Z" fill="#EB3AEF"/>
<path d="M23.4786 5.13216C23.2786 5.59873 23.3119 5.99864 23.5119 6.33187C23.8452 6.79849 24.4783 6.83178 24.545 6.83178C24.6783 6.83178 27.8776 6.7318 28.6775 5.26547C28.9774 4.69892 28.9107 4.0324 28.4442 3.29922C28.011 2.59937 27.5111 2.26611 26.8778 2.26611C25.2116 2.26611 23.5786 4.99886 23.4786 5.09883C23.4786 5.09883 23.4786 5.09883 23.4786 5.13216ZM23.9784 5.33212C24.4117 4.59894 25.7448 2.76601 26.8778 2.76601C27.2778 2.76601 27.6443 3.03261 27.9776 3.53251C28.3442 4.09905 28.4108 4.56562 28.2109 4.96553C27.6777 5.93201 25.4115 6.19861 24.5783 6.23195C24.4451 6.23195 24.1451 6.16526 24.0118 5.9653C23.8785 5.86532 23.8785 5.63206 23.9784 5.33212Z" fill="#EB3AEF"/>
<path d="M23.6116 7.39838C23.6116 6.69852 23.0451 6.09863 22.312 6.09863C21.6121 6.09863 21.0122 6.66523 21.0122 7.39838C21.0122 8.09825 21.5787 8.69807 22.312 8.69807C23.0451 8.69807 23.6116 8.13154 23.6116 7.39838ZM21.5787 7.39838C21.5787 6.99846 21.912 6.66523 22.312 6.66523C22.7118 6.66523 23.0451 6.99846 23.0451 7.39838C23.0451 7.79831 22.7118 8.13154 22.312 8.13154C21.912 8.13154 21.5787 7.79831 21.5787 7.39838Z" fill="#EB3AEF"/>
<path d="M28.6106 12.2308C28.244 12.7973 28.2107 13.3305 28.444 13.7638C28.8106 14.4303 29.7437 14.6969 30.5102 14.8302C30.4769 14.8302 30.4102 14.8302 30.3769 14.8302C29.1772 14.8302 28.3773 15.0968 28.0107 15.63C27.7442 15.9966 27.7108 16.4632 27.9108 16.9964C28.244 17.8962 28.8106 18.0962 29.2105 18.0962C29.6771 18.0962 30.1436 17.8629 30.5768 17.5629C30.2103 18.0628 29.9103 18.6961 30.0103 19.2626C30.0769 19.7292 30.4102 20.0957 31.0101 20.329C31.2767 20.429 31.5433 20.4957 31.7766 20.4957C32.1432 20.4957 32.4764 20.3623 32.7097 20.0624C33.1429 19.5625 33.2429 18.7294 33.2429 18.0295C33.4096 18.996 33.8095 20.429 34.9426 20.429C35.2092 20.429 35.5091 20.329 35.8091 20.1624C36.409 19.8291 36.6756 19.3959 36.6756 18.896C36.6756 18.1628 35.9757 17.463 35.3758 16.9631C35.9091 17.263 36.5756 17.5629 37.1755 17.5629C37.9086 17.5629 38.4085 17.0964 38.5418 16.2965C38.6418 15.73 38.5418 15.2634 38.2752 14.9635C38.0086 14.6303 37.5087 14.4636 36.8755 14.4636C36.6422 14.4636 36.409 14.4969 36.1757 14.5303C36.8088 14.2637 37.4753 13.8304 37.7087 13.2305C37.8753 12.764 37.742 12.2974 37.3421 11.8309C36.9755 11.3976 36.5756 11.1643 36.1423 11.1643C35.4425 11.1643 34.8759 11.7975 34.476 12.464C34.676 11.7975 34.776 10.9977 34.4427 10.4645C34.2094 10.0645 33.7428 9.8313 33.143 9.8313C32.4764 9.8313 32.0099 10.0645 31.7433 10.4978C31.2767 11.331 31.8099 12.6307 32.1432 13.3305C31.7433 12.7307 30.7768 11.4976 29.777 11.4976C29.3438 11.4643 28.9439 11.7309 28.6106 12.2308ZM29.2438 17.5629C29.1105 17.5629 28.7106 17.5629 28.444 16.8298C28.3107 16.4632 28.3107 16.1633 28.4773 15.9633C28.7106 15.5967 29.4104 15.3968 30.3769 15.3968C30.7768 15.3968 31.1101 15.43 31.2101 15.43C31.3433 15.4634 31.51 15.5634 31.5433 15.6634C31.5767 15.7967 31.4767 15.9966 31.4433 16.0299C31.0767 16.4632 30.0103 17.5629 29.2438 17.5629ZM32.3098 19.7292C32.1765 19.8958 32.0099 19.9624 31.7766 19.9624C31.6099 19.9624 31.41 19.9291 31.2101 19.8291C30.8102 19.6625 30.6102 19.4626 30.5768 19.1959C30.4436 18.4294 31.5767 17.263 32.0432 16.8631C32.1765 16.7964 32.2765 16.7631 32.3432 16.7631C32.5764 16.7631 32.6431 17.0964 32.6431 17.0964C32.7097 17.6296 32.8097 19.1293 32.3098 19.7292ZM36.1757 18.896C36.1757 19.1959 35.9757 19.4292 35.5758 19.6625C35.3425 19.7958 35.1426 19.8624 34.9759 19.8624C34.0761 19.8624 33.7762 17.8962 33.7428 17.1964C33.8095 16.7964 33.9761 16.7964 34.0428 16.7964C34.1427 16.7964 34.2761 16.8298 34.3094 16.8631C34.8093 17.163 36.1757 18.1295 36.1757 18.896ZM34.5427 16.3965C34.5093 16.3965 34.2761 16.2632 34.0094 16.2632C33.8095 16.2632 33.3096 16.3299 33.1763 17.0297C33.1763 16.9964 33.1763 16.9964 33.1763 16.9964C33.1097 16.7298 32.8763 16.1966 32.3432 16.1966C32.2098 16.1966 32.0766 16.2299 31.9432 16.2632C32.0432 16.0966 32.1432 15.83 32.0432 15.53C31.9766 15.2634 31.7433 15.0968 31.4433 14.9635C31.4767 14.9635 31.51 14.9635 31.51 14.9635C31.5767 14.9635 32.0766 14.9302 32.3098 14.5636C32.4431 14.3637 32.4764 14.0637 32.3764 13.7638C32.4431 13.8638 32.7097 14.2303 33.143 14.2303C33.3762 14.2303 33.6096 14.1304 33.8095 13.897C33.7762 14.0637 33.7762 14.3637 33.9428 14.5969C34.0428 14.7302 34.2427 14.8969 34.6427 14.9302C34.476 15.0302 34.2427 15.2301 34.1761 15.53C34.2094 15.83 34.3094 16.0966 34.5427 16.3965ZM37.9086 15.3301C38.0752 15.53 38.1086 15.83 38.0419 16.2299C37.9086 16.9631 37.542 17.0631 37.2087 17.0631C36.3423 17.0631 35.1092 16.1966 34.9426 16.0633C34.8426 15.9633 34.7426 15.7967 34.776 15.6967C34.8093 15.5634 35.0092 15.4634 35.0426 15.43C35.0426 15.43 36.0423 15.0635 36.9088 15.0635C37.4087 15.0302 37.742 15.1302 37.9086 15.3301ZM36.209 11.6975C36.4422 11.6975 36.7088 11.8642 36.9755 12.1641C37.2421 12.4974 37.3421 12.764 37.2421 13.0306C36.9755 13.7638 35.4425 14.2637 34.8426 14.397H34.8093C34.676 14.397 34.5093 14.3637 34.4427 14.297C34.3427 14.197 34.4093 13.9637 34.4093 13.9304C34.6427 13.3305 35.4092 11.6975 36.209 11.6975ZM32.2765 10.7311C32.4098 10.4645 32.7097 10.3645 33.1763 10.3645C33.6096 10.3645 33.8762 10.4645 34.0094 10.7311C34.4093 11.3976 33.8095 12.8973 33.5096 13.4305C33.4096 13.5305 33.3096 13.6638 33.1763 13.6638C33.043 13.6638 32.8763 13.4972 32.8431 13.4305C32.6097 12.9306 31.8766 11.4309 32.2765 10.7311ZM29.8103 11.9975C30.5768 11.9975 31.5433 13.2972 31.8766 13.8304C31.9099 13.9637 31.9766 14.1304 31.9099 14.2303C31.8432 14.3303 31.6099 14.3637 31.5433 14.397C30.9434 14.397 29.3104 14.197 28.9439 13.4972C28.8106 13.2305 28.8439 12.9306 29.1105 12.5307C29.3104 12.1641 29.5437 11.9975 29.8103 11.9975Z" fill="#EB3AEF"/>
<path d="M33.1763 14.3303C32.6431 14.3303 32.1765 14.7636 32.1765 15.3301C32.1765 15.8967 32.6098 16.3299 33.1763 16.3299C33.7095 16.3299 34.1761 15.8967 34.1761 15.3301C34.1761 14.7636 33.7095 14.3303 33.1763 14.3303ZM33.1763 15.7633C32.943 15.7633 32.7431 15.5634 32.7431 15.3301C32.7431 15.0968 32.943 14.8969 33.1763 14.8969C33.4096 14.8969 33.6096 15.0968 33.6096 15.3301C33.6096 15.5634 33.4096 15.7633 33.1763 15.7633Z" fill="#EB3AEF"/>
<path d="M39.3417 22.4284C39.3083 22.3284 39.2417 22.2618 39.1417 22.2618C38.5085 22.0618 37.842 21.9619 37.2422 21.9619C35.0759 21.9619 33.8095 23.2283 33.343 23.8614C33.9095 21.5619 33.6762 19.9956 33.6762 19.8956C33.6429 19.729 33.5096 19.629 33.3763 19.6624C33.2097 19.6957 33.1097 19.829 33.143 19.9623C33.143 19.9956 33.343 21.2953 32.9098 23.2615C32.4432 22.1285 31.3101 20.4955 28.544 20.1289C28.444 20.1289 28.3774 20.1623 28.3107 20.2289C28.2441 20.2955 28.2108 20.3955 28.2441 20.4955C28.2774 20.6622 29.3438 24.6946 32.4432 24.6946C32.4765 24.6946 32.5098 24.6946 32.5432 24.6946C32.0766 26.1276 31.3101 27.7606 30.0104 29.4269C30.0104 29.4269 30.0104 29.4269 29.977 29.4602L29.9437 29.4936L29.9104 29.5269C29.9104 29.5269 29.9104 29.5269 29.877 29.5269H29.8437C29.7771 29.5269 29.7104 29.4936 29.6771 29.4602C21.4122 22.3284 22.3454 13.5304 22.3454 13.4304C22.3787 13.2637 22.2454 13.1304 22.1121 13.1304C21.9454 13.0971 21.8121 13.2304 21.8121 13.3637C21.8121 13.397 21.6122 15.3299 22.1787 18.0627C21.8788 17.5628 20.1791 15.23 16.7465 15.23C15.9467 15.23 15.0802 15.3633 14.2138 15.6299C14.1138 15.6632 14.0471 15.7299 14.0138 15.7965C13.9805 15.8965 14.0138 15.9631 14.0471 16.0631C14.1471 16.1964 16.6132 19.2624 19.6792 19.2624C20.5457 19.2624 21.3789 19.0291 22.1454 18.5293C22.212 18.4959 22.2454 18.4626 22.2454 18.3959C22.9785 21.6619 24.8448 25.9943 29.3438 29.7935C29.5105 29.9268 29.7104 30.0268 29.9104 29.9934C29.9104 29.9934 29.9104 29.9934 29.9437 29.9934C30.1103 29.9934 30.277 29.9268 30.4103 29.7935C30.4436 29.7602 30.4769 29.7268 30.4769 29.6935C31.9433 27.8273 32.7431 25.9943 33.2097 24.4613C33.2097 24.4613 33.243 24.4947 33.2763 24.4947C33.8429 24.8612 34.476 25.0612 35.1093 25.0612C37.3754 25.0612 39.2084 22.7617 39.3083 22.695C39.3417 22.595 39.375 22.495 39.3417 22.4284ZM32.4765 24.0614C30.3436 24.0614 29.2772 21.6953 28.9439 20.6954C31.7766 21.2287 32.4765 23.2949 32.6764 24.0614C32.5765 24.0614 32.5432 24.0614 32.4765 24.0614ZM19.6792 18.7292C17.4464 18.7292 15.4802 16.8296 14.7803 16.0631C15.4468 15.8965 16.1134 15.7965 16.7465 15.7965C19.5793 15.7965 21.1456 17.5961 21.6122 18.2293C20.979 18.5626 20.3458 18.7292 19.6792 18.7292ZM35.1093 24.4947C34.676 24.4947 34.2428 24.3947 33.8095 24.1614C34.2094 23.6615 35.3092 22.4618 37.2754 22.4618C37.6754 22.4618 38.1419 22.5284 38.5752 22.6284C38.0087 23.2615 36.6423 24.4947 35.1093 24.4947Z" fill="#EB3AEF"/>
</g>
<defs>
<clipPath id="clip0">
<rect x="14" width="25.3846" height="30" fill="white"/>
</clipPath>
</defs>
</svg>
