<svg width="15" height="15" viewBox="0 0 15 15" fill="none" xmlns="http://www.w3.org/2000/svg">
<path d="M8.16887 14.52C6.12043 14.52 4.19466 13.7178 2.74617 12.261C1.29773 10.8043 0.5 8.86751 0.5 6.8074C0.5 4.01006 2.0116 1.42622 4.44493 0.0642654C4.5796 -0.0111346 4.74769 0.0114281 4.858 0.119772C4.96832 0.228116 4.99477 0.396489 4.92296 0.533775C4.40114 1.53161 4.12529 2.65843 4.12529 3.7925C4.12529 7.65861 7.25282 10.8039 11.097 10.8039C12.2818 10.8039 13.4522 10.4993 14.4819 9.92299C14.6166 9.84759 14.7846 9.87021 14.895 9.97849C15.0053 10.0869 15.0317 10.2553 14.9599 10.3926C13.6284 12.9385 11.0262 14.52 8.16887 14.52ZM3.83349 1.3166C2.1849 2.63512 1.19716 4.65154 1.19716 6.8074C1.19716 10.6735 4.32464 13.8188 8.16882 13.8188C10.3811 13.8188 12.4252 12.7759 13.7307 11.0367C12.8908 11.345 11.9976 11.5051 11.0969 11.5051C9.0485 11.5051 7.12273 10.7029 5.67424 9.24613C4.2258 7.78934 3.42807 5.85261 3.42807 3.7925C3.42813 2.94994 3.56658 2.11085 3.83349 1.3166Z" fill="#3F44B9"/>
</svg>
