<svg width="29" height="29" viewBox="0 0 29 29" fill="none" xmlns="http://www.w3.org/2000/svg">
<path d="M14.5 29C22.5081 29 29 22.5081 29 14.5C29 6.49187 22.5081 0 14.5 0C6.49187 0 0 6.49187 0 14.5C0 22.5081 6.49187 29 14.5 29Z" fill="white"/>
<mask id="mask0" mask-type="alpha" maskUnits="userSpaceOnUse" x="0" y="0" width="29" height="29">
<path d="M14.5 29C22.5081 29 29 22.5081 29 14.5C29 6.49187 22.5081 0 14.5 0C6.49187 0 0 6.49187 0 14.5C0 22.5081 6.49187 29 14.5 29Z" fill="white"/>
</mask>
<g mask="url(#mask0)">
<path d="M15.0022 7C11.453 7.00375 8.01559 8.23848 5.27431 10.4936C5.10685 10.6223 5 10.8229 5 11.0479C5 11.4334 5.31243 11.7452 5.69735 11.7452C5.87543 11.7452 6.03727 11.6784 6.16037 11.5696L6.15975 11.5703C8.65108 9.5207 11.776 8.39907 15.0022 8.39469C18.229 8.39844 21.3545 9.51945 23.8471 11.569C23.9684 11.674 24.1283 11.7383 24.3027 11.7383C24.6882 11.7383 25 11.4265 25 11.041C25 10.8185 24.8956 10.6205 24.7338 10.493L24.7326 10.4917C21.9913 8.23785 18.5527 7.00375 15.0034 7C15.0028 7 15.0028 7 15.0028 7H15.0022V7ZM15.0028 11.1841C12.469 11.1841 10.0108 12.0489 8.03309 13.6323C7.87187 13.761 7.76939 13.9579 7.76939 14.1784C7.76939 14.564 8.08183 14.8758 8.46674 14.8758C8.63358 14.8758 8.78667 14.817 8.90665 14.7202L8.9054 14.7214C10.6356 13.3361 12.7858 12.5794 15.0022 12.5788C17.2186 12.5825 19.3675 13.3392 21.0965 14.7258C21.2165 14.8258 21.372 14.887 21.542 14.887C21.9275 14.887 22.2394 14.5752 22.2394 14.1897C22.2394 13.966 22.1344 13.7673 21.9707 13.6398L21.9694 13.6385C19.9936 12.0539 17.5373 11.1885 15.0047 11.1841C15.0041 11.1841 15.0041 11.1841 15.0041 11.1841H15.0034H15.0028ZM15.0009 15.3682C13.4894 15.3719 12.0185 15.8649 10.8106 16.7766C10.6425 16.9053 10.5357 17.1059 10.5357 17.3315C10.5357 17.717 10.8481 18.0288 11.233 18.0288C11.3905 18.0288 11.5361 17.9763 11.6529 17.8882L11.651 17.8895C12.6158 17.1609 13.7925 16.766 15.0028 16.7629C16.2125 16.7666 17.3885 17.1615 18.354 17.8907C18.4721 17.9851 18.6233 18.042 18.7876 18.042C19.1731 18.042 19.485 17.7302 19.485 17.3446C19.485 17.1122 19.3712 16.9066 19.1963 16.7797L19.1944 16.7785C17.9878 15.8668 16.5169 15.3719 15.0041 15.3688C15.0034 15.3688 15.0028 15.3688 15.0022 15.3688C15.0016 15.3688 15.0009 15.3688 15.0003 15.3688L15.0009 15.3682ZM15.0028 19.5523C14.2411 19.5523 13.6081 20.1852 13.6081 20.9469C13.6081 21.7087 14.2411 22.3416 15.0028 22.3416C15.7645 22.3416 16.3975 21.7087 16.3975 20.9469C16.3975 20.1852 15.7645 19.5523 15.0028 19.5523Z" fill="#383ED5"/>
</g>
</svg>
