<svg width="29" height="29" viewBox="0 0 29 29" fill="none" xmlns="http://www.w3.org/2000/svg">
<path d="M14.5 29C22.5081 29 29 22.5081 29 14.5C29 6.49187 22.5081 0 14.5 0C6.49187 0 0 6.49187 0 14.5C0 22.5081 6.49187 29 14.5 29Z" fill="white"/>
<mask id="mask0" mask-type="alpha" maskUnits="userSpaceOnUse" x="0" y="0" width="29" height="29">
<path d="M14.5 29C22.5081 29 29 22.5081 29 14.5C29 6.49187 22.5081 0 14.5 0C6.49187 0 0 6.49187 0 14.5C0 22.5081 6.49187 29 14.5 29Z" fill="white"/>
</mask>
<g mask="url(#mask0)">
<path d="M7.64906 6.82446H7.23694H6.78672H6V7.23677H6.82462V9.29814H6V9.71045H6.82462V11.772H6V12.1843H6.82462V14.2459H6V14.658H6.82462V16.7196H6V17.1319H6.82462V19.1932H6V19.6056H6.82462V21.6669H6V22.0792H6.82462V22.9039H7.23694V22.0792H9.2983V22.9039H9.71061V22.0792H11.772V22.9039H12.1843V22.0792H14.2457V22.9039H14.658V22.0792H16.7193V22.9039H17.1317V22.0792H19.2142V22.9039H19.6053V22.0792H21.6669V22.9039H22.079V22.0792V21.5821V21.2546H7.64906V6.82446Z" fill="#787878"/>
<path d="M21.3343 6C20.2415 6 19.353 6.87465 19.353 7.95016C19.353 8.58085 19.6637 9.13707 20.1368 9.49359L18.5832 13.1809C18.4958 13.1692 18.4096 13.1548 18.3194 13.1548C17.767 13.1548 17.2678 13.3791 16.9078 13.7395L14.9643 12.6468C15.0074 12.4862 15.038 12.3207 15.038 12.1472C15.038 11.0718 14.1493 10.1968 13.0571 10.1968C11.9645 10.1968 11.0754 11.0716 11.0754 12.1472C11.0754 12.8152 11.4192 13.4055 11.9414 13.757L10.9851 16.4117C10.9311 16.4075 10.8797 16.3957 10.8245 16.3957C9.73166 16.3957 8.84277 17.2706 8.84277 18.3455C8.84277 19.4214 9.73185 20.2964 10.8245 20.2964C11.9167 20.2964 12.8058 19.4214 12.8058 18.3455C12.8058 17.6781 12.462 17.0878 11.94 16.7363L12.8959 14.0815C12.9497 14.0856 13.0017 14.0975 13.0569 14.0975C13.6093 14.0975 14.1082 13.873 14.468 13.5124L16.4114 14.6056C16.3679 14.7659 16.3373 14.9318 16.3373 15.1053C16.3373 16.1806 17.2262 17.0557 18.319 17.0557C19.4115 17.0557 20.3 16.1806 20.3 15.1053C20.3 14.4744 19.9896 13.9188 19.5165 13.5621L21.0701 9.87473C21.1571 9.88628 21.2437 9.90109 21.3339 9.90109C22.4267 9.90109 23.3156 9.02625 23.3156 7.95055C23.316 6.87484 22.4271 6 21.3343 6ZM10.8247 19.3015C10.2887 19.3015 9.85306 18.8727 9.85306 18.3451C9.85306 17.8187 10.2887 17.3897 10.8247 17.3897C11.3601 17.3897 11.7957 17.8185 11.7957 18.3451C11.7959 18.8729 11.3601 19.3015 10.8247 19.3015ZM13.0573 13.1028C12.5218 13.1028 12.0862 12.6736 12.0862 12.147C12.0862 11.62 12.5218 11.1907 13.0573 11.1907C13.5927 11.1907 14.0279 11.6198 14.0279 12.147C14.0279 12.6736 13.5927 13.1028 13.0573 13.1028ZM18.3194 16.0608C17.784 16.0608 17.3478 15.6319 17.3478 15.1049C17.3478 14.5777 17.784 14.1491 18.3194 14.1491C18.8545 14.1491 19.2903 14.5779 19.2903 15.1049C19.2903 15.6321 18.8547 16.0608 18.3194 16.0608ZM21.3343 8.90619C20.7989 8.90619 20.3631 8.47733 20.3631 7.95016C20.3631 7.42318 20.7989 6.99432 21.3343 6.99432C21.8698 6.99432 22.3053 7.42318 22.3053 7.95016C22.3053 8.47733 21.8698 8.90619 21.3343 8.90619Z" fill="#3BB30B"/>
</g>
</svg>
