<svg width="18" height="19" viewBox="0 0 18 19" fill="none" xmlns="http://www.w3.org/2000/svg">
<path d="M8.6999 4.2146C5.90743 4.2146 3.63458 6.48663 3.63458 9.27991C3.63458 12.0732 5.90662 14.3453 8.6999 14.3453C11.4932 14.3453 13.7653 12.0732 13.7653 9.27991C13.7653 6.48663 11.4924 4.2146 8.6999 4.2146ZM8.6999 13.5719C6.3335 13.5719 4.40791 11.6471 4.40791 9.27991C4.40791 6.91276 6.3335 4.98793 8.6999 4.98793C11.0663 4.98793 12.9919 6.91276 12.9919 9.27991C12.9919 11.6471 11.0663 13.5719 8.6999 13.5719Z" fill="#D4CF5D"/>
<path d="M9.08667 0H8.31335V2.32H9.08667V0Z" fill="#D4CF5D"/>
<path d="M9.08667 16.24H8.31335V18.56H9.08667V16.24Z" fill="#D4CF5D"/>
<path d="M17.98 8.89343H15.66V9.66675H17.98V8.89343Z" fill="#D4CF5D"/>
<path d="M1.73998 8.89343H-0.580017V9.66675H1.73998V8.89343Z" fill="#D4CF5D"/>
<path d="M13.3477 4.08491L13.8945 4.63173L15.535 2.99128L14.9882 2.44446L13.3477 4.08491Z" fill="#D4CF5D"/>
<path d="M1.86499 15.569L2.4118 16.1158L4.05223 14.4753L3.50542 13.9285L1.86499 15.569Z" fill="#D4CF5D"/>
<path d="M13.3472 14.475L14.9879 16.1152L15.5346 15.5683L13.8939 13.9281L13.3472 14.475Z" fill="#D4CF5D"/>
<path d="M4.05219 4.08434L2.41149 2.44409L1.86475 2.991L3.50544 4.63124L4.05219 4.08434Z" fill="#D4CF5D"/>
</svg>
