<svg width="29" height="29" viewBox="0 0 29 29" fill="none" xmlns="http://www.w3.org/2000/svg">
<path d="M14.5 29C22.5081 29 29 22.5081 29 14.5C29 6.49187 22.5081 0 14.5 0C6.49187 0 0 6.49187 0 14.5C0 22.5081 6.49187 29 14.5 29Z" fill="white"/>
<mask id="mask0" mask-type="alpha" maskUnits="userSpaceOnUse" x="0" y="0" width="29" height="29">
<path d="M14.5 29C22.5081 29 29 22.5081 29 14.5C29 6.49187 22.5081 0 14.5 0C6.49187 0 0 6.49187 0 14.5C0 22.5081 6.49187 29 14.5 29Z" fill="white"/>
</mask>
<g mask="url(#mask0)">
<path d="M9.03992 11.2097C10.0125 11.2097 10.804 10.4183 10.804 9.44568C10.804 8.4731 10.0125 7.68164 9.03992 7.68164C8.06733 7.68164 7.27588 8.4731 7.27588 9.44568C7.27588 10.4183 8.06733 11.2097 9.03992 11.2097ZM9.03992 8.79598C9.39824 8.79598 9.69356 9.08736 9.69356 9.44962C9.69356 9.80794 9.40218 10.1033 9.03992 10.1033C8.67766 10.1033 8.38628 9.80794 8.38628 9.44568C8.38628 9.08736 8.67766 8.79598 9.03992 8.79598Z" fill="#30BF9D"/>
<path d="M16.7104 6.78394C15.6315 6.78394 14.7495 7.66202 14.7495 8.74486C14.7495 9.82769 15.6276 10.7058 16.7104 10.7058C17.7933 10.7058 18.6714 9.82769 18.6714 8.74486C18.6714 7.66202 17.7893 6.78394 16.7104 6.78394ZM16.7104 9.59144C16.2419 9.59144 15.8599 9.20949 15.8599 8.74092C15.8599 8.27234 16.2419 7.8904 16.7104 7.8904C17.179 7.8904 17.561 8.27234 17.561 8.74092C17.561 9.20949 17.179 9.59144 16.7104 9.59144Z" fill="#30BF9D"/>
<path d="M22.5813 12.5682L20.4157 13.6156V12.9698C20.4157 12.6273 20.3054 12.3044 20.1203 12.0327C20.9433 11.1782 21.4552 10.0206 21.4552 8.7448C21.4512 6.1263 19.3249 4 16.7104 4C14.6904 4 12.9697 5.27184 12.2845 7.05163C11.5482 6.05542 10.3709 5.40572 9.03997 5.40572C6.81129 5.40966 5 7.22095 5 9.44569C5 10.2608 5.24413 11.0168 5.65758 11.6507C5.25594 11.9579 5 12.4343 5 12.9698V22.3374C5 23.2548 5.74814 24.003 6.6656 24.003H18.7461C19.6636 24.003 20.4117 23.2548 20.4117 22.3374V21.6916L22.5774 22.739C23.8886 23.2863 25.0384 22.3334 24.999 21.3254V13.9818C25.003 12.8281 23.7351 12.0445 22.5813 12.5682ZM12.7216 11.3042H12.6232C12.6389 11.2727 12.6507 11.2412 12.6665 11.2137C12.6862 11.2412 12.7019 11.2727 12.7216 11.3042ZM9.03997 6.52006C10.6544 6.52006 11.9695 7.83521 11.9695 9.44962C11.9695 11.064 10.6544 12.3792 9.03997 12.3792C7.42555 12.3792 6.1104 11.064 6.1104 9.44962C6.1104 7.83521 7.42555 6.52006 9.03997 6.52006ZM19.3053 22.3374C19.3053 22.6445 19.0572 22.8926 18.7501 22.8926H6.6656C6.35847 22.8926 6.1104 22.6445 6.1104 22.3374V19.0731H7.35074C7.65787 19.0731 7.90594 18.825 7.90594 18.5179C7.90594 18.2108 7.65787 17.9627 7.35074 17.9627H6.1104V16.9468H8.66196C8.96909 16.9468 9.21716 16.6987 9.21716 16.3916C9.21716 16.0845 8.96909 15.8364 8.66196 15.8364H6.1104V12.9738C6.1104 12.7729 6.22065 12.5918 6.38997 12.4973V12.4934C7.09874 13.1116 8.02407 13.4896 9.03603 13.4896C10.0913 13.4896 11.0481 13.0801 11.7687 12.4186H13.7099C14.529 13.088 15.5724 13.4896 16.7065 13.4896C17.6397 13.4896 18.5059 13.214 19.2423 12.7493C19.2462 12.7493 19.2501 12.7493 19.2501 12.7493C19.2816 12.8202 19.2974 12.895 19.2974 12.9738V22.3374H19.3053ZM16.7104 12.3753C14.7062 12.3753 13.0799 10.7451 13.0799 8.7448C13.0799 6.7445 14.7101 5.11434 16.7104 5.11434C18.7107 5.11434 20.3408 6.7445 20.3408 8.7448C20.3408 10.7451 18.7107 12.3753 16.7104 12.3753ZM23.8926 21.3254C23.8965 21.6837 23.4004 21.8885 23.0657 21.7388L20.4157 20.4591V14.8481L23.0657 13.5683C23.4358 13.3951 23.9004 13.6235 23.8926 13.9818V21.3254Z" fill="#30BF9D"/>
<path d="M12.7059 20.3174H11.812C11.5049 20.3174 11.2568 20.5655 11.2568 20.8726C11.2568 21.1797 11.5049 21.4278 11.812 21.4278H12.7098C13.0169 21.4278 13.265 21.1797 13.265 20.8726C13.265 20.5655 13.013 20.3174 12.7059 20.3174Z" fill="#30BF9D"/>
<path d="M16.931 20.3174H16.0332C15.7261 20.3174 15.478 20.5655 15.478 20.8726C15.478 21.1797 15.7261 21.4278 16.0332 21.4278H16.931C17.2381 21.4278 17.4862 21.1797 17.4862 20.8726C17.4862 20.5655 17.2381 20.3174 16.931 20.3174Z" fill="#30BF9D"/>
</g>
</svg>
