<svg width="34" height="52" viewBox="0 0 34 52" fill="none" xmlns="http://www.w3.org/2000/svg">
<path d="M18.3339 13.3467V8.89778C19.4124 9.53333 20.4908 9.88 21.5693 9.88C23.6694 9.88 26.6778 9.36 28.9482 6.58667C29.9132 5.37333 30.197 3.98667 29.6294 2.71556C28.8915 1.09778 27.0751 0 24.9182 0C23.4424 0 19.7529 0.52 16.9716 5.60444C14.1336 0.52 10.5008 0 9.02504 0C6.92487 0 5.05175 1.09778 4.31386 2.71556C3.74624 3.98667 3.97329 5.37333 4.99499 6.58667C7.26544 9.36 10.2738 9.93778 12.374 9.88C13.3389 9.88 14.5309 9.76445 15.7229 9.01333V13.3467C6.75459 13.6356 0 16.8133 0 20.8578C0 21.0311 2.16067e-07 21.2044 0.0567615 21.32L0.624374 28.6C0.737897 30.3333 1.64608 31.9511 3.00835 32.9333L3.91653 44.6622C3.91653 44.72 3.91653 44.72 3.91653 44.7778C3.97329 45.1244 6.3005 52 16.9716 52C27.6427 52 29.9699 45.1244 30.0267 44.8356C30.0267 44.7778 30.0267 44.7778 30.0267 44.72L30.9916 32.9333C32.3539 31.8933 33.2053 30.3333 33.3756 28.6L33.9432 21.3778C33.9432 21.2044 34 21.0311 34 20.8578C33.9432 16.8711 27.2454 13.6356 18.3339 13.3467ZM12.374 8.84C10.5008 8.84 7.83305 8.37778 5.78965 5.89333C5.05175 4.96889 4.88147 3.98667 5.2788 3.12C5.84641 1.90667 7.37896 1.04 9.0818 1.04C10.4441 1.04 13.9633 1.56 16.5743 6.99111C16.6311 7.16444 16.8581 7.28 17.0284 7.28C17.1987 7.28 17.3689 7.16444 17.4825 6.99111C20.0367 1.56 23.5559 0.982222 24.9182 1.04C26.621 1.04 28.1536 1.90667 28.7212 3.12C29.1185 4.04444 28.9482 5.02667 28.2104 5.89333C26.1669 8.37778 23.4992 8.84 21.626 8.84C20.4908 8.84 19.2988 8.37778 18.1636 7.51111C17.9933 7.39556 17.823 7.39556 17.6528 7.45333C17.4825 7.56889 17.3689 7.74222 17.3689 7.91556V13.8667V15.7156V18.6622C17.1419 18.6044 16.9149 18.5467 16.7446 18.5467V15.7156V13.8667V8.08889C16.7446 7.91556 16.6311 7.68445 16.4608 7.62667C16.404 7.56889 16.2905 7.56889 16.2337 7.56889C16.1202 7.56889 16.0067 7.62667 15.8932 7.68444C14.6444 8.66667 13.4524 8.84 12.374 8.84ZM7.49249 20.5111C8.57095 20.0489 9.8197 20.2222 11.2955 20.9156C11.5225 21.0311 11.7496 20.9733 11.9199 20.7422C11.9199 20.7422 12.828 19.6444 15.2688 19.5289C15.5526 19.5289 15.8932 19.5289 16.177 19.5289C16.177 19.5289 16.177 19.5289 16.2337 19.5289C16.2337 19.5289 16.2337 19.5289 16.2905 19.5289C16.2905 19.5289 17.0284 19.4711 17.6528 19.8178C17.6528 19.8178 17.6528 19.8178 17.7095 19.8178C18.3906 20.1067 18.7312 20.5111 18.7312 20.5111C18.8447 20.6267 18.9583 20.6844 19.1285 20.6844C19.2988 20.6844 19.4124 20.6267 19.5259 20.4533C19.5826 20.3956 20.5476 19.1244 22.9316 19.4133C24.8614 19.6444 25.6561 21.4933 25.6561 21.5511C25.7129 21.7244 25.8831 21.84 25.9967 21.84C26.1669 21.8978 26.3372 21.84 26.4507 21.7244C26.4507 21.7244 27.0184 21.1467 27.7563 21.2044C28.1536 21.2044 28.5509 21.3778 28.9482 21.7244C26.9616 23.0533 22.591 24.2089 16.8581 24.2089C11.8631 24.2089 7.88982 23.3422 5.61937 22.2444C5.90317 21.7244 6.52754 20.9156 7.49249 20.5111ZM4.76795 21.7244C4.08681 21.2622 3.68948 20.7422 3.68948 20.2222C3.68948 18.4311 8.51419 16.4667 15.7229 16.2356V18.4889C15.5526 18.4889 15.3823 18.4889 15.2688 18.4889C13.1119 18.6044 11.9766 19.4133 11.4658 19.8178C9.87646 19.1244 8.40067 19.0089 7.15192 19.5289C5.84641 20.1067 5.10851 21.0889 4.76795 21.7244ZM27.7563 20.2222C27.0751 20.2222 26.5643 20.4533 26.2237 20.6844C25.7696 19.9333 24.7479 18.72 22.9883 18.4889C20.8881 18.2 19.5826 19.0089 19.015 19.5289C18.8447 19.4133 18.6177 19.24 18.3339 19.0667V16.2356C25.3723 16.5244 30.0267 18.4889 30.0267 20.2222C30.0267 20.5111 29.9132 20.8 29.6861 21.0889C29.1185 20.5111 28.4374 20.2222 27.7563 20.2222ZM16.9716 50.96C7.43573 50.96 5.10851 45.1822 4.88147 44.5467L4.03005 33.5689C6.41402 34.7822 10.5576 36.1111 16.9716 36.1111C23.3856 36.1111 27.5292 34.7244 29.9132 33.5689L29.0618 44.5467C28.8347 45.24 26.5075 50.96 16.9716 50.96ZM32.9215 21.2622L32.3539 28.5422C32.2404 30.2756 31.2187 31.8356 29.7429 32.5867C27.4725 33.7422 23.4424 35.1289 17.0284 35.1289C10.5576 35.1289 6.52755 33.7422 4.31386 32.5867C2.83806 31.8356 1.81636 30.2756 1.70284 28.5422L1.13523 21.2622C1.13523 21.1467 1.07846 21.0311 1.07846 20.9156C1.07846 17.5644 7.60601 14.6756 15.7796 14.4444V15.3111C9.25209 15.4844 2.7813 17.2178 2.7813 20.3378C2.7813 23.6311 10.1035 25.3644 16.9716 25.3644C23.8397 25.3644 31.1619 23.6311 31.1619 20.3378C31.1619 17.3333 24.8614 15.5422 18.4474 15.3111V14.4444C26.5643 14.7333 33.0351 17.6222 33.0351 20.9156C32.9215 20.9733 32.9215 21.0889 32.9215 21.2622Z" fill="#3BB30B"/>
</svg>
