<svg width="41" height="66" viewBox="0 0 41 66" fill="none" xmlns="http://www.w3.org/2000/svg">
<path d="M27.6659 54.2625C30.3577 54.2625 32.5473 52.0729 32.5473 49.3811C32.5473 46.6894 30.3577 44.4998 27.6659 44.4998C24.9742 44.4998 22.7845 46.6894 22.7845 49.3811C22.7845 52.0729 24.9742 54.2625 27.6659 54.2625ZM27.6659 46.1269C29.4607 46.1269 30.9202 47.5864 30.9202 49.3811C30.9202 51.1759 29.4607 52.6354 27.6659 52.6354C25.8712 52.6354 24.4117 51.1759 24.4117 49.3811C24.4117 47.5864 25.8712 46.1269 27.6659 46.1269Z" fill="#1BC540"/>
<path d="M13.4214 56.5697C16.1132 56.5697 18.3028 54.38 18.3028 51.6883C18.3028 48.9965 16.1132 46.8069 13.4214 46.8069C10.7297 46.8069 8.54004 48.9965 8.54004 51.6883C8.54004 54.38 10.7297 56.5697 13.4214 56.5697ZM13.4214 48.434C15.2162 48.434 16.6757 49.8935 16.6757 51.6883C16.6757 53.483 15.2162 54.9425 13.4214 54.9425C11.6267 54.9425 10.1672 53.483 10.1672 51.6883C10.1672 49.8935 11.6267 48.434 13.4214 48.434Z" fill="#1BC540"/>
<path d="M0 45.7169C0 54.4731 5.56465 62.2655 13.8465 65.1066C13.9315 65.1352 14.0205 65.1503 14.1103 65.1503H26.8889C26.9787 65.1503 27.0677 65.1352 27.1527 65.1066C35.4353 62.2647 41 54.4731 41 45.7169C41 36.8353 35.1763 28.8966 26.7634 26.1977V11.7435C28.1951 11.1786 29.1779 9.78025 29.1779 8.19762C29.1779 6.41144 27.9379 4.91928 26.2764 4.50847V1.97115C26.2764 0.884275 25.3921 0 24.3044 0H16.6948C15.6071 0 14.7228 0.884275 14.7228 1.97115V4.50847C13.0612 4.91928 11.8213 6.41144 11.8213 8.19762C11.8213 9.78025 12.8041 11.1786 14.2358 11.7435V26.1977C5.82366 28.8966 0 36.8353 0 45.7169ZM39.3729 45.7169C39.3729 53.7334 34.3064 60.872 26.7515 63.5232H14.2477C6.69284 60.872 1.62713 53.7334 1.62713 45.7169C1.62713 44.0899 1.84522 42.4993 2.24624 40.9722H38.7538C39.1548 42.4993 39.3729 44.0899 39.3729 45.7169ZM16.3499 1.97115C16.3499 1.78126 16.5049 1.62713 16.6948 1.62713H24.3044C24.4943 1.62713 24.6493 1.78126 24.6493 1.97115V4.38642H16.3499V1.97115ZM15.2742 27.5825C15.623 27.4824 15.8629 27.1638 15.8629 26.8008V11.1373C15.8629 10.7487 15.588 10.4143 15.2067 10.3388C14.1881 10.1378 13.4484 9.23761 13.4484 8.19762C13.4484 6.99316 14.4289 6.01355 15.6333 6.01355H25.3659C26.5704 6.01355 27.5508 6.99316 27.5508 8.19762C27.5508 9.23761 26.8111 10.1378 25.7925 10.3388C25.4112 10.4143 25.1363 10.7487 25.1363 11.1373V26.8008C25.1363 27.1638 25.3762 27.4824 25.725 27.5825C31.6327 29.2817 36.2205 33.7668 38.2414 39.3451H2.75849C4.7791 33.7668 9.36652 29.2817 15.2742 27.5825Z" fill="#1BC540"/>
</svg>
