<svg width="62" height="62" viewBox="0 0 62 62" fill="none" xmlns="http://www.w3.org/2000/svg">
<circle cx="31" cy="31" r="30" stroke="#C4C4C4" stroke-width="2"/>
<path d="M21.6252 29.9658H19.5283C19.1851 29.9658 18.8801 30.2708 18.8801 30.614V32.7109C18.8801 33.0541 19.1851 33.3591 19.5283 33.3591H21.6252C21.9684 33.3591 22.2734 33.0541 22.2734 32.7109V30.614C22.2734 30.2327 21.9684 29.9658 21.6252 29.9658Z" fill="#D24F67"/>
<path d="M28.8694 33.3591H26.7724C26.4293 33.3591 26.1243 33.0541 26.1243 32.7109V30.614C26.1243 30.2708 26.4293 29.9658 26.7724 29.9658H28.8694C29.2125 29.9658 29.5175 30.2708 29.5175 30.614V32.7109C29.5175 33.0541 29.2506 33.3591 28.8694 33.3591ZM26.8868 32.5965H28.755V30.7283H26.8868V32.5965Z" fill="#3BB30B"/>
<path d="M36.1513 33.3591H34.0544C33.7113 33.3591 33.4062 33.0541 33.4062 32.7109V30.614C33.4062 30.2708 33.7113 29.9658 34.0544 29.9658H36.1513C36.4945 29.9658 36.7995 30.2708 36.7995 30.614V32.7109C36.7995 33.0541 36.4945 33.3591 36.1513 33.3591ZM34.1688 32.5965H36.037V30.7283H34.1688V32.5965Z" fill="#3BB30B"/>
<path d="M43.3955 33.3591H41.2985C40.9554 33.3591 40.6504 33.0541 40.6504 32.7109V30.614C40.6504 30.2708 40.9554 29.9658 41.2985 29.9658H43.3955C43.7386 29.9658 44.0436 30.2708 44.0436 30.614V32.7109C44.0436 33.0541 43.7768 33.3591 43.3955 33.3591ZM41.4129 32.5965H43.2811V30.7283H41.4129V32.5965Z" fill="#3BB30B"/>
<path d="M21.6252 39.0783H19.5283C19.1851 39.0783 18.8801 38.7733 18.8801 38.4302V36.3332C18.8801 35.9901 19.1851 35.6851 19.5283 35.6851H21.6252C21.9684 35.6851 22.2734 35.9901 22.2734 36.3332V38.4302C22.2734 38.8114 21.9684 39.0783 21.6252 39.0783ZM19.6427 38.3158H21.5108V36.4476H19.6427V38.3158Z" fill="#3BB30B"/>
<path d="M28.8694 39.0783H26.7724C26.4293 39.0783 26.1243 38.7733 26.1243 38.4302V36.3332C26.1243 35.9901 26.4293 35.6851 26.7724 35.6851H28.8694C29.2125 35.6851 29.5175 35.9901 29.5175 36.3332V38.4302C29.5175 38.8114 29.2506 39.0783 28.8694 39.0783ZM26.8868 38.3158H28.755V36.4476H26.8868V38.3158Z" fill="#3BB30B"/>
<path d="M36.1513 39.0783H34.0544C33.7113 39.0783 33.4062 38.7733 33.4062 38.4302V36.3332C33.4062 35.9901 33.7113 35.6851 34.0544 35.6851H36.1513C36.4945 35.6851 36.7995 35.9901 36.7995 36.3332V38.4302C36.7995 38.8114 36.4945 39.0783 36.1513 39.0783ZM34.1688 38.3158H36.037V36.4476H34.1688V38.3158Z" fill="#3BB30B"/>
<path d="M43.3955 39.0783H41.2985C40.9554 39.0783 40.6504 38.7733 40.6504 38.4302V36.3332C40.6504 35.9901 40.9554 35.6851 41.2985 35.6851H43.3955C43.7386 35.6851 44.0436 35.9901 44.0436 36.3332V38.4302C44.0436 38.8114 43.7768 39.0783 43.3955 39.0783ZM41.4129 38.3158H43.2811V36.4476H41.4129V38.3158Z" fill="#3BB30B"/>
<path d="M21.6252 44.8351H19.5283C19.1851 44.8351 18.8801 44.5301 18.8801 44.187V42.09C18.8801 41.7469 19.1851 41.4419 19.5283 41.4419H21.6252C21.9684 41.4419 22.2734 41.7469 22.2734 42.09V44.187C22.2734 44.5301 21.9684 44.8351 21.6252 44.8351ZM19.6427 44.0726H21.5108V42.2044H19.6427V44.0726Z" fill="#3BB30B"/>
<path d="M28.8694 44.8351H26.7724C26.4293 44.8351 26.1243 44.5301 26.1243 44.187V42.09C26.1243 41.7469 26.4293 41.4419 26.7724 41.4419H28.8694C29.2125 41.4419 29.5175 41.7469 29.5175 42.09V44.187C29.5175 44.5301 29.2506 44.8351 28.8694 44.8351ZM26.8868 44.0726H28.755V42.2044H26.8868V44.0726Z" fill="#3BB30B"/>
<path d="M36.1513 44.8351H34.0544C33.7113 44.8351 33.4062 44.5301 33.4062 44.187V42.09C33.4062 41.7469 33.7113 41.4419 34.0544 41.4419H36.1513C36.4945 41.4419 36.7995 41.7469 36.7995 42.09V44.187C36.7995 44.5301 36.4945 44.8351 36.1513 44.8351ZM34.1688 44.0726H36.037V42.2044H34.1688V44.0726Z" fill="#3BB30B"/>
<path d="M43.3955 44.8351H41.2985C40.9554 44.8351 40.6504 44.5301 40.6504 44.187V42.09C40.6504 41.7469 40.9554 41.4419 41.2985 41.4419H43.3955C43.7386 41.4419 44.0436 41.7469 44.0436 42.09V44.187C44.0436 44.5301 43.7768 44.8351 43.3955 44.8351ZM41.4129 44.0726H43.2811V42.2044H41.4129V44.0726Z" fill="#3BB30B"/>
<path d="M45.3017 17.0414H43.2048V15.402C43.2048 14.0675 42.1373 13 40.8028 13C39.4684 13 38.4009 14.0675 38.4009 15.402V17.0414H24.561V15.402C24.561 14.0675 23.4935 13 22.159 13C20.8246 13 19.7571 14.0675 19.7571 15.402V17.0414H17.6601C15.6394 17.0414 14 18.6808 14 20.7015V44.5305C14 46.5512 15.6394 48.1906 17.6601 48.1906H45.3399C47.3606 48.1906 49 46.5512 49 44.5305V20.7015C48.9619 18.6808 47.3224 17.0414 45.3017 17.0414ZM39.1253 15.3638C39.1253 14.4488 39.8497 13.7244 40.7647 13.7244C41.6797 13.7244 42.4041 14.4488 42.4041 15.3638V19.4434C42.4041 20.3584 41.6797 21.0828 40.7647 21.0828C39.8497 21.0828 39.1253 20.3584 39.1253 19.4434V15.3638ZM20.4815 15.3638C20.4815 14.4488 21.2059 13.7244 22.1209 13.7244C23.0359 13.7244 23.7603 14.4488 23.7603 15.3638V19.4434C23.7603 20.3584 23.0359 21.0828 22.1209 21.0828C21.2059 21.0828 20.4815 20.3584 20.4815 19.4434V15.3638ZM48.1993 44.5305C48.1993 46.1318 46.9031 47.4281 45.3017 47.4281H17.622C16.0207 47.4281 14.7244 46.1318 14.7244 44.5305V26.6492H48.1993V44.5305V44.5305ZM48.1993 25.8867H14.7244V20.7015C14.7244 19.1002 16.0207 17.8039 17.622 17.8039H19.719V19.4434C19.719 20.7778 20.7865 21.8453 22.1209 21.8453C23.4553 21.8453 24.5229 20.7778 24.5229 19.4434V17.8039H38.3627V19.4434C38.3627 20.7778 39.4303 21.8453 40.7647 21.8453C42.0991 21.8453 43.1667 20.7778 43.1667 19.4434V17.8039H45.2636C46.8649 17.8039 48.1612 19.1002 48.1612 20.7015V25.8867H48.1993Z" fill="black"/>
</svg>
