<svg width="29" height="29" viewBox="0 0 29 29" fill="none" xmlns="http://www.w3.org/2000/svg">
<path d="M14.5 29C22.5081 29 29 22.5081 29 14.5C29 6.49187 22.5081 0 14.5 0C6.49187 0 0 6.49187 0 14.5C0 22.5081 6.49187 29 14.5 29Z" fill="white"/>
<mask id="mask0" mask-type="alpha" maskUnits="userSpaceOnUse" x="0" y="0" width="29" height="29">
<path d="M14.5 29C22.5081 29 29 22.5081 29 14.5C29 6.49187 22.5081 0 14.5 0C6.49187 0 0 6.49187 0 14.5C0 22.5081 6.49187 29 14.5 29Z" fill="white"/>
</mask>
<g mask="url(#mask0)">
<path d="M24.1237 12.8407C24.1237 12.3139 23.4125 12.2085 23.2282 12.709C22.0165 16.1595 18.7504 18.6618 14.8784 18.7145V16.3702C14.8784 15.8961 14.3253 15.6064 13.9302 15.8961L7.34521 20.927C7.02913 21.1641 7.02913 21.6119 7.34521 21.8489L13.9302 26.8798C14.3253 27.1696 14.8784 26.9062 14.8784 26.4057V24.0878C20.1464 23.0606 24.1237 18.4511 24.1237 12.867C24.1237 12.867 24.1237 12.867 24.1237 12.8407Z" fill="#436F32"/>
<path d="M13.2453 12.6035C13.2453 13.0776 13.7984 13.3674 14.1935 13.0776L20.7785 8.04673C21.0946 7.80967 21.0946 7.36189 20.7785 7.12483L14.1935 2.12026C13.7984 1.83052 13.2453 2.09392 13.2453 2.59438V4.91228C7.97732 5.93954 4 10.549 4 16.1331V16.1594C4 16.6862 4.71118 16.7916 4.89556 16.2911C6.10719 12.8406 9.37334 10.3383 13.2453 10.2856V12.6035Z" fill="#3BB30B"/>
</g>
</svg>
