<svg width="52" height="52" viewBox="0 0 52 52" fill="none" xmlns="http://www.w3.org/2000/svg">
<path d="M26.0374 1C28.8774 1 31.2691 3.31689 31.2691 6.23169V20.8057H45.7683C48.6831 20.8057 51 23.1226 51 26.0374C51 28.8774 48.6831 31.2691 45.7683 31.2691H31.2691V45.7683C31.2691 48.6831 28.8774 51 26.0374 51C23.1226 51 20.8057 48.6831 20.8057 45.7683V31.2691H6.23169C3.31689 31.2691 1 28.8774 1 26.0374C1 23.1226 3.39163 20.8057 6.23169 20.8057H20.8057V6.23169C20.8057 3.39163 23.1226 1 26.0374 1ZM26.0374 1.59791C23.4215 1.59791 21.3288 3.69058 21.3288 6.23169V21.3288H6.23169C3.69058 21.3288 1.59791 23.4215 1.59791 26.0374C1.59791 28.5785 3.69058 30.6711 6.23169 30.6711H21.3288V45.7683C21.3288 48.3094 23.4215 50.4021 26.0374 50.4021C28.5785 50.4021 30.6711 48.3094 30.6711 45.7683V30.6711H45.7683C48.3094 30.6711 50.4021 28.5785 50.4021 26.0374C50.4021 23.4215 48.3094 21.3288 45.7683 21.3288H30.6711V6.23169C30.6711 3.69058 28.5785 1.59791 26.0374 1.59791Z" stroke="white" stroke-opacity="0.5" stroke-width="2"/>
</svg>
