<svg width="41" height="49" viewBox="0 0 41 49" fill="none" xmlns="http://www.w3.org/2000/svg">
<path d="M40.4052 1.83708e-05C40.3788 0.000587437 40.3602 0.0133282 40.3341 0.0177669H40.2808H40.2274H0.659583C0.537313 0.017784 0.399878 0.066479 0.303917 0.14225C0.208046 0.218027 0.118879 0.3435 0.090517 0.46235C-0.16801 1.5459 0.156295 2.63729 0.695149 3.75226C1.23175 4.86257 1.99809 5.972 2.7758 7.07774C3.55318 8.18301 4.34261 9.26581 4.90979 10.2432C5.19708 10.7384 5.40721 11.2088 5.54999 11.6125C5.69283 12.0163 5.7826 12.341 5.76339 12.6795C5.76282 12.6901 5.76339 12.7045 5.76339 12.715V44.8317C5.76339 47.0956 7.63096 48.9574 9.88912 48.9574H36.8664C39.1242 48.9574 40.9921 47.094 40.9921 44.8317V0.764666V0.729099V0.675784C41.0065 0.58841 41.0015 0.493307 40.9744 0.409034C40.9472 0.324761 40.8949 0.240323 40.8321 0.177851L40.8143 0.160103C40.7617 0.10883 40.687 0.0628837 40.6187 0.0356197C40.5507 0.00853218 40.4786 -0.000800495 40.4053 5.31039e-05L40.4052 1.83708e-05ZM1.08633 1.15593H1.77987H39.2849H39.8539V1.725V44.8317C39.8539 46.4728 38.5013 47.8193 36.8663 47.8193H9.88906C8.25338 47.8193 6.90147 46.4727 6.90147 44.8317V12.7329V12.7151C6.94785 11.6981 6.51724 10.7282 5.9056 9.67417C5.29342 8.61927 4.48859 7.53286 3.71825 6.43761C2.94764 5.34195 2.20804 4.25069 1.72652 3.2544C1.47816 2.74047 1.31656 2.25944 1.22859 1.83173L1.08633 1.15597V1.15593Z" fill="#47BBDF"/>
<path d="M11.8562 8.13381C11.8672 8.13368 11.8782 8.13328 11.8891 8.13381L11.9018 8.13437H11.9146L17.7119 8.15212H17.7169H17.7217C17.9741 8.1487 18.2989 8.46874 18.2989 8.72118C18.2989 8.97363 17.9741 9.29381 17.7217 9.29025H17.7177H17.7136H13.0722H12.5031V9.85932V12.1889V12.758H13.0722H17.7136H17.7177H17.7217C17.9741 12.7546 18.2989 13.0746 18.2989 13.3271C18.2989 13.5795 17.9741 13.8997 17.7217 13.8961H17.7177H17.7136H13.0722H12.5031V14.4652V16.8659V17.435H13.0722H17.7136H17.7177H17.7217C17.9741 17.4316 18.2989 17.7516 18.2989 18.0041C18.2989 18.2565 17.9741 18.5767 17.7217 18.5731H17.7177H17.7136H13.0722H12.5031V19.1422V21.6319V22.2009H13.0722H17.7136H17.7177H17.7217C17.9741 22.1975 18.2989 22.5176 18.2989 22.77C18.2989 23.0224 17.9741 23.3426 17.7217 23.3391H17.7177H17.7136H13.0722H12.5031V23.9081V26.5756V27.1447H13.0722H17.7136H17.7177H17.7217C17.9741 27.139 18.2989 27.4613 18.2989 27.7138C18.2989 27.9662 17.9741 28.2864 17.7217 28.2828H17.7177H17.7136H13.0722H12.5031V28.8519V31.715V32.2841H13.0722H17.7136H17.7177H17.7217C17.9741 32.2784 18.2989 32.6007 18.2989 32.8531C18.2989 33.1056 17.9741 33.4258 17.7217 33.4222H17.7177H17.7136H13.0722H12.5031V33.9913V36.6232V37.1922H13.0722H17.7136H17.7177H17.7217C17.9741 37.1865 18.2989 37.5089 18.2989 37.7613C18.2989 38.0137 17.9741 38.3339 17.7217 38.3304H17.7177H17.7136H13.0722H12.5031V38.8994V41.6559V42.225H13.0722H17.7136H17.7177H17.7217C17.9741 42.2193 18.2989 42.5416 18.2989 42.794C18.2989 43.0465 17.9741 43.3666 17.7217 43.3631H17.7177H17.7136H12.183H12.1199L12.0584 43.3767C11.787 43.4377 11.3581 43.0856 11.3648 42.8075L11.365 42.8007V42.7938V8.72101V8.71497L11.3648 8.70878C11.3598 8.47363 11.6211 8.17128 11.8562 8.13367L11.8562 8.13381Z" fill="#47BBDF"/>
</svg>
