<svg width="27" height="28" viewBox="0 0 27 28" fill="none" xmlns="http://www.w3.org/2000/svg">
<path d="M7.86792 6.27208V25.6581L8.58064 26.5134H24.6882L26.1136 25.8007L25.9711 11.8313L20.2693 5.7019H9.00828L7.86792 6.27208Z" fill="#28C667"/>
<path d="M4.01918 23.6623L7.5828 22.807V6.98457L8.72315 5.98676H18.8438L17.9886 0.570068L0.455566 3.84859L4.01918 23.6623Z" fill="white"/>
<path d="M26.3988 11.1185L20.7826 5.50222C20.6685 5.38818 20.526 5.33117 20.3834 5.33117H19.7562L19.072 1.42545C18.9865 0.969303 18.7299 0.570178 18.3593 0.313598C18.0742 0.114036 17.7321 0 17.3615 0C17.276 0 17.1619 -2.7613e-08 17.0479 0.0285089L1.42502 2.79387C0.968873 2.8794 0.569749 3.13598 0.313168 3.5066C0.0565882 3.87721 -0.0574475 4.33336 0.0280792 4.7895L3.22108 22.8642C3.3066 23.3203 3.56319 23.7194 3.9338 23.976C4.21889 24.1756 4.561 24.2896 4.93161 24.2896C5.04565 24.2896 5.13118 24.2896 5.24521 24.2611L7.24084 23.8905V25.3444C7.24084 26.2852 8.01058 27.0835 8.97988 27.0835H24.8593C25.8001 27.0835 26.5984 26.3137 26.5984 25.3444V11.5176C26.5699 11.3751 26.5129 11.2325 26.3988 11.1185ZM20.9536 7.29828L24.6028 10.9474H20.9536V7.29828ZM5.01714 23.1207C4.8746 23.1492 4.70354 23.1207 4.58951 23.0352C4.44696 22.9497 4.36143 22.8071 4.33293 22.6646L1.16844 4.58994C1.13993 4.44739 1.16844 4.27634 1.25396 4.1623C1.33949 4.04827 1.48203 3.96274 1.62458 3.93423L17.276 1.16887C17.4185 1.14036 17.5896 1.16887 17.7036 1.25439C17.8176 1.33992 17.9032 1.48246 17.9317 1.62501L18.5874 5.30266L8.95137 5.27415C8.49523 5.27415 8.06759 5.4452 7.72549 5.78731C7.38338 6.10091 7.21233 6.55705 7.21233 7.01319V22.7216L5.01714 23.1207ZM24.8308 25.9431H8.95137C8.63777 25.9431 8.38119 25.6865 8.38119 25.3729V7.01319C8.38119 6.87065 8.43821 6.6996 8.55225 6.61407C8.66628 6.50003 8.80883 6.44302 8.95137 6.44302L19.7848 6.47152V11.5176C19.7848 11.8312 20.0413 12.0878 20.3549 12.0878H25.401V25.3444C25.4295 25.6865 25.1729 25.9431 24.8308 25.9431Z" fill="black"/>
<path d="M20.184 19.3575C19.9845 19.0724 19.5568 19.0439 19.3288 19.272L18.6445 19.9277C18.388 20.1558 17.9888 20.1273 17.7893 19.8707L15.6511 16.9913C15.423 16.6777 14.9099 16.6777 14.7103 17.0198L11.0327 22.8356C10.8046 23.2062 11.0612 23.7194 11.5173 23.7194H22.1796C22.6358 23.7194 22.9209 23.1777 22.6358 22.8071L20.184 19.3575Z" fill="white"/>
<path d="M20.7256 17.533C21.5444 17.533 22.2081 16.8693 22.2081 16.0506C22.2081 15.2318 21.5444 14.5681 20.7256 14.5681C19.9069 14.5681 19.2432 15.2318 19.2432 16.0506C19.2432 16.8693 19.9069 17.533 20.7256 17.533Z" fill="white"/>
</svg>
