<svg width="29" height="29" viewBox="0 0 29 29" fill="none" xmlns="http://www.w3.org/2000/svg">
<path d="M14.5 29C22.5081 29 29 22.5081 29 14.5C29 6.49187 22.5081 0 14.5 0C6.49187 0 0 6.49187 0 14.5C0 22.5081 6.49187 29 14.5 29Z" fill="white"/>
<mask id="mask0" mask-type="alpha" maskUnits="userSpaceOnUse" x="0" y="0" width="29" height="29">
<path d="M14.5 29C22.5081 29 29 22.5081 29 14.5C29 6.49187 22.5081 0 14.5 0C6.49187 0 0 6.49187 0 14.5C0 22.5081 6.49187 29 14.5 29Z" fill="white"/>
</mask>
<g mask="url(#mask0)">
<path d="M23.638 5H5.47312C5.34764 5 5.2273 5.04985 5.13857 5.13857C5.04985 5.2273 5 5.34764 5 5.47312V20.4238C5.00002 20.5399 5.04268 20.6519 5.11989 20.7386L8.77873 24.8418C8.82314 24.8916 8.87757 24.9314 8.93844 24.9586C8.99932 24.9859 9.06526 25 9.13196 25H23.6379C23.7634 25 23.8837 24.9502 23.9724 24.8614C24.0612 24.7727 24.111 24.6524 24.111 24.5269V5.47312C24.111 5.34766 24.0612 5.22733 23.9725 5.13861C23.8838 5.04988 23.7634 5.00003 23.638 5V5ZM9.32949 5.94624H19.7816V11.4223C19.7813 11.7079 19.6676 11.9818 19.4657 12.1837C19.2637 12.3857 18.9898 12.4994 18.7042 12.4997H10.4069C10.1213 12.4994 9.84743 12.3857 9.64544 12.1837C9.44345 11.9818 9.32983 11.7079 9.32949 11.4223V5.94624ZM18.7457 24.0538H12.6235V22.0774C12.6235 21.952 12.5737 21.8316 12.4849 21.7429C12.3962 21.6542 12.2759 21.6043 12.1504 21.6043C12.0249 21.6043 11.9046 21.6542 11.8158 21.7429C11.7271 21.8316 11.6773 21.952 11.6773 22.0774V24.0538H10.3654V20.1011H18.7457V24.0538ZM23.1647 24.0538H19.6919V19.6279C19.6919 19.5025 19.6421 19.3821 19.5534 19.2934C19.4646 19.2047 19.3443 19.1548 19.2188 19.1548H9.89227C9.76679 19.1548 9.64645 19.2047 9.55772 19.2934C9.46899 19.3821 9.41915 19.5025 9.41915 19.6279V24.0538H9.34406L5.94624 20.2434V5.94624H8.38325V11.4223C8.38387 11.9588 8.59728 12.4731 8.97666 12.8525C9.35604 13.2319 9.87041 13.4453 10.4069 13.4459H18.7042C19.2407 13.4453 19.7551 13.2319 20.1344 12.8525C20.5138 12.4731 20.7272 11.9588 20.7278 11.4223V5.94624H23.1649L23.1647 24.0538ZM11.2338 7.74515C11.2338 7.61967 11.2836 7.49933 11.3723 7.4106C11.4611 7.32187 11.5814 7.27203 11.7069 7.27203H17.4042C17.5297 7.27203 17.65 7.32187 17.7388 7.4106C17.8275 7.49933 17.8773 7.61967 17.8773 7.74515C17.8773 7.87063 17.8275 7.99097 17.7388 8.0797C17.65 8.16842 17.5297 8.21827 17.4042 8.21827H11.7069C11.5814 8.21827 11.4611 8.16842 11.3723 8.0797C11.2836 7.99097 11.2338 7.87063 11.2338 7.74515ZM11.2338 9.73075C11.2338 9.60527 11.2836 9.48493 11.3723 9.3962C11.4611 9.30747 11.5814 9.25762 11.7069 9.25762H17.4042C17.5297 9.25762 17.65 9.30747 17.7388 9.3962C17.8275 9.48493 17.8773 9.60527 17.8773 9.73075C17.8773 9.85623 17.8275 9.97657 17.7388 10.0653C17.65 10.154 17.5297 10.2039 17.4042 10.2039H11.7069C11.5814 10.2039 11.4611 10.154 11.3723 10.0653C11.2836 9.97657 11.2338 9.85623 11.2338 9.73075Z" fill="#4B49C5"/>
</g>
</svg>
