<svg width="42" height="41" viewBox="0 0 42 41" fill="none" xmlns="http://www.w3.org/2000/svg">
<path d="M10.1915 30.4616C10.0665 30.4616 9.98317 30.4199 9.89983 30.3366C9.69147 30.1699 9.69147 29.8782 9.85815 29.6698L18.4841 19.8355C19.1508 19.0854 20.0675 18.6687 21.0677 18.6687C22.0678 18.6687 22.9845 19.0854 23.6513 19.8355L31.6521 29.5865C31.8188 29.7949 31.7771 30.0866 31.5687 30.2532C31.3604 30.4199 31.0687 30.3783 30.902 30.1699L22.9428 20.4606C22.4845 19.9188 21.7761 19.6271 21.0677 19.6271C20.3592 19.6271 19.6508 19.9188 19.1925 20.4606L10.5666 30.2949C10.4832 30.4199 10.3582 30.4616 10.1915 30.4616Z" fill="#D5A222"/>
<path d="M41.4448 25.0444C41.3198 25.0444 41.1947 25.0027 41.0697 24.8777L35.1108 17.7519C34.8191 17.4186 34.4024 17.2519 33.9857 17.2519C33.5689 17.2519 33.1522 17.4186 32.8605 17.7519L27.0683 24.336C26.9016 24.5443 26.6099 24.5443 26.4015 24.3776C26.1932 24.2109 26.1932 23.9193 26.3599 23.7109L32.1105 17.1269C32.5688 16.5852 33.2356 16.2935 33.944 16.2935C34.6524 16.2935 35.3191 16.5852 35.7775 17.1269L41.7781 24.2943C41.9448 24.5026 41.9031 24.7943 41.7365 24.961C41.6531 25.0027 41.5281 25.0444 41.4448 25.0444Z" fill="#D5A222"/>
<path d="M9.39988 14.3349C6.48291 14.3349 4.10767 11.9597 4.10767 9.04271C4.10767 6.12574 6.48291 3.75049 9.39988 3.75049C12.3169 3.75049 14.6921 6.12574 14.6921 9.04271C14.6921 11.9597 12.3169 14.3349 9.39988 14.3349ZM9.39988 4.70892C6.98296 4.70892 5.0661 6.66746 5.0661 9.04271C5.0661 11.4596 7.02464 13.4182 9.39988 13.4182C11.7751 13.4182 13.7337 11.4596 13.7337 9.08438C13.7753 6.66746 11.8168 4.70892 9.39988 4.70892Z" fill="#F7EF3E"/>
<path d="M9.39979 2.75029C9.14976 2.75029 8.94141 2.54193 8.94141 2.29191V0.458381C8.94141 0.208355 9.14976 0 9.39979 0C9.64981 0 9.85817 0.208355 9.85817 0.458381V2.29191C9.89984 2.54193 9.69148 2.75029 9.39979 2.75029Z" fill="#F7EF3E"/>
<path d="M6.02453 3.66698C5.85785 3.66698 5.69117 3.58364 5.60782 3.41696L4.69106 1.83346C4.56605 1.62511 4.64939 1.33341 4.85775 1.2084C5.0661 1.08338 5.3578 1.16672 5.48281 1.37508L6.39957 2.95858C6.52459 3.16693 6.44124 3.45863 6.23289 3.58364C6.19122 3.62531 6.10788 3.66698 6.02453 3.66698Z" fill="#F7EF3E"/>
<path d="M3.52428 6.12549C3.44094 6.12549 3.35759 6.12549 3.27425 6.04215L1.69075 5.12539C1.4824 5.00038 1.39906 4.70868 1.52407 4.50032C1.64908 4.29197 1.94078 4.20863 2.14913 4.33364L3.73263 5.2504C3.94099 5.37541 4.02433 5.66711 3.89932 5.87547C3.85765 6.04215 3.69096 6.12549 3.52428 6.12549Z" fill="#F7EF3E"/>
<path d="M2.60753 9.54249H0.815681C0.565655 9.54249 0.3573 9.33414 0.3573 9.08411C0.3573 8.83409 0.565655 8.62573 0.815681 8.62573H2.6492C2.89923 8.62573 3.10759 8.83409 3.10759 9.08411C3.10759 9.33414 2.89923 9.54249 2.60753 9.54249Z" fill="#F7EF3E"/>
<path d="M1.94078 13.8347C1.77409 13.8347 1.60741 13.7514 1.52407 13.5847C1.39906 13.3763 1.4824 13.0846 1.69075 12.9596L3.27425 12.0429C3.48261 11.9179 3.7743 12.0012 3.89932 12.2096C4.02433 12.4179 3.94099 12.7096 3.73263 12.8346L2.14913 13.7514C2.10746 13.8347 2.02412 13.8347 1.94078 13.8347Z" fill="#F7EF3E"/>
<path d="M5.10777 17.0017C5.02443 17.0017 4.94109 17.0017 4.85775 16.9184C4.64939 16.7933 4.56605 16.5016 4.69106 16.2933L5.60782 14.7098C5.73284 14.5014 6.02453 14.4181 6.23289 14.5431C6.44124 14.6681 6.52459 14.9598 6.39957 15.1682L5.52448 16.7517C5.44114 16.9184 5.27446 17.0017 5.10777 17.0017Z" fill="#F7EF3E"/>
<path d="M9.39979 18.1685C9.14976 18.1685 8.94141 17.9601 8.94141 17.7101V15.8766C8.94141 15.6266 9.14976 15.4182 9.39979 15.4182C9.64981 15.4182 9.85817 15.6266 9.85817 15.8766V17.7101C9.89984 17.9185 9.69148 18.1685 9.39979 18.1685Z" fill="#F7EF3E"/>
<path d="M13.7336 17.0017C13.567 17.0017 13.4003 16.9184 13.3169 16.7517L12.4002 15.1682C12.2752 14.9598 12.3585 14.6681 12.5669 14.5431C12.7752 14.4181 13.0669 14.5014 13.1919 14.7098L14.1087 16.2933C14.2337 16.5016 14.1503 16.7933 13.942 16.9184C13.9003 16.96 13.817 17.0017 13.7336 17.0017Z" fill="#F7EF3E"/>
<path d="M16.9007 13.8347C16.8174 13.8347 16.7341 13.8347 16.6507 13.7514L15.0672 12.8346C14.8589 12.7096 14.7755 12.4179 14.9005 12.2096C15.0255 12.0012 15.3172 11.9179 15.5256 12.0429L17.1091 12.9596C17.3175 13.0846 17.4008 13.3763 17.2758 13.5847C17.1924 13.7514 17.0258 13.8347 16.9007 13.8347Z" fill="#F7EF3E"/>
<path d="M18.0257 9.54249H16.1921C15.9421 9.54249 15.7338 9.33414 15.7338 9.08411C15.7338 8.83409 15.9421 8.62573 16.1921 8.62573H18.0257C18.2757 8.62573 18.4841 8.83409 18.4841 9.08411C18.5257 9.33414 18.2757 9.54249 18.0257 9.54249Z" fill="#F7EF3E"/>
<path d="M15.3172 6.12549C15.1506 6.12549 14.9839 6.04215 14.9005 5.87547C14.7755 5.66711 14.8589 5.37541 15.0672 5.2504L16.6507 4.33364C16.8591 4.20863 17.1508 4.29197 17.2758 4.50032C17.4008 4.70868 17.3175 5.00038 17.1091 5.12539L15.5256 6.04215C15.4423 6.12549 15.3589 6.12549 15.3172 6.12549Z" fill="#F7EF3E"/>
<path d="M12.8169 3.66698C12.7335 3.66698 12.6502 3.66698 12.5669 3.58364C12.3585 3.45863 12.2752 3.16693 12.4002 2.95858L13.3169 1.37508C13.4419 1.16672 13.7336 1.08338 13.942 1.2084C14.1503 1.33341 14.2337 1.62511 14.1087 1.83346L13.2336 3.41696C13.1502 3.58364 12.9836 3.66698 12.8169 3.66698Z" fill="#F7EF3E"/>
<path d="M36.9444 37.7955H28.9019C25.1515 37.7955 21.6095 36.7121 18.6509 34.6702C10.1083 28.7529 0.940694 29.3363 0.857352 29.3363C0.607326 29.3363 0.3573 29.1696 0.3573 28.9196C0.3573 28.6695 0.523984 28.4195 0.77401 28.4195C1.14905 28.3779 10.3583 27.8361 19.1926 33.9201C21.9846 35.837 25.3599 36.8787 28.9019 36.8787H36.9444C37.1945 36.8787 37.4028 37.0871 37.4028 37.3371C37.4028 37.5871 37.1945 37.7955 36.9444 37.7955Z" fill="#D5A222"/>
<path d="M20.8593 35.8787C20.7343 35.8787 20.6093 35.837 20.4843 35.712C20.3176 35.5036 20.3176 35.2119 20.5259 35.0453C20.6093 34.9619 28.8601 27.9612 41.4031 27.9612C41.6531 27.9612 41.8615 28.1695 41.8615 28.4196C41.8615 28.6696 41.6531 28.8779 41.4031 28.8779C29.1935 28.8779 21.1927 35.6703 21.1093 35.7537C21.0676 35.8787 20.9426 35.8787 20.8593 35.8787Z" fill="#D5A222"/>
<path d="M17.0256 40.2125C16.9423 40.2125 16.8173 40.1708 16.7339 40.1291C7.77466 32.9617 0.857277 33.9618 0.773935 33.9618C0.523909 34.0035 0.273883 33.8368 0.232212 33.5868C0.190541 33.3368 0.357225 33.0867 0.607251 33.0451C0.898948 33.0034 7.98302 31.9616 17.3173 39.3374C17.5257 39.5041 17.5673 39.7958 17.4007 40.0041C17.3173 40.1291 17.1923 40.2125 17.0256 40.2125Z" fill="#D5A222"/>
<path d="M28.9019 37.7955C28.7768 37.7955 28.6935 37.7539 28.6102 37.6705C28.4018 37.5038 28.4018 37.2122 28.5685 37.0038C28.7352 36.8371 32.2772 32.7117 41.4448 32.5867C41.6948 32.5867 41.9032 32.795 41.9032 33.0451C41.9032 33.2951 41.6948 33.5034 41.4448 33.5034C32.6939 33.5868 29.3186 37.5455 29.2769 37.5872C29.1519 37.7539 29.0269 37.7955 28.9019 37.7955Z" fill="#D5A222"/>
</svg>
