<svg width="44" height="39" viewBox="0 0 44 39" fill="none" xmlns="http://www.w3.org/2000/svg">
<path d="M43.8702 2.03619C43.8702 1.76979 43.8177 1.506 43.7158 1.25987C43.6138 1.01375 43.4644 0.790114 43.276 0.601739C43.0876 0.413363 42.864 0.263936 42.6179 0.161988C42.3718 0.0600401 42.108 0.00756836 41.8416 0.00756836H37.8907C37.3533 0.0095699 36.8385 0.223942 36.4584 0.60395C36.0784 0.983958 35.8641 1.49878 35.8621 2.03619V3.64694H43.8702V2.03619Z" fill="#555555"/>
<path d="M36.979 26.0072C37.1893 25.741 37.4563 25.525 37.7607 25.3751C38.0651 25.2252 38.3991 25.1451 38.7384 25.1408C39.0777 25.1364 39.4136 25.2078 39.7218 25.3498C40.0299 25.4919 40.3025 25.7009 40.5196 25.9616C40.8235 26.2656 40.9375 26.3719 41.2262 26.3643C41.5149 26.3567 41.6365 26.2504 41.9252 25.9464C42.1365 25.6794 42.4039 25.4621 42.7085 25.3098C43.0131 25.1575 43.3474 25.0739 43.6879 25.0651H43.8626V8.41821H35.8545V26.2883C35.9738 26.3863 36.1259 26.4352 36.28 26.4251C36.5687 26.4175 36.6827 26.3111 36.979 26.0072Z" fill="#555555"/>
<path d="M43.87 26.5696H43.7104C43.5931 26.5716 43.4779 26.6008 43.3737 26.6549C43.2696 26.7089 43.1794 26.7863 43.1102 26.8811L43.019 26.9723C42.8081 27.2381 42.5406 27.4534 42.2359 27.6027C41.9312 27.7519 41.597 27.8313 41.2577 27.8349C40.9185 27.8385 40.5827 27.7664 40.2748 27.6237C39.967 27.4811 39.6949 27.2715 39.4784 27.0103L39.334 26.8659C39.2661 26.783 39.1801 26.7167 39.0827 26.6719C38.9853 26.6272 38.879 26.6052 38.7718 26.6076C38.667 26.6063 38.5633 26.629 38.4685 26.6737C38.3738 26.7185 38.2904 26.7842 38.2248 26.8659L38.0652 27.0254C37.8539 27.2925 37.5864 27.5098 37.2819 27.6621C36.9773 27.8144 36.6429 27.898 36.3025 27.9068C36.1761 27.9174 36.049 27.9174 35.9226 27.9068V28.4083L39.7215 37.936L39.8507 38.2627L40.1546 37.5029L43.7712 28.3855L43.8548 26.8659L43.87 26.5696ZM40.071 35.1324L39.8963 35.573L39.8203 35.3831L37.6169 29.8443H42.1756L40.071 35.1324Z" fill="#555555"/>
<path d="M40.7095 6.89881H43.8702V5.1665H40.7095H39.0076H35.8545V6.89881H39.0076H40.7095Z" fill="#555555"/>
<path d="M33.894 1.91466C33.894 1.40686 33.6923 0.919858 33.3332 0.56079C32.9741 0.201722 32.4871 0 31.9793 0H5.89593C5.38813 0 4.90113 0.201722 4.54206 0.56079C4.183 0.919858 3.98127 1.40686 3.98127 1.91466V4.68787C1.70192 5.01458 0 6.26822 0 7.81059C0 9.35295 1.67153 10.6066 3.98127 10.9333V16.0011C1.70192 16.3278 0 17.5814 0 19.1238C0 20.6661 1.67153 21.9198 3.98127 22.2465V27.3143C1.70192 27.641 0 28.8946 0 30.437C0 31.9793 1.67153 33.233 3.98127 33.5597V36.3329C3.98127 36.8407 4.183 37.3277 4.54206 37.6868C4.90113 38.0458 5.38813 38.2476 5.89593 38.2476H31.9793C32.4871 38.2476 32.9741 38.0458 33.3332 37.6868C33.6923 37.3277 33.894 36.8407 33.894 36.3329V27.0939V1.91466ZM3.98127 32.2301C2.36293 31.9565 1.30683 31.1588 1.30683 30.4294C1.30683 29.7 2.36293 28.9098 3.98127 28.6287V32.2301ZM3.98127 20.9169C2.36293 20.6434 1.31443 19.8836 1.31443 19.1238C1.31443 18.364 2.37053 17.6042 3.98887 17.3231L3.98127 20.9169ZM3.98127 9.60368C2.36293 9.33016 1.30683 8.53238 1.30683 7.80299C1.30683 7.07359 2.36293 6.28342 3.98127 6.0023V9.60368ZM31.5539 35.9074H6.32141V33.5597C8.64635 33.2406 10.3407 31.9869 10.3407 30.4294C10.3407 30.2551 10.2714 30.0879 10.1482 29.9647C10.0249 29.8414 9.85776 29.7722 9.68346 29.7722C9.50915 29.7722 9.34199 29.8414 9.21874 29.9647C9.09548 30.0879 9.02624 30.2551 9.02624 30.4294C9.02624 31.1892 7.95495 31.9489 6.31381 32.2301V22.2541C8.65395 21.935 10.3407 20.6434 10.3407 19.1238C10.3407 18.9485 10.271 18.7803 10.1471 18.6564C10.0231 18.5324 9.85497 18.4628 9.67966 18.4628C9.50435 18.4628 9.33622 18.5324 9.21225 18.6564C9.08829 18.7803 9.01865 18.9485 9.01865 19.1238C9.01865 19.8836 7.94735 20.6433 6.30621 20.9245V10.9409C8.63116 10.6218 10.3255 9.36815 10.3255 7.81059C10.3255 7.63628 10.2562 7.46912 10.133 7.34587C10.0097 7.22261 9.84256 7.15337 9.66826 7.15337C9.49396 7.15337 9.32679 7.22261 9.20354 7.34587C9.08029 7.46912 9.01105 7.63628 9.01105 7.81059C9.01105 8.57037 7.93975 9.33016 6.29862 9.61128V2.34014H31.5539V35.9074Z" fill="#7A7A7A"/>
<path d="M12.6656 8.48672H29.0314C29.2117 8.48672 29.3847 8.41508 29.5122 8.28756C29.6397 8.16003 29.7114 7.98707 29.7114 7.80672C29.7114 7.62637 29.6397 7.45341 29.5122 7.32588C29.3847 7.19835 29.2117 7.12671 29.0314 7.12671H12.6656C12.4853 7.12671 12.3123 7.19835 12.1848 7.32588C12.0572 7.45341 11.9856 7.62637 11.9856 7.80672C11.9856 7.98707 12.0572 8.16003 12.1848 8.28756C12.3123 8.41508 12.4853 8.48672 12.6656 8.48672Z" fill="#7A7A7A"/>
<path d="M12.6656 14.1623H29.0314C29.2117 14.1623 29.3847 14.0906 29.5122 13.9631C29.6397 13.8356 29.7114 13.6626 29.7114 13.4823C29.7114 13.3019 29.6397 13.1289 29.5122 13.0014C29.3847 12.8739 29.2117 12.8022 29.0314 12.8022H12.6656C12.4853 12.8022 12.3123 12.8739 12.1848 13.0014C12.0572 13.1289 11.9856 13.3019 11.9856 13.4823C11.9856 13.6626 12.0572 13.8356 12.1848 13.9631C12.3123 14.0906 12.4853 14.1623 12.6656 14.1623Z" fill="#7A7A7A"/>
<path d="M12.6656 19.8H29.0314C29.2117 19.8 29.3847 19.7283 29.5122 19.6008C29.6397 19.4733 29.7114 19.3003 29.7114 19.1199C29.7114 18.9396 29.6397 18.7666 29.5122 18.6391C29.3847 18.5116 29.2117 18.4399 29.0314 18.4399H12.6656C12.4853 18.4399 12.3123 18.5116 12.1848 18.6391C12.0572 18.7666 11.9856 18.9396 11.9856 19.1199C11.9856 19.3003 12.0572 19.4733 12.1848 19.6008C12.3123 19.7283 12.4853 19.8 12.6656 19.8Z" fill="#7A7A7A"/>
<path d="M12.6656 25.4452H29.0314C29.2117 25.4452 29.3847 25.3736 29.5122 25.2461C29.6397 25.1185 29.7114 24.9456 29.7114 24.7652C29.7114 24.5849 29.6397 24.4119 29.5122 24.2844C29.3847 24.1569 29.2117 24.0852 29.0314 24.0852H12.6656C12.4853 24.0852 12.3123 24.1569 12.1848 24.2844C12.0572 24.4119 11.9856 24.5849 11.9856 24.7652C11.9856 24.9456 12.0572 25.1185 12.1848 25.2461C12.3123 25.3736 12.4853 25.4452 12.6656 25.4452V25.4452Z" fill="#7A7A7A"/>
<path d="M12.6656 31.0902H29.0314C29.2117 31.0902 29.3847 31.0186 29.5122 30.8911C29.6397 30.7635 29.7114 30.5906 29.7114 30.4102C29.7114 30.2299 29.6397 30.0569 29.5122 29.9294C29.3847 29.8019 29.2117 29.7302 29.0314 29.7302H12.6656C12.4853 29.7302 12.3123 29.8019 12.1848 29.9294C12.0572 30.0569 11.9856 30.2299 11.9856 30.4102C11.9856 30.5906 12.0572 30.7635 12.1848 30.8911C12.3123 31.0186 12.4853 31.0902 12.6656 31.0902Z" fill="#7A7A7A"/>
</svg>
