<svg width="25" height="22" viewBox="0 0 25 22" fill="none" xmlns="http://www.w3.org/2000/svg">
<path d="M20.458 12.1709L14.9043 11.7163C14.7265 11.2617 14.4695 10.8467 14.1138 10.5108L16.2878 5.58952C16.8017 4.40365 16.7226 3.03993 16.0506 1.93315C15.3787 0.826361 14.2521 0.134618 12.9675 0.0357979H12.9082C12.1966 -0.0234897 11.4852 -0.00372906 10.7934 0.0555643C9.50875 0.154385 8.38222 0.846128 7.71023 1.95291C7.03824 3.03993 6.93941 4.34437 7.43351 5.53018L9.50875 10.5503C9.15298 10.906 8.8961 11.3408 8.71821 11.8152L3.73763 12.1116C2.453 12.1907 1.32645 12.8429 0.634709 13.9299C-0.0570276 15.017 -0.195375 16.3214 0.278961 17.527C0.535889 18.1792 0.852117 18.8314 1.1881 19.4441L1.22763 19.5034C1.87984 20.6101 2.98663 21.3217 4.29107 21.4204C4.40962 21.4204 4.52823 21.4402 4.62706 21.4402C5.7931 21.4402 6.91969 20.9264 7.67073 20.0173L11.0503 16.0249C11.3073 16.0842 11.5642 16.1237 11.8409 16.1237C12.2757 16.1237 12.6907 16.0447 13.0663 15.8865L16.3471 19.9777C17.0982 20.9264 18.2445 21.46 19.4501 21.46C19.5291 21.46 19.6082 21.46 19.707 21.46C20.9916 21.3809 22.138 20.709 22.8099 19.6022L22.8494 19.5429C23.2052 18.95 23.5412 18.3175 23.7982 17.6653C24.2923 16.4795 24.1934 15.1553 23.5214 14.0485C22.8692 12.9615 21.7427 12.2697 20.458 12.1709ZM8.40199 2.34819C8.93559 1.45881 9.84475 0.905415 10.8725 0.826361C11.5444 0.767068 12.2164 0.767068 12.8686 0.806595H12.9279C13.9557 0.885655 14.845 1.43904 15.3787 2.32843C15.9123 3.23757 15.9914 4.30482 15.5565 5.25353L13.4616 9.99688C12.9872 9.72016 12.4338 9.56205 11.8409 9.56205C11.2282 9.56205 10.6551 9.73994 10.1807 10.0167L8.16483 5.21397C7.78928 4.26532 7.86834 3.21781 8.40199 2.34819ZM7.0778 19.5231C6.40581 20.3335 5.4176 20.7287 4.37012 20.6497C3.34238 20.5706 2.453 19.9975 1.91937 19.1081L1.87984 19.0488C1.54385 18.4756 1.2474 17.863 1.01023 17.2502C0.634709 16.2818 0.73353 15.2343 1.28693 14.3647C1.84032 13.4951 2.74946 12.9812 3.75741 12.9022L8.5601 12.6057C8.5601 12.6848 8.54032 12.7638 8.54032 12.8627C8.54032 14.1078 9.23209 15.1751 10.24 15.7284L7.0778 19.5231ZM9.35064 12.8627C9.35064 11.4989 10.4575 10.3724 11.8409 10.3724C13.2244 10.3724 14.3312 11.4792 14.3312 12.8627C14.3312 14.2461 13.2244 15.3529 11.8409 15.3529C10.4575 15.3529 9.35064 14.2264 9.35064 12.8627ZM23.0669 17.3491C22.8099 17.9618 22.5135 18.5547 22.1577 19.1278L22.1182 19.1872C21.5846 20.0567 20.6754 20.6101 19.6477 20.6695C18.6002 20.7287 17.612 20.2939 16.9598 19.4836L13.758 15.5111C14.5683 14.9181 15.102 13.9497 15.102 12.8627C15.102 12.7441 15.102 12.6255 15.0822 12.5267L20.379 12.9615C21.4067 13.0405 22.2961 13.5939 22.8297 14.4635C23.3831 15.3529 23.4819 16.4004 23.0669 17.3491Z" fill="white"/>
</svg>
