<svg width="55" height="55" viewBox="0 0 55 55" fill="none" xmlns="http://www.w3.org/2000/svg">
<path fill-rule="evenodd" clip-rule="evenodd" d="M28.0565 34.0932C31.0476 34.0932 33.4724 31.6684 33.4724 28.6772C33.4724 25.6861 31.0476 23.2613 28.0565 23.2613C25.0653 23.2613 22.6405 25.6861 22.6405 28.6772C22.6405 31.6684 25.0653 34.0932 28.0565 34.0932ZM35.5786 16.1048V18.3825C35.5786 18.7505 35.8771 19.0489 36.2451 19.0489H38.5228C38.8908 19.0489 39.1892 18.7504 39.1892 18.3825V16.1048C39.1892 15.7367 38.8907 15.4383 38.5228 15.4383H36.2451C35.877 15.4383 35.5786 15.7368 35.5786 16.1048ZM45 11H11V18.2183V45H45V11ZM42.5929 42.5929H13.4071V25.6684H20.833C20.4468 26.5946 20.2335 27.611 20.2335 28.6772C20.2335 32.9978 23.7359 36.5002 28.0565 36.5002C32.377 36.5002 35.8795 32.9978 35.8795 28.6772C35.8795 27.611 35.6662 26.5946 35.2799 25.6684H42.5929V42.5929ZM42.5929 13.4071H13.4071V23.2613H22.4114C23.8351 21.7777 25.8379 20.8542 28.0565 20.8542C30.275 20.8542 32.2779 21.7777 33.7016 23.2613H42.5929V13.4071Z" fill="#A5A5A5"/>
<rect x="32" y="34" width="15" height="14.7973" rx="7.39865" fill="#FF0000"/>
<path d="M39.5067 37C40.0179 37 40.4484 37.417 40.4484 37.9417V40.565H43.0583C43.583 40.565 44 40.9821 44 41.5067C44 42.0179 43.583 42.4484 43.0583 42.4484H40.4484V45.0583C40.4484 45.583 40.0179 46 39.5067 46C38.9821 46 38.565 45.583 38.565 45.0583V42.4484H35.9417C35.417 42.4484 35 42.0179 35 41.5067C35 40.9821 35.4305 40.565 35.9417 40.565H38.565V37.9417C38.565 37.4305 38.9821 37 39.5067 37ZM39.5067 37.1076C39.0359 37.1076 38.6592 37.4843 38.6592 37.9417V40.6592H35.9417C35.4843 40.6592 35.1076 41.0359 35.1076 41.5067C35.1076 41.9641 35.4843 42.3408 35.9417 42.3408H38.6592V45.0583C38.6592 45.5157 39.0359 45.8924 39.5067 45.8924C39.9641 45.8924 40.3408 45.5157 40.3408 45.0583V42.3408H43.0583C43.5157 42.3408 43.8924 41.9641 43.8924 41.5067C43.8924 41.0359 43.5157 40.6592 43.0583 40.6592H40.3408V37.9417C40.3408 37.4843 39.9641 37.1076 39.5067 37.1076Z" stroke="white"/>
<line x1="35" y1="41.5" x2="44" y2="41.5" stroke="white"/>
<line x1="39.5" y1="37" x2="39.5" y2="46" stroke="white"/>
<circle cx="27.5" cy="27.5" r="27" stroke="#D5D5D5"/>
</svg>
