<svg width="29" height="29" viewBox="0 0 29 29" fill="none" xmlns="http://www.w3.org/2000/svg">
<path d="M14.5 29C22.5081 29 29 22.5081 29 14.5C29 6.49187 22.5081 0 14.5 0C6.49187 0 0 6.49187 0 14.5C0 22.5081 6.49187 29 14.5 29Z" fill="white"/>
<mask id="mask0" mask-type="alpha" maskUnits="userSpaceOnUse" x="0" y="0" width="29" height="29">
<path d="M14.5 29C22.5081 29 29 22.5081 29 14.5C29 6.49187 22.5081 0 14.5 0C6.49187 0 0 6.49187 0 14.5C0 22.5081 6.49187 29 14.5 29Z" fill="white"/>
</mask>
<g mask="url(#mask0)">
<path d="M20.3069 6.01003C20.6811 6.0135 21.0506 6.16633 21.3181 6.42887C22.0714 7.17754 22.8224 7.92861 23.5711 8.6819C23.833 8.9489 23.9863 9.31302 23.9899 9.69307C24.0034 13.9771 24.0034 18.2613 23.9899 22.5453C23.9829 23.2916 23.3421 23.9807 22.5471 23.9881C17.5163 24.0039 12.4855 24.0039 7.45468 23.9881C6.70632 23.9812 6.01932 23.3403 6.01186 22.5453C5.99605 17.5145 5.99605 12.4836 6.01186 7.45281C6.01893 6.70101 6.67186 6.01727 7.45464 6.01003C11.7387 5.99666 16.0228 5.99666 20.3069 6.01003V6.01003ZM7.46424 6.75784C7.09773 6.75895 6.76327 7.07652 6.75967 7.45748C6.74386 12.4867 6.71232 17.5161 6.75972 22.545C6.76524 22.9063 7.07651 23.2367 7.45931 23.2403C12.4885 23.2561 17.5179 23.2866 22.5469 23.2402C22.9094 23.2346 23.2385 22.9203 23.2421 22.5406C23.2555 18.2582 23.2824 13.9756 23.242 9.69333C23.2393 9.5129 23.1651 9.33595 23.039 9.20737C22.2914 8.45528 21.5462 7.70074 20.7894 6.95785C20.66 6.8325 20.4823 6.75951 20.3022 6.75784C16.0229 6.74451 11.7436 6.75784 7.46424 6.75784V6.75784Z" fill="#CC308E"/>
<path d="M19.3429 6.01135C19.5302 6.03749 19.6735 6.19199 19.6823 6.38369C19.6823 7.46335 19.6859 8.543 19.6823 9.62265C19.6754 10.3758 19.0225 11.0577 18.2398 11.0651C16.0805 11.0721 13.9212 11.0721 11.7619 11.0651C11.0148 11.0581 10.3221 10.4183 10.3193 9.61395V6.38369C10.3286 6.18342 10.4915 6.01911 10.6933 6.00977H19.3084C19.3199 6.01028 19.3314 6.01084 19.3429 6.01135V6.01135ZM11.0672 6.75762C11.0672 7.7126 11.0585 8.66763 11.0672 9.62257C11.0731 9.98548 11.3847 10.3137 11.7666 10.3173C13.9243 10.3242 16.0821 10.3378 18.2397 10.3173C18.6024 10.3115 18.9332 9.99752 18.9345 9.61271V6.75762C16.3121 6.75762 13.6896 6.75762 11.0672 6.75762V6.75762Z" fill="#CC308E"/>
<path d="M20.0348 13.9072C20.7845 13.9144 21.4746 14.5565 21.4773 15.3584V23.6142C21.4521 23.773 21.3679 23.9214 21.2189 23.9698C21.1818 23.9818 21.1419 23.982 21.1033 23.9881H8.89857C8.82109 23.9758 8.7415 23.9623 8.67876 23.9167C8.58443 23.8481 8.54355 23.7334 8.52465 23.6142C8.52465 20.8594 8.5153 18.1045 8.52469 15.3497C8.53176 14.6008 9.17432 13.9148 9.96717 13.9072C13.323 13.8965 16.6789 13.8965 20.0348 13.9072ZM9.97711 14.655C9.61193 14.6562 9.27615 14.9678 9.2725 15.3545V23.2402H20.7294C20.7294 20.6101 20.7542 17.9799 20.7294 15.3498C20.7236 14.9858 20.412 14.6587 20.03 14.655C16.679 14.6443 13.3281 14.655 9.97711 14.655V14.655Z" fill="#CC308E"/>
</g>
</svg>
