<svg width="789" height="529" viewBox="0 0 789 529" fill="none" xmlns="http://www.w3.org/2000/svg">
<path d="M100.241 101.2C108.107 104.267 115.507 106.867 122.441 109C129.507 111.133 137.041 112.2 145.041 112.2C150.907 112.2 154.841 111.467 156.841 110C158.974 108.4 160.041 106.467 160.041 104.2C160.041 101.8 159.041 99.8667 157.041 98.4C155.174 96.8 151.307 95.0667 145.441 93.2C138.374 90.9333 131.907 88.6 126.041 86.2C120.307 83.8 115.374 80.8667 111.241 77.4C107.241 73.8 104.107 69.5333 101.841 64.6C99.7075 59.5333 98.6408 53.2667 98.6408 45.8C98.6408 38.6 100.041 32.2 102.841 26.6C105.641 21 109.574 16.3333 114.641 12.6C119.841 8.73332 126.107 5.79999 133.441 3.79999C140.774 1.8 148.974 0.799998 158.041 0.799998C170.174 0.799998 180.707 1.86666 189.641 3.99999C198.707 5.99999 206.107 7.99999 211.841 10L201.041 44.4C199.174 43.6 196.907 42.7333 194.241 41.8C191.574 40.8667 188.707 40 185.641 39.2C182.574 38.4 179.307 37.7333 175.841 37.2C172.507 36.6667 169.174 36.4 165.841 36.4C161.174 36.4 157.574 37.1333 155.041 38.6C152.507 40.0667 151.241 42 151.241 44.4C151.241 45.7333 151.441 46.9333 151.841 48C152.374 48.9333 153.507 49.9333 155.241 51C156.974 51.9333 159.574 53.0667 163.041 54.4C166.641 55.6 171.574 57.2 177.841 59.2C189.441 62.9333 198.241 68.0667 204.241 74.6C210.374 81 213.441 89.9333 213.441 101.4C213.441 117.533 208.374 129.6 198.241 137.6C188.107 145.6 173.307 149.6 153.841 149.6C143.974 149.6 134.441 148.8 125.241 147.2C116.174 145.6 107.841 143.467 100.241 140.8V101.2ZM231.986 65.3H221.936V39.8H267.536V100.25C267.536 103.95 267.786 106.95 268.286 109.25C268.786 111.55 269.536 113.35 270.536 114.65C271.536 115.95 272.836 116.85 274.436 117.35C276.036 117.75 277.986 117.95 280.286 117.95C282.486 117.95 284.386 117.75 285.986 117.35C287.686 116.85 289.036 115.95 290.036 114.65C291.036 113.35 291.786 111.55 292.286 109.25C292.786 106.95 293.036 103.95 293.036 100.25V39.8H337.586V65.3H327.536V99.95C327.536 108.05 326.686 115.15 324.986 121.25C323.386 127.35 320.736 132.45 317.036 136.55C313.336 140.55 308.486 143.6 302.486 145.7C296.486 147.7 289.086 148.7 280.286 148.7C271.386 148.7 263.836 147.7 257.636 145.7C251.536 143.6 246.586 140.55 242.786 136.55C238.986 132.45 236.236 127.35 234.536 121.25C232.836 115.15 231.986 108.05 231.986 99.95V65.3ZM345.422 120.5H355.472V65.3H345.422V39.8H399.872C406.672 39.8 412.672 40.65 417.872 42.35C423.172 43.95 427.572 46.3 431.072 49.4C434.672 52.4 437.372 56.05 439.172 60.35C440.972 64.65 441.872 69.4 441.872 74.6C441.872 80.2 441.122 85.2 439.622 89.6C438.122 93.9 435.722 97.5 432.422 100.4C429.122 103.3 424.872 105.5 419.672 107C414.572 108.5 408.422 109.25 401.222 109.25H388.922V120.5H399.872V146H345.422V120.5ZM398.672 84.2C404.972 84.2 408.122 81.35 408.122 75.65C408.122 69.95 404.972 67.1 398.672 67.1H389.072V84.2H398.672ZM449.573 120.5H459.623V65.3H449.573V39.8H534.323V67.25H494.573V77.9H529.073V105.35H494.573V118.55H537.173V146H449.573V120.5ZM546.234 112H559.634V38.4H546.234V4.4H623.434C632.501 4.4 640.434 5.53333 647.234 7.79999C654.168 9.93333 659.901 13 664.434 17C668.968 21 672.368 25.8 674.634 31.4C676.901 36.8667 678.034 42.9333 678.034 49.6C678.034 53.8667 677.634 57.6667 676.834 61C676.034 64.2 674.768 67.1333 673.034 69.8C671.434 72.3333 669.368 74.6667 666.834 76.8C664.434 78.8 661.568 80.7333 658.234 82.6C661.301 85 663.634 87.8667 665.234 91.2C666.968 94.5333 668.501 97.8 669.834 101C671.301 104.067 672.901 106.667 674.634 108.8C676.368 110.933 678.968 112 682.434 112H689.034V146H654.634C649.701 146 645.568 144.933 642.234 142.8C638.901 140.667 636.101 137.933 633.834 134.6C631.568 131.133 629.634 127.333 628.034 123.2C626.434 119.067 624.901 115.067 623.434 111.2C621.968 107.333 620.301 103.8 618.434 100.6C616.701 97.4 614.568 95 612.034 93.4H603.834V112H616.034V146H546.234V112ZM617.234 62.4C621.368 62.4 624.501 61.5333 626.634 59.8C628.768 58.0667 629.834 55.2667 629.834 51.4C629.834 44.0667 625.634 40.4 617.234 40.4H604.034V62.4H617.234ZM200.726 495H214.126V421.4H200.726V387.4H277.326V421.4H261.926V492H314.926V529H200.726V495ZM324.036 503.5H333.786L360.036 422.8H406.836L432.936 503.5H442.686V529H404.436L398.736 508.9H365.436L359.736 529H324.036V503.5ZM390.786 481.3L382.086 451.3L373.386 481.3H390.786ZM451.752 495H465.152V421.4H451.752V387.4H526.752C537.285 387.4 545.952 388.467 552.752 390.6C559.552 392.6 564.818 395.333 568.552 398.8C572.418 402.133 575.085 406 576.552 410.4C578.018 414.8 578.752 419.267 578.752 423.8C578.752 431.667 576.818 438 572.952 442.8C569.085 447.6 564.618 451.067 559.552 453.2C568.218 455.867 574.752 460.333 579.152 466.6C583.685 472.867 585.952 479.733 585.952 487.2C585.952 500.533 581.552 510.867 572.752 518.2C563.952 525.4 551.285 529 534.752 529H451.752V495ZM521.152 441.8C525.818 441.8 528.952 440.8 530.552 438.8C532.285 436.8 533.152 434.267 533.152 431.2C533.152 428.4 532.285 426.067 530.552 424.2C528.952 422.2 525.818 421.2 521.152 421.2H509.752V441.8H521.152ZM522.952 494.4C527.218 494.4 530.552 493.333 532.952 491.2C535.485 489.067 536.752 486.133 536.752 482.4C536.752 478.533 535.485 475.6 532.952 473.6C530.552 471.467 527.218 470.4 522.952 470.4H509.752V494.4H522.952Z" fill="black"/>
<path d="M114.151 289.5H96.4014V255H166.151V345.75C154.818 352.583 143.151 357.25 131.151 359.75C119.318 362.25 106.651 363.5 93.1514 363.5C77.818 363.5 64.318 361.25 52.6514 356.75C41.1514 352.25 31.4847 345.917 23.6514 337.75C15.9847 329.583 10.2347 319.833 6.40137 308.5C2.56803 297 0.651367 284.333 0.651367 270.5C0.651367 256.333 2.81803 243.583 7.15137 232.25C11.6514 220.75 18.068 211 26.4014 203C34.7347 194.833 44.9014 188.583 56.9014 184.25C68.9014 179.75 82.568 177.5 97.9014 177.5C105.568 177.5 112.735 178.083 119.401 179.25C126.068 180.417 132.151 181.833 137.651 183.5C143.151 185.167 148.068 187 152.401 189C156.735 191 160.401 192.833 163.401 194.5L144.151 237.25C138.818 233.75 133.068 230.917 126.901 228.75C120.901 226.417 113.901 225.25 105.901 225.25C99.068 225.25 93.068 226.417 87.9014 228.75C82.7347 230.917 78.4847 234.083 75.1514 238.25C71.818 242.25 69.318 247.083 67.6514 252.75C65.9847 258.25 65.1514 264.25 65.1514 270.75C65.1514 276.75 65.818 282.417 67.1514 287.75C68.4847 293.083 70.568 297.75 73.4014 301.75C76.4014 305.75 80.068 308.917 84.4014 311.25C88.7347 313.583 93.9014 314.75 99.9014 314.75C102.735 314.75 105.485 314.583 108.151 314.25C110.985 313.917 112.985 313.583 114.151 313.25V289.5ZM186.322 325H199.722V251.4H186.322V217.4H263.522C272.589 217.4 280.522 218.533 287.322 220.8C294.255 222.933 299.989 226 304.522 230C309.055 234 312.455 238.8 314.722 244.4C316.989 249.867 318.122 255.933 318.122 262.6C318.122 266.867 317.722 270.667 316.922 274C316.122 277.2 314.855 280.133 313.122 282.8C311.522 285.333 309.455 287.667 306.922 289.8C304.522 291.8 301.655 293.733 298.322 295.6C301.389 298 303.722 300.867 305.322 304.2C307.055 307.533 308.589 310.8 309.922 314C311.389 317.067 312.989 319.667 314.722 321.8C316.455 323.933 319.055 325 322.522 325H329.122V359H294.722C289.789 359 285.655 357.933 282.322 355.8C278.989 353.667 276.189 350.933 273.922 347.6C271.655 344.133 269.722 340.333 268.122 336.2C266.522 332.067 264.989 328.067 263.522 324.2C262.055 320.333 260.389 316.8 258.522 313.6C256.789 310.4 254.655 308 252.122 306.4H243.922V325H256.122V359H186.322V325ZM257.322 275.4C261.455 275.4 264.589 274.533 266.722 272.8C268.855 271.067 269.922 268.267 269.922 264.4C269.922 257.067 265.722 253.4 257.322 253.4H244.122V275.4H257.322ZM339.447 325H352.847V251.4H339.447V217.4H452.447V254H399.447V268.2H445.447V304.8H399.447V322.4H456.247V359H339.447V325ZM466.596 325H479.996V251.4H466.596V217.4H579.596V254H526.596V268.2H572.596V304.8H526.596V322.4H583.396V359H466.596V325ZM595.044 316.5H611.794V224.5H595.044V182H671.294L717.544 270.5V182H788.044V224.5H771.294V359H714.044L665.044 270.75V359H595.044V316.5Z" fill="#3BB30B"/>
</svg>
