<svg width="22" height="23" viewBox="0 0 22 23" fill="none" xmlns="http://www.w3.org/2000/svg">
<path d="M14.2663 2.96298L19.5138 8.19033L6.83111 20.8731L1.60376 15.6457L14.2663 2.96298ZM0.00581735 21.8056C-0.00714083 21.8972 0.00161994 21.9905 0.0313923 22.0781C0.0611646 22.1657 0.111114 22.245 0.177206 22.3097C0.241422 22.3765 0.320703 22.4269 0.408407 22.4567C0.496112 22.4865 0.589685 22.4949 0.681289 22.4811L5.08698 21.977L0.50486 17.3848L0.00581735 21.8056ZM21.3235 3.23519L19.2265 1.1382C19.0213 0.931989 18.7775 0.768351 18.5089 0.656691C18.2402 0.54503 17.9522 0.487549 17.6613 0.487549C17.3704 0.487549 17.0824 0.54503 16.8138 0.656691C16.5452 0.768351 16.3013 0.931989 16.0962 1.1382L15.6979 1.53643L20.9404 6.76377L21.3386 6.36555C21.5448 6.16038 21.7085 5.91649 21.8201 5.64788C21.9318 5.37928 21.9893 5.09126 21.9893 4.80037C21.9893 4.50948 21.9318 4.22146 21.8201 3.95285C21.7085 3.68425 21.5448 3.44035 21.3386 3.23519H21.3235Z" fill="#494949"/>
</svg>
