<svg width="12" height="12" viewBox="0 0 12 12" fill="none" xmlns="http://www.w3.org/2000/svg">
<path d="M7.78164 1.35024L10.6439 4.20152L3.72606 11.1194L0.874779 8.26809L7.78164 1.35024ZM0.0031731 11.628C-0.003895 11.678 0.000883601 11.7289 0.017123 11.7767C0.0333625 11.8244 0.0606076 11.8677 0.0966577 11.903C0.131684 11.9394 0.174929 11.9669 0.222768 11.9832C0.270606 11.9994 0.321647 12.004 0.371612 11.9965L2.77472 11.7215L0.275378 9.21669L0.0031731 11.628ZM11.631 1.49871L10.4872 0.354902C10.3753 0.242422 10.2423 0.153165 10.0957 0.0922593C9.94923 0.0313536 9.79212 0 9.63346 0C9.47479 0 9.31769 0.0313536 9.17118 0.0922593C9.02466 0.153165 8.89163 0.242422 8.77972 0.354902L8.56251 0.572116L11.422 3.42339L11.6393 3.20618C11.7517 3.09427 11.841 2.96124 11.9019 2.81473C11.9628 2.66822 11.9942 2.51111 11.9942 2.35245C11.9942 2.19378 11.9628 2.03668 11.9019 1.89016C11.841 1.74365 11.7517 1.61062 11.6393 1.49871H11.631Z" fill="white"/>
</svg>
