<svg width="35" height="35" viewBox="0 0 35 35" fill="none" xmlns="http://www.w3.org/2000/svg">
<circle cx="17.5" cy="17.5" r="17.5" fill="white"/>
<path d="M25.8913 10.905C25.6379 10.4286 25.2309 10.0519 24.7363 9.83609L23.5 9.29804V7.95652H28.5217C28.6486 7.95652 28.7702 7.90613 28.8599 7.81644C28.9496 7.72675 29 7.6051 29 7.47826C29 7.35142 28.9496 7.22977 28.8599 7.14008C28.7702 7.05039 28.6486 7 28.5217 7H7.47826C7.35142 7 7.22977 7.05039 7.14008 7.14008C7.05039 7.22977 7 7.35142 7 7.47826C7 7.6051 7.05039 7.72675 7.14008 7.81644C7.22977 7.90613 7.35142 7.95652 7.47826 7.95652H12.5V9.29804L11.2613 9.83609C10.7676 10.0523 10.3615 10.429 10.1087 10.905L7.0813 15.4054C7.01751 15.5005 6.9899 15.6152 7.0035 15.7289C7.01711 15.8425 7.07101 15.9475 7.15543 16.0248L10.5033 19.0713C10.5984 19.1569 10.7236 19.2012 10.8515 19.1945C10.9793 19.1878 11.0992 19.1306 11.1848 19.0354C11.2704 18.9403 11.3147 18.8151 11.308 18.6872C11.3013 18.5594 11.244 18.4395 11.1489 18.3539L8.10478 15.6087L10.917 11.4167L10.9457 11.3665C11.0958 11.0747 11.3426 10.8439 11.6439 10.7137L12.5 10.3478V10.8261C12.5 10.9529 12.5504 11.0746 12.6401 11.1643C12.7298 11.254 12.8514 11.3043 12.9783 11.3043C13.1051 11.3043 13.2268 11.254 13.3164 11.1643C13.4061 11.0746 13.4565 10.9529 13.4565 10.8261V9.92457L14.7693 9.35304C15.152 10.4746 16.4528 11.3043 18 11.3043C19.5472 11.3043 20.848 10.4746 21.2307 9.35304L22.5435 9.92457V10.8261C22.5435 10.9529 22.5939 11.0746 22.6836 11.1643C22.7732 11.254 22.8949 11.3043 23.0217 11.3043C23.1486 11.3043 23.2702 11.254 23.3599 11.1643C23.4496 11.0746 23.5 10.9529 23.5 10.8261V10.3478L24.3561 10.7209C24.6574 10.8511 24.9042 11.0818 25.0543 11.3737L25.083 11.4239L27.8952 15.6087L24.8511 18.3635C24.756 18.4491 24.6987 18.569 24.692 18.6968C24.6853 18.8246 24.7296 18.9499 24.8152 19.045C24.9008 19.1401 25.0207 19.1974 25.1486 19.2041C25.2764 19.2108 25.4016 19.1665 25.4967 19.0809L28.8446 16.0343C28.929 15.9571 28.9829 15.8521 28.9965 15.7384C29.0101 15.6248 28.9825 15.51 28.9187 15.415L25.8913 10.905ZM22.5435 8.88196L21.0609 8.2363L20.9963 8.21717H20.97H20.9461L20.8696 8.19565H20.8457C20.8234 8.19435 20.801 8.19435 20.7787 8.19565L20.7357 8.20761C20.7202 8.2113 20.705 8.21609 20.6902 8.22196C20.6759 8.22767 20.6623 8.23489 20.6496 8.24348L20.6065 8.265C20.5951 8.27245 20.5847 8.28129 20.5754 8.2913C20.5609 8.30031 20.5473 8.31072 20.5348 8.32239L20.5061 8.35587C20.5061 8.35587 20.4846 8.37978 20.475 8.39413C20.464 8.41086 20.4544 8.42846 20.4463 8.44674C20.4406 8.45498 20.4358 8.4638 20.432 8.47304V8.47304C20.432 8.49217 20.432 8.5137 20.4128 8.53522C20.3937 8.55674 20.4128 8.55435 20.4128 8.56391C20.4142 8.57022 20.4142 8.57674 20.4128 8.58304C20.4128 8.60935 20.4128 8.63565 20.4128 8.65957C20.4128 9.56587 19.3176 10.3335 18.0215 10.3335C16.7254 10.3335 15.6302 9.56587 15.6302 8.65957C15.6302 8.63565 15.6302 8.60935 15.6302 8.58304C15.6289 8.57674 15.6289 8.57022 15.6302 8.56391C15.6302 8.56391 15.6302 8.54478 15.6302 8.53522C15.6302 8.52565 15.6183 8.49217 15.6111 8.47304C15.6078 8.46428 15.6029 8.45619 15.5967 8.44913C15.5886 8.43008 15.579 8.41169 15.568 8.39413L15.5393 8.35826L15.5083 8.32239L15.4724 8.2937L15.4341 8.265L15.3696 8.25543L15.3217 8.23152L15.2859 8.21957L15.2213 8.19565C15.2038 8.19329 15.1862 8.19329 15.1687 8.19565H15.1304H15.0707H15.0348H15.0157C14.991 8.19995 14.9669 8.20718 14.9439 8.21717V8.21717L13.4565 8.88196V7.95652H22.5435V8.88196Z" fill="#7E7CE3"/>
<path d="M23.0217 15.8479C22.8949 15.8479 22.7732 15.8983 22.6836 15.988C22.5939 16.0777 22.5435 16.1993 22.5435 16.3262V26.1305H13.4565V16.3262C13.4565 16.1993 13.4061 16.0777 13.3164 15.988C13.2268 15.8983 13.1051 15.8479 12.9783 15.8479C12.8514 15.8479 12.7298 15.8983 12.6401 15.988C12.5504 16.0777 12.5 16.1993 12.5 16.3262V26.6088C12.5 26.7356 12.5504 26.8573 12.6401 26.947C12.7298 27.0366 12.8514 27.087 12.9783 27.087H23.0217C23.1486 27.087 23.2702 27.0366 23.3599 26.947C23.4496 26.8573 23.5 26.7356 23.5 26.6088V16.3262C23.5 16.1993 23.4496 16.0777 23.3599 15.988C23.2702 15.8983 23.1486 15.8479 23.0217 15.8479Z" fill="#7E7CE3"/>
</svg>
