<svg width="35" height="35" viewBox="0 0 35 35" fill="none" xmlns="http://www.w3.org/2000/svg">
<circle cx="17.5" cy="17.5" r="17.5" fill="white"/>
<path d="M17.3597 10.2137C17.3597 9.58849 18.3119 9.58849 18.3119 10.2137V13.7178C18.9499 13.7851 19.5494 13.9871 20.0784 14.2917C21.2389 12.5572 22.0276 9.9155 21.2453 7.95024C20.1906 5.3021 15.8914 5.27004 14.7693 7.87971C13.9325 9.83535 14.6442 12.429 15.7535 14.1987C16.2408 13.9454 16.7826 13.7755 17.3565 13.7178L17.3597 10.2137ZM20.9376 14.9329C21.3543 15.3368 21.6749 15.7664 21.9218 16.2922L25.2304 15.1509C25.8235 14.9457 26.1312 15.8466 25.5413 16.0485L22.2328 17.1931C22.3065 17.5105 22.345 17.8407 22.345 18.1837C22.3578 18.4338 22.3065 18.8538 22.268 19.0525C24.2237 19.5751 27.0257 19.4725 28.6415 18.0779C30.7991 16.2185 29.427 12.1437 26.5897 11.9385C24.4641 11.7846 22.2488 13.3042 20.9376 14.9329ZM21.9442 20.072C21.707 20.5946 21.3864 21.0402 20.9792 21.4442L23.1401 24.2013C23.528 24.6918 22.7778 25.2817 22.3899 24.788L20.229 22.0341C19.7065 22.3611 19.1166 22.5855 18.4818 22.6753C18.6004 24.3039 19.2031 25.955 20.12 27.1444C23.1689 31.0814 29.0711 27.0418 25.7401 22.733C24.8617 21.5949 23.4927 20.6235 21.9442 20.072ZM17.411 22.7009C16.8371 22.6496 16.2921 22.4893 15.8016 22.2393L13.9037 25.1824C13.567 25.7113 12.7623 25.1952 13.1022 24.6694L15.0001 21.7231C14.8751 21.6205 14.7532 21.5147 14.6378 21.3993C14.314 21.0723 14.0351 20.6972 13.8203 20.2836C12.3199 20.928 10.9574 22.0341 10.1366 23.2908C7.33461 27.574 13.3105 31.4885 16.1382 27.1604C16.9269 25.9582 17.3982 24.3456 17.411 22.7009ZM13.3971 19.0525C13.2913 18.5011 13.2913 17.9272 13.3939 17.3758L10.0405 16.3691C9.43773 16.1896 9.71023 15.2759 10.313 15.4554L13.6664 16.4621C13.9165 15.8626 14.2659 15.3785 14.7244 14.9296C14.4166 14.5513 14.0672 14.1955 13.6953 13.8717C12.3391 12.6951 10.1527 11.5794 8.32846 12.1212C6.22534 12.7496 5.18981 15.9844 6.60685 17.7253C7.80909 19.2 10.1975 19.527 11.9769 19.3282C12.4513 19.2737 12.929 19.184 13.3971 19.0525ZM17.831 14.6475C14.7019 14.6475 13.0669 18.4755 15.3143 20.7228C15.9587 21.3673 16.8499 21.7648 17.831 21.7648C19.7962 21.7648 21.3896 20.1746 21.3896 18.2062C21.3896 16.2409 19.7962 14.6475 17.831 14.6475ZM21.9763 12.6149C23.3485 11.573 25.0188 10.8677 26.657 10.9863C30.3343 11.2524 32.0591 16.3852 29.2635 18.7993C28.0228 19.8733 26.2306 20.3093 24.4802 20.2932C25.272 20.8286 25.9613 21.4634 26.4935 22.1495C30.61 27.4746 23.1465 32.6138 19.3666 27.7247C18.8056 27.0002 18.3503 26.1217 18.0297 25.1824C17.7861 26.1025 17.411 26.9585 16.9365 27.683C13.4163 33.0594 5.84703 28.0966 9.33834 22.7683C9.94748 21.8385 10.8163 20.9825 11.8198 20.2997C9.74229 20.4728 7.23522 20.0015 5.86948 18.328C4.01963 16.0614 5.29561 12.0282 8.05595 11.2075C10.111 10.5952 12.4578 11.6371 14.0736 12.9484C13.4035 11.1947 13.1759 9.17172 13.8908 7.50781C15.3463 4.11589 20.7709 4.18322 22.1302 7.59758C22.7361 9.12363 22.5598 10.9639 21.9763 12.6149Z" fill="#E334D2"/>
</svg>
