<svg width="35" height="35" viewBox="0 0 35 35" fill="none" xmlns="http://www.w3.org/2000/svg">
<circle cx="17.5" cy="17.5" r="17.5" fill="white"/>
<path d="M10.7188 12.8281H8.66406L8.27344 14H7.02734L9.14453 8.3125H10.2305L12.3594 14H11.1133L10.7188 12.8281ZM8.98047 11.8789H10.4023L9.6875 9.75L8.98047 11.8789ZM17.125 8.3125V12.0586C17.125 12.681 16.9297 13.1732 16.5391 13.5352C16.151 13.8971 15.6198 14.0781 14.9453 14.0781C14.2812 14.0781 13.7539 13.9023 13.3633 13.5508C12.9727 13.1992 12.7734 12.7161 12.7656 12.1016V8.3125H13.9375V12.0664C13.9375 12.4388 14.026 12.7109 14.2031 12.8828C14.3828 13.0521 14.6302 13.1367 14.9453 13.1367C15.6042 13.1367 15.9388 12.7904 15.9492 12.0977V8.3125H17.125ZM22.3672 9.26172H20.625V14H19.4531V9.26172H17.7344V8.3125H22.3672V9.26172ZM27.6016 11.2852C27.6016 11.8451 27.5026 12.3359 27.3047 12.7578C27.1068 13.1797 26.8229 13.5052 26.4531 13.7344C26.0859 13.9635 25.6641 14.0781 25.1875 14.0781C24.7161 14.0781 24.2956 13.9648 23.9258 13.7383C23.556 13.5117 23.2695 13.1888 23.0664 12.7695C22.8633 12.3477 22.7604 11.8633 22.7578 11.3164V11.0352C22.7578 10.4753 22.8581 9.98307 23.0586 9.55859C23.2617 9.13151 23.5469 8.80469 23.9141 8.57812C24.2839 8.34896 24.7057 8.23438 25.1797 8.23438C25.6536 8.23438 26.0742 8.34896 26.4414 8.57812C26.8112 8.80469 27.0964 9.13151 27.2969 9.55859C27.5 9.98307 27.6016 10.474 27.6016 11.0312V11.2852ZM26.4141 11.0273C26.4141 10.431 26.3073 9.97786 26.0938 9.66797C25.8802 9.35807 25.5755 9.20312 25.1797 9.20312C24.7865 9.20312 24.4831 9.35677 24.2695 9.66406C24.056 9.96875 23.9479 10.4167 23.9453 11.0078V11.2852C23.9453 11.8659 24.0521 12.3164 24.2656 12.6367C24.4792 12.957 24.7865 13.1172 25.1875 13.1172C25.5807 13.1172 25.8828 12.9635 26.0938 12.6562C26.3047 12.3464 26.4115 11.8958 26.4141 11.3047V11.0273Z" fill="#3BB30B"/>
<line x1="11" y1="17.5" x2="24" y2="17.5" stroke="black"/>
<path d="M5.67969 24.9961V27H4.50781V21.3125H6.72656C7.15365 21.3125 7.52865 21.3906 7.85156 21.5469C8.17708 21.7031 8.42708 21.9258 8.60156 22.2148C8.77604 22.5013 8.86328 22.8281 8.86328 23.1953C8.86328 23.7526 8.67188 24.1927 8.28906 24.5156C7.90885 24.8359 7.38151 24.9961 6.70703 24.9961H5.67969ZM5.67969 24.0469H6.72656C7.03646 24.0469 7.27214 23.974 7.43359 23.8281C7.59766 23.6823 7.67969 23.474 7.67969 23.2031C7.67969 22.9245 7.59766 22.6992 7.43359 22.5273C7.26953 22.3555 7.04297 22.2669 6.75391 22.2617H5.67969V24.0469ZM14.3008 27H13.1289V24.5625H10.8438V27H9.67188V21.3125H10.8438V23.6172H13.1289V21.3125H14.3008V27ZM20 24.2852C20 24.8451 19.901 25.3359 19.7031 25.7578C19.5052 26.1797 19.2214 26.5052 18.8516 26.7344C18.4844 26.9635 18.0625 27.0781 17.5859 27.0781C17.1146 27.0781 16.694 26.9648 16.3242 26.7383C15.9544 26.5117 15.668 26.1888 15.4648 25.7695C15.2617 25.3477 15.1589 24.8633 15.1562 24.3164V24.0352C15.1562 23.4753 15.2565 22.9831 15.457 22.5586C15.6602 22.1315 15.9453 21.8047 16.3125 21.5781C16.6823 21.349 17.1042 21.2344 17.5781 21.2344C18.0521 21.2344 18.4727 21.349 18.8398 21.5781C19.2096 21.8047 19.4948 22.1315 19.6953 22.5586C19.8984 22.9831 20 23.474 20 24.0312V24.2852ZM18.8125 24.0273C18.8125 23.431 18.7057 22.9779 18.4922 22.668C18.2786 22.3581 17.974 22.2031 17.5781 22.2031C17.1849 22.2031 16.8815 22.3568 16.668 22.6641C16.4544 22.9688 16.3464 23.4167 16.3438 24.0078V24.2852C16.3438 24.8659 16.4505 25.3164 16.6641 25.6367C16.8776 25.957 17.1849 26.1172 17.5859 26.1172C17.9792 26.1172 18.2812 25.9635 18.4922 25.6562C18.7031 25.3464 18.8099 24.8958 18.8125 24.3047V24.0273ZM24.7969 22.2617H23.0547V27H21.8828V22.2617H20.1641V21.3125H24.7969V22.2617ZM30.0312 24.2852C30.0312 24.8451 29.9323 25.3359 29.7344 25.7578C29.5365 26.1797 29.2526 26.5052 28.8828 26.7344C28.5156 26.9635 28.0938 27.0781 27.6172 27.0781C27.1458 27.0781 26.7253 26.9648 26.3555 26.7383C25.9857 26.5117 25.6992 26.1888 25.4961 25.7695C25.293 25.3477 25.1901 24.8633 25.1875 24.3164V24.0352C25.1875 23.4753 25.2878 22.9831 25.4883 22.5586C25.6914 22.1315 25.9766 21.8047 26.3438 21.5781C26.7135 21.349 27.1354 21.2344 27.6094 21.2344C28.0833 21.2344 28.5039 21.349 28.8711 21.5781C29.2409 21.8047 29.526 22.1315 29.7266 22.5586C29.9297 22.9831 30.0312 23.474 30.0312 24.0312V24.2852ZM28.8438 24.0273C28.8438 23.431 28.737 22.9779 28.5234 22.668C28.3099 22.3581 28.0052 22.2031 27.6094 22.2031C27.2161 22.2031 26.9128 22.3568 26.6992 22.6641C26.4857 22.9688 26.3776 23.4167 26.375 24.0078V24.2852C26.375 24.8659 26.4818 25.3164 26.6953 25.6367C26.9089 25.957 27.2161 26.1172 27.6172 26.1172C28.0104 26.1172 28.3125 25.9635 28.5234 25.6562C28.7344 25.3464 28.8411 24.8958 28.8438 24.3047V24.0273Z" fill="#244DDE"/>
</svg>
