<svg width="35" height="35" viewBox="0 0 35 35" fill="none" xmlns="http://www.w3.org/2000/svg">
<circle cx="17.5" cy="17.5" r="17.5" fill="white"/>
<path d="M17.8049 22.8401V18.541C19.6321 18.3868 21.335 17.5527 22.577 16.2036C23.8189 14.8545 24.5095 13.0885 24.5122 11.2548V10.645H23.9024C22.4157 10.6475 20.9649 11.1026 19.743 11.9496C18.5211 12.7967 17.586 13.9956 17.0621 15.387C16.6252 14.6835 16.0163 14.1029 15.2928 13.6999C14.5692 13.297 13.755 13.085 12.9268 13.084H12.3171V13.6938C12.319 14.881 12.7534 16.0268 13.539 16.9168C14.3246 17.8069 15.4076 18.3802 16.5854 18.5295V22.8401H5V24.0597H16.3327L12.8006 27.592L13.6628 28.4542L16.5854 25.5314V28.6852L15.2396 30.031L16.1018 30.8932L17.1951 29.7999L18.2884 30.8932L19.1506 30.031L17.8049 28.6852V25.3098L20.9495 28.4542L21.8118 27.592L18.2793 24.0597H30V22.8401H17.8049ZM23.2587 11.8982C23.1096 13.2846 22.4907 14.5782 21.5047 15.5643C20.5188 16.5503 19.2252 17.1694 17.8388 17.3187C17.988 15.9323 18.6069 14.6386 19.5928 13.6526C20.5788 12.6666 21.8724 12.0475 23.2587 11.8982ZM13.5985 14.3652C14.3237 14.502 14.9908 14.8545 15.5127 15.3764C16.0345 15.8983 16.3867 16.5655 16.5234 17.2907C15.7982 17.1539 15.1311 16.8014 14.6093 16.2795C14.0875 15.7576 13.7352 15.0904 13.5985 14.3652Z" fill="#3BB30B"/>
<path d="M17.4901 14.8348V11.3677C18.9637 11.2434 20.337 10.5707 21.3386 9.48273C22.3401 8.39472 22.897 6.97055 22.8992 5.49174V5H22.4075C21.2085 5.00203 20.0385 5.369 19.0531 6.05211C18.0677 6.73523 17.3136 7.70212 16.8911 8.82421C16.5388 8.25684 16.0477 7.78858 15.4642 7.46363C14.8807 7.13868 14.2241 6.96774 13.5562 6.96696H13.0645V7.45869C13.066 8.41609 13.4163 9.34013 14.0499 10.0579C14.6834 10.7757 15.5568 11.238 16.5066 11.3584V14.8348L16.5066 15.8183L16.5066 17.0052V19.5486H17.4901V16.8264V15.8183V14.8348ZM21.8884 6.01061C21.7681 7.12867 21.269 8.17195 20.4738 8.96714C19.6787 9.76234 18.6355 10.2616 17.5175 10.382C17.6378 9.26394 18.1369 8.22066 18.932 7.42547C19.7271 6.63027 20.7703 6.13101 21.8884 6.01061ZM14.0979 8.00014C14.6827 8.11051 15.2207 8.39471 15.6415 8.81561C16.0623 9.23651 16.3464 9.77454 16.4567 10.3594C15.8718 10.2491 15.3338 9.96486 14.913 9.54396C14.4922 9.12305 14.2081 8.58502 14.0979 8.00014Z" fill="#3BB30B"/>
<path d="M26.1055 24.8662H22.1716V25.8497H26.1055V24.8662Z" fill="#956F0E"/>
<path d="M27.0891 26.8335H24.6304V27.817H27.0891V26.8335Z" fill="#956F0E"/>
<path d="M12.3366 24.8662H10.3696V25.8497H12.3366V24.8662Z" fill="#956F0E"/>
<path d="M12.8284 26.8335H9.38623V27.817H12.8284V26.8335Z" fill="#956F0E"/>
</svg>
