<svg width="35" height="35" viewBox="0 0 35 35" fill="none" xmlns="http://www.w3.org/2000/svg">
<circle cx="17.5" cy="17.5" r="17.5" fill="white"/>
<path d="M17.1859 9.4035C21.2905 9.4035 24.6179 8.6416 24.6179 7.70175C24.6179 6.7619 21.2905 6 17.1859 6C13.0813 6 9.75391 6.7619 9.75391 7.70175C9.75391 8.6416 13.0813 9.4035 17.1859 9.4035Z" stroke="#D93483" stroke-miterlimit="10"/>
<path d="M24.6174 9.43359C24.6174 10.3732 21.2899 11.1351 17.1857 11.1351C13.0806 11.1351 9.75342 10.3732 9.75342 9.43359" stroke="#D93483" stroke-miterlimit="10"/>
<path d="M25.332 26.1299C25.332 27.163 21.6761 28 17.166 28C12.6562 28 9 27.163 9 26.1299" stroke="#D93483" stroke-miterlimit="10"/>
<path d="M9.75391 7.70166V9.43353" stroke="#D93483" stroke-miterlimit="10"/>
<path d="M24.6177 7.70166V9.43353" stroke="#D93483" stroke-miterlimit="10"/>
<path d="M10.1348 9.97192C10.1348 9.97192 11.0667 10.9494 9.75327 11.4419C9.04968 11.7061 9.00293 12.2399 9.00293 12.2399V26.2116" stroke="#D93483" stroke-miterlimit="10"/>
<path d="M24.2 9.97192C24.2 9.97192 23.2684 10.9494 24.5812 11.4419C25.2851 11.7061 25.3316 12.2399 25.3316 12.2399V26.2116" stroke="#D93483" stroke-miterlimit="10"/>
</svg>
