<svg width="35" height="35" viewBox="0 0 35 35" fill="none" xmlns="http://www.w3.org/2000/svg">
<circle cx="17.5" cy="17.5" r="17.5" fill="white"/>
<path d="M17.8049 19.1951V14.8959C19.6321 14.7418 21.335 13.9077 22.577 12.5586C23.8189 11.2095 24.5095 9.44348 24.5122 7.60976V7H23.9024C22.4157 7.00251 20.9649 7.45756 19.743 8.30462C18.5211 9.15168 17.586 10.3506 17.0621 11.742C16.6252 11.0385 16.0163 10.4578 15.2928 10.0549C14.5692 9.65196 13.755 9.44 12.9268 9.43902H12.3171V10.0488C12.319 11.236 12.7534 12.3818 13.539 13.2718C14.3246 14.1619 15.4076 14.7352 16.5854 14.8845V19.1951H5V20.4146H16.3327L12.8006 23.947L13.6628 24.8091L16.5854 21.8864V25.0402L15.2396 26.3859L16.1018 27.2482L17.1951 26.1549L18.2884 27.2482L19.1506 26.386L17.8049 25.0402V21.6648L20.9495 24.8092L21.8118 23.947L18.2793 20.4146H30V19.1951H17.8049ZM23.2587 8.25316C23.1096 9.63956 22.4907 10.9332 21.5047 11.9193C20.5188 12.9053 19.2252 13.5244 17.8388 13.6737C17.988 12.2873 18.6069 10.9936 19.5928 10.0076C20.5788 9.02154 21.8724 8.40246 23.2587 8.25316V8.25316ZM13.5985 10.7202C14.3237 10.857 14.9908 11.2094 15.5127 11.7314C16.0345 12.2533 16.3867 12.9204 16.5234 13.6457C15.7982 13.5088 15.1311 13.1564 14.6093 12.6345C14.0875 12.1126 13.7352 11.4454 13.5985 10.7202L13.5985 10.7202Z" fill="#3BB30B"/>
<path d="M28.1708 21.6343H23.2927V22.8538H28.1708V21.6343Z" fill="#A6874C"/>
<path d="M29.3903 24.0732H26.3416V25.2928H29.3903V24.0732Z" fill="#A6874C"/>
<path d="M11.0975 21.6343H8.65845V22.8538H11.0975V21.6343Z" fill="#A6874C"/>
<path d="M11.7073 24.0732H7.43896V25.2928H11.7073V24.0732Z" fill="#A6874C"/>
</svg>
