<svg width="35" height="35" viewBox="0 0 35 35" fill="none" xmlns="http://www.w3.org/2000/svg">
<circle cx="17.5" cy="17.5" r="17.5" fill="white"/>
<path d="M6.68192 28.941C6.49232 28.941 6.32981 28.8598 6.19439 28.7514C6.03188 28.5889 5.95062 28.3452 6.03188 28.1014L6.84443 25.095C6.8986 24.8512 7.08819 24.6887 7.33196 24.6074C7.57572 24.5533 7.81949 24.6074 7.982 24.7699L8.30702 25.095L13.4261 19.9759V10.0357H12.9656C12.7219 10.0357 12.5052 9.90025 12.3698 9.71065C12.2344 9.49397 12.2344 9.25021 12.3698 9.03353L13.9136 6.32502C14.0491 6.10834 14.2657 6 14.5095 6C14.7533 6 14.9699 6.13543 15.1054 6.35211L16.6492 9.06061C16.7846 9.27729 16.7846 9.52106 16.6492 9.73774C16.5138 9.95442 16.2971 10.0628 16.0533 10.0628H15.5929V19.3529H24.9643V18.8925C24.9643 18.6487 25.0998 18.432 25.2893 18.2966C25.506 18.1612 25.7498 18.1612 25.9665 18.2966L28.675 19.8405C28.8917 19.9759 29 20.1926 29 20.4363C29 20.6801 28.8646 20.8968 28.675 21.0322L25.9665 22.5761C25.7498 22.7115 25.506 22.7115 25.2893 22.5761C25.0727 22.4406 24.9643 22.2239 24.9643 21.9802V21.5197H14.9699L9.85087 26.6388L10.1759 26.9638C10.3384 27.1263 10.4197 27.3701 10.3384 27.6139C10.2842 27.8576 10.0946 28.0201 9.85087 28.1014L6.84443 28.914C6.81734 28.914 6.73609 28.941 6.68192 28.941ZM7.57572 25.5012L6.8986 28.0472L9.44459 27.3701L9.17374 27.0993C8.90289 26.8284 8.90289 26.395 9.17374 26.1513L14.4282 20.8968C14.5637 20.7614 14.7262 20.7072 14.9158 20.7072H25.0998C25.4789 20.7072 25.7769 21.0051 25.7769 21.3843V21.7635L28.0791 20.4363L25.7769 19.0821V19.4613C25.7769 19.8405 25.4789 20.1384 25.0998 20.1384H15.4575C15.0783 20.1384 14.7803 19.8405 14.7803 19.4613V9.90025C14.7803 9.52106 15.0783 9.22312 15.4575 9.22312H15.8367L14.5095 6.92089L13.1823 9.22312H13.5615C13.9407 9.22312 14.2386 9.52106 14.2386 9.90025V20.0301C14.2386 20.2197 14.1574 20.3822 14.0491 20.5176L8.79455 25.7721C8.5237 26.0429 8.09034 26.0429 7.84658 25.7721L7.57572 25.5012Z" fill="#063047"/>
</svg>
