<svg width="106" height="88" viewBox="0 0 106 88" fill="none" xmlns="http://www.w3.org/2000/svg">
<path d="M67.5373 36.027C67.6512 36.0705 67.7724 36.0968 67.8895 36.1087C68.5259 36.173 69.1485 35.8033 69.3792 35.1782L73.4392 24.1165C73.7107 23.371 73.3266 22.548 72.5844 22.2767C71.8453 22.003 71.0193 22.3835 70.7486 23.1262L70.2992 24.3493L52.5096 25.1213L54.516 21.7605C55.3979 20.2843 55.6448 18.5532 55.2225 16.8873C54.7997 15.2212 53.7536 13.8207 52.2717 12.9387L36.7123 3.8018C33.6642 1.98563 29.7049 2.98639 27.8943 6.03518L26.6263 8.16461L23.1371 6.08793C20.7355 4.66287 17.4641 5.2198 15.6863 7.37277L3.75695 21.7523C2.86074 22.832 2.47985 24.2036 2.70755 25.5153C2.92968 26.8265 3.75238 27.9853 4.95993 28.7042L11.9187 32.848L10.6507 34.9775C9.77485 36.4543 9.5219 38.1848 9.94419 39.8507C10.3669 41.5168 11.413 42.9173 12.8947 43.8021L28.4538 52.9418C29.2886 53.4387 30.1828 53.7193 31.0905 53.8111C33.4996 54.0548 35.9549 52.9221 37.2723 50.7029L44.319 38.8737L66.6774 34.2418C66.4452 34.9734 66.8154 35.7631 67.5381 36.0267L67.5373 36.027ZM6.42596 26.2408C5.93644 25.9492 5.61982 25.5164 5.53351 25.029C5.44775 24.536 5.6005 24.0235 5.96769 23.5853L17.8976 9.1998C18.7707 8.14919 20.4964 7.8512 21.6681 8.55211L25.1513 10.6286L13.3867 30.3877L6.42596 26.2408ZM43.1135 36.1973C42.7221 36.276 42.377 36.5236 42.1718 36.8689L34.8052 49.24C33.8009 50.9286 31.6057 51.4851 29.9115 50.4746L14.3521 41.3377C13.5339 40.8486 12.9547 40.0748 12.7191 39.1514C12.484 38.228 12.6265 37.2738 13.1102 36.4546L30.3541 7.50457C31.3584 5.81591 33.5531 5.26498 35.2478 6.26992L50.8072 15.4068C51.6254 15.896 52.204 16.6753 52.4402 17.5932C52.6722 18.519 52.5321 19.4768 52.0488 20.2928L48.6839 25.9352C48.4132 26.3893 48.4165 26.9546 48.6881 27.4058C48.9566 27.8596 49.4596 28.1296 49.9812 28.1045L69.2249 27.2689L67.8243 31.0799L43.1135 36.1973Z" fill="#7E8183"/>
<path d="M100.418 83.8838H88.9821C93.3046 81.9269 96.8423 79.2338 99.5317 75.7815C107.489 65.5327 105.034 52.6462 104.922 52.1083C104.733 51.1819 103.862 50.542 102.939 50.6243C82.4947 52.365 74.8207 66.1522 71.9439 75.9172C69.206 68.172 62.7033 58.4518 47.2911 57.1343C46.3611 57.0562 45.4984 57.6926 45.3082 58.6226C45.2229 59.0652 43.2103 69.5852 49.7124 77.9557C51.6093 80.3957 54.0499 82.3599 56.9478 83.8857H49.8874C48.8641 83.8857 48.0274 84.7224 48.0274 85.7457C48.0274 86.7689 48.8641 87.6057 49.8874 87.6057L100.417 87.6051C101.448 87.6051 102.277 86.7683 102.277 85.7451C102.277 84.7224 101.452 83.8851 100.417 83.8851L100.418 83.8838ZM101.496 54.5144C101.839 58.0631 101.961 66.5935 96.5934 73.5019C92.7432 78.4644 86.754 81.66 78.8009 83.0919C90.1988 73.9033 93.9188 65.7195 94.0938 65.3289C94.5068 64.388 94.0787 63.2866 93.1414 62.8737C92.1963 62.4644 91.0992 62.8888 90.6862 63.8261C90.6493 63.9193 86.7131 72.5533 74.3182 81.8603C75.5056 74.0564 80.5049 57.1797 101.497 54.5152L101.496 54.5144ZM52.6746 75.7044C48.6125 70.4961 48.5265 64.0425 48.75 61.0436C64.2546 63.2015 68.5559 75.3061 69.7494 81.75C60.5427 74.6115 57.4996 68.0755 57.4475 67.9671C57.0346 67.0299 55.9375 66.6091 54.9996 67.022C54.0544 67.4349 53.6343 68.532 54.0472 69.4699C54.1846 69.7787 56.9826 75.9055 65.3374 82.9701C59.7465 81.7277 55.487 79.3095 52.6747 75.7051L52.6746 75.7044Z" fill="#3BB30B"/>
<path d="M73.0785 31.8396C72.6916 32.7768 73.153 33.8594 74.083 34.2579C74.0981 34.2651 75.0984 34.7005 76.3784 36.0506C76.7501 36.4375 77.2339 36.6307 77.7286 36.6307C78.1863 36.6307 78.6513 36.4635 79.0085 36.1208C79.7563 35.4179 79.786 34.2384 79.083 33.4906C77.2157 31.5229 75.6457 30.8677 75.4707 30.8011C74.5183 30.4372 73.4654 30.8987 73.0785 31.8396Z" fill="#0B4EB3"/>
<path d="M71.6363 37.7992C70.6912 38.2012 70.2486 39.2947 70.6543 40.2392C71.4317 42.0471 72.0493 44.119 72.4991 46.3884C72.6741 47.2699 73.4515 47.8875 74.3222 47.8875C74.4451 47.8875 74.5602 47.8724 74.6867 47.8506C75.6948 47.6459 76.3494 46.6748 76.1562 45.6631C75.6542 43.1335 74.9585 40.8158 74.077 38.7662C73.6671 37.8259 72.5736 37.3905 71.6363 37.7992Z" fill="#0B4EB3"/>
<path d="M75.0525 50.9617C74.0293 51.0174 73.2446 51.8953 73.3003 52.9186C73.3675 54.0678 73.4008 55.2661 73.4008 56.5382C73.4008 57.5614 74.2303 58.3982 75.2608 58.3982C76.284 58.3982 77.1208 57.5614 77.1208 56.5382C77.1208 55.1952 77.076 53.9231 77.013 52.7177C76.9537 51.6908 76.0606 50.9132 75.0525 50.9617Z" fill="#0B4EB3"/>
<path d="M77.6373 26.4009C77.6446 26.4009 78.8016 26.6613 80.3904 27.673C80.6956 27.8704 81.0449 27.963 81.3876 27.963C82.0052 27.963 82.6004 27.6579 82.9576 27.1002C83.508 26.2374 83.2555 25.0877 82.3848 24.5373C80.2052 23.1496 78.5644 22.7923 78.3894 22.7554C77.3813 22.5581 76.4217 23.198 76.2098 24.2025C75.9967 25.1955 76.6445 26.1775 77.6375 26.401L77.6373 26.4009Z" fill="#0B4EB3"/>
<path d="M88.1882 38.4754C88.4558 39.2383 89.1775 39.7179 89.9404 39.7179C90.1451 39.7179 90.3534 39.6809 90.558 39.6101C91.5328 39.268 92.0311 38.2042 91.6927 37.233C90.7554 34.5884 89.565 32.2257 88.155 30.1987C87.567 29.354 86.41 29.1457 85.5696 29.7337C84.7286 30.3216 84.5166 31.4786 85.1046 32.3191C86.3209 34.0786 87.3622 36.1504 88.1882 38.4754Z" fill="#0B4EB3"/>
<path d="M89.9024 45.3496C90.0847 46.477 90.2373 47.6594 90.3523 48.9171C90.4377 49.884 91.2526 50.6021 92.1971 50.6021C92.2564 50.6021 92.3121 50.6021 92.3793 50.5948C93.3947 50.5016 94.1539 49.5904 94.0571 48.5678C93.9342 47.2733 93.767 45.9934 93.5697 44.7588C93.4098 43.7471 92.4423 43.055 91.442 43.2148C90.4266 43.3783 89.7345 44.3307 89.9023 45.3497L89.9024 45.3496Z" fill="#0B4EB3"/>
<path d="M80.0252 42.1577C80.2075 43.2851 80.3601 44.4675 80.4751 45.7252C80.5605 46.6922 81.3754 47.4102 82.3199 47.4102C82.3792 47.4102 82.4349 47.4102 82.5021 47.4029C83.5175 47.3097 84.2767 46.3985 84.1799 45.3759C84.057 44.0814 83.8898 42.8015 83.6925 41.5669C83.5326 40.5552 82.5651 39.8631 81.5648 40.0229C80.5494 40.1864 79.8573 41.1388 80.0251 42.1578L80.0252 42.1577Z" fill="#0B4EB3"/>
</svg>
