<svg width="100" height="94" viewBox="0 0 100 94" fill="none" xmlns="http://www.w3.org/2000/svg">
<path d="M19.0218 41.3043V79.3478H98.3696V41.3043H78.2609V1.08691H38.587V41.3043H19.0218Z" fill="#CBB28C"/>
<path d="M82.0014 77.9917H96.6198V42.3705H85.9796V56.3632C85.9796 57.6884 84.453 58.6159 83.2066 57.6618L78.4818 54.3081L73.6484 57.7366C72.5252 58.5365 70.984 57.6884 70.984 56.3633V42.3706H60.3438V77.9949H82.0014V77.9917ZM88.417 81.3575C91.922 86.4653 88.26 93.4783 82.0014 93.4783C75.7428 93.4783 72.0856 86.4647 75.593 81.3575H42.0534C45.5655 86.4653 41.8963 93.4783 35.6449 93.4783C29.3935 93.4783 25.7244 86.4647 29.2365 81.3575H18.8695C17.9371 81.3575 17.1786 80.6058 17.1786 79.671V40.6832C17.1786 39.7483 17.9395 38.9967 18.8695 38.9967H37.0074V1.68649C37.0074 0.751673 37.7683 0 38.6983 0H78.3639C79.2963 0 80.0547 0.751704 80.0547 1.68649V38.9967H98.3092C99.2464 38.9967 100 39.7484 100 40.6832V79.6731C100 80.6079 99.2464 81.3595 98.3092 81.3595H88.4152L88.417 81.3575ZM85.1029 82.6416C82.3565 79.895 77.6197 81.8417 77.6197 85.7352C77.6197 89.6287 82.3517 91.5753 85.1029 88.8288C86.8155 87.1206 86.8155 84.3474 85.1029 82.6416ZM35.6453 77.9917H56.8443V42.3705H46.2041V56.3632C46.2041 57.6884 44.6702 58.6159 43.4311 57.6618L38.6991 54.3081L33.8729 57.7366C32.7424 58.5365 31.2085 57.6884 31.2085 56.3633H31.2013V42.3706H20.5611V77.9949H35.6463L35.6453 77.9917ZM38.7469 82.6416C35.9932 79.895 31.2636 81.8417 31.2636 85.7352C31.2636 89.6287 35.9957 91.5753 38.7469 88.8288C40.4595 87.1206 40.4595 84.3474 38.7469 82.6416ZM66.0327 3.37277V17.3655C66.0327 18.6907 64.5061 19.6182 63.2597 18.6641L58.5349 15.3104L53.7015 18.7389C52.5783 19.5388 51.0371 18.6979 51.0371 17.3656V3.37287H40.3897V38.9972H76.6729V3.37287L66.0327 3.37277ZM62.651 3.37277H54.414V14.1089L57.53 11.9019C58.0977 11.4779 58.8996 11.4442 59.5083 11.8803L62.6509 14.1064V3.37031L62.651 3.37277ZM74.3661 42.3699V53.0988L77.4749 50.8918C78.0498 50.475 78.8445 50.4413 79.4605 50.8774L82.5959 53.0964V42.3674H74.3661V42.3699ZM34.585 42.3699V53.0988L37.701 50.8918C38.2687 50.475 39.0706 50.4413 39.6793 50.8774L42.8219 53.0964V42.3674H34.5849L34.585 42.3699Z" fill="#2D3E96"/>
<path d="M0 18.6313C0 19.5589 0.758447 20.3178 1.69084 20.3178L1.69122 20.3155H17.4474L17.3798 35.0751C17.3798 36.0027 18.1238 36.7544 19.0562 36.7616C19.9861 36.7616 20.747 36.0195 20.747 35.0895L20.8219 18.788C20.8702 17.723 20.1117 16.9448 19.1383 16.9448H1.69084C0.760889 16.9448 0 17.7037 0 18.6313Z" fill="#358715"/>
</svg>
