<svg width="35" height="35" viewBox="0 0 35 35" fill="none" xmlns="http://www.w3.org/2000/svg">
<path d="M17.0413 4.35015C18.2405 4.35015 19.2162 3.37409 19.2162 2.17487C19.2162 0.975513 18.2405 0 17.0413 0C15.8421 0 14.8665 0.975513 14.8665 2.17487C14.8665 3.37409 15.8421 4.35015 17.0413 4.35015Z" fill="#4970AA"/>
<path d="M22.9937 4.35015C24.1929 4.35015 25.1687 3.37409 25.1687 2.17487C25.1687 0.97565 24.1929 0 22.9937 0C21.7945 0 20.8188 0.975513 20.8188 2.17487C20.819 3.37409 21.7945 4.35015 22.9937 4.35015Z" fill="#4970AA"/>
<path d="M11.0891 4.35015C12.2883 4.35015 13.2639 3.37409 13.2639 2.17487C13.2639 0.97565 12.2884 0 11.0891 0C9.88985 0 8.91406 0.975513 8.91406 2.17487C8.91393 3.37409 9.88971 4.35015 11.0891 4.35015Z" fill="#4970AA"/>
<path d="M11.8904 6.57459C11.8904 7.77381 12.8659 8.74946 14.0653 8.74946C15.2645 8.74946 16.2403 7.77395 16.2403 6.57459C16.2403 5.37537 15.2645 4.39972 14.0653 4.39972C12.866 4.39985 11.8904 5.37537 11.8904 6.57459Z" fill="#4970AA"/>
<path d="M22.1924 6.57457C22.1924 7.77578 21.2186 8.74944 20.0175 8.74944C18.8164 8.74944 17.8427 7.77578 17.8427 6.57457C17.8427 5.3735 18.8164 4.39984 20.0175 4.39984C21.2186 4.39984 22.1924 5.3735 22.1924 6.57457Z" fill="#4970AA"/>
<path d="M19.2163 10.9156C19.2163 12.1168 18.2426 13.0905 17.0414 13.0905C15.8403 13.0905 14.8666 12.1168 14.8666 10.9156C14.8666 9.71457 15.8403 8.74091 17.0414 8.74091C18.2426 8.74091 19.2163 9.71457 19.2163 10.9156Z" fill="#4970AA"/>
<path d="M24.2542 5.35034H25.1686V7.73819H24.2542V5.35034Z" fill="#7B7777"/>
<path d="M24.2542 9.23572H25.1686V10.4881H24.2542V9.23572Z" fill="#7B7777"/>
<path d="M8.91406 5.35034H9.82851V7.73819H8.91406V5.35034Z" fill="#7B7777"/>
<path d="M8.91406 9.23572H9.82851V10.4881H8.91406V9.23572Z" fill="#7B7777"/>
<path d="M11.8904 9.23572H12.8048V11.7887H11.8904V9.23572Z" fill="#7B7777"/>
<path d="M21.2778 9.23572H22.1923V11.7887H21.2778V9.23572Z" fill="#7B7777"/>
<path d="M22.0137 25.89V28.5452C22.0137 31.1328 20.0265 33.2628 17.4984 33.4946V22.6336C17.9429 22.694 18.622 22.7625 19.4443 22.7625C21.2052 22.7625 23.5913 22.4477 25.5664 21.0618C29.1113 18.5753 29.8639 13.672 29.8944 13.4645L29.9567 13.0372L29.5339 12.9506C29.328 12.9081 24.4617 11.9464 20.9168 14.4337C18.707 15.9839 17.5824 18.4727 17.0414 20.178C16.5002 18.4726 15.3756 15.9836 13.1659 14.4337C9.62104 11.9468 4.75394 12.9077 4.54888 12.9506L4.12602 13.0372L4.1883 13.4645C4.21871 13.6721 4.97149 18.5754 8.51637 21.0618C10.4918 22.4477 12.8774 22.7625 14.6385 22.7625C15.4607 22.7625 16.1399 22.694 16.5843 22.6336V33.4946C14.0562 33.2628 12.069 31.1328 12.069 28.5452V25.89L0 25.8899V26.8043H11.1545V28.5452C11.1545 31.7911 13.7955 34.4321 17.0414 34.4321C20.2873 34.4321 22.9283 31.7911 22.9283 28.5452V26.8043H34.0828V25.8899L22.0137 25.89ZM21.4418 15.182C23.2013 13.9479 25.3841 13.6624 27.0118 13.6575C24.8563 14.299 21.2151 15.9207 18.1064 19.9175C18.6636 18.3864 19.676 16.4206 21.4419 15.1817L21.4418 15.182Z" fill="#3BB30B"/>
</svg>
