<svg width="119" height="98" viewBox="0 0 119 98" fill="none" xmlns="http://www.w3.org/2000/svg">
<path d="M2.48792 29.8889H16.9879V81.8889L59.4879 94.8889L101.488 81.8889V29.8889H115.488L116.488 94.8889H59.4879H2.48792V29.8889Z" fill="#D9D9D9"/>
<path d="M59.4879 94.8889H2.48792V29.8889H16.9879V81.8889L59.4879 94.8889ZM59.4879 94.8889H116.488L115.488 29.8889H101.488V81.8889L59.4879 94.8889Z" stroke="black"/>
<path d="M116.688 97.7711H59.4879C58.6705 97.7711 57.915 97.3354 57.5062 96.6274C57.0975 95.9194 57.0975 95.047 57.5062 94.3395C57.9149 93.6315 58.6704 93.1953 59.4879 93.1953H114.4V32.0116H101.864C101.046 32.0116 100.291 31.5759 99.8819 30.8679C99.4732 30.1598 99.4732 29.2875 99.8819 28.58C100.291 27.872 101.046 27.4358 101.864 27.4358H116.688C117.295 27.4358 117.877 27.6769 118.306 28.1061C118.735 28.5348 118.976 29.1172 118.976 29.7237V95.4834C118.976 96.0904 118.735 96.6723 118.306 97.1015C117.877 97.5307 117.295 97.7713 116.688 97.7713V97.7711Z" fill="#616161"/>
<path d="M59.4879 97.7712H2.28789C1.68088 97.7712 1.09901 97.5305 0.669847 97.1013C0.241121 96.6722 0 96.0903 0 95.4833V29.7236C0 29.117 0.241121 28.5347 0.669847 28.106C1.09904 27.6768 1.68091 27.4357 2.28789 27.4357H17.111C17.9284 27.4357 18.6839 27.8718 19.0927 28.5799C19.5014 29.2874 19.5014 30.1598 19.0927 30.8677C18.684 31.5758 17.9285 32.0115 17.111 32.0115H4.57589V93.1952H59.4879C60.3053 93.1952 61.0608 93.6314 61.4695 94.3394C61.8782 95.047 61.8782 95.9193 61.4695 96.6273C61.0608 97.3353 60.3053 97.771 59.4879 97.771V97.7712Z" fill="#616161"/>
<path d="M69.7839 51.6059H49.1919C48.3745 51.6059 47.619 51.1698 47.2103 50.4617C46.8016 49.7537 46.8016 48.8818 47.2103 48.1738C47.619 47.4658 48.3745 47.0297 49.1919 47.0297H69.7839C70.6013 47.0297 71.3568 47.4658 71.7655 48.1738C72.1742 48.8819 72.1742 49.7538 71.7655 50.4617C71.3568 51.1698 70.6013 51.6059 69.7839 51.6059Z" fill="#2C7A0D"/>
<path d="M59.4879 97.7711C58.8809 97.7711 58.299 97.5304 57.8699 97.1012C57.4411 96.6721 57.2 96.0902 57.2 95.4832V63.201C57.2 62.3835 57.6362 61.6281 58.3437 61.2193C59.0518 60.8106 59.9241 60.8106 60.6321 61.2193C61.3397 61.628 61.7758 62.3835 61.7758 63.201V91.4709C64.8532 89.8165 68.3923 88.3004 72.3463 86.9462C80.4115 84.1849 94.497 81.3119 99.5747 80.3166V21.341C92.2818 20.9705 85.5166 21.6268 79.4117 23.2887C78.8237 23.4567 78.1929 23.3823 77.66 23.082C77.1275 22.7818 76.737 22.2809 76.5759 21.6906C76.4148 21.1008 76.4972 20.4711 76.8035 19.9417C77.1103 19.4125 77.6158 19.028 78.2079 18.8744C85.4007 16.9108 93.4171 16.2517 102.035 16.9137H102.035C102.611 16.9584 103.148 17.2186 103.54 17.6431C103.932 18.0677 104.149 18.6244 104.147 19.2016V82.205C104.147 82.7385 103.96 83.2552 103.619 83.6653C103.279 84.0759 102.805 84.3542 102.281 84.4529C102.092 84.4888 83.2621 88.0423 73.8241 91.2725C68.6548 93.0441 64.2786 95.0863 60.8195 97.3416L60.7538 97.383L60.7394 97.3933V97.3928C60.3679 97.6381 59.9332 97.7699 59.4882 97.7717L59.4879 97.7711Z" fill="#ADADAD"/>
<path d="M59.4879 97.7711C59.0591 97.7711 58.6388 97.65 58.2752 97.4224L58.1924 97.3694L58.1379 97.3335C54.6802 95.0815 50.3088 93.0435 45.1452 91.2746C35.7073 88.0441 16.8788 84.4904 16.6882 84.455C16.1636 84.3564 15.6901 84.0771 15.3495 83.666C15.0092 83.255 14.823 82.7378 14.8234 82.2043V19.195C14.8216 18.6173 15.0385 18.0606 15.4304 17.6365C15.8219 17.212 16.3596 16.9513 16.9354 16.9071C25.554 16.2451 33.5711 16.9071 40.764 18.8677C41.5535 19.0828 42.1683 19.7028 42.3769 20.4941C42.5854 21.2854 42.3559 22.1275 41.775 22.7038C41.1941 23.2801 40.3497 23.5026 39.5602 23.2875C33.4599 21.6229 26.6902 20.9694 19.3972 21.3399L19.3967 80.3166C24.4734 81.3175 38.5587 84.1849 46.6239 86.9462C50.5792 88.3003 54.1197 89.8165 57.1972 91.4709L57.1977 63.201C57.1977 62.3836 57.6334 61.6281 58.3414 61.2194C59.0494 60.8107 59.9218 60.8107 60.6293 61.2194C61.3373 61.6281 61.7735 62.3836 61.7735 63.201V95.4832C61.7735 96.0902 61.5324 96.6721 61.1032 97.1013C60.6744 97.5305 60.0921 97.7711 59.4856 97.7711L59.4879 97.7711Z" fill="#ADADAD"/>
<path d="M67.3648 58.5498H65.2296C64.4121 58.5498 63.6567 58.1141 63.2479 57.4061C62.8392 56.6981 62.8392 55.8257 63.2479 55.1182C63.6566 54.4102 64.4121 53.974 65.2296 53.974H67.396C67.4174 52.8456 67.5231 47.1685 67.632 43.8854C67.7023 41.7804 67.7423 41.4387 67.7894 41.1855C67.7894 41.1655 67.7977 41.1469 67.801 41.1269C68.5816 37.0976 70.3882 33.3378 73.0462 30.2106C75.3243 27.5177 76.5282 24.3221 76.5282 20.9715C76.5282 9.71024 67.6949 4.58131 59.4885 4.58131C51.2819 4.58084 42.4489 9.70738 42.4489 20.9703C42.4489 24.3209 43.6531 27.5171 45.9308 30.2094C48.5897 33.3366 50.3963 37.0969 51.176 41.1261C51.176 41.1462 51.183 41.1648 51.1877 41.1848C51.2347 41.438 51.2747 41.7797 51.345 43.8833C51.4535 47.1726 51.561 52.8464 51.5824 53.9734H53.7489C54.5663 53.9734 55.3218 54.4096 55.7305 55.1176C56.1392 55.8252 56.1392 56.6975 55.7305 57.4055C55.3218 58.1135 54.5663 58.5492 53.7489 58.5492H51.6122C49.0827 58.5492 47.0233 56.616 47.0089 54.235C47.0089 53.8617 46.8874 47.5495 46.7715 44.0333C46.7212 42.5647 46.6915 42.1127 46.6798 41.98H46.6803C46.0486 38.7234 44.5865 35.6856 42.4359 33.1598C39.4516 29.6304 37.8727 25.4135 37.8727 20.9667C37.8727 14.5089 40.2379 9.06489 44.7094 5.22236C48.6302 1.85447 53.8787 0 59.4884 0C65.0981 0 70.3465 1.85924 74.2675 5.22236C78.739 9.06453 81.1042 14.509 81.1042 20.9667C81.1042 25.414 79.5313 29.6309 76.541 33.1598H76.5419C74.3918 35.6847 72.9297 38.7215 72.2975 41.9772C72.2859 42.1103 72.2561 42.5637 72.2058 44.0318C72.0899 47.5496 71.9754 53.8673 71.9684 54.2323C71.9545 56.6119 69.8952 58.5506 67.3656 58.5506L67.3648 58.5498Z" fill="#3BB30B"/>
<path d="M63.2619 65.4924H55.7158C54.5874 65.4915 53.5056 65.0427 52.7078 64.2449C51.9099 63.447 51.4612 62.3652 51.4602 61.2368V56.2616C51.4602 55.6551 51.7013 55.0728 52.1301 54.6441C52.5592 54.2149 53.1411 53.9738 53.7481 53.9738H65.2296C65.8366 53.9738 66.4184 54.2149 66.8476 54.6441C67.2763 55.0728 67.5175 55.6551 67.5175 56.2616V61.2368C67.5165 62.3652 67.0678 63.447 66.2699 64.2449C65.472 65.0427 64.3903 65.4915 63.2619 65.4924ZM56.036 60.9166H62.9416V58.5496H56.036V60.9166Z" fill="#2C7A0D"/>
</svg>
