<svg width="36" height="37" viewBox="0 0 36 37" fill="none" xmlns="http://www.w3.org/2000/svg">
<path d="M6.93185 9.3306C6.66652 9.3304 6.41876 9.46313 6.27213 9.68432C6.12546 9.90547 6.09974 10.1853 6.20331 10.4295L8.5989 16.4178H1.39997C1.37526 16.4166 1.35055 16.4166 1.32583 16.4178C1.07379 16.4407 0.848096 16.583 0.718616 16.8003C0.589121 17.0178 0.571558 17.2841 0.671435 17.5165L8.96945 36.5307C9.03196 36.6714 9.13427 36.7907 9.26376 36.8742C9.39306 36.9575 9.5442 37.0012 9.698 37H26.294C26.4478 37.0012 26.5988 36.9575 26.7282 36.8742C26.8577 36.7907 26.9599 36.6714 27.0226 36.5307L35.3206 17.5165C35.4241 17.2725 35.3982 16.9925 35.2517 16.7713C35.1051 16.5503 34.8574 16.4174 34.592 16.4178H29.4552C29.2436 16.4148 29.0398 16.4966 28.8891 16.6451C28.7385 16.7938 28.6535 16.9964 28.6535 17.2079C28.6535 17.4196 28.7385 17.6221 28.8891 17.7708C29.0398 17.9193 29.2436 18.0012 29.4552 17.9981H33.3819L25.7751 35.4193H10.2165L2.61024 17.9981H9.22878L10.1549 20.3071C10.2182 20.5211 10.3691 20.6981 10.5701 20.795C10.7712 20.8918 11.0039 20.8989 11.2106 20.815C11.4173 20.7308 11.5789 20.5631 11.6552 20.3536C11.7318 20.1439 11.7161 19.9117 11.612 19.7144L7.66059 9.83689C7.60381 9.68926 7.50393 9.56222 7.37401 9.47195C7.24413 9.38169 7.09013 9.33248 6.93205 9.33064L6.93185 9.3306Z" fill="#737373"/>
<path d="M28.6078 9.47868C28.7328 9.38881 28.8815 9.33737 29.0353 9.33062L29.0351 9.33089C29.3047 9.32211 29.5604 9.45159 29.7128 9.67399C29.8654 9.89659 29.894 10.1815 29.7884 10.4298L25.837 20.3073C25.7737 20.5213 25.6228 20.6984 25.4218 20.7952C25.2206 20.892 24.988 20.8991 24.7813 20.8152C24.5746 20.7311 24.413 20.5634 24.3366 20.3539C24.26 20.1441 24.2757 19.9119 24.3799 19.7146L25.0713 17.9983H13.2544C13.0448 18.0083 12.8397 17.9344 12.6845 17.7933C12.5293 17.652 12.4368 17.4549 12.4268 17.2452C12.417 17.0356 12.4909 16.8308 12.6323 16.6756C12.7735 16.5204 12.9706 16.4278 13.1802 16.418C13.2049 16.4168 13.2297 16.4168 13.2544 16.418H25.7014L28.3315 9.83687C28.3866 9.69313 28.4828 9.56855 28.6078 9.47868Z" fill="#3BB30B"/>
<path d="M18.7982 0.588163C18.7982 0.26333 18.5349 0 18.21 0C17.8851 0 17.6218 0.26333 17.6218 0.588163H18.7982ZM17.794 13.0026C18.0238 13.2323 18.3962 13.2323 18.626 13.0026L22.3694 9.25953C22.5992 9.02984 22.5992 8.65745 22.3694 8.42775C22.1397 8.19806 21.7673 8.19806 21.5376 8.42775L18.21 11.7549L14.8825 8.42775C14.6528 8.19806 14.2803 8.19806 14.0506 8.42775C13.8209 8.65745 13.8209 9.02984 14.0506 9.25953L17.794 13.0026ZM17.6218 0.588163V12.5867H18.7982V0.588163H17.6218Z" fill="#354DA0"/>
<path d="M18.2312 31.6824V22.6247" stroke="#AB3131" stroke-width="2" stroke-linecap="round"/>
<path d="M13.6429 27.2123H22.7017" stroke="#AB3131" stroke-width="2" stroke-linecap="round"/>
</svg>
