<svg width="85" height="20" viewBox="0 0 85 20" fill="none" xmlns="http://www.w3.org/2000/svg">
<path d="M18.8889 9.97228C18.8889 15.1882 14.6604 19.4167 9.44444 19.4167C4.22851 19.4167 0 15.1882 0 9.97228C0 4.75635 4.22851 0.527832 9.44444 0.527832C14.6604 0.527832 18.8889 4.75635 18.8889 9.97228Z" fill="#628E50"/>
<path d="M51.9444 9.97228C51.9444 15.1882 47.7159 19.4167 42.5 19.4167C37.2841 19.4167 33.0555 15.1882 33.0555 9.97228C33.0555 4.75635 37.2841 0.527832 42.5 0.527832C47.7159 0.527832 51.9444 4.75635 51.9444 9.97228Z" fill="#628E50"/>
<path d="M85 9.97228C85 15.1882 80.7715 19.4167 75.5555 19.4167C70.3396 19.4167 66.1111 15.1882 66.1111 9.97228C66.1111 4.75635 70.3396 0.527832 75.5555 0.527832C80.7715 0.527832 85 4.75635 85 9.97228Z" fill="#628E50"/>
</svg>
