<svg width="33" height="29" viewBox="0 0 33 29" fill="none" xmlns="http://www.w3.org/2000/svg">
<path d="M17.2763 6.38789H15.1184V15.2712L20.2254 19.4431L21.592 17.7528L17.2762 14.2643L17.2763 6.38789Z" fill="#3BB30B"/>
<path d="M26.8071 1.42474C25.4615 1.42685 24.1703 1.95625 23.2106 2.89927C21.1413 1.65654 18.7731 1 16.3593 1C13.9455 1 11.5771 1.65654 9.50796 2.89927C8.79241 2.2802 7.91988 1.87044 6.98644 1.71531C6.05312 1.56007 5.09502 1.66544 4.21753 2.01969C3.3402 2.37383 2.57745 2.96329 2.01352 3.72311C1.44947 4.48281 1.10597 5.38343 1.02086 6.32576C0.935746 7.26819 1.11217 8.21578 1.53084 9.06434C1.94962 9.91287 2.5942 10.6295 3.39394 11.1353C2.83762 13.3616 2.86639 15.6941 3.47776 17.9059C4.08902 20.1179 5.26183 22.1342 6.88244 23.7589L4.54472 26.8519L6.27109 28.1466L8.53694 25.1615C10.8016 26.8022 13.5268 27.6858 16.3233 27.6858C19.12 27.6858 21.8451 26.8023 24.1097 25.1616L26.4115 28.1466L28.1379 26.8519L25.8002 23.7589C27.4208 22.1342 28.5936 20.1181 29.2048 17.9059C29.8162 15.6941 29.845 13.3618 29.2887 11.1353C30.3021 10.5914 31.104 9.72357 31.5663 8.67052C32.0285 7.61732 32.1245 6.43968 31.8387 5.32549C31.553 4.21142 30.902 3.22532 29.9899 2.52464C29.0778 1.82407 27.9572 1.44944 26.807 1.46056L26.8071 1.42474ZM2.89043 6.60368C2.88575 5.85244 3.1645 5.12694 3.67108 4.57212C4.17764 4.01742 4.87482 3.67405 5.62352 3.6106C6.3721 3.54714 7.11702 3.7683 7.70975 4.22991C6.16509 5.53235 4.9356 7.16773 4.11326 9.01324C3.34913 8.44718 2.89606 7.55453 2.89043 6.60368ZM16.3413 25.5212C14.1276 25.5212 11.9635 24.8643 10.1236 23.6336C8.28351 22.403 6.84986 20.654 6.00439 18.6082C5.15888 16.5622 4.9395 14.3116 5.37407 12.1408C5.80853 9.96999 6.8774 7.97724 8.44517 6.41427C10.013 4.85145 12.0093 3.78901 14.1813 3.36145C16.3533 2.93389 18.6034 3.16056 20.6465 4.01263C22.6897 4.86481 24.4342 6.30398 25.6586 8.14798C26.8832 9.99199 27.5332 12.1581 27.5261 14.3717C27.5166 17.3319 26.3339 20.1677 24.2374 22.2576C22.1409 24.3474 19.3015 25.5212 16.3413 25.5212ZM28.5693 9.04929C27.7517 7.19075 26.5219 5.54272 24.9728 4.23C25.8337 3.58761 26.972 3.45322 27.9588 3.87749C28.9456 4.30187 29.6311 5.22045 29.757 6.28719C29.883 7.35394 29.4302 8.40693 28.5693 9.04929Z" fill="#7B7B7B" stroke="white" stroke-width="0.5"/>
</svg>
