<svg width="85" height="93" viewBox="0 0 85 93" fill="none" xmlns="http://www.w3.org/2000/svg">
<path d="M14.2908 0.00927843C13.0893 0.139335 12.1023 1.30985 12.1023 2.52371V14.7491H10.9008V7.42252C10.9437 6.03525 9.57053 4.77803 8.19736 4.90809C7.03876 5.03815 6.0518 6.20866 6.0518 7.42252V14.7491H4.85028V9.85025C4.89319 8.46298 3.52003 7.20576 2.14686 7.37917C0.988256 7.50923 -0.0416164 8.63639 0.00129499 9.85025V24.5033C0.00129499 25.8039 1.1599 27.0178 2.40433 27.0178C3.69167 27.0178 4.85028 25.8039 4.85028 24.5033V19.6479H6.0518V26.9744C6.0518 28.275 7.2104 29.4455 8.49774 29.4455C9.74217 29.4455 10.9008 28.275 10.9008 26.9744V19.6479H12.1023V31.8732C12.1023 32.827 12.7031 33.7807 13.6042 34.1709C12.8747 36.0784 12.231 38.0293 11.6303 39.9801C9.69926 46.3529 8.75521 53.2026 10.8579 61.0927L9.78508 65.4713C9.57053 66.295 9.82799 67.2054 10.4288 67.8123C13.0034 70.4568 16.5651 71.0204 19.6118 71.9741C30.168 77.87 39.6085 79.1273 56.1722 75.0955C57.2021 80.6012 60.9354 88.0578 67.6725 92.5665C68.0587 92.8699 68.5307 93 69.0457 93H82.3482C83.6355 93 84.7941 91.8295 84.7941 90.5723V44.0986C84.7941 42.4946 82.8631 41.194 81.4041 41.8443L73.8946 45.0957C64.7116 39.8501 56.1722 43.0148 49.3493 48.6072C43.9854 45.7893 39.2223 46.0928 34.4591 48.7373C33.9442 46.2228 33.043 43.7518 31.584 41.324L34.8024 27.4513C36.3901 26.801 38.0207 25.934 39.3939 24.5467C40.6383 23.2895 41.6253 21.5987 42.0973 19.6479H43.5992V31.8732C43.5992 33.1304 44.7578 34.3443 46.0023 34.3443C47.2896 34.3443 48.4482 33.1304 48.4482 31.8732V19.6479H49.6497V26.9744C49.6497 28.275 50.8083 29.4455 52.0957 29.4455C53.3401 29.4455 54.4987 28.275 54.4987 26.9744V19.6479H55.7002V24.5033C55.7002 25.8039 56.8588 27.0178 58.1462 27.0178C59.4335 27.0178 60.5921 25.8039 60.5492 24.5033V9.85025C60.5921 8.46298 59.219 7.20576 57.8887 7.37917C56.6872 7.50923 55.7002 8.63639 55.7002 9.85025V14.7491H54.4987V7.42252C54.5416 6.03525 53.1685 4.77803 51.7953 4.90809C50.6367 5.03815 49.6497 6.20866 49.6497 7.42252V14.7491H48.4482V2.52371C48.4911 1.13644 47.118 -0.120779 45.7448 0.00927843C44.5862 0.139335 43.5563 1.30985 43.5992 2.52371V14.7491H42.3548C42.269 12.1479 42.0115 10.1971 41.5395 8.67974C40.9387 6.38207 39.9947 4.90809 37.5487 4.95144C36.4759 5.03815 35.8752 5.42832 35.1028 5.77514C34.4162 5.29826 33.6438 4.95144 32.6997 4.95144C31.7557 4.95144 30.9833 5.29826 30.2967 5.77514C29.5672 5.29826 28.8377 4.95144 27.8508 4.95144C26.9067 4.95144 26.1343 5.29826 25.4477 5.77514C24.7182 5.29826 23.9887 4.95144 23.0018 4.95144C19.526 5.03815 18.1957 8.20287 18.1528 11.0641V14.7491H16.9513V2.52371C16.9942 1.13644 15.621 -0.120779 14.2908 0.00927843ZM23.2592 9.85025C27.8508 9.85025 32.6997 9.85025 36.8192 9.85025C37.3771 12.3647 37.5487 15.0959 37.5487 17.1768C37.5487 18.9976 36.9909 20.0814 36.0039 21.0785C35.017 22.0756 33.5151 22.8993 31.9273 23.4195C31.1549 23.6796 30.5542 24.3733 30.3396 25.1536L26.7351 41.0639C26.5634 41.7142 26.6922 42.4078 27.0784 42.9714C29.2668 46.3529 30.2967 49.5176 30.2967 52.639C30.2967 53.5494 30.8116 54.4164 31.584 54.8066C32.3565 55.2401 33.3434 55.1534 34.0729 54.6765C39.351 50.428 43.9425 51.2951 48.5769 53.5927C49.3923 54.0263 50.508 53.8962 51.2374 53.2459C58.1462 46.613 65.6557 45.876 72.6502 49.8644C73.2939 50.2113 74.1521 50.2546 74.8387 49.9512L79.9451 47.7402V88.1012H69.9468C63.6388 83.6359 60.5492 75.7891 60.5492 72.1909C60.5492 70.7169 58.9615 69.4597 57.5454 69.8499C39.6514 74.662 32.3135 73.5348 21.7573 67.6389C21.6286 67.5522 21.4999 67.4655 21.3282 67.4221C19.0539 66.7285 16.7367 66.295 14.8915 64.9944L15.6639 61.7863C15.7498 61.3528 15.7498 60.9193 15.621 60.5291C13.5613 53.3326 14.3766 47.5234 16.2218 41.4541C18.067 35.3414 21.0279 29.0553 22.916 21.4253C23.0018 21.2519 23.0018 21.0352 23.0018 20.8617C23.388 17.2635 22.3581 13.3618 23.2593 9.85026L23.2592 9.85025ZM16.9513 19.6479H18.1528V20.4716C17.8095 21.9022 17.3804 23.2895 16.9513 24.6767V19.6479Z" fill="#339B09"/>
</svg>
