<svg width="39" height="41" viewBox="0 0 39 41" fill="none" xmlns="http://www.w3.org/2000/svg">
<path d="M5.28401 10.7298H10.0432C10.2465 10.7298 10.4346 10.8383 10.5363 11.0145C10.6381 11.1906 10.6381 11.4077 10.5363 11.5838C10.4346 11.76 10.2465 11.8685 10.0432 11.8685H5.85356V16.3213H10.3078V15.9892C10.3078 15.7859 10.4164 15.5979 10.5926 15.4962C10.7689 15.3945 10.9859 15.3945 11.1621 15.4962C11.3385 15.5979 11.4469 15.7859 11.4469 15.9892V16.8907C11.4469 17.0416 11.387 17.1865 11.2802 17.2932C11.1734 17.4 11.0285 17.46 10.8774 17.46H5.28403C5.13289 17.46 4.98798 17.4 4.88121 17.2932C4.77443 17.1865 4.7145 17.0416 4.7145 16.8907V11.2991C4.7145 11.1482 4.77442 11.0033 4.88121 10.8966C4.988 10.7899 5.13289 10.7298 5.28401 10.7298ZM7.62466 13.49C7.48005 13.3505 7.27226 13.2974 7.07824 13.3506C6.88424 13.4039 6.7328 13.5554 6.67971 13.7493C6.62661 13.9433 6.67971 14.1509 6.81943 14.2954L8.32797 15.8035C8.43476 15.9103 8.57982 15.9702 8.73079 15.9702C8.88193 15.9702 9.02669 15.9103 9.13361 15.8035L12.9236 12.0143C13.0335 11.9083 13.0961 11.7625 13.0976 11.6098C13.0989 11.4571 13.0389 11.3101 12.9309 11.2022C12.8229 11.0941 12.6761 11.0341 12.5233 11.0353C12.3705 11.0366 12.2246 11.0992 12.1185 11.209L8.73092 14.5956L7.62466 13.49ZM5.28401 26.4377H10.8773C11.0285 26.4377 11.1734 26.3777 11.2802 26.2709C11.3869 26.1642 11.4469 26.0193 11.4469 25.8684V24.9675C11.4469 24.7641 11.3385 24.5761 11.1621 24.4744C10.9859 24.3727 10.7689 24.3727 10.5926 24.4744C10.4164 24.5761 10.3078 24.7641 10.3078 24.9675V25.299H5.85354V20.8466H10.0454C10.2489 20.8466 10.437 20.7381 10.5386 20.5619C10.6403 20.3858 10.6403 20.1687 10.5386 19.9926C10.437 19.8164 10.2489 19.7079 10.0454 19.7079H5.284C5.13286 19.7079 4.98795 19.7679 4.88118 19.8747C4.7744 19.9815 4.71446 20.1263 4.71446 20.2772V25.8684C4.71446 26.0193 4.77439 26.1642 4.88118 26.2709C4.98797 26.3777 5.13289 26.4377 5.28401 26.4377ZM12.1186 20.1869L8.73095 23.573L7.62463 22.4675C7.48001 22.3279 7.27222 22.2748 7.07821 22.3281C6.8842 22.3813 6.73277 22.5328 6.67967 22.7268C6.62658 22.9207 6.67967 23.1283 6.81939 23.2729L8.32793 24.7809C8.43472 24.8877 8.57978 24.9476 8.73075 24.9476C8.88189 24.9476 9.02665 24.8877 9.13357 24.7809L12.9236 20.9917C13.0673 20.848 13.1235 20.6384 13.0709 20.4421C13.0182 20.2456 12.8648 20.0922 12.6683 20.0396C12.4718 19.987 12.2623 20.0431 12.1186 20.1869ZM10.8773 33.3756C10.7263 33.3756 10.5814 33.4355 10.4746 33.5423C10.3679 33.6492 10.3078 33.7939 10.3078 33.945V34.277H5.85354V29.8242H10.0454C10.2489 29.8242 10.437 29.7156 10.5386 29.5395C10.6403 29.3633 10.6403 29.1463 10.5386 28.9701C10.437 28.794 10.2489 28.6854 10.0454 28.6854H5.28399C5.13285 28.6854 4.98795 28.7455 4.88117 28.8522C4.7744 28.959 4.71446 29.1039 4.71446 29.2548V34.8463C4.71446 34.9974 4.77438 35.1421 4.88117 35.2489C4.98796 35.3558 5.13287 35.4157 5.28399 35.4157H10.8773C11.0285 35.4157 11.1734 35.3558 11.2802 35.2489C11.3869 35.1421 11.4469 34.9974 11.4469 34.8463V33.945C11.4469 33.7939 11.3869 33.6492 11.2802 33.5423C11.1734 33.4355 11.0284 33.3756 10.8773 33.3756ZM12.1185 29.1646L8.73084 32.5512L7.62451 31.4452C7.4799 31.3055 7.27225 31.2526 7.07824 31.3058C6.88422 31.359 6.7328 31.5106 6.67971 31.7045C6.62661 31.8985 6.67971 32.106 6.81943 32.2506L8.32812 33.7583C8.43491 33.865 8.57982 33.9249 8.73079 33.9249C8.88193 33.9249 9.02669 33.865 9.13361 33.7583L12.9236 29.969C13.0673 29.8253 13.1235 29.6157 13.0709 29.4194C13.0182 29.2229 12.8649 29.0695 12.6683 29.017C12.4718 28.9643 12.2622 29.0208 12.1185 29.1646ZM15.559 13.1025H25.0299C25.2333 13.1025 25.4213 12.9939 25.523 12.8178C25.6248 12.6416 25.6248 12.4246 25.523 12.2484C25.4213 12.0723 25.2333 11.9637 25.0299 11.9637H15.559C15.3555 11.9637 15.1676 12.0723 15.0659 12.2484C14.9641 12.4246 14.9641 12.6416 15.0659 12.8178C15.1676 12.9939 15.3555 13.1025 15.559 13.1025ZM15.559 16.2258H20.2943C20.4977 16.2258 20.6858 16.1173 20.7876 15.9411C20.8893 15.765 20.8893 15.5479 20.7876 15.3718C20.6858 15.1956 20.4977 15.0871 20.2943 15.0871H15.559C15.3555 15.0871 15.1676 15.1956 15.0659 15.3718C14.9641 15.5479 14.9641 15.765 15.0659 15.9411C15.1676 16.1173 15.3555 16.2258 15.559 16.2258ZM15.559 22.08H18.2929C18.4964 22.08 18.6844 21.9715 18.7862 21.7953C18.8879 21.6192 18.8879 21.4021 18.7862 21.226C18.6844 21.0498 18.4963 20.9413 18.2929 20.9413H15.559C15.3555 20.9413 15.1676 21.0498 15.0659 21.226C14.9641 21.4021 14.9641 21.6192 15.0659 21.7953C15.1676 21.9715 15.3555 22.08 15.559 22.08ZM15.559 25.2034H18.8055C19.0089 25.2034 19.197 25.0948 19.2988 24.9187C19.4005 24.7425 19.4005 24.5255 19.2988 24.3493C19.197 24.1732 19.0089 24.0646 18.8055 24.0646H15.559C15.3555 24.0646 15.1676 24.1732 15.0659 24.3493C14.9641 24.5255 14.9641 24.7425 15.0659 24.9187C15.1676 25.0948 15.3555 25.2034 15.559 25.2034ZM15.559 31.0576H22.5398C22.7433 31.0576 22.9313 30.949 23.0331 30.7729C23.1348 30.5967 23.1348 30.3797 23.0331 30.2035C22.9313 30.0274 22.7433 29.9188 22.5398 29.9188H15.559C15.3555 29.9188 15.1676 30.0274 15.0659 30.2035C14.9641 30.3797 14.9641 30.5967 15.0659 30.7729C15.1676 30.949 15.3555 31.0576 15.559 31.0576ZM15.559 34.1809H20.2943C20.4977 34.1809 20.6858 34.0724 20.7876 33.8962C20.8893 33.7201 20.8893 33.503 20.7876 33.3269C20.6858 33.1507 20.4977 33.0422 20.2943 33.0422H15.559C15.3555 33.0422 15.1676 33.1507 15.0659 33.3269C14.9641 33.503 14.9641 33.7201 15.0659 33.8962C15.1676 34.0724 15.3555 34.1809 15.559 34.1809ZM30.9702 30.9405V40.4306C30.9702 40.5814 30.9104 40.7261 30.8038 40.8329C30.6971 40.9397 30.5525 40.9997 30.4017 41H0.569533C0.418394 41 0.273485 40.94 0.16671 40.8332C0.0599355 40.7264 0 40.5816 0 40.4307V3.56736C0 3.41642 0.0599203 3.27156 0.16671 3.16482C0.273501 3.05808 0.418409 2.99802 0.569533 2.99802H11.8864C12.0941 1.86684 12.8219 0.899074 13.8511 0.385317C14.8804 -0.128439 16.0915 -0.128439 17.1208 0.385317C18.1501 0.899074 18.8778 1.86684 19.0854 2.99802H30.4012C30.5522 2.99787 30.6971 3.05777 30.804 3.16467C30.9108 3.27143 30.9707 3.41629 30.9707 3.56736V13.2557C33.0119 13.6689 34.8471 14.7751 36.1658 16.3867C37.4842 17.9984 38.2045 20.0163 38.2045 22.0982C38.2045 24.1801 37.4841 26.198 36.1658 27.8097C34.8473 29.4214 33.0115 30.5273 30.9702 30.9405ZM29.8311 4.13669H21.3346V5.45037H27.9478C28.0988 5.45037 28.2437 5.51027 28.3505 5.61703C28.4572 5.72378 28.5173 5.86864 28.5173 6.01972V13.1011C28.7361 13.0854 28.9568 13.0772 29.1799 13.0769C29.4028 13.0766 29.6201 13.0845 29.8314 13.1006L29.8311 4.13669ZM9.63646 8.37276V6.58906H3.59242V37.4087H27.3767L27.3769 30.9381C25.3382 30.5224 23.5059 29.4155 22.1898 27.8045C20.8738 26.1936 20.155 24.1775 20.155 22.0976C20.155 20.0176 20.8738 18.0016 22.1898 16.3907C23.5059 14.7797 25.3382 13.6728 27.3769 13.2572V6.58883H21.3347V8.37387C21.3347 8.52481 21.2747 8.66967 21.1679 8.77641C21.0611 8.88314 20.9162 8.94321 20.7652 8.94321H10.2062C10.0552 8.94321 9.91027 8.88316 9.8035 8.77641C9.69673 8.66965 9.63664 8.52479 9.63664 8.37387L9.63646 8.37276ZM12.3945 4.23349L10.7756 4.23334V7.80344L20.1955 7.80359V4.2347H18.5766C18.4256 4.2347 18.2807 4.1748 18.1739 4.06805C18.0671 3.96129 18.007 3.81643 18.007 3.66535C18.007 2.76488 17.5265 1.93266 16.7463 1.48249C15.9662 1.03219 15.0049 1.03219 14.2248 1.48249C13.4446 1.93263 12.964 2.76488 12.964 3.66535C12.964 3.81644 12.9041 3.9613 12.7972 4.06805C12.6904 4.1748 12.5456 4.2347 12.3945 4.2347L12.3945 4.23349ZM29.8314 31.0953C29.6163 31.1108 29.3992 31.1188 29.1798 31.1191C28.957 31.1191 28.736 31.1105 28.5173 31.0944L28.5174 37.9784C28.5174 38.1295 28.4573 38.2744 28.3506 38.3811C28.2438 38.4879 28.0989 38.5478 27.9479 38.5478H3.02448C2.87349 38.5478 2.72858 38.4879 2.62181 38.3811C2.51504 38.2744 2.45495 38.1295 2.45495 37.9784V6.0185C2.45495 5.86756 2.51502 5.7227 2.62181 5.61596C2.7286 5.50923 2.87351 5.44916 3.02448 5.44916H9.63655V4.13696H1.13928V39.8615H29.8312L29.8314 31.0953ZM37.0646 22.0971C37.0645 20.0066 36.2336 18.0019 34.7547 16.5238C33.276 15.0458 31.2703 14.2155 29.1792 14.2156C27.0882 14.2158 25.0826 15.0464 23.6041 16.5247C22.1255 18.0029 21.2949 20.0077 21.2951 22.0984C21.2951 24.1888 22.1258 26.1936 23.6045 27.6717C25.0831 29.1499 27.0887 29.9803 29.1797 29.9803C31.2703 29.9779 33.2747 29.1465 34.7529 27.6686C36.231 26.1907 37.0625 24.1869 37.0646 22.0971Z" fill="#646464"/>
<path d="M29.9685 29.1621V25.6133L30.8904 26.0742C31.2931 26.2756 31.743 26.3818 32.1928 26.3818C32.6427 26.3818 33.0925 26.2756 33.4952 26.0743L35.2219 25.2108C35.4103 25.1167 35.5293 24.9243 35.5293 24.7136C35.5293 24.5028 35.4103 24.3104 35.2219 24.2159L33.4952 23.3523C33.4218 23.3156 33.3456 23.2862 33.2694 23.2562C33.4152 23.135 33.5636 23.0165 33.6982 22.882C34.4978 22.0824 35.0645 21.0814 35.3375 19.9859L35.512 19.2875C35.5599 19.0978 35.5043 18.897 35.3658 18.7592C35.228 18.6213 35.0288 18.5651 34.8376 18.613L34.1397 18.787C33.0436 19.0606 32.0427 19.6279 31.2431 20.4269C31.1763 20.4936 31.1213 20.5693 31.0579 20.6388C31.0651 20.5146 31.0806 20.39 31.0806 20.2649C31.0806 19.0872 30.802 17.9083 30.2759 16.8555L29.9101 16.1236C29.721 15.7466 29.1043 15.7466 28.9153 16.1236L28.5494 16.8555C28.0227 17.9082 27.7441 19.0871 27.7441 20.2649C27.7441 20.39 27.7597 20.5146 27.7664 20.6397C27.703 20.5702 27.648 20.4945 27.5812 20.4278C26.7816 19.6282 25.7807 19.0615 24.6852 18.7885L23.9867 18.614C23.7965 18.5661 23.5963 18.6223 23.4585 18.7602C23.32 18.898 23.2644 19.0988 23.3123 19.2884L23.4863 19.9863C23.7599 21.0824 24.3271 22.0833 25.1262 22.8829C25.2608 23.0175 25.4092 23.1359 25.5549 23.2571C25.4787 23.2871 25.4026 23.3167 25.3291 23.3533L23.6025 24.2168C23.4144 24.3104 23.2955 24.5029 23.2955 24.7136C23.2955 24.9243 23.4144 25.1168 23.6029 25.2113L25.3296 26.0748C25.7323 26.2756 26.1821 26.3819 26.632 26.3819C27.0818 26.3819 27.5317 26.2756 27.9344 26.0744L28.8563 25.6133V29.1622L29.9685 29.1621ZM33.7297 24.7134L32.9978 25.0793C32.5002 25.3279 31.8857 25.3279 31.388 25.0793L30.6557 24.7134L31.3875 24.3476C31.8852 24.099 32.4997 24.099 32.9974 24.3476L33.7297 24.7134ZM32.0298 21.2141C32.636 20.6085 33.3833 20.1647 34.2025 19.9234C33.9606 20.743 33.5179 21.4899 32.9118 22.0961C32.3056 22.7022 31.5583 23.1455 30.7391 23.3868C30.9804 22.5676 31.4237 21.8202 32.0298 21.2141ZM29.4123 17.6323C29.7765 18.4581 29.9683 19.3617 29.9683 20.2648C29.9683 21.1679 29.7765 22.0715 29.4123 22.8973C29.048 22.0715 28.8562 21.1679 28.8562 20.2648C28.8562 19.3617 29.048 18.4581 29.4123 17.6323ZM24.6222 19.9234C25.4419 20.1653 26.1888 20.608 26.7949 21.2141C27.4005 21.8202 27.8443 22.5676 28.0856 23.3868C27.266 23.1449 26.5191 22.7022 25.9129 22.0961C25.3073 21.4898 24.8635 20.7425 24.6222 19.9234ZM27.4366 25.0794C26.9389 25.328 26.3244 25.328 25.8267 25.0794L25.0949 24.7136L25.8267 24.3477C26.3244 24.0991 26.9389 24.0991 27.4366 24.3477L28.1689 24.7136L27.4366 25.0794Z" fill="#3BB30B"/>
<path d="M5.22861 11.1818H9.98775C10.1911 11.1818 10.3792 11.2904 10.4809 11.4665C10.5826 11.6427 10.5826 11.8597 10.4809 12.0359C10.3792 12.212 10.1911 12.3206 9.98775 12.3206H5.79816V16.7734H10.2524V16.4412C10.2524 16.2379 10.361 16.0499 10.5372 15.9482C10.7135 15.8465 10.9305 15.8465 11.1067 15.9482C11.2831 16.05 11.3915 16.238 11.3915 16.4412V17.3427C11.3915 17.4937 11.3316 17.6385 11.2248 17.7453C11.118 17.852 10.9731 17.9121 10.822 17.9121H5.22862C5.07748 17.9121 4.93258 17.852 4.8258 17.7453C4.71903 17.6385 4.65909 17.4936 4.65909 17.3427V11.7512C4.65909 11.6002 4.71901 11.4554 4.8258 11.3486C4.93259 11.2419 5.07748 11.1818 5.22861 11.1818ZM7.56926 13.9421C7.42465 13.8025 7.21685 13.7495 7.02284 13.8027C6.82884 13.8559 6.6774 14.0074 6.62431 14.2014C6.57121 14.3953 6.62431 14.6029 6.76403 14.7475L8.27257 16.2555C8.37936 16.3623 8.52441 16.4222 8.67539 16.4222C8.82652 16.4222 8.97129 16.3623 9.07821 16.2555L12.8682 12.4663C12.9781 12.3603 13.0407 12.2145 13.0422 12.0618C13.0435 11.9091 12.9834 11.7622 12.8755 11.6542C12.7675 11.5462 12.6207 11.4861 12.4679 11.4873C12.3151 11.4886 12.1692 11.5512 12.0631 11.6611L8.67551 15.0476L7.56926 13.9421ZM5.22861 26.8898H10.8219C10.9731 26.8898 11.118 26.8297 11.2248 26.723C11.3315 26.6162 11.3915 26.4714 11.3915 26.3204V25.4196C11.3915 25.2161 11.2831 25.0281 11.1067 24.9264C10.9305 24.8247 10.7135 24.8247 10.5372 24.9264C10.361 25.0281 10.2524 25.2161 10.2524 25.4196V25.7511H5.79814V21.2987H9.99001C10.1935 21.2987 10.3816 21.1901 10.4832 21.014C10.5849 20.8378 10.5849 20.6208 10.4832 20.4446C10.3816 20.2685 10.1935 20.1599 9.99001 20.1599H5.22859C5.07745 20.1599 4.93255 20.22 4.82577 20.3267C4.719 20.4335 4.65906 20.5784 4.65906 20.7293V26.3204C4.65906 26.4714 4.71898 26.6162 4.82577 26.723C4.93256 26.8297 5.07748 26.8898 5.22861 26.8898ZM12.0632 20.6389L8.67555 24.025L7.56922 22.9195C7.42461 22.78 7.21682 22.7269 7.0228 22.7801C6.8288 22.8333 6.67736 22.9849 6.62427 23.1788C6.57117 23.3728 6.62427 23.5803 6.76399 23.7249L8.27253 25.233C8.37932 25.3397 8.52438 25.3996 8.67535 25.3996C8.82649 25.3996 8.97125 25.3397 9.07817 25.233L12.8682 21.4437C13.0119 21.3001 13.0681 21.0904 13.0154 20.8941C12.9628 20.6977 12.8094 20.5442 12.6129 20.4917C12.4164 20.4391 12.2069 20.4951 12.0632 20.6389ZM10.8219 33.8277C10.6709 33.8277 10.526 33.8876 10.4192 33.9943C10.3124 34.1012 10.2524 34.246 10.2524 34.397V34.729H5.79814V30.2762H9.99001C10.1935 30.2762 10.3816 30.1677 10.4832 29.9915C10.5849 29.8154 10.5849 29.5983 10.4832 29.4222C10.3816 29.246 10.1935 29.1375 9.99001 29.1375H5.22859C5.07745 29.1375 4.93254 29.1975 4.82577 29.3043C4.71899 29.411 4.65906 29.5559 4.65906 29.7068V35.2984C4.65906 35.4494 4.71898 35.5942 4.82577 35.7009C4.93256 35.8078 5.07747 35.8677 5.22859 35.8677H10.8219C10.9731 35.8677 11.118 35.8078 11.2248 35.7009C11.3315 35.5941 11.3915 35.4494 11.3915 35.2984V34.397C11.3915 34.2459 11.3315 34.1012 11.2248 33.9943C11.118 33.8876 10.973 33.8277 10.8219 33.8277ZM12.0631 29.6167L8.67544 33.0032L7.56911 31.8972C7.4245 31.7576 7.21685 31.7046 7.02284 31.7579C6.82882 31.8111 6.6774 31.9626 6.6243 32.1566C6.57121 32.3505 6.6243 32.5581 6.76402 32.7027L8.27271 34.2103C8.37951 34.3171 8.52441 34.377 8.67539 34.377C8.82652 34.377 8.97129 34.3171 9.07821 34.2103L12.8682 30.4211C13.0119 30.2774 13.0681 30.0677 13.0155 29.8714C12.9628 29.675 12.8095 29.5215 12.6129 29.469C12.4164 29.4164 12.2068 29.4728 12.0631 29.6167ZM15.5036 13.5545H24.9744C25.1779 13.5545 25.3659 13.446 25.4676 13.2698C25.5693 13.0937 25.5693 12.8766 25.4676 12.7005C25.3659 12.5243 25.1779 12.4158 24.9744 12.4158H15.5036C15.3001 12.4158 15.1122 12.5243 15.0105 12.7005C14.9087 12.8766 14.9087 13.0937 15.0105 13.2698C15.1122 13.446 15.3001 13.5545 15.5036 13.5545ZM15.5036 16.6779H20.2388C20.4423 16.6779 20.6304 16.5693 20.7322 16.3932C20.8339 16.217 20.8339 16 20.7322 15.8238C20.6304 15.6477 20.4423 15.5391 20.2388 15.5391H15.5036C15.3001 15.5391 15.1122 15.6477 15.0105 15.8238C14.9087 16 14.9087 16.217 15.0105 16.3932C15.1122 16.5693 15.3001 16.6779 15.5036 16.6779ZM15.5036 22.5321H18.2375C18.441 22.5321 18.629 22.4235 18.7308 22.2474C18.8325 22.0712 18.8325 21.8542 18.7308 21.678C18.629 21.5019 18.4409 21.3933 18.2375 21.3933H15.5036C15.3001 21.3933 15.1122 21.5019 15.0105 21.678C14.9087 21.8542 14.9087 22.0712 15.0105 22.2474C15.1122 22.4235 15.3001 22.5321 15.5036 22.5321ZM15.5036 25.6554H18.7501C18.9535 25.6554 19.1416 25.5469 19.2434 25.3707C19.3451 25.1946 19.3451 24.9775 19.2434 24.8014C19.1416 24.6252 18.9535 24.5167 18.7501 24.5167H15.5036C15.3001 24.5167 15.1122 24.6252 15.0105 24.8014C14.9087 24.9775 14.9087 25.1946 15.0105 25.3707C15.1122 25.5469 15.3001 25.6554 15.5036 25.6554ZM15.5036 31.5096H22.4844C22.6879 31.5096 22.8759 31.4011 22.9777 31.2249C23.0794 31.0488 23.0794 30.8317 22.9777 30.6556C22.8759 30.4794 22.6879 30.3709 22.4844 30.3709H15.5036C15.3001 30.3709 15.1122 30.4794 15.0105 30.6556C14.9087 30.8317 14.9087 31.0488 15.0105 31.2249C15.1122 31.4011 15.3001 31.5096 15.5036 31.5096ZM15.5036 34.6329H20.2388C20.4423 34.6329 20.6304 34.5244 20.7322 34.3483C20.8339 34.1721 20.8339 33.9551 20.7322 33.7789C20.6304 33.6027 20.4423 33.4942 20.2388 33.4942H15.5036C15.3001 33.4942 15.1122 33.6028 15.0105 33.7789C14.9087 33.955 14.9087 34.1721 15.0105 34.3483C15.1122 34.5244 15.3001 34.6329 15.5036 34.6329Z" fill="#525252"/>
<path d="M5.22861 10.25H9.98775C10.1911 10.25 10.3792 10.3585 10.4809 10.5347C10.5826 10.7108 10.5826 10.9279 10.4809 11.104C10.3792 11.2802 10.1911 11.3887 9.98775 11.3887H5.79816V15.8415H10.2524V15.5094C10.2524 15.3061 10.361 15.1181 10.5372 15.0164C10.7135 14.9147 10.9305 14.9147 11.1067 15.0164C11.2831 15.1181 11.3915 15.3061 11.3915 15.5094V16.4109C11.3915 16.5618 11.3316 16.7067 11.2248 16.8134C11.118 16.9202 10.9731 16.9802 10.822 16.9802H5.22862C5.07748 16.9802 4.93258 16.9202 4.8258 16.8134C4.71903 16.7067 4.65909 16.5618 4.65909 16.4109V10.8194C4.65909 10.6684 4.71901 10.5236 4.8258 10.4168C4.93259 10.3101 5.07748 10.25 5.22861 10.25ZM7.56926 13.0102C7.42465 12.8707 7.21685 12.8176 7.02284 12.8709C6.82884 12.9241 6.6774 13.0756 6.62431 13.2696C6.57121 13.4635 6.62431 13.6711 6.76403 13.8157L8.27257 15.3237C8.37936 15.4305 8.52441 15.4904 8.67539 15.4904C8.82652 15.4904 8.97129 15.4305 9.07821 15.3237L12.8682 11.5345C12.9781 11.4285 13.0407 11.2827 13.0422 11.13C13.0435 10.9773 12.9834 10.8304 12.8755 10.7224C12.7675 10.6143 12.6207 10.5543 12.4679 10.5555C12.3151 10.5568 12.1692 10.6194 12.0631 10.7292L8.67551 14.1158L7.56926 13.0102ZM5.22861 25.958H10.8219C10.9731 25.958 11.118 25.8979 11.2248 25.7912C11.3315 25.6844 11.3915 25.5395 11.3915 25.3886V24.4877C11.3915 24.2843 11.2831 24.0963 11.1067 23.9946C10.9305 23.8929 10.7135 23.8929 10.5372 23.9946C10.361 24.0963 10.2524 24.2843 10.2524 24.4877V24.8193H5.79814V20.3668H9.99001C10.1935 20.3668 10.3816 20.2583 10.4832 20.0822C10.5849 19.906 10.5849 19.689 10.4832 19.5128C10.3816 19.3366 10.1935 19.2281 9.99001 19.2281H5.22859C5.07745 19.2281 4.93255 19.2882 4.82577 19.3949C4.719 19.5017 4.65906 19.6465 4.65906 19.7975V25.3886C4.65906 25.5396 4.71898 25.6844 4.82577 25.7912C4.93256 25.8979 5.07748 25.958 5.22861 25.958ZM12.0632 19.7071L8.67555 23.0932L7.56922 21.9877C7.42461 21.8481 7.21682 21.7951 7.0228 21.8483C6.8288 21.9015 6.67736 22.0531 6.62427 22.247C6.57117 22.4409 6.62427 22.6485 6.76399 22.7931L8.27253 24.3012C8.37932 24.4079 8.52438 24.4678 8.67535 24.4678C8.82649 24.4678 8.97125 24.4079 9.07817 24.3012L12.8682 20.5119C13.0119 20.3682 13.0681 20.1586 13.0154 19.9623C12.9628 19.7658 12.8094 19.6124 12.6129 19.5599C12.4164 19.5072 12.2069 19.5633 12.0632 19.7071ZM10.8219 32.8959C10.6709 32.8959 10.526 32.9558 10.4192 33.0625C10.3124 33.1694 10.2524 33.3141 10.2524 33.4652V33.7972H5.79814V29.3444H9.99001C10.1935 29.3444 10.3816 29.2358 10.4832 29.0597C10.5849 28.8835 10.5849 28.6665 10.4832 28.4903C10.3816 28.3142 10.1935 28.2056 9.99001 28.2056H5.22859C5.07745 28.2056 4.93254 28.2657 4.82577 28.3725C4.71899 28.4792 4.65906 28.6241 4.65906 28.775V34.3665C4.65906 34.5176 4.71898 34.6623 4.82577 34.7691C4.93256 34.876 5.07747 34.9359 5.22859 34.9359H10.8219C10.9731 34.9359 11.118 34.876 11.2248 34.7691C11.3315 34.6623 11.3915 34.5176 11.3915 34.3665V33.4652C11.3915 33.3141 11.3315 33.1694 11.2248 33.0625C11.118 32.9557 10.973 32.8959 10.8219 32.8959ZM12.0631 28.6848L8.67544 32.0714L7.56911 30.9654C7.4245 30.8257 7.21685 30.7728 7.02284 30.826C6.82882 30.8793 6.6774 31.0308 6.6243 31.2247C6.57121 31.4187 6.6243 31.6263 6.76402 31.7708L8.27271 33.2785C8.37951 33.3852 8.52441 33.4451 8.67539 33.4451C8.82652 33.4451 8.97129 33.3852 9.07821 33.2785L12.8682 29.4892C13.0119 29.3456 13.0681 29.1359 13.0155 28.9396C12.9628 28.7432 12.8095 28.5897 12.6129 28.5372C12.4164 28.4846 12.2068 28.541 12.0631 28.6848ZM15.5036 12.6227H24.9744C25.1779 12.6227 25.3659 12.5142 25.4676 12.338C25.5693 12.1619 25.5693 11.9448 25.4676 11.7686C25.3659 11.5925 25.1779 11.484 24.9744 11.484H15.5036C15.3001 11.484 15.1122 11.5925 15.0105 11.7686C14.9087 11.9448 14.9087 12.1618 15.0105 12.338C15.1122 12.5142 15.3001 12.6227 15.5036 12.6227ZM15.5036 15.746H20.2388C20.4423 15.746 20.6304 15.6375 20.7322 15.4614C20.8339 15.2852 20.8339 15.0682 20.7322 14.892C20.6304 14.7158 20.4423 14.6073 20.2388 14.6073H15.5036C15.3001 14.6073 15.1122 14.7158 15.0105 14.892C14.9087 15.0681 14.9087 15.2852 15.0105 15.4614C15.1122 15.6375 15.3001 15.746 15.5036 15.746ZM15.5036 21.6002H18.2375C18.441 21.6002 18.629 21.4917 18.7308 21.3156C18.8325 21.1394 18.8325 20.9224 18.7308 20.7462C18.629 20.57 18.4409 20.4615 18.2375 20.4615H15.5036C15.3001 20.4615 15.1122 20.57 15.0105 20.7462C14.9087 20.9223 14.9087 21.1394 15.0105 21.3156C15.1122 21.4917 15.3001 21.6002 15.5036 21.6002ZM15.5036 24.7236H18.7501C18.9535 24.7236 19.1416 24.615 19.2434 24.4389C19.3451 24.2628 19.3451 24.0457 19.2434 23.8695C19.1416 23.6934 18.9535 23.5849 18.7501 23.5849H15.5036C15.3001 23.5849 15.1122 23.6934 15.0105 23.8695C14.9087 24.0457 14.9087 24.2627 15.0105 24.4389C15.1122 24.615 15.3001 24.7236 15.5036 24.7236ZM15.5036 30.5778H22.4844C22.6879 30.5778 22.8759 30.4692 22.9777 30.2931C23.0794 30.117 23.0794 29.8999 22.9777 29.7237C22.8759 29.5476 22.6879 29.4391 22.4844 29.4391H15.5036C15.3001 29.4391 15.1122 29.5476 15.0105 29.7237C14.9087 29.8999 14.9087 30.1169 15.0105 30.2931C15.1122 30.4692 15.3001 30.5778 15.5036 30.5778ZM15.5036 33.7011H20.2388C20.4423 33.7011 20.6304 33.5926 20.7322 33.4164C20.8339 33.2403 20.8339 33.0232 20.7322 32.8471C20.6304 32.6709 20.4423 32.5624 20.2388 32.5624H15.5036C15.3001 32.5624 15.1122 32.6709 15.0105 32.8471C14.9087 33.0232 14.9087 33.2403 15.0105 33.4164C15.1122 33.5926 15.3001 33.7011 15.5036 33.7011Z" fill="#3BB30B"/>
</svg>
