<svg width="35" height="41" viewBox="0 0 35 41" fill="none" xmlns="http://www.w3.org/2000/svg">
<path d="M2.4476 1V7.02111H1H0.875V7.14611V7.82239V7.94739H1H2.4476V13.529H1H0.875V13.654V14.3303V14.4553H1H2.4476V20.0369H1H0.875V20.1619V20.8381V20.9631H1H2.4476V26.5447H1H0.875V26.6697V27.346V27.471H1H2.4476V33.0526H1H0.875V33.1776V33.8539V33.9789H1H2.4476V40V40.125H2.5726H30.8044C32.6368 40.125 34.125 38.6187 34.125 36.7696V4.23132C34.125 2.42447 32.704 0.944921 30.9294 0.878281V0.875H30.8044H2.5726H2.4476V1ZM6.24533 34.5462H6.24525C5.68554 34.5466 5.22673 34.0849 5.22673 33.5152C5.22673 32.9449 5.68497 32.4837 6.24533 32.4837C6.80615 32.4837 7.26433 32.945 7.26433 33.5152C7.26433 34.0849 6.80614 34.5462 6.24533 34.5462ZM6.24533 28.0383H6.24525C5.68553 28.0387 5.22673 27.5771 5.22673 27.0073C5.22673 26.437 5.68497 25.9759 6.24533 25.9759C6.80615 25.9759 7.26433 26.4371 7.26433 27.0073C7.26433 27.5771 6.80614 28.0383 6.24533 28.0383ZM33.206 36.769C33.206 38.1097 32.1274 39.1981 30.8044 39.1981H3.36661V33.9782H4.36525C4.57175 34.8333 5.33343 35.4724 6.24508 35.4724C7.31485 35.4724 8.1831 34.5933 8.1831 33.5151C8.1831 32.437 7.31485 31.5574 6.24508 31.5574C5.33345 31.5574 4.57136 32.1969 4.3652 33.052H3.36661V27.4704H4.36525C4.57175 28.3254 5.33343 28.9646 6.24508 28.9646C7.31485 28.9646 8.1831 28.0854 8.1831 27.0073C8.1831 25.9291 7.31485 25.0495 6.24508 25.0495C5.33345 25.0495 4.57136 25.689 4.3652 26.5442H3.36661V20.9626H4.36525C4.57175 21.8176 5.33343 22.4567 6.24508 22.4567C7.31485 22.4567 8.1831 21.5776 8.1831 20.4994C8.1831 19.4213 7.31481 18.5421 6.24508 18.5421C5.33349 18.5421 4.57137 19.1812 4.3652 20.0363H3.36661V14.4547H4.36525C4.57174 15.3097 5.33339 15.9493 6.24508 15.9493C7.31488 15.9493 8.1831 15.0697 8.1831 13.9916C8.1831 12.9135 7.31481 12.0343 6.24508 12.0343C5.33349 12.0343 4.57137 12.6734 4.3652 13.5284H3.36661V7.94685H4.36525C4.57174 8.80188 5.33339 9.44147 6.24508 9.44147C7.31488 9.44147 8.1831 8.56182 8.1831 7.48375C8.1831 6.40559 7.31481 5.52642 6.24508 5.52642C5.33349 5.52642 4.57137 6.16551 4.3652 7.0206H3.36661V1.80078H30.8044C32.1274 1.80078 33.206 2.88954 33.206 4.22988V36.769ZM5.22673 20.4994C5.22673 19.9296 5.68495 19.4684 6.24533 19.4684C6.80618 19.4684 7.26433 19.9297 7.26433 20.4994C7.26433 21.0692 6.80614 21.5305 6.24533 21.5305C5.68548 21.5305 5.22673 21.0692 5.22673 20.4994ZM5.22673 13.9915C5.22673 13.4218 5.68495 12.9605 6.24533 12.9605C6.80618 12.9605 7.26433 13.4218 7.26433 13.9915C7.26433 14.5618 6.80612 15.023 6.24533 15.023C5.68553 15.023 5.22673 14.5613 5.22673 13.9915ZM5.22673 7.48367C5.22673 6.91388 5.68495 6.45263 6.24533 6.45263C6.80618 6.45263 7.26433 6.91391 7.26433 7.48367C7.26433 8.0539 6.80612 8.51511 6.24533 8.51511C5.68553 8.51511 5.22673 8.05345 5.22673 7.48367Z" fill="#545454" stroke="#5C5C5C" stroke-width="0.25"/>
<path d="M17.026 29.8269L17 29.8946L17.2438 36L21.4601 31.7379L31 6.84265L26.5405 5L17.026 29.8269ZM17.8417 34.4389L17.6833 30.4677L20.5849 31.6666L17.8417 34.4389ZM30.1418 7.22564L20.9944 31.0982L17.761 29.7622L26.9092 5.88969L30.1418 7.22564Z" fill="#3BB30B"/>
<path d="M11 6H24V7H11V6Z" fill="#606060"/>
<path d="M11 11H22V12H11V11Z" fill="#ABABAB"/>
<path d="M11 16H19V17H11V16Z" fill="#606060"/>
<path d="M11 20H18V21H11V20Z" fill="#AFAFAF"/>
<path d="M11 25H16V26H11V25Z" fill="#606060"/>
</svg>
