<svg width="21" height="21" viewBox="0 0 21 21" fill="none" xmlns="http://www.w3.org/2000/svg">
<path d="M13.8806 10.0762L15.0438 8.85084C16.6881 9.55984 18.3848 9.24469 19.6442 7.99308C20.9649 6.67138 21.201 4.39569 20.8599 2.85521C20.8336 2.73269 20.7462 2.63637 20.6237 2.6014C20.5013 2.56642 20.3789 2.6014 20.2914 2.68895L17.3703 5.62121C17.3091 5.68247 17.2391 5.70876 17.1516 5.70876C17.0729 5.70876 16.9942 5.67378 16.933 5.62121L15.4462 4.12447C15.3237 4.00195 15.3237 3.80939 15.4462 3.6868L18.3848 0.728317C18.4723 0.640769 18.5072 0.518247 18.4723 0.395711C18.4373 0.273186 18.3411 0.185641 18.2274 0.159358C16.6531 -0.208287 14.3529 0.0105453 13.0237 1.34102C11.7642 2.58387 11.4582 4.29932 12.1578 5.9449L10.9071 7.08274L5.18733 1.33219C5.13487 1.27969 5.07365 1.2534 5.01244 1.23588L0.403372 0.378125C0.289698 0.35191 0.175955 0.395649 0.0885452 0.474435C0.00982052 0.561983 -0.0163735 0.67575 0.0098205 0.789513L1.13801 5.14847C1.15552 5.20973 1.18172 5.26223 1.22549 5.30604L6.80535 10.9166L3.4993 13.6386C3.3506 13.7612 3.33309 13.9713 3.45559 14.1113C3.52556 14.1901 3.6218 14.2338 3.71797 14.2338C3.79669 14.2338 3.86666 14.2075 3.93663 14.155L7.28625 11.3892L9.85757 13.9801L4.30391 20.0109C4.17273 20.1159 3.07949 20.8774 1.58402 19.3806C0.132183 17.9102 0.936854 16.851 1.04178 16.7373L2.14371 15.7482C2.28365 15.6257 2.2924 15.4069 2.16997 15.2668C2.04754 15.1268 1.82888 15.118 1.68895 15.2405L0.560756 16.2383L0.534492 16.2646C0.035953 16.8073 -0.497542 18.2602 1.08548 19.8533C1.9513 20.7198 2.73848 20.9737 3.35929 20.9737C4.19892 20.9737 4.73241 20.5185 4.74116 20.5098L4.76742 20.4835L10.3211 14.4616L15.9971 20.1772C16.5218 20.7112 17.2303 21 17.9738 21C18.7172 21 19.4256 20.7111 19.9504 20.1772C21.0437 19.0831 21.0437 17.2974 19.9504 16.2034L13.8806 10.0762ZM12.7961 6.27751C12.9098 6.1725 12.9361 6.01492 12.8748 5.87488C12.1664 4.42188 12.4026 2.89884 13.4958 1.80481C14.2129 1.0871 15.7085 0.483104 17.4403 0.701929L14.9564 3.19643C14.5716 3.58153 14.5716 4.203 14.9564 4.5881L16.4432 6.08484C16.6269 6.26862 16.8718 6.3737 17.1429 6.3737C17.4053 6.3737 17.6502 6.2687 17.8426 6.08484L20.2914 3.62525C20.4663 5.3233 19.8628 6.79375 19.1544 7.50285C18.0612 8.60573 16.5481 8.84201 15.1051 8.1243C14.974 8.06304 14.8165 8.08933 14.7116 8.19433L13.391 9.5773L11.3794 7.55547L12.7961 6.27751ZM19.4867 19.6955C19.0844 20.0982 18.5509 20.317 17.9911 20.317C17.4226 20.317 16.8979 20.0981 16.4956 19.6955L1.7764 4.88572L0.796841 1.13945L4.77618 1.88344L19.4867 16.6846C20.3176 17.5073 20.3176 18.8639 19.4867 19.6955L19.4867 19.6955Z" fill="#5B5B5B"/>
<path d="M2.71394 2.12071C2.5523 1.95976 2.28288 1.95976 2.12123 2.12071C1.95959 2.28167 1.95959 2.54994 2.12123 2.71089L18.2968 18.8819C18.383 18.9678 18.4908 19 18.5878 19C18.6956 19 18.8033 18.9571 18.8788 18.8819C19.0404 18.721 19.0404 18.4527 18.8788 18.2917L2.71394 2.12071Z" fill="#3BB30B"/>
</svg>
