<svg width="33" height="33" viewBox="0 0 33 33" fill="none" xmlns="http://www.w3.org/2000/svg">
<path d="M3.84309 32.2276H26.1139C26.9344 32.2276 27.7212 31.9013 28.3012 31.3205C28.8813 30.7397 29.207 29.9521 29.207 29.1308V19.1672C29.207 18.739 28.9788 18.3432 28.6083 18.129C28.2377 17.9147 27.781 17.9147 27.4104 18.129C27.0398 18.3432 26.8116 18.7389 26.8116 19.1672V29.1308C26.8116 29.3163 26.7381 29.494 26.6073 29.6252C26.4763 29.7562 26.2989 29.8298 26.1139 29.8298H3.84309C3.65814 29.8298 3.48073 29.7562 3.34974 29.6252C3.2189 29.494 3.14539 29.3163 3.14539 29.1308V6.83118C3.14539 6.64576 3.2189 6.46801 3.34974 6.33686C3.48073 6.20579 3.65815 6.13225 3.84309 6.13225H13.7939C14.222 6.13225 14.6173 5.90354 14.8312 5.53268C15.0451 5.16182 15.045 4.70484 14.8312 4.33398L14.6146 4.45887L14.8312 4.33398C14.6173 3.96311 14.222 3.73441 13.7939 3.73441H3.84309C3.02261 3.73441 2.23584 4.06067 1.65578 4.6415C1.07574 5.22231 0.75 6.00992 0.75 6.83117V29.1308C0.75 29.9521 1.07572 30.7397 1.65579 31.3205C2.23586 31.9013 3.02261 32.2276 3.84309 32.2276Z" fill="#B4B4B4" stroke="#B4B4B4" stroke-width="0.5"/>
<path d="M21.9393 3.31865C21.513 3.31696 21.1198 3.08858 20.9067 2.71908C20.6929 2.34822 20.6929 1.89124 20.9067 1.52038C21.1205 1.14968 21.5156 0.921008 21.9435 0.920811L21.943 0.920813L21.944 1.17081V0.920811L29.9036 0.887575L29.9047 0.887571C30.3328 0.887573 30.7281 1.11628 30.9419 1.48715L30.7284 1.6103L30.9419 1.48715C31.1558 1.858 31.1558 2.31498 30.9419 2.68585C30.7281 3.05656 30.333 3.28524 29.9052 3.28542L29.9057 3.28541L21.9393 3.31865ZM21.9393 3.31865V3.31865H21.944L21.9393 3.31865ZM21.944 3.31864L29.9047 3.28542L21.944 3.06865V3.31864Z" fill="#3BB30B" stroke="#3BB30B" stroke-width="0.5"/>
<path d="M30.0053 11.9491L30.0052 11.949C29.7809 11.7242 29.6548 11.4196 29.6546 11.102L29.6546 11.1026L29.9046 11.1013H29.6546L30.0053 11.9491ZM30.0053 11.9491C30.23 12.1739 30.5346 12.3002 30.8523 12.3002C31.1701 12.3002 31.4747 12.1739 31.6993 11.9491L31.6995 11.949C31.9239 11.724 32.05 11.4192 32.05 11.1013L32.05 11.1L32.0073 2.67488L30.0053 11.9491Z" fill="#3BB30B" stroke="#3BB30B" stroke-width="0.5"/>
<path d="M20.7454 13.5623C21.0617 13.5625 21.3651 13.4374 21.5896 13.2145L21.5903 13.2138L30.9014 3.89063L30.9017 3.89086L30.9102 3.8814C31.1876 3.57381 31.2865 3.14491 31.1723 2.74686L31.1723 2.74682C31.058 2.34882 30.7464 2.03777 30.3481 1.92468C29.9498 1.8116 29.5216 1.91237 29.2153 2.19107L29.2151 2.19086L29.2067 2.1993L19.9004 11.5177C19.6756 11.7426 19.5493 12.0476 19.5493 12.3658C19.5493 12.6838 19.6755 12.989 19.9004 13.2139L19.9011 13.2145C20.1255 13.4374 20.4291 13.5625 20.7454 13.5623ZM20.7454 13.5623C20.7453 13.5623 20.7452 13.5623 20.7452 13.5623L20.7454 13.3123L20.7456 13.5623C20.7456 13.5623 20.7455 13.5623 20.7454 13.5623Z" fill="#3BB30B" stroke="#3BB30B" stroke-width="0.5"/>
<path d="M30.6866 3.11944C31.3405 3.11944 31.8701 2.58869 31.8701 1.93472C31.8701 1.28071 31.3405 0.75 30.6866 0.75C30.0326 0.75 29.5031 1.28074 29.5031 1.93472C29.5031 2.58873 30.0326 3.11944 30.6866 3.11944Z" fill="#3BB30B" stroke="#3BB30B" stroke-width="0.5"/>
</svg>
