<svg width="30" height="32" viewBox="0 0 30 32" fill="none" xmlns="http://www.w3.org/2000/svg">
<path d="M21.2913 20.5696L19.1261 22.3739L25.9826 30.3131L27.4261 30.6739L28.5087 29.5913V28.5087L21.2913 20.5696Z" fill="#7A7474"/>
<path d="M12.45 2.075C6.72937 2.075 2.075 6.72937 2.075 12.45C2.075 18.1706 6.72937 22.825 12.45 22.825C18.1706 22.825 22.825 18.1706 22.825 12.45C22.825 6.72937 18.1706 2.075 12.45 2.075ZM12.45 21.7875C7.47637 21.7875 3.41019 17.8757 3.13906 12.9688H7.26306C7.4363 12.9688 7.59818 12.8821 7.69471 12.7379L9.27376 10.3687L11.9863 15.7944C12.0646 15.9511 12.2166 16.0575 12.3904 16.0777C12.41 16.0803 12.4303 16.0814 12.45 16.0814C12.603 16.0814 12.7494 16.0139 12.8484 15.8946L15.2865 12.9689H18.6751C18.9619 12.9689 19.1938 12.7365 19.1938 12.4501C19.1938 12.1637 18.9619 11.9314 18.6751 11.9314H15.0438C14.8897 11.9314 14.744 11.9999 14.6455 12.1181L12.5596 14.6211L9.80242 9.10519C9.71942 8.93972 9.55493 8.83079 9.37035 8.81933C9.18727 8.80745 9.00875 8.89563 8.9066 9.0491L6.98559 11.9314H3.13909C3.41036 7.02445 7.4764 3.11266 12.45 3.11266C17.5985 3.11266 21.7875 7.30167 21.7875 12.4502C21.7875 17.5987 17.5985 21.7875 12.45 21.7875Z" fill="#545454"/>
<path d="M12.45 2.075C6.72937 2.075 2.075 6.72937 2.075 12.45C2.075 18.1706 6.72937 22.825 12.45 22.825C18.1706 22.825 22.825 18.1706 22.825 12.45C22.825 6.72937 18.1706 2.075 12.45 2.075ZM12.45 21.7875C7.47637 21.7875 3.41019 17.8757 3.13906 12.9688H7.26306C7.4363 12.9688 7.59818 12.8821 7.69471 12.7379L9.27376 10.3687L11.9863 15.7944C12.0646 15.9511 12.2166 16.0575 12.3904 16.0777C12.41 16.0803 12.4303 16.0814 12.45 16.0814C12.603 16.0814 12.7494 16.0139 12.8484 15.8946L15.2865 12.9689H18.6751C18.9619 12.9689 19.1938 12.7365 19.1938 12.4501C19.1938 12.1637 18.9619 11.9314 18.6751 11.9314H15.0438C14.8897 11.9314 14.744 11.9999 14.6455 12.1181L12.5596 14.6211L9.80242 9.10519C9.71942 8.93972 9.55493 8.83079 9.37035 8.81933C9.18727 8.80745 9.00875 8.89563 8.9066 9.0491L6.98559 11.9314H3.13909C3.41036 7.02445 7.4764 3.11266 12.45 3.11266C17.5985 3.11266 21.7875 7.30167 21.7875 12.4502C21.7875 17.5987 17.5985 21.7875 12.45 21.7875ZM28.5379 27.6811L22.0929 20.3143C23.8463 18.1687 24.9 15.4303 24.9 12.45C24.9 5.58535 19.3147 0 12.45 0C5.58535 0 0 5.58535 0 12.45C0 19.3147 5.58535 24.9 12.45 24.9C14.8373 24.9 17.069 24.2236 18.9655 23.0538L25.4135 30.4206C25.8078 30.8683 26.3773 31.125 26.975 31.125C27.4813 31.125 27.9673 30.9429 28.345 30.612C29.2025 29.8578 29.2891 28.5428 28.5379 27.6811ZM1.0375 12.45C1.0375 6.15694 6.15694 1.0375 12.45 1.0375C18.7431 1.0375 23.8625 6.15694 23.8625 12.45C23.8625 18.7431 18.7431 23.8625 12.45 23.8625C6.15694 23.8625 1.0375 18.7431 1.0375 12.45ZM27.6603 29.8321C27.251 30.1906 26.5554 30.1475 26.1933 29.7356L19.8319 22.4682C20.3916 22.0547 20.9146 21.5941 21.3975 21.0946L27.7564 28.3637C28.1331 28.7958 28.0893 29.4546 27.6603 29.8321Z" fill="#545454"/>
<path d="M12.45 2.075C6.72932 2.075 2.07495 6.72936 2.07495 12.45C2.07495 18.1706 6.72932 22.825 12.45 22.825C18.1706 22.825 22.825 18.1706 22.825 12.45C22.825 6.72936 18.1706 2.075 12.45 2.075ZM12.45 21.7875C7.47632 21.7875 3.41015 17.8757 3.13901 12.9688H7.26301C7.43625 12.9688 7.59813 12.8821 7.69466 12.7379L9.27371 10.3687L11.9862 15.7944C12.0646 15.9511 12.2165 16.0575 12.3903 16.0777C12.41 16.0803 12.4303 16.0814 12.45 16.0814C12.603 16.0814 12.7493 16.0139 12.8483 15.8946L15.2864 12.9689H18.675C18.9619 12.9689 19.1938 12.7365 19.1938 12.4501C19.1938 12.1637 18.9619 11.9314 18.675 11.9314H15.0438C14.8897 11.9314 14.744 11.9999 14.6455 12.1181L12.5595 14.6211L9.80237 9.10518C9.71937 8.93972 9.55488 8.83078 9.3703 8.81933C9.18722 8.80744 9.0087 8.89563 8.90655 9.04909L6.98554 11.9314H3.13904C3.41031 7.02445 7.47635 3.11266 12.45 3.11266C17.5985 3.11266 21.7875 7.30167 21.7875 12.4502C21.7875 17.5987 17.5984 21.7875 12.45 21.7875Z" fill="#A8A8A8"/>
<path d="M7.26303 12.9688H3.13904L3.13907 11.9314H6.98557L8.90658 9.0491C9.00872 8.89563 9.18725 8.80745 9.37033 8.81933C9.55491 8.83079 9.7194 8.93973 9.8024 9.10519L12.5595 14.6211L14.6455 12.1181C14.744 11.9999 14.8897 11.9314 15.0438 11.9314H18.6751C18.9619 11.9314 19.1938 12.1637 19.1938 12.4501C19.1938 12.7365 18.9619 12.9689 18.6751 12.9689H15.2865L12.8483 15.8946C12.7493 16.0139 12.603 16.0814 12.45 16.0814C12.4303 16.0814 12.41 16.0803 12.3903 16.0777C12.2166 16.0575 12.0646 15.9511 11.9863 15.7944L9.27374 10.3687L7.69469 12.7379C7.59816 12.8821 7.43627 12.9688 7.26303 12.9688Z" fill="#3BB30B"/>
</svg>
