<svg width="40" height="38" viewBox="0 0 40 38" fill="none" xmlns="http://www.w3.org/2000/svg">
<path d="M21.735 15.4304C21.1425 15.2695 20.5303 15.1921 19.9164 15.2C19.3583 15.2091 18.8036 15.2875 18.2647 15.4333C18.13 15.4693 18.011 15.5489 17.9261 15.6594C17.8411 15.7701 17.795 15.9058 17.795 16.0452V16.7324C17.7969 16.7718 17.7766 16.8092 17.7425 16.8291C17.4658 16.9543 17.2002 17.1023 16.9484 17.272C16.8992 17.2951 16.8415 17.2917 16.7953 17.263L16.1797 16.9195H16.1795C16.0616 16.8535 15.9257 16.8271 15.7916 16.844C15.6576 16.861 15.5325 16.9204 15.4346 17.0134C14.5935 17.8098 13.9889 18.8234 13.6881 19.9418C13.6518 20.078 13.662 20.2223 13.7169 20.352C13.7718 20.4817 13.8685 20.5894 13.9914 20.6581L14.6773 21.0413C14.6435 21.3681 14.6435 21.6977 14.6773 22.0247L13.9914 22.4078C13.8685 22.4766 13.772 22.5842 13.7171 22.7139C13.6622 22.8436 13.6521 22.988 13.6884 23.124C13.9883 24.2427 14.5914 25.2567 15.4313 26.0543C15.5292 26.1474 15.6544 26.2068 15.7885 26.2237C15.9225 26.2406 16.0586 26.2142 16.1765 26.1484L16.7956 25.8029C16.8418 25.774 16.8993 25.7709 16.9484 25.7942C17.2001 25.9638 17.4658 26.1117 17.7425 26.2365C17.7766 26.2567 17.7969 26.294 17.795 26.3336V27.0235C17.795 27.163 17.8411 27.2985 17.9261 27.4092C18.011 27.5199 18.13 27.5993 18.2647 27.6355C18.8325 27.7877 19.4176 27.8653 20.0054 27.8661C20.0314 27.8661 20.0574 27.8661 20.0833 27.8658H20.0834C20.6414 27.8567 21.1962 27.7784 21.735 27.6326C21.8697 27.5966 21.9888 27.517 22.0737 27.4064C22.1587 27.2957 22.2047 27.1601 22.2047 27.0206V26.3335C22.2029 26.2942 22.2228 26.2569 22.2566 26.2368C22.5337 26.1119 22.7995 25.9638 23.0514 25.7938C23.1005 25.7708 23.158 25.7742 23.2042 25.8028L23.8198 26.1467V26.1468C23.9379 26.2126 24.0739 26.239 24.2081 26.2221C24.3423 26.2051 24.4674 26.1456 24.5654 26.0525C25.4062 25.2558 26.0106 24.2424 26.3117 23.124C26.3479 22.9879 26.3379 22.8435 26.2829 22.7138C26.228 22.5841 26.1313 22.4763 26.0083 22.4078L25.3221 22.0247C25.3563 21.6977 25.3563 21.3681 25.3221 21.0412L26.008 20.658C26.1311 20.5894 26.2276 20.4818 26.2825 20.3521C26.3375 20.2224 26.3477 20.078 26.3114 19.9418C26.0114 18.8232 25.4083 17.8091 24.5685 17.0116C24.4706 16.9184 24.3453 16.859 24.2113 16.8421C24.0771 16.8253 23.9412 16.8516 23.8233 16.9175L23.2042 17.2629H23.2041C23.1583 17.2926 23.1004 17.296 23.0514 17.2719C22.7997 17.1022 22.534 16.9542 22.2573 16.8293C22.2231 16.8093 22.2029 16.772 22.2046 16.7322V16.0424C22.2046 15.903 22.1586 15.7673 22.0737 15.6568C21.9888 15.5461 21.8697 15.4665 21.735 15.4304ZM22.3433 18.3221C22.5618 18.4647 22.8153 18.5444 23.076 18.5527C23.3367 18.5609 23.5947 18.4973 23.8217 18.3688L24.0141 18.2616V18.2614C24.4129 18.7158 24.7263 19.2387 24.939 19.8046L24.3236 20.1482C24.2075 20.213 24.1146 20.3127 24.0584 20.4333C24.002 20.5539 23.9852 20.6892 24.0101 20.8198C24.1048 21.2905 24.1048 21.7753 24.0101 22.2461C23.9852 22.3767 24.002 22.5119 24.0582 22.6325C24.1146 22.7531 24.2073 22.8528 24.3236 22.9176L24.939 23.2612C24.7251 23.8268 24.4108 24.3491 24.0113 24.8028L23.8221 24.697C23.5947 24.5688 23.3367 24.5053 23.0758 24.5135C22.815 24.5218 22.5614 24.6015 22.3426 24.744C22.1502 24.8739 21.9471 24.987 21.7353 25.0824C21.4964 25.1925 21.2942 25.369 21.1528 25.5908C21.0115 25.8126 20.9369 26.0705 20.9381 26.3335V26.5141C20.6509 26.5665 20.3598 26.595 20.068 26.5992C19.7307 26.6028 19.3937 26.5749 19.0616 26.516V26.3335C19.0628 26.0704 18.9882 25.8124 18.8467 25.5905C18.7053 25.3686 18.5029 25.1921 18.2638 25.082C18.0524 24.9869 17.8493 24.8739 17.6571 24.7444C17.4386 24.6015 17.185 24.5214 16.9242 24.5131C16.6633 24.5048 16.4051 24.5684 16.1781 24.697L15.9857 24.8043V24.8044C15.5868 24.35 15.2735 23.8271 15.0608 23.2612L15.6762 22.9176C15.7921 22.8528 15.8849 22.7531 15.9411 22.6328C15.9973 22.5123 16.0142 22.3772 15.9894 22.2466C15.8949 21.7755 15.8949 21.2903 15.9894 20.8192C16.0142 20.6886 15.9973 20.5535 15.941 20.433C15.8848 20.3126 15.7919 20.2129 15.6758 20.1482L15.0607 19.8046H15.0608C15.2744 19.2389 15.5887 18.7167 15.9885 18.263L16.1774 18.3684C16.4045 18.497 16.6625 18.5606 16.9234 18.5524C17.1843 18.5443 17.4378 18.4646 17.6565 18.3221C17.8491 18.1924 18.0523 18.079 18.2638 17.9834C18.5029 17.8735 18.7052 17.6971 18.8467 17.4752C18.9881 17.2534 19.0628 16.9954 19.0616 16.7323V16.5517C19.3489 16.4993 19.6399 16.4708 19.9318 16.4666C20.2692 16.4625 20.606 16.4904 20.9381 16.5499V16.7323C20.9369 16.9954 21.0116 17.2534 21.153 17.4753C21.2945 17.6972 21.4969 17.8738 21.736 17.9838C21.9476 18.0792 22.1508 18.1924 22.3433 18.3221Z" fill="#A9A9A9"/>
<path d="M16.8334 21.5328C16.8334 22.3726 17.1671 23.1782 17.7608 23.772C18.3547 24.3658 19.1602 24.6994 20 24.6994C20.8398 24.6994 21.6453 24.3658 22.2391 23.772C22.8329 23.1782 23.1665 22.3726 23.1665 21.5328C23.1665 20.6931 22.8329 19.8875 22.2391 19.2937C21.6453 18.6999 20.8398 18.3663 20 18.3663C19.1604 18.3672 18.3556 18.7011 17.762 19.2949C17.1682 19.8885 16.8343 20.6933 16.8334 21.5328ZM21.8999 21.5328C21.8999 22.0367 21.6998 22.52 21.3434 22.8763C20.9871 23.2326 20.5038 23.4328 20 23.4328C19.4961 23.4328 19.0128 23.2326 18.6565 22.8763C18.3002 22.52 18.1 22.0367 18.1 21.5328C18.1 21.029 18.3002 20.5457 18.6565 20.1894C19.0128 19.8331 19.4961 19.6329 20 19.6329C20.5037 19.6334 20.9866 19.8338 21.3429 20.1899C21.699 20.5462 21.8994 21.0291 21.8999 21.5328Z" fill="#454545"/>
<path d="M6.70036 30.7161C7.12034 30.7161 7.52299 30.5493 7.81989 30.2524C8.11689 29.9555 8.28365 29.5528 8.28365 29.1328C8.28365 28.7128 8.11688 28.3102 7.81989 28.0133C7.52303 27.7163 7.12034 27.5495 6.70036 27.5495C6.28038 27.5495 5.87772 27.7163 5.58082 28.0133C5.28382 28.3102 5.11707 28.7128 5.11707 29.1328C5.11759 29.5525 5.2845 29.9551 5.58136 30.2518C5.8781 30.5487 6.28065 30.7156 6.70036 30.7161ZM6.70036 28.8162C6.82847 28.8162 6.94392 28.8934 6.99287 29.0117C7.04195 29.1299 7.01478 29.2662 6.92427 29.3567C6.83375 29.4472 6.69746 29.4744 6.57923 29.4253C6.46088 29.3764 6.3837 29.2609 6.3837 29.1328C6.38383 28.958 6.52554 28.8163 6.70036 28.8162Z" fill="#4DBCD5"/>
<path d="M6.70029 35.4658C8.37991 35.4658 9.99077 34.7986 11.1784 33.6109C12.3662 32.4231 13.0334 30.8123 13.0334 29.1327C13.0334 27.4532 12.3662 25.8422 11.1784 24.6546C9.9907 23.4668 8.37985 22.7996 6.70029 22.7996C5.02073 22.7996 3.40981 23.4668 2.22215 24.6546C1.03442 25.8423 0.367188 27.4532 0.367188 29.1327C0.369035 30.8118 1.03692 32.4216 2.22424 33.6088C3.41143 34.7962 5.02127 35.4641 6.70036 35.4659L6.70029 35.4658ZM6.70029 24.0661C8.04397 24.0661 9.33279 24.6 10.283 25.5501C11.2332 26.5002 11.767 27.789 11.767 29.1328C11.767 30.4766 11.2331 31.7653 10.283 32.7155C9.3329 33.6657 8.0441 34.1995 6.70029 34.1995C5.35648 34.1995 4.06779 33.6656 3.11757 32.7155C2.16736 31.7654 1.63362 30.4766 1.63362 29.1328C1.6352 27.7895 2.16942 26.5017 3.11926 25.5518C4.0691 24.6018 5.35685 24.0677 6.70029 24.0661Z" fill="#454545"/>
<path d="M33.2997 22.7995C31.62 22.7995 30.0092 23.4667 28.8215 24.6544C27.6338 25.8422 26.9666 27.453 26.9666 29.1326C26.9666 30.8121 27.6338 32.4231 28.8215 33.6107C30.0092 34.7985 31.6201 35.4657 33.2997 35.4657C34.9792 35.4657 36.5901 34.7985 37.7778 33.6107C38.9655 32.423 39.6328 30.8121 39.6328 29.1326C39.6309 27.4535 38.963 25.8437 37.7757 24.6565C36.5885 23.4691 34.9787 22.8012 33.2996 22.7994L33.2997 22.7995ZM33.2997 34.1992C31.956 34.1992 30.6672 33.6653 29.7169 32.7152C28.7667 31.7651 28.233 30.4763 28.233 29.1325C28.233 27.7887 28.7668 26.5 29.7169 25.5498C30.667 24.5996 31.9558 24.0658 33.2997 24.0658C34.6435 24.0658 35.9322 24.5997 36.8824 25.5498C37.8326 26.4999 38.3663 27.7887 38.3663 29.1325C38.3647 30.4758 37.8305 31.7636 36.8807 32.7135C35.9308 33.6635 34.6431 34.1976 33.2997 34.1992Z" fill="#454545"/>
<path d="M31.0828 29.1327C30.6628 29.1327 30.2602 29.2994 29.9633 29.5964C29.6663 29.8933 29.4995 30.296 29.4995 30.7159C29.4995 31.1359 29.6663 31.5386 29.9633 31.8355C30.2601 32.1325 30.6628 32.2992 31.0828 32.2992C31.5028 32.2992 31.9054 32.1325 32.2023 31.8355C32.4993 31.5386 32.6661 31.1359 32.6661 30.7159C32.6656 30.2962 32.4987 29.8937 32.2018 29.5969C31.9051 29.3001 31.5025 29.1332 31.0828 29.1327ZM31.0828 31.0326C30.9547 31.0326 30.8392 30.9554 30.7903 30.8371C30.7412 30.7188 30.7684 30.5826 30.8589 30.492C30.9494 30.4015 31.0857 30.3743 31.2039 30.4234C31.3223 30.4724 31.3995 30.5878 31.3995 30.7159C31.3993 30.8908 31.2576 31.0325 31.0828 31.0326Z" fill="#6943D2"/>
<path d="M35.517 29.1327C35.097 29.1327 34.6944 29.2994 34.3975 29.5964C34.1005 29.8933 33.9337 30.296 33.9337 30.7159C33.9337 31.1359 34.1005 31.5386 34.3975 31.8355C34.6943 32.1325 35.097 32.2992 35.517 32.2992C35.937 32.2992 36.3396 32.1325 36.6365 31.8355C36.9335 31.5386 37.1003 31.1359 37.1003 30.7159C37.0998 30.2962 36.9329 29.8937 36.636 29.5969C36.3393 29.3001 35.9367 29.1332 35.517 29.1327ZM35.517 31.0326C35.3889 31.0326 35.2734 30.9554 35.2245 30.8371C35.1754 30.7188 35.2026 30.5826 35.2931 30.492C35.3836 30.4015 35.5199 30.3743 35.6381 30.4234C35.7565 30.4724 35.8337 30.5878 35.8337 30.7159C35.8335 30.8908 35.6918 31.0325 35.517 31.0326Z" fill="#3BB30B"/>
<path d="M34.882 26.9162C34.882 26.4962 34.7153 26.0936 34.4183 25.7967C34.1214 25.4997 33.7187 25.3329 33.2987 25.3329C32.8788 25.3329 32.4761 25.4997 32.1792 25.7967C31.8822 26.0935 31.7155 26.4962 31.7155 26.9162C31.7155 27.3362 31.8822 27.7388 32.1792 28.0357C32.4761 28.3327 32.8788 28.4995 33.2987 28.4995C33.7185 28.499 34.121 28.3321 34.4177 28.0352C34.7146 27.7385 34.8815 27.3359 34.882 26.9162ZM33.2987 27.2329C33.1706 27.2329 33.0552 27.1557 33.0062 27.0373C32.9572 26.9191 32.9843 26.7828 33.0748 26.6923C33.1654 26.6018 33.3016 26.5746 33.4199 26.6237C33.5382 26.6726 33.6154 26.7881 33.6154 26.9162C33.6153 27.091 33.4736 27.2327 33.2987 27.2329Z" fill="#9F9F9F"/>
<path d="M19.9998 6.75167e-05C18.3202 6.75167e-05 16.7094 0.667297 15.5217 1.85503C14.334 3.04276 13.6667 4.65361 13.6667 6.33317C13.6667 8.01273 14.334 9.62365 15.5217 10.8113C16.7094 11.999 18.3203 12.6663 19.9998 12.6663C21.6794 12.6663 23.2903 11.999 24.478 10.8113C25.6657 9.62358 26.333 8.01273 26.333 6.33317C26.3311 4.65409 25.6632 3.04428 24.4759 1.85705C23.2887 0.669728 21.6789 0.00182395 19.9998 0L19.9998 6.75167e-05ZM19.9998 11.3998C18.6562 11.3998 17.3673 10.8659 16.4171 9.91582C15.4669 8.96571 14.9332 7.67692 14.9332 6.3331C14.9332 4.98929 15.467 3.7006 16.4171 2.75039C17.3672 1.80017 18.656 1.26643 19.9998 1.26643C21.3437 1.26643 22.6324 1.80028 23.5826 2.75039C24.5328 3.7005 25.0665 4.98929 25.0665 6.3331C25.0649 7.67641 24.5307 8.96416 23.5809 9.91413C22.631 10.8641 21.3433 11.3982 19.9998 11.3998Z" fill="#454545"/>
<path d="M17.7835 4.74978C17.3635 4.74978 16.9609 4.91655 16.664 5.21354C16.367 5.5104 16.2002 5.91309 16.2002 6.33307C16.2002 6.75305 16.367 7.15571 16.664 7.45261C16.9608 7.74961 17.3635 7.91636 17.7835 7.91636C18.2035 7.91636 18.6061 7.74959 18.903 7.45261C19.2 7.15574 19.3668 6.75305 19.3668 6.33307C19.3663 5.91336 19.1993 5.51081 18.9025 5.21408C18.6057 4.91721 18.2032 4.75032 17.7835 4.74978ZM17.7835 6.64973C17.6554 6.64973 17.5399 6.57254 17.491 6.45419C17.4419 6.33597 17.4691 6.19968 17.5596 6.10916C17.6501 6.01865 17.7864 5.99147 17.9046 6.04055C18.023 6.0895 18.1002 6.20495 18.1002 6.33307C18.1 6.50789 17.9583 6.6496 17.7835 6.64973Z" fill="#6943D2"/>
<path d="M22.2163 4.74978C21.7964 4.74978 21.3937 4.91655 21.0968 5.21354C20.7998 5.5104 20.6331 5.91309 20.6331 6.33307C20.6331 6.75305 20.7998 7.15571 21.0968 7.45261C21.3937 7.74961 21.7964 7.91636 22.2163 7.91636C22.6363 7.91636 23.039 7.74959 23.3359 7.45261C23.6329 7.15574 23.7996 6.75305 23.7996 6.33307C23.7991 5.91336 23.6322 5.51081 23.3353 5.21408C23.0386 4.91721 22.6361 4.75032 22.2163 4.74978ZM22.2163 6.64973C22.0882 6.64973 21.9728 6.57254 21.9238 6.45419C21.8748 6.33597 21.9019 6.19968 21.9924 6.10916C22.083 6.01865 22.2192 5.99147 22.3375 6.04055C22.4558 6.0895 22.533 6.20495 22.533 6.33307C22.5329 6.50789 22.3912 6.6496 22.2163 6.64973Z" fill="#3BB30B"/>
<path d="M12.0965 8.54698L11.4371 7.46585H11.4373C9.01669 8.92788 7.01621 10.9922 5.63102 13.4575C4.2459 15.9228 3.52328 18.7051 3.53368 21.5329H4.80031C4.79081 18.9225 5.45792 16.3539 6.73654 14.078C8.0153 11.8022 9.86195 9.89644 12.0963 8.54671L12.0965 8.54698Z" fill="#737373"/>
<path d="M11.4369 35.6009C14.0175 37.1701 16.9797 38 20 38C23.0203 38 25.9826 37.1701 28.5631 35.6009L27.9032 34.5198V34.5199C25.5212 35.9677 22.7873 36.7334 19.9997 36.7334C17.2122 36.7334 14.4782 35.9677 12.0962 34.5199L11.4369 35.6009Z" fill="#737373"/>
<path d="M35.1996 21.5328H36.4662C36.4708 18.7812 35.7838 16.0725 34.4684 13.6557C33.1529 11.2388 31.2511 9.19144 28.9377 7.7012L28.2494 8.7644C30.3849 10.1399 32.1405 12.0299 33.3548 14.2609C34.5693 16.4919 35.2035 18.9924 35.1994 21.5327L35.1996 21.5328Z" fill="#737373"/>
</svg>
