<svg width="29" height="28" viewBox="0 0 29 28" fill="none" xmlns="http://www.w3.org/2000/svg">
<path d="M25.4112 1.1089H23.4729V0.693076C23.4729 0.445536 23.336 0.216719 23.114 0.0928766C22.8919 -0.0309662 22.6183 -0.0309515 22.3961 0.0928766C22.1741 0.216705 22.0373 0.445539 22.0373 0.693076V1.1089H6.96273V0.693076C6.96273 0.445536 6.82599 0.216719 6.60394 0.0928766C6.38177 -0.0309515 6.10815 -0.0309515 5.88611 0.0928766C5.66406 0.216705 5.52719 0.445539 5.52719 0.693076V1.1089H3.58884C2.63738 1.11006 1.72525 1.47552 1.05243 2.12505C0.379713 2.77469 0.00119445 3.65534 0 4.57399V24.5349C0.00107672 25.4536 0.379621 26.3344 1.05231 26.984C1.72516 27.6335 2.63738 27.999 3.58884 28H25.4112C26.3626 27.999 27.2749 27.6336 27.9477 26.984C28.6205 26.3344 28.9989 25.4536 29 24.5349V4.57399C28.9989 3.65534 28.6204 2.77454 27.9477 2.12493C27.2748 1.4754 26.3626 1.10994 25.4112 1.1089H25.4112ZM27.5646 24.5347L27.5645 24.5348C27.5639 25.0859 27.3368 25.6143 26.933 26.0041C26.5294 26.3939 25.982 26.6132 25.4112 26.6137H3.5889C3.01811 26.6132 2.47077 26.3939 2.06711 26.0041C1.66332 25.6143 1.43625 25.0859 1.43567 24.5348V7.20771H27.5641L27.5646 24.5347ZM27.5646 5.82161L1.43579 5.82173V4.57398C1.43639 4.02287 1.66346 3.49441 2.06723 3.10467C2.47089 2.7148 3.01823 2.49557 3.58902 2.495H5.52737V2.91083C5.52737 3.15837 5.66424 3.38719 5.88629 3.51103C6.10834 3.63487 6.38196 3.63486 6.60412 3.51103C6.82617 3.3872 6.96292 3.15837 6.96292 2.91083V2.495H22.0375V2.91083C22.0375 3.15837 22.1743 3.38719 22.3963 3.51103C22.6185 3.63486 22.8921 3.63486 23.1141 3.51103C23.3362 3.3872 23.4731 3.15837 23.4731 2.91083V2.495H25.4114C25.9822 2.49558 26.5295 2.71482 26.9332 3.10467C27.337 3.49441 27.5641 4.02287 27.5646 4.57398L27.5646 5.82161Z" fill="#696969"/>
<path d="M19.2258 16.8772C19.0696 16.8205 18.968 16.6863 18.9688 16.5378V14.9738C18.9679 14.1701 18.6869 13.3858 18.1638 12.7264C17.6407 12.0671 16.9004 11.5642 16.0424 11.2857C16.0142 10.8183 15.7141 10.3968 15.2483 10.1701C14.7825 9.94331 14.2167 9.9433 13.7509 10.1701C13.2852 10.3968 12.9851 10.8183 12.9568 11.2857C12.0984 11.5639 11.3577 12.0666 10.834 12.726C10.3104 13.3853 10.0292 14.1698 10.0281 14.9738V16.5378C10.0288 16.6862 9.92743 16.8203 9.7714 16.8772C9.257 17.0551 8.81404 17.3631 8.49888 17.7623C8.18371 18.1614 8.01026 18.6338 8.00059 19.1196C7.98512 19.776 8.27346 20.4099 8.79958 20.876C9.33861 21.3566 10.0739 21.6278 10.8418 21.6294H12.9524V21.6401C12.9524 22.126 13.2473 22.5749 13.7261 22.8179C14.2048 23.0607 14.7947 23.0607 15.2735 22.8179C15.7523 22.5749 16.0472 22.126 16.0472 21.6401V21.6294H18.1583H18.1582C18.926 21.6278 19.661 21.3565 20.1999 20.876C20.7263 20.41 21.0148 19.7761 20.9994 19.1196C20.9894 18.6335 20.8155 18.1611 20.4997 17.7619C20.184 17.3627 19.7407 17.0549 19.2258 16.8772ZM19.0927 19.924C18.846 20.1457 18.5078 20.2702 18.1551 20.2694H10.8403C10.4874 20.2702 10.1491 20.1457 9.90227 19.924C9.66873 19.7174 9.54002 19.4365 9.5457 19.1452C9.55009 18.9278 9.62772 18.7166 9.76879 18.538C9.90974 18.3594 10.1078 18.2216 10.338 18.1419C10.7038 18.015 11.0176 17.794 11.2378 17.5077C11.4582 17.2214 11.5749 16.8833 11.5727 16.5376V14.9737C11.5727 14.0557 12.1301 13.2074 13.0348 12.7484C13.9394 12.2893 15.0541 12.2893 15.9587 12.7484C16.8634 13.2074 17.4206 14.0557 17.4206 14.9737V16.5376C17.4187 16.8834 17.5357 17.2216 17.7563 17.5079C17.9769 17.7942 18.2909 18.0152 18.657 18.1419C18.8872 18.2215 19.0853 18.3594 19.2264 18.538C19.3674 18.7165 19.4449 18.9279 19.4493 19.1452C19.455 19.4365 19.3263 19.7174 19.0928 19.924H19.0927Z" fill="#3BB30B"/>
</svg>
