<svg width="96" height="94" viewBox="0 0 96 94" fill="none" xmlns="http://www.w3.org/2000/svg">
<path d="M28.9065 41.1064C35.5729 41.1064 40.9771 35.6415 40.9771 28.9001C40.9771 22.1588 35.5729 16.6938 28.9065 16.6938C22.24 16.6938 16.8358 22.1588 16.8358 28.9001C16.8358 35.6415 22.24 41.1064 28.9065 41.1064Z" stroke="#C4B429" stroke-width="2"/>
<path d="M28.9064 9.71877V1" stroke="#C4B429" stroke-width="2" stroke-linecap="round"/>
<path d="M28.9064 56.8003V48.0815" stroke="#C4B429" stroke-width="2" stroke-linecap="round"/>
<path d="M47.8746 28.8999H56.4965" stroke="#C4B429" stroke-width="2" stroke-linecap="round"/>
<path d="M1.31627 28.8999H9.93817" stroke="#C4B429" stroke-width="2" stroke-linecap="round"/>
<path d="M42.3186 15.3362L48.4152 9.17114" stroke="#C4B429" stroke-width="2" stroke-linecap="round"/>
<path d="M9.3973 48.6287L15.4939 42.4636" stroke="#C4B429" stroke-width="2" stroke-linecap="round"/>
<path d="M42.3186 42.4637L48.4152 48.6288" stroke="#C4B429" stroke-width="2" stroke-linecap="round"/>
<path d="M9.3973 9.17157L15.4939 15.3367" stroke="#C4B429" stroke-width="2" stroke-linecap="round"/>
<path d="M44.117 93.7633C51.8186 95.2744 58.4857 89.3461 58.4857 81.7904C58.4857 77.8382 56.5316 74.2347 53.5429 72.0261V45.4068C53.5429 41.4546 50.4392 38.1998 46.416 38.1998C42.5077 38.1998 39.2891 41.4546 39.2891 45.4068V72.0261C35.7256 74.6997 33.6565 79.2331 34.6911 84.3477C35.6107 88.9974 39.404 92.8334 44.117 93.7633ZM40.7834 74.2347L41.818 73.421V45.523C41.818 42.9657 43.8871 40.9896 46.301 40.9896C48.8299 40.9896 50.899 43.082 50.899 45.523V73.421L51.9336 74.2347C54.3475 75.9783 55.7269 78.8844 55.7269 81.9066C55.7269 84.464 54.6924 86.905 52.9681 88.6487C51.1289 90.3923 48.8299 91.4385 46.301 91.4385C41.5881 91.4385 37.9097 88.0674 37.105 83.8828C36.5303 80.0468 37.9097 76.3271 40.7834 74.2347Z" fill="#676767"/>
<path d="M46.4157 88.6491C48.2549 88.6491 49.9792 87.9517 51.2436 86.673C52.5081 85.3943 53.1978 83.6507 53.1978 81.7909C53.1978 77.1412 49.2895 75.6301 48.2549 74.7001V55.0553H44.4616V74.7001C43.6569 75.6301 38.5991 77.4899 39.7486 83.1858C40.3234 86.208 42.9672 88.6491 46.4157 88.6491Z" fill="#C72F2F"/>
<path d="M63.0835 46.1041H56.5314V48.7777H63.0835C63.7732 48.7777 64.348 48.1965 64.348 47.499C64.4629 46.6853 63.8882 46.1041 63.0835 46.1041Z" fill="#B5B5B5"/>
<path d="M61.8192 54.4735C61.8192 53.776 61.2444 53.1948 60.5547 53.1948H56.6464V55.8684H60.5547C61.2444 55.7521 61.8192 55.1709 61.8192 54.4735Z" fill="#B5B5B5"/>
<path d="M64.463 61.4486C64.463 60.7511 63.8883 60.1699 63.1986 60.1699H56.6464V62.8435H63.1986C63.8883 62.8435 64.463 62.146 64.463 61.4486Z" fill="#B5B5B5"/>
<path fill-rule="evenodd" clip-rule="evenodd" d="M71.7828 24.5913L77.1207 34.1147C79.7473 38.7032 83.3906 43.3783 83.3906 48.6594C83.3906 55.1526 78.1374 60.5203 71.7828 60.5203C65.3435 60.5203 60.1751 55.1526 60.1751 48.6594C60.1751 43.3783 63.8184 38.7032 66.3603 34.1147L71.7828 24.5913ZM77.6291 50.2178C77.7985 49.6117 78.3916 49.2654 78.9847 49.4386C79.5778 49.6117 79.9167 50.2178 79.832 50.8238C78.9847 54.0271 76.2734 56.5378 73.0538 57.0573C72.4607 57.1438 71.8676 56.711 71.7828 56.1049C71.6981 55.4989 72.1218 54.8929 72.7149 54.8063C75.0872 54.46 77.036 52.6419 77.6291 50.2178Z" fill="#3978C2"/>
<path fill-rule="evenodd" clip-rule="evenodd" d="M84.076 12.16L89.4139 21.6834C92.0404 26.2719 95.6837 30.947 95.6837 36.2281C95.6837 42.7213 90.4306 48.089 84.076 48.089C77.6367 48.089 72.4683 42.7213 72.4683 36.2281C72.4683 30.947 76.1116 26.2719 78.6534 21.6834L84.076 12.16ZM89.9222 37.7865C90.0917 37.1805 90.6848 36.8342 91.2779 37.0073C91.871 37.1805 92.2099 37.7865 92.1252 38.3925C91.2779 41.5958 88.5666 44.1065 85.3469 44.626C84.7538 44.7126 84.1607 44.2797 84.076 43.6737C83.9913 43.0676 84.4149 42.4616 85.008 42.375C87.3804 42.0287 89.3291 40.2106 89.9222 37.7865Z" fill="#3978C2" fill-opacity="0.6"/>
</svg>
