<svg width="93" height="93" viewBox="0 0 93 93" fill="none" xmlns="http://www.w3.org/2000/svg">
<path d="M78.3214 63.0755C78.1725 62.8605 77.9462 62.7147 77.6924 62.6703C77.4383 62.6258 77.1775 62.6861 76.967 62.8382C75.6856 63.7676 74.182 64.3257 72.6157 64.4538C72.6449 62.6558 72.2409 60.8785 71.4394 59.2776L71.4377 59.2747C72.9 58.617 74.1907 57.6172 75.2057 56.3564C75.4268 56.0829 75.4882 55.7098 75.3666 55.3776C75.2453 55.0451 74.9597 54.8043 74.6176 54.7455C74.2752 54.6867 73.9282 54.8191 73.7072 55.0925C72.7981 56.2203 71.6198 57.0898 70.2864 57.6174C69.6696 56.9326 68.9502 56.3522 68.155 55.8987C67.5457 55.5498 66.9046 55.2627 66.2406 55.0413H66.2387C64.5036 54.4866 62.6928 54.2204 60.8749 54.2526C56.4745 54.2526 53.2223 55.4925 51.2705 57.84L51.2699 57.8409V57.8411C51.222 57.8141 51.1721 57.7911 51.1204 57.7725C49.6231 57.2644 48.296 56.3356 47.2916 55.0923C47.0706 54.8189 46.7236 54.6867 46.3812 54.7456C46.0388 54.8046 45.7532 55.0456 45.6321 55.3778C45.5108 55.7101 45.5722 56.0832 45.7932 56.3566C46.953 57.7953 48.468 58.8917 50.181 59.5325L50.1774 59.5387H50.1776C49.4624 61.0845 49.105 62.7772 49.1325 64.4867C47.3058 64.4936 45.5223 63.9174 44.0317 62.8382C43.7482 62.634 43.3799 62.5994 43.0648 62.7478C42.7498 62.8962 42.5361 63.2051 42.5041 63.5579C42.4722 63.9107 42.6269 64.2541 42.9098 64.4592C44.7262 65.7713 46.8959 66.476 49.1207 66.4763C49.1613 66.4763 49.202 66.4756 49.2429 66.4752H49.2426C49.4239 68.0216 49.8416 69.5292 50.481 70.9428C50.5094 71.0061 50.5378 71.0697 50.568 71.1331L50.5704 71.1379C50.4819 71.1439 50.3944 71.1628 50.3108 71.1935C48.9473 71.7191 47.428 71.6155 46.1448 70.9097C45.9178 70.7849 45.6514 70.7576 45.4046 70.8335C45.1579 70.9095 44.9507 71.0823 44.8287 71.3144C44.7068 71.5465 44.6801 71.8184 44.7546 72.0706C44.8291 72.3228 44.9985 72.5343 45.2257 72.6587C46.1511 73.1651 47.1758 73.4536 48.2247 73.5032C48.3289 73.5077 48.4328 73.5101 48.5364 73.5101C49.3761 73.5101 50.209 73.355 50.9947 73.052C51.1715 72.9838 51.3247 72.8644 51.4357 72.7085C51.4435 72.721 51.4518 72.7331 51.4607 72.7448C52.4543 74.3933 53.8366 75.7612 55.4813 76.7229C57.1262 77.6848 58.9806 78.2098 60.8754 78.25C62.704 78.2145 64.4966 77.7248 66.0986 76.823C67.7007 75.9215 69.0637 74.6348 70.07 73.0747L70.0707 73.0736C70.8371 73.3615 71.6471 73.5092 72.4635 73.5101C72.5671 73.5101 72.671 73.5077 72.7752 73.5032H72.7754C73.8241 73.4536 74.8486 73.1651 75.774 72.6589C76.0791 72.4906 76.2732 72.1692 76.2838 71.8154C76.2944 71.4615 76.1195 71.1286 75.825 70.9419C75.5305 70.7553 75.1611 70.7429 74.8553 70.9095C74.1869 71.2753 73.447 71.4838 72.6896 71.5197C72.1489 71.5435 71.6079 71.4775 71.0881 71.3242C71.8323 69.7973 72.3127 68.1504 72.5081 66.4562L72.5084 66.4521C74.5153 66.3375 76.4498 65.6466 78.0894 64.4593C78.2999 64.3072 78.4426 64.076 78.486 63.8165C78.5296 63.5571 78.4705 63.2906 78.3217 63.0756L78.3214 63.0755ZM60.8746 76.2651C57.5726 76.2651 54.6464 74.311 52.8686 71.3216C52.515 70.7242 52.2119 70.0971 51.962 69.4471C51.3696 67.8999 51.0681 66.2523 51.073 64.5908C51.073 59.0495 54.3716 56.2393 60.8747 56.2393C62.1463 56.2239 63.4156 56.3572 64.6577 56.6362C65.3651 56.7993 66.053 57.0411 66.7089 57.3576C69.3455 58.6537 70.6745 61.072 70.6745 64.5906C70.6745 71.0278 66.2777 76.2651 60.875 76.2651L60.8746 76.2651Z" fill="#2F9705"/>
<path d="M53.4247 53.4999C53.7519 53.5001 54.0762 53.4434 54.3818 53.3329C56.3453 52.6767 58.4177 52.3608 60.4999 52.3998C62.582 52.3608 64.6545 52.6767 66.6181 53.3329C67.4278 53.6225 68.3355 53.5246 69.0557 53.0701C69.776 52.6159 70.2202 51.8604 70.2485 51.042C70.258 50.7701 70.2213 50.4986 70.1401 50.2378C69.6814 48.7173 68.9461 47.2841 67.9669 46.0025C67.0785 44.8325 65.9386 43.8537 64.6216 43.1302C64.3384 42.9794 63.9954 42.9674 63.701 43.0974C63.4066 43.2276 63.1965 43.4842 63.1368 43.7866C62.8496 45.2402 61.7439 46.2968 60.5091 46.2968C59.2708 46.2968 58.1648 45.2385 57.8796 43.7797L57.8798 43.7795C57.8206 43.4773 57.6111 43.2208 57.3169 43.0903C57.0227 42.9597 56.6802 42.9713 56.3967 43.1215C53.8538 44.4687 51.8371 47.0626 50.86 50.2378C50.7178 50.6936 50.7134 51.1778 50.8473 51.6355C50.9815 52.0935 51.2484 52.5067 51.6182 52.828C52.1094 53.2597 52.7547 53.4998 53.425 53.5L53.4247 53.4999ZM52.7955 50.7703V50.7706C53.3784 48.6978 54.6145 46.8423 56.3396 45.4504C56.6832 46.2387 57.2587 46.9171 57.9978 47.4048C58.7368 47.8927 59.6084 48.1696 60.5091 48.2026C61.4102 48.179 62.2842 47.9073 63.0248 47.421C63.7654 46.9346 64.34 46.2547 64.6786 45.4644C66.3944 46.855 67.6244 48.7049 68.206 50.7702C68.2842 51.0055 68.2093 51.2625 68.0146 51.4266C67.833 51.5921 67.5651 51.6405 67.3319 51.5502C65.1403 50.8119 62.8259 50.4541 60.4999 50.4935C58.1739 50.4541 55.8595 50.8122 53.6679 51.5502C53.4345 51.6401 53.1671 51.5917 52.9853 51.4266C52.7905 51.2625 52.7161 51.0053 52.7956 50.7704L52.7955 50.7703Z" fill="#2F6B16"/>
<mask id="path-3-outside-1_3173_31" maskUnits="userSpaceOnUse" x="10.5" y="17" width="37" height="37" fill="black">
<rect fill="white" x="10.5" y="17" width="37" height="37"/>
<path d="M45.9165 33.75C45.7618 33.75 45.6134 33.8115 45.504 33.9208C45.3947 34.0302 45.3332 34.1786 45.3332 34.3333V34.9166H44.1473C44.1268 33.3481 43.9444 31.7856 43.603 30.2547L44.8945 29.5109L45.1861 30.0155C45.2911 30.1945 45.4833 30.3044 45.6907 30.3039C45.8982 30.3034 46.0898 30.1928 46.194 30.0133C46.2981 29.8338 46.2991 29.6127 46.1965 29.4322L45.0299 27.4116C44.9531 27.2765 44.8256 27.1776 44.6756 27.1369C44.5256 27.0962 44.3656 27.117 44.2311 27.1948C44.0965 27.2724 43.9986 27.4006 43.9588 27.5508C43.9191 27.701 43.941 27.8608 44.0195 27.9949L44.3111 28.5007L43.2915 29.088C42.7339 27.1307 41.7208 25.3329 40.3353 23.8421L41.0936 22.5238L41.5959 22.8154H41.5958C41.7763 22.918 41.9974 22.917 42.1769 22.8129C42.3564 22.7087 42.467 22.5171 42.4675 22.3096C42.468 22.1022 42.3581 21.91 42.1791 21.805L40.1585 20.6384C40.0245 20.5599 39.8647 20.538 39.7145 20.5777C39.5643 20.6175 39.436 20.7154 39.3584 20.8499C39.2806 20.9845 39.2598 21.1445 39.3005 21.2945C39.3413 21.4445 39.4402 21.5719 39.5752 21.6488L40.0833 21.9404L39.4592 23.0266C37.9854 21.8019 36.162 21.0744 34.2499 20.9481V19.1667H34.8333C35.0417 19.1667 35.2342 19.0555 35.3384 18.875C35.4426 18.6945 35.4426 18.4721 35.3384 18.2917C35.2342 18.1112 35.0417 18 34.8333 18H32.4999C32.2915 18 32.099 18.1112 31.9948 18.2917C31.8906 18.4721 31.8906 18.6945 31.9948 18.875C32.099 19.0555 32.2915 19.1667 32.4999 19.1667H33.0833V20.9358C31.9539 20.9509 30.8715 21.3894 30.05 22.1644C29.4834 22.7748 29.117 23.5437 29 24.3683C28.8829 23.5437 28.5165 22.7748 27.95 22.1644C27.1285 21.3894 26.046 20.9509 24.9167 20.9358V19.1667H25.5C25.7084 19.1667 25.9009 19.0555 26.0052 18.875C26.1093 18.6945 26.1093 18.4721 26.0052 18.2917C25.9009 18.1112 25.7084 18 25.5 18H23.1667C22.9582 18 22.7657 18.1112 22.6615 18.2917C22.5573 18.4721 22.5573 18.6945 22.6615 18.875C22.7658 19.0555 22.9583 19.1667 23.1667 19.1667H23.75V20.9481C21.8379 21.0744 20.0145 21.8019 18.5408 23.0266L17.9166 21.9404L18.4247 21.6488C18.6037 21.5439 18.7135 21.3517 18.713 21.1442C18.7125 20.9367 18.6019 20.7451 18.4224 20.6409C18.2431 20.5369 18.0217 20.5359 17.8414 20.6384L15.8208 21.805C15.6856 21.8818 15.5868 22.0094 15.5461 22.1593C15.5054 22.3092 15.5262 22.4693 15.6038 22.6038C15.6815 22.7384 15.8097 22.8364 15.9599 22.8762C16.1101 22.9158 16.2701 22.894 16.4041 22.8154L16.9064 22.5237L17.6647 23.8421H17.6646C16.2791 25.3328 15.266 27.1305 14.7083 29.088L13.6881 28.5001L13.9798 27.9943C14.0823 27.8139 14.0814 27.5927 13.9772 27.4132C13.8731 27.2337 13.6814 27.1231 13.474 27.1227C13.2664 27.1222 13.0744 27.232 12.9694 27.4109L11.8027 29.4315V29.4317C11.7242 29.5657 11.7023 29.7255 11.7421 29.8757C11.7817 30.0259 11.8798 30.1541 12.0143 30.2318C12.1488 30.3094 12.3089 30.3302 12.4588 30.2895C12.6088 30.2488 12.7363 30.15 12.8131 30.015L13.1048 29.5104L14.3962 30.2541C14.055 31.7854 13.8728 33.3478 13.8525 34.9167H12.6667V34.3334C12.6667 34.125 12.5555 33.9325 12.375 33.8282C12.1945 33.7241 11.9721 33.7241 11.7917 33.8282C11.6112 33.9325 11.5 34.125 11.5 34.3334V36.6667C11.5 36.8751 11.6112 37.0676 11.7917 37.1719C11.9721 37.276 12.1945 37.276 12.375 37.1719C12.5555 37.0676 12.6667 36.8751 12.6667 36.6667V36.0834H13.8525C13.8731 37.6519 14.0555 39.2144 14.3968 40.7454L13.1054 41.4891L12.8137 40.9845C12.7369 40.8494 12.6093 40.7506 12.4594 40.7099C12.3095 40.6691 12.1494 40.6899 12.0149 40.7676C11.8804 40.8452 11.7823 40.9734 11.7425 41.1236C11.7029 41.2739 11.7247 41.4338 11.8033 41.5678L12.97 43.5884C13.0748 43.7675 13.267 43.8772 13.4746 43.8767C13.682 43.8762 13.8736 43.7656 13.9778 43.5861C14.0818 43.4068 14.0828 43.1855 13.9804 43.0051L13.6881 42.4999L14.7083 41.912C15.266 43.8693 16.279 45.6671 17.6646 47.1579L16.9062 48.4762L16.4039 48.1846H16.4041C16.2236 48.082 16.0024 48.083 15.8229 48.1871C15.6434 48.2913 15.5328 48.4829 15.5323 48.6904C15.5319 48.8978 15.6417 49.09 15.8207 49.195L17.8414 50.3616C17.9754 50.4401 18.1352 50.462 18.2854 50.4223C18.4356 50.3825 18.5638 50.2846 18.6415 50.1501C18.7192 50.0155 18.74 49.8555 18.6993 49.7055C18.6586 49.5555 18.5597 49.4281 18.4247 49.3512L17.9166 49.0596L18.5436 47.9734C20.0167 49.1977 21.8386 49.925 23.7497 50.0519V51.8333H23.1664C22.958 51.8333 22.7655 51.9445 22.6612 52.125C22.5571 52.3055 22.5571 52.5279 22.6612 52.7083C22.7655 52.8888 22.958 53 23.1664 53H25.4997C25.7081 53 25.9007 52.8888 26.0049 52.7083C26.1091 52.5279 26.1091 52.3055 26.0049 52.125C25.9006 51.9445 25.7081 51.8333 25.4997 51.8333H24.9164V50.0642C26.0458 50.0491 27.1282 49.6106 27.9497 48.8356C28.5163 48.2252 28.8827 47.4563 28.9997 46.6317C29.1167 47.4563 29.4831 48.2252 30.0497 48.8356C30.8712 49.6106 31.9537 50.0491 33.083 50.0642V51.8333H32.4997C32.2913 51.8333 32.0988 51.9445 31.9945 52.125C31.8904 52.3055 31.8904 52.5279 31.9945 52.7083C32.0988 52.8888 32.2913 53 32.4997 53H34.833C35.0414 53 35.2339 52.8888 35.3382 52.7083C35.4423 52.5279 35.4423 52.3055 35.3382 52.125C35.2339 51.9445 35.0414 51.8333 34.833 51.8333H34.2497V50.0519C36.1618 49.9256 37.9852 49.1981 39.4589 47.9734L40.086 49.0596L39.5779 49.3512C39.4428 49.4281 39.3439 49.5555 39.3032 49.7055C39.2625 49.8555 39.2833 50.0155 39.3611 50.1501C39.4387 50.2846 39.5669 50.3825 39.7171 50.4223C39.8673 50.462 40.0271 50.4401 40.1612 50.3616L42.1818 49.195C42.3608 49.09 42.4707 48.8978 42.4702 48.6904C42.4697 48.4829 42.3591 48.2913 42.1796 48.1871C42.0001 48.083 41.7789 48.082 41.5985 48.1846L41.0962 48.4762L40.3378 47.1579H40.338C41.7225 45.6668 42.7345 43.8692 43.2913 41.912L44.3115 42.4999L44.0199 43.0057C43.9414 43.1398 43.9195 43.2996 43.9592 43.4498C43.9989 43.6 44.0969 43.7282 44.2315 43.8058C44.366 43.8835 44.526 43.9043 44.676 43.8636C44.826 43.8229 44.9534 43.7241 45.0303 43.589L46.1969 41.5684V41.5683C46.2995 41.3879 46.2985 41.1668 46.1944 40.9873C46.0902 40.8078 45.8986 40.6972 45.6911 40.6967C45.4836 40.6962 45.2915 40.8061 45.1865 40.985L44.8949 41.4895L43.6034 40.7458C43.9446 39.2146 44.1268 37.6521 44.1471 36.0832H45.333V36.6665C45.333 36.875 45.4442 37.0675 45.6246 37.1717C45.8051 37.2759 46.0275 37.2759 46.208 37.1717C46.3884 37.0674 46.4996 36.8749 46.4996 36.6665V34.3332C46.4996 34.1785 46.4381 34.0301 46.3288 33.9207C46.2194 33.8114 46.071 33.7499 45.9163 33.7499L45.9165 33.75ZM28.4393 38.5986C28.493 43.2385 28.5309 46.5904 27.1227 48.0159C26.5149 48.6301 25.6289 48.9165 24.3333 48.9165C18.7567 48.9165 15.0087 43.5353 15 35.5245C15 35.5158 15.0052 35.5087 15.0052 35.5C15.0052 35.4912 15 35.4842 15 35.4754C15.0088 27.4647 18.7567 22.0834 24.3333 22.0834C25.6289 22.0834 26.5149 22.3698 27.1228 22.984C28.531 24.4091 28.493 27.7614 28.4394 32.4013C28.4289 33.3738 28.4166 34.4075 28.4166 35.5C28.4166 36.5926 28.4289 37.6263 28.4393 38.5987L28.4393 38.5986ZM29.5605 38.5986C29.571 37.6261 29.5832 36.5925 29.5832 35.4999C29.5832 34.4073 29.571 33.3737 29.5605 32.4012C29.5068 27.7613 29.4689 24.4094 30.8771 22.9839C31.4849 22.3697 32.371 22.0833 33.6665 22.0833C39.2432 22.0833 42.9911 27.4645 42.9998 35.4753C42.9998 35.484 42.9946 35.4911 42.9946 35.4998C42.9946 35.5086 42.9992 35.5156 42.9998 35.5244C42.9911 43.5351 39.2432 48.9164 33.6665 48.9164C32.3709 48.9164 31.4849 48.63 30.877 48.0158C29.4666 46.5906 29.5068 43.2384 29.5605 38.5985V38.5986Z"/>
</mask>
<path d="M45.9165 33.75C45.7618 33.75 45.6134 33.8115 45.504 33.9208C45.3947 34.0302 45.3332 34.1786 45.3332 34.3333V34.9166H44.1473C44.1268 33.3481 43.9444 31.7856 43.603 30.2547L44.8945 29.5109L45.1861 30.0155C45.2911 30.1945 45.4833 30.3044 45.6907 30.3039C45.8982 30.3034 46.0898 30.1928 46.194 30.0133C46.2981 29.8338 46.2991 29.6127 46.1965 29.4322L45.0299 27.4116C44.9531 27.2765 44.8256 27.1776 44.6756 27.1369C44.5256 27.0962 44.3656 27.117 44.2311 27.1948C44.0965 27.2724 43.9986 27.4006 43.9588 27.5508C43.9191 27.701 43.941 27.8608 44.0195 27.9949L44.3111 28.5007L43.2915 29.088C42.7339 27.1307 41.7208 25.3329 40.3353 23.8421L41.0936 22.5238L41.5959 22.8154H41.5958C41.7763 22.918 41.9974 22.917 42.1769 22.8129C42.3564 22.7087 42.467 22.5171 42.4675 22.3096C42.468 22.1022 42.3581 21.91 42.1791 21.805L40.1585 20.6384C40.0245 20.5599 39.8647 20.538 39.7145 20.5777C39.5643 20.6175 39.436 20.7154 39.3584 20.8499C39.2806 20.9845 39.2598 21.1445 39.3005 21.2945C39.3413 21.4445 39.4402 21.5719 39.5752 21.6488L40.0833 21.9404L39.4592 23.0266C37.9854 21.8019 36.162 21.0744 34.2499 20.9481V19.1667H34.8333C35.0417 19.1667 35.2342 19.0555 35.3384 18.875C35.4426 18.6945 35.4426 18.4721 35.3384 18.2917C35.2342 18.1112 35.0417 18 34.8333 18H32.4999C32.2915 18 32.099 18.1112 31.9948 18.2917C31.8906 18.4721 31.8906 18.6945 31.9948 18.875C32.099 19.0555 32.2915 19.1667 32.4999 19.1667H33.0833V20.9358C31.9539 20.9509 30.8715 21.3894 30.05 22.1644C29.4834 22.7748 29.117 23.5437 29 24.3683C28.8829 23.5437 28.5165 22.7748 27.95 22.1644C27.1285 21.3894 26.046 20.9509 24.9167 20.9358V19.1667H25.5C25.7084 19.1667 25.9009 19.0555 26.0052 18.875C26.1093 18.6945 26.1093 18.4721 26.0052 18.2917C25.9009 18.1112 25.7084 18 25.5 18H23.1667C22.9582 18 22.7657 18.1112 22.6615 18.2917C22.5573 18.4721 22.5573 18.6945 22.6615 18.875C22.7658 19.0555 22.9583 19.1667 23.1667 19.1667H23.75V20.9481C21.8379 21.0744 20.0145 21.8019 18.5408 23.0266L17.9166 21.9404L18.4247 21.6488C18.6037 21.5439 18.7135 21.3517 18.713 21.1442C18.7125 20.9367 18.6019 20.7451 18.4224 20.6409C18.2431 20.5369 18.0217 20.5359 17.8414 20.6384L15.8208 21.805C15.6856 21.8818 15.5868 22.0094 15.5461 22.1593C15.5054 22.3092 15.5262 22.4693 15.6038 22.6038C15.6815 22.7384 15.8097 22.8364 15.9599 22.8762C16.1101 22.9158 16.2701 22.894 16.4041 22.8154L16.9064 22.5237L17.6647 23.8421H17.6646C16.2791 25.3328 15.266 27.1305 14.7083 29.088L13.6881 28.5001L13.9798 27.9943C14.0823 27.8139 14.0814 27.5927 13.9772 27.4132C13.8731 27.2337 13.6814 27.1231 13.474 27.1227C13.2664 27.1222 13.0744 27.232 12.9694 27.4109L11.8027 29.4315V29.4317C11.7242 29.5657 11.7023 29.7255 11.7421 29.8757C11.7817 30.0259 11.8798 30.1541 12.0143 30.2318C12.1488 30.3094 12.3089 30.3302 12.4588 30.2895C12.6088 30.2488 12.7363 30.15 12.8131 30.015L13.1048 29.5104L14.3962 30.2541C14.055 31.7854 13.8728 33.3478 13.8525 34.9167H12.6667V34.3334C12.6667 34.125 12.5555 33.9325 12.375 33.8282C12.1945 33.7241 11.9721 33.7241 11.7917 33.8282C11.6112 33.9325 11.5 34.125 11.5 34.3334V36.6667C11.5 36.8751 11.6112 37.0676 11.7917 37.1719C11.9721 37.276 12.1945 37.276 12.375 37.1719C12.5555 37.0676 12.6667 36.8751 12.6667 36.6667V36.0834H13.8525C13.8731 37.6519 14.0555 39.2144 14.3968 40.7454L13.1054 41.4891L12.8137 40.9845C12.7369 40.8494 12.6093 40.7506 12.4594 40.7099C12.3095 40.6691 12.1494 40.6899 12.0149 40.7676C11.8804 40.8452 11.7823 40.9734 11.7425 41.1236C11.7029 41.2739 11.7247 41.4338 11.8033 41.5678L12.97 43.5884C13.0748 43.7675 13.267 43.8772 13.4746 43.8767C13.682 43.8762 13.8736 43.7656 13.9778 43.5861C14.0818 43.4068 14.0828 43.1855 13.9804 43.0051L13.6881 42.4999L14.7083 41.912C15.266 43.8693 16.279 45.6671 17.6646 47.1579L16.9062 48.4762L16.4039 48.1846H16.4041C16.2236 48.082 16.0024 48.083 15.8229 48.1871C15.6434 48.2913 15.5328 48.4829 15.5323 48.6904C15.5319 48.8978 15.6417 49.09 15.8207 49.195L17.8414 50.3616C17.9754 50.4401 18.1352 50.462 18.2854 50.4223C18.4356 50.3825 18.5638 50.2846 18.6415 50.1501C18.7192 50.0155 18.74 49.8555 18.6993 49.7055C18.6586 49.5555 18.5597 49.4281 18.4247 49.3512L17.9166 49.0596L18.5436 47.9734C20.0167 49.1977 21.8386 49.925 23.7497 50.0519V51.8333H23.1664C22.958 51.8333 22.7655 51.9445 22.6612 52.125C22.5571 52.3055 22.5571 52.5279 22.6612 52.7083C22.7655 52.8888 22.958 53 23.1664 53H25.4997C25.7081 53 25.9007 52.8888 26.0049 52.7083C26.1091 52.5279 26.1091 52.3055 26.0049 52.125C25.9006 51.9445 25.7081 51.8333 25.4997 51.8333H24.9164V50.0642C26.0458 50.0491 27.1282 49.6106 27.9497 48.8356C28.5163 48.2252 28.8827 47.4563 28.9997 46.6317C29.1167 47.4563 29.4831 48.2252 30.0497 48.8356C30.8712 49.6106 31.9537 50.0491 33.083 50.0642V51.8333H32.4997C32.2913 51.8333 32.0988 51.9445 31.9945 52.125C31.8904 52.3055 31.8904 52.5279 31.9945 52.7083C32.0988 52.8888 32.2913 53 32.4997 53H34.833C35.0414 53 35.2339 52.8888 35.3382 52.7083C35.4423 52.5279 35.4423 52.3055 35.3382 52.125C35.2339 51.9445 35.0414 51.8333 34.833 51.8333H34.2497V50.0519C36.1618 49.9256 37.9852 49.1981 39.4589 47.9734L40.086 49.0596L39.5779 49.3512C39.4428 49.4281 39.3439 49.5555 39.3032 49.7055C39.2625 49.8555 39.2833 50.0155 39.3611 50.1501C39.4387 50.2846 39.5669 50.3825 39.7171 50.4223C39.8673 50.462 40.0271 50.4401 40.1612 50.3616L42.1818 49.195C42.3608 49.09 42.4707 48.8978 42.4702 48.6904C42.4697 48.4829 42.3591 48.2913 42.1796 48.1871C42.0001 48.083 41.7789 48.082 41.5985 48.1846L41.0962 48.4762L40.3378 47.1579H40.338C41.7225 45.6668 42.7345 43.8692 43.2913 41.912L44.3115 42.4999L44.0199 43.0057C43.9414 43.1398 43.9195 43.2996 43.9592 43.4498C43.9989 43.6 44.0969 43.7282 44.2315 43.8058C44.366 43.8835 44.526 43.9043 44.676 43.8636C44.826 43.8229 44.9534 43.7241 45.0303 43.589L46.1969 41.5684V41.5683C46.2995 41.3879 46.2985 41.1668 46.1944 40.9873C46.0902 40.8078 45.8986 40.6972 45.6911 40.6967C45.4836 40.6962 45.2915 40.8061 45.1865 40.985L44.8949 41.4895L43.6034 40.7458C43.9446 39.2146 44.1268 37.6521 44.1471 36.0832H45.333V36.6665C45.333 36.875 45.4442 37.0675 45.6246 37.1717C45.8051 37.2759 46.0275 37.2759 46.208 37.1717C46.3884 37.0674 46.4996 36.8749 46.4996 36.6665V34.3332C46.4996 34.1785 46.4381 34.0301 46.3288 33.9207C46.2194 33.8114 46.071 33.7499 45.9163 33.7499L45.9165 33.75ZM28.4393 38.5986C28.493 43.2385 28.5309 46.5904 27.1227 48.0159C26.5149 48.6301 25.6289 48.9165 24.3333 48.9165C18.7567 48.9165 15.0087 43.5353 15 35.5245C15 35.5158 15.0052 35.5087 15.0052 35.5C15.0052 35.4912 15 35.4842 15 35.4754C15.0088 27.4647 18.7567 22.0834 24.3333 22.0834C25.6289 22.0834 26.5149 22.3698 27.1228 22.984C28.531 24.4091 28.493 27.7614 28.4394 32.4013C28.4289 33.3738 28.4166 34.4075 28.4166 35.5C28.4166 36.5926 28.4289 37.6263 28.4393 38.5987L28.4393 38.5986ZM29.5605 38.5986C29.571 37.6261 29.5832 36.5925 29.5832 35.4999C29.5832 34.4073 29.571 33.3737 29.5605 32.4012C29.5068 27.7613 29.4689 24.4094 30.8771 22.9839C31.4849 22.3697 32.371 22.0833 33.6665 22.0833C39.2432 22.0833 42.9911 27.4645 42.9998 35.4753C42.9998 35.484 42.9946 35.4911 42.9946 35.4998C42.9946 35.5086 42.9992 35.5156 42.9998 35.5244C42.9911 43.5351 39.2432 48.9164 33.6665 48.9164C32.3709 48.9164 31.4849 48.63 30.877 48.0158C29.4666 46.5906 29.5068 43.2384 29.5605 38.5985V38.5986Z" fill="#5846C4"/>
<path d="M45.9165 33.75C45.7618 33.75 45.6134 33.8115 45.504 33.9208C45.3947 34.0302 45.3332 34.1786 45.3332 34.3333V34.9166H44.1473C44.1268 33.3481 43.9444 31.7856 43.603 30.2547L44.8945 29.5109L45.1861 30.0155C45.2911 30.1945 45.4833 30.3044 45.6907 30.3039C45.8982 30.3034 46.0898 30.1928 46.194 30.0133C46.2981 29.8338 46.2991 29.6127 46.1965 29.4322L45.0299 27.4116C44.9531 27.2765 44.8256 27.1776 44.6756 27.1369C44.5256 27.0962 44.3656 27.117 44.2311 27.1948C44.0965 27.2724 43.9986 27.4006 43.9588 27.5508C43.9191 27.701 43.941 27.8608 44.0195 27.9949L44.3111 28.5007L43.2915 29.088C42.7339 27.1307 41.7208 25.3329 40.3353 23.8421L41.0936 22.5238L41.5959 22.8154H41.5958C41.7763 22.918 41.9974 22.917 42.1769 22.8129C42.3564 22.7087 42.467 22.5171 42.4675 22.3096C42.468 22.1022 42.3581 21.91 42.1791 21.805L40.1585 20.6384C40.0245 20.5599 39.8647 20.538 39.7145 20.5777C39.5643 20.6175 39.436 20.7154 39.3584 20.8499C39.2806 20.9845 39.2598 21.1445 39.3005 21.2945C39.3413 21.4445 39.4402 21.5719 39.5752 21.6488L40.0833 21.9404L39.4592 23.0266C37.9854 21.8019 36.162 21.0744 34.2499 20.9481V19.1667H34.8333C35.0417 19.1667 35.2342 19.0555 35.3384 18.875C35.4426 18.6945 35.4426 18.4721 35.3384 18.2917C35.2342 18.1112 35.0417 18 34.8333 18H32.4999C32.2915 18 32.099 18.1112 31.9948 18.2917C31.8906 18.4721 31.8906 18.6945 31.9948 18.875C32.099 19.0555 32.2915 19.1667 32.4999 19.1667H33.0833V20.9358C31.9539 20.9509 30.8715 21.3894 30.05 22.1644C29.4834 22.7748 29.117 23.5437 29 24.3683C28.8829 23.5437 28.5165 22.7748 27.95 22.1644C27.1285 21.3894 26.046 20.9509 24.9167 20.9358V19.1667H25.5C25.7084 19.1667 25.9009 19.0555 26.0052 18.875C26.1093 18.6945 26.1093 18.4721 26.0052 18.2917C25.9009 18.1112 25.7084 18 25.5 18H23.1667C22.9582 18 22.7657 18.1112 22.6615 18.2917C22.5573 18.4721 22.5573 18.6945 22.6615 18.875C22.7658 19.0555 22.9583 19.1667 23.1667 19.1667H23.75V20.9481C21.8379 21.0744 20.0145 21.8019 18.5408 23.0266L17.9166 21.9404L18.4247 21.6488C18.6037 21.5439 18.7135 21.3517 18.713 21.1442C18.7125 20.9367 18.6019 20.7451 18.4224 20.6409C18.2431 20.5369 18.0217 20.5359 17.8414 20.6384L15.8208 21.805C15.6856 21.8818 15.5868 22.0094 15.5461 22.1593C15.5054 22.3092 15.5262 22.4693 15.6038 22.6038C15.6815 22.7384 15.8097 22.8364 15.9599 22.8762C16.1101 22.9158 16.2701 22.894 16.4041 22.8154L16.9064 22.5237L17.6647 23.8421H17.6646C16.2791 25.3328 15.266 27.1305 14.7083 29.088L13.6881 28.5001L13.9798 27.9943C14.0823 27.8139 14.0814 27.5927 13.9772 27.4132C13.8731 27.2337 13.6814 27.1231 13.474 27.1227C13.2664 27.1222 13.0744 27.232 12.9694 27.4109L11.8027 29.4315V29.4317C11.7242 29.5657 11.7023 29.7255 11.7421 29.8757C11.7817 30.0259 11.8798 30.1541 12.0143 30.2318C12.1488 30.3094 12.3089 30.3302 12.4588 30.2895C12.6088 30.2488 12.7363 30.15 12.8131 30.015L13.1048 29.5104L14.3962 30.2541C14.055 31.7854 13.8728 33.3478 13.8525 34.9167H12.6667V34.3334C12.6667 34.125 12.5555 33.9325 12.375 33.8282C12.1945 33.7241 11.9721 33.7241 11.7917 33.8282C11.6112 33.9325 11.5 34.125 11.5 34.3334V36.6667C11.5 36.8751 11.6112 37.0676 11.7917 37.1719C11.9721 37.276 12.1945 37.276 12.375 37.1719C12.5555 37.0676 12.6667 36.8751 12.6667 36.6667V36.0834H13.8525C13.8731 37.6519 14.0555 39.2144 14.3968 40.7454L13.1054 41.4891L12.8137 40.9845C12.7369 40.8494 12.6093 40.7506 12.4594 40.7099C12.3095 40.6691 12.1494 40.6899 12.0149 40.7676C11.8804 40.8452 11.7823 40.9734 11.7425 41.1236C11.7029 41.2739 11.7247 41.4338 11.8033 41.5678L12.97 43.5884C13.0748 43.7675 13.267 43.8772 13.4746 43.8767C13.682 43.8762 13.8736 43.7656 13.9778 43.5861C14.0818 43.4068 14.0828 43.1855 13.9804 43.0051L13.6881 42.4999L14.7083 41.912C15.266 43.8693 16.279 45.6671 17.6646 47.1579L16.9062 48.4762L16.4039 48.1846H16.4041C16.2236 48.082 16.0024 48.083 15.8229 48.1871C15.6434 48.2913 15.5328 48.4829 15.5323 48.6904C15.5319 48.8978 15.6417 49.09 15.8207 49.195L17.8414 50.3616C17.9754 50.4401 18.1352 50.462 18.2854 50.4223C18.4356 50.3825 18.5638 50.2846 18.6415 50.1501C18.7192 50.0155 18.74 49.8555 18.6993 49.7055C18.6586 49.5555 18.5597 49.4281 18.4247 49.3512L17.9166 49.0596L18.5436 47.9734C20.0167 49.1977 21.8386 49.925 23.7497 50.0519V51.8333H23.1664C22.958 51.8333 22.7655 51.9445 22.6612 52.125C22.5571 52.3055 22.5571 52.5279 22.6612 52.7083C22.7655 52.8888 22.958 53 23.1664 53H25.4997C25.7081 53 25.9007 52.8888 26.0049 52.7083C26.1091 52.5279 26.1091 52.3055 26.0049 52.125C25.9006 51.9445 25.7081 51.8333 25.4997 51.8333H24.9164V50.0642C26.0458 50.0491 27.1282 49.6106 27.9497 48.8356C28.5163 48.2252 28.8827 47.4563 28.9997 46.6317C29.1167 47.4563 29.4831 48.2252 30.0497 48.8356C30.8712 49.6106 31.9537 50.0491 33.083 50.0642V51.8333H32.4997C32.2913 51.8333 32.0988 51.9445 31.9945 52.125C31.8904 52.3055 31.8904 52.5279 31.9945 52.7083C32.0988 52.8888 32.2913 53 32.4997 53H34.833C35.0414 53 35.2339 52.8888 35.3382 52.7083C35.4423 52.5279 35.4423 52.3055 35.3382 52.125C35.2339 51.9445 35.0414 51.8333 34.833 51.8333H34.2497V50.0519C36.1618 49.9256 37.9852 49.1981 39.4589 47.9734L40.086 49.0596L39.5779 49.3512C39.4428 49.4281 39.3439 49.5555 39.3032 49.7055C39.2625 49.8555 39.2833 50.0155 39.3611 50.1501C39.4387 50.2846 39.5669 50.3825 39.7171 50.4223C39.8673 50.462 40.0271 50.4401 40.1612 50.3616L42.1818 49.195C42.3608 49.09 42.4707 48.8978 42.4702 48.6904C42.4697 48.4829 42.3591 48.2913 42.1796 48.1871C42.0001 48.083 41.7789 48.082 41.5985 48.1846L41.0962 48.4762L40.3378 47.1579H40.338C41.7225 45.6668 42.7345 43.8692 43.2913 41.912L44.3115 42.4999L44.0199 43.0057C43.9414 43.1398 43.9195 43.2996 43.9592 43.4498C43.9989 43.6 44.0969 43.7282 44.2315 43.8058C44.366 43.8835 44.526 43.9043 44.676 43.8636C44.826 43.8229 44.9534 43.7241 45.0303 43.589L46.1969 41.5684V41.5683C46.2995 41.3879 46.2985 41.1668 46.1944 40.9873C46.0902 40.8078 45.8986 40.6972 45.6911 40.6967C45.4836 40.6962 45.2915 40.8061 45.1865 40.985L44.8949 41.4895L43.6034 40.7458C43.9446 39.2146 44.1268 37.6521 44.1471 36.0832H45.333V36.6665C45.333 36.875 45.4442 37.0675 45.6246 37.1717C45.8051 37.2759 46.0275 37.2759 46.208 37.1717C46.3884 37.0674 46.4996 36.8749 46.4996 36.6665V34.3332C46.4996 34.1785 46.4381 34.0301 46.3288 33.9207C46.2194 33.8114 46.071 33.7499 45.9163 33.7499L45.9165 33.75ZM28.4393 38.5986C28.493 43.2385 28.5309 46.5904 27.1227 48.0159C26.5149 48.6301 25.6289 48.9165 24.3333 48.9165C18.7567 48.9165 15.0087 43.5353 15 35.5245C15 35.5158 15.0052 35.5087 15.0052 35.5C15.0052 35.4912 15 35.4842 15 35.4754C15.0088 27.4647 18.7567 22.0834 24.3333 22.0834C25.6289 22.0834 26.5149 22.3698 27.1228 22.984C28.531 24.4091 28.493 27.7614 28.4394 32.4013C28.4289 33.3738 28.4166 34.4075 28.4166 35.5C28.4166 36.5926 28.4289 37.6263 28.4393 38.5987L28.4393 38.5986ZM29.5605 38.5986C29.571 37.6261 29.5832 36.5925 29.5832 35.4999C29.5832 34.4073 29.571 33.3737 29.5605 32.4012C29.5068 27.7613 29.4689 24.4094 30.8771 22.9839C31.4849 22.3697 32.371 22.0833 33.6665 22.0833C39.2432 22.0833 42.9911 27.4645 42.9998 35.4753C42.9998 35.484 42.9946 35.4911 42.9946 35.4998C42.9946 35.5086 42.9992 35.5156 42.9998 35.5244C42.9911 43.5351 39.2432 48.9164 33.6665 48.9164C32.3709 48.9164 31.4849 48.63 30.877 48.0158C29.4666 46.5906 29.5068 43.2384 29.5605 38.5985V38.5986Z" stroke="#3E2BAB" mask="url(#path-3-outside-1_3173_31)"/>
<path d="M23.1651 40.1666C22.2369 40.1666 21.3466 40.5354 20.6902 41.1917C20.0338 41.8481 19.6651 42.7384 19.6651 43.6666C19.6651 44.5948 20.0338 45.4851 20.6902 46.1415C21.3466 46.7979 22.2369 47.1666 23.1651 47.1666C24.0933 47.1666 24.9836 46.7979 25.64 46.1415C26.2964 45.4851 26.6651 44.5948 26.6651 43.6666C26.6641 42.7386 26.2951 41.8489 25.6389 41.1928C24.9828 40.5365 24.0931 40.1676 23.1651 40.1666ZM23.1651 45.9999C22.5463 45.9999 21.9527 45.7541 21.5152 45.3165C21.0776 44.879 20.8318 44.2854 20.8318 43.6666C20.8318 43.0478 21.0776 42.4542 21.5152 42.0168C21.9527 41.5792 22.5463 41.3333 23.1651 41.3333C23.7839 41.3333 24.3774 41.5791 24.8149 42.0168C25.2525 42.4542 25.4984 43.0478 25.4984 43.6666C25.4984 44.2854 25.2526 44.879 24.8149 45.3165C24.3774 45.7541 23.7839 45.9999 23.1651 45.9999Z" fill="#D12A2A"/>
<path d="M24.3317 33.1666C23.7129 33.1666 23.1194 33.4125 22.6819 33.8501C22.2443 34.2876 21.9984 34.8811 21.9984 35.4999C21.9984 36.1187 22.2443 36.7123 22.6819 37.1498C23.1194 37.5874 23.7129 37.8333 24.3317 37.8333C24.9505 37.8333 25.5441 37.5874 25.9816 37.1498C26.4192 36.7123 26.6651 36.1187 26.6651 35.4999C26.6651 34.8811 26.4192 34.2876 25.9816 33.8501C25.5441 33.4125 24.9505 33.1666 24.3317 33.1666ZM24.3317 36.6666C24.0223 36.6666 23.7256 36.5437 23.5068 36.3249C23.2879 36.1061 23.1651 35.8094 23.1651 35.4999C23.1651 35.1905 23.2879 34.8938 23.5068 34.675C23.7255 34.4561 24.0223 34.3333 24.3317 34.3333C24.6412 34.3333 24.9379 34.4561 25.1567 34.675C25.3755 34.8938 25.4984 35.1905 25.4984 35.4999C25.4984 35.8094 25.3755 36.1061 25.1567 36.3249C24.9379 36.5438 24.6412 36.6666 24.3317 36.6666Z" fill="#D12A2A"/>
<path d="M19.665 33.1666C20.2839 33.1666 20.8774 32.9208 21.3149 32.4832C21.7525 32.0457 21.9984 31.4521 21.9984 30.8333C21.9984 30.2145 21.7525 29.621 21.3149 29.1835C20.8774 28.7459 20.2838 28.5 19.665 28.5C19.0462 28.5 18.4527 28.7458 18.0152 29.1835C17.5776 29.621 17.3317 30.2145 17.3317 30.8333C17.3317 31.4521 17.5776 32.0457 18.0152 32.4832C18.4527 32.9208 19.0462 33.1666 19.665 33.1666ZM19.665 29.6667C19.9745 29.6667 20.2712 29.7895 20.49 30.0084C20.7089 30.2271 20.8317 30.5239 20.8317 30.8333C20.8317 31.1427 20.7088 31.4395 20.49 31.6583C20.2712 31.8771 19.9745 32 19.665 32C19.3556 32 19.0589 31.8771 18.8401 31.6583C18.6212 31.4395 18.4984 31.1427 18.4984 30.8333C18.4984 30.5239 18.6212 30.2272 18.8401 30.0084C19.0589 29.7895 19.3556 29.6667 19.665 29.6667Z" fill="#D12A2A"/>
<path d="M24.3317 29.0834C24.7958 29.0834 25.241 28.899 25.5691 28.5707C25.8973 28.2426 26.0817 27.7975 26.0817 27.3334C26.0817 26.8693 25.8974 26.4241 25.5691 26.096C25.241 25.7677 24.7958 25.5834 24.3317 25.5834C23.8676 25.5834 23.4224 25.7677 23.0943 26.096C22.7661 26.4241 22.5817 26.8693 22.5817 27.3334C22.5817 27.7975 22.7661 28.2426 23.0943 28.5707C23.4225 28.899 23.8676 29.0834 24.3317 29.0834ZM24.3317 26.75C24.4864 26.75 24.6348 26.8115 24.7442 26.9209C24.8536 27.0303 24.9151 27.1787 24.9151 27.3334C24.9151 27.4881 24.8536 27.6365 24.7442 27.7458C24.6348 27.8552 24.4864 27.9167 24.3317 27.9167C24.177 27.9167 24.0286 27.8552 23.9192 27.7458C23.8099 27.6365 23.7484 27.4881 23.7484 27.3334C23.7484 27.1787 23.8099 27.0303 23.9192 26.9209C24.0286 26.8115 24.177 26.75 24.3317 26.75Z" fill="#D12A2A"/>
<path d="M20.2485 37.25C20.2485 36.7859 20.0641 36.3407 19.7358 36.0126C19.4077 35.6844 18.9626 35.5 18.4985 35.5C18.0344 35.5 17.5892 35.6844 17.2611 36.0126C16.9328 36.3407 16.7485 36.7859 16.7485 37.25C16.7485 37.7141 16.9328 38.1593 17.2611 38.4874C17.5892 38.8156 18.0344 39 18.4985 39C18.9626 39 19.4077 38.8156 19.7358 38.4874C20.0641 38.1592 20.2485 37.7141 20.2485 37.25ZM18.4985 37.8333C18.3438 37.8333 18.1954 37.7718 18.086 37.6625C17.9766 37.5531 17.9151 37.4047 17.9151 37.25C17.9151 37.0953 17.9766 36.9469 18.086 36.8375C18.1954 36.7281 18.3438 36.6666 18.4985 36.6666C18.6532 36.6666 18.8016 36.7281 18.9109 36.8375C19.0203 36.9469 19.0818 37.0953 19.0818 37.25C19.0818 37.4047 19.0203 37.5531 18.9109 37.6625C18.8016 37.7718 18.6532 37.8333 18.4985 37.8333Z" fill="#D12A2A"/>
<path d="M34.8316 30.8332C35.7599 30.8332 36.6502 30.4645 37.3066 29.8081C37.9629 29.1518 38.3316 28.2615 38.3316 27.3332C38.3316 26.405 37.9629 25.5147 37.3066 24.8583C36.6502 24.2019 35.7599 23.8333 34.8316 23.8333C33.9034 23.8333 33.0131 24.202 32.3567 24.8583C31.7004 25.5147 31.3317 26.405 31.3317 27.3332C31.3326 28.2612 31.7016 29.1509 32.3578 29.8071C33.014 30.4633 33.9037 30.8322 34.8316 30.8332ZM34.8316 24.9999C35.4505 24.9999 36.044 25.2458 36.4815 25.6834C36.9191 26.1209 37.165 26.7144 37.165 27.3332C37.165 27.952 36.9191 28.5456 36.4815 28.9831C36.044 29.4207 35.4504 29.6666 34.8316 29.6666C34.2128 29.6666 33.6193 29.4207 33.1818 28.9831C32.7442 28.5456 32.4983 27.952 32.4983 27.3332C32.4983 26.7144 32.7442 26.1209 33.1818 25.6834C33.6193 25.2458 34.2128 24.9999 34.8316 24.9999Z" fill="#39BA24"/>
<path d="M33.665 37.8333C34.2838 37.8333 34.8773 37.5874 35.3148 37.1498C35.7524 36.7123 35.9983 36.1187 35.9983 35.4999C35.9983 34.8811 35.7525 34.2876 35.3148 33.8501C34.8773 33.4125 34.2838 33.1666 33.665 33.1666C33.0462 33.1666 32.4526 33.4125 32.0151 33.8501C31.5775 34.2876 31.3317 34.8811 31.3317 35.4999C31.3317 36.1187 31.5775 36.7123 32.0151 37.1498C32.4526 37.5874 33.0462 37.8333 33.665 37.8333ZM33.665 34.3333C33.9744 34.3333 34.2712 34.4561 34.4899 34.675C34.7088 34.8938 34.8316 35.1905 34.8316 35.4999C34.8316 35.8094 34.7088 36.1061 34.4899 36.3249C34.2712 36.5438 33.9744 36.6666 33.665 36.6666C33.3556 36.6666 33.0588 36.5437 32.84 36.3249C32.6212 36.1061 32.4983 35.8094 32.4983 35.4999C32.4983 35.1905 32.6212 34.8938 32.84 34.675C33.0588 34.4561 33.3556 34.3333 33.665 34.3333Z" fill="#39BA24"/>
<path d="M38.3317 37.8334C37.7128 37.8334 37.1193 38.0792 36.6818 38.5169C36.2442 38.9543 35.9984 39.5479 35.9984 40.1667C35.9984 40.7855 36.2442 41.3791 36.6818 41.8165C37.1193 42.2541 37.7129 42.5 38.3317 42.5C38.9505 42.5 39.544 42.2542 39.9815 41.8165C40.4191 41.3791 40.665 40.7855 40.665 40.1667C40.665 39.5479 40.4191 38.9543 39.9815 38.5169C39.544 38.0792 38.9505 37.8334 38.3317 37.8334ZM38.3317 41.3334C38.0223 41.3334 37.7255 41.2105 37.5067 40.9916C37.2879 40.7729 37.165 40.4761 37.165 40.1667C37.165 39.8573 37.2879 39.5605 37.5067 39.3418C37.7255 39.1229 38.0222 39 38.3317 39C38.6411 39 38.9378 39.1229 39.1566 39.3418C39.3755 39.5605 39.4983 39.8573 39.4983 40.1667C39.4983 40.4761 39.3755 40.7729 39.1566 40.9916C38.9379 41.2105 38.6411 41.3334 38.3317 41.3334Z" fill="#39BA24"/>
<path d="M35.415 43.6666C35.415 43.2025 35.2307 42.7573 34.9024 42.4292C34.5743 42.101 34.1291 41.9166 33.665 41.9166C33.2009 41.9166 32.7557 42.101 32.4277 42.4292C32.0994 42.7574 31.915 43.2025 31.915 43.6666C31.915 44.1307 32.0994 44.5759 32.4277 44.904C32.7558 45.2322 33.2009 45.4166 33.665 45.4166C34.1291 45.4166 34.5743 45.2323 34.9024 44.904C35.2307 44.5759 35.415 44.1307 35.415 43.6666ZM33.0817 43.6666C33.0817 43.5119 33.1432 43.3635 33.2526 43.2541C33.3619 43.1448 33.5103 43.0833 33.665 43.0833C33.8197 43.0833 33.9681 43.1448 34.0775 43.2541C34.1869 43.3635 34.2484 43.5119 34.2484 43.6666C34.2484 43.8213 34.1869 43.9697 34.0775 44.0791C33.9681 44.1885 33.8197 44.25 33.665 44.25C33.5103 44.25 33.3619 44.1885 33.2526 44.0791C33.1432 43.9697 33.0817 43.8213 33.0817 43.6666Z" fill="#39BA24"/>
<path d="M37.7483 33.75C37.7483 34.2141 37.9326 34.6593 38.2609 34.9874C38.589 35.3156 39.0342 35.5 39.4983 35.5C39.9624 35.5 40.4076 35.3156 40.7357 34.9874C41.0639 34.6592 41.2483 34.2141 41.2483 33.75C41.2483 33.2859 41.0639 32.8407 40.7357 32.5126C40.4075 32.1844 39.9624 32 39.4983 32C39.0342 32 38.589 32.1844 38.2609 32.5126C37.9327 32.8407 37.7483 33.2859 37.7483 33.75ZM39.4983 33.1667C39.653 33.1667 39.8014 33.2282 39.9108 33.3375C40.0201 33.4469 40.0816 33.5953 40.0816 33.75C40.0816 33.9047 40.0201 34.0531 39.9108 34.1625C39.8014 34.2718 39.653 34.3333 39.4983 34.3333C39.3436 34.3333 39.1952 34.2718 39.0858 34.1625C38.9764 34.0531 38.9149 33.9047 38.9149 33.75C38.9149 33.5953 38.9764 33.4469 39.0858 33.3375C39.1952 33.2282 39.3436 33.1667 39.4983 33.1667Z" fill="#39BA24"/>
<path d="M46.4976 0C34.1655 0.00037839 22.3382 4.89969 13.6185 13.6205C4.89834 22.3407 0 34.1684 0 46.5005C0 58.8325 4.8993 70.6599 13.6195 79.3805C22.3397 88.1011 34.1665 93 46.4995 93C58.8316 93 70.6589 88.1015 79.3795 79.3815C88.1001 70.6616 92.999 58.8345 93 46.5024C92.9868 34.1733 88.0829 22.3537 79.365 13.636C70.6471 4.91849 58.8277 0.0145313 46.4985 0.000968947L46.4976 0ZM46.4976 3.47274C57.5906 3.46517 68.2555 7.75719 76.2505 15.4473L15.0784 75.8638C7.39546 67.6545 3.23268 56.7631 3.48262 45.5219C3.73237 34.2806 8.37437 23.5847 16.4143 15.7254C24.4545 7.86568 35.2534 3.46693 46.4976 3.47274ZM46.4976 89.5265C35.7853 89.5356 25.4575 85.5327 17.5497 78.3066L17.5489 78.3058L78.66 17.9494L78.6607 17.9502C86.0474 26.2587 89.9291 37.1041 89.4932 48.2126C89.0561 59.3212 84.3346 69.8291 76.3183 77.5316C68.3024 85.2342 57.6148 89.5333 46.4976 89.5265Z" fill="#AD3D3D"/>
</svg>
