<svg width="32" height="31" viewBox="0 0 32 31" fill="none" xmlns="http://www.w3.org/2000/svg">
<path d="M14.9137 24.5455H27.1121C29.8275 24.5455 31.9999 22.2182 31.9999 19.4081L32 5.13754C32 2.28343 29.7858 0.000142934 27.1123 0.000142934L4.88773 0C2.17232 0 0 2.32727 0 5.13739V19.4079C0 22.262 2.21417 24.5453 4.88773 24.5453H6.51701V31L14.9137 24.5455ZM4.88759 21.9548C3.55085 21.9548 2.46455 20.8132 2.46455 19.408V5.13743C2.46455 3.7324 3.55067 2.59061 4.88759 2.59061H27.1121C28.4489 2.59061 29.5352 3.73222 29.5352 5.13743V19.408C29.5352 20.813 28.4491 21.9548 27.1121 21.9548L14.12 21.9546L8.98159 25.8626V21.9546L4.88759 21.9548Z" fill="#7A7A7A"/>
<path d="M21.0547 11.2409C20.2609 11.2409 19.5926 11.9434 19.5926 12.7777C19.5926 13.6119 20.2609 14.3146 21.0547 14.3146C21.8485 14.3146 22.5169 13.612 22.5169 12.7777C22.5169 11.9434 21.8485 11.2409 21.0547 11.2409Z" fill="#3BB30B"/>
<path d="M10.9451 11.2409C10.1513 11.2409 9.48291 11.9434 9.48291 12.7777C9.48291 13.6119 10.1513 14.3146 10.9451 14.3146C11.7388 14.3146 12.4072 13.612 12.4072 12.7777C12.4072 11.9434 11.7388 11.2409 10.9451 11.2409Z" fill="#3BB30B"/>
<path d="M15.9999 11.2409C15.2061 11.2409 14.5377 11.9434 14.5377 12.7777C14.5377 13.6119 15.2061 14.3146 15.9999 14.3146C16.7936 14.3146 17.462 13.612 17.462 12.7777C17.462 11.9434 16.7936 11.2409 15.9999 11.2409Z" fill="#AB1C69"/>
</svg>
