<svg width="32" height="37" viewBox="0 0 32 37" fill="none" xmlns="http://www.w3.org/2000/svg">
<path d="M31.0323 29.2419V2.98387C31.0323 1.33852 29.6937 0 28.0484 0H2.98387C1.33852 0 0 1.33852 0 2.98387V32.8226C0 35.1255 1.87451 37 4.17742 37H28.0484C29.6937 37 31.0323 35.6615 31.0323 34.0161V31.629C31.0323 31.2991 30.7655 31.0323 30.4355 31.0323H8.35484V32.2258H29.8387V34.0161C29.8387 35.0032 29.0354 35.8065 28.0484 35.8065H4.17742C2.53207 35.8065 1.19355 34.4679 1.19355 32.8226C1.19355 31.1772 2.53207 29.8387 4.17742 29.8387H30.4355C30.7654 29.8387 31.0323 29.5719 31.0323 29.2419ZM29.8387 28.6452H4.17742C3.00949 28.6452 1.95207 29.1268 1.19355 29.9014V2.98384C1.19355 1.99679 1.99682 1.19352 2.98387 1.19352H28.0484C29.0354 1.19352 29.8387 1.99679 29.8387 2.98384V28.6452Z" fill="#454545"/>
<path d="M16.1129 22.6774V18.8689L17.1023 19.3636C17.5344 19.5796 18.0172 19.6937 18.5 19.6937C18.9827 19.6937 19.4655 19.5796 19.8977 19.3637L21.7507 18.437C21.9529 18.336 22.0806 18.1295 22.0806 17.9033C22.0806 17.6772 21.9529 17.4707 21.7507 17.3692L19.8977 16.4425C19.8188 16.4031 19.7372 16.3715 19.6553 16.3393C19.8117 16.2092 19.971 16.0821 20.1155 15.9377C20.9736 15.0796 21.5818 14.0054 21.8747 12.8298L22.0621 12.0802C22.1134 11.8767 22.0537 11.6612 21.9052 11.5133C21.7572 11.3653 21.5435 11.305 21.3382 11.3564L20.5893 11.5431C19.413 11.8368 18.3388 12.4455 17.4807 13.303C17.4091 13.3746 17.3501 13.4558 17.2821 13.5304C17.2898 13.3971 17.3064 13.2635 17.3064 13.1292C17.3064 11.8653 17.0074 10.6001 16.4428 9.47025L16.0502 8.68486C15.8473 8.2803 15.1855 8.2803 14.9826 8.68486L14.59 9.47025C14.0248 10.6 13.7258 11.8652 13.7258 13.1292C13.7258 13.2635 13.7424 13.3971 13.7496 13.5314C13.6816 13.4568 13.6226 13.3756 13.551 13.304C12.6929 12.4459 11.6187 11.8377 10.443 11.5448L9.69345 11.3574C9.48931 11.3061 9.27447 11.3664 9.12653 11.5143C8.97796 11.6623 8.91828 11.8777 8.96963 12.0812L9.15637 12.8302C9.45004 14.0064 10.0588 15.0806 10.9162 15.9388C11.0607 16.0832 11.22 16.2103 11.3764 16.3403C11.2946 16.3725 11.2129 16.4042 11.1341 16.4435L9.28107 17.3703C9.07928 17.4707 8.95158 17.6772 8.95158 17.9034C8.95158 18.1295 9.07927 18.336 9.28154 18.4375L11.1345 19.3642C11.5667 19.5797 12.0495 19.6937 12.5322 19.6937C13.015 19.6937 13.4978 19.5797 13.9299 19.3637L14.9193 18.8689V22.6774L16.1129 22.6774ZM20.1493 17.9032L19.3639 18.2958C18.8298 18.5626 18.1704 18.5626 17.6362 18.2958L16.8504 17.9032L17.6358 17.5106C18.1699 17.2438 18.8293 17.2438 19.3634 17.5106L20.1493 17.9032ZM18.325 14.1478C18.9755 13.498 19.7776 13.0217 20.6567 12.7627C20.3971 13.6423 19.922 14.4438 19.2715 15.0943C18.621 15.7448 17.819 16.2205 16.9399 16.4795C17.1989 15.6004 17.6745 14.7983 18.325 14.1478ZM15.516 10.304C15.9068 11.1902 16.1127 12.1599 16.1127 13.1291C16.1127 14.0982 15.9069 15.068 15.516 15.9542C15.1251 15.068 14.9192 14.0982 14.9192 13.1291C14.9192 12.1599 15.1251 11.1902 15.516 10.304ZM10.3754 12.7627C11.2551 13.0223 12.0566 13.4973 12.7071 14.1478C13.3569 14.7983 13.8333 15.6004 14.0922 16.4795C13.2126 16.2199 12.4111 15.7448 11.7606 15.0943C11.1106 14.4437 10.6344 13.6417 10.3754 12.7627ZM13.3957 18.296C12.8616 18.5628 12.2022 18.5628 11.6681 18.296L10.8827 17.9033L11.6681 17.5107C12.2022 17.2439 12.8616 17.2439 13.3957 17.5107L14.1816 17.9033L13.3957 18.296Z" fill="#3BB30B"/>
<path d="M25.0644 15.5161C25.0644 10.2515 20.7807 5.96774 15.516 5.96774C10.2514 5.96774 5.96765 10.2515 5.96765 15.5161C5.96765 20.7808 10.2514 25.0645 15.516 25.0645C20.7807 25.0645 25.0644 20.7808 25.0644 15.5161ZM7.1612 15.5161C7.1612 10.909 10.9089 7.16129 15.516 7.16129C20.1231 7.16129 23.8709 10.909 23.8709 15.5161C23.8709 20.1232 20.1231 23.871 15.516 23.871C10.9089 23.871 7.1612 20.1232 7.1612 15.5161Z" fill="#3C55AF"/>
<path d="M15.5161 26.258V27.4516C22.0972 27.4516 27.4516 22.0972 27.4516 15.5161H26.258C26.258 21.439 21.439 26.258 15.5161 26.258Z" fill="#3C55AF"/>
<path d="M15.5162 4.77418V3.58063C8.93511 3.58063 3.58069 8.93504 3.58069 15.5161H4.77424C4.77424 9.59325 9.59331 4.77418 15.5162 4.77418Z" fill="#3C55AF"/>
<path d="M3.58069 33.421H15.5162V34.6145H3.58069V33.421Z" fill="#A0A0A0"/>
</svg>
