<svg width="47" height="47" viewBox="0 0 47 47" fill="none" xmlns="http://www.w3.org/2000/svg">
<path d="M46.5 23.5C46.5 36.2025 36.2025 46.5 23.5 46.5C10.7975 46.5 0.5 36.2025 0.5 23.5C0.5 10.7975 10.7975 0.5 23.5 0.5C36.2025 0.5 46.5 10.7975 46.5 23.5Z" fill="white" stroke="#D8D8D8"/>
<mask id="mask0" mask-type="alpha" maskUnits="userSpaceOnUse" x="0" y="0" width="47" height="47">
<path d="M23.5 47C36.4787 47 47 36.4787 47 23.5C47 10.5213 36.4787 0 23.5 0C10.5213 0 0 10.5213 0 23.5C0 36.4787 10.5213 47 23.5 47Z" fill="white"/>
</mask>
<g mask="url(#mask0)">
<path d="M27.2198 36C27.2593 35.9687 27.7017 35.9605 27.6028 35.5214C27.6019 35.5172 27.6033 35.5132 27.6022 35.5089L26.8058 32.3599C27.8767 26.4803 27.8767 20.5199 26.8058 14.6403L27.6022 11.4911C27.6319 11.3732 27.6057 11.248 27.531 11.1521C27.4563 11.056 27.3415 11 27.2198 11H11.3944C11.2727 11 11.1579 11.0562 11.0832 11.1521C11.0085 11.248 10.9823 11.3732 11.012 11.4911L11.8088 14.6403C10.7374 20.5199 10.7374 26.4803 11.8088 32.3599L11.012 35.5089C10.9823 35.6268 11.0085 35.752 11.0832 35.8479C11.1579 35.9438 11.2727 36 11.3944 36H27.2198ZM12.5186 32.7702H26.0958L26.7131 35.2112H25.2186V34.8723C25.2186 34.6543 25.0422 34.4779 24.8242 34.4779C24.6062 34.4779 24.4298 34.6543 24.4298 34.8723V35.2112H23.0118V34.8723C23.0118 34.6543 22.8354 34.4779 22.6174 34.4779C22.3994 34.4779 22.223 34.6543 22.223 34.8723V35.2112H20.8049V34.8723C20.8049 34.6543 20.6285 34.4779 20.4105 34.4779C20.1925 34.4779 20.0161 34.6543 20.0161 34.8723V35.2112H18.5981V34.8723C18.5981 34.6543 18.4217 34.4779 18.2037 34.4779C17.9857 34.4779 17.8093 34.6543 17.8093 34.8723V35.2112H16.3912V34.8723C16.3912 34.6543 16.2148 34.4779 15.9968 34.4779C15.7788 34.4779 15.6024 34.6543 15.6024 34.8723V35.2112H14.1847V34.8723C14.1847 34.6543 14.0083 34.4779 13.7904 34.4779C13.5724 34.4779 13.396 34.6543 13.396 34.8723V35.2112H11.9009L12.5186 32.7702ZM13.396 11.7888V12.1279C13.396 12.3459 13.5724 12.5223 13.7904 12.5223C14.0083 12.5223 14.1847 12.3459 14.1847 12.1279V11.7888H15.6024V12.1279C15.6024 12.3459 15.7788 12.5223 15.9968 12.5223C16.2148 12.5223 16.3912 12.3459 16.3912 12.1279V11.7888H17.8093V12.1279C17.8093 12.3459 17.9857 12.5223 18.2037 12.5223C18.4217 12.5223 18.5981 12.3459 18.5981 12.1279V11.7888H20.0161V12.1279C20.0161 12.3459 20.1925 12.5223 20.4105 12.5223C20.6285 12.5223 20.8049 12.3459 20.8049 12.1279V11.7888H22.223V12.1279C22.223 12.3459 22.3994 12.5223 22.6174 12.5223C22.8354 12.5223 23.0118 12.3459 23.0118 12.1279V11.7888H24.4298V12.1279C24.4298 12.3459 24.6062 12.5223 24.8242 12.5223C25.0422 12.5223 25.2186 12.3459 25.2186 12.1279V11.7888H26.7133L26.0959 14.23H12.5186L11.9009 11.7888H13.396ZM12.5413 15.0187H26.0732C27.0704 20.6483 27.0704 26.3519 26.0732 31.9815H12.5413C11.5438 26.3519 11.5438 20.6483 12.5413 15.0187Z" fill="#868686"/>
<path d="M19.1735 27.0726C19.3214 27.1346 19.4924 27.1011 19.6061 26.9867C19.8233 26.7675 20.2412 26.3728 20.706 25.9892C20.364 26.5457 20.0528 27.1411 19.9538 27.5925C19.7859 27.7862 19.6188 28.0539 19.4455 28.4055C19.3488 28.6008 19.4293 28.8373 19.6245 28.9336C19.8201 29.03 20.0566 28.9497 20.1526 28.7545C20.2847 28.4872 20.3952 28.3108 20.4815 28.1949C21.1578 28.2669 23.1397 28.3497 24.1222 26.9609C24.3749 26.6119 24.5278 26.1648 24.5651 25.6672C24.6437 24.5826 24.9487 23.3113 25.5703 22.9951C25.7113 22.9231 25.7956 22.7736 25.7845 22.6157C25.7737 22.4578 25.6689 22.3219 25.5191 22.2703C25.4013 22.2302 22.5905 21.2885 20.6498 22.6531C19.5356 23.4372 18.9575 24.8002 18.9317 26.7036C18.9294 26.8646 19.0253 27.0106 19.1735 27.0726ZM24.5836 22.8445C23.6157 24.1586 24.0241 25.7499 23.4806 26.5022C22.842 27.4049 21.5206 27.4658 20.8308 27.4304C21.1335 26.6924 21.9269 25.5316 22.4468 24.8596C22.5524 24.7232 22.557 24.5341 22.4584 24.3928C22.3602 24.2514 22.1815 24.1898 22.0166 24.2418C21.3199 24.4606 20.4245 25.17 19.7963 25.7261C20.1793 23.1546 22.0133 22.3334 24.5836 22.8445Z" fill="#BE1B1B"/>
<path d="M17.0818 26.4546C17.2519 26.4922 17.4206 26.4146 17.5061 26.2712C17.5871 26.8808 17.6495 27.5848 17.6707 28.3626C17.6768 28.5768 17.8521 28.7462 18.0646 28.7462C18.0685 28.7462 18.072 28.7462 18.0758 28.7462C18.2934 28.7401 18.4652 28.5587 18.4594 28.3411C18.4389 27.5893 18.3807 26.8817 18.3001 26.2472C19.6265 24.3809 19.3659 23.158 19.3583 23.1301C19.078 21.4571 17.7511 20.5609 16.987 20.1765C16.4845 19.9201 14.8239 19.628 14.6049 18.3629C14.5807 18.1957 14.4528 18.0628 14.2868 18.032C14.1193 18.0028 13.9537 18.0798 13.8712 18.2265C13.1383 19.522 12.995 20.6001 12.9072 21.3196C12.7443 22.6433 12.4054 25.3978 17.0818 26.4546ZM13.6902 21.4159C13.7615 20.8328 13.7692 20.3968 14.2005 19.3661C14.9519 20.4903 16.1011 20.6104 16.6308 20.8801C17.2632 21.1983 18.3577 21.9308 18.5838 23.2788C18.5854 23.287 18.7048 23.9526 18.1096 25.0679C17.9721 24.3888 17.8122 23.8764 17.6626 23.6046C17.4669 23.2534 17.1688 22.8401 16.7771 22.3768L16.7755 22.3779C16.7735 22.3751 16.7719 22.3723 16.7698 22.3695C16.7015 22.2778 16.5635 22.1992 16.4428 22.1992C16.1045 22.1992 15.9225 22.5959 16.1486 22.8567C16.9424 23.962 16.9377 25.045 16.8653 25.59C13.2924 24.6487 13.5308 22.7122 13.6902 21.4159Z" fill="#BE1B1B"/>
<path d="M35.5962 18.8862L36.2285 16.387C36.2581 16.2692 36.2319 16.144 36.1572 16.0481C36.0825 15.9522 35.9677 15.896 35.846 15.896H27.8602C27.6422 15.896 27.4658 16.0724 27.4658 16.2904C27.4658 16.5084 27.6422 16.6848 27.8602 16.6848H28.2588V16.8769C28.2588 17.0949 28.4352 17.2713 28.6532 17.2713C28.8712 17.2713 29.0475 17.0949 29.0475 16.8769V16.6848H30.0189V16.8769C30.0189 17.0949 30.1953 17.2713 30.4133 17.2713C30.6312 17.2713 30.8076 17.0949 30.8076 16.8769V16.6848H31.7793V16.8769C31.7793 17.0949 31.9557 17.2713 32.1737 17.2713C32.3917 17.2713 32.5681 17.0949 32.5681 16.8769V16.6848H33.5398V16.8769C33.5398 17.0949 33.7162 17.2713 33.9342 17.2713C34.1522 17.2713 34.3286 17.0949 34.3286 16.8769V16.6848H35.3396L34.887 18.4734H28.1725C27.9545 18.4734 27.7781 18.6497 27.7781 18.8677C27.7781 19.0857 27.9545 19.2621 28.1725 19.2621H34.8639C35.6404 23.7016 35.6404 28.1966 34.8639 32.633C31.4472 32.633 29.227 32.633 27.4735 32.633C27.2555 32.633 27.0791 32.8094 27.0791 33.0274C27.0791 33.2454 27.2555 33.4218 27.4735 33.4218C29.1203 33.4218 31.5707 33.4218 34.8861 33.4218L35.3384 35.2104H34.3286V35.0205C34.3286 34.8025 34.1522 34.6261 33.9342 34.6261C33.7162 34.6261 33.5398 34.8025 33.5398 35.0205V35.2104H32.5681V35.0205C32.5681 34.8025 32.3917 34.6261 32.1737 34.6261C31.9557 34.6261 31.7793 34.8025 31.7793 35.0205V35.2104H30.8076V35.0205C30.8076 34.8025 30.6312 34.6261 30.4133 34.6261C30.1953 34.6261 30.0189 34.8025 30.0189 35.0205V35.2104H29.0475V35.0205C29.0475 34.8025 28.8712 34.6261 28.6532 34.6261C28.4352 34.6261 28.2588 34.8025 28.2588 35.0205V35.2507C28.1256 35.314 28.0319 35.4473 28.0319 35.6048C28.0319 35.8227 28.2083 35.9991 28.4263 35.9991C28.6526 35.9991 36.0129 35.9991 35.8403 35.9991C35.8419 35.9992 35.8433 35.9999 35.8449 35.9999C36.0865 35.9999 36.2895 35.7509 36.2285 35.5081L35.5962 33.0089C36.4456 28.3244 36.4456 23.5741 35.5962 18.8862Z" fill="#868686"/>
<path d="M29.2631 28.2728C29.1665 28.4685 29.2466 28.7049 29.4418 28.8012C29.6379 28.8979 29.8744 28.8169 29.9702 28.6225C30.0608 28.4392 30.137 28.3121 30.199 28.2239C30.7902 28.2828 32.345 28.3136 33.1296 27.2029C33.3402 26.9121 33.4677 26.5412 33.4981 26.1295C33.5763 25.053 33.8667 24.2616 34.2565 24.0632C34.3978 23.9912 34.4822 23.8422 34.471 23.6839C34.4602 23.526 34.3555 23.39 34.2056 23.3384C34.1097 23.3053 31.8289 22.5419 30.2495 23.6542C29.3386 24.2955 28.8661 25.4039 28.8453 26.9495C28.8429 27.1105 28.9388 27.2564 29.0871 27.3184C29.2346 27.3804 29.406 27.3469 29.52 27.2326C29.634 27.117 29.8181 26.9402 30.0365 26.7457C29.8659 27.0585 29.7272 27.3666 29.6671 27.6223C29.5335 27.7806 29.4006 27.9947 29.2631 28.2728ZM29.7315 25.9635C30.0948 24.1429 31.4639 23.5997 33.299 23.9277C32.5839 25.0325 32.8956 26.1815 32.4883 26.7438C32.0331 27.3878 31.116 27.4686 30.558 27.4556C30.8203 26.8782 31.403 26.0313 31.792 25.5279C31.8975 25.392 31.9021 25.2029 31.8035 25.0615C31.7049 24.9202 31.5266 24.8585 31.3618 24.9105C30.8545 25.0696 30.2221 25.5445 29.7315 25.9635Z" fill="#BE1B1B"/>
</g>
</svg>
