<svg width="47" height="47" viewBox="0 0 47 47" fill="none" xmlns="http://www.w3.org/2000/svg">
<path d="M46.5 23.5C46.5 36.2025 36.2025 46.5 23.5 46.5C10.7975 46.5 0.5 36.2025 0.5 23.5C0.5 10.7975 10.7975 0.5 23.5 0.5C36.2025 0.5 46.5 10.7975 46.5 23.5Z" fill="white" stroke="#D8D8D8"/>
<mask id="mask0" mask-type="alpha" maskUnits="userSpaceOnUse" x="0" y="0" width="47" height="47">
<path d="M23.5 47C36.4787 47 47 36.4787 47 23.5C47 10.5213 36.4787 0 23.5 0C10.5213 0 0 10.5213 0 23.5C0 36.4787 10.5213 47 23.5 47Z" fill="white"/>
</mask>
<g mask="url(#mask0)">
<path d="M15.71 11.1115L15.71 11.1115C13.849 12.4154 12.5965 14.3121 11.997 16.7817L15.71 11.1115ZM15.71 11.1115C17.2328 10.0443 18.9946 9.5 20.9591 9.5C23.0532 9.5 24.8959 10.1058 25.9771 10.5577C26.0051 11.2873 25.9893 12.3718 25.7805 13.5691L25.7805 13.5694M15.71 11.1115L25.7805 13.5694M25.7805 13.5694C25.2799 16.4506 23.9663 18.6233 21.8953 20.0734L21.8949 20.0737M25.7805 13.5694L21.8949 20.0737M21.8949 20.0737C20.3724 21.1416 18.6107 21.685 16.6471 21.685H16.6461C14.5534 21.685 12.7105 21.0798 11.6303 20.6281M21.8949 20.0737L11.6303 20.6281M11.6303 20.6281C11.5939 19.7258 11.6266 18.3107 11.997 16.7819L11.6303 20.6281Z" fill="#DDE7DD" stroke="#BA9650"/>
<path d="M22.3966 34.3192L22.3966 34.3192C23.1176 33.3417 23.6161 32.3796 23.9178 31.7148C22.6457 30.2401 19.753 27.521 15.804 27.521C15.3702 27.521 14.9269 27.5541 14.4868 27.6195L22.3966 34.3192ZM22.3966 34.3192C20.6611 36.6727 18.515 38.0286 16.0146 38.4014C15.5733 38.4669 15.1298 38.5 14.696 38.5C10.7325 38.5 7.84783 35.7822 6.58232 34.3116M22.3966 34.3192L6.58232 34.3116M6.58232 34.3116C6.95273 33.4887 7.61424 32.2367 8.62994 31.0337L6.58232 34.3116ZM8.63004 31.0336C10.2701 29.0924 12.2394 27.9548 14.4865 27.6196L8.63004 31.0336Z" fill="#DDE7DD" stroke="#BA9650"/>
<path d="M30.052 31.7006L30.052 31.7006C32.383 34.6273 35.8079 35.2621 38.3389 35.2621C38.9084 35.2621 39.4083 35.2289 39.8021 35.1891C40.0967 34.3419 40.4715 32.9898 40.5556 31.4325L30.052 31.7006ZM30.052 31.7006C28.6454 29.9345 27.9911 27.7723 28.1272 25.245L28.1272 25.2448C28.2105 23.6873 28.5829 22.3344 28.8756 21.4852M30.052 31.7006L28.8756 21.4852M28.8756 21.4852C29.2689 21.4457 29.7655 21.4131 30.3269 21.4131C32.8579 21.4131 36.2868 22.0488 38.6198 24.9795L38.6199 24.9796C40.033 26.7534 40.6898 28.9147 40.5557 31.4321L28.8756 21.4852Z" fill="#DDE7DD" stroke="#BA9650"/>
</g>
</svg>
