<svg width="47" height="47" viewBox="0 0 47 47" fill="none" xmlns="http://www.w3.org/2000/svg">
<path d="M46.5 23.5C46.5 36.2025 36.2025 46.5 23.5 46.5C10.7975 46.5 0.5 36.2025 0.5 23.5C0.5 10.7975 10.7975 0.5 23.5 0.5C36.2025 0.5 46.5 10.7975 46.5 23.5Z" fill="white" stroke="#D8D8D8"/>
<mask id="mask0" mask-type="alpha" maskUnits="userSpaceOnUse" x="0" y="0" width="47" height="47">
<path d="M23.5 47C36.4787 47 47 36.4787 47 23.5C47 10.5213 36.4787 0 23.5 0C10.5213 0 0 10.5213 0 23.5C0 36.4787 10.5213 47 23.5 47Z" fill="white"/>
</mask>
<g mask="url(#mask0)">
<path d="M33.1874 18.635V12.2749C33.1874 12.0399 32.9914 11.8499 32.7499 11.8499H29.2499C29.0084 11.8499 28.8124 12.0399 28.8124 12.2749V15.2643L23.397 11.0921C23.2377 10.9693 23.0124 10.9693 22.8532 11.0921L10.1657 20.8671C10.02 20.9793 9.96311 21.1689 10.0244 21.3397C10.0856 21.5101 10.2514 21.6249 10.4374 21.6249H12.1874V36.0749C12.1874 36.3099 12.3834 36.4999 12.6249 36.4999H20.4999H25.7499H33.6249C33.8664 36.4999 34.0624 36.3099 34.0624 36.0749V21.6249H35.8124C35.9983 21.6249 36.1641 21.5101 36.2254 21.3397C36.2866 21.1689 36.2297 20.9789 36.084 20.8671L33.1874 18.635ZM29.6874 12.6999H32.3124V17.9516L29.6874 15.8963V12.6999ZM20.8477 35.6499L19.7373 30.9749H26.5124L25.402 35.6499H20.8477ZM26.3234 23.7499C25.556 23.7499 24.8897 23.9666 24.2834 24.2021L24.3954 24.0525C24.958 23.3729 25.7949 22.9692 26.6922 22.9441C27.5891 22.9241 28.4492 23.2743 29.039 23.9071L29.9411 24.9641L28.626 25.9888C27.6569 26.8137 26.2482 26.9586 25.1019 26.3403L23.6223 25.6382L24.6412 24.9786C25.1575 24.7797 25.717 24.5999 26.3234 24.5999H26.6249V23.7499H26.3234ZM19.9263 21.1999C20.5327 21.1999 21.0927 21.3797 21.608 21.5786L22.6537 22.2556L21.8482 22.7299C21.8347 22.738 21.8215 22.7465 21.8093 22.7562C20.5874 23.664 18.85 23.5463 17.7541 22.4681L16.3182 21.1859L17.5152 20.0146C18.2139 19.4047 19.1449 19.1416 20.0724 19.2942C20.9986 19.4459 21.79 19.992 22.2302 20.7651L22.3654 21.0477L22.0547 20.8467C22.0294 20.8306 22.0027 20.817 21.9747 20.8055C21.3665 20.5688 20.6976 20.3499 19.9263 20.3499H19.6249V21.1999H19.9263ZM26.6249 29.2749V30.1249H19.6249V29.2749H26.6249ZM33.6249 20.7749C33.3834 20.7749 33.1874 20.9649 33.1874 21.1999V35.6499H26.2998L27.4885 30.6455C27.4959 30.6141 27.4999 30.5818 27.4999 30.5499V28.8499C27.4999 28.6149 27.3039 28.4249 27.0624 28.4249H23.5624V26.5553L24.6981 27.0938C25.2962 27.4168 25.9559 27.574 26.6113 27.574C27.5427 27.574 28.4654 27.2557 29.189 26.6407L30.8367 25.3568C30.9281 25.2854 30.9863 25.1817 30.9985 25.0678C31.0104 24.9543 30.9749 24.8417 30.8997 24.7537L29.7009 23.3504C28.9265 22.5195 27.8271 22.058 26.6673 22.0945C25.514 22.1268 24.4378 22.6466 23.7015 23.5361L23.5624 23.7206V22.4749V22.0422V21.6249C23.5624 21.5628 23.5484 21.5016 23.5217 21.4455L23.0102 20.3805C22.427 19.3528 21.4094 18.6516 20.2185 18.4557C19.0281 18.2614 17.8294 18.598 16.9128 19.3987L15.3772 20.9003C15.2936 20.9823 15.2477 21.0941 15.2503 21.2097C15.2529 21.3253 15.3041 21.4349 15.3916 21.5131L17.1469 23.0797C17.9107 23.8315 18.9284 24.2157 19.9517 24.2157C20.7829 24.2157 21.6177 23.962 22.3216 23.4456L22.6874 23.2297V25.0249V25.8749V28.4249H19.1874C18.9459 28.4249 18.7499 28.6149 18.7499 28.8499V30.5499C18.7499 30.5818 18.7538 30.6141 18.7608 30.6455L19.9499 35.6499H13.0624V21.1999C13.0624 20.9649 12.8664 20.7749 12.6249 20.7749H11.693L23.1249 11.9672L34.5567 20.7749H33.6249Z" fill="#299B50"/>
</g>
</svg>
