<svg width="35" height="35" viewBox="0 0 35 35" fill="none" xmlns="http://www.w3.org/2000/svg">
<circle cx="17.5" cy="17.5" r="17.5" fill="white"/>
<path d="M24.3092 7.0039L19.9572 7.73512C19.8982 7.74135 19.8427 7.76602 19.7986 7.8056L7.0859 20.5183C7.05872 20.5446 7.03712 20.5761 7.02236 20.6109C7.0076 20.6457 7 20.6831 7 20.7209C7 20.7587 7.0076 20.7961 7.02236 20.8309C7.03712 20.8658 7.05872 20.8972 7.0859 20.9235L15.0765 28.9053C15.1292 28.9575 15.2005 28.9867 15.2747 28.9867C15.3489 28.9867 15.4201 28.9575 15.4729 28.9053L28.1856 16.1926C28.2268 16.152 28.2544 16.0997 28.2649 16.0428L28.9961 11.682C29.0036 11.6375 29.0003 11.5919 28.9865 11.549C28.9727 11.506 28.9488 11.4671 28.9168 11.4353L26.9346 9.46186L28.3354 8.06108C28.3797 8.01789 28.4086 7.9613 28.4176 7.90004C28.4266 7.83878 28.4152 7.77626 28.3851 7.72214C28.3551 7.66802 28.308 7.62529 28.2513 7.60057C28.1945 7.57585 28.1312 7.5705 28.0711 7.58535C28.0205 7.59899 27.9747 7.62645 27.9389 7.66464L26.5381 9.06541L24.5559 7.08319C24.5241 7.05121 24.4851 7.02732 24.4422 7.01353C24.3993 6.99973 24.3537 6.99643 24.3092 7.0039ZM24.2652 7.58535L28.4058 11.7348L27.7275 15.8578L15.2791 28.3062L7.69378 20.7209L20.1422 8.27252L24.2652 7.58535ZM23.8511 10.4398C23.5016 10.4732 23.1574 10.6225 22.8908 10.8891C22.2816 11.4983 22.2819 12.5002 22.8908 13.1092C23.4998 13.7181 24.5017 13.7185 25.1109 13.1092C25.7202 12.4999 25.7199 11.498 25.1109 10.8891C24.7684 10.5465 24.3005 10.3968 23.8511 10.4398ZM24.0009 10.9948C24.2571 10.9947 24.5177 11.0887 24.7145 11.2855C25.108 11.679 25.1082 12.3102 24.7145 12.7039C24.3208 13.0976 23.6896 13.0975 23.2961 12.7039C22.9026 12.3104 22.9024 11.6792 23.2961 11.2855C23.493 11.0887 23.7447 10.9948 24.0009 10.9948Z" fill="black"/>
</svg>
