<svg width="47" height="47" viewBox="0 0 47 47" fill="none" xmlns="http://www.w3.org/2000/svg">
<path d="M46.5 23.5C46.5 36.2025 36.2025 46.5 23.5 46.5C10.7975 46.5 0.5 36.2025 0.5 23.5C0.5 10.7975 10.7975 0.5 23.5 0.5C36.2025 0.5 46.5 10.7975 46.5 23.5Z" fill="white" stroke="#D8D8D8"/>
<mask id="mask0" mask-type="alpha" maskUnits="userSpaceOnUse" x="0" y="0" width="47" height="47">
<path d="M23.5 47C36.4787 47 47 36.4787 47 23.5C47 10.5213 36.4787 0 23.5 0C10.5213 0 0 10.5213 0 23.5C0 36.4787 10.5213 47 23.5 47Z" fill="white"/>
</mask>
<g mask="url(#mask0)">
<path d="M27.4187 12.6818L27.0441 12L26.6696 12.6818C26.2941 13.3659 23 19.4255 23 21.5028C23 23.7637 24.8142 25.6029 27.0441 25.6029C29.274 25.6029 31.0882 23.7637 31.0882 21.5028C31.0882 19.4255 27.7941 13.3659 27.4187 12.6818ZM27.0441 24.7337C25.2868 24.7337 23.8571 23.2844 23.8571 21.5025C23.8571 20.1056 25.8987 15.9623 27.0441 13.7995C28.1898 15.962 30.2311 20.1053 30.2311 21.5025C30.2311 23.2844 28.8015 24.7337 27.0441 24.7337Z" fill="#0B81B3"/>
<path d="M40.3308 19.3397L39.9563 18.6763L39.5817 19.3397C39.2063 20.0053 35.9119 25.9012 35.9119 27.9224C35.9119 30.1223 37.7261 31.9116 39.956 31.9116C42.1859 31.9116 44.0001 30.122 44.0001 27.9224C44.0004 25.9012 40.7062 20.0053 40.3308 19.3397ZM39.9563 31.0661C38.1989 31.0661 36.7693 29.6559 36.7693 27.9224C36.7693 26.5632 38.8109 22.5318 39.9563 20.4275C41.1019 22.5318 43.1433 26.5632 43.1433 27.9224C43.1433 29.6562 41.7136 31.0661 39.9563 31.0661Z" fill="#0B81B3"/>
<path d="M30.2136 26.7646L29.8561 27.428C29.4974 28.0937 26.353 33.9893 26.353 36.0108C26.353 38.2107 28.0848 39.9999 30.2133 39.9999C32.3421 39.9999 34.0736 38.2104 34.0736 36.0108C34.0736 33.9893 30.9292 28.0937 30.5706 27.428L30.2136 26.7646ZM30.2136 39.1545C28.5361 39.1545 27.1714 37.7443 27.1714 36.0108C27.1714 34.6513 29.1203 30.6199 30.2136 28.5159C31.3072 30.6199 33.2557 34.6513 33.2557 36.0108C33.2557 37.7446 31.8911 39.1545 30.2136 39.1545Z" fill="#0B81B3"/>
<path d="M13.9062 32C11.7523 32 10 30.2475 10 28.0938C10 26.8592 10.5803 25.7061 11.5625 24.9693V9.34375C11.5625 8.05137 12.6139 7 13.9062 7C15.1986 7 16.25 8.05137 16.25 9.34375V24.9693C17.2322 25.7064 17.8125 26.8592 17.8125 28.0938C17.8125 30.2475 16.06 32 13.9062 32ZM13.9062 7.78125C13.0447 7.78125 12.3438 8.48223 12.3438 9.34375V25.1709C12.3438 25.3012 12.2787 25.423 12.1705 25.4955C11.3006 26.0781 10.7812 27.0492 10.7812 28.0938C10.7812 29.8168 12.1832 31.2188 13.9062 31.2188C15.6293 31.2188 17.0312 29.8168 17.0312 28.0938C17.0312 27.0492 16.5119 26.0781 15.642 25.4955C15.5338 25.4229 15.4688 25.3012 15.4688 25.1709V9.34375C15.4688 8.48223 14.7678 7.78125 13.9062 7.78125Z" fill="black"/>
<path d="M14.6875 25.8861V11.6875H13.125V25.8861C12.2152 26.2082 11.5625 27.0736 11.5625 28.0938C11.5625 29.3881 12.6119 30.4375 13.9062 30.4375C15.2006 30.4375 16.25 29.3881 16.25 28.0938C16.25 27.0736 15.5971 26.2084 14.6875 25.8861Z" fill="#FF0000"/>
</g>
</svg>
