<svg width="47" height="47" viewBox="0 0 47 47" fill="none" xmlns="http://www.w3.org/2000/svg">
<path d="M46.5 23.5C46.5 36.2025 36.2025 46.5 23.5 46.5C10.7975 46.5 0.5 36.2025 0.5 23.5C0.5 10.7975 10.7975 0.5 23.5 0.5C36.2025 0.5 46.5 10.7975 46.5 23.5Z" fill="white" stroke="#D8D8D8"/>
<mask id="mask0" mask-type="alpha" maskUnits="userSpaceOnUse" x="0" y="0" width="47" height="47">
<path d="M23.5 47C36.4787 47 47 36.4787 47 23.5C47 10.5213 36.4787 0 23.5 0C10.5213 0 0 10.5213 0 23.5C0 36.4787 10.5213 47 23.5 47Z" fill="white"/>
</mask>
<g mask="url(#mask0)">
<path d="M26.4286 15.4286C27.9441 15.4286 29.3975 14.8265 30.4692 13.7549C31.5408 12.6833 32.1429 11.2298 32.1429 9.71429C32.1429 9.52485 32.0676 9.34316 31.9336 9.20921C31.7997 9.07525 31.618 9 31.4286 9H28.5714C27.5299 9.00032 26.5083 9.28529 25.617 9.8241C24.7257 10.3629 23.9986 11.1351 23.5143 12.0571C23.065 11.341 22.4415 10.7504 21.702 10.3407C20.9625 9.93098 20.1311 9.71546 19.2857 9.71429H15.7143C15.5248 9.71429 15.3432 9.78954 15.2092 9.9235C15.0753 10.0574 15 10.2391 15 10.4286C15 11.7547 15.5268 13.0264 16.4645 13.9641C17.4021 14.9018 18.6739 15.4286 20 15.4286H22.8571V19.7143H17.8571C17.6677 19.7143 17.486 19.7895 17.3521 19.9235C17.2181 20.0574 17.1429 20.2391 17.1429 20.4286C17.1429 20.618 17.2181 20.7997 17.3521 20.9336C17.486 21.0676 17.6677 21.1429 17.8571 21.1429H20V26.5214C19.1223 27.1079 18.4025 27.9014 17.9042 28.832C17.4059 29.7626 17.1444 30.8015 17.1429 31.8571V32.5714C17.1429 34.2764 17.8202 35.9115 19.0257 37.1171C20.2313 38.3227 21.8665 39 23.5714 39C25.2764 39 26.9115 38.3227 28.1171 37.1171C29.3227 35.9115 30 34.2764 30 32.5714V31.8571C30 31.7643 30 31.6786 30 31.5929C30 31.5929 30 31.5929 30 31.5429C29.9453 30.5447 29.6586 29.573 29.1626 28.705C28.6666 27.8371 27.9751 27.0967 27.1429 26.5429V21.1429H29.2857C29.4752 21.1429 29.6568 21.0676 29.7908 20.9336C29.9247 20.7997 30 20.618 30 20.4286C30 20.2391 29.9247 20.0574 29.7908 19.9235C29.6568 19.7895 29.4752 19.7143 29.2857 19.7143H24.2857V15.4286H26.4286ZM20 14C19.1767 14.0002 18.3786 13.7159 17.7408 13.1952C17.103 12.6746 16.6647 11.9495 16.5 11.1429H19.2857C20.109 11.1427 20.9071 11.427 21.5449 11.9476C22.1827 12.4683 22.621 13.1933 22.7857 14H20ZM23.5714 37.5714C22.2673 37.5719 21.0147 37.0628 20.0806 36.1527C19.1465 35.2427 18.605 34.0037 18.5714 32.7C19.4165 32.8174 20.2683 32.8795 21.1214 32.8857C22.0251 32.9194 22.9286 32.8134 23.8 32.5714C25.3597 32.1891 26.9721 32.0684 28.5714 32.2143V32.5714C28.5714 33.8975 28.0446 35.1693 27.107 36.107C26.1693 37.0446 24.8975 37.5714 23.5714 37.5714V37.5714ZM26.0714 27.5286C26.6616 27.8758 27.1754 28.339 27.5817 28.8902C27.9881 29.4414 28.2786 30.0692 28.4357 30.7357C26.7253 30.6023 25.0046 30.7519 23.3429 31.1786C21.9143 31.6571 19.6786 31.4143 18.6143 31.2571C18.7069 30.4877 18.9771 29.7504 19.4035 29.1033C19.8299 28.4562 20.4009 27.9171 21.0714 27.5286C21.1794 27.4662 21.2691 27.3768 21.3318 27.269C21.3945 27.1612 21.4278 27.0389 21.4286 26.9143V21.1429H25.7143V26.9143C25.715 27.0389 25.7484 27.1612 25.8111 27.269C25.8737 27.3768 25.9635 27.4662 26.0714 27.5286V27.5286ZM28.5714 10.4286H30.6571C30.4883 11.4277 29.9708 12.3346 29.1967 12.9885C28.4226 13.6423 27.4419 14.0007 26.4286 14H24.3429C24.5117 13.0009 25.0292 12.0939 25.8033 11.4401C26.5774 10.7863 27.5581 10.4279 28.5714 10.4286V10.4286Z" fill="#8BC872"/>
</g>
</svg>
