<svg width="47" height="47" viewBox="0 0 47 47" fill="none" xmlns="http://www.w3.org/2000/svg">
<path d="M46.5 23.5C46.5 36.2025 36.2025 46.5 23.5 46.5C10.7975 46.5 0.5 36.2025 0.5 23.5C0.5 10.7975 10.7975 0.5 23.5 0.5C36.2025 0.5 46.5 10.7975 46.5 23.5Z" fill="white" stroke="#D8D8D8"/>
<mask id="mask0" mask-type="alpha" maskUnits="userSpaceOnUse" x="0" y="0" width="47" height="47">
<path d="M23.5 47C36.4787 47 47 36.4787 47 23.5C47 10.5213 36.4787 0 23.5 0C10.5213 0 0 10.5213 0 23.5C0 36.4787 10.5213 47 23.5 47Z" fill="white"/>
</mask>
<g mask="url(#mask0)">
<path d="M16.1907 19.4817H15.8417V17.031C15.8417 16.4684 15.3841 16.0107 14.8211 16.0107H11.9223C11.3597 16.0107 10.9016 16.4684 10.9016 17.031V19.4817H10.5527C10.2476 19.4817 10 19.729 10 20.0344V23.7678C10 24.4517 10.5564 25.0081 11.2403 25.0081H12.6165V35.4472C12.6165 35.7527 12.8641 35.9999 13.1692 35.9999C13.4743 35.9999 13.7219 35.7527 13.7219 35.4472V25.0081H15.5027C16.1866 25.0081 16.743 24.4517 16.743 23.7678V20.0344C16.7434 19.7293 16.4958 19.4817 16.1907 19.4817ZM12.0071 17.1162H14.736V19.4817H12.0071C12.0071 19.4817 12.0071 17.1162 12.0071 17.1162ZM15.638 23.7678C15.638 23.8422 15.5775 23.9026 15.5031 23.9026H11.2403C11.1658 23.9026 11.1054 23.8422 11.1054 23.7678V20.5871H15.638V23.7678Z" fill="#AAAAAA"/>
<path d="M34.9989 24.2888H27.075V22.2592C27.075 21.9538 26.8274 21.7065 26.5223 21.7065H21.7012C21.3961 21.7065 21.1485 21.9538 21.1485 22.2592V24.2888H20.3843C19.4399 24.2888 18.6716 25.057 18.6716 26.0018V34.2869C18.6716 35.2313 19.4399 35.9999 20.3843 35.9999H34.9989C35.9433 35.9999 36.712 35.2313 36.712 34.2869V26.0018C36.712 25.057 35.9433 24.2888 34.9989 24.2888ZM22.2539 22.812H25.9696V24.2888H22.2539V22.812ZM35.6065 34.2869C35.6065 34.6222 35.3339 34.8945 34.9989 34.8945H20.3843C20.0493 34.8945 19.777 34.6218 19.777 34.2869V26.0018C19.777 25.6669 20.0493 25.3942 20.3843 25.3942H34.9989C35.3339 25.3942 35.6065 25.6669 35.6065 26.0018V34.2869Z" fill="#4155C0"/>
<path d="M31.2142 26.7256C29.2053 26.7256 27.5708 28.3601 27.5708 30.369C27.5708 32.3779 29.2053 34.0125 31.2142 34.0125C33.2231 34.0125 34.8577 32.3779 34.8577 30.369C34.8577 28.3601 33.2231 26.7256 31.2142 26.7256ZM31.2142 32.9071C29.8148 32.9071 28.6762 31.7685 28.6762 30.369C28.6762 28.9696 29.8148 27.831 31.2142 27.831C32.6137 27.831 33.7523 28.9696 33.7523 30.369C33.7523 31.7685 32.6137 32.9071 31.2142 32.9071Z" fill="#AEAEAE"/>
<path d="M25.5579 26.6025H21.2512C20.9461 26.6025 20.6985 26.8498 20.6985 27.1552V28.5053C20.6985 28.8108 20.9461 29.058 21.2512 29.058H25.5579C25.863 29.058 26.1106 28.8108 26.1106 28.5053V27.1552C26.1106 26.8498 25.863 26.6025 25.5579 26.6025ZM25.0052 27.9522H21.8039V27.7076H25.0052V27.9522Z" fill="#4155C0"/>
<path d="M36.1554 14.6766C36.4605 14.6766 36.7082 14.4294 36.7082 14.1239V11.5527C36.7082 11.2472 36.4605 11 36.1554 11H18.0934C17.9762 11 17.8679 11.0368 17.7787 11.0991C17.7548 11.1054 17.7304 11.1105 17.7065 11.1205L14.7554 12.3265C14.5476 12.4112 14.4116 12.6135 14.4116 12.8383C14.4116 13.0631 14.5472 13.265 14.7554 13.3501L17.7065 14.5561C17.7304 14.5657 17.7548 14.5716 17.7791 14.5779C17.8682 14.6398 17.9762 14.6766 18.0934 14.6766H36.1554ZM35.6027 13.5712H34.6513V12.1054H35.6027V13.5712ZM18.6461 12.1058H33.5459V13.5716H18.6461V12.1058ZM17.5407 12.3829V13.2945L16.4257 12.8387L17.5407 12.3829Z" fill="#26D1A8"/>
</g>
</svg>
