<svg width="49" height="49" viewBox="0 0 49 49" fill="none" xmlns="http://www.w3.org/2000/svg">
<path d="M24.5 48.5C37.7548 48.5 48.5 37.7548 48.5 24.5C48.5 11.2452 37.7548 0.5 24.5 0.5C11.2452 0.5 0.5 11.2452 0.5 24.5C0.5 37.7548 11.2452 48.5 24.5 48.5Z" fill="white" stroke="#D8D8D8"/>
<mask id="mask0" mask-type="alpha" maskUnits="userSpaceOnUse" x="1" y="1" width="47" height="47">
<path d="M24.5 48C37.4787 48 48 37.4787 48 24.5C48 11.5213 37.4787 1 24.5 1C11.5213 1 1 11.5213 1 24.5C1 37.4787 11.5213 48 24.5 48Z" fill="white"/>
</mask>
<g mask="url(#mask0)">
<path d="M18.8822 32.0002C18.8822 29.3082 16.6922 27.1182 14.0002 27.1182C12.6962 27.1182 11.4702 27.6259 10.5482 28.5482C9.62619 29.4704 9.11819 30.6964 9.11841 32.0002C9.11841 33.304 9.62619 34.53 10.5482 35.4522C11.4702 36.3742 12.6964 36.8822 14.0002 36.8822C16.692 36.8822 18.8822 34.6922 18.8822 32.0002ZM14.0002 35.8295C12.9773 35.8295 12.0158 35.4311 11.2924 34.7078C10.5691 33.9846 10.1709 33.0231 10.1709 32.0002C10.1709 30.9773 10.5691 30.0157 11.2922 29.2924C12.0155 28.5691 12.9773 28.1706 14 28.1706C16.1113 28.1706 17.8296 29.8886 17.8296 32C17.8296 34.1113 16.1115 35.8295 14.0002 35.8295Z" fill="#F1C422"/>
<path d="M13.4739 38.5331V41.4733C13.4739 41.764 13.7094 41.9997 14.0001 41.9997C14.2908 41.9997 14.5263 41.764 14.5263 41.4735V38.5331C14.5263 38.2424 14.2908 38.0068 14.0001 38.0068C13.7094 38.0068 13.4739 38.2426 13.4739 38.5331Z" fill="#F1C422"/>
<path d="M13.4739 22.5262V25.4667C13.4739 25.7573 13.7097 25.9929 14.0003 25.9929C14.291 25.9929 14.5265 25.7571 14.5265 25.4667V22.5262C14.5263 22.2358 14.291 22 14.0001 22C13.7092 22 13.4739 22.2358 13.4739 22.5262Z" fill="#F1C422"/>
<path d="M20.327 39.0707C20.4299 39.1736 20.5645 39.2247 20.6992 39.2247C20.8339 39.2247 20.9685 39.1736 21.0714 39.0707C21.277 38.8649 21.277 38.5318 21.0714 38.3263L18.9923 36.2476C18.7868 36.0418 18.4536 36.0418 18.2481 36.2476C18.0423 36.4532 18.0423 36.7865 18.2481 36.9918L20.327 39.0707Z" fill="#F1C422"/>
<path d="M9.00819 27.7522C9.11086 27.8551 9.24552 27.9064 9.38019 27.9064C9.51486 27.9064 9.64953 27.8551 9.75241 27.7522C9.95797 27.5466 9.95797 27.2133 9.75241 27.008L7.67329 24.9291C7.46796 24.7235 7.1344 24.7235 6.92907 24.9291C6.72351 25.1348 6.72351 25.468 6.92907 25.6735L9.00819 27.7522Z" fill="#F1C422"/>
<path d="M24 31.9999C24 31.709 23.7642 31.4736 23.4738 31.4736H20.5333C20.2426 31.4736 20.0071 31.7092 20.0071 31.9999C20.0071 32.2905 20.2429 32.5261 20.5333 32.5261H23.4735C23.7642 32.5261 24 32.2907 24 31.9999Z" fill="#F1C422"/>
<path d="M4.52645 32.5261H7.46646C7.75713 32.5261 7.99291 32.2905 7.99291 31.9999C7.99291 31.7092 7.75713 31.4736 7.46646 31.4736H4.52645C4.23556 31.4736 4 31.709 4 31.9999C4 32.2907 4.23556 32.5261 4.52645 32.5261Z" fill="#F1C422"/>
<path d="M20.3263 24.9291L18.2476 27.008C18.0418 27.2135 18.0418 27.5469 18.2476 27.7522C18.3503 27.8551 18.4849 27.9064 18.6196 27.9064C18.7543 27.9064 18.8889 27.8551 18.9918 27.7522L21.0705 25.6735C21.2761 25.4677 21.2761 25.1346 21.0705 24.9291C20.8649 24.7235 20.5321 24.7235 20.3263 24.9291Z" fill="#F1C422"/>
<path d="M6.92907 39.0707C7.03174 39.1736 7.16663 39.2247 7.30129 39.2247C7.43596 39.2247 7.57063 39.1736 7.67329 39.0707L9.75241 36.9918C9.95797 36.7865 9.95797 36.4532 9.75241 36.2476C9.54708 36.0418 9.21352 36.0418 9.00819 36.2476L6.92907 38.3265C6.72351 38.5321 6.72351 38.8652 6.92907 39.0707Z" fill="#F1C422"/>
<path d="M26.2063 13.6414L21.8068 13.2814C21.6659 12.9212 21.4624 12.5924 21.1805 12.3263L22.9027 8.42786C23.3098 7.48845 23.2472 6.40815 22.7149 5.53138C22.1826 4.65462 21.2901 4.10664 20.2725 4.02836H20.2255C19.6618 3.98139 19.0982 3.99705 18.5502 4.04402C17.5326 4.1223 16.6402 4.67028 16.1078 5.54704C15.5755 6.40815 15.4972 7.44149 15.8886 8.38085L17.5326 12.3576C17.2507 12.6394 17.0472 12.9839 16.9063 13.3596L12.9608 13.5945C11.9432 13.6571 11.0508 14.1738 10.5028 15.0349C9.95482 15.896 9.84523 16.9293 10.221 17.8844C10.4245 18.401 10.675 18.9177 10.9412 19.4031L10.9725 19.45C11.4892 20.3268 12.3659 20.8904 13.3993 20.9687C13.4932 20.9687 13.5871 20.9843 13.6654 20.9843C14.5891 20.9843 15.4816 20.5773 16.0765 19.8571L18.7538 16.6945C18.9573 16.7415 19.1608 16.7727 19.38 16.7727C19.7245 16.7727 20.0532 16.7101 20.3507 16.5849L22.9497 19.8258C23.5447 20.5773 24.4528 21 25.4078 21C25.4704 21 25.533 21 25.6113 21C26.629 20.9374 27.5371 20.405 28.0694 19.5283L28.1007 19.4813C28.3825 19.0116 28.6487 18.5106 28.8522 17.9939C29.2436 17.0546 29.1653 16.0056 28.633 15.1288C28.1164 14.2677 27.2239 13.7197 26.2063 13.6414ZM16.6558 5.86017C17.0785 5.15563 17.7987 4.71724 18.6129 4.65462C19.1452 4.60765 19.6775 4.60765 20.1942 4.63896H20.2411C21.0553 4.70159 21.7598 5.13997 22.1826 5.84451C22.6053 6.56471 22.6679 7.41015 22.3234 8.16169L20.6639 11.9192C20.2881 11.7 19.8497 11.5748 19.38 11.5748C18.8947 11.5748 18.4406 11.7157 18.0649 11.9349L16.4679 8.13036C16.1704 7.37887 16.2331 6.54906 16.6558 5.86017ZM15.6068 19.4657C15.0745 20.1076 14.2917 20.4207 13.4619 20.3581C12.6477 20.2955 11.9432 19.8414 11.5205 19.1369L11.4892 19.0899C11.223 18.6359 10.9882 18.1505 10.8003 17.6652C10.5028 16.898 10.5811 16.0682 11.0195 15.3793C11.4578 14.6904 12.178 14.2833 12.9765 14.2207L16.7811 13.9859C16.7811 14.0485 16.7654 14.1111 16.7654 14.1894C16.7654 15.1758 17.3134 16.0213 18.1118 16.4596L15.6068 19.4657ZM17.4073 14.1894C17.4073 13.1091 18.2841 12.2167 19.38 12.2167C20.476 12.2167 21.3527 13.0935 21.3527 14.1894C21.3527 15.2854 20.476 16.1621 19.38 16.1621C18.2841 16.1621 17.4073 15.2697 17.4073 14.1894ZM28.2729 17.7434C28.0694 18.2288 27.8346 18.6985 27.5527 19.1525L27.5214 19.1995C27.0987 19.8884 26.3785 20.3268 25.5644 20.3738C24.7345 20.4207 23.9517 20.0763 23.4351 19.4343L20.8987 16.2874C21.5406 15.8177 21.9634 15.0506 21.9634 14.1894C21.9634 14.0955 21.9634 14.0016 21.9477 13.9233L26.1437 14.2677C26.9578 14.3303 27.6623 14.7687 28.0851 15.4576C28.5234 16.1621 28.6017 16.992 28.2729 17.7434Z" fill="#5A9EDD"/>
<path d="M35.125 25C33.4019 25 32 23.598 32 21.875C32 20.8873 32.4642 19.9648 33.25 19.3755V6.875C33.25 5.84109 34.0911 5 35.125 5C36.1589 5 37 5.84109 37 6.875V19.3755C37.7858 19.9652 38.25 20.8873 38.25 21.875C38.25 23.598 36.848 25 35.125 25ZM35.125 5.625C34.4358 5.625 33.875 6.18578 33.875 6.875V19.5367C33.875 19.6409 33.823 19.7384 33.7364 19.7964C33.0405 20.2625 32.625 21.0394 32.625 21.875C32.625 23.2534 33.7466 24.375 35.125 24.375C36.5034 24.375 37.625 23.2534 37.625 21.875C37.625 21.0394 37.2095 20.2625 36.5136 19.7964C36.427 19.7383 36.375 19.6409 36.375 19.5367V6.875C36.375 6.18578 35.8142 5.625 35.125 5.625Z" fill="black"/>
<path d="M35.75 20.1089V8.75H34.5V20.1089C33.7722 20.3666 33.25 21.0589 33.25 21.875C33.25 22.9105 34.0895 23.75 35.125 23.75C36.1605 23.75 37 22.9105 37 21.875C37 21.0589 36.4777 20.3667 35.75 20.1089Z" fill="#FF0000"/>
<path d="M28.1562 26.487L27.8887 26L27.6211 26.487C27.353 26.9757 25 31.3039 25 32.7877C25 34.4027 26.2959 35.7164 27.8887 35.7164C29.4814 35.7164 30.7773 34.4027 30.7773 32.7877C30.7773 31.3039 28.4243 26.9757 28.1562 26.487ZM27.8887 35.0955C26.6334 35.0955 25.6122 34.0603 25.6122 32.7875C25.6122 31.7897 27.0705 28.8302 27.8887 27.2854C28.707 28.83 30.1651 31.7895 30.1651 32.7875C30.1651 34.0603 29.1439 35.0955 27.8887 35.0955Z" fill="#0B81B3"/>
<path d="M37.3791 31.2424L37.1115 30.7686L36.844 31.2424C36.5758 31.7179 34.2227 35.9292 34.2227 37.373C34.2227 38.9443 35.5185 40.2223 37.1113 40.2223C38.7041 40.2223 40 38.9441 40 37.373C40.0002 35.9292 37.6472 31.7179 37.3791 31.2424ZM37.1115 39.6184C35.8563 39.6184 34.8351 38.6111 34.8351 37.373C34.8351 36.4021 36.2934 33.5225 37.1115 32.0194C37.9298 33.5225 39.388 36.4021 39.388 37.373C39.388 38.6113 38.3668 39.6184 37.1115 39.6184Z" fill="#0B81B3"/>
<path d="M30.1526 36.5459L29.8972 37.0198C29.641 37.4952 27.395 41.7064 27.395 43.1503C27.395 44.7216 28.632 45.9997 30.1524 45.9997C31.673 45.9997 32.9097 44.7214 32.9097 43.1503C32.9097 41.7064 30.6637 37.4952 30.4076 37.0198L30.1526 36.5459ZM30.1526 45.3958C28.9544 45.3958 27.9796 44.3885 27.9796 43.1503C27.9796 42.1792 29.3716 39.2997 30.1526 37.7968C30.9337 39.2997 32.3255 42.1792 32.3255 43.1503C32.3255 44.3887 31.3508 45.3958 30.1526 45.3958Z" fill="#0B81B3"/>
</g>
</svg>
