<svg width="47" height="47" viewBox="0 0 47 47" fill="none" xmlns="http://www.w3.org/2000/svg">
<path d="M46.5 23.5C46.5 36.2025 36.2025 46.5 23.5 46.5C10.7975 46.5 0.5 36.2025 0.5 23.5C0.5 10.7975 10.7975 0.5 23.5 0.5C36.2025 0.5 46.5 10.7975 46.5 23.5Z" fill="white" stroke="#D8D8D8"/>
<mask id="mask0" mask-type="alpha" maskUnits="userSpaceOnUse" x="0" y="0" width="47" height="47">
<path d="M23.5 47C36.4787 47 47 36.4787 47 23.5C47 10.5213 36.4787 0 23.5 0C10.5213 0 0 10.5213 0 23.5C0 36.4787 10.5213 47 23.5 47Z" fill="white"/>
</mask>
<g mask="url(#mask0)">
<path d="M29.6024 23.5C29.6024 20.135 26.8649 17.3975 23.4999 17.3975C21.8699 17.3975 20.3374 18.0322 19.1849 19.185C18.0324 20.3377 17.3974 21.8702 17.3977 23.5C17.3977 25.1297 18.0324 26.6622 19.1849 27.815C20.3374 28.9675 21.8702 29.6025 23.4999 29.6025C26.8647 29.6025 29.6024 26.865 29.6024 23.5ZM23.4999 28.2866C22.2213 28.2866 21.0194 27.7886 20.1152 26.8844C19.211 25.9805 18.7133 24.7786 18.7133 23.5C18.7133 22.2214 19.211 21.0194 20.1149 20.1152C21.0191 19.2111 22.2213 18.713 23.4997 18.713C26.1388 18.713 28.2866 20.8605 28.2866 23.4997C28.2866 26.1389 26.1391 28.2866 23.4999 28.2866Z" fill="#F1C422"/>
<path d="M22.8423 31.6666V35.3418C22.8423 35.7052 23.1367 35.9999 23.5001 35.9999C23.8634 35.9999 24.1578 35.7052 24.1578 35.3421V31.6666C24.1578 31.3032 23.8634 31.0088 23.5001 31.0088C23.1367 31.0088 22.8423 31.3035 22.8423 31.6666Z" fill="#F1C422"/>
<path d="M22.8423 11.6578V15.3333C22.8423 15.6967 23.137 15.9911 23.5003 15.9911C23.8637 15.9911 24.1581 15.6964 24.1581 15.3333V11.6578C24.1578 11.2947 23.8637 11 23.5001 11C23.1365 11 22.8423 11.2947 22.8423 11.6578Z" fill="#F1C422"/>
<path d="M31.4085 32.3385C31.5371 32.4671 31.7054 32.531 31.8738 32.531C32.0421 32.531 32.2104 32.4671 32.339 32.3385C32.596 32.0813 32.596 31.6649 32.339 31.408L29.7401 28.8096C29.4832 28.5524 29.0668 28.5524 28.8099 28.8096C28.5526 29.0666 28.5526 29.4832 28.8099 29.7399L31.4085 32.3385Z" fill="#F1C422"/>
<path d="M17.2601 18.1903C17.3884 18.319 17.5568 18.3831 17.7251 18.3831C17.8934 18.3831 18.0618 18.319 18.1904 18.1903C18.4473 17.9334 18.4473 17.5167 18.1904 17.2601L15.5915 14.6615C15.3348 14.4045 14.9179 14.4045 14.6612 14.6615C14.4043 14.9187 14.4043 15.3351 14.6612 15.592L17.2601 18.1903Z" fill="#F1C422"/>
<path d="M35.9999 23.5001C35.9999 23.1365 35.7052 22.8423 35.3421 22.8423H31.6666C31.3032 22.8423 31.0088 23.1367 31.0088 23.5001C31.0088 23.8634 31.3035 24.1578 31.6666 24.1578H35.3418C35.7052 24.1578 35.9999 23.8637 35.9999 23.5001Z" fill="#F1C422"/>
<path d="M11.6581 24.1578H15.3331C15.6964 24.1578 15.9911 23.8634 15.9911 23.5001C15.9911 23.1367 15.6964 22.8423 15.3331 22.8423H11.6581C11.2944 22.8423 11 23.1365 11 23.5001C11 23.8637 11.2944 24.1578 11.6581 24.1578Z" fill="#F1C422"/>
<path d="M31.408 14.6615L28.8096 17.2601C28.5524 17.517 28.5524 17.9337 28.8096 18.1903C28.9379 18.319 29.1063 18.3831 29.2746 18.3831C29.443 18.3831 29.6113 18.319 29.7399 18.1903L32.3382 15.592C32.5952 15.3348 32.5952 14.9184 32.3382 14.6615C32.0813 14.4045 31.6652 14.4045 31.408 14.6615Z" fill="#F1C422"/>
<path d="M14.6612 32.3385C14.7895 32.4671 14.9582 32.531 15.1265 32.531C15.2948 32.531 15.4632 32.4671 15.5915 32.3385L18.1904 29.7399C18.4473 29.4832 18.4473 29.0666 18.1904 28.8096C17.9337 28.5524 17.5168 28.5524 17.2601 28.8096L14.6612 31.4082C14.4043 31.6652 14.4043 32.0816 14.6612 32.3385Z" fill="#F1C422"/>
</g>
</svg>
