<svg width="47" height="47" viewBox="0 0 47 47" fill="none" xmlns="http://www.w3.org/2000/svg">
<path d="M46.5 23.5C46.5 36.2025 36.2025 46.5 23.5 46.5C10.7975 46.5 0.5 36.2025 0.5 23.5C0.5 10.7975 10.7975 0.5 23.5 0.5C36.2025 0.5 46.5 10.7975 46.5 23.5Z" fill="white" stroke="#D8D8D8"/>
<mask id="mask0" mask-type="alpha" maskUnits="userSpaceOnUse" x="0" y="0" width="47" height="47">
<path d="M23.5 47C36.4787 47 47 36.4787 47 23.5C47 10.5213 36.4787 0 23.5 0C10.5213 0 0 10.5213 0 23.5C0 36.4787 10.5213 47 23.5 47Z" fill="white"/>
</mask>
<g mask="url(#mask0)">
<path fill-rule="evenodd" clip-rule="evenodd" d="M25.6958 19.1886H35.333C35.7288 19.1886 35.9721 19.6219 35.766 19.9599L23.0855 40.756C22.8187 41.1936 22.1452 41.0044 22.1452 40.4919V27.8114H12.508C12.1121 27.8114 11.8689 27.3781 12.075 27.0401L24.7555 6.24405C25.0223 5.80645 25.6958 5.99557 25.6958 6.50811V19.1886ZM25.1885 20.2031C24.9084 20.2031 24.6813 19.976 24.6813 19.6958V8.31423L13.4114 26.7969H22.6524C22.9326 26.7969 23.1597 27.024 23.1597 27.3042V38.6858L34.4296 20.2031H25.1885Z" fill="#BABD27"/>
</g>
</svg>
