<svg width="47" height="47" viewBox="0 0 47 47" fill="none" xmlns="http://www.w3.org/2000/svg">
<path d="M46.5 23.5C46.5 36.2025 36.2025 46.5 23.5 46.5C10.7975 46.5 0.5 36.2025 0.5 23.5C0.5 10.7975 10.7975 0.5 23.5 0.5C36.2025 0.5 46.5 10.7975 46.5 23.5Z" fill="white" stroke="#D8D8D8"/>
<mask id="mask0" mask-type="alpha" maskUnits="userSpaceOnUse" x="0" y="0" width="47" height="47">
<path d="M23.5 47C36.4787 47 47 36.4787 47 23.5C47 10.5213 36.4787 0 23.5 0C10.5213 0 0 10.5213 0 23.5C0 36.4787 10.5213 47 23.5 47Z" fill="white"/>
</mask>
<g mask="url(#mask0)">
<path d="M24 19C21.5368 19 19.5474 20.9895 19.5474 23.4526C19.5474 25.9158 21.5368 27.9053 24 27.9053C26.4632 27.9053 28.4526 25.9158 28.4526 23.4526C28.4526 20.9895 26.4632 19 24 19ZM24 25.9474C22.6421 25.9474 21.5368 24.8421 21.5368 23.4526C21.5368 22.0632 22.6421 20.9579 24 20.9579C25.3579 20.9579 26.4632 22.0632 26.4632 23.4526C26.4632 24.8421 25.3579 25.9474 24 25.9474Z" fill="#9E9E9E"/>
<path d="M13.4526 19C10.9895 19 9 20.9895 9 23.4526C9 25.9158 10.9895 27.9053 13.4526 27.9053C15.9158 27.9053 17.9053 25.9158 17.9053 23.4526C17.9053 20.9895 15.9158 19 13.4526 19ZM13.4526 25.9474C12.0947 25.9474 10.9895 24.8421 10.9895 23.4526C10.9895 22.0632 12.0947 20.9579 13.4526 20.9579C14.8105 20.9579 15.9158 22.0632 15.9158 23.4526C15.9158 24.8421 14.8105 25.9474 13.4526 25.9474Z" fill="#9E9E9E"/>
<path d="M34.5474 19C32.0842 19 30.0947 20.9895 30.0947 23.4526C30.0947 25.9158 32.0842 27.9053 34.5474 27.9053C37.0105 27.9053 39 25.9158 39 23.4526C39 20.9895 37.0105 19 34.5474 19ZM34.5474 25.9474C33.1895 25.9474 32.0526 24.8421 32.0526 23.4526C32.0526 22.0632 33.1579 20.9579 34.5474 20.9579C35.9053 20.9579 37.0105 22.0632 37.0105 23.4526C37.0105 24.8421 35.9053 25.9474 34.5474 25.9474Z" fill="#9E9E9E"/>
</g>
</svg>
