<svg width="47" height="47" viewBox="0 0 47 47" fill="none" xmlns="http://www.w3.org/2000/svg">
<path d="M46.5 23.5C46.5 36.2025 36.2025 46.5 23.5 46.5C10.7975 46.5 0.5 36.2025 0.5 23.5C0.5 10.7975 10.7975 0.5 23.5 0.5C36.2025 0.5 46.5 10.7975 46.5 23.5Z" fill="white" stroke="#D8D8D8"/>
<mask id="mask0" mask-type="alpha" maskUnits="userSpaceOnUse" x="0" y="0" width="47" height="47">
<path d="M23.5 47C36.4787 47 47 36.4787 47 23.5C47 10.5213 36.4787 0 23.5 0C10.5213 0 0 10.5213 0 23.5C0 36.4787 10.5213 47 23.5 47Z" fill="white"/>
</mask>
<g mask="url(#mask0)">
<path d="M36.2769 35.2275H11.3863C11.1728 35.2275 11 35.4003 11 35.6138C11 35.8273 11.1728 36.0001 11.3863 36.0001H36.2769C36.4904 36.0001 36.6631 35.8273 36.6631 35.6138C36.6631 35.4003 36.4904 35.2275 36.2769 35.2275Z" fill="#A9A9A9"/>
<path d="M15.1188 30.2599C14.8909 30.6221 13.7544 32.4685 13.7544 33.2607C13.7544 34.1932 14.5134 34.9521 15.4458 34.9521C16.3783 34.9521 17.1373 34.1932 17.1373 33.2607C17.1373 32.4685 16.0007 30.6221 15.7729 30.2599C15.631 30.0351 15.2606 30.0351 15.1188 30.2599ZM16.3647 33.2607C16.3647 33.7673 15.9524 34.1796 15.4458 34.1796C14.9392 34.1796 14.5269 33.7673 14.5269 33.2607C14.5269 32.9246 14.9939 31.9936 15.4458 31.2139C15.8977 31.9936 16.3647 32.9246 16.3647 33.2607Z" fill="#1BB2D3"/>
<path d="M21.7891 16.2686C21.2697 16.2686 20.8468 16.6914 20.8468 17.2112V17.8563H16.926C14.8472 17.8563 13.1561 19.5492 13.1561 21.63V26.9462C12.5358 27.1132 12.161 27.6598 12.1678 28.2471V28.2475C12.1769 28.9747 12.7763 29.5666 13.5039 29.5666H17.794C18.1539 29.5666 18.4915 29.4255 18.7446 29.1694C18.9977 28.9136 19.1342 28.5741 19.1301 28.2143C19.1226 27.6079 18.7029 27.1012 18.1429 26.9473V23.3836C18.1429 23.0856 18.3855 22.8431 18.6835 22.8431H20.8468V23.1867C20.8468 23.7043 21.2697 24.1252 21.7891 24.1252H27.9811C28.5009 24.1252 28.9238 23.7043 28.9238 23.1867V22.8431H31.4341V23.0954C31.4341 23.6013 31.8457 24.0128 32.3515 24.0128H34.5778C35.0837 24.0128 35.4952 23.6013 35.4952 23.0954V17.3022C35.4952 16.7963 35.0837 16.3848 34.5778 16.3848H32.3515C31.8457 16.3848 31.4341 16.7963 31.4341 17.3022V17.8563H28.9238V17.2112C28.9238 16.6914 28.5009 16.2686 27.9811 16.2686H26.4221V13.375H28.4255C29.0799 13.375 29.6126 12.8423 29.6126 12.1875C29.6126 11.5326 29.0799 11 28.4255 11H21.347C20.6925 11 20.1599 11.5326 20.1599 12.1875C20.1599 12.8423 20.6925 13.375 21.347 13.375H23.3508V16.2686H21.7891ZM20.9324 12.1875C20.9324 11.9585 21.1184 11.7725 21.347 11.7725H28.4255C28.654 11.7725 28.84 11.9585 28.84 12.1875C28.84 12.4164 28.654 12.6024 28.4255 12.6024C27.5843 12.5998 22.1879 12.6021 21.347 12.6024C21.1184 12.6024 20.9324 12.4164 20.9324 12.1875ZM25.6495 13.375V16.2195H24.1233V13.375H25.6495ZM18.3576 28.2237C18.3594 28.3757 18.3017 28.5187 18.195 28.6266C18.0882 28.7344 17.946 28.794 17.794 28.794H13.5039C13.1969 28.794 12.9441 28.5443 12.9404 28.2376C12.9364 27.9204 13.1931 27.6673 13.5039 27.6673C14.9987 27.6673 16.3287 27.6673 17.794 27.6673C18.101 27.6673 18.3538 27.917 18.3576 28.2237ZM18.6835 22.0705C17.9596 22.0705 17.3704 22.6598 17.3704 23.3836V26.8948H13.9287V21.63C13.9287 19.9751 15.2734 18.6288 16.926 18.6288H20.8468V22.0705H18.6835ZM32.3515 17.1573H34.5778C34.6578 17.1573 34.7227 17.2222 34.7227 17.3022V23.0954C34.7227 23.1754 34.6578 23.2403 34.5778 23.2403H32.3515C32.2715 23.2403 32.2067 23.1754 32.2067 23.0954C32.2074 13.6563 32.2068 23.1268 32.2067 17.3022C32.2067 17.2222 32.2715 17.1573 32.3515 17.1573ZM31.4341 18.6288V22.0705H28.9238V18.6288H31.4341V18.6288ZM28.1512 17.2112C28.1512 18.5543 28.1512 21.9953 28.1512 23.1867C28.1512 23.2769 28.0731 23.3527 27.9811 23.3527H21.7891C21.694 23.3527 21.6193 23.2799 21.6193 23.1867C21.6193 21.0639 21.6193 19.3462 21.6193 17.2112C21.6193 17.1158 21.694 17.0411 21.7891 17.0411H27.9811C28.075 17.0411 28.1512 17.1173 28.1512 17.2112Z" fill="#656565"/>
</g>
</svg>
