<svg width="47" height="47" viewBox="0 0 47 47" fill="none" xmlns="http://www.w3.org/2000/svg">
<path d="M46.5 23.5C46.5 36.2025 36.2025 46.5 23.5 46.5C10.7975 46.5 0.5 36.2025 0.5 23.5C0.5 10.7975 10.7975 0.5 23.5 0.5C36.2025 0.5 46.5 10.7975 46.5 23.5Z" fill="white" stroke="#D8D8D8"/>
<mask id="mask0" mask-type="alpha" maskUnits="userSpaceOnUse" x="0" y="0" width="47" height="47">
<path d="M23.5 47C36.4787 47 47 36.4787 47 23.5C47 10.5213 36.4787 0 23.5 0C10.5213 0 0 10.5213 0 23.5C0 36.4787 10.5213 47 23.5 47Z" fill="white"/>
</mask>
<g mask="url(#mask0)">
<path d="M32.8328 25.1786L26.3629 24.6491C26.1557 24.1195 25.8564 23.6359 25.442 23.2446L27.9746 17.5116C28.5732 16.1301 28.4811 14.5414 27.6983 13.252C26.9155 11.9627 25.6031 11.1568 24.1066 11.0417H24.0375C23.2086 10.9726 22.3797 10.9957 21.5739 11.0647C20.0773 11.1799 18.7649 11.9857 17.9821 13.2751C17.1993 14.5414 17.0841 16.061 17.6597 17.4424L20.0773 23.2906C19.6628 23.7051 19.3636 24.2116 19.1564 24.7642L13.3542 25.1095C11.8576 25.2016 10.5453 25.9614 9.73941 27.2278C8.93357 28.4941 8.7724 30.0137 9.32498 31.4182C9.62429 32.178 9.99268 32.9378 10.3841 33.6516L10.4301 33.7206C11.1899 35.0099 12.4793 35.8389 13.9989 35.9539C14.137 35.9539 14.2752 35.977 14.3903 35.977C15.7487 35.977 17.0611 35.3784 17.9361 34.3193L21.8732 29.6683C22.1725 29.7374 22.4718 29.7834 22.7942 29.7834C23.3007 29.7834 23.7842 29.6914 24.2217 29.5072L28.0437 34.2732C28.9186 35.3784 30.2541 36 31.6585 36C31.7506 36 31.8427 36 31.9578 36C33.4544 35.9079 34.7898 35.1251 35.5726 33.8357L35.6187 33.7666C36.0331 33.0759 36.4245 32.3391 36.7239 31.5793C37.2995 30.1979 37.1843 28.6553 36.4015 27.3659C35.6417 26.0996 34.3293 25.2937 32.8328 25.1786ZM18.788 13.7355C19.4096 12.6995 20.4687 12.0548 21.666 11.9627C22.4488 11.8936 23.2316 11.8936 23.9914 11.9396H24.0605C25.2578 12.0318 26.2939 12.6764 26.9155 13.7125C27.5372 14.7716 27.6293 16.0149 27.1227 17.1201L24.6822 22.6459C24.1296 22.3236 23.4849 22.1394 22.7942 22.1394C22.0804 22.1394 21.4127 22.3466 20.8601 22.669L18.5117 17.0741C18.0742 15.9689 18.1663 14.7486 18.788 13.7355ZM17.2453 33.7436C16.4625 34.6876 15.3113 35.1481 14.091 35.056C12.8937 34.9639 11.8576 34.2962 11.236 33.2601L11.1899 33.191C10.7985 32.5233 10.4532 31.8096 10.1769 31.0958C9.73941 29.9676 9.85453 28.7474 10.4992 27.7343C11.1439 26.7212 12.203 26.1226 13.3772 26.0305L18.9722 25.6851C18.9722 25.7772 18.9491 25.8693 18.9491 25.9845C18.9491 27.435 19.755 28.6783 20.9292 29.323L17.2453 33.7436ZM19.8931 25.9845C19.8931 24.3957 21.1825 23.0834 22.7942 23.0834C24.4059 23.0834 25.6952 24.3728 25.6952 25.9845C25.6952 27.5961 24.4059 28.8855 22.7942 28.8855C21.1825 28.8855 19.8931 27.5731 19.8931 25.9845ZM35.872 31.2109C35.5726 31.9247 35.2273 32.6154 34.8128 33.2831L34.7668 33.3522C34.1451 34.3653 33.086 35.0099 31.8888 35.0791C30.6684 35.1481 29.5172 34.6416 28.7574 33.6976L25.0275 29.0697C25.9715 28.379 26.5932 27.2508 26.5932 25.9845C26.5932 25.8463 26.5932 25.7082 26.5701 25.593L32.7407 26.0996C33.9379 26.1917 34.974 26.8364 35.5957 27.8494C36.2403 28.8855 36.3555 30.1058 35.872 31.2109Z" fill="#5A9EDD"/>
</g>
</svg>
