<svg width="47" height="47" viewBox="0 0 47 47" fill="none" xmlns="http://www.w3.org/2000/svg">
<path d="M46.5 23.5C46.5 36.2025 36.2025 46.5 23.5 46.5C10.7975 46.5 0.5 36.2025 0.5 23.5C0.5 10.7975 10.7975 0.5 23.5 0.5C36.2025 0.5 46.5 10.7975 46.5 23.5Z" fill="white" stroke="#D8D8D8"/>
<mask id="mask0" mask-type="alpha" maskUnits="userSpaceOnUse" x="0" y="0" width="47" height="47">
<path d="M23.5 47C36.4787 47 47 36.4787 47 23.5C47 10.5213 36.4787 0 23.5 0C10.5213 0 0 10.5213 0 23.5C0 36.4787 10.5213 47 23.5 47Z" fill="white"/>
</mask>
<g mask="url(#mask0)">
<path d="M23.8049 25.1951V20.8959C25.6321 20.7418 27.335 19.9077 28.577 18.5586C29.8189 17.2095 30.5095 15.4435 30.5122 13.6098V13H29.9024C28.4157 13.0025 26.9649 13.4576 25.743 14.3046C24.5211 15.1517 23.586 16.3506 23.0621 17.742C22.6252 17.0385 22.0163 16.4578 21.2928 16.0549C20.5692 15.652 19.755 15.44 18.9268 15.439H18.3171V16.0488C18.319 17.236 18.7534 18.3818 19.539 19.2718C20.3246 20.1619 21.4076 20.7352 22.5854 20.8845V25.1951H11V26.4146H22.3327L18.8006 29.947L19.6628 30.8091L22.5854 27.8864V31.0402L21.2396 32.3859L22.1018 33.2482L23.1951 32.1549L24.2884 33.2482L25.1506 32.386L23.8049 31.0402V27.6648L26.9495 30.8092L27.8118 29.947L24.2793 26.4146H36V25.1951H23.8049ZM29.2587 14.2532C29.1096 15.6396 28.4907 16.9332 27.5047 17.9193C26.5188 18.9053 25.2252 19.5244 23.8388 19.6737C23.988 18.2873 24.6069 16.9936 25.5928 16.0076C26.5788 15.0215 27.8724 14.4025 29.2587 14.2532V14.2532ZM19.5985 16.7202C20.3237 16.857 20.9908 17.2094 21.5127 17.7314C22.0345 18.2533 22.3867 18.9204 22.5234 19.6457C21.7982 19.5088 21.1311 19.1564 20.6093 18.6345C20.0875 18.1126 19.7352 17.4454 19.5985 16.7202L19.5985 16.7202Z" fill="#3BB30B"/>
<path d="M34.1708 27.6343H29.2927V28.8538H34.1708V27.6343Z" fill="#A6874C"/>
<path d="M35.3903 30.0732H32.3416V31.2928H35.3903V30.0732Z" fill="#A6874C"/>
<path d="M17.0975 27.6343H14.6584V28.8538H17.0975V27.6343Z" fill="#A6874C"/>
<path d="M17.7073 30.0732H13.439V31.2928H17.7073V30.0732Z" fill="#A6874C"/>
</g>
</svg>
