<svg width="47" height="47" viewBox="0 0 47 47" fill="none" xmlns="http://www.w3.org/2000/svg">
<path d="M46.5 23.5C46.5 36.2025 36.2025 46.5 23.5 46.5C10.7975 46.5 0.5 36.2025 0.5 23.5C0.5 10.7975 10.7975 0.5 23.5 0.5C36.2025 0.5 46.5 10.7975 46.5 23.5Z" fill="white" stroke="#D8D8D8"/>
<mask id="mask0" mask-type="alpha" maskUnits="userSpaceOnUse" x="0" y="0" width="47" height="47">
<path d="M23.5 47C36.4787 47 47 36.4787 47 23.5C47 10.5213 36.4787 0 23.5 0C10.5213 0 0 10.5213 0 23.5C0 36.4787 10.5213 47 23.5 47Z" fill="white"/>
</mask>
<g mask="url(#mask0)">
<path d="M23.6687 4.11035C23.6311 4.11041 23.5939 4.11782 23.5592 4.13221C23.5245 4.1466 23.493 4.16768 23.4665 4.1942L17.1236 10.5029C17.087 10.5386 17.0608 10.5834 17.0476 10.6326L15.4785 16.8589L5.22573 27.0495C5.19905 27.0758 5.17786 27.1071 5.16338 27.1416C5.1489 27.1761 5.14142 27.213 5.14136 27.2504V28.8255C5.14122 28.8629 5.14853 28.9 5.16288 28.9347C5.17724 28.9693 5.19834 29.0007 5.22499 29.0272C5.25163 29.0537 5.28328 29.0747 5.31812 29.0889C5.35296 29.1032 5.39029 29.1105 5.42797 29.1103H7.01265C7.05025 29.1103 7.08746 29.1029 7.12216 29.0885C7.15685 29.0741 7.18835 29.053 7.21483 29.0265L17.4657 18.8378L23.732 17.2765C23.7831 17.2642 23.8298 17.2381 23.8669 17.201L30.2099 10.8965C30.2365 10.8702 30.2577 10.8389 30.2722 10.8044C30.2867 10.77 30.2942 10.733 30.2942 10.6956V9.12051C30.2942 9.08314 30.2867 9.04615 30.2722 9.01166C30.2577 8.97717 30.2365 8.94589 30.2099 8.91957L25.4558 4.19426C25.4293 4.16774 25.3978 4.14674 25.3631 4.13234C25.3284 4.11795 25.2912 4.11047 25.2536 4.11042L23.6687 4.11035ZM23.7867 4.68H25.1354L29.7251 9.23767V10.5782L23.517 16.7444L17.4101 18.2651L16.053 16.9162L17.5829 10.8463L23.7867 4.68ZM15.7368 17.4063L16.9169 18.5792L6.89462 28.545H5.71455V27.3678L15.7368 17.4063Z" fill="#46C899"/>
<path d="M24.4568 6.47516C24.4469 6.47536 24.4371 6.47604 24.4273 6.47726C24.3638 6.48427 24.3044 6.51231 24.2588 6.55685L19.5005 11.2863C19.4739 11.3126 19.4528 11.344 19.4384 11.3785C19.4239 11.413 19.4165 11.45 19.4165 11.4874C19.4165 11.5247 19.4239 11.5617 19.4384 11.5962C19.4528 11.6307 19.4739 11.6621 19.5005 11.6884L22.6699 14.8386C22.6964 14.8651 22.728 14.886 22.7627 14.9004C22.7974 14.9147 22.8346 14.9221 22.8722 14.9221C22.9098 14.9221 22.947 14.9147 22.9817 14.9004C23.0165 14.886 23.048 14.8651 23.0745 14.8386L27.8328 10.1092C27.8594 10.0828 27.8806 10.0514 27.895 10.0169C27.9094 9.98243 27.9168 9.94545 27.9168 9.90808C27.9168 9.87072 27.9094 9.83374 27.895 9.79923C27.8806 9.76473 27.8594 9.73337 27.8328 9.70701L24.6634 6.55685C24.6362 6.53018 24.6039 6.50923 24.5684 6.49519C24.5329 6.48115 24.495 6.47436 24.4568 6.47516H24.4568ZM24.4609 7.16007L27.2256 9.90808L22.872 14.2396L20.1072 11.4874L24.4609 7.16007Z" fill="#46C899"/>
<path d="M18.9079 11.9922C18.8975 11.9922 18.8872 11.9928 18.8769 11.994H18.8768C18.8127 12.0021 18.7533 12.0317 18.7083 12.0778L17.9159 12.8653C17.8634 12.9184 17.834 12.9899 17.834 13.0643C17.834 13.1388 17.8634 13.2102 17.9159 13.2633L18.7083 14.0508C18.7348 14.0773 18.7663 14.0983 18.801 14.1126C18.8358 14.127 18.873 14.1344 18.9106 14.1344C18.9482 14.1344 18.9854 14.127 19.0201 14.1126C19.0548 14.0983 19.0863 14.0773 19.1129 14.0508L19.9052 13.2633C19.9577 13.2102 19.9872 13.1388 19.9872 13.0643C19.9872 12.9899 19.9577 12.9184 19.9052 12.8653L19.1129 12.0778C19.0862 12.0506 19.0543 12.0291 19.0191 12.0144C18.9839 11.9997 18.9461 11.9921 18.9079 11.9922H18.9079ZM18.9105 12.6768L19.3024 13.0622L18.9105 13.4517L18.5185 13.0622L18.9105 12.6768Z" fill="#46C899"/>
<path d="M21.285 14.3545C21.2746 14.3545 21.2643 14.3551 21.254 14.3562H21.2539C21.1898 14.3644 21.1304 14.394 21.0853 14.4401L20.293 15.2276C20.2664 15.254 20.2453 15.2853 20.2308 15.3198C20.2164 15.3543 20.209 15.3914 20.209 15.4287C20.209 15.4661 20.2164 15.5031 20.2308 15.5376C20.2453 15.5721 20.2664 15.6034 20.293 15.6298L21.0853 16.4173C21.1119 16.4438 21.1434 16.4648 21.1781 16.4791C21.2128 16.4935 21.2501 16.5009 21.2876 16.5009C21.3252 16.5009 21.3625 16.4935 21.3972 16.4791C21.4319 16.4648 21.4634 16.4438 21.4899 16.4173L22.2823 15.6256C22.3348 15.5725 22.3642 15.5011 22.3642 15.4266C22.3642 15.3522 22.3348 15.2807 22.2823 15.2276L21.4899 14.4401C21.4633 14.4129 21.4314 14.3914 21.3962 14.3767C21.361 14.362 21.3232 14.3544 21.285 14.3545H21.285ZM21.2875 15.039L21.6753 15.4245L21.2875 15.814L20.8998 15.4286L21.2875 15.039Z" fill="#46C899"/>
<path d="M35.3742 11.1104C35.3291 11.1104 35.2844 11.1193 35.2428 11.1366C35.2011 11.1539 35.1633 11.1791 35.1316 11.211L27.52 18.7814C27.4761 18.8242 27.4446 18.878 27.4289 18.9371L25.5459 26.4086L13.2426 38.6373C13.2106 38.6689 13.1852 38.7064 13.1678 38.7478C13.1504 38.7892 13.1414 38.8336 13.1414 38.8784V40.7685C13.1412 40.8135 13.15 40.858 13.1672 40.8995C13.1844 40.9411 13.2097 40.9788 13.2417 41.0106C13.2737 41.0424 13.3117 41.0675 13.3535 41.0847C13.3953 41.1018 13.4401 41.1105 13.4853 41.1103H15.3869C15.432 41.1103 15.4767 41.1014 15.5183 41.0841C15.56 41.0668 15.5977 41.0416 15.6295 41.0097L27.9305 28.7833L35.4502 26.9097C35.5115 26.8949 35.5675 26.8636 35.612 26.8192L43.2236 19.2538C43.2556 19.2222 43.281 19.1846 43.2984 19.1433C43.3158 19.1019 43.3247 19.0575 43.3248 19.0126V17.1225C43.3247 17.0777 43.3158 17.0333 43.2984 16.9919C43.281 16.9505 43.2556 16.913 43.2236 16.8814L37.5187 11.211C37.4869 11.1792 37.4491 11.154 37.4075 11.1367C37.3658 11.1195 37.3212 11.1105 37.276 11.1104L35.3742 11.1104ZM35.5158 11.7939H37.1342L42.6418 17.2631V18.8717L35.1921 26.2712L27.8639 28.096L26.2353 26.4773L28.0712 19.1934L35.5158 11.7939ZM25.8559 27.0655L27.272 28.473L15.2453 40.432H13.8292V39.0193L25.8559 27.0655Z" fill="#E9C66F"/>
<path d="M36.3201 13.9483C36.3082 13.9486 36.2965 13.9494 36.2847 13.9508C36.2085 13.9593 36.1372 13.9929 36.0825 14.0463L30.3726 19.7217C30.3406 19.7533 30.3153 19.7909 30.2979 19.8323C30.2806 19.8737 30.2717 19.9181 30.2717 19.9629C30.2717 20.0078 30.2806 20.0522 30.2979 20.0936C30.3153 20.135 30.3406 20.1726 30.3726 20.2042L34.1758 23.9844C34.2077 24.0162 34.2455 24.0414 34.2871 24.0586C34.3288 24.0758 34.3735 24.0846 34.4186 24.0846C34.4637 24.0846 34.5084 24.0758 34.55 24.0586C34.5917 24.0414 34.6295 24.0162 34.6613 23.9844L40.3713 18.3091C40.4032 18.2775 40.4286 18.2398 40.4459 18.1984C40.4632 18.157 40.4721 18.1127 40.4721 18.0678C40.4721 18.023 40.4632 17.9786 40.4459 17.9372C40.4286 17.8958 40.4032 17.8582 40.3713 17.8265L36.568 14.0463C36.5353 14.0143 36.4966 13.9892 36.454 13.9724C36.4114 13.9555 36.3659 13.9474 36.3201 13.9483H36.3201ZM36.325 14.7702L39.6427 18.0678L34.4183 23.2656L31.1006 19.9629L36.325 14.7702Z" fill="#E9C66F"/>
<path d="M29.6615 20.5684C29.6491 20.5684 29.6366 20.5691 29.6243 20.5705H29.6242C29.5473 20.5803 29.476 20.6158 29.4219 20.6711L28.4711 21.6161C28.4081 21.6798 28.3728 21.7656 28.3728 21.8549C28.3728 21.9443 28.4081 22.03 28.4711 22.0937L29.4219 23.0387C29.4538 23.0705 29.4916 23.0957 29.5333 23.1129C29.5749 23.1301 29.6196 23.139 29.6647 23.139C29.7098 23.139 29.7545 23.1301 29.7961 23.1129C29.8378 23.0957 29.8756 23.0705 29.9075 23.0387L30.8583 22.0937C30.9213 22.03 30.9566 21.9443 30.9566 21.8549C30.9566 21.7656 30.9213 21.6798 30.8583 21.6161L29.9075 20.6711C29.8755 20.6385 29.8372 20.6126 29.795 20.595C29.7527 20.5773 29.7073 20.5683 29.6615 20.5684H29.6615ZM29.6646 21.3899L30.135 21.8523L29.6646 22.3198L29.1943 21.8523L29.6646 21.3899Z" fill="#E9C66F"/>
<path d="M32.5136 23.4038C32.5012 23.4038 32.4887 23.4045 32.4764 23.4059H32.4763C32.3994 23.4157 32.3281 23.4512 32.274 23.5065L31.3233 24.4516C31.2913 24.4832 31.2659 24.5208 31.2486 24.5622C31.2313 24.6036 31.2224 24.648 31.2224 24.6929C31.2224 24.7377 31.2313 24.7821 31.2486 24.8235C31.2659 24.8649 31.2913 24.9025 31.3233 24.9342L32.274 25.8792C32.3059 25.911 32.3437 25.9362 32.3854 25.9534C32.427 25.9706 32.4717 25.9794 32.5168 25.9794C32.5619 25.9794 32.6066 25.9706 32.6482 25.9534C32.6899 25.9362 32.7277 25.911 32.7596 25.8792L33.7104 24.9291C33.7734 24.8655 33.8087 24.7797 33.8087 24.6904C33.8087 24.601 33.7734 24.5153 33.7104 24.4516L32.7596 23.5065C32.7276 23.474 32.6893 23.4481 32.6471 23.4304C32.6048 23.4128 32.5594 23.4037 32.5136 23.4038H32.5136ZM32.5167 24.2252L32.982 24.6878L32.5167 25.1553L32.0514 24.6927L32.5167 24.2252Z" fill="#E9C66F"/>
</g>
</svg>
