<svg width="81" height="81" viewBox="0 0 81 81" fill="none" xmlns="http://www.w3.org/2000/svg">
<path d="M78.8292 16.0335H73.4848C73.1305 16.0335 72.7907 16.1742 72.5401 16.4248C72.2895 16.6754 72.1488 17.0152 72.1488 17.3696V21.3778H69.4766V14.6974C69.4767 14.5276 69.4445 14.3594 69.3817 14.2017L68.3129 11.5295L66.7095 7.52125C66.6102 7.27372 66.439 7.0616 66.218 6.9122C65.997 6.7628 65.7364 6.68297 65.4697 6.68297C65.2029 6.68297 64.9423 6.7628 64.7213 6.9122C64.5003 7.0616 64.3291 7.27372 64.2298 7.52125L62.6265 11.5295L61.5576 14.2017C61.4939 14.3592 61.4608 14.5275 61.4601 14.6974V21.3778H58.7879V1.3365C58.7879 0.982149 58.6471 0.64231 58.3965 0.391745C58.146 0.14118 57.8061 0.000413791 57.4518 0.000413791H46.7631C46.4087 0.000413791 46.0689 0.14118 45.8183 0.391745C45.5678 0.64231 45.427 0.982149 45.427 1.3365V21.3778H38.7466V10.9056L40.0145 7.10306C40.0945 6.86225 40.1042 6.60366 40.0426 6.35752L38.7065 1.01317C38.6343 0.723996 38.4676 0.46724 38.2328 0.283731C37.9979 0.100221 37.7085 0.000496124 37.4105 0.000413791H32.0661C31.7681 0.000496124 31.4786 0.100221 31.2438 0.283731C31.009 0.46724 30.8422 0.723996 30.7701 1.01317L29.434 6.35752C29.3724 6.60366 29.3821 6.86225 29.4621 7.10306L30.73 10.9056V21.3778H24.0776C24.127 19.9966 24.4825 18.6435 25.1185 17.4163C25.4071 16.8819 25.7103 16.3862 26.0029 15.9052C27.2586 14.1922 27.9742 12.1433 28.0579 10.0211C28.0619 8.69258 27.7999 7.37673 27.2873 6.15113C26.7746 4.92552 26.0218 3.81499 25.073 2.88503C23.1586 1.0134 20.5808 -0.0237751 17.9036 0.000413791C16.6824 0.0232806 15.4762 0.273856 14.3469 0.739271C14.1415 0.821107 13.9597 0.952627 13.8177 1.12204C13.6756 1.29145 13.5778 1.49346 13.5331 1.70996C13.4883 1.92646 13.498 2.15068 13.5612 2.36252C13.6244 2.57437 13.7392 2.76721 13.8953 2.92377L18.1441 7.16585L15.3196 9.99703L11.0174 5.70818C10.8631 5.5544 10.6735 5.44069 10.4652 5.37695C10.2569 5.3132 10.0361 5.30137 9.82218 5.34247C9.60824 5.38357 9.40759 5.47636 9.23772 5.61276C9.06785 5.74916 8.93392 5.92503 8.84758 6.12504C8.23884 7.5144 7.95946 9.02565 8.03123 10.5408C8.27871 12.574 9.0407 14.5105 10.2451 16.1671L10.3787 16.3942C11.3416 17.8869 11.8997 19.6043 11.9981 21.3778H8.01653V17.3696C8.01653 17.0152 7.87576 16.6754 7.6252 16.4248C7.37463 16.1742 7.03479 16.0335 6.68044 16.0335H1.33609C0.981736 16.0335 0.641896 16.1742 0.391331 16.4248C0.140766 16.6754 0 17.0152 0 17.3696V78.8296C0 79.184 0.140766 79.5238 0.391331 79.7744C0.641896 80.0249 0.981736 80.1657 1.33609 80.1657H78.8292C79.1836 80.1657 79.5234 80.0249 79.774 79.7744C80.0245 79.5238 80.1653 79.184 80.1653 78.8296V17.3696C80.1653 17.0152 80.0245 16.6754 79.774 16.4248C79.5234 16.1742 79.1836 16.0335 78.8292 16.0335ZM58.7879 42.7552V29.3944H61.4601V42.7552H58.7879ZM64.1322 14.9539L64.7695 13.3613H66.1671L66.8044 14.9539V42.7552H64.1322V14.9539ZM69.4766 29.3944H72.1488V42.7552H69.4766V29.3944ZM72.1488 24.05V26.7222H69.4766V24.05H72.1488ZM61.4601 24.05V26.7222H58.7879V24.05H61.4601ZM56.1157 2.67259V42.7552H48.0992V40.0831H52.1074V37.4109H48.0992V34.7387H52.1074V32.0665H48.0992V29.3944H52.1074V26.7222H48.0992V24.05H52.1074V21.3778H48.0992V18.7056H52.1074V16.0335H48.0992V13.3613H52.1074V10.6891H48.0992V8.01694H52.1074V5.34477H48.0992V2.67259H56.1157ZM42.2444 42.7552L40.9083 40.0831H41.4187C41.7731 40.0831 42.1129 39.9423 42.3635 39.6917C42.6141 39.4412 42.7548 39.1013 42.7548 38.747V33.4026C42.7548 33.0483 42.6141 32.7084 42.3635 32.4579C42.1129 32.2073 41.7731 32.0665 41.4187 32.0665H38.7466V29.3944H45.427V42.7552H42.2444ZM24.0496 29.3944H30.73V32.0665H28.0579C27.7035 32.0665 27.3637 32.2073 27.1131 32.4579C26.8625 32.7084 26.7218 33.0483 26.7218 33.4026V38.747C26.7218 39.1013 26.8625 39.4412 27.1131 39.6917C27.3637 39.9423 27.7035 40.0831 28.0579 40.0831H28.5682L27.2321 42.7552H24.0496V29.3944ZM31.867 38.0455C31.7474 37.8515 31.5801 37.6914 31.3811 37.5803C31.1821 37.4692 30.9579 37.4109 30.73 37.4109H29.3939V34.7387H40.0826V37.4109H38.7466C38.5188 37.4108 38.2948 37.4689 38.0958 37.5797C37.8968 37.6906 37.7295 37.8504 37.6096 38.0441C37.4898 38.2379 37.4215 38.459 37.4112 38.6865C37.4009 38.9141 37.4489 39.1405 37.5508 39.3442L39.2569 42.7552H30.2196L31.9325 39.3442C32.0331 39.1401 32.0799 38.9136 32.0684 38.6864C32.057 38.4591 31.9876 38.2385 31.867 38.0455ZM45.427 24.05V26.7222H38.7466V24.05H45.427ZM33.1096 2.67259H36.367L37.3557 6.62741L36.1425 10.2669C36.0973 10.4031 36.0743 10.5456 36.0744 10.6891V32.0665H33.4022V10.6891C33.4023 10.5456 33.3793 10.4031 33.3341 10.2669L32.1209 6.62741L33.1096 2.67259ZM30.73 26.7222H24.0496V24.05H30.73V26.7222ZM10.7448 9.21007L13.4317 11.8822C13.9326 12.3816 14.611 12.662 15.3183 12.662C16.0255 12.662 16.7039 12.3816 17.2048 11.8822L20.0413 9.05508C20.5406 8.5542 20.821 7.87578 20.821 7.16853C20.821 6.46127 20.5406 5.78286 20.0413 5.28197L17.452 2.69798C17.6137 2.68328 17.7753 2.67393 17.9356 2.67259C18.9092 2.65914 19.8757 2.83928 20.779 3.20254C21.6823 3.56581 22.5044 4.10496 23.1976 4.78868C23.8907 5.47239 24.4411 6.28704 24.8168 7.18528C25.1924 8.08352 25.3858 9.04745 25.3857 10.0211C25.2915 11.6514 24.7117 13.2162 23.7209 14.5143C23.4056 15.0327 23.0796 15.5672 22.7643 16.151C21.8416 17.9114 21.3654 19.8714 21.3774 21.8588V42.7552H19.2931V20.0417H16.6209V42.7552H14.697V21.7252C14.6663 19.3428 13.9638 17.0175 12.6701 15.0167L12.5258 14.7789C11.5673 13.4949 10.9404 11.9942 10.7007 10.4099C10.6806 10.0094 10.6954 9.60797 10.7448 9.21007ZM8.01653 29.3944H12.0248V42.7552H8.01653V29.3944ZM12.0248 24.05V26.7222H8.01653V24.05H12.0248ZM2.67218 18.7056H5.34435V77.4935H2.67218V18.7056ZM8.01653 45.4274H72.1488V77.4935H8.01653V45.4274ZM77.4931 77.4935H74.8209V18.7056H77.4931V77.4935Z" fill="#494949"/>
</svg>
