<svg width="357" height="337" viewBox="0 0 357 337" fill="none" xmlns="http://www.w3.org/2000/svg">
<mask id="mask0_2722_37" style="mask-type:alpha" maskUnits="userSpaceOnUse" x="0" y="0" width="357" height="337">
<rect x="0.638916" width="355.722" height="337" fill="#D9D9D9"/>
</mask>
<g mask="url(#mask0_2722_37)">
<path d="M53.7572 214.731C54.9425 214.731 56.1465 214.583 57.3476 214.277L104.233 202.266C107.916 201.322 111.078 198.962 113.034 195.706L127.459 171.62V447.037C127.459 459.339 137.444 469.304 149.755 469.304C162.068 469.304 172.053 459.339 172.053 447.037V284.456H180.412V447.037C180.412 459.339 190.396 469.304 202.707 469.304C215.021 469.304 225.005 459.339 225.005 447.037L225.007 171.848L239.301 195.71C241.252 198.96 244.415 201.325 248.097 202.27L294.987 214.275C296.189 214.583 297.395 214.731 298.581 214.731C305.011 214.731 310.873 210.406 312.545 203.899C314.521 196.189 309.874 188.337 302.156 186.365L261.01 175.827L234.609 131.745C230.518 124.916 221.661 122.691 214.823 126.776C214.143 127.183 213.522 127.646 212.936 128.139C211.807 129.818 210.563 131.41 209.22 132.915C209.137 133.087 209.068 133.264 208.991 133.438H208.749C200.669 142.215 189.085 147.726 176.235 147.726C163.383 147.726 151.801 142.215 143.72 133.438H143.338C143.201 133.119 143.05 132.805 142.889 132.5C141.757 131.199 140.694 129.837 139.719 128.41C139.046 127.809 138.312 127.259 137.51 126.78C130.672 122.694 121.815 124.922 117.723 131.75V131.745L91.3144 175.823L50.1802 186.361C42.458 188.335 37.8074 196.189 39.7876 203.896C41.4597 210.403 47.3254 214.729 53.759 214.731L53.7572 214.731Z" fill="#989898"/>
<path d="M216.809 103.6C216.809 125.98 198.642 144.125 176.235 144.125C153.827 144.125 135.657 125.981 135.657 103.6C135.657 81.2194 153.825 63.0791 176.235 63.0791C198.645 63.0791 216.809 81.2216 216.809 103.6Z" fill="#3BB30B"/>
<path d="M234.211 85.1502C235.749 85.4637 237.527 85.2278 239.538 84.4512C241.555 83.6716 242.726 82.4893 243.046 80.9C243.459 78.8778 242.512 77.5531 240.212 76.9216C239.133 75.7983 238.185 75.1525 237.363 74.9842C236.184 74.7469 235.203 74.826 234.427 75.2287C234.156 75.3884 233.799 75.5552 233.368 75.7292C231.022 76.7245 229.736 77.8119 229.494 78.9913C229.206 80.4267 229.513 81.7284 230.423 82.9035C231.329 84.0728 232.595 84.8236 234.211 85.1502Z" fill="#545454"/>
<path d="M238.904 69.3758C241.109 69.8231 242.739 69.8245 243.797 69.3671C244.849 68.9169 245.637 68.0482 246.166 66.7681C247.19 64.3618 248.232 62.3324 249.289 60.6828C256.182 59.7594 260.753 59.0288 262.999 58.4836C265.25 57.9414 267.388 56.6124 269.425 54.5052C271.457 52.3937 272.858 49.4339 273.637 45.6149L273.645 45.5746C274.3 42.1054 274.402 39.4834 273.961 37.7142C273.521 35.9436 272.095 33.8421 269.678 31.4057C268.227 29.8826 266.051 28.8916 263.149 28.4342C261.652 28.1839 260.154 27.9222 258.664 27.646C256.521 27.2648 254.372 27.4677 252.207 28.2558L252.248 28.263C249.712 29.0325 247.517 30.1386 245.658 31.5884C243.801 33.0396 242.734 34.4448 242.456 35.801C241.997 38.0577 242.944 39.4226 245.309 39.9046C248.925 40.6382 251.132 39.8974 251.93 37.6839C252.195 37.0482 252.893 36.4815 254.019 35.9896C255.147 35.502 257.095 35.5351 259.866 36.0989C260.815 36.2902 261.737 36.6354 262.62 37.1359C263.507 37.635 264.083 38.1068 264.338 38.5426C264.596 38.9827 264.772 39.9895 264.867 41.5544C264.962 43.1192 264.923 44.3403 264.744 45.2091C264.494 46.4446 263.935 47.6226 263.063 48.7502C262.191 49.8807 261.268 50.5481 260.288 50.7494L254.682 51.7347C251.137 52.3431 248.716 52.8422 247.426 53.219C246.131 53.5972 244.661 54.2344 243.009 55.1233C240.797 57.9855 239.399 59.8941 238.821 60.8577C238.235 61.8214 237.82 62.9015 237.575 64.1097C237.346 65.233 237.331 66.3549 237.534 67.481C237.724 68.5986 238.187 69.23 238.905 69.3753L238.904 69.3758Z" fill="#545454"/>
</g>
</svg>
