<svg width="235" height="234" viewBox="0 0 235 234" fill="none" xmlns="http://www.w3.org/2000/svg">
<path d="M228.773 34.7726H197.273V15.9544L207.909 6.13623H216.909L228.773 15.9544V34.7726Z" fill="#3BB30B"/>
<path d="M160.179 10.6362H29.1364V223.364H160.179L173.955 205.739V25.3919L160.179 10.6362Z" fill="white"/>
<rect x="5.40906" y="11.4546" width="23.7273" height="209.455" fill="#3BB30B"/>
<path d="M60.6959 162.808C61.1754 161.563 61.5819 160.391 61.9153 159.293C62.2488 158.174 62.4156 156.981 62.4156 155.715C62.4156 154.786 62.301 154.163 62.0716 153.846C61.8215 153.508 61.5193 153.34 61.1649 153.34C60.7897 153.34 60.4875 153.498 60.2582 153.815C60.008 154.11 59.7371 154.722 59.4452 155.651C59.0909 156.77 58.7261 157.794 58.3509 158.723C57.9757 159.631 57.5171 160.412 56.9752 161.066C56.4124 161.7 55.7453 162.196 54.9741 162.555C54.182 162.893 53.2023 163.062 52.035 163.062C50.9094 163.062 49.9089 162.84 49.0334 162.396C48.1579 161.953 47.4284 161.33 46.8447 160.528C46.2402 159.705 45.7817 158.713 45.469 157.551C45.1563 156.39 45 155.092 45 153.656C45 151.735 45.1668 150.067 45.5003 148.653C45.8129 147.217 46.1256 146.046 46.4383 145.138L51.8162 146.848C51.6911 147.143 51.5556 147.502 51.4097 147.924C51.2638 148.347 51.1283 148.801 51.0032 149.286C50.8782 149.772 50.7739 150.289 50.6905 150.838C50.6072 151.366 50.5655 151.893 50.5655 152.421C50.5655 153.16 50.6801 153.73 50.9094 154.131C51.1387 154.532 51.441 154.733 51.8162 154.733C52.0246 154.733 52.2122 154.701 52.379 154.638C52.5249 154.554 52.6812 154.374 52.848 154.1C52.9939 153.825 53.1711 153.413 53.3795 152.865C53.5671 152.295 53.8172 151.513 54.1299 150.521C54.7135 148.684 55.5161 147.291 56.5374 146.341C57.538 145.37 58.9345 144.884 60.7272 144.884C63.2493 144.884 65.1358 145.687 66.3865 147.291C67.6371 148.896 68.2625 151.239 68.2625 154.321C68.2625 155.884 68.1374 157.393 67.8873 158.85C67.6371 160.285 67.3037 161.605 66.8867 162.808H60.6959ZM55.0835 141.948V143.539H51.097V136.319H60.5474C61.1258 136.319 61.5948 136.279 61.9544 136.2C62.314 136.121 62.5954 136.002 62.7986 135.844C63.0018 135.686 63.1425 135.48 63.2207 135.226C63.2832 134.973 63.3145 134.664 63.3145 134.3C63.3145 133.952 63.2832 133.651 63.2207 133.398C63.1425 133.128 63.0018 132.915 62.7986 132.756C62.5954 132.598 62.314 132.479 61.9544 132.4C61.5948 132.321 61.1258 132.281 60.5474 132.281H51.097V125.227H55.0835V126.819H60.5005C61.7668 126.819 62.8768 126.953 63.8304 127.222C64.784 127.476 65.5813 127.895 66.2223 128.481C66.8476 129.067 67.3245 129.835 67.6528 130.785C67.9654 131.735 68.1218 132.907 68.1218 134.3C68.1218 135.709 67.9654 136.905 67.6528 137.887C67.3245 138.852 66.8476 139.636 66.2223 140.238C65.5813 140.84 64.784 141.275 63.8304 141.544C62.8768 141.813 61.7668 141.948 60.5005 141.948H55.0835ZM63.7132 123.987V122.395H55.0835V123.987H51.097L51.097 115.365C51.097 114.288 51.2299 113.338 51.4957 112.515C51.7458 111.676 52.1132 110.979 52.5978 110.425C53.0668 109.855 53.6374 109.427 54.3097 109.142C54.9819 108.857 55.7245 108.715 56.5374 108.715C57.4129 108.715 58.1946 108.834 58.8824 109.071C59.5547 109.309 60.1175 109.689 60.5708 110.211C61.0242 110.734 61.3681 111.407 61.6026 112.23C61.8371 113.038 61.9544 114.011 61.9544 115.151V117.099H63.7132V115.365H67.6997V123.987H63.7132ZM58.0382 115.555C58.0382 114.558 57.5927 114.059 56.7016 114.059C55.8105 114.059 55.3649 114.558 55.3649 115.555V117.075H58.0382V115.555ZM63.7132 107.496V105.904H55.0835V107.496H51.097V94.0765H55.3884V100.37H57.0533V94.9077H61.3447V100.37H63.4083V93.6252H67.6997V107.496H63.7132ZM62.3843 92.1905V90.0688H50.8782V92.1905H45.5628V79.9668C45.5628 78.5311 45.74 77.275 46.0943 76.1984C46.4278 75.1004 46.9073 74.1927 47.5326 73.4749C48.1579 72.757 48.9083 72.2187 49.7838 71.8599C50.6384 71.5009 51.5869 71.3215 52.6291 71.3215C53.2961 71.3215 53.8902 71.3849 54.4113 71.5115C54.9116 71.6382 55.3701 71.8387 55.787 72.1132C56.1831 72.3666 56.5479 72.6937 56.8814 73.0949C57.194 73.4749 57.4963 73.9287 57.7881 74.4566C58.1633 73.971 58.6115 73.6016 59.1326 73.3483C59.6537 73.0737 60.1644 72.831 60.6646 72.6199C61.1441 72.3876 61.5506 72.1343 61.884 71.8599C62.2175 71.5853 62.3843 71.1736 62.3843 70.6249V69.5798H67.6997L67.6997 75.0267C67.6997 75.8077 67.5329 76.4621 67.1994 76.99C66.8659 77.5178 66.4385 77.9611 65.9175 78.3201C65.3755 78.6789 64.7814 78.9851 64.1353 79.2384C63.4891 79.4918 62.8638 79.7345 62.2592 79.9668C61.6547 80.1989 61.1024 80.4629 60.6021 80.7585C60.1018 81.0329 59.7266 81.3706 59.4765 81.7719V83.0702H62.3843V81.1385H67.6997V92.1905H62.3843ZM54.6302 80.9485C54.6302 80.2939 54.4947 79.7979 54.2237 79.4601C53.9527 79.1222 53.515 78.9534 52.9105 78.9534C51.764 78.9534 51.1908 79.6185 51.1908 80.9485V83.0386H54.6302V80.9485ZM122.26 146.898V144.776H110.754V146.898H105.439V134.769H110.754V137.207H121.791V128.815H127.576V146.898H122.26ZM123.589 127.373V125.829L110.973 121.673V114.263L123.589 110.13V108.586H127.576V114.643L124.433 115.545V120.818L127.576 121.72V127.373H123.589ZM120.118 116.804L115.428 118.181L120.118 119.559V116.804ZM122.26 107.151V105.029H110.754V107.151H105.439V95.2752C105.439 93.6075 105.605 92.2351 105.939 91.1584C106.252 90.0817 106.679 89.2479 107.221 88.6567C107.742 88.0446 108.346 87.6223 109.034 87.39C109.722 87.1579 110.421 87.0417 111.129 87.0417C112.359 87.0417 113.349 87.3479 114.1 87.96C114.85 88.5723 115.392 89.2796 115.725 90.0817C116.142 88.7096 116.841 87.675 117.82 86.9783C118.8 86.2606 119.873 85.9016 121.041 85.9016C123.125 85.9016 124.741 86.5983 125.887 87.9917C127.013 89.3851 127.576 91.3907 127.576 94.0085V107.151H122.26ZM113.943 96.1619C113.943 95.4231 113.787 94.9269 113.474 94.6736C113.162 94.3992 112.766 94.2619 112.286 94.2619C111.848 94.2619 111.484 94.3992 111.192 94.6736C110.879 94.9269 110.723 95.4231 110.723 96.1619V97.967H113.943V96.1619ZM122.166 95.8769C122.166 95.2014 122 94.6735 121.666 94.2935C121.333 93.8925 120.874 93.6919 120.29 93.6919C119.686 93.6919 119.227 93.8925 118.915 94.2935C118.581 94.6735 118.414 95.2014 118.414 95.8769V97.967H122.166V95.8769Z" fill="black"/>
<path d="M90.8697 160.675V163.485H85.3789V152.444H99.8221C100.91 154.238 101.652 156.085 102.05 157.984C102.448 159.857 102.647 161.863 102.647 164C102.647 166.427 102.289 168.564 101.573 170.411C100.857 172.231 99.8486 173.761 98.5488 175.001C97.249 176.215 95.6973 177.125 93.8936 177.732C92.0633 178.339 90.0473 178.642 87.8458 178.642C85.591 178.642 83.5618 178.299 81.7581 177.613C79.9279 176.901 78.3761 175.885 77.1029 174.566C75.8031 173.247 74.8084 171.637 74.1188 169.738C73.4026 167.838 73.0445 165.675 73.0445 163.248C73.0445 162.034 73.1373 160.9 73.323 159.844C73.5087 158.789 73.7341 157.826 73.9994 156.955C74.2647 156.085 74.5565 155.306 74.8748 154.621C75.1931 153.934 75.4848 153.354 75.7501 152.879L82.5539 155.926C81.9969 156.771 81.546 157.681 81.2011 158.657C80.8298 159.607 80.6441 160.715 80.6441 161.981C80.6441 163.063 80.8298 164.013 81.2011 164.831C81.546 165.649 82.0499 166.321 82.7131 166.849C83.3497 167.377 84.1189 167.772 85.0208 168.036C85.8961 168.3 86.8511 168.432 87.8856 168.432C88.8405 168.432 89.7424 168.326 90.5912 168.115C91.4399 167.904 92.1827 167.574 92.8193 167.126C93.4559 166.651 93.96 166.071 94.3313 165.385C94.7026 164.699 94.8883 163.881 94.8883 162.931C94.8883 162.483 94.8617 162.047 94.8087 161.625C94.7557 161.177 94.7026 160.86 94.6496 160.675H90.8697ZM96.5196 149.251V147.13H84.8059V149.251H79.3947V137.03C79.3947 135.595 79.575 134.339 79.9358 133.263C80.2753 132.165 80.7634 131.258 81.4001 130.54C82.0367 129.823 82.8006 129.284 83.6919 128.926C84.562 128.567 85.5274 128.387 86.5885 128.387C87.2676 128.387 87.8723 128.451 88.4028 128.577C88.9121 128.704 89.3789 128.904 89.8034 129.179C90.2065 129.432 90.578 129.759 90.9174 130.16C91.2357 130.54 91.5434 130.994 91.8405 131.522C92.2225 131.036 92.6788 130.667 93.2092 130.414C93.7397 130.139 94.2596 129.896 94.7689 129.685C95.2571 129.453 95.6709 129.2 96.0103 128.926C96.3498 128.651 96.5196 128.24 96.5196 127.691V126.646H101.931V132.091C101.931 132.872 101.761 133.527 101.422 134.054C101.082 134.582 100.647 135.025 100.116 135.384C99.5647 135.743 98.9599 136.049 98.3021 136.302C97.6444 136.555 97.0078 136.798 96.3923 137.03C95.7769 137.263 95.2146 137.526 94.7053 137.822C94.196 138.096 93.814 138.434 93.5594 138.835V140.133H96.5196V138.202H101.931V149.251H96.5196ZM88.6256 138.012C88.6256 137.358 88.4876 136.861 88.2118 136.524C87.936 136.186 87.4904 136.017 86.8749 136.017C85.7079 136.017 85.1242 136.682 85.1242 138.012V140.101H88.6256V138.012ZM96.5196 125.012V122.89H84.8059V125.012H79.3947V107.124H85.2197V115.514H87.4797V108.232H93.3047V115.514H96.1058V106.522H101.931V125.012H96.5196ZM96.5196 104.884V102.763H84.8059V104.884H79.3947L79.3947 86.9966H85.2197V95.3864H87.4797V88.1047H93.3047V95.3864H96.1058L96.1058 86.3951H101.931L101.931 104.884H96.5196ZM95.1668 84.5512V81.8998H80.5247V84.5512H73.7607V72.4811L87.8458 65.1598H73.7607V53.9998H80.5247V56.6513H101.931V65.7138L87.8856 73.4704H101.931V84.5512H95.1668Z" fill="#3BB30B"/>
<path d="M110.545 96.9546H172.318V139.091H110.545L100.318 126.409V109.227L110.545 96.9546Z" fill="#FAFAFA"/>
<path d="M225.364 30.7624H223.864H202.592H201.092V29.2624V23.9419C201.092 15.498 206.659 9.14168 213.227 9.14103L225.364 30.7624ZM225.364 30.7624V29.2624M225.364 30.7624V29.2624M225.364 29.2624V23.9419C225.364 15.498 219.797 9.14171 213.228 9.14103L225.364 29.2624ZM213.227 1.50137H213.45C224.485 1.63757 233 11.8765 233 23.9419V196.838C232.988 197.414 232.846 197.981 232.583 198.496L232.577 198.508L216.628 230.419C216.627 230.421 216.626 230.423 216.625 230.425C216.196 231.261 215.474 231.91 214.595 232.247C213.715 232.584 212.741 232.584 211.861 232.247C210.983 231.91 210.259 231.261 209.83 230.424C209.829 230.422 209.828 230.42 209.827 230.418L193.878 198.508L193.872 198.496C193.609 197.981 193.466 197.414 193.455 196.838V23.9433C193.455 11.7955 202.085 1.50137 213.227 1.50137ZM5.43405 6.81639C5.54141 6.81321 5.64873 6.81383 5.75609 6.81827L5.78705 6.81955H5.81802H152.066C165.876 6.81955 177.156 18.104 177.156 31.9212V95.2673V95.3044L177.158 95.3416C177.164 95.4584 177.164 95.5751 177.158 95.6919L177.156 95.729V95.7662V138.328V138.357L177.158 138.387C177.161 138.487 177.161 138.586 177.158 138.683L177.156 138.713V138.743V202.17C177.156 215.987 165.876 227.271 152.066 227.271H5.81802C4.806 227.271 3.83489 226.869 3.11797 226.152C2.40286 225.437 2.00005 224.465 2.00005 223.452L2.00006 10.6411L2.00003 10.6349C1.99609 9.67938 2.34877 8.75877 2.98865 8.05283C3.62384 7.35206 4.49516 6.91172 5.43405 6.81639ZM11.1387 14.4616H9.63871V15.9616V218.132V219.632H11.1387H24.4338H25.9338V218.132V15.9616V14.4616H24.4338H11.1387ZM35.071 14.4616H33.571V15.9616V218.129V219.629H35.071H128.139C137.899 219.629 145.593 211.931 145.593 202.169V143.647V142.147H144.093H117.503C105.289 142.147 95.0709 131.594 95.0709 117.045C95.0709 102.497 105.289 91.9438 117.503 91.9438H144.093H145.593V90.4438V31.9218C145.593 22.16 137.899 14.4616 128.139 14.4616H35.071ZM149.328 14.4616H146.31L148.132 16.8673C151.325 21.0819 153.23 26.264 153.23 31.9218V90.4438V91.9438H154.73H168.025H169.525V90.4438V31.9218C169.525 22.16 161.83 14.4616 152.07 14.4616H149.328ZM225.365 39.9021V38.4021H223.865H202.593H202.592H201.092V39.9021V195.602V195.956L201.25 196.273L211.887 217.553L213.228 220.238L214.57 217.553L225.207 196.273L225.365 195.956V195.602V39.9021ZM117.502 99.5842H116.002V99.6526C112.497 99.9684 109.322 101.41 106.944 104.047C104.241 107.043 102.707 111.427 102.707 117.046C102.707 122.665 104.241 127.049 106.944 130.045C109.657 133.054 113.408 134.506 117.502 134.506H168.026H169.526V133.006V101.084V99.5842H168.026H117.502ZM169.524 143.646V142.146H168.024H154.729H154.727H153.227V143.646V202.168C153.227 207.793 151.358 213.034 148.21 217.228L146.409 219.628H149.41H152.069C161.83 219.628 169.524 211.93 169.524 202.168V143.646ZM113.684 117.045C113.684 113.465 116.585 110.564 120.161 110.564C123.739 110.564 126.639 113.465 126.639 117.045C126.639 120.624 123.738 123.525 120.161 123.525C116.584 123.525 113.684 120.625 113.684 117.045Z" fill="#4E4E4E" stroke="white" stroke-width="3"/>
</svg>
