<svg width="788" height="68" viewBox="0 0 788 68" fill="none" xmlns="http://www.w3.org/2000/svg">
<path d="M1.6757 45.84C5.2157 47.22 8.5457 48.39 11.6657 49.35C14.8457 50.31 18.2357 50.79 21.8357 50.79C24.4757 50.79 26.2457 50.46 27.1457 49.8C28.1057 49.08 28.5857 48.21 28.5857 47.19C28.5857 46.11 28.1357 45.24 27.2357 44.58C26.3957 43.86 24.6557 43.08 22.0157 42.24C18.8357 41.22 15.9257 40.17 13.2857 39.09C10.7057 38.01 8.4857 36.69 6.6257 35.13C4.8257 33.51 3.4157 31.59 2.3957 29.37C1.4357 27.09 0.955703 24.27 0.955703 20.91C0.955703 17.67 1.5857 14.79 2.8457 12.27C4.1057 9.75 5.8757 7.64999 8.1557 5.97C10.4957 4.23 13.3157 2.91 16.6157 2.01C19.9157 1.11 23.6057 0.659999 27.6857 0.659999C33.1457 0.659999 37.8857 1.14 41.9057 2.1C45.9857 3 49.3157 3.9 51.8957 4.8L47.0357 20.28C46.1957 19.92 45.1757 19.53 43.9757 19.11C42.7757 18.69 41.4857 18.3 40.1057 17.94C38.7257 17.58 37.2557 17.28 35.6957 17.04C34.1957 16.8 32.6957 16.68 31.1957 16.68C29.0957 16.68 27.4757 17.01 26.3357 17.67C25.1957 18.33 24.6257 19.2 24.6257 20.28C24.6257 20.88 24.7157 21.42 24.8957 21.9C25.1357 22.32 25.6457 22.77 26.4257 23.25C27.2057 23.67 28.3757 24.18 29.9357 24.78C31.5557 25.32 33.7757 26.04 36.5957 26.94C41.8157 28.62 45.7757 30.93 48.4757 33.87C51.2357 36.75 52.6157 40.77 52.6157 45.93C52.6157 53.19 50.3357 58.62 45.7757 62.22C41.2157 65.82 34.5557 67.62 25.7957 67.62C21.3557 67.62 17.0657 67.26 12.9257 66.54C8.8457 65.82 5.0957 64.86 1.6757 63.66V45.84ZM62.1236 22.96H56.7636V9.36H81.0836V41.6C81.0836 43.5733 81.2169 45.1733 81.4836 46.4C81.7503 47.6267 82.1503 48.5867 82.6836 49.28C83.2169 49.9733 83.9103 50.4533 84.7636 50.72C85.6169 50.9333 86.6569 51.04 87.8836 51.04C89.0569 51.04 90.0703 50.9333 90.9236 50.72C91.8303 50.4533 92.5503 49.9733 93.0836 49.28C93.6169 48.5867 94.0169 47.6267 94.2836 46.4C94.5503 45.1733 94.6836 43.5733 94.6836 41.6V9.36H118.444V22.96H113.084V41.44C113.084 45.76 112.63 49.5467 111.724 52.8C110.87 56.0533 109.457 58.7733 107.484 60.96C105.51 63.0933 102.924 64.72 99.7236 65.84C96.5236 66.9067 92.5769 67.44 87.8836 67.44C83.1369 67.44 79.1103 66.9067 75.8036 65.84C72.5503 64.72 69.9103 63.0933 67.8836 60.96C65.8569 58.7733 64.3903 56.0533 63.4836 52.8C62.5769 49.5467 62.1236 45.76 62.1236 41.44V22.96ZM122.623 52.4H127.983V22.96H122.623V9.36H151.663C155.29 9.36 158.49 9.81333 161.263 10.72C164.09 11.5733 166.436 12.8267 168.303 14.48C170.223 16.08 171.663 18.0267 172.623 20.32C173.583 22.6133 174.063 25.1467 174.063 27.92C174.063 30.9067 173.663 33.5733 172.863 35.92C172.063 38.2133 170.783 40.1333 169.023 41.68C167.263 43.2267 164.996 44.4 162.223 45.2C159.503 46 156.223 46.4 152.383 46.4H145.823V52.4H151.663V66H122.623V52.4ZM151.023 33.04C154.383 33.04 156.063 31.52 156.063 28.48C156.063 25.44 154.383 23.92 151.023 23.92H145.903V33.04H151.023ZM178.17 52.4H183.53V22.96H178.17V9.36H223.37V24H202.17V29.68H220.57V44.32H202.17V51.36H224.89V66H178.17V52.4ZM229.289 50.7H235.319V17.58H229.289V2.28H264.029C268.109 2.28 271.679 2.79 274.739 3.81C277.859 4.77 280.439 6.15 282.479 7.95C284.519 9.75 286.049 11.91 287.069 14.43C288.089 16.89 288.599 19.62 288.599 22.62C288.599 24.54 288.419 26.25 288.059 27.75C287.699 29.19 287.129 30.51 286.349 31.71C285.629 32.85 284.699 33.9 283.559 34.86C282.479 35.76 281.189 36.63 279.689 37.47C281.069 38.55 282.119 39.84 282.839 41.34C283.619 42.84 284.309 44.31 284.909 45.75C285.569 47.13 286.289 48.3 287.069 49.26C287.849 50.22 289.019 50.7 290.579 50.7H293.549V66H278.069C275.849 66 273.989 65.52 272.489 64.56C270.989 63.6 269.729 62.37 268.709 60.87C267.689 59.31 266.819 57.6 266.099 55.74C265.379 53.88 264.689 52.08 264.029 50.34C263.369 48.6 262.619 47.01 261.779 45.57C260.999 44.13 260.039 43.05 258.899 42.33H255.209V50.7H260.699V66H229.289V50.7ZM261.239 28.38C263.099 28.38 264.509 27.99 265.469 27.21C266.429 26.43 266.909 25.17 266.909 23.43C266.909 20.13 265.019 18.48 261.239 18.48H255.299V28.38H261.239ZM603.283 50.7H609.313V17.58H603.283V2.28H637.753V17.58H630.823V49.35H654.673V66H603.283V50.7ZM659.098 52.4H664.298L678.298 9.36H703.258L717.178 52.4H722.378V66H701.978L698.938 55.28H681.178L678.138 66H659.098V52.4ZM694.698 40.56L690.058 24.56L685.418 40.56H694.698ZM726.779 50.7H732.809V17.58H726.779V2.28H760.529C765.269 2.28 769.169 2.76 772.229 3.72C775.289 4.62 777.659 5.85 779.339 7.41C781.079 8.91 782.279 10.65 782.939 12.63C783.599 14.61 783.929 16.62 783.929 18.66C783.929 22.2 783.059 25.05 781.319 27.21C779.579 29.37 777.569 30.93 775.289 31.89C779.189 33.09 782.129 35.1 784.109 37.92C786.149 40.74 787.169 43.83 787.169 47.19C787.169 53.19 785.189 57.84 781.229 61.14C777.269 64.38 771.569 66 764.129 66H726.779V50.7ZM758.009 26.76C760.109 26.76 761.519 26.31 762.239 25.41C763.019 24.51 763.409 23.37 763.409 21.99C763.409 20.73 763.019 19.68 762.239 18.84C761.519 17.94 760.109 17.49 758.009 17.49H752.879V26.76H758.009ZM758.819 50.43C760.739 50.43 762.239 49.95 763.319 48.99C764.459 48.03 765.029 46.71 765.029 45.03C765.029 43.29 764.459 41.97 763.319 41.07C762.239 40.11 760.739 39.63 758.819 39.63H752.879V50.43H758.819Z" fill="black"/>
<path d="M339.685 40.98H333.295V28.56H358.405V61.23C354.325 63.69 350.125 65.37 345.805 66.27C341.545 67.17 336.985 67.62 332.125 67.62C326.605 67.62 321.745 66.81 317.545 65.19C313.405 63.57 309.925 61.29 307.105 58.35C304.345 55.41 302.275 51.9 300.895 47.82C299.515 43.68 298.825 39.12 298.825 34.14C298.825 29.04 299.605 24.45 301.165 20.37C302.785 16.23 305.095 12.72 308.095 9.84C311.095 6.9 314.755 4.65 319.075 3.08999C323.395 1.47 328.315 0.659999 333.835 0.659999C336.595 0.659999 339.175 0.869998 341.575 1.29C343.975 1.71 346.165 2.22 348.145 2.82C350.125 3.42 351.895 4.08 353.455 4.8C355.015 5.52 356.335 6.18 357.415 6.78L350.485 22.17C348.565 20.91 346.495 19.89 344.275 19.11C342.115 18.27 339.595 17.85 336.715 17.85C334.255 17.85 332.095 18.27 330.235 19.11C328.375 19.89 326.845 21.03 325.645 22.53C324.445 23.97 323.545 25.71 322.945 27.75C322.345 29.73 322.045 31.89 322.045 34.23C322.045 36.39 322.285 38.43 322.765 40.35C323.245 42.27 323.995 43.95 325.015 45.39C326.095 46.83 327.415 47.97 328.975 48.81C330.535 49.65 332.395 50.07 334.555 50.07C335.575 50.07 336.565 50.01 337.525 49.89C338.545 49.77 339.265 49.65 339.685 49.53V40.98ZM365.875 52.4H371.235V22.96H365.875V9.36H396.755C400.382 9.36 403.555 9.81333 406.275 10.72C409.048 11.5733 411.342 12.8 413.155 14.4C414.968 16 416.328 17.92 417.235 20.16C418.142 22.3467 418.595 24.7733 418.595 27.44C418.595 29.1467 418.435 30.6667 418.115 32C417.795 33.28 417.288 34.4533 416.595 35.52C415.955 36.5333 415.128 37.4667 414.115 38.32C413.155 39.12 412.008 39.8933 410.675 40.64C411.902 41.6 412.835 42.7467 413.475 44.08C414.168 45.4133 414.782 46.72 415.315 48C415.902 49.2267 416.542 50.2667 417.235 51.12C417.928 51.9733 418.968 52.4 420.355 52.4H422.995V66H409.235C407.262 66 405.608 65.5733 404.275 64.72C402.942 63.8667 401.822 62.7733 400.915 61.44C400.008 60.0533 399.235 58.5333 398.595 56.88C397.955 55.2267 397.342 53.6267 396.755 52.08C396.168 50.5333 395.502 49.12 394.755 47.84C394.062 46.56 393.208 45.6 392.195 44.96H388.915V52.4H393.795V66H365.875V52.4ZM394.275 32.56C395.928 32.56 397.182 32.2133 398.035 31.52C398.888 30.8267 399.315 29.7067 399.315 28.16C399.315 25.2267 397.635 23.76 394.275 23.76H388.995V32.56H394.275ZM427.125 52.4H432.485V22.96H427.125V9.36H472.325V24H451.125V29.68H469.525V44.32H451.125V51.36H473.845V66H427.125V52.4ZM477.984 52.4H483.344V22.96H477.984V9.36H523.184V24H501.984V29.68H520.384V44.32H501.984V51.36H524.704V66H477.984V52.4ZM529.104 50.7H535.134V17.58H529.104V2.28H556.554L573.204 34.14V2.28H598.584V17.58H592.554V66H571.944L554.304 34.23V66H529.104V50.7Z" fill="#3BB30B"/>
</svg>
